<svg id="Layer_1" data-name="Layer 1" xmlns="http://www.w3.org/2000/svg" viewBox="0 0 950 600"><defs><style>.cls-1{fill:#e94a40;}.cls-2{fill:#f18b75;}.cls-3{fill:#ee7965;}.cls-4{fill:#fdebe7;}.cls-5{fill:#fbd7ce;}.cls-6{fill:#f29485;}.cls-7{fill:#f08172;}.cls-8{fill:#504e51;}.cls-9{fill:#2c2d31;}.cls-10{fill:#59585c;}.cls-11{fill:#626063;}.cls-12{fill:#868486;}.cls-13{fill:#9c9a9e;}.cls-14{fill:#a7a5a5;}.cls-15{fill:#f6afa2;}.cls-16{fill:#f1887c;}.cls-17{fill:#c5c2c3;}.cls-18{fill:#f8c1b2;}.cls-19{fill:#d78f83;}.cls-20{fill:#e5b6ab;}.cls-21{fill:#f2958e;}.cls-22{fill:#caa29f;}.cls-23{fill:#727074;}.cls-24{fill:#fef4f3;}.cls-25{fill:none;stroke:#000;stroke-miterlimit:10;stroke-width:5px;}</style></defs><path class="cls-1" d="M323.86,447.89H287.94V572.42a23.32,23.32,0,0,1-.44,3H196.8c0-1-.09-1.91-.09-2.87v-82H69.25V356.67c.82,0,1.66-.07,2.51-.07H278.49c1,0,2.08-.06,3.12-.09l.28.28a4.44,4.44,0,0,0-.15.52H71.59a13.06,13.06,0,0,0-1.79.28V489.35c.64,1.32,1.84.67,2.75.67q62.34.06,124.66,0c0,.88,0,1.75,0,2.63v78.84c0,1,0,1.92.06,2.88.59,1,1.58.55,2.37.55h84.57a20.58,20.58,0,0,0,2.35-.25l.62-.63a25,25,0,0,0,.25-2.58V447.28H324Z"/><path class="cls-2" d="M875.33,25.56l-.09,1h-.94c-.55,0-1.11-.06-1.67-.06H796a15.72,15.72,0,0,0-1.68.06H746.94a6.53,6.53,0,0,0-1.24.27v144.4c0,.88,0,1.75.08,2.63l-1-.08V26.55H664.5c-.88,0-1.76,0-2.64.06h-.93l-.1-1Z"/><path class="cls-3" d="M408.9,575.4c0-.15.05-.31.06-.47H581.59a12.18,12.18,0,0,0,1.91,0,3.18,3.18,0,0,0,1-.52V399.18l.64.11h0c0,.8-.06,1.6-.06,2.39V575.4Z"/><path class="cls-4" d="M26.61,320.52l-.65.11V145h.68c.05.79.14,1.59.14,2.38V319.6Z"/><path class="cls-2" d="M26.64,145.05,26,145v-1c1.44,0,2.87.08,4.31.08h163.3c1,0,2.07-.1,3.11-.15l.5.53a19.25,19.25,0,0,1-3.11.53H27.53Z"/><path class="cls-2" d="M585,575.4V401.65c0-.79,0-1.59.06-2.39a21.58,21.58,0,0,1,.33,2.77V571.81c0,1.19.05,2.39.08,3.59Z"/><path class="cls-5" d="M924.68,173.88l.56-.06V307.2l-.51-.49V177.46C924.75,176.27,924.71,175.07,924.68,173.88Z"/><path class="cls-2" d="M924.73,306.71l.51.49v.48h-.94l-.06-.69a.24.24,0,0,1,0-.3h.44Z"/><path class="cls-1" d="M584.47,399.2v.71c-1,0-1.91-.1-2.87-.1H414.81V362.33H666.57c.95,0,1.91-.08,2.86-.13l.08.72H415.38v36.2h166C582.39,399.13,583.43,399.18,584.47,399.2Z"/><path class="cls-1" d="M924.24,307l.06.69H670.45a2.6,2.6,0,0,0-.05-.62H921.13A29.35,29.35,0,0,0,924.24,307Z"/><path class="cls-2" d="M670.4,307.15a2.6,2.6,0,0,0,.05.62c0,1-.1,2.07-.1,3.1v49.49a10.14,10.14,0,0,1-.06,1.91c0,.25-.51.43-.78.65l-.08-.72V309.57a8.62,8.62,0,0,1,.1-1.9C669.58,307.44,670.09,307.32,670.4,307.15Z"/><path class="cls-2" d="M585.08,399.25l-.64-.11Z"/><path class="cls-3" d="M924.73,306.71h-.44V177.17a17.33,17.33,0,0,0-.07-1.91.47.47,0,0,0-.12-.19c-.06-.07-.12-.12-.29-.28H625l-.66,0c-.18-1.17.85-.78,1.37-1.06l.62.06h1.45c.87,0,1.75.11,2.63.11H742.15c.88,0,1.75-.08,2.63-.12l1,.08h38.83c2.88,0,5.75-.05,8.63-.07h1c1,0,2.08.07,3.12.07H924.64c0,1.19.07,2.39.07,3.58V303.76C924.76,304.79,924.74,305.75,924.73,306.71Z"/><path class="cls-1" d="M627.77,173.75h-.59q0-18.47.06-36.93a3.55,3.55,0,0,0-1.09-2.79c-2.18-2.2-4.35-4.4-6.54-6.59q-5.4-5.37-10.82-10.71-5.58-5.6-11.17-11.17c-1.09-.11-2.18-.33-3.27-.33H499.62V72.92c-3.81-.52-300.57-.35-302.33.16v68.6c0,1,0,1.92-.06,2.88l-.5-.53V72.09H500.17c.09.28.19.56.28.84-.06.63-.18,1.27-.18,1.9q0,14,.06,28.05c0,.47.07,1,.12,1.7.87,0,1.71.09,2.55.09h93a4.47,4.47,0,0,1,3.51,1.49c9.54,9.45,19.15,18.84,28.21,27.72Z"/><path class="cls-6" d="M660.93,26.51h.93c0,1-.07,1.91-.07,2.87v89.14c-.18.18-.35.36-.53.53a3.11,3.11,0,0,1-.45-1c-.06-.79,0-1.59,0-2.39V29.38C660.83,28.42,660.89,27.47,660.93,26.51Z"/><path class="cls-1" d="M661.3,119.12c.18-.17.35-.35.53-.53.56,0,1.12.07,1.68.07h79.37c.64,0,1.28-.07,1.91-.11v.8c-.95-.06-1.9-.16-2.85-.16H663.69C662.89,119.18,662.09,119.14,661.3,119.12Z"/><path class="cls-7" d="M26.61,320.52l.17-.87H281.45c.25,0,.49.28.74.43l-.6.6c-1,0-2.07-.1-3.11-.1h-249A25,25,0,0,1,26.61,320.52Z"/><path class="cls-1" d="M281.59,320.76l.6-.6c0,.79.07,1.59.07,2.38v34.12l-.38.13-.28-.29Q281.6,338.62,281.59,320.76Z"/><path class="cls-6" d="M584.48,574.37a3.4,3.4,0,0,1-1,.52,15.22,15.22,0,0,1-1.91,0H409c0-.63-.1-1.27-.1-1.9V448l.06-.76c.3.19.81.35.84.57a15.87,15.87,0,0,1,.08,2.39V574.5h172C582.73,574.5,583.61,574.41,584.48,574.37Z"/><path class="cls-8" d="M323.86,447.89l.12-.59c.29.25.81.48.83.75.1,1.09,0,2.2.07,3.3a5.75,5.75,0,0,0,.52,1.4,2.44,2.44,0,0,0,2.71-.53l-2.67-.18c-.05-2.35-.09-4.7-.14-7.06v-7.83h5.79l.76.05v1H326c1.15,2.27-1.25,5,1.64,6.79.16.11.07.61.08.93v1.9c0,2.5.86,3.28,3.44,3.23l.75.2v1.26h-.62c-.88-.35-1.76-.85-2.19.6a1.17,1.17,0,0,1-.9.51c-1.33.06-2.67,0-4.3,0Zm2.87-2.78-.52.12c.11,1.95-.15,3.91.52,5.83Z"/><path class="cls-9" d="M373,447.87v5.56h-4.77c-.11-.23-.34-.68-.61-1.24h-1.8v-.63c2,.59,2-2,3.6-2v-4c0-.35.39-.67.6-1a.32.32,0,0,0,.09.37v5.6l-1.37.49.07.37h1.83V438.2h-4.92l-.57.09v-1.16l.62.08h5.83V451.5h.56c0-1.07-.06-2.16,0-3.22,0-.33.46-.62.7-.93Z"/><path class="cls-10" d="M365.31,458.43c-1.47.8-2.61-.11-3.59-.9a23,23,0,0,1-2.66-3l-1.71,2.24-.4-.47c.29-.46.6-.92.85-1.41,2-3.91-.09-8-4.48-8.91l-.66-.11c.26-.22.52-.63.77-.62a5.52,5.52,0,0,1,4.4,2.41,19.17,19.17,0,0,1,1.24,2c.85-.47.5-2,1.86-1.86-.24.57-.49,1.14-.73,1.72a5.94,5.94,0,0,0,4.6,8.41Z"/><path class="cls-1" d="M373,447.87l-.11-.54c.88,0,1.75-.07,2.62-.07H409l-.06.76c-.63-.06-1.26-.15-1.89-.15Z"/><path class="cls-11" d="M344.37,457.83c-.08.83-.55,1.08-1.32.9a6.49,6.49,0,0,1-3.79-2.3c-.43-.57-.81-1.16-1.33-1.92-.5.66-.9,1.3-1.4,1.85-1.33,1.5-2.81,2.68-5,2.07l.65-.61c2.82-.11,4-2.13,5.07-4.32h1.27a14.34,14.34,0,0,0,1,1.85c1,1.39,2.19,2.52,4.08,2.45Z"/><path class="cls-12" d="M365.31,458.43l-.51-.55c.05-2.43.13-4.86.12-7.29,0-1.55-.16-3.11-.25-4.66l.57-.57a6.27,6.27,0,0,1,.43,1.46c.08,1.58.07,3.16.09,4.74v.63c0,1.49,0,3-.11,4.48A11.88,11.88,0,0,1,365.31,458.43Z"/><path class="cls-13" d="M344.37,457.83h-.79V446l.74-.12.36,5.7c-.67.28-.39.55,0,.82Z"/><path class="cls-14" d="M352.66,445.86l.66.11V457.8l-.63.06-.27-5.41c.43-.38.62-.72-.15-.9Z"/><path class="cls-13" d="M332.16,457.82l-.65.61c-.09-2-.17-3.94-.26-5.92h.62C332,454.29,332.06,456.06,332.16,457.82Z"/><path class="cls-9" d="M352.23,451.55c.77.18.58.52.15.9l-7.72-.09c-.4-.27-.68-.54,0-.82Z"/><path class="cls-10" d="M352.65,457.86l.63-.06c1.54.27,2.53-.81,3.67-1.51l.4.47c-.89,1.28-2.33,1.57-3.68,2C353,459,352.61,458.6,352.65,457.86Z"/><path class="cls-6" d="M794.28,173.79h-1V28.71c0-.72,0-1.44-.06-2.15h1.09V116a11.28,11.28,0,0,0,.22,1.53h79.9V29.19c0-.88,0-1.76-.07-2.63h.94c0,.79.09,1.59.09,2.39v86.52c0,3.22,0,3.22-3.32,3.22H794.5a10.36,10.36,0,0,0-.25,1.46Q794.25,147,794.28,173.79Z"/><path class="cls-6" d="M69.82,489.32c1,.07,2.06.19,3.09.19H194.6a13.85,13.85,0,0,1,2.63.49H72.57C71.66,490,70.46,490.64,69.82,489.32Z"/><path class="cls-15" d="M287.26,574.06c-.08-.86-.23-1.73-.23-2.6V449.75a12.75,12.75,0,0,1,.46-2.45V571.48A25,25,0,0,1,287.26,574.06Z"/><path class="cls-15" d="M197.35,574.38c1,0,2.08.07,3.11.07h83.1c1,0,2.05.15,3.08.23a20.58,20.58,0,0,1-2.35.25H199.72C198.93,574.93,197.94,575.41,197.35,574.38Z"/><path class="cls-6" d="M282.27,356.66l-.53.64a4.44,4.44,0,0,1,.15-.52Z"/><path class="cls-1" d="M27.54,145.05c0,.8-.12,1.59-.12,2.39V317.5c0,.72,0,1.44.07,2.16h-.7V147.44c0-.79-.09-1.59-.14-2.38Z"/><path class="cls-5" d="M626.15,134a3.55,3.55,0,0,1,1.09,2.79q-.06,18.47-.06,36.93h-.86V135.87C626.24,135.28,626.19,134.65,626.15,134Z"/><path class="cls-1" d="M624.19,200.21q.06-6.9.11-13.79V174.76l.66.05v2.92c0,.88-.07,1.75-.07,2.63v39l-.63-.12a.46.46,0,0,0-.1-.32Q624.17,209.55,624.19,200.21Z"/><path class="cls-1" d="M626.28,135.91v37.85l-.62-.06V135.89Z"/><path class="cls-5" d="M499.07,105.72l.55-.56h94.73c1.09,0,2.18.22,3.27.33l-.34.33h-.76a30,30,0,0,1-3.06.27H499.14A1.16,1.16,0,0,1,499.07,105.72Z"/><path class="cls-3" d="M626.28,135.91h-.53c-.61-.73-1.16-1.51-1.83-2.18-5-5-10-10.06-15.06-15.1a15.29,15.29,0,0,1-1.34-1.85h1.27l10.82,10.71c2.19,2.19,4.36,4.39,6.54,6.59C626.19,134.65,626.24,135.28,626.28,135.91Z"/><path class="cls-5" d="M608.79,116.72h-1.27l-.49-.48h0l-.49-.48h0l-.49-.48h0l-.49-.48h0l-.49-.48h0l-.49-.48h0l-.49-.48h0l-.49-.48h0l-.49-.48h0l-.49-.48h0l-.49-.48h0l-.47-.48h0l-.47-.48h0l-.47-.48h0l-.47-.47h0l-.47-.47h0l-.47-.47h0l-.47-.47h0l-.47-.47h0l-.47-.47h0l-.47-.48h0c-.07-.26-.13-.52-.19-.78l.34-.34Q603.22,111.13,608.79,116.72Z"/><path class="cls-16" d="M285.08,444.49l22.26-.07h18V445H285.25l-.2-.12C285.07,444.73,285.07,444.61,285.08,444.49Z"/><path class="cls-13" d="M331.84,438.2l.18,5.33h-.7c-.07-1.77-.14-3.55-.2-5.32Z"/><path class="cls-13" d="M332.19,446c-.11,1.77-.22,3.54-.34,5.32l-.75-.2c.09-1.74.17-3.48.26-5.22Z"/><path class="cls-13" d="M332,431.88l-.18,5.32-.76-.05c.07-1.76.15-3.53.22-5.29Z"/><path class="cls-17" d="M325.4,452.75V452l2.67.18A2.45,2.45,0,0,1,325.4,452.75Z"/><path class="cls-6" d="M371.58,444.39h40.7c.05,7.11.09,14.07.13,21l-.57.15V445H371.58Z"/><path class="cls-12" d="M365.13,437.11c0-1.34-.05-2.69,0-4,0-.95-.45-1.27-1.33-1.16v-.76l2-.29v6.33Z"/><path class="cls-12" d="M365.21,443.65l-.07-5.38.57-.09v4.72a5.77,5.77,0,0,1-.46,1.46Z"/><path class="cls-12" d="M370.61,444.92h-.53a.32.32,0,0,1-.09-.37l.64-.12Z"/><path class="cls-9" d="M338.36,450.66c.05.94.1,1.89.14,2.84h-1.27v-2.82Z"/><path class="cls-10" d="M364.67,445.93l-2.81.9c.09-1.44,1.57-1,2.33-1.85l-.42-1,1.44-.29v.7c-.25.13-.49.27-.73.41l.76.59Z"/><path class="cls-8" d="M343.55,446c-.85.31-1.7.64-2.57.92a2.25,2.25,0,0,1-.73-.05c.77-1.35,2.1-1.52,3.45-1.58.19,0,.39.38.59.59Z"/><path class="cls-8" d="M203.65,417.55c-.05-1.1-.1-2.2-.17-3.48h-4V402.85h-84.2v8.86h-1c0-.47.06-.95.06-1.43V362c0-.64-.06-1.27-.09-1.91l.41-.54a1.14,1.14,0,0,1,.45,0c.06.2.12.4.17.6a8.53,8.53,0,0,1-.07,1v39.52a7.92,7.92,0,0,0,.14,1.09h20.3V361.85c0-.55-.07-1.11-.11-1.66l.29-.65.49,0,.15.5c0,.48-.08,1-.08,1.43v38.79c0,.45.06.91.1,1.47h20.38V382.62q0-11.25-.06-22.5l.11-.52a.64.64,0,0,1,.47,0l.37.65c0,.4-.09.79-.1,1.19v38.78a12.61,12.61,0,0,0,.22,1.62H178V380.75q0-10.29-.07-20.58l.16-.1H179c0,.47-.09.95-.09,1.43v39.08c0,.39.07.77.1,1.11h20.23v-40c0-.55-.08-1.11-.12-1.67h.23l.69,0h.14c0,.32-.07.64-.07,1v50.81a10.93,10.93,0,0,0,.17,1.28H241.8V372.74c0-4.23,0-8.46-.07-12.69l.12-.53h.49c.15.16.29.33.44.5,0,.39-.08.79-.08,1.19v50.84a5.6,5.6,0,0,0,.14,1h41.38V361.8c0-.63-.1-1.27-.16-1.9l.11-.09-.05-.13a1.27,1.27,0,0,1,.27-.18H285c0,.72.1,1.43.1,2.15v50.12c0,.7-.07,1.39-.11,2.3H204.78c-.29,1.46-.54,2.7-.79,3.93Z"/><path class="cls-10" d="M166.93,262.61c.13-.32.19-.83.4-.9a4.83,4.83,0,0,1,1.42,0H241.6a11.69,11.69,0,0,1,1.19.1l.1.85v11.76c.5,0,.88.1,1.27.1h38.58a8.71,8.71,0,0,0,1.81-.38H285c.05.55.15,1.1.15,1.65v40.57c0,.48-.07.95-.11,1.43h-.7c-.08-.22-.16-.44-.25-.65a9.41,9.41,0,0,0,.13-1.19V276.76a10.57,10.57,0,0,0-.22-1.48H264.59a2.1,2.1,0,0,0-.64.26H263a5.71,5.71,0,0,0-1.35-.29H243.94a7.56,7.56,0,0,0-1.16.18c0,.63-.07,1.1-.07,1.56V315.5c0,.56.09,1.11.14,1.66l-.39.58h-.6a5.82,5.82,0,0,0-.13-.82,9.39,9.39,0,0,1,.05-1V264.11c0-.45-.07-.91-.09-1.3a2.54,2.54,0,0,0-.59-.19H201.28a3.9,3.9,0,0,0-1.23.46h-.65a5.64,5.64,0,0,0-1.5-.45H167.54Z"/><path class="cls-3" d="M227,479.87c-.24-.42-.67-.83-.68-1.26-.08-2,0-4,0-6V469.9H221c-1.76,0-3.53.11-5.27,0s-3.09.6-4.79.14-3.49-.1-5.24-.1h-5.33v5.56H213v11.25c4.93.06,9.69,0,14.44,0h14.37a5.76,5.76,0,0,0,.11.82c-.95,0-1.91.07-2.87.07l-38.81.05h-.71a.82.82,0,0,1-.36-.18,1.82,1.82,0,0,0-.06-.46c.07-.95.19-1.9.2-2.85,0-5.48.05-11,.08-16.46l.75-.19.18,1.42h11c.41,0,.81-.54,1.18-.81.52.29,1,.82,1.57.83,4,.07,8,0,12.21,0V452.22H242.6v6.68c-1-1.18-.66-2.15-.73-3s0-1.73,0-2.72H227.09V478.8Zm-26.7,6.88c4,0,7.83.08,11.62-.05V476.45h-11.6Z"/><path class="cls-18" d="M199.18,148H30.41l-.69-.2c.35-.25.69-.64,1.07-.71A13.58,13.58,0,0,1,33,147H199.21Z"/><path class="cls-2" d="M200.11,75h297a5.71,5.71,0,0,1,1.56.46h-.58l-.67.25-1.66-.16c-.87,0-1.75-.13-2.62-.13h-290c-.95,0-1.91.06-2.87.1Z"/><path class="cls-14" d="M200.11,75l.12.59a.86.86,0,0,0,0,.39c0,.79-.06,1.59-.06,2.39V218c0,.8,0,1.6.07,2.4a1.65,1.65,0,0,1-.11.36v.62c-.28-.21-.77-.39-.8-.63a15.78,15.78,0,0,1-.08-2.38V150.85c0-1,0-1.91-.08-2.87v-1c0-1,.06-2.07.06-3.1v-66a12.85,12.85,0,0,1,.06-2.15C199.39,75.42,199.84,75.22,200.11,75Z"/><path class="cls-19" d="M199.11,487.06a1.82,1.82,0,0,1,.06.46H169.68q-27.33,0-54.65.06c-13.67,0-27.33,0-41-.07-.55,0-1.1-.06-1.78-.1A11.15,11.15,0,0,1,72,486V423.69l1.22.12c-.94.57-.74,1.51-.74,2.37v58.46c0,.69.11,1.38.2,2.38h39.87c.73,0,1.47,0,1.79-.83l.82.75h47.24c5.2,0,10.39-.05,15.59-.08l.78-.75c.47,1.08,1.43.82,2.27.83Z"/><path class="cls-20" d="M82.15,317.72c-4.72,0-9.43.06-14.15.06H29.68a18.64,18.64,0,0,1-.29-2.23V275a2.23,2.23,0,0,1,.22-.66l.21.18.58.71v41.59H79.7c.71,0,1.43-.06,2.15-.09Z"/><path class="cls-7" d="M285,487.45c0,.72.07,1.44.07,2.15v82.7c-.63.1-1.27.17-1.91.21H201.59c-.69,0-1.92.65-1.94-.93h.44a11.18,11.18,0,0,0,2,.36h80.06c.68,0,1.37-.12,2.29-.2v-84Z"/><path class="cls-11" d="M72.08,386.68v-.57l.55-.25,24.9.05h2.16c1.78,0,1.92.18,2,1.89v3.35q0,10.29.1,20.58c-.36.33-.73.88-1.08,0V387H73a.55.55,0,0,0-.36,0Z"/><path class="cls-9" d="M199.45,263.06h.65c0,.87.05,1.75.05,2.63v48.8c0,.88,0,1.75.08,2.63l-.13.53h-.38l-.49-.54c0-1,.14-1.9.14-2.86V269C199.39,267.05,199.43,265.06,199.45,263.06Z"/><path class="cls-8" d="M263,275.53h1v37.76c0,1.27.06,2.54.09,3.82l-.16.59h-.83l-.16-.59c0-.88.09-1.75.09-2.63Q263,295,263,275.53Z"/><path class="cls-21" d="M200.11,571.57h-.44c0-1-.07-1.91-.07-2.87V490.82c0-1,0-2.07-.06-3.11h.71c0,1-.08,1.91-.08,2.87V544Q200.16,557.8,200.11,571.57Z"/><path class="cls-6" d="M29.72,147.73l.69.2a11.69,11.69,0,0,0-.12,1.19v82.7l-.49.08-.1-.12V150.6C29.69,149.64,29.71,148.69,29.72,147.73Z"/><path class="cls-9" d="M124.76,317.7h-.38a2.73,2.73,0,0,0-.13-.53c0-.87.08-1.75.08-2.62v-39h.73V314.3c0,1,.09,1.91.14,2.86Z"/><path class="cls-22" d="M124.76,317.7l.49-.54h74l.49.54H167.16Q146,317.75,124.76,317.7Z"/><path class="cls-19" d="M72.66,385.86l-.56.25V359.52h42.6l-.41.54H74.24a8.56,8.56,0,0,0-1.58.27Z"/><path class="cls-9" d="M285,487.45l-.54.28-20.32-.08-22.23-.1a7.68,7.68,0,0,0-.11-.82l.34-1.52c.56,1.22.94,1.87,2.14,1.85,5.9-.1,11.8,0,17.7-.06a4.18,4.18,0,0,0,1.09-.34h.83c.27.12.54.35.82.35q9.84,0,19.69-.07l.6.38Z"/><path class="cls-9" d="M82.15,317.72c-.12-.33-.23-.65-.34-1s.1-1,.1-1.43V275.24l.21-.23h.48l.11.1c0,1-.09,1.92-.09,2.88v35c0,1.36.06,2.72.09,4.07l-.14.55A1.19,1.19,0,0,1,82.15,317.72Z"/><path class="cls-19" d="M285,487.31l-.6-.38c0-4.63.08-9.27.08-13.9q0-13.92-.07-27.82l.62-.36.2.12c-.05,1-.14,1.91-.15,2.86v36.85C285.09,485.56,285.05,486.43,285,487.31Z"/><path class="cls-6" d="M200.11,317.66a2.56,2.56,0,0,1,.13-.53h39.42a18.88,18.88,0,0,0,2.12-.26,4.66,4.66,0,0,0,.13.82Z"/><path class="cls-7" d="M284.41,317.76h.64V359.5h-.63c0-.8.1-1.59.1-2.39V320.17C284.52,319.35,284.45,318.56,284.41,317.76Z"/><path class="cls-13" d="M284.15,359.66l.05.13-.11.09-24.81.07-16.46.08c-.15-.17-.29-.34-.44-.5q19.34,0,38.67.05C282.08,359.58,283.11,359.63,284.15,359.66Z"/><path class="cls-6" d="M82.56,317.67a2.22,2.22,0,0,1,.14-.55h41.55a2,2,0,0,0,.13.53c-3.11,0-6.22.09-9.32.08Q98.82,317.73,82.56,317.67Z"/><path class="cls-16" d="M241.89,359.55l-.12.53H200.12a.94.94,0,0,0,0-.47Z"/><path class="cls-16" d="M72.08,386.68l.54.24a.43.43,0,0,0,.06.38c0,1.66-.11,3.33-.11,5,0,6.35.07,12.7.11,19a.55.55,0,0,0-.07.45v11.31l-.5.19Q72.1,405,72.08,386.68Z"/><path class="cls-21" d="M498.08,75.51h.58c0,6.12,0,12.24.07,18.36,0,4,.22,7.93.34,11.89a1.09,1.09,0,0,0,.07.4l-.9.09c0-1.43-.08-2.86-.08-4.29q-.06-13-.09-26A.86.86,0,0,0,498.08,75.51Z"/><path class="cls-6" d="M262.92,317.1l.16.59H242.51l.39-.58Z"/><path class="cls-22" d="M157.79,360.16l-.37-.65h20.73V360l-.16.1Z"/><path class="cls-16" d="M157,359.55a2.41,2.41,0,0,1-.11.52H136.56l-.15-.5Z"/><path class="cls-20" d="M135.87,359.49c-.09.22-.19.43-.29.65H115.32a2.26,2.26,0,0,0-.17-.6Z"/><path class="cls-22" d="M29.6,253.06q0-8.38.1-16.76v-2.87l.08-.61.55.07v20.28Z"/><path class="cls-16" d="M179,359.53h20.35a3.22,3.22,0,0,0,.11.5H178.9A4,4,0,0,0,179,359.53Z"/><path class="cls-6" d="M263.91,317.69a2.46,2.46,0,0,1,.16-.59h20c.09.21.17.43.25.65Z"/><path class="cls-9" d="M72.09,423.29l.5-.19H91.67l.55.12-.82.64H73.3l-1.22-.12A.77.77,0,0,1,72.09,423.29Z"/><path class="cls-16" d="M29.65,274.19V254.41h.59v19.64Z"/><path class="cls-20" d="M29.82,232.82l-.08.61c-.12-.53-.24-1.05-.35-1.58a1,1,0,0,0,.33-.07l.1.12Z"/><path class="cls-20" d="M30.26,254.43h-.59l-.12-1.15a2.11,2.11,0,0,1,.23.19l.57.59A.6.6,0,0,1,30.26,254.43Z"/><path class="cls-23" d="M179,359.53a4,4,0,0,1-.07.5h-.73v-.47Z"/><path class="cls-23" d="M199.43,360.05a2.13,2.13,0,0,0-.11-.5h.85a.94.94,0,0,1,0,.47Z"/><path class="cls-20" d="M29.65,274.19l.64-.12.4.41-.91.07-.21-.18Z"/><path class="cls-20" d="M29.6,253.06l.75.11h0l-.53.24a2.11,2.11,0,0,0-.23-.19Z"/><path class="cls-18" d="M29.72,231.78a1,1,0,0,1-.33.07l.29-.55C29.69,231.46,29.7,231.62,29.72,231.78Z"/><path class="cls-8" d="M815,262.54a2.86,2.86,0,0,1,.1-.77,15.18,15.18,0,0,1,1.91-.09h62v-9l.68-.12c0,6.6.09,13.19.13,19.85H888v-63h-8.19v19.92L879,229v-8.93l-8.59-.06H793.12V180.37c0-.88,0-1.75-.07-2.63l.3-1a1.09,1.09,0,0,1,.36,0c.07.31.15.62.22.92a7.61,7.61,0,0,1-.08,1.2v40.3h21c0-.74.11-1.37.11-2V179.29c0-.56-.08-1.11-.12-1.67l.23-.84.68-.05.18.92c0,.4-.07.8-.07,1.2v38.61c0,.55.06,1.11.09,1.71h20.54V179.32c0-.56-.07-1.11-.11-1.67l.09.1.11-.05h.9c0,.79-.08,1.59-.08,2.39v36.65c0,.8.06,1.6.09,2.39v.17H879V178l.41-.71.41.46v30.7h35.84c1.91,0,3.83,0,5.74-.08l.82.2v.71l-.92.18c-10.83-.13-21.66,0-32.44-.06v30.9a2.09,2.09,0,0,0,.55.18h31.89l.92.18V241l-.89.49c-2.64,0-5.27-.09-7.9-.09q-12.23,0-24.43.08l-.24.47v30.37a4,4,0,0,0,.84.23l31.65-.05,1,.28a2,2,0,0,1,0,.35l-.94.24c-.32,0-.63-.08-1-.08H881.62a12.53,12.53,0,0,0-1.69.08,7.65,7.65,0,0,0-.17,1.05q0,15,.06,29.93l-.32.48h-.19l-.35-.49V262.71H837.42v24.56q0,8.5.07,17a2.66,2.66,0,0,1-.1.49h-.87a2.08,2.08,0,0,0-.11-.48c0-.64.1-1.28.1-1.91V264.51c0-.62-.07-1.23-.1-1.91h-20.5Z"/><path class="cls-8" d="M530.84,306.38v10.47h134c.56,0,1.11-.07,1.67-.1l.89.26v.64l-.93.2c-.32,0-.64-.06-1-.06H605.21c-.45,0-.9.08-1.45.13v8.26l.06,33.28-.07.53h-.87a2.77,2.77,0,0,0-.11-.48,7.47,7.47,0,0,0,.12-.95V319a8,8,0,0,0-.14-1.08H540v33.91c0,2.56,0,5.11.08,7.67l-.08.5-.83-.06a2.47,2.47,0,0,0-.11-.47c0-.4.13-.79.13-1.19V319.2a11.3,11.3,0,0,0-.21-1.42H455.81c.07-.44.08-.58.09-.58l40.55-.52v-4.56c.05-2,.16-4,.24-5.95h.43l.28.57v10h32.36V306.38Z"/><path class="cls-8" d="M667.16,249.05c.72,0,1.44-.06,2.16-.06H773.61v12.64l19.17.13v.81H773.66v11.57q0,15.08.07,30.16l-.1.5h-.85a1,1,0,0,0-.13-.45c0-.4.11-.79.11-1.19v-51.3c0-.62-.09-1.24-.14-2H707.86V281.8q0,11.26.06,22.53h-1a3.93,3.93,0,0,0,.06-.48V251.2a8.71,8.71,0,0,0-.22-1.34H667.59Z"/><path class="cls-11" d="M745.81,177.71c0,1.76-.07,3.51-.07,5.27v49.77H684.67c-.15,1.06-.28,1.93-.41,2.79h-.36a6.87,6.87,0,0,1-.42-2.72h-56c-.88,0-1.75,0-2.63-.06a6.11,6.11,0,0,0-.05-.95h40.67a6.48,6.48,0,0,0,1.15-.22V183.84c0-2.07,0-4.14-.06-6.22v-1h1v1c0,.34-.09.8-.09,1.19v51.55c0,.45.09.9.13,1.33h77.13V187.52c0-3.28,0-6.55-.07-9.83.07-.31.13-.62.19-.93h.7Z"/><path class="cls-9" d="M444.43,465.6c.2.2.56.37.58.59a17.1,17.1,0,0,1,.07,2.15V539.1c1,0,2,.12,2.88.12h98.58c.85,0,1.71-.16,2.57-.24h.83a11.22,11.22,0,0,0,1.83.27H580c.55,0,1.1-.11,1.65-.16l.86.42a1.71,1.71,0,0,0,0,.32l-.86.25c-.39,0-.79-.09-1.19-.09H530.34a13.23,13.23,0,0,0-1.66.22v29.36c0,.8.08,1.59.13,2.38l-.42.56h-.46a3.06,3.06,0,0,0-.1-.51V540.65c0-.14-.11-.28-.23-.54-.23,0-.53-.08-.83-.08H466.43a6.58,6.58,0,0,0-1.51.39h-.8a6.58,6.58,0,0,0-1.51-.39H446.3a8.41,8.41,0,0,0-1.22.21V572h-.78V530.72a6,6,0,0,0-.21-1.2H415c-.88,0-1.75.08-2.63.12l-.59-.3a1.28,1.28,0,0,1,0-.39l.53-.17c.48,0,.95.1,1.43.1H443c.38,0,.75-.06,1.22-.1V497.56h-29c-1,0-1.91.08-2.87.12l-.49-.16v-.77l.5-.13c.4,0,.8.08,1.19.08H443.3a5.42,5.42,0,0,0,1-.07V466.56Z"/><path class="cls-11" d="M411.8,360.08c0-.79-.07-1.59-.07-2.39V261.77h85.82v4c.84,0,1.53.11,2.21.12h9.83c.63,0,1.41,0,.86,1H497.5v4.64q.08,6.32.16,12.62l-.16,0h-.71c0-7.16-.08-14.31-.11-21.41h-84V357c0,.8.05,1.59.07,2.39l-.12.58-.15.14Z"/><path class="cls-15" d="M879.87,177.72l-.41-.46-.41.71a22.14,22.14,0,0,0-2.58-.3H837.31v-.92h81.77c3.24,0,3.24,0,3.24,3.3v25.89c0,.88-.06,1.76-.08,2.64l-.82-.2-.12-30.16c0-.06-.07-.13-.12-.19s-.12-.11-.36-.33H910.76Z"/><path class="cls-11" d="M549.16,467c0-2.21-.11-4.43-.1-6.64,0-5.63.06-11.25.1-16.88h.76a7.36,7.36,0,0,0,1.54.37h7.18l23-.08.83.21v.67l-.81.27a7.31,7.31,0,0,0-.94-.11H551.21a6.41,6.41,0,0,0-1.07.15v20.47H581.6l.88.23v.64l-.86.26L550,466.51Z"/><path class="cls-8" d="M549.16,467l.88-.45v30.1H581.6l.87.21a2.16,2.16,0,0,0,0,.36l-.43.44-.47.06H549.94V539h-.83V469.59C549.08,468.71,549.13,467.84,549.16,467Z"/><path class="cls-8" d="M549.92,443.47h-.76V435.3h-49c-.88,0-1.76,0-2.64-.05a3.06,3.06,0,0,1,.1-.51l.51-.28c.87,0,1.75-.06,2.63-.06H549V413.91c0-3.75-.06-7.5-.1-11.25l.09-.54.87.05a2.56,2.56,0,0,0,.13.53c0,1-.07,1.91-.08,2.87Z"/><path class="cls-15" d="M667.61,177.68v-1h77.33c-.06.31-.12.62-.19.93Z"/><path class="cls-3" d="M497.66,434.74a3.06,3.06,0,0,1-.1.51l-36.38.05h-5.5a3.77,3.77,0,0,1-1.21-.45H455l.45-.36,8.85-.07,11.24-.14h.64a.82.82,0,0,1,.39.18l.47.07h19.22l.42-.23V402.17h1v.59c0,5.1-.07,10.21-.07,15.31,0,5.42.06,10.85.09,16.27A.62.62,0,0,0,497.66,434.74Z"/><path class="cls-15" d="M550.06,402.73a2.56,2.56,0,0,0-.13-.53,14.91,14.91,0,0,1,2.3-.38H581c1.12,0,1.57.58,1.53,1.65V443a5.1,5.1,0,0,1-.07,1l-.83-.21v-41Z"/><path class="cls-16" d="M603.75,360a1.41,1.41,0,0,1,.07-.53h62.71V317.85l.93-.2q0,9.45.07,18.92v20.6c0,.85-.09,1.7-.14,2.65-.75.08-1.28.19-1.82.19Z"/><path class="cls-7" d="M667.44,317l-.89-.26V271.23l.89-.29c0,.95.08,1.91.08,2.87V304.3H707.1v.49H667.61C667.54,309,667.49,313,667.44,317Z"/><path class="cls-19" d="M412.6,360l.12-.58c1,0,1.92.06,2.88.06H539.07a2.12,2.12,0,0,0,.11.47c-1.12,0-2.24.06-3.35.06Z"/><path class="cls-20" d="M745.81,177.71l-.21-.94c5,0,9.92-.07,14.88-.07h32.87l-.3,1c-1.36,0-2.72-.08-4.08-.08Z"/><path class="cls-15" d="M666.53,176.68v1H637.88c-4.3,0-8.6,0-12.89.07v-1.11c2.71,0,5.42.08,8.12.08Z"/><path class="cls-9" d="M815,262.54l.91.06q0,14.86-.06,29.72c0,4,0,8,.07,12a1.09,1.09,0,0,0-.09.47h-.51l-.24-.53-.16.05a4.1,4.1,0,0,0,.12-.7Q815,283.08,815,262.54Z"/><path class="cls-22" d="M581.61,497.68l.47-.06.33.6c0,9.88.06,19.76.07,29.65,0,3.5-.05,7-.07,10.52l-.84.65c0-1,.12-1.91.12-2.86V506C581.69,503.26,581.64,500.47,581.61,497.68Z"/><path class="cls-11" d="M444.43,465.6l-.07,1c-5.33,0-10.65-.1-16-.1s-10.65.07-16,.1l-.57-.17v-.81l.57-.15,28.92.08C442.36,465.51,443.4,465.57,444.43,465.6Z"/><path class="cls-2" d="M772.65,304.31a1,1,0,0,1,.13.45c-6.06,0-12.12.05-18.18.05H707.73v-.5h64.92Z"/><path class="cls-18" d="M581.61,540.05l.86-.25c0,2.56.1,5.11.1,7.66v22.06a20.1,20.1,0,0,1-.31,2.56l-.76-.22c0-.63.13-1.27.13-1.9Q581.65,555,581.61,540.05Z"/><path class="cls-8" d="M464.16,540.36h.8c0,3.33,0,6.67.08,10q0,10.75.08,21.51l-.13.57h-.8c-.06-.2-.11-.41-.17-.62,0-2.86.05-5.73.06-8.59Q464.13,551.82,464.16,540.36Z"/><path class="cls-10" d="M450.63,426.62H443v-5.8H417.52v-9c0-2.91,0-6.06-.07-9.09l.12-.57a.49.49,0,0,1,.44,0l.17.59c0,2.95-.07,5.91-.09,8.87s0,5.84,0,8.85H443.6v5.73h4.82a7.57,7.57,0,0,0,1.69-.47Z"/><path class="cls-20" d="M921.43,241.43l.89-.49v31.78l-1-.28c0-.48.1-.95.1-1.43Q921.44,256.22,921.43,241.43Z"/><path class="cls-18" d="M921.38,273.31l.94-.24v30.25a4.73,4.73,0,0,1-.48,1.46l-.52-.51Z"/><path class="cls-7" d="M465,572.47a2.93,2.93,0,0,1,.13-.57h62.71a3.06,3.06,0,0,0,.1.51c-.55,0-1.11.07-1.67.07H466.42A13.54,13.54,0,0,1,465,572.47Z"/><path class="cls-16" d="M540,360a2.64,2.64,0,0,1,.11-.53h62.68a2.08,2.08,0,0,0,.11.48H582.33Z"/><path class="cls-18" d="M921.39,209.42l.92-.18v31.35l-.92-.18Z"/><path class="cls-18" d="M582.47,496.82l-.87-.21V466.56l.86-.26c0,2.78.12,5.56.11,8.34C582.56,482,582.51,489.43,582.47,496.82Z"/><path class="cls-19" d="M581.49,571.86l.76.22a5.67,5.67,0,0,1-1.51.43H528.39l.42-.55h48.61Z"/><path class="cls-19" d="M464,571.86c.06.21.11.42.17.62H412.28a7.5,7.5,0,0,1,.11-.81,7.25,7.25,0,0,0,1.39.26h31.34Z"/><path class="cls-21" d="M497.7,402.73v-.59h51.36a5,5,0,0,1-.08.54H526.45Q512.08,402.68,497.7,402.73Z"/><path class="cls-20" d="M412.39,571.66a5.63,5.63,0,0,1-.11.81,4.65,4.65,0,0,1-.5-1.44V529.27l.59.3Q412.4,550.62,412.39,571.66Z"/><path class="cls-9" d="M793.86,262.6q0,19.9-.05,39.79c0,.64.06,1.28.09,1.91l-.12.48h-.57c-.05-.16-.1-.32-.14-.48,0-.88.1-1.75.1-2.63V270.53c0-2.63-.06-5.27-.09-7.9Z"/><path class="cls-21" d="M411.8,360.08l.65.08c0,.55-.11,1.11-.11,1.66v38.46c0,.55.08,1.11.12,1.66l-.21.26h-.48Z"/><path class="cls-15" d="M793.93,177.68c-.07-.3-.15-.61-.22-.92l21.39.05c-.08.28-.15.56-.23.84Z"/><path class="cls-2" d="M921.35,304.27l.52.51H879.5c.11-.16.21-.32.32-.47Z"/><path class="cls-2" d="M837.4,304.78a3,3,0,0,1,.1-.49H879l.35.49Z"/><path class="cls-15" d="M816,177.68l-.18-.92h20.81v.92l-.11,0-.09-.1Z"/><path class="cls-18" d="M582.48,465.66l-.88-.23V444.92l.81-.27c.06,3.1.14,6.2.15,9.31C582.58,457.86,582.51,461.76,582.48,465.66Z"/><path class="cls-21" d="M418.18,402.72l-.17-.59h36.41c0,.22-.06.44-.08.66-.4,0-.8-.11-1.2-.11Z"/><path class="cls-1" d="M476.17,434.23h-.64V402.75l.06-.62h.57l.08.64Q476.18,418.51,476.17,434.23Z"/><path class="cls-21" d="M412.38,528.71l-.53.17V497.53l.49.16Q412.39,513.2,412.38,528.71Z"/><path class="cls-21" d="M411.84,466.39l.57.17v30.07l-.5.13Z"/><path class="cls-2" d="M793.78,304.78l.12-.48h21l.16-.05-.15.55Z"/><path class="cls-21" d="M475.56,402.15l-.06.62H455v-.59Z"/><path class="cls-21" d="M476.21,402.78l-.08-.64h20.54v.64Z"/><path class="cls-2" d="M815.84,304.77a1.09,1.09,0,0,1,.09-.47h20.49a2.08,2.08,0,0,0,.11.48Z"/><path class="cls-2" d="M793.07,304.3a1.74,1.74,0,0,0,.14.48H773.63a3.16,3.16,0,0,1,.1-.5Z"/><path class="cls-1" d="M455,402.16v.59q0,3.27-.07,6.53l-.64-.44v-6l.09-.66Z"/><path class="cls-21" d="M417.57,402.14l-.12.57h-4.72l-.48-.52.21-.26Z"/><path class="cls-11" d="M836.61,177.7v-.92h.75v.92Z"/><path class="cls-18" d="M581.57,539l.84-.65.06,1.1-.86-.43Z"/><path class="cls-18" d="M582.41,498.22l-.33-.6.43-.44C582.48,497.53,582.44,497.87,582.41,498.22Z"/><path class="cls-11" d="M707.74,304.28v.5h-.65v-.49Z"/><path class="cls-12" d="M814.94,304.81l.15-.55.24.53-.19.07Z"/><path class="cls-10" d="M596.55,109.75c-.71-.07-1.42-.2-2.13-.2H528.89v7.7h47.75a3.32,3.32,0,0,1,0,.63.19.19,0,0,1-.13.14H527.94v-8.36H508.82v69.25h11c.12.76.21,1.3.3,1.84.14.06.29.2.43.18,1.66-.23,2.77.55,3.92,1.71q10.42,10.59,21,21c1.16,1.13,2,2.22,1.61,3.85l1.84,1.32h-4.79l-1.4.08v9.46a3,3,0,0,0,.45,1l-.48.52h-.43l-.09-.74V208.78l-1.72.16-.66-.07-1.39.07v9.45a3,3,0,0,0,.43,1l-.48.52H538l-.06-.67V208.9h-8l-.52-.07L519.3,198.71l-.07-.53v-11l-.06-1.27h-10.4v12.28l-.07.49a7.47,7.47,0,0,1-.47-1.86V131.69l-.09-.73v-1.58l.08-.74-.39-1.43v-.36l.43-1.43V123h-3.77v-.51h3.76V120l-.43-1.43v-.36l.56-1.53h-4c-1.14.65-1.19.88-.49,2.4l.12,1a6.24,6.24,0,0,0,0,5.31l-.12,1a2.84,2.84,0,0,0,.05,3.36v1c-.71.47-.4.76.17,1-.79.15-1.58.35-2.38.43s-1.7,0-2.55.06l-.93-.12v-.86l.94-.1h3.7v-3.73h-3.72l-.36-.21.35-.37h3.7v-1.31a5.65,5.65,0,0,0-.11-.7c0-.51.06-1,.12-1.87l-4.13.62.42-1h3.69v-2l.09-1.27v-2.44h-3.73l-.91-.06a1.41,1.41,0,0,1,0-.41l.91-.41,8.66.09.45-.68V110l-.48-.48h-8.59l-.64-.59h95.22a21.39,21.39,0,0,1,2.4.08C596.29,109.09,596.41,109.51,596.55,109.75Zm-87.8,71.19v4.27h10.44v-5.5h-10.5Zm19.3,7.1c-2.35,2.75-4.82,5.64-7.31,8.53a1.47,1.47,0,0,0-.12,2.08,1.21,1.21,0,0,0,.24.21c2.84,2.8,5.65,5.63,8.47,8.46.8.8,1.49.7,2.21-.15,2.45-2.9,4.93-5.79,7.19-8.45-3.62-3.63-7.11-7.11-10.68-10.72Zm4.13,19.73h14.17c-.22-1-.15-2-.65-2.56-1.9-2.11-4-4.05-6.07-6.14Zm-4.48-20.69c-1.42-1.41-2.77-2.64-4-4a2.91,2.91,0,0,0-3.47-.94v13.63Z"/><path class="cls-11" d="M622.85,200.31h-8.48V151.4l.3-.08a4.17,4.17,0,0,1,.45,1.12,15.22,15.22,0,0,1,0,1.91v44.88h7.29l.22.08.22-.06.5.29.09.66h-.1Z"/><path class="cls-1" d="M498.2,107.05v-.84l.9-.09h94.32c1,0,2-.17,3.06-.27v.76H501.21A27.63,27.63,0,0,0,498.2,107.05Z"/><path class="cls-2" d="M623.38,199.54l-.5-.29a.77.77,0,0,0-.07-.47c0-.8.08-1.59.08-2.39v-57.6c0-.95-.12-1.9-.19-2.85.22.17.6.32.62.51a19.48,19.48,0,0,1,.06,2.16Z"/><path class="cls-14" d="M498.2,116.27v-7.42a.39.39,0,0,1,.35.13l.64.59v6.29Z"/><path class="cls-3" d="M596.52,106.64v-.76h.76c.06.27.12.53.19.79Z"/><path class="cls-3" d="M607.06,116.26l.49.48Z"/><path class="cls-3" d="M606.58,115.78l.49.48Z"/><path class="cls-3" d="M606.1,115.3l.49.48Z"/><path class="cls-3" d="M605.62,114.82l.49.48Z"/><path class="cls-3" d="M605.14,114.34l.49.48Z"/><path class="cls-3" d="M604.66,113.86l.49.48Z"/><path class="cls-3" d="M597.47,106.67l.47.48Z"/><path class="cls-3" d="M598,107.15l.47.47Z"/><path class="cls-3" d="M598.43,107.63l.47.47Z"/><path class="cls-3" d="M598.91,108.11l.47.47Z"/><path class="cls-3" d="M599.39,108.59l.47.47Z"/><path class="cls-3" d="M601.31,110.5l.47.48Z"/><path class="cls-3" d="M601.79,111l.47.48Z"/><path class="cls-3" d="M602.26,111.46l.49.48Z"/><path class="cls-3" d="M602.74,111.94l.49.48Z"/><path class="cls-3" d="M603.22,112.42l.49.48Z"/><path class="cls-3" d="M603.7,112.9l.49.48Z"/><path class="cls-3" d="M604.18,113.38l.49.48Z"/><path class="cls-3" d="M599.87,109.07l.47.47Z"/><path class="cls-3" d="M600.35,109.55l.47.47Z"/><path class="cls-3" d="M600.83,110l.47.48Z"/><path class="cls-10" d="M624.87,219.33v2h-.59c-.16-.46-.31-.93-.47-1.39l.56-.59-.1-.15Z"/><path class="cls-8" d="M370,402.61c-.55,0-1.11.09-1.66.09h-40a9.45,9.45,0,0,1-1.43-.07l-.1-1V361.57a7.69,7.69,0,0,0-.2-1.26h-18v41.34l-.49.48c0-4.55-.07-9.09-.07-13.64V361.93q-.06-21.18-.17-42.35a26.82,26.82,0,0,1,.27-2.83h18.63V261.93a6.08,6.08,0,0,1,1.2-.24h40.52c.24,0,.48.05.71.09l.76.32v12.31c.8.07,1.4.17,2,.17h14.6a6.69,6.69,0,0,1,1.65.43h-18v41.68h18.08c.08.79.23,1.57.23,2.35v39a23,23,0,0,1-.27,2.34h-.43a4.2,4.2,0,0,0-.92-.2H371.06a5.74,5.74,0,0,0-1,.21v35.07c0,2.16.05,4.32.08,6.47Zm-.68-43.23H387.6V317.81H369.35V262.73H327.61v54.59c0,.06-.08.13-.14.19l-.32.33H308.87v41.65h18.84v42.2h41.62Z"/><path class="cls-3" d="M145.05,238.64q0,11.42-.05,22.83a9.21,9.21,0,0,1-.08,1.89c0,.23-.55.37-.85.55,0-.3-.07-.6-.1-.9v-3.18H132.11v-1.21c2,.06,4,.14,6,.16s3.92,0,6-.06v-26a5.69,5.69,0,0,0-.73-1.81c.2-.43.72-1,.72-1.62,0-3.12-.06-6.23-.12-9.34v-4.28c-6.33.07-12.46-.11-18.83.13l.26,3.54-1.5,0a3.07,3.07,0,0,0,.41-1V205c0-.12-.18-.24-.25-.32H114v14.16c0,.19.23.39.36.58h-1l-.53-.55-.15-1.48h-10c-.4.52-.65,1,.23,1.32l9.93.16a3,3,0,0,1,.14.39l-.11.19H103.3c-.86,0-1,.49-.63,1.4h10.2v.56H102.24c.21.69.34,1.09.46,1.49v.75l-.35,1.48H112.8v.56h-9.54c-.85,0-1.1.45-.63,1.4h10.18v.67l-9.93.06-.6,1.3-.39.4V192.36a6.1,6.1,0,0,1,.21-1.05h54.05v43a12.77,12.77,0,0,0,.08,2.14c0,.24.52.4.79.59l-1.35.82a1.59,1.59,0,0,1-.2-.24v-1.28h-10.4v1.23Zm-31.43-34.79.63-.16h30.64l.18.94v1.25h10.38v-4.14l-.06-.7V191.8c-3.67-.5-51.3-.33-52.88.14V201l-.13.75-.09,1.3.08,1.57v1.21h10.47l-.08-1.29Zm41.86,19.93v-1.09l-.07-1.25H145.12c0,.46-.06.85-.08,1.23v1.12l.08,1.24h10.29Zm-42.66-15.89c.14-.66.22-1.38-.71-1.39h-9.87l.47,1.5v.76l-.37,1.52h9.3c1,0,1.47-.4,1.18-1.44Zm42.66-.07-.07-1.25H145.12L145,207.8v1.12l.08,1.23h10.29c0-.48,0-.86.07-1.25Zm-30.14-3.2v10.25h18.52V204.62Zm19.78,8.25v1.66h9.42c1.28,0,1-.82.77-1.64Zm10.26,19.2H145.13v1.64h9.42c.85,0,1.1-.49.83-1.64Zm-10.18-4.32c-.31.93-.33,1.63.75,1.64h8.63c1.06,0,1.09-.7.72-1.64Zm10.18-10.55H145.13v1.64h9.42c.85,0,1.1-.5.83-1.64Zm-42.82-2.67c.35-1.11.29-1.76-.76-1.77h-8.32c-.39,0-.76.54-1.14.83.37.3.74.87,1.13.87,3,.1,6,.07,9.09.07Zm42.81,15.6h-10.2c-.28.86,0,1.24.71,1.24h8.82c.79,0,.89-.5.67-1.24Zm-10.89-13.79h10.9c.23-.86,0-1.24-.75-1.24h-8.81c-.32.05-.63.58-1.34,1.24Zm.38,3.94.43.4h10.14l.22-.44c-.33-.27-.65-.79-1-.79-3-.07-5.89-.07-8.84,0-.31,0-.62.55-.95.83Zm10.86-8.22c-.35-.59-.55-1.22-.76-1.22-3.11-.07-6.22-.07-9.31,0-.24,0-.46.65-.85,1.23Zm-53.14.1h9.64c.25,0,.48-.63,1-1.37h-9.86c-.77,0-1.22.26-.78,1.37ZM144.92,235l.18.56h10.33l.22-.45c-.33-.27-.65-.78-1-.79-2.94-.06-5.88,0-8.83,0C145.52,234.32,145.22,234.76,144.92,235Zm10.73-8.76-.4-.47H145.1c.08.7.4,1.24.72,1.25,2.94.06,5.89.06,8.83,0C155,227,155.32,226.51,155.65,226.24Zm-53-9.86h10c.28-.78.16-1.26-.62-1.26h-8.8c-.71,0-.85.48-.56,1.26Z"/><path class="cls-1" d="M649,271.21v35.06H560.49v-35l.57-.15v13a4.37,4.37,0,0,0,1,.34h24.21c.53,0,1-.56,1.55-.85.22.22.55.79.88.8,3.33.07,6.65,0,10,0V278H589c-.51,0-1,.62-1.52,1v-2.44a6.54,6.54,0,0,0,2,.75c2.23.09,4.48.05,6.71,0,.85,0,1.69-.06,2.5-.09v-6.35c-3.36,0-6.54,0-9.72.05-.47,0-.92.63-1.41,1-.13-1.25-1.11-1-2-1H573.82c-.61,0-1.22-.09-1.94-.15v-3.23c-.07-1.66-.19-3.31-.29-5v-.76h1a5.2,5.2,0,0,0,0,.88v7.56h14c.39,0,.78-.63,1.16-1,.19.28.39.87.6.87,3.41.06,6.81,0,10.46,0-.18-2.61.49-5.1-.37-7.57.41-.66.74-.49,1,.1v21.59h48.88V271Zm-54.43,20v-6.09c-3.07,0-5.85.05-8.63,0-1.09,0-2,.12-2.43,1.43-.28-.62-.43-1-.57-1.29H561.4c-.5,2.79-.39,18.62.14,20.34h21.27l.56-1.05c.57.42,1,1.05,1.48,1.06,3.16.09,6.33.05,9.54.05v-6.44h-7.51c-1.3,0-2.7-.34-3.65,1.36v-3.16c.45,1.56,1.68,1.09,2.66,1.11H590c1.35,0,3,0,4.56-.08v-7.23Zm29.64,14.35V285.14c-8.3,0-16.46-.08-24.57.08v20.36Zm24.15,0V285.31H625v20.25Zm-53.07-.05h3.47V285.26h-3.47Z"/><path class="cls-9" d="M140.9,487h-.8V446.22a6.37,6.37,0,0,0-.19-1.06H115.25V487l-.82-.75V445.37c0-3.35-.08-6.69-.13-10l.54-.91a.58.58,0,0,0,.26.06l.2.88v8.85a3.45,3.45,0,0,0,.72.18H199.2v.75H179v21.66h20.25l.88.09v.7l-.76.19a7.56,7.56,0,0,0-1.16-.18H180.09a10.39,10.39,0,0,0-1.23.17V486.3l-.78.75v-19.5H161V445.23H141c-.05.67-.11,1.21-.11,1.75Q140.88,467,140.9,487ZM178,466.75V445.18H162v21.57Z"/><path class="cls-9" d="M511.64,529.88l-1-.09a1,1,0,0,0,0-.42c.07-.65.14-1.3.21-2H483.39v1.84l-.06.64-1-.09a1,1,0,0,0,0-.42c.07-.65.13-1.3.21-2H455v1.94l-.05.61c-.23-.15-.61-.25-.65-.44a6.76,6.76,0,0,1-.06-1.42V488.61c0-.55.11-1.1.16-1.65l.49.19.09.55v38.13a1.36,1.36,0,0,0,.24.55h27.35V506.19c0-6.15-.05-12.31-.07-18.46.08-.2.17-.4.26-.6H483l.23.06.14.55v38.11a1.36,1.36,0,0,0,.24.55H511V506.64q0-9.47-.08-18.93l.26-.6h.24l.23.06.14.55v38.1c0,.21.18.42.24.56H539.3V506.64q0-9.47-.08-18.93l.27-.68a1,1,0,0,1,.43-.1c0,.56.11,1.11.11,1.67v38.5a17.24,17.24,0,0,1-.11,2.38c0,.14-.59.21-.9.31a1.48,1.48,0,0,0,0-.42l.21-2H511.7v1.84Z"/><path class="cls-3" d="M199.21,445.11V431.47h4.25c.07.31.13.61.2.92l-3.25.16c-.43,3.47-.31,10.08.15,11.62h25.57V432.39H204.4l.16-.93,35.48.05h2.55v15.31c-1-2-2.31-1.68-3.56-1.68h-38.7v11.05h12.75l.15,1.48c-4.31-1.11-8.55-.22-13-.61v6.66l-.06,3.14-.88-.09V462Q199.28,453.55,199.21,445.11Zm42.47-.87V432.58H227.3v11.66Z"/><path class="cls-15" d="M300.49,248.12c-.17-.25-.48-.5-.48-.74v-15c1.76-.58,29.56-.77,33.21-.27a6.56,6.56,0,0,1,.26,1.32V245.9a5.23,5.23,0,0,1-.33,1.35h-.47q-.07-7.12-.14-14.28H301.36v.4h30.33v12.84h-.61a79.5,79.5,0,0,0-.26-11.65c-.32.18-.5.37-.5.56v11l-.72.07V234.3h-3.16v11.86h-1.12c0-3.56.08-7.11.14-10.67,0-1.06-.45-1.44-1.46-1.21h-1.86v11.86l-.72-.07c0-2.79.05-5.59.06-8.38a19.21,19.21,0,0,0-.07-2.63c0-.29-.53-.8-.68-.76a2,2,0,0,0-1,.77c-.16.23-.07.62-.07.94,0,3.33,0,6.69.07,10.06l-.73.07V234.3h-1.87c-1-.25-1.47.15-1.45,1.21.06,3.55.09,7.1.13,10.66H314.7V234.34h-3.18v11.84h-1.11c0-3.56.08-7.11.14-10.66,0-1.06-.42-1.46-1.45-1.21h-1.9l-.62.05c-1.2-.36-1.78,0-1.76,1.34.05,3.46.06,6.93.08,10.39l-.72.07V234.3h-1.86c-1-.23-1.48.15-1.46,1.21.06,3.56.09,7.11.14,10.67v1.46Z"/><path class="cls-10" d="M496.23,220.74h1.91v.62h-298v-.62c1,0,1.91.13,2.86.13H493.6C494.48,220.83,495.36,220.77,496.23,220.74Z"/><path class="cls-2" d="M879,229l.7.35a5.4,5.4,0,0,1-.08.58l-1.09.06H868.18v8.83a8.28,8.28,0,0,1-.48,1.9c-5.21-.08-10.41-.16-15.62-.19-.21,0-.43.51-.64.78v.7l.11,9.85h-.76a9.41,9.41,0,0,0,.13-1.19V231.32c0-.37-.07-.75-.11-1.22h-9.13v8.48h-5.11v-9.37c1-.06,1.8-.14,2.64-.14h36.71C877,229.07,878,229,879,229Zm-18,1h-6.46l-1.19.09v9.75l1.23.1h2.63l1.08-.32.67-.07h1.12l.67.07,1.08.32h2.63l1.23-.1v-9.75l-1.2-.09H861Zm-20.35.14H837.5v7.22h3.15Zm27,9.58c0-3,0-6.07,0-9.16,0-.21-.7-.4-1.4-.78v9.07c0,.81.32,1.28,1.49.91ZM852,240l.57-.23v-9.62c-.87-.26-1.25,0-1.25.74v7.9A6.83,6.83,0,0,0,852,240Z"/><path class="cls-7" d="M395.93,232.28c.69,0,1,.29,1,1v14.53c-2,.53-25.52.73-32.9.31a5.45,5.45,0,0,1-.25-1.06V233.67a4.59,4.59,0,0,1,.51-1.44,4.13,4.13,0,0,0,.11.69v14.66a10.72,10.72,0,0,0,1.27.14H395.6a1.21,1.21,0,0,0,.44-.15.29.29,0,0,0,.13-.16,2.72,2.72,0,0,0,0-.57l-30.94-.06V234.7c0-.32.31-.65.47-1l.06.65q0,5.82.1,11.64c.1,5.82.1.11.16.12h.3c.09-.17.27-.37.27-.56,0-3.73,0-7.46,0-11.2h.67v11.89h6.3l1.72-.08.64.08,1.31-.06V234.82c0-.19-.24-.37-.37-.55l-.07-.54,1-.06a6.06,6.06,0,0,0,.1.71V246.2h2.27l1.28-.16V234.35h.69c0,2.47-.07,4.94-.09,7.41,0,1.28,0,2.56.08,3.82,0,.28.62.5,1.29,1V234.34l.06-.68,1,.06-.06.5A10.8,10.8,0,0,0,384,236v8.57a13.39,13.39,0,0,0,.21,1.53c1.41.42,1.66-.28,1.66-1.32v-9.52a3.07,3.07,0,0,0-.41-1l-.06-.5,1-.05v.65c0,2.8-.07,5.59-.1,8.38a17.18,17.18,0,0,0,.09,2.87c0,.29.64.5,1.31,1V234.33h.67v11.88H392V234.35h.66v11.89h3.67v-13l-.31-.45Z"/><path class="cls-16" d="M530.32,285.14a4.77,4.77,0,0,0-.41,1.33q0,9.55.06,19.12l-.74.05c0-2.69.09-5.38.12-8.08,0-.75-.06-1.48-1.33-1.1v9.18h-.72c0-2.71.08-5.42.1-8.13,0-.64,0-1.36-1.28-1v9.17h-.73c0-1.59.14-3.19.08-4.77s.38-3.11-.39-4.68c-1.13,1.11-1.28,2.94-.88,9.43h-.73c0-1.6.14-3.19.09-4.79s.3-3.09-.31-4.72c-1.18,1.09-1.39,3.67-1,9.48h-.73c0-1.6.15-3.19.11-4.78s.31-3.1-.28-4.63c-1.12.17-1.13.82-1.12,1.46q0,3.94.11,7.89l-.75.05c0-2.74.1-5.49.14-8.23,0-.6-.09-1.12-.86-1.13l-1.07.35h-1l-.85-.06c-.91-.19-1.09.37-1.08,1.08,0,2.67.09,5.33.14,8l-.75-.05c0-2.63.08-5.26.1-7.89,0-.71,0-1.53-1.28-1.28v9.23h-.74V285.26H513v8.93c1.32.21,1.33-.55,1.33-1.28,0-2.54,0-5.07-.07-7.61l.66-.05c0,2.61-.07,5.21-.1,7.81,0,.66,0,1.31,1,1.22h2.89c.95.09,1-.56.95-1.22l-.09-7.81.66.05c0,2.54-.06,5.07-.07,7.61,0,.72,0,1.52,1.33,1.26v-8.91h.65c0,2.53-.06,5.07-.06,7.61,0,.7-.09,1.53,1.32,1.27v-8.9h.66v7.91c0,.39.38.77.62,1.24.37-.35.57-.45.57-.56q0-4.31.07-8.61H526v8.87c1.25.27,1.33-.35,1.33-1,0-2.62,0-5.23-.07-7.85H528q0,3.93-.07,7.88c0,.87.26,1.37,1.36.93v-8.82Zm-1.17,10.42v-.77h-5.34c-1.83,0-3.66-.06-5.48,0s-3.49-.31-5.15.26v.51Z"/><path class="cls-14" d="M498.16,221.32v-.62a1.18,1.18,0,0,0-.11-.35c0-.95.07-1.91.07-2.87v-82.6c0-1,.08-1.91.13-2.86l.93.12c0,1-.12,2.07-.13,3.1V218.3a15.87,15.87,0,0,1-.08,2.39C498.92,220.93,498.44,221.11,498.16,221.32Z"/><path class="cls-7" d="M599.47,262.66c-.28-.59-.61-.76-1-.1L588,262.7H572.6a5.2,5.2,0,0,0-.05-.88c5-.06,10.06-.15,15.09-.16H649c0,2.95.11,5.72.17,8.5l-.88.16c0-2.53-.08-5.05-.12-7.71H615.3C610,262.6,604.75,262.64,599.47,262.66Z"/><path class="cls-1" d="M827.32,244.84a.51.51,0,0,1,0,.45l-.55.12a.51.51,0,0,0-.41.09h-3.11v6.33h3.11a.6.6,0,0,0,.41.09l.54.12a3.8,3.8,0,0,1-1.17.5H790.67a3.19,3.19,0,0,1-.67-.19V229.51l.9.43a5.76,5.76,0,0,0-.39,1.52v19.16a7.31,7.31,0,0,0,.18,1.14h3.43V230.07c.31-.18.63-.51.94-.51h10c.09,0,.17.26.26.4h-5.26c-1.75,0-3.42,0-5.21.08v14.85H806v.54H795v6.36h27.52V237.51c0-2.5.06-5,0-7.49H806.24a3.86,3.86,0,0,1,1.24-.46H822c.4,0,.79.33,1.19.51v14.7h3.2Z"/><path class="cls-7" d="M112.76,227.71v-8.27l.11-.19a2,2,0,0,0,.4.16h0l.62.61c0,3-.1,6.07,0,9.11,0,.62.54,1.23.94,2.1a1.38,1.38,0,0,0-.84.57,4,4,0,0,0-.14,1.65V264c-.29-.21-.76-.38-.82-.64a10.05,10.05,0,0,1,0-1.9v-23H103l-.68-.22-.13-.17a3.15,3.15,0,0,1,.11-.44c3.07,0,6.15.06,9.22.12,1.11,0,1.65-.35,1.34-1.53v-2.6l-.19-1.63h-8a15,15,0,0,0-2.31.37l-.41-.45v-2.41l.39-.4a1.74,1.74,0,0,0,.39,0c3,0,6,0,9,.11C112.75,229.25,112.9,228.61,112.76,227.71Zm-10.14,3.62h9.53c.77,0,.79-.56.47-1.19h-9.7c-.1,0-.24.18-.29.31A3.7,3.7,0,0,0,102.62,231.33Z"/><path class="cls-3" d="M100.71,411.72c.35.9.72.35,1.08,0h33.05v8.73l-.53-.08v-7.79l-3.65.29h-12V434.3l-.05,1h-.47V423.81a.72.72,0,0,0,0-.41,2.28,2.28,0,0,0-.07-.68v-9.94h-1.34l-.52.14-1.33-.08H113v10h-2.67c.37-3.33.12-6.66.19-10.14l-1.47.18h-.52l-1.38.05-.54-.05h-2.8l-1-.06h-.94l-.64.08H92.8v-1Zm10.8.85-.45.22v9.51c.83.33,1.25.06,1.25-.65v-8.09C112.29,413.23,111.78,412.9,111.51,412.57Z"/><path class="cls-11" d="M544.67,284.42V262.74H511.72v3.05c0,.63-.1,1.11-.87,1.12,0-.47-.07-.94-.08-1.41v-3.71h34.86v8.41h4.61c-1.52,1.53-3.1.49-4.54,1.19V282a19.06,19.06,0,0,1,0,2.39c0,.26-.44.47-.67.7Z"/><path class="cls-1" d="M113.9,220l-.62-.61h10.58l1.5,0h18.57V220H138.5c.08,3.93-.23,7.54.23,11.26a1,1,0,0,1-.46.11,4.38,4.38,0,0,1-.88-.15c.58-2.09.55-9.39,0-11h-5.33v9.27c0,.86.47,1.08,1.08,1.32.09,0,.11.27.18.42l-1.24.48V263L132,264c-.56,0-1-.11-.82-.85.06-1.5.18-3,.19-4.51V233.22c0-.91.34-2-1.53-2a2.15,2.15,0,0,0,1.55-2.49c-.06-2.77,0-5.55,0-8.51H120.27v10.27l3.16.35v.53a30.13,30.13,0,0,1-4.25.06c.66-3.73.14-7.4.35-11.33Z"/><path class="cls-16" d="M455,487.13l-.49-.19V444.61c.69-.07,1.3-.18,1.91-.18H538a8.42,8.42,0,0,1,1.92.47H457c-.62,0-1.23.11-1.94.18,0,.84-.1,1.55-.1,2.25v37.42c0,.72.11,1.43.16,2.14A.45.45,0,0,0,455,487.13Z"/><path class="cls-3" d="M169,435.26h-.48l-.38-.89a7.33,7.33,0,0,0,.13-.94V414.25a12.38,12.38,0,0,0-.19-1.49H149.82c.08-.29.08-.73.26-.82a2.7,2.7,0,0,1,1.16-.16h21a5.71,5.71,0,0,1,.82.18,11.68,11.68,0,0,1,.2,1.56v19.61c0,.85.22,1.82-1,2.12v-.9l.17-.46a8,8,0,0,0,.27-1.38V414.58a8,8,0,0,0-.27-1.38l-.62-.62c-1-.29-2-.72-2.8.29v22.39Z"/><path class="cls-13" d="M412.25,402.2l.48.52c-.47,6.93-.24,21.37.39,23.1.45,0,.92.11,1.4.11h26.81a11.34,11.34,0,0,0,1.64-.22v.93l-24.23.09h-7V402.2Z"/><path class="cls-10" d="M29.82,232.82v-.92l.49-.08c1.91,0,3.83.09,5.74.09H70.56a6.6,6.6,0,0,1,1.66.06c.19,0,.27.57.4.89l-.57.39a4.35,4.35,0,0,0-1.27-.39H30.37Z"/><path class="cls-8" d="M263.91,486.65h-.83L263,449.19v-3.82c0-.3.3-.6.47-.9l.43.9v11.45Q264,471.75,263.91,486.65Z"/><path class="cls-13" d="M242.89,262.61l-.1-.85a2.43,2.43,0,0,1,.47-.08h40a4.79,4.79,0,0,1,.93.19l-.07.69h-2.86Z"/><path class="cls-7" d="M149.82,412.75h.9v21.61H168.1l.38.89H149.74C149.78,427.67,149.67,420.21,149.82,412.75Z"/><path class="cls-9" d="M623.44,219.3l.9.06c-.19.19-.37.39-.56.59H549l.48-.52c.88,0,1.76-.06,2.64-.06h68.09c.88,0,1.75,0,2.63-.06Z"/><path class="cls-9" d="M29.78,274.55l.91-.07H43.14l28.47-.06.32-.3q0-10.1-.05-20.17h.74v20.57h9.5V275l-.21.23c-.64,0-1.28-.11-1.91-.11H32c-.55,0-1.11.06-1.67.1Z"/><path class="cls-6" d="M827.32,244.84l-1-.07c.91-2,.28-4,.4-6.08h-3.6v-1.18h3.47v-7.44h-3.47c-.4-.18-.79-.51-1.19-.51h-14.5a3.86,3.86,0,0,0-1.24.46,15.2,15.2,0,0,1-.23,1.58c-.39-.87-.56-1.26-.73-1.65-.09-.14-.17-.4-.26-.4H795c-.31,0-.63.33-.94.51l-3.21-.13-.9-.43a5.27,5.27,0,0,1,1.46-.45h34.17a14,14,0,0,1,1.71.22Z"/><path class="cls-1" d="M527.3,305.62h1.93l.74-.05h15.4v.68l-14.54.11H499a7.56,7.56,0,0,0-1.56.38l-.28-.57.67-.48h3.11V285.21l.2-.1.72-.3a.21.21,0,0,1,0,.3l0,0a11,11,0,0,0-.21,1.4v17.88a6.92,6.92,0,0,0,.22,1.19h11.31l1.18-.06.75,0h4.56l.75,0,1.18.06h5.74Z"/><path class="cls-18" d="M395.93,232.28l.06.49c-1.2,0-2.4.07-3.59.07l-28,.07a4.13,4.13,0,0,0-.11-.69,13.21,13.21,0,0,1,2.08-.31h27.52A11.8,11.8,0,0,1,395.93,232.28Z"/><path class="cls-10" d="M326.8,274.47v.69c-6-.19-12-.05-18.13-.1v41.71h-.5V274.65Z"/><path class="cls-12" d="M454.33,408.84l.64.45V410c-.2.81-.41,1.61-.62,2.42l-.36,1.79a7.65,7.65,0,0,0-.06,7.2c.14.61.29,1.21.43,1.81l.61,2.39v1l-.65.17-3.69-.15-.52-.94v-.93H451l.12,1.16h3c-.54-2.08-1-3.9-1.6-6.1l-1.38,4-.48-1a10.79,10.79,0,0,0,0-9.92c.14-.35.29-.7.44-1.06L452.6,416c.57-2.31,1-4.09,1.51-6.14a11.54,11.54,0,0,0-2.35.05c-.29.06-.47.64-.7,1h-.92v-2Z"/><path class="cls-9" d="M166.93,262.61h.66V275.2H125.33v-.62h41.48C166.83,270.49,166.88,266.55,166.93,262.61Z"/><path class="cls-2" d="M102.07,188.25h53.18a3.78,3.78,0,0,1,.47.06,2.29,2.29,0,0,1,0,.37H102.1A3.11,3.11,0,0,0,102.07,188.25Z"/><path class="cls-10" d="M363.75,431.15v.76c-4.18,2-5.27,5.73-2.84,9.6a7.52,7.52,0,0,1,.46,1c-1.58,0-1.35-1.7-2.28-2.4l-1.47,2-.47-.41a18.33,18.33,0,0,0,1-2.1,5.7,5.7,0,0,0-3.35-7.33,5.85,5.85,0,0,0-1.7-.35.73.73,0,0,0-.36,0c-.23-.75.08-1.07.81-1a6,6,0,0,1,4.37,2.62c.42.56.74,1.18,1.19,1.9C360.19,433.34,361.47,431.69,363.75,431.15Z"/><path class="cls-1" d="M850.72,251.9h.76l.76.07,1.13-.06h1.17l.75.05,1.19-.15.73.09h4.54l.74-.09,1.18.15.75-.05h3.09l.8-.1,10.2.09,1.1.12v.5l-.68.12c-3.19,0-6.37-.07-9.55-.08L837,252.49l.42-.93a9.71,9.71,0,0,0,1.77.34C843,251.92,846.86,251.9,850.72,251.9Z"/><path class="cls-1" d="M544.67,284.42l.33.68H530.32l-1.05,0h-8.93l-.66,0H515l-.66,0h-1.92l-10.68-.06c.14-.21.27-.58.43-.6a18.94,18.94,0,0,1,2.38-.09Z"/><path class="cls-7" d="M227,479.87l.07-1.05h14.72v-5.46c1.12,1.2,1.27,3.45.63,6.51Z"/><path class="cls-16" d="M158.91,191.37v43.7a2.16,2.16,0,0,1-.36,0l-.06-43.7h.42Z"/><path class="cls-16" d="M99,235.18c0-4.77-.07-9.54-.07-14.32V191.51a3.69,3.69,0,0,0,.47,0v43.61A1.34,1.34,0,0,1,99,235.18Z"/><path class="cls-3" d="M539.28,445h.54c0,3.18.08,6.37.07,9.55V487a1,1,0,0,0-.43.1.55.55,0,0,0-.22-.18,2.67,2.67,0,0,0,.16-.69q0-20.49,0-41A2.33,2.33,0,0,0,539.28,445Z"/><path class="cls-9" d="M82.58,274.54h41.75l-.06.71c-.55,0-1.11-.1-1.66-.1H82.7l-.11-.1Z"/><path class="cls-7" d="M667.16,249.05l.42.78c0,.87-.05,1.75-.06,2.62v17.88l-.94-.22c0-6.33,0-12.66.06-19C666.6,250.42,666.13,249.5,667.16,249.05Z"/><path class="cls-23" d="M387.71,275.09h.53c0,.88.09,1.75.09,2.62q0,19.56-.05,39.12h-.54V291.44C387.78,286,387.74,280.52,387.71,275.09Z"/><path class="cls-23" d="M387.81,360.44h.43c0,1,.09,2.07.09,3.1v35.58c0,.87-.08,1.74-.12,2.61h-.36Q387.82,381.09,387.81,360.44Z"/><path class="cls-8" d="M795.21,261.75H815c-1.6.92-10.31,1.15-19.84.76A4.85,4.85,0,0,0,795.21,261.75Z"/><path class="cls-14" d="M326.77,401.67l.1,1c-5.77,0-11.54.07-17.31.06a4.77,4.77,0,0,1-1.42-.53l.49-.48Z"/><path class="cls-3" d="M113.78,264v-1l17.49.11c0,.27,0,.73-.12.77a4.67,4.67,0,0,1-1.39.2Z"/><path class="cls-16" d="M332.66,247.25h.47c-.1.28-.13.71-.32.81a2.74,2.74,0,0,1-1.17.14l-31.16-.06.5-.46h29.91A7.63,7.63,0,0,0,332.66,247.25Z"/><path class="cls-23" d="M352.79,432a.73.73,0,0,1,.36,0v11.58a.65.65,0,0,1-.34,0c-.1-1.65-.19-3.29-.3-5.22h-7.82l-.95-.1v-.9l.93-.08h7.78C352.56,435.35,352.68,433.65,352.79,432Z"/><path class="cls-16" d="M118.57,435.25l.05-1,16.13.17C133.49,435.46,126.5,435.67,118.57,435.25Z"/><path class="cls-7" d="M200.21,463.72v-1.17c3.59,0,7.18,0,10.76.17,1,0,1-.92,1.89-1.45v3.55a2.56,2.56,0,0,0-2.59-1.21C206.91,463.69,203.56,463.69,200.21,463.72Z"/><path class="cls-12" d="M483.33,529.88l.06-.64c1,0,2.07.07,3.1.07l24.16.06a1,1,0,0,1,0,.42c-1.59,0-3.18.13-4.78.13Q494.61,529.92,483.33,529.88Z"/><path class="cls-12" d="M482.34,529.37a1,1,0,0,1,0,.42c-1.5,0-3,.13-4.5.13H455l.05-.61h3.35Z"/><path class="cls-12" d="M511.64,529.88l.06-.64c1,0,2.07.07,3.11.07q12.08,0,24.15.06a1.48,1.48,0,0,1,0,.42c-1.6,0-3.19.13-4.79.13Q522.92,529.92,511.64,529.88Z"/><path class="cls-7" d="M837.37,251.56l-.42.93c-.15-.33-.44-.65-.44-1V238.57h1Q837.44,245.09,837.37,251.56Z"/><path class="cls-8" d="M336.91,441.09c0-.26-.2-.55-.12-.75a6.54,6.54,0,0,0-.79-6.52c-.08-.12,0-.3-.06-.46,1.33-.2,1,1.42,2,1.77l1.65-2.13.33.47c-1.51,2.3-2,4.69-.74,7.27l-.43.42-.93-1.24Z"/><path class="cls-15" d="M132.1,263.9l.06-.94L144,263a6.88,6.88,0,0,0,.1.9Z"/><path class="cls-9" d="M263.94,445.37l-.43-.9h21.57v.36l-.62.36-20.1-.08C264.2,445.13,264.07,445.28,263.94,445.37Z"/><path class="cls-7" d="M571.55,261.8v.76l-10.45.14-.54-.57c.24-.16.48-.46.72-.46C564.72,261.69,568.13,261.75,571.55,261.8Z"/><path class="cls-18" d="M145.05,238.64v-1.08l10.35.05a1.59,1.59,0,0,0,.2.24l.21.47-7.26.24Z"/><path class="cls-9" d="M72.05,233.25l.57-.39V253l-.56-.4Z"/><path class="cls-1" d="M130,412.83h.63v7.5h3.61l.53.08.09.54c-1.37.1-2.83-.47-4.1.82h4.1c-.37.2-.73.54-1.11.56-1.17.08-2.35,0-3.79,0Z"/><path class="cls-3" d="M545.41,295.88c-1.69.92-7,.93-8.73.05A42.46,42.46,0,0,1,545.41,295.88Z"/><path class="cls-23" d="M370,402.61l.16-.61c1,0,2,.07,3.08.08,4.81,0,9.63.06,14.45.09h.5a5,5,0,0,1-1.41.43C381.2,402.63,375.61,402.61,370,402.61Z"/><path class="cls-16" d="M118.07,434.29v1l-2.8.1c-.07-.3-.14-.59-.2-.88.91-.15,1.05-.78,1-1.57v-7.12a3.39,3.39,0,0,0-.39-1.06v-.56h1v10.17Z"/><path class="cls-10" d="M158.91,191.37h-.47l-2.74-2.72v-.37C158.09,188.41,158.71,189,158.91,191.37Z"/><path class="cls-11" d="M285,274.1h-.46c0-3.81-.05-7.62-.07-11.43l.54-.07C285,266.41,285,270.25,285,274.1Z"/><path class="cls-11" d="M99.42,191.54a3.69,3.69,0,0,1-.47,0c.23-2.42.79-3,3.13-3.26v.46Z"/><path class="cls-10" d="M561.06,271.07l-.57.15-4.14-.27v-.57c1.34-.45,2.82,0,4.18-.29l.56.13C561.07,270.5,561.06,270.79,561.06,271.07Z"/><path class="cls-8" d="M155.83,238.32l-.21-.47L157,237c.51-.61,1-1.21,1.55-1.82h.29C158.77,237.41,158.27,237.93,155.83,238.32Z"/><path class="cls-8" d="M99,235.18a1.27,1.27,0,0,0,.39,0l2.29,2.31.59.2h0a3.15,3.15,0,0,0-.11.44C99.91,238.13,99.28,237.55,99,235.18Z"/><path class="cls-23" d="M519.21,198.18l.07.53H508.7l.07-.49Z"/><path class="cls-9" d="M624.25,221.34h.59l.11,10.51h-.16l-.55.08C624.25,228.39,624.25,224.87,624.25,221.34Z"/><path class="cls-11" d="M666.53,270.11l.94.22v.61l-.89.29-4-.29v-.65Z"/><path class="cls-13" d="M344.66,437.17l-.93.08-.15-5.25.75-.18Z"/><path class="cls-11" d="M203.65,432.39c-.07-.31-.13-.61-.2-.92l.21-3.9c1.2,1.19.63,2.61.9,3.89-.05.31-.1.62-.16.93Z"/><path class="cls-23" d="M529.4,208.83l.52.07c0,3.33-.08,6.67-.13,10h-.35C529.43,215.57,529.41,212.2,529.4,208.83Z"/><path class="cls-10" d="M648.28,270.3l.88-.16h3.91c-1.22,1.44-2.78.66-4.12,1.07l-.6-.21C648.33,270.76,648.31,270.53,648.28,270.3Z"/><path class="cls-8" d="M332,431.88h-.72c.07-.22.08-.57.23-.64a3.08,3.08,0,0,1,4,1.7Z"/><path class="cls-8" d="M344.33,431.82l-.75.18c-1.29-.35-2.2.47-3.21,1l-.48-.33c1.14-.57,2.25-1.21,3.42-1.69C343.91,430.74,344.33,431.13,344.33,431.82Z"/><path class="cls-5" d="M134.93,421.8h-4.1c1.27-1.29,2.73-.72,4.1-.82Z"/><path class="cls-1" d="M454.32,426.77l.65-.17v8.22h-.52Z"/><path class="cls-9" d="M537.94,219.26l.06.67h-8.18v-.62Z"/><path class="cls-1" d="M561.07,270.22l-.56-.13c0-2.65.06-5.31.08-8l.54.57Z"/><path class="cls-3" d="M826.75,245.41l.55-.12V252l-.54-.12v-6.51Z"/><path class="cls-7" d="M169,435.26l.07-1.05,3.29.14v.9Z"/><path class="cls-12" d="M504.1,131.65c-.57-.26-.88-.55-.17-1l4.16.32.09.73Z"/><path class="cls-11" d="M795.21,261.75v.76l-1.34.09h-.78c-.12.08-.21,0-.29-.07s0-.54,0-.81Z"/><path class="cls-9" d="M548.56,219.93h-3.88l.06-.67h3.76Z"/><path class="cls-10" d="M72.05,252.56l.56.4v1h-.74a.29.29,0,0,1-.34-.07v-.58Z"/><path class="cls-10" d="M124.27,275.26l.06-.71h1v.62l-.25.37h-.73a.17.17,0,0,1-.12-.21A.16.16,0,0,1,124.27,275.26Z"/><path class="cls-9" d="M542.24,219.2l.09.74h-2l-.12-.76Z"/><path class="cls-10" d="M285,262.57l-.54.07a.41.41,0,0,1-.32-.1l.07-.69Z"/><path class="cls-10" d="M548.56,219.93l-.06-.67a.29.29,0,0,1,.07-.34H549l.5.48-.48.52Z"/><path class="cls-9" d="M542.76,219.93l.48-.52,1-.11v.63Z"/><path class="cls-9" d="M538.44,219.93l.48-.52,1-.23.08.1v.64Z"/><path class="cls-10" d="M624.24,231.92l.55-.08a6,6,0,0,0,.05.95C624.15,232.83,624.1,232.44,624.24,231.92Z"/><path class="cls-10" d="M544.24,219.93v-.63a.45.45,0,0,1,.1-.37h.36a.33.33,0,0,1,.08.34l-.06.67Z"/><path class="cls-10" d="M529.86,219.27v.62l-.38-1h.35A.28.28,0,0,1,529.86,219.27Z"/><path class="cls-11" d="M203.65,417.55l.34.44Z"/><path class="cls-10" d="M158.81,235.23h-.29v-.15h.36Z"/><path class="cls-8" d="M339.57,433a.73.73,0,0,1,.32-.33l.48.33-.47.47Z"/><path class="cls-8" d="M336,433.4l-.52-.52H336Z"/><path class="cls-10" d="M82.58,274.54v.52H82.1v-.51Z"/><path class="cls-11" d="M370,262.1l-.76-.32Z"/><path class="cls-4" d="M102.26,238.25l.68.22Z"/><path class="cls-10" d="M539.92,219.92v-.64l.12-.13h.17l.12.76Z"/><path class="cls-8" d="M388.2,402.18h-.5a.51.51,0,0,1,.15-.44h.36A.39.39,0,0,1,388.2,402.18Z"/><path class="cls-13" d="M343.73,438.15l.95.1c-.12,1.74-.25,3.48-.38,5.22l-.72-.07Z"/><path class="cls-8" d="M338.36,450.66h-1.1c-.26-1-1.21-1.77-.83-2.93.43.57.87,1.14,1.33,1.73l1.57-1.73C339.73,449,338.66,449.68,338.36,450.66Z"/><path class="cls-8" d="M331.32,443.54h.7l3.47-1.06a3,3,0,0,1-2.61,1.94C332.18,444.5,331.38,444.65,331.32,443.54Z"/><path class="cls-8" d="M343.58,443.4l.72.07c0,.83-.53,1.22-1.21.94-1.13-.47-2.17-1.14-3.25-1.72l.52-.28C341.36,443,342.3,443.73,343.58,443.4Z"/><path class="cls-10" d="M352.8,443.47a.65.65,0,0,0,.34,0l3.11-.89.42.46a4.24,4.24,0,0,1-3.33,1.38C352.66,444.43,352.65,444,352.8,443.47Z"/><path class="cls-8" d="M332.19,446l-.83-.1c.43-.19.87-.57,1.28-.54a3.07,3.07,0,0,1,2.86,1.52,3.72,3.72,0,0,1-.94-.06C333.76,446.53,333,446.22,332.19,446Z"/><path class="cls-10" d="M361.37,442.5l2.42,1.46C362.59,444.13,361.65,443.86,361.37,442.5Z"/><path class="cls-8" d="M335.93,442c.16-.51.12-1.22,1-1C336.85,441.62,336.87,442.32,335.93,442Z"/><path class="cls-8" d="M339.59,442.44l-.86-1.28.43-.42.73,1.19Z"/><path class="cls-10" d="M361.89,446.81l-1,1C360.69,447,361,446.62,361.89,446.81Z"/><path class="cls-8" d="M336,447.32h-.55v-.55Z"/><path class="cls-8" d="M336.46,447.8h-.55v-.54C336.11,447.45,336.29,447.62,336.46,447.8Z"/><path class="cls-8" d="M335.45,442.51,336,442v.55Z"/><path class="cls-8" d="M339.84,442.69a.6.6,0,0,1-.25-.25l.3-.51.47.48Z"/><path class="cls-10" d="M357.64,442.1l-.46.51-.44-.44.43-.48Z"/><path class="cls-10" d="M357.18,442.61l-.51.45-.42-.46.49-.43Z"/><path class="cls-8" d="M339.82,447.28v.54h-.55Z"/><path class="cls-8" d="M340.3,446.79v.55h-.54Z"/><path class="cls-11" d="M91.65,412.84h-19v-1a.53.53,0,0,0,.37-.07l19.71.09v.94Z"/><path class="cls-7" d="M91.65,412.84l1-.09v.06l-.15,10-.35.38-.55-.12C91.66,419.67,91.66,416.26,91.65,412.84Z"/><path class="cls-19" d="M92.22,423.21l.35-.38v1.42H91.7c-.1-.14-.21-.28-.31-.43Z"/><path class="cls-9" d="M71.54,253.92,33,254c-.88,0-1.75.05-2.63.07l-.57-.59.53-.24,38.34.06c1,0,1.91,0,2.87.07Z"/><path class="cls-20" d="M889.1,241.42l-.24.47Z"/><polygon class="cls-15" points="837.52 219.09 837.68 219.12 837.73 219.27 837.56 219.26 837.52 219.09"/><path class="cls-3" d="M496.7,306.17V285l.78-.87.16.05,3.29.09.17.85-.2.1h-3.29v14.54c0,2,.11,4,.17,6l-.67.48Z"/><path class="cls-9" d="M500.94,284.26V266.91h.83q0,9,.05,17.89l-.72.29C501.05,284.82,501,284.54,500.94,284.26Z"/><path class="cls-12" d="M497.49,284.12l-.78.87a3.41,3.41,0,0,1,.07-.84Z"/><path class="cls-23" d="M497.72,434.31a.89.89,0,0,1,.45.15l-.51.28A.64.64,0,0,1,497.72,434.31Z"/><path class="cls-7" d="M476.56,434.41a.69.69,0,0,1,.47.07Z"/><path class="cls-7" d="M455,434.27a1.33,1.33,0,0,1,.42.19l-.45.36Z"/><path class="cls-7" d="M496.25,434.48l.42-.23Z"/><path class="cls-2" d="M623.44,219.3h-.6v-19l.52-.1v16.06c0,.87.07,1.75.11,2.62A3,3,0,0,0,623.44,219.3Z"/><path class="cls-11" d="M549,218.93h-.41l-.05-10.07H549Z"/><path class="cls-11" d="M593.18,113.81v1.24l-.61-.89Z"/><path class="cls-11" d="M594.77,113.38h-1.15l.33-.62Z"/><path class="cls-11" d="M593.67,113.33l-.53.53Z"/><path class="cls-14" d="M498.22,131.16V116.68l.91.06.09,1.34h3.64v1.1a8.22,8.22,0,0,0-4.17.37c.64.44.94.81,1.28.84.93.1,1.87,0,2.8.06v.68h-3.69v1.31l-.42,1a1.24,1.24,0,0,0,1.28,1.22h2.73a4.24,4.24,0,0,0,.11.7h-3.7v1.31l-.35.37.36.21a10.32,10.32,0,0,0,.06,1.33h3.66v1.08h-3.7V131Z"/><path class="cls-12" d="M508.2,120v1.07h-4l.22,1.36v1.86h3.77v1.09H504a6.24,6.24,0,0,1,0-5.31Z"/><path class="cls-13" d="M508.75,182.89h10.48V184H508.77Z"/><path class="cls-13" d="M508.77,187.18h10.44v1.07H508.75C508.76,187.89,508.76,187.54,508.77,187.18Z"/><path class="cls-13" d="M547.12,208.85l.06,10.43h-1.11V208.84Z"/><path class="cls-12" d="M508.09,129.37l-4.16.31a2.84,2.84,0,0,1-.05-3.36l3.89.52v.36l-3.45.24-.21.45c.33.28.65.75,1,.78q1.53.08,3.06,0Z"/><path class="cls-23" d="M508.77,189.55h10.44v.64H508.75Z"/><path class="cls-23" d="M508.75,180.94h10.5v.62H508.77Z"/><path class="cls-12" d="M539.88,219.17v-10.3l.66.07v8.46C540.49,218,540.83,218.84,539.88,219.17Z"/><path class="cls-23" d="M544.3,218.93c0-3.36-.09-6.71-.13-10.07h.62c0,3.34-.08,6.69-.13,10h-.18Z"/><path class="cls-12" d="M504.37,116.71c0,.37-.07.75-.12,1.29l3.53.24v.36l-3.89.51C503.18,117.59,503.23,117.36,504.37,116.71Z"/><path class="cls-14" d="M507.77,116l.45-.68Z"/><path class="cls-14" d="M508.22,110l-.48-.48Z"/><path class="cls-13" d="M495.74,76.28a19.06,19.06,0,0,1,.45,3V217.05a15.22,15.22,0,0,1,0,1.91,4.73,4.73,0,0,1-.44,1.07v-.22l-.53-.46V79.14c0-.72,0-1.44-.05-2.16l.54-.47a.14.14,0,0,1,0-.2Z"/><path class="cls-24" d="M143.93,219.34H125.36l-.26-3.54c6.37-.24,12.5-.06,18.83-.13Z"/><path class="cls-21" d="M155.48,201.71c-1.84,0-3.67-.07-5.51-.07H102.72l-.12-.67c3,0,5.89.07,8.84.07h41.11c1,0,1.91,0,2.87-.06Z"/><path class="cls-4" d="M145.12,212.87h10.19c.25.82.51,1.62-.77,1.64-3.1.06-6.2,0-9.42,0Z"/><path class="cls-4" d="M155.38,232.07c.27,1.15,0,1.63-.83,1.64h-9.42v-1.64Z"/><path class="cls-4" d="M145.2,227.75h10.1c.37.94.34,1.63-.72,1.64H146C144.87,229.38,144.89,228.68,145.2,227.75Z"/><path class="cls-4" d="M155.38,217.2c.27,1.14,0,1.63-.83,1.64h-9.42V217.2Z"/><path class="cls-4" d="M112.56,214.53c-3.09,0-6.09,0-9.09-.05-.39,0-.76-.57-1.13-.87.38-.29.75-.82,1.14-.83,2.77-.07,5.55,0,8.32,0C112.85,212.77,112.91,213.42,112.56,214.53Z"/><path class="cls-24" d="M112.82,208.83c.29,1-.14,1.45-1.18,1.44h-9.3c.15-.64.26-1.08.37-1.52Z"/><path class="cls-24" d="M102.71,208l-.47-1.5h9.87c.93,0,.85.73.71,1.39Z"/><path class="cls-24" d="M112.8,221.37v1.38l-10.11.11-.46-1.49Z"/><path class="cls-24" d="M112.81,223.72v1.37H102.35c.14-.6.25-1,.36-1.48Z"/><path class="cls-18" d="M112.79,204.54l-10.39.08c0-.52-.05-1.05-.08-1.57a12.9,12.9,0,0,0,2.47.51c3,.06,6,0,9,0a1.18,1.18,0,0,1-.16.29Z"/><path class="cls-18" d="M155.45,204.58H145.07l-.18-.94,10.59-.14Z"/><path class="cls-21" d="M145,207.8h10.44v1.08H145Z"/><path class="cls-21" d="M155.48,223.78H145v-1.12h10.44Z"/><path class="cls-6" d="M112.81,223.72l-10.1-.11v-.75l10.11-.11Z"/><path class="cls-6" d="M102.71,208l10.11-.09v.94l-10.11-.09Z"/><path class="cls-5" d="M102.6,217.38c.08.44.15.88.23,1.32C102,218.39,102.2,217.9,102.6,217.38Z"/><path class="cls-5" d="M102.83,227.77c-.07.45-.14.9-.2,1.35a1.83,1.83,0,0,1-.4-.05Z"/><path class="cls-1" d="M113.3,219.41a2,2,0,0,1-.4-.16,3,3,0,0,0-.14-.39h0Z"/><path class="cls-16" d="M113.62,203.85a1.18,1.18,0,0,0,.16-.29l.47.13Z"/><path class="cls-18" d="M102.6,201l.12.67a.48.48,0,0,1-.31.08,4.91,4.91,0,0,1,.13-.75Z"/><path class="cls-24" d="M595.24,305.5V285.26h3.47V305.5Z"/><path class="cls-3" d="M594.52,292.46c-3.1,0-6.21-.15-9.31-.09-.64,0-1.25.65-2,1.07v-3.16a3.13,3.13,0,0,0,2.95,1.1c2.79-.1,5.58-.11,8.36-.15Z"/><path class="cls-7" d="M91.7,424.28h.87c.05,3.33.09,6.65.14,10h8.39l.74.06h4.67l.69-.06,1.24.07h6.32l.08.13-.54.91H91.71v-5.53C91.71,428.07,91.69,426.12,91.7,424.28Z"/><path class="cls-24" d="M115.72,424.72a3.39,3.39,0,0,1,.39,1.06v7.12c0,.79-.13,1.42-1,1.57a.58.58,0,0,1-.26-.06l-.08-.13V424.8Z"/><path class="cls-22" d="M510.84,487.71c-2.78,0-5.56-.12-8.35-.12-6.36,0-12.73.06-19.09.09a2.69,2.69,0,0,0-.14-.54l.18-.21c.55.05,1.1.14,1.66.14H509c.63,0,1.26-.12,1.89-.18l.18.22Z"/><path class="cls-22" d="M482.53,487.71c-2.79,0-5.58-.12-8.36-.12-6.38,0-12.75.06-19.13.09l-.09-.55a.45.45,0,0,1,.16-.2,13.57,13.57,0,0,0,1.43.14H481a15.41,15.41,0,0,0,1.65-.18l.18.22Z"/><path class="cls-22" d="M539.15,487.71c-2.62,0-5.24-.12-7.87-.12-6.52,0-13,.06-19.57.09a2.15,2.15,0,0,0-.14-.54l.18-.21a13.38,13.38,0,0,0,1.42.14h24.39a11.34,11.34,0,0,0,1.64-.22.55.55,0,0,1,.22.18Z"/><path class="cls-22" d="M483.26,487.14l-.23-.06h-.24l-.18-.22h.83Z"/><path class="cls-22" d="M511.57,487.14l-.23-.06h-.24l-.17-.22h.82Z"/><path class="cls-24" d="M332.66,247.25a7.73,7.73,0,0,1-1.77.42H301v-.85c9.46,0,18.91,0,28.36-.06.79,0,1.77.49,2.35-.54V233.37H301.36V233h31.16Q332.58,240.13,332.66,247.25Z"/><path class="cls-7" d="M331.69,246.21c-.58,1-1.56.53-2.35.54-9.45.05-18.9.05-28.36.06v-.61l1.32-.11V234.32h.55v11.8l1.31.06.72-.07h1.68V234.36l.62-.05v7.88a26.62,26.62,0,0,0,.09,3.34c0,.27.62.48,1.32,1V234.3h.57V246l1.31.14h1.11l1.29-.1V234.34h.61v11.74l1.28.1h1.11l1.32-.14v-11.7h.56V246.2h1.31l.72-.07h1.66l.72.07,1.3-.06V234.3H324v11.77l1.32.11h1.12l1.3-.09V234.32h.56v11.8l1.3.06.72-.07.75.09Z"/><path class="cls-4" d="M306.58,234.36v11.73H304.9c0-3.46,0-6.93-.08-10.39C304.8,234.39,305.38,234,306.58,234.36Z"/><path class="cls-4" d="M321.43,246.09h-1.66L319.71,236c0-.32-.09-.71.07-.94a2,2,0,0,1,1-.77,1.3,1.3,0,0,1,.68.76,19.21,19.21,0,0,1,.07,2.63Q321.46,241.91,321.43,246.09Z"/><path class="cls-24" d="M317.18,234.34v11.73l-1.32.14c0-3.56-.07-7.11-.13-10.66C315.71,234.49,316.15,234.09,317.18,234.34Z"/><path class="cls-24" d="M310.46,246.21l-1.31-.14V234.34c1-.25,1.47.15,1.45,1.21C310.54,239.1,310.51,242.65,310.46,246.21Z"/><path class="cls-4" d="M331.08,246.18l-.75-.09v-11c0-.19.18-.38.5-.56A79.5,79.5,0,0,1,331.08,246.18Z"/><path class="cls-16" d="M868.18,241.47c.06,3.45.11,6.89.16,10.34l-.8.1c.07-1.66.17-3.32.19-5s-.05-3.25-.08-4.79c-1.18-.31-1.41.19-1.4.94q0,4.4.11,8.79h-.74c0-1.67.11-3.34.12-5s0-3.24-.07-4.8c-1.36-.19-1.34.53-1.33,1.17,0,2.87.07,5.73.11,8.6l-.75.05V242h-1.18l-.71-.06h-2.72L858,242h-.83l-.72.06h-1.18v9.83l-.75,0c0-2.86.09-5.73.12-8.6,0-.77-.07-1.49-1.29-1.09v9.73l-1.13.06c.16-.27.45-.54.46-.81V242h-1.35v-.7l16.16.1Z"/><path class="cls-7" d="M878.54,251.9c.05-4.05.12-8.09.13-12.14,0-3.25-.07-6.5-.11-9.75l1.09-.06V252Z"/><path class="cls-24" d="M867.57,241.43l-16.16-.1c.21-.27.43-.78.64-.78,5.21,0,10.41.11,15.62.19v.17A3,3,0,0,0,867.57,241.43Z"/><path class="cls-24" d="M864.47,230l1.2.09v9.75l-1.23.1Z"/><path class="cls-24" d="M855.29,230h1.12v9.92h-1.18Z"/><path class="cls-24" d="M854.56,240l-1.23-.1v-9.75l1.19-.09C854.53,233.34,854.55,236.66,854.56,240Z"/><path class="cls-24" d="M863.74,240h-1.19v-9.92h1.12Z"/><path class="cls-24" d="M851.37,242h1.35v9.11c0,.27-.3.54-.46.81l-.76-.07C851.44,248.6,851.41,245.31,851.37,242Z"/><path class="cls-24" d="M852,240c-.22-.4-.62-.8-.63-1.21-.07-2.63,0-5.26,0-7.9,0-.72.38-1,1.25-.74v9.62Z"/><path class="cls-18" d="M861,230c0,2.35,0,4.7-.11,7.06,0,.85-.11,1.71-.17,2.57l-.67-.07-.18-9.54Z"/><path class="cls-18" d="M859.11,230.06c-.06,3.18-.11,6.36-.17,9.54l-.67.07c-.06-2.35-.12-4.69-.19-7,0-.86-.06-1.72-.1-2.58Z"/><path class="cls-16" d="M863.74,240V230h.76v9.94Z"/><path class="cls-16" d="M854.56,240v-9.94h.77v10Z"/><path class="cls-16" d="M857.22,230v10h-.75v-9.92Z"/><path class="cls-16" d="M861.81,240V230h.81v9.92Z"/><path class="cls-4" d="M370.87,246.18h-1.69c0-3.54-.06-7.09-.05-10.64a4.5,4.5,0,0,1,.4-1.29h1a4.5,4.5,0,0,1,.4,1.29C370.94,239.09,370.9,242.64,370.87,246.18Z"/><path class="cls-4" d="M385.43,234.22a3.07,3.07,0,0,1,.41,1.05v9.52c0,1-.25,1.74-1.66,1.32a13.39,13.39,0,0,1-.21-1.53V236a10.71,10.71,0,0,1,.36-1.79Z"/><path class="cls-4" d="M375.19,246.14l-1.71.08V234.35c1.15-.26,1.81,0,1.79,1.38C375.21,239.2,375.21,242.67,375.19,246.14Z"/><path class="cls-4" d="M396.29,234.35v11.83h-1.67c0-3.54-.07-7.09-.06-10.64a4.5,4.5,0,0,1,.4-1.29Z"/><path class="cls-18" d="M386.36,233.67h7.69l-.11.73H392l-1.28.12v11.72h-1.05V234.46l-1.3-.11h-2Z"/><path class="cls-24" d="M381.41,234.35v11.72l-1.28.16c0-3.5,0-7-.07-10.51C380.05,234.74,380.3,234.15,381.41,234.35Z"/><path class="cls-18" d="M381.41,234.35c-1.11-.2-1.36.39-1.35,1.37.05,3.5.05,7,.07,10.51h-1V234.47l-1.27-.11a4.19,4.19,0,0,0-.1-.71h5.72l-.06.68H382.1Z"/><path class="cls-15" d="M376.76,234.25c-1.06,0-1,.81-1,1.53l.06,10.44-.64-.08c0-3.47,0-6.94.07-10.41,0-1.35-.64-1.64-1.79-1.38l-.09-.56.47-.32,2.83.24C376.71,233.89,376.73,234.07,376.76,234.25Z"/><path class="cls-21" d="M368.52,246.22V234.35c0-.24.05-.48.07-.72h1v.59a4.5,4.5,0,0,0-.4,1.29c0,3.55,0,7.1.05,10.64Z"/><path class="cls-21" d="M371.54,234.35v11.87h-.66c0-3.54.07-7.09.06-10.64a4.5,4.5,0,0,0-.4-1.29v-.59h1A2,2,0,0,0,371.54,234.35Z"/><path class="cls-21" d="M394,246.22V234.35a6.13,6.13,0,0,1,.11-.73H395v.59a4.5,4.5,0,0,0-.4,1.29c0,3.55,0,7.1.06,10.64Z"/><path class="cls-16" d="M373.39,233.79l.09.56v11.87h-.64V234.33Z"/><path class="cls-18" d="M368.58,233.63a2.52,2.52,0,0,1-.07.72h-2.73l-.06-.65Z"/><path class="cls-18" d="M395,234.25v-.59l1.32-.44v1.13Z"/><path class="cls-18" d="M385.43,234.22h-1.06l.06-.5h.94Z"/><path class="cls-4" d="M529.15,295.56H513.22v-.51c1.66-.57,3.43-.21,5.15-.26s3.65,0,5.48,0h5.34Z"/><path class="cls-4" d="M525.39,305.62H524.2c-.4-6.49-.25-8.32.88-9.43.77,1.57.32,3.16.39,4.68S525.42,304,525.39,305.62Z"/><path class="cls-24" d="M527.3,305.62h-1.18v-9.17c1.26-.32,1.29.4,1.28,1C527.38,300.2,527.34,302.91,527.3,305.62Z"/><path class="cls-24" d="M514.32,305.59l-1.18.06v-9.23c1.33-.25,1.29.57,1.28,1.28C514.4,300.33,514.35,303,514.32,305.59Z"/><path class="cls-24" d="M521.56,305.65l-1.18-.06q-.06-3.94-.11-7.89c0-.64,0-1.29,1.12-1.46.59,1.53.24,3.11.28,4.63S521.6,304.05,521.56,305.65Z"/><path class="cls-24" d="M523.47,305.64h-1.18c-.43-5.81-.22-8.39,1-9.48.61,1.63.26,3.21.31,4.72S523.51,304,523.47,305.64Z"/><path class="cls-24" d="M526.08,285.21h1.26c0,2.62,0,5.23.07,7.85,0,.68-.08,1.3-1.33,1Z"/><path class="cls-24" d="M524.17,285.23h1.25q0,4.31-.07,8.61c0,.11-.2.21-.57.56-.24-.47-.61-.85-.62-1.24C524.12,290.5,524.16,287.86,524.17,285.23Z"/><path class="cls-24" d="M522.25,285.22h1.26v8.9c-1.41.26-1.32-.57-1.32-1.27C522.19,290.29,522.22,287.75,522.25,285.22Z"/><path class="cls-24" d="M520.34,285.23h1.26v8.91c-1.35.26-1.33-.54-1.33-1.26C520.28,290.3,520.32,287.77,520.34,285.23Z"/><path class="cls-24" d="M513.1,285.19h1.26c0,2.54,0,5.07.07,7.61,0,.73,0,1.49-1.33,1.28Z"/><path class="cls-18" d="M517.74,305.58c0-3,.07-6,.1-8.95l1.07-.35v9.32Z"/><path class="cls-18" d="M515.83,305.6l.18-9,.85.06.09,8.95Z"/><path class="cls-18" d="M515.88,294.21v-9h1.06v9Z"/><path class="cls-18" d="M517.77,294.18v-8.95h1.06v9Z"/><path class="cls-1" d="M588,262.7c0,.76-.09,1.53-.13,2.29h-.37l-.18-2.35Z"/><path class="cls-24" d="M790.88,229.94l3.21.13v21.69h-3.43a7.31,7.31,0,0,1-.18-1.14V231.46A6.2,6.2,0,0,1,790.88,229.94Z"/><path class="cls-24" d="M823.17,230.07h3.47v7.44h-3.47Z"/><path class="cls-3" d="M806.37,236.78c-.13.89.49.82,1,.82h8.84c2.07,0,4.14-.06,6.21-.09v1.17l-15.2-.15c-.65,0-1.09.17-1,.94l-.74.11c-.31-.51-.46-1.1-1.33-1.07-3.15.12-6.31.15-9.46.21v-1.24h10.24l.62-1.39Z"/><path class="cls-24" d="M823.14,238.69h3.6c-.12,2.07.51,4.09-.4,6.08h-3.2Z"/><path class="cls-5" d="M826.34,251.83c.14-.27.28-.53.43-.79v.88A.55.55,0,0,1,826.34,251.83Z"/><path class="cls-5" d="M826.77,246.28l-.43-.78a.51.51,0,0,1,.41-.09C826.75,245.7,826.76,246,826.77,246.28Z"/><path class="cls-4" d="M102.25,232.33a15,15,0,0,1,2.31-.37c2.62-.05,5.24,0,8,0l.19,1.63-9.33.15C102.43,233.74,102.24,233.14,102.25,232.33Z"/><path class="cls-4" d="M112.8,236.23c.31,1.18-.23,1.56-1.34,1.53-3.07-.06-6.15-.08-9.22-.12h0c-.1-1.13.42-1.52,1.54-1.49C106.79,236.24,109.8,236.21,112.8,236.23Z"/><path class="cls-3" d="M112.8,236.23c-3,0-6,0-9-.06-1.12,0-1.64.36-1.54,1.49l-.59-.2.18-5.58.41.45c0,.81.18,1.41,1.18,1.39l9.33-.15v.73H102.63c-.47.95-.21,1.38.63,1.4h9.54Z"/><path class="cls-16" d="M101.1,434.25q0-10.71.05-21.42l.64-.08v7.32a13.52,13.52,0,0,0,.14,2.11c0,.1.55.12.85.18h1.92l.89.06c1.14.16,1-.66,1-1.35v-8.23l.54.05V421c0,.77-.08,1.66,1.38,1.59v-9.73H109v8.09c0,.95.08,1.78,1.28,1.87H113c1.22-.09,1.29-.92,1.28-1.88V412.8h.61c0,1.67-.12,3.34-.08,5a17.87,17.87,0,0,0,.24,4.95c.46-.22.82-.31.83-.41.13-3.15.23-6.31.34-9.46l.52-.14v9.77l.39.32.94-.15.07.68h-15a4.17,4.17,0,0,0-1.25.41v10.57Z"/><path class="cls-24" d="M134.31,420.36H130.7v-7.5l3.65-.29Z"/><path class="cls-24" d="M114.2,412.78v8.12c0,1-.06,1.79-1.28,1.88v-10Z"/><path class="cls-24" d="M116.14,412.87c-.11,3.15-.21,6.31-.34,9.46,0,.1-.37.19-.83.41a17.87,17.87,0,0,1-.24-4.95c0-1.66,0-3.33.08-5Z"/><path class="cls-24" d="M110.28,422.78c-1.2-.09-1.28-.92-1.28-1.87v-8.09l1.47-.18C110.4,416.12,110.65,419.45,110.28,422.78Z"/><path class="cls-24" d="M108.48,412.82v9.73c-1.46.07-1.37-.82-1.38-1.59v-8.09Z"/><path class="cls-24" d="M111.51,412.57c.27.33.78.66.79,1,.06,2.7,0,5.39,0,8.09,0,.71-.42,1-1.25.65V412.8Z"/><path class="cls-18" d="M105.66,412.8c0,3.2-.07,6.4-.11,9.6l-.89-.06q0-4.75-.07-9.51Z"/><path class="cls-15" d="M102.76,422.36v-9.61l1,.06c0,3.19-.05,6.37-.08,9.55Z"/><path class="cls-18" d="M116.67,424.12l1.39-.36v1h-1.31A3.85,3.85,0,0,1,116.67,424.12Z"/><path class="cls-24" d="M511.75,486.93h-.82c-.64.06-1.27.18-1.9.18H485.1c-.56,0-1.11-.09-1.66-.14h-.83a15.41,15.41,0,0,1-1.65.18H456.54a13.57,13.57,0,0,1-1.43-.14c-.05-.71-.16-1.42-.16-2.14V447.45c0-.7.06-1.41.1-2.25.71-.07,1.32-.18,1.94-.18h82.29v.23q0,20.49.05,41a2.67,2.67,0,0,1-.16.69,11.34,11.34,0,0,1-1.64.22H513.17A13.55,13.55,0,0,1,511.75,486.93Zm-54.46-2.34H537V447.38H457.29Z"/><path class="cls-15" d="M172.49,433.89c-.06-2.22-.16-4.43-.16-6.65,0-4.68.1-9.36.16-14a8,8,0,0,1,.27,1.38v17.93A7.76,7.76,0,0,1,172.49,433.89Z"/><path class="cls-15" d="M171.87,412.58l-2.8.29C169.91,411.86,170.9,412.29,171.87,412.58Z"/><path class="cls-20" d="M71.61,274.46l.32-.3Z"/><path class="cls-1" d="M454.33,421.35v-8.92c.21-.81.42-1.61.62-2.42v15.61c-.2-.8-.4-1.59-.61-2.39Z"/><path class="cls-10" d="M450.72,412.84v9.92l.48,1-.11.93h-.92V410.76h.92l.1.92Z"/><path class="cls-5" d="M454.35,412.43v1.8H454Z"/><path class="cls-5" d="M454.33,421.35v1.88c-.14-.6-.29-1.2-.43-1.81A.7.7,0,0,1,454.33,421.35Z"/><path class="cls-24" d="M864.45,251.85c0-2.87-.09-5.73-.11-8.6,0-.64,0-1.36,1.33-1.17,0,1.56.08,3.18.07,4.8s-.08,3.34-.12,5Z"/><path class="cls-24" d="M855.29,251.9v-9.83h1.18v9.68Z"/><path class="cls-24" d="M853.37,251.89v-9.73c1.22-.4,1.3.32,1.29,1.09,0,2.87-.08,5.74-.12,8.6Z"/><path class="cls-24" d="M862.52,242.07h1.18v9.83l-1.18-.15Z"/><path class="cls-15" d="M859.91,242H861l.06,9.89h-1.15Z"/><path class="cls-15" d="M858,251.87V242h1.07v9.85Z"/><path class="cls-15" d="M861.78,251.84V242l.71.06v9.68Z"/><path class="cls-15" d="M857.19,242v9.83l-.73-.09v-9.68Z"/><path class="cls-18" d="M107.51,424.11l8.17.05v.56l-.91.08h-6.39l-.89-.06Z"/><path class="cls-8" d="M495.74,76.51l-.54.47c-.88,0-1.76-.06-2.64-.06H201.67l-.5-.46-.07-.1H493.35C494.15,76.42,494.94,76.48,495.74,76.51Z"/><path class="cls-10" d="M495.21,219.33l.53.46c-.87,0-1.75.08-2.63.08h-292l0-.52H492.83C493.61,219.39,494.41,219.35,495.21,219.33Z"/><path class="cls-12" d="M201.66,219.35h-.6c-.08-.87-.24-1.74-.24-2.6v-138a16,16,0,0,1,.34-2.27l.5.46c0,1-.08,1.91-.08,2.87V216.7C201.59,217.6,201.63,218.47,201.66,219.35Z"/><path class="cls-12" d="M324,277.45c.28.21.73.37.79.63a6.67,6.67,0,0,1,.08,1.67v32.56c0,.78-.08,1.56-.12,2.44H311.54a7.39,7.39,0,0,1-.15-1.15V278.88c0-.31.06-.63.09-.95l.57.07v35.91h11.88V278.05Z"/><path class="cls-8" d="M312.05,278l-.57-.07a6.47,6.47,0,0,1,1.61-.47H324v.6Z"/><path class="cls-12" d="M311.54,362.43h13.13V399.7H311.54ZM323.82,399V363.1H312.1V399Z"/><path class="cls-14" d="M385.49,362.85a11.35,11.35,0,0,1,.28,1.84v33c0,.62-.1,1.24-.16,2h-13.3a8,8,0,0,1-.27-1.52v-34a6.41,6.41,0,0,1,.28-1.37h1.08a12.33,12.33,0,0,0-.42,2.26V396.7c0,.69.09,1.39.13,2.06h11.66c0-.57.1-.95.1-1.34V364.58a8.4,8.4,0,0,0-.43-1.78Z"/><path class="cls-10" d="M385.49,362.85H372.33c.32-.16.65-.45,1-.45h11.23C384.85,362.4,385.17,362.69,385.49,362.85Z"/><path class="cls-14" d="M385.49,277.92a16.41,16.41,0,0,1,.29,2.09v32.37c0,.78-.08,1.56-.13,2.43H372.19c-.06-.8-.16-1.49-.16-2.19V279.77a11.65,11.65,0,0,1,.28-1.85h1.08a9.75,9.75,0,0,0-.42,2v32.3a13.83,13.83,0,0,0,.19,1.56h11.59c.05-.55.1-.93.1-1.32V279.68a7.69,7.69,0,0,0-.42-1.78Z"/><path class="cls-8" d="M385.49,277.92H372.33c.32-.16.63-.46.95-.47h11.27C384.86,277.46,385.18,277.76,385.49,277.92Z"/><path class="cls-18" d="M101.82,423.74l4.79.34-.11.75c-1,0-.91.69-.9,1.33q0,4.08.05,8.14H104.6c0-3,0-6-.1-9,0-.08-.21-.16-.32-.23s-.33.15-.33.23c0,3-.06,6-.09,9h-1.08v-8.09c0-.62.12-1.35-.85-1.36Z"/><path class="cls-24" d="M112.89,424.8h1.22v9.47h-1.27C112.88,431.15,112.89,428,112.89,424.8Z"/><path class="cls-24" d="M111,424.81h1.22v9.5H111Z"/><path class="cls-24" d="M109.13,424.82h1.21v9.52h-1.27C109.1,431.13,109.12,428,109.13,424.82Z"/><path class="cls-24" d="M107.53,424.74l.89.06v9.52l-1.24-.07c0-2.74-.07-5.48-.06-8.22A5.24,5.24,0,0,1,107.53,424.74Z"/><path class="cls-21" d="M106.51,434.31v-9.48a6.46,6.46,0,0,1,.11-.75h.9v.63a5.33,5.33,0,0,0-.39,1.29c0,2.74,0,5.48.06,8.22Z"/><path class="cls-16" d="M108.44,434.32V424.8h.71v9.47Z"/><path class="cls-2" d="M110.36,434.32V424.8H111v9.5Z"/><path class="cls-2" d="M112.26,434.31v-9.5h.66v9.52Z"/><path class="cls-16" d="M114.14,434.29v-9.47h.7v9.48Z"/><path class="cls-2" d="M867.57,241.43a1.31,1.31,0,0,1,.07-.52l.54.56Z"/><path class="cls-18" d="M373.39,233.79l-.57.55h-1.28c0-.24-.05-.48-.07-.72l2.39-.16Z"/><path class="cls-18" d="M370.51,233.66v.59h-1v-.59Z"/><path class="cls-1" d="M805.59,239.58l.74-.11,2.27.11v4.15h-2.84C805.71,242.37,805.65,241,805.59,239.58Z"/><path class="cls-1" d="M806.37,236.78l-.7-.69V232.4h3v4.22Z"/><path class="cls-3" d="M116.67,422.5l.39.32Z"/><path class="cls-1" d="M457.29,484.59V447.38H537v37.21ZM458,484h78.3V448H458Z"/><rect class="cls-25" width="950" height="600"/></svg>