<svg id="Layer_1" data-name="Layer 1" xmlns="http://www.w3.org/2000/svg" viewBox="0 0 950 600"><defs><style>.cls-1{fill:#e94a40;}.cls-2{fill:#f18b75;}.cls-3{fill:#ee7965;}.cls-4{fill:#fdebe7;}.cls-5{fill:#fbd7ce;}.cls-6{fill:#f29485;}.cls-7{fill:#f08172;}.cls-8{fill:#504e51;}.cls-9{fill:#2c2d31;}.cls-10{fill:#59585c;}.cls-11{fill:#626063;}.cls-12{fill:#868486;}.cls-13{fill:#9c9a9e;}.cls-14{fill:#a7a5a5;}.cls-15{fill:#f6afa2;}.cls-16{fill:#f1887c;}.cls-17{fill:#c5c2c3;}.cls-18{fill:#f8c1b2;}.cls-19{fill:#d78f83;}.cls-20{fill:#e5b6ab;}.cls-21{fill:#f2958e;}.cls-22{fill:#caa29f;}.cls-23{fill:#727074;}.cls-24{fill:#fef4f3;}</style></defs><path class="cls-1" d="M323.86,447.89H287.94v3q0,60.76,0,121.53a22.24,22.24,0,0,1-.44,3h-90.7c0-1-.09-1.91-.09-2.87v-82H69.25V356.67c.82,0,1.66-.07,2.51-.07H278.49c1,0,2.08-.06,3.12-.09l.28.28a5.08,5.08,0,0,0-.15.52l-3.12,0H73.27c-.56,0-1.12,0-1.68,0s-1,.16-1.79.28v3.2q0,64.28,0,128.56c.64,1.32,1.84.67,2.75.67q62.34.06,124.66,0c0,.88.05,1.75.05,2.63q0,39.42,0,78.84c0,1,0,1.92.06,2.88.59,1,1.58.55,2.37.55q42.29,0,84.57,0a21.07,21.07,0,0,0,2.35-.25l.62-.63a25,25,0,0,0,.25-2.58q0-17.15,0-34.28,0-45,0-89.9H324Z"/><path class="cls-2" d="M875.33,25.56l-.09,1-.94,0c-.55,0-1.11-.06-1.67-.06H796c-.56,0-1.12,0-1.68.06h-1.09q-23.15,0-46.29,0a6,6,0,0,0-1.24.27v2.93q0,70.74,0,141.47c0,.88,0,1.75.08,2.63l-1-.08V119.35c0-.27,0-.53,0-.8v-92H664.5c-.88,0-1.76,0-2.64.06l-.93,0-.1-1Z"/><path class="cls-3" d="M408.9,575.4c0-.15.05-.31.06-.47H581.59a13.53,13.53,0,0,0,1.91,0,3.32,3.32,0,0,0,1-.52c0-.4,0-.8,0-1.2q0-86.62,0-173.26l0-.71,0-.06.64.11h0c0,.8-.06,1.6-.06,2.39V575.4Z"/><path class="cls-4" d="M26.61,320.52l-.65.11V145l.68,0c.05.79.14,1.59.14,2.38q0,86.12,0,172.22Z"/><path class="cls-2" d="M26.64,145.05,26,145v-1c1.44,0,2.87.08,4.31.08H193.61c1,0,2.07-.1,3.11-.15l.5.53a18.73,18.73,0,0,1-3.11.53q-51.29,0-102.58,0l-64,0Z"/><path class="cls-2" d="M585,575.4V401.65c0-.79,0-1.59.06-2.39a21.79,21.79,0,0,1,.33,2.77q0,84.89,0,169.78c0,1.19.05,2.39.08,3.59Z"/><path class="cls-5" d="M924.68,173.88l.56-.06V307.2l-.51-.49c0-1,0-1.92,0-2.88q0-63.18,0-126.37C924.75,176.27,924.71,175.07,924.68,173.88Z"/><path class="cls-2" d="M924.73,306.71l.51.49v.48l-.94,0-.06-.69a.25.25,0,0,1,0-.3h.44Z"/><path class="cls-1" d="M584.47,399.2l0,.71c-1,0-1.91-.1-2.87-.1H414.81V362.33H666.57c.95,0,1.91-.08,2.86-.13l.08.72H415.38v36.2h166C582.39,399.13,583.43,399.18,584.47,399.2Z"/><path class="cls-1" d="M924.24,307l.06.69H673.56c-1,0-2.08,0-3.11,0,0-.21,0-.41-.05-.62l2.88,0H921.13C922.17,307.13,923.2,307.05,924.24,307Z"/><path class="cls-2" d="M670.4,307.15c0,.21,0,.41.05.62,0,1-.1,2.07-.1,3.1v49.49a10.12,10.12,0,0,1-.06,1.91c0,.25-.51.43-.78.65l-.08-.72V309.57a8.56,8.56,0,0,1,.1-1.9C669.58,307.44,670.09,307.32,670.4,307.15Z"/><path class="cls-2" d="M585.08,399.25l-.64-.11Z"/><path class="cls-3" d="M924.73,306.71h-.44q0-64.77,0-129.54c0-.64,0-1.28-.07-1.91a.47.47,0,0,0-.12-.19c-.06-.07-.12-.12-.29-.28H625l-.66-.05c-.18-1.17.85-.78,1.37-1.06l.62.06.86,0h.59c.87,0,1.75.11,2.63.11H742.15c.88,0,1.75-.08,2.63-.12l1,.08,38.83,0c2.88,0,5.75-.05,8.63-.07h1c1,0,2.08.07,3.12.07l127.28,0c0,1.19.07,2.39.07,3.58q0,63.19,0,126.37C924.76,304.79,924.74,305.75,924.73,306.71Z"/><path class="cls-1" d="M627.77,173.75h-.59q0-18.47.06-36.93a3.56,3.56,0,0,0-1.09-2.79c-2.18-2.2-4.35-4.4-6.54-6.59q-5.4-5.37-10.82-10.71-5.58-5.59-11.17-11.17c-1.09-.11-2.18-.33-3.27-.33q-46.05,0-92.09,0c-.88,0-1.76,0-2.64,0V72.92c-3.81-.52-300.57-.35-302.33.16v2.6q0,33,0,66c0,1,0,1.92-.06,2.88l-.5-.53V72.09H500.17c.09.28.19.56.28.84-.06.63-.18,1.27-.18,1.9q0,14,.06,28.05c0,.47.07,1,.12,1.7.87,0,1.71.09,2.55.09q46.53,0,93,0a4.46,4.46,0,0,1,3.51,1.49c9.54,9.45,19.15,18.84,28.21,27.72Z"/><path class="cls-6" d="M660.93,26.51l.93,0c0,1-.07,1.91-.07,2.87v78.14c0,3.67,0,7.35,0,11-.18.18-.35.36-.53.53a3.24,3.24,0,0,1-.45-1c-.06-.79,0-1.59,0-2.39V29.38C660.83,28.42,660.89,27.47,660.93,26.51Z"/><path class="cls-1" d="M661.3,119.12c.18-.17.35-.35.53-.53.56,0,1.12.07,1.68.07q39.69,0,79.37,0c.64,0,1.28-.07,1.91-.11,0,.27,0,.53,0,.8-.95-.06-1.9-.16-2.85-.16H663.69C662.89,119.18,662.09,119.14,661.3,119.12Z"/><path class="cls-7" d="M26.61,320.52l.17-.87h.7c1,0,2.08,0,3.12,0H279.05c.8,0,1.6,0,2.4,0,.25,0,.49.28.74.43l-.6.6c-1,0-2.07-.1-3.11-.1h-249C28.52,320.65,27.56,320.56,26.61,320.52Z"/><path class="cls-1" d="M281.59,320.76l.6-.6c0,.79.07,1.59.07,2.38q0,17.06,0,34.12l-.38.13-.28-.29Q281.6,338.62,281.59,320.76Z"/><path class="cls-6" d="M584.48,574.37a3.32,3.32,0,0,1-1,.52,13.53,13.53,0,0,1-1.91,0H409c0-.63-.1-1.27-.1-1.9q0-62.28,0-124.55c0-.16,0-.31,0-.47l.06-.76c.3.19.81.35.84.57a15.87,15.87,0,0,1,.08,2.39V574.5h172C582.73,574.5,583.61,574.41,584.48,574.37Z"/><path class="cls-8" d="M323.86,447.89l.12-.59c.29.25.81.48.83.75.1,1.09,0,2.2.07,3.3a5.69,5.69,0,0,0,.52,1.4,2.44,2.44,0,0,0,2.71-.53l-2.67-.18c-.05-2.35-.09-4.7-.14-7.06v-7.83h5.79l.76.05v1l-.72,0h-5.18c1.15,2.27-1.25,5,1.64,6.79.16.11.07.61.08.93,0,.63,0,1.27,0,1.9,0,2.5.86,3.28,3.44,3.23l.75.2c0,.42,0,.84,0,1.26l-.62,0c-.88-.35-1.76-.85-2.19.6a1.16,1.16,0,0,1-.9.51c-1.33.06-2.67,0-4.3,0Zm2.87-2.78-.52.12c.11,1.95-.15,3.91.52,5.83Z"/><path class="cls-9" d="M373,447.87v5.56h-4.77c-.11-.23-.34-.68-.61-1.24h-1.8l0-.63c2,.59,2-2,3.6-2,0-1.47,0-2.74,0-4,0-.35.39-.67.6-1a.32.32,0,0,0,.09.37v5.6l-1.37.49.07.37h1.83v-6.45l0-.5v-6.24h-4.92l-.57.09c0-.39,0-.77,0-1.16l.62.08h5.83v14.29h.56c0-1.07-.06-2.16,0-3.22,0-.33.46-.62.7-.93Z"/><path class="cls-10" d="M365.31,458.43c-1.47.8-2.61-.11-3.59-.9a22.87,22.87,0,0,1-2.66-3l-1.71,2.24-.4-.47c.29-.46.6-.92.85-1.41,2-3.91-.09-8-4.48-8.91l-.66-.11c.26-.22.52-.63.77-.62a5.52,5.52,0,0,1,4.4,2.41c.47.62.84,1.31,1.24,2,.85-.47.5-2,1.86-1.86-.24.57-.49,1.14-.73,1.72a5.94,5.94,0,0,0,4.6,8.41Z"/><path class="cls-1" d="M373,447.87l-.11-.54c.88,0,1.75-.07,2.62-.07h33.44l-.06.76c-.63-.06-1.26-.15-1.89-.15Q390,447.85,373,447.87Z"/><path class="cls-11" d="M344.37,457.83c-.08.83-.55,1.08-1.32.9a6.49,6.49,0,0,1-3.79-2.3c-.43-.57-.81-1.16-1.33-1.92-.5.66-.9,1.3-1.4,1.85-1.33,1.5-2.81,2.68-5,2.07l.65-.61c2.82-.11,4-2.13,5.07-4.32h1.27a14.92,14.92,0,0,0,1,1.85c1,1.39,2.19,2.52,4.08,2.45Z"/><path class="cls-12" d="M365.31,458.43l-.51-.55c.05-2.43.13-4.86.12-7.29,0-1.55-.16-3.11-.25-4.66l.57-.57a6,6,0,0,1,.43,1.46c.08,1.58.07,3.16.09,4.74l0,.63c0,1.49,0,3-.11,4.48A12.3,12.3,0,0,1,365.31,458.43Z"/><path class="cls-13" d="M344.37,457.83l-.79,0,0-11.84.74-.12.36,5.7c-.67.28-.39.55,0,.82Z"/><path class="cls-14" d="M352.66,445.86l.66.11q0,5.91,0,11.83l-.63.06-.27-5.41c.43-.38.62-.72-.15-.9Z"/><path class="cls-13" d="M332.16,457.82l-.65.61c-.09-2-.17-3.94-.26-5.92l.62,0C332,454.29,332.06,456.06,332.16,457.82Z"/><path class="cls-9" d="M352.23,451.55c.77.18.58.52.15.9l-7.72-.09c-.4-.27-.68-.54,0-.82Z"/><path class="cls-10" d="M352.65,457.86l.63-.06c1.54.27,2.53-.81,3.67-1.51l.4.47c-.89,1.28-2.33,1.57-3.68,2C353,459,352.61,458.6,352.65,457.86Z"/><path class="cls-6" d="M794.28,173.79h-1c0-.64,0-1.28,0-1.92V28.71c0-.72,0-1.44-.06-2.15h1.09c0,.23,0,.47,0,.71q0,44.37,0,88.73a10.63,10.63,0,0,0,.22,1.53h79.9V29.19c0-.88,0-1.76-.07-2.63l.94,0c0,.79.09,1.59.09,2.39q0,43.26,0,86.52c0,3.22,0,3.22-3.32,3.22H794.5a9.51,9.51,0,0,0-.25,1.46Q794.25,147,794.28,173.79Z"/><path class="cls-6" d="M69.82,489.32c1,.07,2.06.19,3.09.19q60.84,0,121.69,0a14.15,14.15,0,0,1,2.63.49q-62.32,0-124.66,0C71.66,490,70.46,490.64,69.82,489.32Z"/><path class="cls-15" d="M287.26,574.06c-.08-.86-.23-1.73-.23-2.6q0-60.86,0-121.71a13,13,0,0,1,.46-2.45q0,45,0,89.9,0,17.13,0,34.28A25,25,0,0,1,287.26,574.06Z"/><path class="cls-15" d="M197.35,574.38c1,0,2.08.07,3.11.07h83.1c1,0,2.05.15,3.08.23a21.07,21.07,0,0,1-2.35.25q-42.28,0-84.57,0C198.93,574.93,197.94,575.41,197.35,574.38Z"/><path class="cls-6" d="M282.27,356.66l-.53.64a5.08,5.08,0,0,1,.15-.52C282,356.75,282.14,356.7,282.27,356.66Z"/><path class="cls-1" d="M27.54,145.05c0,.8-.12,1.59-.12,2.39q0,85,0,170.06c0,.72.05,1.44.07,2.16h-.7q0-86.11,0-172.22c0-.79-.09-1.59-.14-2.38Z"/><path class="cls-5" d="M626.15,134a3.56,3.56,0,0,1,1.09,2.79q-.06,18.47-.06,36.93l-.86,0q0-18.91,0-37.85C626.24,135.28,626.19,134.65,626.15,134Z"/><path class="cls-1" d="M624.19,200.21q.06-6.9.11-13.79c0-3.89,0-7.77,0-11.66l.66.05c0,.6,0,1.2,0,1.81,0,.37,0,.74,0,1.11,0,.88-.07,1.75-.07,2.63q0,19.48,0,39l-.63-.12a.47.47,0,0,0-.1-.32Q624.17,209.55,624.19,200.21Z"/><path class="cls-1" d="M626.28,135.91q0,18.93,0,37.85l-.62-.06,0-37.81Z"/><path class="cls-5" d="M499.07,105.72l.55-.56c.88,0,1.76,0,2.64,0q46.05,0,92.09,0c1.09,0,2.18.22,3.27.33l-.34.33h-.76c-1,.1-2,.27-3.06.27q-45.84,0-91.69,0c-.88,0-1.75,0-2.63,0A1.09,1.09,0,0,1,499.07,105.72Z"/><path class="cls-3" d="M626.28,135.91l-.53,0c-.61-.73-1.16-1.51-1.83-2.18-5-5.05-10-10.06-15.06-15.1a14.54,14.54,0,0,1-1.34-1.85l1.27,0q5.41,5.36,10.82,10.71c2.19,2.19,4.36,4.39,6.54,6.59C626.19,134.65,626.24,135.28,626.28,135.91Z"/><path class="cls-5" d="M608.79,116.72l-1.27,0,0,0-.49-.48h0l-.49-.48h0l-.49-.48h0l-.49-.48h0l-.49-.48h0l-.49-.48h0l-.49-.48h0l-.49-.48h0l-.49-.48h0l-.49-.48h0l-.49-.48h0l-.47-.48h0l-.47-.48h0l-.47-.48h0l-.47-.47h0l-.47-.47h0l-.47-.47h0l-.47-.47h0l-.47-.47h0l-.47-.47h0l-.47-.48h0c-.07-.26-.13-.52-.19-.78l.34-.34Q603.22,111.13,608.79,116.72Z"/><path class="cls-16" d="M285.08,444.49l22.26-.07,18,0V445H285.25l-.2-.12C285.07,444.73,285.07,444.61,285.08,444.49Z"/><path class="cls-13" d="M331.84,438.2l.18,5.33h-.7c-.07-1.77-.14-3.55-.2-5.32Z"/><path class="cls-13" d="M332.19,446c-.11,1.77-.22,3.54-.34,5.32l-.75-.2c.09-1.74.17-3.48.26-5.22Z"/><path class="cls-13" d="M332,431.88l-.18,5.32-.76-.05c.07-1.76.15-3.53.22-5.29Z"/><path class="cls-17" d="M325.4,452.75l0-.71,2.67.18A2.44,2.44,0,0,1,325.4,452.75Z"/><path class="cls-6" d="M371.58,444.39h40.7c.05,7.11.09,14.07.13,21l-.57.15V445H371.58Z"/><path class="cls-12" d="M365.13,437.11c0-1.34-.05-2.69,0-4,0-.95-.45-1.27-1.33-1.16l0-.76,2-.29v6.33Z"/><path class="cls-12" d="M365.21,443.65l-.07-5.38.57-.09c0,1.57,0,3.15,0,4.72a5.87,5.87,0,0,1-.46,1.46Z"/><path class="cls-12" d="M370.61,444.92h-.53a.32.32,0,0,1-.09-.37l.64-.12Z"/><path class="cls-9" d="M338.36,450.66c.05.94.1,1.89.14,2.84h-1.27l0-2.82Z"/><path class="cls-10" d="M364.67,445.93l-2.81.9c.09-1.44,1.57-1,2.33-1.85l-.42-1,1.44-.29v.7c-.25.13-.49.27-.73.41l.76.59Z"/><path class="cls-8" d="M343.55,446c-.85.31-1.7.64-2.57.92a2.32,2.32,0,0,1-.73-.05c.77-1.35,2.1-1.52,3.45-1.58.19,0,.39.38.59.59Z"/><path class="cls-8" d="M203.65,417.55c-.05-1.1-.1-2.2-.17-3.48h-4V402.85H115.28v8.86h-1c0-.47.06-.95.06-1.43q0-24.15,0-48.31c0-.64-.06-1.27-.09-1.91l.41-.54a1,1,0,0,1,.45,0c.06.2.12.4.17.6s-.07.64-.07,1q0,19.76,0,39.52a7.2,7.2,0,0,0,.14,1.09h20.3v-1.79q0-19,0-38.09c0-.55-.07-1.11-.11-1.66l.29-.65.49.05.15.5c0,.48-.08,1-.08,1.43q0,19.39,0,38.79c0,.45.06.91.1,1.47h20.38v-2.4q0-8.37,0-16.76,0-11.25-.06-22.5l.11-.52a.64.64,0,0,1,.47,0l.37.65c0,.4-.09.79-.1,1.19q0,19.39,0,38.78a12.07,12.07,0,0,0,.22,1.62h20.16v-2.41q0-9.34,0-18.68,0-10.29-.07-20.58l.16-.1.73,0,.18,0c0,.47-.09.95-.09,1.43q0,19.54,0,39.08c0,.39.07.77.1,1.11h20.23v-40c0-.55-.08-1.11-.12-1.67l.12,0,.11,0,.69-.05.14,0c0,.32-.07.64-.07,1v50.81a9.9,9.9,0,0,0,.17,1.28h41.48v-2.45q0-18.93,0-37.87c0-4.23,0-8.46-.07-12.69l.12-.53.49,0c.15.16.29.33.44.5,0,.39-.08.79-.08,1.19q0,25.42,0,50.84a5.47,5.47,0,0,0,.14,1h41.38v-1.36q0-24.94,0-49.89c0-.63-.1-1.27-.16-1.9l.11-.09-.05-.13a1.27,1.27,0,0,1,.27-.18h.63c0,.72.1,1.43.1,2.15v50.12c0,.7-.07,1.39-.11,2.3H204.78c-.29,1.46-.54,2.7-.79,3.93Z"/><path class="cls-10" d="M166.93,262.61c.13-.32.19-.83.4-.9a4.77,4.77,0,0,1,1.42,0q36.42,0,72.85,0a11.93,11.93,0,0,1,1.19.1l.1.85v11.76c.5,0,.88.1,1.27.1q19.29,0,38.58,0a8.84,8.84,0,0,0,1.81-.38c.15,0,.31,0,.46,0,.05.55.15,1.1.15,1.65q0,20.28,0,40.57c0,.48-.07.95-.11,1.43h-.7c-.08-.22-.16-.44-.25-.65a9.62,9.62,0,0,0,.13-1.19q0-19.59,0-39.19a10,10,0,0,0-.22-1.48c-6.52,0-13,0-19.42,0a2,2,0,0,0-.64.26H263a5.93,5.93,0,0,0-1.35-.29q-8.87,0-17.71,0a8.06,8.06,0,0,0-1.16.18c0,.63-.07,1.1-.07,1.56q0,19.26,0,38.51c0,.56.09,1.11.14,1.66l-.39.58-.6,0c0-.27-.09-.55-.13-.82s.05-.64.05-1V264.11c0-.45-.07-.91-.09-1.3a2.65,2.65,0,0,0-.59-.19q-19.92,0-39.82,0a3.86,3.86,0,0,0-1.23.46h-.65a5.71,5.71,0,0,0-1.5-.45q-15.18,0-30.36,0Z"/><path class="cls-3" d="M227,479.87c-.24-.42-.67-.83-.68-1.26-.08-2,0-4,0-6v-2.71H221c-1.76,0-3.53.11-5.27,0s-3.09.6-4.79.14-3.49-.1-5.24-.1h-5.33v5.56H213v11.25c4.93.06,9.69,0,14.44,0l14.37,0c0,.27.07.55.11.82-.95,0-1.91.07-2.87.07l-38.81.05-.71,0a.77.77,0,0,1-.36-.18,2.32,2.32,0,0,0-.06-.46c.07-.95.19-1.9.2-2.85,0-5.48.05-11,.08-16.46l.75-.19.18,1.42c3.66,0,7.31,0,11,0,.41,0,.81-.54,1.18-.81.52.29,1,.82,1.57.83,4,.07,8,0,12.21,0V452.22h16.32v6.68c-1-1.18-.66-2.15-.73-3s0-1.73,0-2.72H227.09v25.62Zm-26.7,6.88c4,0,7.83.08,11.62-.05V476.45H200.32Z"/><path class="cls-18" d="M199.18,148l-3.36,0H30.41l-.69-.2c.35-.25.69-.64,1.07-.71A13,13,0,0,1,33,147H196.09l3.12,0Z"/><path class="cls-2" d="M200.11,75h279c6,0,12,0,18,0a5.77,5.77,0,0,1,1.56.46l-.58,0-.67.25-1.66-.16c-.87,0-1.75-.13-2.62-.13q-145,0-290,0c-.95,0-1.91.06-2.87.1Z"/><path class="cls-14" d="M200.11,75l.12.59a.87.87,0,0,0,0,.39c0,.79-.06,1.59-.06,2.39q0,69.79,0,139.59c0,.8,0,1.6.07,2.4,0,.12-.08.24-.11.36l0,.62c-.28-.21-.77-.39-.8-.63a15.74,15.74,0,0,1-.08-2.38q0-33.75,0-67.48c0-1,0-1.91-.08-2.87l0-1c0-1,.06-2.07.06-3.1q0-33,0-66a12.82,12.82,0,0,1,.06-2.15C199.39,75.42,199.84,75.22,200.11,75Z"/><path class="cls-19" d="M199.11,487.06a2.32,2.32,0,0,1,.06.46l-29.49,0q-27.33,0-54.65.06c-13.67,0-27.33,0-41-.07-.55,0-1.1-.06-1.78-.1a9.64,9.64,0,0,1-.21-1.41l0-62.31,1.22.12c-.94.57-.74,1.51-.74,2.37q0,29.23,0,58.46c0,.69.11,1.38.2,2.38h39.87c.73,0,1.47,0,1.79-.83l.82.75,24.85,0h.8c7.2,0,14.39,0,21.59,0,5.2,0,10.39-.05,15.59-.08l.78-.75c.47,1.08,1.43.82,2.27.83Z"/><path class="cls-20" d="M82.15,317.72c-4.72,0-9.43.06-14.15.06H29.68a17.32,17.32,0,0,1-.29-2.23q0-20.26,0-40.53a2.14,2.14,0,0,1,.22-.66l.21.18.58.71v41.59h49.3c.71,0,1.43-.06,2.15-.09Z"/><path class="cls-7" d="M285,487.45c0,.72.07,1.44.07,2.15q0,40.18,0,80.36v2.34a17.92,17.92,0,0,1-1.91.21q-40.78,0-81.57,0c-.69,0-1.92.65-1.94-.93h.44a11.45,11.45,0,0,0,2,.36q40,0,80.06,0c.68,0,1.37-.12,2.29-.2V500c0-4.07,0-8.14,0-12.22Z"/><path class="cls-11" d="M72.08,386.68c0-.19,0-.38,0-.57l.55-.25,24.9.05c.72,0,1.44,0,2.16,0,1.78.05,1.92.18,2,1.89,0,1.11,0,2.23,0,3.35q0,10.29.1,20.58c-.36.33-.73.88-1.08,0V387H73a.55.55,0,0,0-.36,0Z"/><path class="cls-9" d="M199.45,263.06h.65c0,.87.05,1.75.05,2.63q0,24.39,0,48.8c0,.88.05,1.75.08,2.63l-.13.53-.19,0h-.19l-.49-.54c0-1,.14-1.9.14-2.86q0-22.62,0-45.25C199.39,267.05,199.43,265.06,199.45,263.06Z"/><path class="cls-8" d="M263,275.53H264q0,18.89,0,37.76c0,1.27.06,2.54.09,3.82l-.16.59h-.83l-.16-.59c0-.88.09-1.75.09-2.63Q263,295,263,275.53Z"/><path class="cls-21" d="M200.11,571.57h-.44c0-1-.07-1.91-.07-2.87q0-38.94,0-77.88c0-1,0-2.07-.06-3.11l.71,0c0,1-.08,1.91-.08,2.87q0,26.73,0,53.46Q200.15,557.79,200.11,571.57Z"/><path class="cls-6" d="M29.72,147.73l.69.2a11.69,11.69,0,0,0-.12,1.19q0,41.34,0,82.7l-.49.08-.1-.12,0-.48q0-40.35,0-80.7C29.69,149.64,29.71,148.69,29.72,147.73Z"/><path class="cls-9" d="M124.76,317.7h-.2l-.18,0c0-.17-.09-.35-.13-.53,0-.87.08-1.75.08-2.62q0-19.49,0-39l.73,0q0,19.36,0,38.75c0,1,.09,1.91.14,2.86Z"/><path class="cls-22" d="M124.76,317.7l.49-.54h74l.49.54q-16.29,0-32.58,0Q146,317.74,124.76,317.7Z"/><path class="cls-19" d="M72.66,385.86l-.56.25V359.52h42.6l-.41.54q-20,0-40.05,0a8.71,8.71,0,0,0-1.58.27Z"/><path class="cls-9" d="M285,487.45l-.54.28-20.32-.08-22.23-.1c0-.27-.08-.55-.11-.82l.34-1.52c.56,1.22.94,1.87,2.14,1.85,5.9-.1,11.8,0,17.7-.06a4.27,4.27,0,0,0,1.09-.34h.83c.27.12.54.35.82.35q9.84,0,19.69-.07l.6.38Z"/><path class="cls-9" d="M82.15,317.72c-.12-.33-.23-.65-.34-1,0-.48.1-.95.1-1.43q0-20,0-40.05l.21-.23.48,0,.11.1c0,1-.09,1.92-.09,2.88v35c0,1.36.06,2.72.09,4.07l-.14.55A1.13,1.13,0,0,1,82.15,317.72Z"/><path class="cls-19" d="M285,487.31l-.6-.38c0-4.63.08-9.27.08-13.9q0-13.92-.07-27.82l.62-.36.2.12c-.05,1-.14,1.91-.15,2.86v36.85C285.09,485.56,285.05,486.43,285,487.31Z"/><path class="cls-6" d="M200.11,317.66c0-.18.09-.35.13-.53q19.71,0,39.42,0a19.17,19.17,0,0,0,2.12-.26c0,.27.08.55.13.82Z"/><path class="cls-7" d="M284.41,317.76h.64v41.74h-.63c0-.8.1-1.59.1-2.39q0-18.46,0-36.94C284.52,319.35,284.45,318.56,284.41,317.76Z"/><path class="cls-13" d="M284.15,359.66l.05.13-.11.09-24.81.07-16.46.08c-.15-.17-.29-.34-.44-.5q19.34,0,38.67.05C282.08,359.58,283.11,359.63,284.15,359.66Z"/><path class="cls-6" d="M82.56,317.67c0-.18.09-.37.14-.55h41.55c0,.18.08.36.13.53-3.11,0-6.22.09-9.32.08Q98.82,317.73,82.56,317.67Z"/><path class="cls-16" d="M241.89,359.55l-.12.53-41.51,0-.14,0a1,1,0,0,0,0-.47Z"/><path class="cls-16" d="M72.08,386.68l.54.24a.43.43,0,0,0,.06.38c0,1.66-.11,3.33-.11,5,0,6.35.07,12.7.11,19a.55.55,0,0,0-.07.45l0,1,0,10.31-.5.19Q72.09,405,72.08,386.68Z"/><path class="cls-21" d="M498.08,75.51l.58,0c0,6.12,0,12.24.07,18.36,0,4,.22,7.93.34,11.89a1.09,1.09,0,0,0,.07.4l-.9.09c0-1.43-.08-2.86-.08-4.29q-.06-13-.09-26A.89.89,0,0,0,498.08,75.51Z"/><path class="cls-6" d="M262.92,317.1l.16.59-20.57,0,.39-.58Z"/><path class="cls-22" d="M157.79,360.16l-.37-.65h20.73c0,.16,0,.32,0,.47l-.16.1Z"/><path class="cls-16" d="M157,359.55c0,.17-.07.35-.11.52l-20.33,0-.15-.5Z"/><path class="cls-20" d="M135.87,359.49c-.09.22-.19.43-.29.65l-20.26,0c0-.2-.11-.4-.17-.6Z"/><path class="cls-22" d="M29.6,253.06q0-8.38.1-16.76c0-1,0-1.91,0-2.87l.08-.61.55.07q0,10.14,0,20.28Z"/><path class="cls-16" d="M179,359.53l20.35,0c0,.16.08.33.11.5l-.11,0-.12,0H179.08l-.18,0C178.92,359.87,179,359.7,179,359.53Z"/><path class="cls-6" d="M263.91,317.69c0-.2.11-.4.16-.59h20c.09.21.17.43.25.65Z"/><path class="cls-9" d="M72.09,423.29l.5-.19H91.67l.55.12-.82.64H73.3l-1.22-.12A.73.73,0,0,1,72.09,423.29Z"/><path class="cls-16" d="M29.65,274.19q0-9.88,0-19.78l.59,0,0,19.64Z"/><path class="cls-20" d="M29.82,232.82l-.08.61c-.12-.53-.24-1.05-.35-1.58a1,1,0,0,0,.33-.07l.1.12Z"/><path class="cls-20" d="M30.26,254.43l-.59,0-.12-1.15a2.11,2.11,0,0,1,.23.19l.57.59A.66.66,0,0,1,30.26,254.43Z"/><path class="cls-23" d="M179,359.53c0,.17-.05.34-.07.5l-.73,0c0-.15,0-.31,0-.47Z"/><path class="cls-23" d="M199.43,360.05c0-.17-.07-.34-.11-.5l.85,0a1,1,0,0,1,0,.47Z"/><path class="cls-20" d="M29.65,274.19l.64-.12.4.41-.91.07-.21-.18Z"/><path class="cls-20" d="M29.6,253.06l.75.11,0,0-.53.24a2.11,2.11,0,0,0-.23-.19Z"/><path class="cls-18" d="M29.72,231.78a1,1,0,0,1-.33.07l.29-.55C29.69,231.46,29.7,231.62,29.72,231.78Z"/><path class="cls-8" d="M815,262.54a3,3,0,0,1,.1-.77,15.18,15.18,0,0,1,1.91-.09h62v-9l.68-.12c0,6.6.09,13.19.13,19.85h8.13V209.45h-8.19v19.92L879,229v-8.93l-8.59-.06H793.12V180.37c0-.88,0-1.75-.07-2.63l.3-1a1.09,1.09,0,0,1,.36,0c.07.31.15.62.22.92s-.08.8-.08,1.2q0,19.29,0,38.59v1.71h21c0-.74.11-1.37.11-2q0-18.94,0-37.87c0-.56-.08-1.11-.12-1.67l.23-.84.68-.05.18.92c0,.4-.07.8-.07,1.2v38.61c0,.55.06,1.11.09,1.71h20.54V179.32c0-.56-.07-1.11-.11-1.67l.09.1.11-.05.74,0,.16,0c0,.79-.08,1.59-.08,2.39q0,18.33,0,36.65c0,.8.06,1.6.09,2.39l0,.17h41.49V178l.41-.71.41.46v30.7h35.84c1.91,0,3.83,0,5.74-.08l.82.2c0,.23,0,.47,0,.71l-.92.18c-10.83-.13-21.66,0-32.44-.06v30.9a2.12,2.12,0,0,0,.55.18l31.89,0,.92.18c0,.12,0,.24,0,.35l-.89.49c-2.64,0-5.27-.09-7.9-.09q-12.22,0-24.43.08l-.24.47v30.37a4.2,4.2,0,0,0,.84.23l31.65-.05,1,.28a1.38,1.38,0,0,1,0,.35l-.94.24c-.32,0-.63-.08-1-.08H881.62c-.54,0-1.07,0-1.69.08a8.26,8.26,0,0,0-.17,1.05q0,15,.06,29.93l-.32.48h-.19l-.35-.49V262.71H837.42v2.5c0,7.35,0,14.71,0,22.06q0,8.5.07,17c0,.17-.07.33-.1.49h-.87c0-.16-.07-.32-.11-.48,0-.64.1-1.28.1-1.91V264.51c0-.62-.07-1.23-.1-1.91h-20.5Z"/><path class="cls-8" d="M530.84,306.38v10.47h134c.56,0,1.11-.07,1.67-.1l.89.26c0,.21,0,.43,0,.64l-.93.2c-.32,0-.64-.06-.95-.06H605.21c-.45,0-.9.08-1.45.13v8.26l.06,33.28-.07.53-.87,0c0-.16-.08-.32-.11-.48a8,8,0,0,0,.12-.95V319a7.78,7.78,0,0,0-.14-1.08H540v2.75q0,15.59,0,31.16c0,2.56,0,5.11.08,7.67L540,360l-.83-.06c0-.16-.08-.32-.11-.47,0-.4.13-.79.13-1.19q0-19.53,0-39.08a10,10,0,0,0-.21-1.42H455.81c.07-.44.08-.58.09-.58l40.55-.52c0-1.56,0-3.06,0-4.56.05-2,.16-4,.24-5.95l.43,0,.28.57v10h32.36V306.38Z"/><path class="cls-8" d="M667.16,249.05c.72,0,1.44-.06,2.16-.06H773.61v12.64l19.17.13c0,.27,0,.54,0,.81H773.66c0,4.09,0,7.83,0,11.57q0,15.08.07,30.16l-.1.5-.85,0a1,1,0,0,0-.13-.45c0-.4.11-.79.11-1.19q0-25.65,0-51.3c0-.62-.09-1.24-.14-1.95H707.86v2.64q0,14.63,0,29.25,0,11.26.06,22.53h-.82l-.21,0a3.93,3.93,0,0,0,.06-.48q0-26.32,0-52.65a8.13,8.13,0,0,0-.22-1.34H667.59Z"/><path class="cls-11" d="M745.81,177.71c0,1.76-.07,3.51-.07,5.27v49.77H684.67c-.15,1.06-.28,1.93-.41,2.79l-.36,0a10.63,10.63,0,0,1-.33-1.23,14.51,14.51,0,0,1-.09-1.49h-56c-.88,0-1.75,0-2.63-.06,0-.31,0-.63-.05-.95H625c.24,0,.48,0,.72,0h39.75a6.07,6.07,0,0,0,1.15-.22v-2.75q0-22.5,0-45c0-2.07,0-4.14-.06-6.22l0-1h1c0,.33,0,.66,0,1s-.09.8-.09,1.19q0,25.78,0,51.55c0,.45.09.9.13,1.33h77.13V229q0-20.75,0-41.48c0-3.28,0-6.55-.07-9.83.07-.31.13-.62.19-.93h.7Z"/><path class="cls-9" d="M444.43,465.6c.2.2.56.37.58.59a17.1,17.1,0,0,1,.07,2.15V539.1c1,0,2,.12,2.88.12q49.29,0,98.58,0c.85,0,1.71-.16,2.57-.24l.83,0a11.55,11.55,0,0,0,1.83.27q14.1,0,28.19,0c.55,0,1.1-.11,1.65-.16l.86.42a1.71,1.71,0,0,0,0,.32l-.86.25c-.39,0-.79-.09-1.19-.09H530.34a12.27,12.27,0,0,0-1.66.22v2.28q0,13.54,0,27.08c0,.8.08,1.59.13,2.38l-.42.56h-.23l-.23,0c0-.17-.07-.34-.1-.51q0-15.67,0-31.35c0-.14-.11-.28-.23-.54-.23,0-.53-.08-.83-.08q-30.18,0-60.34,0a6.46,6.46,0,0,0-1.51.39h-.8a6.34,6.34,0,0,0-1.51-.39c-5.43,0-10.87,0-16.31,0a8.45,8.45,0,0,0-1.22.21v31.72h-.78q0-20.62,0-41.24a6.75,6.75,0,0,0-.21-1.2H415c-.88,0-1.75.08-2.63.12l-.59-.3a1.29,1.29,0,0,1,0-.39l.53-.17c.48,0,.95.1,1.43.1h29.25c.38,0,.75-.06,1.22-.1V497.56h-29c-1,0-1.91.08-2.87.12l-.49-.16v-.77l.5-.13c.4,0,.8.08,1.19.08h29.76c.29,0,.59,0,1-.07V466.56Z"/><path class="cls-11" d="M411.8,360.08c0-.79-.07-1.59-.07-2.39q0-46.6,0-93.22v-2.7h85.82v4c.84,0,1.53.11,2.21.12,3.28,0,6.55,0,9.83,0,.63,0,1.41,0,.86,1h-8.66l-.83,0h-3.46c0,1.65,0,3.15,0,4.64q.08,6.31.16,12.62l-.16-.05-.71,0c0-7.16-.08-14.31-.11-21.41h-84v2.5q0,45.9,0,91.81c0,.8.05,1.59.07,2.39l-.12.58-.15.14Z"/><path class="cls-15" d="M879.87,177.72l-.41-.46-.41.71a22.66,22.66,0,0,0-2.58-.3q-19.49,0-39,0l-.16,0v-.92c.88,0,1.75,0,2.63,0h79.14c3.24,0,3.24,0,3.24,3.3v25.89c0,.88-.06,1.76-.08,2.64l-.82-.2-.12-30.16c0-.06-.07-.13-.12-.19s-.12-.11-.36-.33H910.76Z"/><path class="cls-11" d="M549.16,467c0-2.21-.11-4.43-.1-6.64,0-5.63.06-11.25.1-16.88l.76,0a7.33,7.33,0,0,0,1.54.37c2.39,0,4.79,0,7.18,0l23-.08.83.21c0,.22,0,.45,0,.67l-.81.27a7.52,7.52,0,0,0-.94-.11H551.21a7.26,7.26,0,0,0-1.07.15v20.47H581.6l.88.23c0,.21,0,.43,0,.64l-.86.26L550,466.51Z"/><path class="cls-8" d="M549.16,467l.88-.45v30.1H581.6l.87.21a2.2,2.2,0,0,0,0,.36l-.43.44-.47.06H549.94v41.26l-.83,0c0-2.71,0-5.42,0-8.13V469.59C549.08,468.71,549.13,467.84,549.16,467Z"/><path class="cls-8" d="M549.92,443.47l-.76,0V435.3h-49c-.88,0-1.76,0-2.64-.05,0-.17.07-.34.1-.51l.51-.28c.87,0,1.75-.06,2.63-.06h48.28v-2.49c0-6,0-12,0-18,0-3.75-.06-7.5-.1-11.25l.09-.54.87.05c0,.18.09.35.13.53,0,1-.07,1.91-.08,2.87Z"/><path class="cls-15" d="M667.61,177.68c0-.33,0-.66,0-1l74.22,0c1,0,2.07,0,3.11,0-.06.31-.12.62-.19.93Z"/><path class="cls-3" d="M497.66,434.74c0,.17-.07.34-.1.51l-36.38.05c-1.83,0-3.67,0-5.5,0a3.88,3.88,0,0,1-1.21-.45H455l.45-.36,8.85-.07,11.24-.14.64,0a.82.82,0,0,1,.39.18l.47.07h19.22l.42-.23,0-31.49,0-.64,1,0v.59c0,5.1-.07,10.21-.07,15.31,0,5.42.06,10.85.09,16.27A.64.64,0,0,0,497.66,434.74Z"/><path class="cls-15" d="M550.06,402.73c0-.18-.09-.35-.13-.53a15.11,15.11,0,0,1,2.3-.38q13.78,0,27.58,0H581c1.12,0,1.57.58,1.53,1.65,0,.24,0,.48,0,.72q0,19.43,0,38.85c0,.31,0,.63-.07,1l-.83-.21v-41Z"/><path class="cls-16" d="M603.75,360c0-.17,0-.35.07-.53h62.71V317.85l.93-.2q0,9.45.07,18.92,0,10.29,0,20.6c0,.85-.09,1.7-.14,2.65-.75.08-1.28.19-1.82.19Z"/><path class="cls-7" d="M667.44,317l-.89-.26V271.23l.89-.29c0,.95.08,1.91.08,2.87V304.3h39.37l.21,0c0,.17,0,.33,0,.49l-36.33,0h-3.16C667.54,309,667.49,313,667.44,317Z"/><path class="cls-19" d="M412.6,360l.12-.58c1,0,1.92.06,2.88.06h64.47l59,0c0,.15.07.31.11.47-1.12,0-2.24.06-3.35.06Z"/><path class="cls-20" d="M745.81,177.71l-.21-.94c5,0,9.92-.07,14.88-.07l32.87,0-.3,1c-1.36,0-2.72-.08-4.08-.08Z"/><path class="cls-15" d="M666.53,176.68l0,1-28.65,0c-4.3,0-8.6.05-12.89.07,0-.37,0-.74,0-1.11,2.71,0,5.42.08,8.12.08Z"/><path class="cls-9" d="M815,262.54l.91.06q0,14.86-.06,29.72c0,4,0,8,.07,12a1.09,1.09,0,0,0-.09.47l-.51,0-.24-.53-.16.05a4.1,4.1,0,0,0,.12-.7Q815,283.08,815,262.54Z"/><path class="cls-22" d="M581.61,497.68l.47-.06.33.6c0,9.88.06,19.76.07,29.65,0,3.5-.05,7-.07,10.52l-.84.65c0-1,.12-1.91.12-2.86q0-15.07,0-30.14C581.69,503.26,581.64,500.47,581.61,497.68Z"/><path class="cls-11" d="M444.43,465.6l-.07,1c-5.33,0-10.65-.1-16-.1s-10.65.07-16,.1l-.57-.17v-.81l.57-.15,28.92.08C442.36,465.51,443.4,465.57,444.43,465.6Z"/><path class="cls-2" d="M772.65,304.31a1,1,0,0,1,.13.45c-6.06,0-12.12.05-18.18.05l-46.87,0c0-.17,0-.34,0-.5h.18Z"/><path class="cls-18" d="M581.61,540.05l.86-.25c0,2.56.1,5.11.1,7.66q0,11,0,22.06a20.32,20.32,0,0,1-.31,2.56l-.76-.22c0-.63.13-1.27.13-1.9Q581.64,555,581.61,540.05Z"/><path class="cls-8" d="M464.16,540.36h.8q0,5,.08,10,0,10.75.08,21.51l-.13.57h-.8c-.06-.2-.11-.41-.17-.62,0-2.86.05-5.73.06-8.59Q464.13,551.81,464.16,540.36Z"/><path class="cls-10" d="M450.63,426.62H443l0-.93v-4.87H417.52c0-3.14,0-6.09,0-9s0-6.06-.07-9.09l.12-.57a.52.52,0,0,1,.44,0l.17.59c0,2.95-.07,5.91-.09,8.87s0,5.84,0,8.85H443.6v5.73c1.82,0,3.32,0,4.82,0a8,8,0,0,0,1.69-.47Z"/><path class="cls-20" d="M921.43,241.43l.89-.49q0,15.9,0,31.78l-1-.28c0-.48.1-.95.1-1.43Q921.44,256.22,921.43,241.43Z"/><path class="cls-18" d="M921.38,273.31l.94-.24q0,15.12,0,30.25a4.81,4.81,0,0,1-.48,1.46l-.52-.51Z"/><path class="cls-7" d="M465,572.47c0-.19.09-.38.13-.57l62.71,0c0,.17.07.34.1.51-.55,0-1.11.07-1.67.07H466.42C466,572.52,465.47,572.48,465,572.47Z"/><path class="cls-16" d="M540,360c0-.17.07-.35.11-.53h62.68c0,.16.07.32.11.48-6.85,0-13.71,0-20.57,0Z"/><path class="cls-18" d="M921.39,209.42l.92-.18v31.35l-.92-.18Z"/><path class="cls-18" d="M582.47,496.82l-.87-.21V466.56l.86-.26c0,2.78.12,5.56.11,8.34C582.56,482,582.51,489.43,582.47,496.82Z"/><path class="cls-19" d="M581.49,571.86l.76.22a5.83,5.83,0,0,1-1.51.43l-52.35,0,.42-.55h48.61C578.78,571.93,580.13,571.89,581.49,571.86Z"/><path class="cls-19" d="M464,571.86c.06.21.11.42.17.62H412.28c0-.27.08-.54.11-.81a7.55,7.55,0,0,0,1.39.26q15.29,0,30.56,0h.78Z"/><path class="cls-21" d="M497.7,402.73v-.59h51.36c0,.18-.06.36-.08.54-7.51,0-15,0-22.53,0Q512.08,402.68,497.7,402.73Z"/><path class="cls-20" d="M412.39,571.66c0,.27-.07.54-.11.81a4.58,4.58,0,0,1-.5-1.44q0-20.88,0-41.76l.59.3Q412.4,550.62,412.39,571.66Z"/><path class="cls-9" d="M793.86,262.6q0,19.9-.05,39.79c0,.64.06,1.28.09,1.91l-.12.48h-.57c-.05-.16-.1-.32-.14-.48,0-.88.1-1.75.1-2.63q0-15.57,0-31.14c0-2.63-.06-5.27-.09-7.9Z"/><path class="cls-21" d="M411.8,360.08l.65.08c0,.55-.11,1.11-.11,1.66v38.46c0,.55.08,1.11.12,1.66l-.21.26h-.48Z"/><path class="cls-15" d="M793.93,177.68c-.07-.3-.15-.61-.22-.92l21.39.05c-.08.28-.15.56-.23.84Z"/><path class="cls-2" d="M921.35,304.27l.52.51H879.5c.11-.16.21-.32.32-.47Z"/><path class="cls-2" d="M837.4,304.78c0-.16.07-.32.1-.49H879l.35.49Z"/><path class="cls-15" d="M816,177.68l-.18-.92,20.81,0c0,.31,0,.61,0,.92l-.11.05-.09-.1Z"/><path class="cls-18" d="M582.48,465.66l-.88-.23q0-10.26,0-20.51l.81-.27c.06,3.1.14,6.2.15,9.31C582.58,457.86,582.51,461.76,582.48,465.66Z"/><path class="cls-21" d="M418.18,402.72l-.17-.59h36.41c0,.22-.06.44-.08.66-.4,0-.8-.11-1.2-.11Z"/><path class="cls-1" d="M476.17,434.23l-.64,0,0-31.48.06-.62h.57l.08.64Q476.18,418.5,476.17,434.23Z"/><path class="cls-21" d="M412.38,528.71l-.53.17q0-15.68,0-31.35l.49.16Q412.38,513.2,412.38,528.71Z"/><path class="cls-21" d="M411.84,466.39l.57.17q0,15,0,30.07l-.5.13Z"/><path class="cls-2" d="M793.78,304.78l.12-.48h21l.16-.05-.15.55Z"/><path class="cls-21" d="M475.56,402.15l-.06.62-20.46,0,0-.59Z"/><path class="cls-21" d="M476.21,402.78l-.08-.64,20.54,0,0,.64Z"/><path class="cls-2" d="M815.84,304.77a1.09,1.09,0,0,1,.09-.47h20.49c0,.16.07.32.11.48Z"/><path class="cls-2" d="M793.07,304.3c0,.16.09.32.14.48H773.63c0-.16.07-.33.1-.5Z"/><path class="cls-1" d="M455,402.16l0,.59q0,3.27-.07,6.53l-.64-.44v-6l.09-.66Z"/><path class="cls-21" d="M417.57,402.14l-.12.57h-4.72l-.48-.52.21-.26Z"/><path class="cls-11" d="M836.61,177.7c0-.31,0-.61,0-.92l.75,0c0,.31,0,.62,0,.92Z"/><path class="cls-18" d="M581.57,539l.84-.65.06,1.1-.86-.43Z"/><path class="cls-18" d="M582.41,498.22l-.33-.6.43-.44C582.48,497.53,582.44,497.87,582.41,498.22Z"/><path class="cls-11" d="M707.74,304.28c0,.16,0,.33,0,.5l-.65,0c0-.16,0-.32,0-.49Z"/><path class="cls-12" d="M814.94,304.81l.15-.55.24.53-.19.07Z"/><path class="cls-10" d="M596.55,109.75c-.71-.07-1.42-.2-2.13-.2q-31.89,0-63.78,0h-1.75v7.7h47.75a3,3,0,0,1,0,.63c0,.06-.09.14-.13.14H527.94v-8.36H508.82v69.25h11c.12.76.21,1.3.3,1.84.14.06.29.2.43.18,1.66-.23,2.77.55,3.92,1.71q10.43,10.59,21,21c1.16,1.13,2,2.22,1.61,3.85l1.84,1.32h-2.84l-1.33,0-.62,0-1.4.08c0,3.26,0,6.36,0,9.46a3,3,0,0,0,.45,1l-.48.52h-.43l-.09-.74V208.78l-1.72.16-.66-.07-1.39.07c0,3.26,0,6.36,0,9.45a3,3,0,0,0,.43,1l-.48.52H538l-.06-.67V208.9h-8l-.52-.07-10.12-10.12-.07-.53,0-8,0-.64,0-1.29c0-.36,0-.71,0-1.07l-.06-1.27H508.77v1.27c0,.36,0,.71,0,1.07l0,1.3,0,.64,0,8-.07.49a7.47,7.47,0,0,1-.47-1.86c0-6.15,0-12.29,0-18.44l0-46.69-.09-.73v-1.58l.08-.74-.39-1.43c0-.12,0-.24,0-.36l.43-1.43c0-.37,0-.73,0-1.09V123h-3.77v-.51h3.76V121.1c0-.35,0-.71,0-1.07l-.43-1.43c0-.12,0-.24,0-.36l.56-1.53h-4c-1.14.65-1.19.88-.49,2.4l.12,1a6.24,6.24,0,0,0,0,5.31l-.12.95a2.84,2.84,0,0,0,.05,3.36v.95c-.71.47-.4.76.17,1-.79.15-1.58.35-2.38.43s-1.7,0-2.55.06l-.93-.12,0-.86.94-.1h3.7v-1.32c0-.36,0-.72,0-1.08v-1.33h-3.72l-.36-.21.35-.37h3.7v-1.31c0-.23-.08-.47-.11-.7,0-.51.06-1,.12-1.87l-4.13.62.42-1h3.69v-1.31l0-.68.09-1.27,0-1.1v-1.34h-3.73l-.91-.06a1.13,1.13,0,0,1,0-.41l.91-.41,8.66.09.45-.68V110l-.48-.48-8.59,0-.64-.59h95.22a21.31,21.31,0,0,1,2.4.08C596.29,109.09,596.41,109.51,596.55,109.75Zm-87.8,71.19,0,.65,0,1.3,0,1.06v1.26h10.44V184c0-.35,0-.7,0-1.06s0-.86,0-1.29c0-.21,0-.41,0-.62v-1.32h-10.5Zm19.3,7.1c-2.35,2.75-4.82,5.64-7.31,8.53a1.47,1.47,0,0,0,.12,2.29c2.84,2.8,5.65,5.63,8.47,8.46.8.8,1.49.7,2.21-.15,2.45-2.9,4.93-5.79,7.19-8.45C535.11,195.09,531.62,191.61,528.05,188Zm4.13,19.73h14.17c-.22-1-.15-2-.65-2.56-1.9-2.11-4-4.05-6.07-6.14Zm-4.48-20.69c-1.42-1.41-2.77-2.64-4-4a2.91,2.91,0,0,0-3.47-.94c0,2.2,0,4.42,0,6.63s0,4.32,0,7Z"/><path class="cls-11" d="M622.85,200.31h-8.48V151.4l.3-.08a4.11,4.11,0,0,1,.45,1.12,15.16,15.16,0,0,1,0,1.91v44.88h7.29l.22.08.22-.06.5.29.09.66h-.1Z"/><path class="cls-1" d="M498.2,107.05l0-.84.9-.09c.88,0,1.75,0,2.63,0q45.84,0,91.69,0c1,0,2-.17,3.06-.27v.76q-15.67,0-31.35,0-32,0-63.92,0A26.15,26.15,0,0,0,498.2,107.05Z"/><path class="cls-2" d="M623.38,199.54l-.5-.29a.77.77,0,0,0-.07-.47c0-.8.08-1.59.08-2.39q0-28.8,0-57.6c0-.95-.12-1.9-.19-2.85.22.17.6.32.62.51a19.41,19.41,0,0,1,.06,2.16Z"/><path class="cls-14" d="M498.2,116.27c0-2.47,0-5,0-7.42a.39.39,0,0,1,.35.13l.64.59,0,6.29Z"/><path class="cls-3" d="M596.52,106.64v-.76h.76c.06.27.12.53.19.79Z"/><path class="cls-3" d="M607.06,116.26l.49.48Z"/><path class="cls-3" d="M606.58,115.78l.49.48Z"/><path class="cls-3" d="M606.1,115.3l.49.48Z"/><path class="cls-3" d="M605.62,114.82l.49.48Z"/><path class="cls-3" d="M605.14,114.34l.49.48Z"/><path class="cls-3" d="M604.66,113.86l.49.48Z"/><path class="cls-3" d="M597.47,106.67l.47.48Z"/><path class="cls-3" d="M598,107.15l.47.47Z"/><path class="cls-3" d="M598.43,107.63l.47.47Z"/><path class="cls-3" d="M598.91,108.11l.47.47Z"/><path class="cls-3" d="M599.39,108.59l.47.47Z"/><path class="cls-3" d="M601.31,110.5l.47.48Z"/><path class="cls-3" d="M601.79,111l.47.48Z"/><path class="cls-3" d="M602.26,111.46l.49.48Z"/><path class="cls-3" d="M602.74,111.94l.49.48Z"/><path class="cls-3" d="M603.22,112.42l.49.48Z"/><path class="cls-3" d="M603.7,112.9l.49.48Z"/><path class="cls-3" d="M604.18,113.38l.49.48Z"/><path class="cls-3" d="M599.87,109.07l.47.47Z"/><path class="cls-3" d="M600.35,109.55l.47.47Z"/><path class="cls-3" d="M600.83,110l.47.48Z"/><path class="cls-10" d="M624.87,219.33l0,2-.59,0c-.16-.46-.31-.93-.47-1.39l.56-.59-.1-.15Z"/><path class="cls-8" d="M370,402.61c-.55,0-1.11.09-1.66.09H328.3c-.48,0-1,0-1.43-.07l-.1-1q0-20,0-40.06a7.91,7.91,0,0,0-.2-1.26h-18v41.34l-.49.48c0-4.55-.07-9.09-.07-13.64,0-8.85,0-17.71,0-26.56q-.06-21.18-.17-42.35a27.34,27.34,0,0,1,.27-2.83l.5,0h18.13V261.93a6.2,6.2,0,0,1,1.2-.24h40.52a5.74,5.74,0,0,1,.71.09l.76.32v12.31c.8.07,1.4.17,2,.17,4.87,0,9.73,0,14.6,0a6.7,6.7,0,0,1,1.65.43l-.53,0H370.2v41.68h18.08c.08.79.23,1.57.23,2.35q0,19.49,0,39a20.7,20.7,0,0,1-.27,2.34h-.43a4.47,4.47,0,0,0-.92-.2q-7.92,0-15.83,0a5.28,5.28,0,0,0-1,.21v2.47q0,16.31,0,32.6c0,2.16.05,4.32.08,6.47Zm-.68-43.23h18.28V317.81H369.35V262.73H327.61c0,18.3,0,36.44,0,54.59,0,.06-.08.13-.14.19l-.32.33H308.87v41.65h18.84v42.2h41.62Z"/><path class="cls-3" d="M145.05,238.64q0,11.42-.05,22.83a9.15,9.15,0,0,1-.08,1.89c0,.23-.55.37-.85.55,0-.3-.07-.6-.1-.9v-3.18H132.11l0-1.21c2,.06,4,.14,6,.16s3.92,0,6-.06c0-8.89,0-17.44,0-26a5.59,5.59,0,0,0-.73-1.81c.2-.43.72-1,.72-1.62,0-3.12-.06-6.23-.12-9.34l0-.62v-3.66c-6.33.07-12.46-.11-18.83.13l.26,3.54-1.5.05a3.27,3.27,0,0,0,.41-1.05q0-6.69,0-13.37c0-.12-.18-.24-.25-.32h-10.1c0,4.81,0,9.49,0,14.16,0,.19.23.39.36.58h-1l0,0-.53-.55-.15-1.48h-10c-.4.52-.65,1,.23,1.32l9.93.16a3,3,0,0,1,.14.39l-.11.19c-1.67,0-3.34,0-5,0-1.52,0-3,0-4.54,0-.86,0-1,.49-.63,1.4h10.2v.56H102.24c.21.69.34,1.09.46,1.49q0,.38,0,.75l-.35,1.48H112.8v.56c-1.51,0-3,0-4.54,0s-3.34,0-5,0c-.85,0-1.1.45-.63,1.4h10.18l0,.67-9.93.06-.6,1.3-.39.4q0-18.57,0-37.13a5.42,5.42,0,0,1,.21-1.05h54.05v1.83l0,41.18a12.69,12.69,0,0,0,.08,2.14c0,.24.52.4.79.59l-1.35.82a1.59,1.59,0,0,1-.2-.24v-1.28H145.07v1.23Zm-31.43-34.79.63-.16h9.6l.49,0h.94l.5,0h17.74l.5,0h.87l.18.94v1.25h10.38v-1.27l0-1.06v-1.81l-.06-.7V191.8c-3.67-.5-51.3-.33-52.88.14V201l-.13.75-.09,1.3.08,1.57v1.21h10.47l-.08-1.29Zm41.86,19.93v-1.09l-.07-1.25H145.12c0,.46-.06.85-.08,1.23v1.12l.08,1.24h10.29Zm-42.66-15.89c.14-.66.22-1.38-.71-1.39-3.2,0-6.41,0-9.87,0l.47,1.5v.76l-.37,1.52c3.32,0,6.31,0,9.3,0,1,0,1.47-.4,1.18-1.44Zm42.66-.07-.07-1.25H145.12L145,207.8v1.12l.08,1.23h10.29c0-.48.05-.86.07-1.25Zm-30.14-3.2v10.25h18.52V204.62Zm19.78,8.25v1.66c3.22,0,6.32,0,9.42,0,1.28,0,1-.82.77-1.64Zm10.26,19.2H145.13v1.64h9.42C155.4,233.7,155.65,233.22,155.38,232.07Zm-10.18-4.32c-.31.93-.33,1.63.75,1.64,2.88,0,5.75,0,8.63,0,1.06,0,1.09-.7.72-1.64Zm10.18-10.55H145.13v1.64h9.42C155.4,218.83,155.65,218.34,155.38,217.2Zm-42.82-2.67c.35-1.11.29-1.76-.76-1.77-2.77,0-5.55,0-8.32,0-.39,0-.76.54-1.14.83.37.3.74.87,1.13.87C106.47,214.56,109.47,214.53,112.56,214.53Zm42.81,15.6h-10.2c-.28.86,0,1.24.71,1.24h8.82C155.49,231.35,155.59,230.87,155.37,230.13Zm-10.89-13.79h10.9c.23-.86,0-1.24-.75-1.24-2.94,0-5.88,0-8.81,0C145.5,215.15,145.19,215.68,144.48,216.34Zm.38,3.94.43.4h10.14l.22-.44c-.33-.27-.65-.79-1-.79-2.95-.07-5.89-.07-8.84,0C145.5,219.46,145.19,220,144.86,220.28Zm10.86-8.22c-.35-.59-.55-1.22-.76-1.22q-4.67-.1-9.31,0c-.24,0-.46.65-.85,1.23Zm-53.14.1c3.15,0,6.4,0,9.64,0,.25,0,.48-.63,1-1.37h-9.86C102.59,210.76,102.14,211.05,102.58,212.16ZM144.92,235l.18.56h10.33l.22-.45c-.33-.27-.65-.78-1-.79-2.94-.06-5.88,0-8.83,0C145.52,234.32,145.22,234.76,144.92,235Zm10.73-8.76-.4-.47H145.1c.08.7.4,1.24.72,1.25,2.94.06,5.89.06,8.83,0C155,227,155.32,226.51,155.65,226.24Zm-53-9.86h10c.28-.78.16-1.26-.62-1.26-2.93,0-5.86,0-8.8,0C102.52,215.13,102.38,215.6,102.67,216.38Z"/><path class="cls-1" d="M649,271.21v35.06H560.49v-35l.57-.15v13a4.3,4.3,0,0,0,1,.34c8.07,0,16.14,0,24.21,0,.53,0,1-.56,1.55-.85.22.22.55.79.88.8,3.33.07,6.65,0,10,0V278c-3.32,0-6.5,0-9.67,0-.51,0-1,.62-1.52,1v-2.44a6.7,6.7,0,0,0,2,.75c2.23.09,4.48.05,6.71,0,.85,0,1.69-.06,2.5-.09v-6.35c-3.36,0-6.54,0-9.72.05-.47,0-.92.63-1.41,1-.13-1.25-1.11-1-2-1H573.82c-.61,0-1.22-.09-1.94-.15,0-1.18,0-2.21,0-3.23-.07-1.66-.19-3.31-.29-5l0-.76,1,0c0,.29,0,.59.05.88v7.56c4.79,0,9.4,0,14,0,.39,0,.78-.63,1.16-1,.19.28.39.87.6.87,3.41.06,6.81,0,10.46,0-.18-2.61.49-5.1-.37-7.57.41-.66.74-.49,1,.1v21.59h48.88V271Zm-54.43,20v-6.09c-3.07,0-5.85.05-8.63,0-1.09,0-2,.12-2.43,1.43-.28-.62-.43-1-.57-1.29H561.4c-.5,2.79-.39,18.62.14,20.34h21.27l.56-1.05c.57.42,1,1.05,1.48,1.06,3.16.09,6.33.05,9.54.05v-6.44h-7.51c-1.3,0-2.7-.34-3.65,1.36v-3.16c.45,1.56,1.68,1.09,2.66,1.11,1.36,0,2.72,0,4.07,0s3-.05,4.56-.08v-7.23Zm29.64,14.35V285.14c-8.3,0-16.46-.08-24.57.08v20.36Zm24.15,0c0-6.85,0-13.57,0-20.25H625v20.25Zm-53.07-.05h3.47V285.26h-3.47Z"/><path class="cls-9" d="M140.9,487h-.8q0-20.38,0-40.78a6.19,6.19,0,0,0-.19-1.06H115.25V487l-.82-.75q0-20.44,0-40.88c0-3.35-.08-6.69-.13-10l.54-.91a.58.58,0,0,0,.26.06l.2.88v8.85a3.59,3.59,0,0,0,.72.18l83.18,0c0,.25,0,.5,0,.75H179v21.66h20.25l.88.09v.7l-.76.19a7.76,7.76,0,0,0-1.16-.18H180.09a10.44,10.44,0,0,0-1.23.17v18.49l-.78.75v-19.5H161V445.23H141c-.05.67-.11,1.21-.11,1.75Q140.87,467,140.9,487ZM178,466.75V445.18H162v21.57Z"/><path class="cls-9" d="M511.64,529.88l-1-.09a1,1,0,0,0,0-.42c.07-.65.14-1.3.21-2H483.39v1.84l-.06.64-1-.09a1,1,0,0,0,0-.42c.07-.65.13-1.3.21-2h-27.5v1.94l-.05.61c-.23-.15-.61-.25-.65-.44a6.7,6.7,0,0,1-.06-1.42q0-19.71,0-39.42c0-.55.11-1.1.16-1.65l.49.19.09.55q0,19.06,0,38.13a1.38,1.38,0,0,0,.24.55h27.35v-2.44c0-5.92,0-11.83,0-17.75,0-6.15-.05-12.31-.07-18.46.08-.2.17-.4.26-.6l.24,0,.23.06.14.55q0,19.05,0,38.11a1.38,1.38,0,0,0,.24.55h27.31V523.9c0-5.75,0-11.51,0-17.26q0-9.47-.08-18.93l.26-.6.24,0,.23.06.14.55q0,19.05,0,38.1c0,.21.18.42.24.56h27.31V523.9c0-5.75,0-11.51,0-17.26q0-9.47-.08-18.93l.27-.68a1.08,1.08,0,0,1,.43-.1c0,.56.11,1.11.11,1.67q0,19.25,0,38.5a17.24,17.24,0,0,1-.11,2.38c0,.14-.59.21-.9.31a1.19,1.19,0,0,0,0-.42l.21-2H511.7v1.84Z"/><path class="cls-3" d="M199.21,445.11c0-.25,0-.5,0-.75V431.47h4.25c.07.31.13.61.2.92l-3.25.16c-.43,3.47-.31,10.08.15,11.62h25.57V432.39H204.4l.16-.93,35.48.05h2.55v15.31c-1-2-2.31-1.68-3.56-1.68h-38.7v11.05h12.75l.15,1.48c-4.31-1.11-8.55-.22-13-.61v6.66l-.06,3.14-.88-.09c0-1.59,0-3.18,0-4.76Q199.27,453.55,199.21,445.11Zm42.47-.87V432.58H227.3v11.66Z"/><path class="cls-15" d="M300.49,248.12c-.17-.25-.48-.5-.48-.74,0-5,0-10,0-15,1.76-.58,29.56-.77,33.21-.27a6.86,6.86,0,0,1,.26,1.32q0,6.22,0,12.47a5.54,5.54,0,0,1-.33,1.35l-.47,0q-.07-7.12-.14-14.28H301.36v.4h30.33v12.84l-.61,0a79.5,79.5,0,0,0-.26-11.65c-.32.18-.5.37-.5.56,0,3.66,0,7.33,0,11l-.72.07V234.3h-1.3l-.56,0h-1.3v11.86l-1.12,0c0-3.56.08-7.11.14-10.67,0-1.06-.45-1.44-1.46-1.21l-.56,0h-1.3v11.86l-.72-.07c0-2.79.05-5.59.06-8.38a19.21,19.21,0,0,0-.07-2.63c0-.29-.53-.8-.68-.76a2,2,0,0,0-1,.77c-.16.23-.07.62-.07.94q0,5,.07,10.06l-.73.07V234.3h-1.31l-.56,0c-1-.25-1.47.15-1.45,1.21.06,3.55.09,7.1.13,10.66l-1.11,0V234.34h-3.18v11.84l-1.11,0c.05-3.56.08-7.11.14-10.66,0-1.06-.42-1.46-1.45-1.21l-.57,0H307.2l-.62.05c-1.2-.36-1.78,0-1.76,1.34.05,3.46.06,6.93.08,10.39l-.72.07V234.3h-1.31l-.55,0c-1-.23-1.48.15-1.46,1.21.06,3.56.09,7.11.14,10.67l0,.61v.85Z"/><path class="cls-10" d="M496.23,220.74h1.44l.47,0,0,.62h-298l0-.62c1,0,1.91.13,2.86.13H493.6C494.48,220.83,495.36,220.77,496.23,220.74Z"/><path class="cls-2" d="M879,229l.7.35c0,.2-.06.39-.08.58l-1.09.06H868.18c0,3.15,0,6,0,8.83a8.28,8.28,0,0,1-.48,1.9c-5.21-.08-10.41-.16-15.62-.19-.21,0-.43.51-.64.78l0,.7.11,9.85-.76,0a9.62,9.62,0,0,0,.13-1.19q0-9.68,0-19.35c0-.37-.07-.75-.11-1.22h-9.13v8.48h-4.11l-1,0v-9.37c1-.06,1.8-.14,2.64-.14h36.71C877,229.07,878,229,879,229Zm-18,1-1.13,0h-.77L858,230l-.76,0-.81,0-1.12,0-.77,0-1.19.09v9.75l1.23.1.7,0,1.18,0,.75,0,1.08-.32.67-.07h1.12l.67.07,1.08.32.74,0,1.19,0,.7,0,1.23-.1v-9.75l-1.2-.09-.76,0-1.12,0-.81,0Zm-20.35.14h-3.15v7.22h3.15Zm27,9.58c0-3,0-6.07-.05-9.16,0-.21-.7-.4-1.4-.78v9.07C866.24,239.66,866.52,240.13,867.69,239.76ZM852,240l.57-.23v-9.62c-.87-.26-1.25,0-1.25.74,0,2.64,0,5.27,0,7.9C851.42,239.22,851.82,239.62,852,240Z"/><path class="cls-7" d="M395.93,232.28c.69,0,1,.29,1,1q0,7.29,0,14.53c-2,.53-25.52.73-32.9.31a5.13,5.13,0,0,1-.25-1.06c0-4.46,0-8.93,0-13.39a4.61,4.61,0,0,1,.51-1.44c0,.23.07.46.11.69v14.66a12.5,12.5,0,0,0,1.27.14q15,0,29.93,0a1.21,1.21,0,0,0,.44-.15.29.29,0,0,0,.13-.16,3.42,3.42,0,0,0,0-.57l-30.94-.06c0-4.26,0-8.17,0-12.08,0-.32.31-.65.47-1l.06.65q0,5.82.1,11.64s.1.11.16.12a1.28,1.28,0,0,0,.3,0c.09-.17.27-.37.27-.56,0-3.73,0-7.46-.05-11.2h.67v11.89h1.29l.66,0h1.69l.66,0h2l1.72-.08.64.08,1.31-.06c0-3.84,0-7.6,0-11.36,0-.19-.24-.37-.37-.55l-.07-.54,1-.06c0,.23.07.47.1.71V246.2h1.27l1,0,1.28-.16V234.35l.69,0c0,2.47-.07,4.94-.09,7.41,0,1.28,0,2.56.08,3.82,0,.28.62.5,1.29,1V234.34l.06-.68,1,.06-.06.5A10.14,10.14,0,0,0,384,236c0,2.85,0,5.71,0,8.57a12.53,12.53,0,0,0,.21,1.53c1.41.42,1.66-.28,1.66-1.32,0-3.17,0-6.35,0-9.52a3.05,3.05,0,0,0-.41-1.05l-.06-.5,1-.05,0,.65c0,2.8-.07,5.59-.1,8.38a18.28,18.28,0,0,0,.09,2.87c0,.29.64.5,1.31,1V234.33l.67,0v11.88h1.3l1.05,0H392V234.35l.66,0v11.89H394l.66,0h1.67V234.35c0-.38,0-.76,0-1.13l-.31-.45Z"/><path class="cls-16" d="M530.32,285.14a4.75,4.75,0,0,0-.41,1.33q0,9.55.06,19.12l-.74.05c0-2.69.09-5.38.12-8.08,0-.75-.06-1.48-1.33-1.1v9.18l-.72,0c0-2.71.08-5.42.1-8.13,0-.64,0-1.36-1.28-1v9.17h-.73c0-1.59.14-3.19.08-4.77s.38-3.11-.39-4.68c-1.13,1.11-1.28,2.94-.88,9.43l-.73,0c0-1.6.14-3.19.09-4.79s.3-3.09-.31-4.72c-1.18,1.09-1.39,3.67-1,9.48l-.73,0c0-1.6.15-3.19.11-4.78s.31-3.1-.28-4.63c-1.12.17-1.13.82-1.12,1.46q0,3.94.11,7.89l-.75.05c0-2.74.1-5.49.14-8.23,0-.6-.09-1.12-.86-1.13l-1.07.35h-1l-.85-.06c-.91-.19-1.09.37-1.08,1.08q.06,4,.14,8l-.75-.05c0-2.63.08-5.26.1-7.89,0-.71.05-1.53-1.28-1.28v9.23l-.74,0q0-10.19,0-20.38l.66,0v8.93c1.32.21,1.33-.55,1.33-1.28,0-2.54,0-5.07-.07-7.61l.66-.05c0,2.61-.07,5.21-.1,7.81,0,.66,0,1.31,1,1.22l1,0h.84l1.05,0c.95.09,1-.56.95-1.22l-.09-7.81.66.05c0,2.54-.06,5.07-.07,7.61,0,.72,0,1.52,1.33,1.26v-8.91l.65,0c0,2.53-.06,5.07-.06,7.61,0,.7-.09,1.53,1.32,1.27v-8.9l.66,0c0,2.63,0,5.27,0,7.91,0,.39.38.77.62,1.24.37-.35.57-.45.57-.56q0-4.31.07-8.61h.66v8.87c1.25.27,1.33-.35,1.33-1,0-2.62,0-5.23-.07-7.85H528q0,3.93-.07,7.88c0,.87.26,1.37,1.36.93v-8.82Zm-1.17,10.42v-.77h-5.34c-1.83,0-3.66-.06-5.48,0s-3.49-.31-5.15.26l0,.51Z"/><path class="cls-14" d="M498.16,221.32l0-.62c0-.12-.07-.23-.11-.35,0-.95.07-1.91.07-2.87q0-41.29,0-82.6c0-1,.08-1.91.13-2.86l.93.12c0,1-.12,2.07-.13,3.1V218.3a15.83,15.83,0,0,1-.08,2.39C498.92,220.93,498.44,221.11,498.16,221.32Z"/><path class="cls-7" d="M599.47,262.66c-.28-.59-.61-.76-1-.1L588,262.7l-.68,0H572.6c0-.29,0-.59-.05-.88,5-.06,10.06-.15,15.09-.16q29.49,0,59,0H649c0,2.95.11,5.72.17,8.5l-.88.16c0-2.53-.08-5.05-.12-7.71H615.3C610,262.6,604.75,262.64,599.47,262.66Z"/><path class="cls-1" d="M827.32,244.84a.48.48,0,0,1,0,.45l-.55.12a.5.5,0,0,0-.41.09h-3.11v6.33h3.11a.58.58,0,0,0,.41.09l.54.12a3.69,3.69,0,0,1-1.17.5q-17.73,0-35.47,0a3.3,3.3,0,0,1-.67-.19V229.51l.9.43a6.08,6.08,0,0,0-.39,1.52c0,6.38,0,12.77,0,19.16a7.7,7.7,0,0,0,.18,1.14h3.43V230.07c.31-.18.63-.51.94-.51,3.33,0,6.66,0,10,0,.09,0,.17.26.26.4-1.75,0-3.51,0-5.26,0s-3.42,0-5.21.08v7.47c0,.41,0,.82,0,1.24v6.14h11.13v.54H795v6.36h27.52V238.68c0-.39,0-.78,0-1.17,0-2.5.06-5,0-7.49H806.24a3.91,3.91,0,0,1,1.24-.46c4.83,0,9.67,0,14.5,0,.4,0,.79.33,1.19.51v7.44l0,1.18v6.08h3.2Z"/><path class="cls-7" d="M112.76,227.71l0-.67v-6.23l0-1.37.11-.19a2,2,0,0,0,.4.16l0,0,.62.61c0,3-.1,6.07,0,9.11,0,.62.54,1.23.94,2.1-.08,0-.67.21-.84.57a4.07,4.07,0,0,0-.14,1.65v29.5l0,1c-.29-.21-.76-.38-.82-.64a10,10,0,0,1,0-1.9v-23h-10l-.68-.22-.13-.17a3.15,3.15,0,0,1,.11-.44c3.07,0,6.15.06,9.22.12,1.11,0,1.65-.35,1.34-1.53V234.3l0-.73-.19-1.63c-2.77,0-5.39,0-8,0a15.42,15.42,0,0,0-2.31.37l-.41-.45v-2.41l.39-.4a1.74,1.74,0,0,0,.39.05c3,0,6,0,9,.11C112.75,229.25,112.9,228.61,112.76,227.71Zm-10.14,3.62c3.21,0,6.37,0,9.53,0,.77,0,.79-.56.47-1.19-3.24,0-6.47,0-9.7,0-.1,0-.24.18-.29.31A4.08,4.08,0,0,0,102.62,231.33Z"/><path class="cls-3" d="M100.71,411.72c.35.9.72.35,1.08,0l12.53,0h20.52v8.73l-.53-.08v-7.79l-3.65.29-.63,0H118.62v21.43l-.05,1-.23,0-.24,0,0-1q0-4.76,0-9.49l0-1a.64.64,0,0,0,0-.41c0-.22,0-.45-.07-.68v-9.94h-1.34l-.52.14-1.33-.08H113v10h-2.67c.37-3.33.12-6.66.19-10.14l-1.47.18h-.52l-1.38.05-.54-.05-.9,0-1.07,0-.83,0-1-.06h-.94l-.64.08-8.43,0,0-.06v-.94Zm10.8.85-.45.22v9.51c.83.33,1.25.06,1.25-.65,0-2.7,0-5.39,0-8.09C112.29,413.23,111.78,412.9,111.51,412.57Z"/><path class="cls-11" d="M544.67,284.42V262.74H511.72c0,1,0,2,0,3.05,0,.63-.1,1.11-.87,1.12,0-.47-.07-.94-.08-1.41,0-1.18,0-2.37,0-3.71h34.86v8.41h4.61c-1.52,1.53-3.1.49-4.54,1.19,0,3.47,0,7.05,0,10.62a21.14,21.14,0,0,1,0,2.39c0,.26-.44.47-.67.7Z"/><path class="cls-1" d="M113.9,220l-.62-.61h10.58l1.5-.05h18.57l0,.62H138.5c.08,3.93-.23,7.54.23,11.26a1.14,1.14,0,0,1-.46.11,4.63,4.63,0,0,1-.88-.15c.58-2.09.55-9.39,0-11h-5.33c0,3.22,0,6.25,0,9.27,0,.86.47,1.08,1.08,1.32.09,0,.11.27.18.42l-1.24.48v27l0,1.21,0,3.13-.06.94c-.56,0-1-.11-.82-.85.06-1.5.18-3,.19-4.51q0-12.69,0-25.37c0-.91.34-2-1.53-2a2.15,2.15,0,0,0,1.55-2.49c-.06-2.77,0-5.55,0-8.51H120.27v10.27l3.16.35v.53a31.71,31.71,0,0,1-4.25.06c.66-3.73.14-7.4.35-11.33Z"/><path class="cls-16" d="M455,487.13l-.49-.19V444.61c.69-.07,1.3-.18,1.91-.18q40.75,0,81.53,0a8.41,8.41,0,0,1,1.92.47l-.54,0q-41.14,0-82.29,0c-.62,0-1.23.11-1.94.18,0,.84-.1,1.55-.1,2.25q0,18.7,0,37.42c0,.72.11,1.43.16,2.14A.45.45,0,0,0,455,487.13Z"/><path class="cls-3" d="M169,435.26h-.48l-.38-.89a7.58,7.58,0,0,0,.13-.94q0-9.59,0-19.18a12.14,12.14,0,0,0-.19-1.49H149.82c.08-.29.08-.73.26-.82a2.75,2.75,0,0,1,1.16-.16q10.51,0,21,0a4.8,4.8,0,0,1,.82.18,11.47,11.47,0,0,1,.2,1.56c0,6.54,0,13.07,0,19.61,0,.85.22,1.82-1,2.12,0-.3,0-.6,0-.9l.17-.46a7.48,7.48,0,0,0,.27-1.38q0-9,0-17.93a7.48,7.48,0,0,0-.27-1.38l-.62-.62c-1-.29-2-.72-2.8.29q0,10.68,0,21.34Z"/><path class="cls-13" d="M412.25,402.2l.48.52c-.47,6.93-.24,21.37.39,23.1.45,0,.92.11,1.4.11q13.39,0,26.81,0a11.72,11.72,0,0,0,1.64-.22l0,.93-24.23.09h-7V402.2Z"/><path class="cls-10" d="M29.82,232.82v-.92l.49-.08c1.91,0,3.83.09,5.74.09H70.56a7,7,0,0,1,1.66.06c.19,0,.27.57.4.89l-.57.39a4.33,4.33,0,0,0-1.27-.39q-20.2,0-40.41,0Z"/><path class="cls-8" d="M263.91,486.65h-.83L263,449.19c0-1.27,0-2.55,0-3.82,0-.3.3-.6.47-.9l.43.9c0,3.82,0,7.63,0,11.45Q264,471.75,263.91,486.65Z"/><path class="cls-13" d="M242.89,262.61l-.1-.85a2.43,2.43,0,0,1,.47-.08l40,0a5.12,5.12,0,0,1,.93.19l-.07.69c-1,0-1.91,0-2.86,0Z"/><path class="cls-7" d="M149.82,412.75h.9v21.61H168.1l.38.89H149.74C149.78,427.67,149.67,420.21,149.82,412.75Z"/><path class="cls-9" d="M623.44,219.3l.9.06c-.19.19-.37.39-.56.59l-74.78,0,.48-.52c.88,0,1.76-.06,2.64-.06h68.09c.88,0,1.75,0,2.63-.06Z"/><path class="cls-9" d="M29.78,274.55l.91-.07c4.15,0,8.3,0,12.45,0l28.47-.06.32-.3q0-10.1-.05-20.17l.74,0v20.57h9.5V275l-.21.23c-.64,0-1.28-.11-1.91-.11q-24,0-48,0c-.55,0-1.11.06-1.67.1Z"/><path class="cls-6" d="M827.32,244.84l-1-.07c.91-2,.28-4,.4-6.08h-3.6l0-1.18h3.47v-7.44h-3.47c-.4-.18-.79-.51-1.19-.51-4.83,0-9.67,0-14.5,0a3.91,3.91,0,0,0-1.24.46c0,.35-.1.7-.23,1.58-.39-.87-.56-1.26-.73-1.65-.09-.14-.17-.4-.26-.4-3.33,0-6.66,0-10,0-.31,0-.63.33-.94.51l-3.21-.13-.9-.43a5.34,5.34,0,0,1,1.46-.45q17.09,0,34.17,0a13.15,13.15,0,0,1,1.71.22Z"/><path class="cls-1" d="M527.3,305.62l.72,0h1.21l.74-.05h15.4v.68l-14.54.11h-1.07q-15.4,0-30.8,0a7.39,7.39,0,0,0-1.56.38l-.28-.57.67-.48h3.11V285.21l.2-.1.72-.3a.21.21,0,0,1,0,.32,9.66,9.66,0,0,0-.21,1.4c0,6,0,11.92,0,17.88a6.59,6.59,0,0,0,.22,1.19H512.4l.74,0,1.18-.06.75.05.76,0,1.12,0h.79l1.13,0,.76,0,.75-.05,1.18.06.73,0,1.18,0,.73,0,1.19,0h1.91Z"/><path class="cls-18" d="M395.93,232.28l.06.49c-1.2,0-2.4.07-3.59.07l-28,.07c0-.23-.07-.46-.11-.69a13.75,13.75,0,0,1,2.08-.31q13.75,0,27.52,0A11.49,11.49,0,0,1,395.93,232.28Z"/><path class="cls-10" d="M326.8,274.47v.69c-6-.19-12-.05-18.13-.1v41.71l-.5,0V274.65Z"/><path class="cls-12" d="M454.33,408.84l.64.45V410c-.2.81-.41,1.61-.62,2.42l-.36,1.79a7.65,7.65,0,0,0-.06,7.2c.14.61.29,1.21.43,1.81l.61,2.39v1l-.65.17-3.69-.15-.52-.94,0-.93.92,0,.12,1.16h3c-.54-2.08-1-3.9-1.6-6.1l-1.38,4-.48-1a10.82,10.82,0,0,0,0-9.92c.14-.35.29-.7.44-1.06L452.6,416c.57-2.31,1-4.09,1.51-6.14a11.68,11.68,0,0,0-2.35.05c-.29.06-.47.64-.7,1l-.92,0v-2Z"/><path class="cls-9" d="M166.93,262.61l.66,0v12.59H125.33l0-.62,38.54,0h2.94C166.83,270.49,166.88,266.55,166.93,262.61Z"/><path class="cls-2" d="M102.07,188.25l53.18,0a3.55,3.55,0,0,1,.47.06,2.31,2.31,0,0,1,0,.37c-1,0-2.07,0-3.1,0H102.1A3.67,3.67,0,0,0,102.07,188.25Z"/><path class="cls-10" d="M363.75,431.15l0,.76c-4.18,2-5.27,5.73-2.84,9.6a7.1,7.1,0,0,1,.46,1c-1.58,0-1.35-1.7-2.28-2.4l-1.47,2-.47-.41a17,17,0,0,0,1-2.1,5.7,5.7,0,0,0-5.05-7.68.64.64,0,0,0-.36,0c-.23-.75.08-1.07.81-1a6,6,0,0,1,4.37,2.62c.42.56.74,1.18,1.19,1.9C360.19,433.34,361.47,431.69,363.75,431.15Z"/><path class="cls-1" d="M850.72,251.9l.76,0,.76.07,1.13-.06,1.17,0,.75.05,1.19-.15.73.09.75,0,1.16,0H861l.75,0,.74-.09,1.18.15.75-.05,1.17,0,.74,0,1.18,0,.8-.1,10.2.09,1.1.12,0,.5-.68.12c-3.19,0-6.37-.07-9.55-.08L837,252.49l.42-.93a10,10,0,0,0,1.77.34C843,251.92,846.86,251.9,850.72,251.9Z"/><path class="cls-1" d="M544.67,284.42l.33.68-14.68,0-1.05.05h-3.85l-1.25,0-.66,0-1.26,0-.65,0-1.26,0-.66-.05-.85,0-1.06,0h-.85l-1.06,0-.84,0-.66.05-1.26,0-.66,0-10.68-.06c.14-.21.27-.58.43-.6a21,21,0,0,1,2.38-.09Z"/><path class="cls-7" d="M227,479.87l.07-1.05h14.72v-5.46c1.12,1.2,1.27,3.45.63,6.51Z"/><path class="cls-16" d="M158.91,191.37q0,21.85,0,43.7a2.16,2.16,0,0,1-.36,0l-.06-43.7.24,0Z"/><path class="cls-16" d="M99,235.18c0-4.77-.07-9.54-.07-14.32q0-14.67,0-29.35a3.59,3.59,0,0,0,.47,0q0,21.79,0,43.61A1.29,1.29,0,0,1,99,235.18Z"/><path class="cls-3" d="M539.28,445l.54,0c0,3.18.08,6.37.07,9.55q0,16.23,0,32.47a1.08,1.08,0,0,0-.43.1.55.55,0,0,0-.22-.18,2.87,2.87,0,0,0,.16-.69q0-20.49-.05-41A1.81,1.81,0,0,0,539.28,445Z"/><path class="cls-9" d="M82.58,274.54h41.75l-.06.71c-.55,0-1.11-.1-1.66-.1q-20,0-39.91,0l-.11-.1Z"/><path class="cls-7" d="M667.16,249.05l.42.78c0,.87-.05,1.75-.06,2.62q0,8.94,0,17.88l-.94-.22c0-6.33,0-12.66.06-19C666.6,250.42,666.13,249.5,667.16,249.05Z"/><path class="cls-23" d="M387.71,275.09l.53,0c0,.88.09,1.75.09,2.62q0,19.56-.05,39.12h-.54q0-12.7,0-25.39C387.78,286,387.74,280.52,387.71,275.09Z"/><path class="cls-23" d="M387.81,360.44h.43c0,1,.09,2.07.09,3.1q0,17.79,0,35.58c0,.87-.08,1.74-.12,2.61h-.36Q387.82,381.09,387.81,360.44Z"/><path class="cls-8" d="M795.21,261.75H815c-1.6.92-10.31,1.15-19.84.76C795.2,262.26,795.21,262,795.21,261.75Z"/><path class="cls-14" d="M326.77,401.67l.1,1c-5.77,0-11.54.07-17.31.06a4.66,4.66,0,0,1-1.42-.53l.49-.48Z"/><path class="cls-3" d="M113.78,264l0-1,17.49.11c0,.27,0,.73-.12.77a4.67,4.67,0,0,1-1.39.2Z"/><path class="cls-16" d="M332.66,247.25l.47,0c-.1.28-.13.71-.32.81a2.84,2.84,0,0,1-1.17.14l-31.16-.06.5-.46c10,0,19.94,0,29.91,0A7.58,7.58,0,0,0,332.66,247.25Z"/><path class="cls-23" d="M352.79,432a.64.64,0,0,1,.36,0c0,3.86,0,7.72,0,11.58a.77.77,0,0,1-.34,0c-.1-1.65-.19-3.29-.3-5.22h-7.82l-.95-.1v-.9l.93-.08h7.78C352.56,435.35,352.68,433.65,352.79,432Z"/><path class="cls-16" d="M118.57,435.25l.05-1,16.13.17C133.49,435.46,126.5,435.67,118.57,435.25Z"/><path class="cls-7" d="M200.21,463.72v-1.17c3.59,0,7.18,0,10.76.17,1,0,1-.92,1.89-1.45v3.55a2.55,2.55,0,0,0-2.59-1.21C206.91,463.69,203.56,463.69,200.21,463.72Z"/><path class="cls-12" d="M483.33,529.88l.06-.64c1,0,2.07.07,3.1.07l24.16.06a1,1,0,0,1,0,.42c-1.59,0-3.18.13-4.78.13Q494.61,529.92,483.33,529.88Z"/><path class="cls-12" d="M482.34,529.37a1,1,0,0,1,0,.42c-1.5,0-3,.13-4.5.13l-22.84,0,.05-.61c1.11,0,2.23,0,3.35,0Z"/><path class="cls-12" d="M511.64,529.88l.06-.64c1,0,2.07.07,3.11.07q12.08,0,24.15.06a1.19,1.19,0,0,1,0,.42c-1.6,0-3.19.13-4.79.13Q522.92,529.92,511.64,529.88Z"/><path class="cls-7" d="M837.37,251.56l-.42.93c-.15-.33-.44-.65-.44-1,0-4.31,0-8.61,0-12.92l1,0Q837.44,245.09,837.37,251.56Z"/><path class="cls-8" d="M336.91,441.09c0-.26-.2-.55-.12-.75a6.54,6.54,0,0,0-.79-6.52c-.08-.12,0-.3-.06-.46,1.33-.2,1,1.42,2,1.77l1.65-2.13.33.47c-1.51,2.3-2,4.69-.74,7.27l-.43.42-.93-1.24Z"/><path class="cls-15" d="M132.1,263.9l.06-.94L144,263c0,.3.06.6.1.9Z"/><path class="cls-9" d="M263.94,445.37l-.43-.9,21.57,0c0,.12,0,.24,0,.36l-.62.36-20.1-.08C264.2,445.13,264.07,445.28,263.94,445.37Z"/><path class="cls-7" d="M571.55,261.8l0,.76-10.45.14-.54-.57c.24-.16.48-.46.72-.46C564.72,261.69,568.13,261.75,571.55,261.8Z"/><path class="cls-18" d="M145.05,238.64c0-.36,0-.72,0-1.08l10.35.05a1.59,1.59,0,0,0,.2.24l.21.47-7.26.24Z"/><path class="cls-9" d="M72.05,233.25l.57-.39q0,10,0,20.1l-.56-.4Z"/><path class="cls-1" d="M130,412.83l.63,0c0,2.48,0,4.95,0,7.5h3.61l.53.08.09.54c-1.37.1-2.83-.47-4.1.82h4.1c-.37.2-.73.54-1.11.56-1.17.08-2.35,0-3.79,0Z"/><path class="cls-3" d="M545.41,295.88c-1.69.92-7,.93-8.73.05A42.45,42.45,0,0,1,545.41,295.88Z"/><path class="cls-23" d="M370,402.61l.16-.61c1,0,2.05.07,3.08.08,4.81,0,9.63.06,14.45.09h.5a5.07,5.07,0,0,1-1.41.43C381.2,402.63,375.61,402.61,370,402.61Z"/><path class="cls-16" d="M118.07,434.29l0,1-2.8.1c-.07-.3-.14-.59-.2-.88.91-.15,1.05-.78,1-1.57,0-2.37,0-4.75,0-7.12a3.18,3.18,0,0,0-.39-1.06c0-.19,0-.38,0-.56l1,0,0,.69v9.48Z"/><path class="cls-10" d="M158.91,191.37l-.23,0-.24,0-2.74-2.72c0-.12,0-.25,0-.37C158.09,188.41,158.71,189,158.91,191.37Z"/><path class="cls-11" d="M285,274.1c-.15,0-.31,0-.46,0,0-3.81-.05-7.62-.07-11.43l.54-.07C285,266.41,285,270.25,285,274.1Z"/><path class="cls-11" d="M99.42,191.54a3.59,3.59,0,0,1-.47,0c.23-2.42.79-3,3.13-3.26l0,.46Z"/><path class="cls-10" d="M561.06,271.07l-.57.15-4.14-.27,0-.57c1.34-.45,2.82,0,4.18-.29l.56.13C561.07,270.5,561.06,270.79,561.06,271.07Z"/><path class="cls-8" d="M155.83,238.32l-.21-.47L157,237c.51-.61,1-1.21,1.55-1.82h.29C158.77,237.41,158.27,237.93,155.83,238.32Z"/><path class="cls-8" d="M99,235.18a1.29,1.29,0,0,0,.39,0l2.29,2.31.59.2v0a3.15,3.15,0,0,0-.11.44C99.91,238.13,99.28,237.55,99,235.18Z"/><path class="cls-23" d="M519.21,198.18l.07.53-10.58,0,.07-.49Z"/><path class="cls-9" d="M624.25,221.34l.59,0,.11,10.51h-.16l-.55.08C624.25,228.39,624.25,224.87,624.25,221.34Z"/><path class="cls-11" d="M666.53,270.11l.94.22,0,.61-.89.29-4-.29v-.65Z"/><path class="cls-13" d="M344.66,437.17l-.93.08-.15-5.25.75-.18Z"/><path class="cls-11" d="M203.65,432.39c-.07-.31-.13-.61-.2-.92l.21-3.9c1.2,1.19.63,2.61.9,3.89-.05.31-.1.62-.16.93Z"/><path class="cls-23" d="M529.4,208.83l.52.07q-.06,5-.13,10h-.35C529.43,215.57,529.41,212.2,529.4,208.83Z"/><path class="cls-10" d="M648.28,270.3l.88-.16h3.91c-1.22,1.44-2.78.66-4.12,1.07l-.6-.21C648.33,270.76,648.31,270.53,648.28,270.3Z"/><path class="cls-8" d="M332,431.88l-.72,0c.07-.22.08-.57.23-.64a3.09,3.09,0,0,1,4,1.7Z"/><path class="cls-8" d="M344.33,431.82l-.75.18c-1.29-.35-2.2.47-3.21,1l-.48-.33c1.14-.57,2.25-1.21,3.42-1.69C343.91,430.74,344.33,431.13,344.33,431.82Z"/><path class="cls-5" d="M134.93,421.8h-4.1c1.27-1.29,2.73-.72,4.1-.82Z"/><path class="cls-1" d="M454.32,426.77l.65-.17c0,2.56,0,5.11,0,7.67l0,.55h-.52Z"/><path class="cls-9" d="M537.94,219.26l.06.67-8.18,0c0-.21,0-.41,0-.62Z"/><path class="cls-1" d="M561.07,270.22l-.56-.13c0-2.65.06-5.31.08-8l.54.57Z"/><path class="cls-3" d="M826.75,245.41l.55-.12c0,2.25,0,4.5,0,6.75l-.54-.12c0-.29,0-.59,0-.88v-4.76Z"/><path class="cls-7" d="M169,435.26l.07-1.05,3.29.14c0,.3,0,.6,0,.9Z"/><path class="cls-12" d="M504.1,131.65c-.57-.26-.88-.55-.17-1l4.16.32.09.73Z"/><path class="cls-11" d="M795.21,261.75c0,.25,0,.51,0,.76l-1.34.09-.78,0c-.12.08-.21.05-.29-.07s0-.54,0-.81Z"/><path class="cls-9" d="M548.56,219.93h-3.88l.06-.67,1.33,0,1.11,0,1.32,0Z"/><path class="cls-10" d="M72.05,252.56l.56.4v1l-.74,0a.29.29,0,0,1-.34-.07l0-.58Z"/><path class="cls-10" d="M124.27,275.26l.06-.71h1l0,.62-.25.37-.73,0A.17.17,0,0,1,124.27,275.26Z"/><path class="cls-9" d="M542.24,219.2l.09.74h-2l-.12-.76Z"/><path class="cls-10" d="M285,262.57l-.54.07a.41.41,0,0,1-.32-.1l.07-.69Z"/><path class="cls-10" d="M548.56,219.93l-.06-.67a.29.29,0,0,1,.07-.34H549l.5.48-.48.52Z"/><path class="cls-9" d="M542.76,219.93l.48-.52,1-.11,0,.63Z"/><path class="cls-9" d="M538.44,219.93l.48-.52,1-.23.08.1,0,.64Z"/><path class="cls-10" d="M624.24,231.92l.55-.08c0,.32,0,.64.05.95C624.15,232.83,624.1,232.44,624.24,231.92Z"/><path class="cls-10" d="M544.24,219.93l0-.63a.45.45,0,0,1,.1-.37h.18l.18,0a.33.33,0,0,1,.08.34l-.06.67Z"/><path class="cls-10" d="M529.86,219.27c0,.21,0,.41,0,.62l-.38-1h.35A.28.28,0,0,1,529.86,219.27Z"/><path class="cls-11" d="M203.65,417.55l.34.44Z"/><path class="cls-10" d="M158.81,235.23h-.29l0-.15a2.16,2.16,0,0,0,.36,0Z"/><path class="cls-8" d="M339.57,433a.68.68,0,0,1,.32-.33l.48.33-.47.47Z"/><path class="cls-8" d="M336,433.4l-.52-.52.54,0Z"/><path class="cls-10" d="M82.58,274.54v.52l-.48,0c0-.17,0-.34,0-.51Z"/><path class="cls-11" d="M370,262.1l-.76-.32Z"/><path class="cls-4" d="M102.26,238.25l.68.22Z"/><path class="cls-10" d="M539.92,219.92l0-.64.12-.13.17,0,.12.76Z"/><path class="cls-8" d="M388.2,402.18h-.5a.52.52,0,0,1,.15-.44h.36A.39.39,0,0,1,388.2,402.18Z"/><path class="cls-13" d="M343.73,438.15l.95.1c-.12,1.74-.25,3.48-.38,5.22l-.72-.07Z"/><path class="cls-8" d="M338.36,450.66l-1.1,0c-.26-1-1.21-1.77-.83-2.93.43.57.87,1.14,1.33,1.73l1.57-1.73C339.73,449,338.66,449.68,338.36,450.66Z"/><path class="cls-8" d="M331.32,443.54h.7l3.47-1.06a3,3,0,0,1-2.61,1.94C332.18,444.5,331.38,444.65,331.32,443.54Z"/><path class="cls-8" d="M343.58,443.4l.72.07c0,.83-.53,1.22-1.21.94-1.13-.47-2.17-1.14-3.25-1.72l.52-.28C341.36,443,342.3,443.73,343.58,443.4Z"/><path class="cls-10" d="M352.8,443.47a.77.77,0,0,0,.34,0l3.11-.89.42.46a4.26,4.26,0,0,1-3.33,1.38C352.66,444.43,352.65,444,352.8,443.47Z"/><path class="cls-8" d="M332.19,446l-.83-.1c.43-.19.87-.57,1.28-.54a3.08,3.08,0,0,1,2.86,1.52,4.17,4.17,0,0,1-.94-.06C333.76,446.53,333,446.22,332.19,446Z"/><path class="cls-10" d="M361.37,442.5l2.42,1.46C362.59,444.13,361.65,443.86,361.37,442.5Z"/><path class="cls-8" d="M335.93,442c.16-.51.12-1.22,1-1C336.85,441.62,336.87,442.32,335.93,442Z"/><path class="cls-8" d="M339.59,442.44l-.86-1.28.43-.42.73,1.19Z"/><path class="cls-10" d="M361.89,446.81l-1,1C360.69,447,361,446.62,361.89,446.81Z"/><path class="cls-8" d="M336,447.32l-.55,0,0-.55Z"/><path class="cls-8" d="M336.46,447.8l-.55,0,0-.54C336.11,447.45,336.29,447.62,336.46,447.8Z"/><path class="cls-8" d="M335.45,442.51,336,442l0,.55Z"/><path class="cls-8" d="M339.84,442.69a.6.6,0,0,1-.25-.25l.3-.51.47.48Z"/><path class="cls-10" d="M357.64,442.1l-.46.51-.44-.44.43-.48Z"/><path class="cls-10" d="M357.18,442.61l-.51.45-.42-.46.49-.43Z"/><path class="cls-8" d="M339.82,447.28l0,.54-.55,0Z"/><path class="cls-8" d="M340.3,446.79l0,.55-.54,0Z"/><path class="cls-11" d="M91.65,412.84l-19,0c0-.33,0-.66,0-1a.53.53,0,0,0,.37-.07l19.71.09v.94Z"/><path class="cls-7" d="M91.65,412.84l1-.09,0,.06-.15,10-.35.38-.55-.12C91.66,419.67,91.66,416.26,91.65,412.84Z"/><path class="cls-19" d="M92.22,423.21l.35-.38v1.42l-.87,0c-.1-.14-.21-.28-.31-.43Z"/><path class="cls-9" d="M71.54,253.92,33,254c-.88,0-1.75.05-2.63.07l-.57-.59.53-.24,38.34.06c.95,0,1.91,0,2.87.07Z"/><path class="cls-20" d="M889.1,241.42l-.24.47Z"/><polygon class="cls-15" points="837.52 219.09 837.68 219.12 837.73 219.27 837.56 219.26 837.52 219.09"/><path class="cls-3" d="M496.7,306.17q0-10.59,0-21.18l.78-.87.16.05,3.29.09.17.85-.2.1h-3.29v2.54c0,4,0,8,0,12,0,2,.11,4,.17,6l-.67.48Z"/><path class="cls-9" d="M500.94,284.26q0-8.67,0-17.35l.83,0q0,9,.05,17.89l-.72.29C501.05,284.82,501,284.54,500.94,284.26Z"/><path class="cls-12" d="M497.49,284.12l-.78.87c0-.28,0-.56.07-.84Z"/><path class="cls-23" d="M497.72,434.31a.93.93,0,0,1,.45.15l-.51.28A.64.64,0,0,1,497.72,434.31Z"/><path class="cls-7" d="M476.56,434.41a.69.69,0,0,1,.47.07Z"/><path class="cls-7" d="M455,434.27a1.33,1.33,0,0,1,.42.19l-.45.36Z"/><path class="cls-7" d="M496.25,434.48l.42-.23Z"/><path class="cls-2" d="M623.44,219.3l-.6,0q0-9.48,0-19l.52-.1,0,16.06c0,.87.07,1.75.11,2.62A2,2,0,0,0,623.44,219.3Z"/><path class="cls-11" d="M549,218.93h-.41l-.05-10.07H549Z"/><path class="cls-11" d="M593.18,113.81v1.24l-.61-.89Z"/><path class="cls-11" d="M594.77,113.38h-1.15l.33-.62Z"/><path class="cls-11" d="M593.67,113.33l-.53.53Z"/><path class="cls-14" d="M498.22,131.16V116.68l.91.06.09,1.34h3.64l0,1.1a8.26,8.26,0,0,0-4.17.37c.64.44.94.81,1.28.84.93.1,1.87,0,2.8.06l0,.68h-3.69v1.31l-.42,1a1.25,1.25,0,0,0,1.43,1.21c.86,0,1.72,0,2.58,0,0,.23.07.47.11.7h-3.7v1.31l-.35.37.36.21c0,.42,0,.85.06,1.33h3.66c0,.36,0,.72,0,1.08h-3.7v1.32Z"/><path class="cls-12" d="M508.2,120l0,1.07h-4l.22,1.36v1.86h3.77c0,.36,0,.72,0,1.09l-4.2,0a6.24,6.24,0,0,1,0-5.31Z"/><path class="cls-13" d="M508.75,182.89h10.48c0,.36,0,.71,0,1.06H508.77Z"/><path class="cls-13" d="M508.77,187.18h10.44c0,.36,0,.71,0,1.07H508.75C508.76,187.89,508.76,187.54,508.77,187.18Z"/><path class="cls-13" d="M547.12,208.85l.06,10.43-1.11,0c0-3.48,0-7,0-10.44Z"/><path class="cls-12" d="M508.09,129.37l-4.16.31a2.84,2.84,0,0,1-.05-3.36l3.89.52c0,.12,0,.24,0,.36l-3.45.24-.21.45c.33.28.65.75,1,.78a28.4,28.4,0,0,0,3.06,0Z"/><path class="cls-23" d="M508.77,189.55h10.44l0,.64H508.75Z"/><path class="cls-23" d="M508.75,180.94l10.5,0c0,.21,0,.41,0,.62H508.77Z"/><path class="cls-12" d="M539.88,219.17c0-3.43,0-6.87,0-10.3l.66.07c0,2.82,0,5.64,0,8.46C540.49,218,540.83,218.84,539.88,219.17Z"/><path class="cls-23" d="M544.3,218.93c0-3.36-.09-6.71-.13-10.07l.62,0c0,3.34-.08,6.69-.13,10l-.18,0Z"/><path class="cls-12" d="M504.37,116.71c0,.37-.07.75-.12,1.29l3.53.24c0,.12,0,.24,0,.36l-3.89.51C503.18,117.59,503.23,117.36,504.37,116.71Z"/><path class="cls-14" d="M507.77,116l.45-.68Z"/><path class="cls-14" d="M508.22,110l-.48-.48Z"/><path class="cls-13" d="M495.74,76.28a19.17,19.17,0,0,1,.45,3q0,68.88,0,137.77a17.39,17.39,0,0,1,0,1.91,4.65,4.65,0,0,1-.44,1.07v-.22l-.53-.46c0-.64,0-1.28,0-1.91V79.14c0-.72,0-1.44-.05-2.16l.54-.47A.14.14,0,0,1,495.74,76.28Z"/><path class="cls-24" d="M143.93,219.34H125.36l-.26-3.54c6.37-.24,12.5-.06,18.83-.13Z"/><path class="cls-21" d="M155.48,201.71c-1.84,0-3.67-.07-5.51-.07l-47.25,0-.12-.67c3,0,5.89.07,8.84.07q20.57,0,41.11,0c1,0,1.91,0,2.87-.06Z"/><path class="cls-4" d="M145.12,212.87h10.19c.25.82.51,1.62-.77,1.64-3.1.06-6.2,0-9.42,0Z"/><path class="cls-4" d="M155.38,232.07c.27,1.15,0,1.63-.83,1.64h-9.42v-1.64Z"/><path class="cls-4" d="M145.2,227.75h10.1c.37.94.34,1.63-.72,1.64-2.88,0-5.75,0-8.63,0C144.87,229.38,144.89,228.68,145.2,227.75Z"/><path class="cls-4" d="M155.38,217.2c.27,1.14,0,1.63-.83,1.64h-9.42V217.2Z"/><path class="cls-4" d="M112.56,214.53c-3.09,0-6.09,0-9.09-.05-.39,0-.76-.57-1.13-.87.38-.29.75-.82,1.14-.83,2.77-.07,5.55,0,8.32,0C112.85,212.77,112.91,213.42,112.56,214.53Z"/><path class="cls-24" d="M112.82,208.83c.29,1-.14,1.45-1.18,1.44-3,0-6,0-9.3,0,.15-.64.26-1.08.37-1.52Z"/><path class="cls-24" d="M102.71,208l-.47-1.5c3.46,0,6.67,0,9.87,0,.93,0,.85.73.71,1.39Z"/><path class="cls-24" d="M112.8,221.37v1.38l-10.11.11-.46-1.49Z"/><path class="cls-24" d="M112.81,223.72v1.37H102.35c.14-.6.25-1,.36-1.48Z"/><path class="cls-18" d="M112.79,204.54l-10.39.08c0-.52-.05-1.05-.08-1.57a12.61,12.61,0,0,0,2.47.51c3,.06,6,0,9,0a1,1,0,0,1-.16.29Z"/><path class="cls-18" d="M155.45,204.58l-10.38,0-.18-.94,10.59-.14Z"/><path class="cls-21" d="M145,207.8l10.44,0v1.08l-10.44,0Z"/><path class="cls-21" d="M155.48,223.78H145v-1.12l10.44,0Z"/><path class="cls-6" d="M112.81,223.72l-10.1-.11c0-.25,0-.5,0-.75l10.11-.11Z"/><path class="cls-6" d="M102.71,208l10.11-.09v.94l-10.11-.09Z"/><path class="cls-5" d="M102.6,217.38c.08.44.15.88.23,1.32C102,218.39,102.2,217.9,102.6,217.38Z"/><path class="cls-5" d="M102.83,227.77c-.07.45-.14.9-.2,1.35a1.75,1.75,0,0,1-.4-.05Z"/><path class="cls-1" d="M113.3,219.41a2,2,0,0,1-.4-.16,3,3,0,0,0-.14-.39h0Z"/><path class="cls-6" d="M143.52,203.67l.5,0Z"/><path class="cls-6" d="M125.28,203.65l.5,0Z"/><path class="cls-16" d="M123.85,203.69l.49,0Z"/><path class="cls-16" d="M113.62,203.85a1,1,0,0,0,.16-.29l.47.13Z"/><path class="cls-18" d="M102.6,201l.12.67a.48.48,0,0,1-.31.08c0-.25.09-.5.13-.75Z"/><path class="cls-24" d="M595.24,305.5V285.26h3.47V305.5Z"/><path class="cls-3" d="M594.52,292.46c-3.1,0-6.21-.15-9.31-.09-.64,0-1.25.65-2,1.07v-3.16a3.12,3.12,0,0,0,2.95,1.1c2.79-.1,5.58-.11,8.36-.15Z"/><path class="cls-7" d="M91.7,424.28l.87,0c.05,3.33.09,6.65.14,10h8.39l.74.06.84,0h1.92l1.05,0h.86l.69-.06,1.24.07.65,0,1.27,0h2.51l1.27,0h.62l.08.13-.54.91H91.71c0-1.94,0-3.74,0-5.53S91.69,426.12,91.7,424.28Z"/><path class="cls-24" d="M115.72,424.72a3.18,3.18,0,0,1,.39,1.06c0,2.37,0,4.75,0,7.12,0,.79-.13,1.42-1,1.57a.58.58,0,0,1-.26-.06l-.08-.13q0-4.74,0-9.48Z"/><path class="cls-22" d="M510.84,487.71c-2.78,0-5.56-.12-8.35-.12-6.36,0-12.73.06-19.09.09,0-.18-.1-.36-.14-.54l.18-.21c.55.05,1.1.14,1.66.14H509c.63,0,1.26-.12,1.89-.18l.18.22Z"/><path class="cls-22" d="M482.53,487.71c-2.79,0-5.58-.12-8.36-.12-6.38,0-12.75.06-19.13.09l-.09-.55a.45.45,0,0,1,.16-.2,13.84,13.84,0,0,0,1.43.14H481a15.41,15.41,0,0,0,1.65-.18l.18.22Z"/><path class="cls-22" d="M539.15,487.71c-2.62,0-5.24-.12-7.87-.12-6.52,0-13,.06-19.57.09,0-.18-.09-.36-.14-.54l.18-.21a13.65,13.65,0,0,0,1.42.14h24.39a11.34,11.34,0,0,0,1.64-.22.55.55,0,0,1,.22.18Z"/><path class="cls-22" d="M483.26,487.14l-.23-.06-.24,0-.18-.22.83,0Z"/><path class="cls-22" d="M511.57,487.14l-.23-.06-.24,0-.17-.22.82,0Z"/><path class="cls-24" d="M332.66,247.25a7.58,7.58,0,0,1-1.77.42c-10,0-19.94,0-29.91,0v-.85c9.46,0,18.91,0,28.36-.06.79,0,1.77.49,2.35-.54V233.37H301.36V233h31.16Q332.58,240.13,332.66,247.25Z"/><path class="cls-7" d="M331.69,246.21c-.58,1-1.56.53-2.35.54-9.45.05-18.9.05-28.36.06,0-.21,0-.41,0-.61l1.32-.11V234.32l.55,0v11.8l1.31.06.72-.07h1.68V234.36l.62-.05,0,7.88a28.6,28.6,0,0,0,.09,3.34c0,.27.62.48,1.32,1V234.3l.57,0v11.73l1.31.14,1.11,0,1.29-.1V234.34h.61v11.74l1.28.1,1.11,0,1.32-.14V234.34l.56,0v11.86h1.31l.72-.07h1.66l.72.07,1.3-.06V234.3l.56,0v11.77l1.32.11,1.12,0,1.3-.09V234.32l.56,0v11.8l1.3.06.72-.07.75.09Z"/><path class="cls-4" d="M306.58,234.36v11.73H304.9c0-3.46,0-6.93-.08-10.39C304.8,234.39,305.38,234,306.58,234.36Z"/><path class="cls-4" d="M321.43,246.09h-1.66L319.71,236c0-.32-.09-.71.07-.94a2,2,0,0,1,1-.77c.15,0,.64.47.68.76a19.21,19.21,0,0,1,.07,2.63C321.48,240.5,321.45,243.3,321.43,246.09Z"/><path class="cls-24" d="M317.18,234.34v11.73l-1.32.14c0-3.56-.07-7.11-.13-10.66C315.71,234.49,316.15,234.09,317.18,234.34Z"/><path class="cls-24" d="M310.46,246.21l-1.31-.14V234.34c1-.25,1.47.15,1.45,1.21C310.54,239.1,310.51,242.65,310.46,246.21Z"/><path class="cls-4" d="M331.08,246.18l-.75-.09c0-3.67,0-7.34,0-11,0-.19.18-.38.5-.56A79.5,79.5,0,0,1,331.08,246.18Z"/><path class="cls-16" d="M868.18,241.47c.06,3.45.11,6.89.16,10.34l-.8.1c.07-1.66.17-3.32.19-5s-.05-3.25-.08-4.79c-1.18-.31-1.41.19-1.4.94q0,4.39.11,8.79l-.74,0c0-1.67.11-3.34.12-5s0-3.24-.07-4.8c-1.36-.19-1.34.53-1.33,1.17,0,2.87.07,5.73.11,8.6l-.75.05v-9.83h-1.18l-.71-.06-.84,0-1.06,0h-.82L858,242l-.83,0-.72.06h-1.18v9.83l-.75-.05c0-2.86.09-5.73.12-8.6,0-.77-.07-1.49-1.29-1.09v9.73l-1.13.06c.16-.27.45-.54.46-.81,0-3,0-6,0-9.11h-1.35c0-.24,0-.47,0-.7l16.16.1Z"/><path class="cls-7" d="M878.54,251.9c.05-4.05.12-8.09.13-12.14,0-3.25-.07-6.5-.11-9.75l1.09-.06V252Z"/><path class="cls-24" d="M867.57,241.43l-16.16-.1c.21-.27.43-.78.64-.78,5.21,0,10.41.11,15.62.19l0,.17C867.62,241.08,867.59,241.25,867.57,241.43Z"/><path class="cls-24" d="M864.47,230l1.2.09v9.75l-1.23.1Z"/><path class="cls-24" d="M855.29,230l1.12,0,0,9.92-1.18,0Z"/><path class="cls-24" d="M854.56,240l-1.23-.1v-9.75l1.19-.09C854.53,233.34,854.55,236.66,854.56,240Z"/><path class="cls-24" d="M863.74,240l-1.19,0c0-3.31,0-6.62,0-9.92l1.12,0Z"/><path class="cls-24" d="M851.37,242h1.35c0,3.1,0,6.1,0,9.11,0,.27-.3.54-.46.81l-.76-.07C851.44,248.6,851.41,245.31,851.37,242Z"/><path class="cls-24" d="M852,240c-.22-.4-.62-.8-.63-1.21-.07-2.63,0-5.26,0-7.9,0-.72.38-1,1.25-.74v9.62Z"/><path class="cls-18" d="M861,230c0,2.35,0,4.7-.11,7.06,0,.85-.11,1.71-.17,2.57l-.67-.07-.18-9.54Z"/><path class="cls-18" d="M859.11,230.06c-.06,3.18-.11,6.36-.17,9.54l-.67.07q-.09-3.53-.19-7c0-.86-.06-1.72-.1-2.58Z"/><path class="cls-16" d="M863.74,240l0-10,.76,0,0,9.94Z"/><path class="cls-16" d="M854.56,240c0-3.31,0-6.63,0-9.94l.77,0,0,10Z"/><path class="cls-16" d="M857.22,230l0,10-.75,0,0-9.92Z"/><path class="cls-16" d="M861.81,240l0-10,.81,0c0,3.3,0,6.61,0,9.92Z"/><path class="cls-4" d="M370.87,246.18h-1.69c0-3.54-.06-7.09-.05-10.64a4.57,4.57,0,0,1,.4-1.29h1a4.57,4.57,0,0,1,.4,1.29C370.94,239.09,370.9,242.64,370.87,246.18Z"/><path class="cls-4" d="M385.43,234.22a3.05,3.05,0,0,1,.41,1.05c0,3.17,0,6.35,0,9.52,0,1-.25,1.74-1.66,1.32a12.53,12.53,0,0,1-.21-1.53c0-2.86,0-5.72,0-8.57a10.14,10.14,0,0,1,.36-1.79Z"/><path class="cls-4" d="M375.19,246.14l-1.71.08V234.35c1.15-.26,1.81,0,1.79,1.38C375.21,239.2,375.21,242.67,375.19,246.14Z"/><path class="cls-4" d="M396.29,234.35v11.83h-1.67c0-3.54-.07-7.09-.06-10.64a4.57,4.57,0,0,1,.4-1.29Z"/><path class="cls-18" d="M386.36,233.67l7.69,0-.11.73-1.28,0-.66,0-1.28.12v11.72l-1.05,0V234.46l-1.3-.11-.67,0h-1.3Z"/><path class="cls-24" d="M381.41,234.35v11.72l-1.28.16c0-3.5,0-7-.07-10.51C380.05,234.74,380.3,234.15,381.41,234.35Z"/><path class="cls-18" d="M381.41,234.35c-1.11-.2-1.36.39-1.35,1.37.05,3.5.05,7,.07,10.51l-1,0V234.47l-1.27-.11c0-.24-.06-.48-.1-.71h5.72l-.06.68H382.1Z"/><path class="cls-15" d="M376.76,234.25c-1.06,0-1,.81-1,1.53l.06,10.44-.64-.08c0-3.47,0-6.94.07-10.41,0-1.35-.64-1.64-1.79-1.38l-.09-.56.47-.32,2.83.24C376.71,233.89,376.73,234.07,376.76,234.25Z"/><path class="cls-21" d="M368.52,246.22q0-5.92,0-11.87c0-.24.05-.48.07-.72l1,0c0,.2,0,.39,0,.59a4.57,4.57,0,0,0-.4,1.29c0,3.55,0,7.1.05,10.64Z"/><path class="cls-21" d="M371.54,234.35q0,5.94,0,11.87l-.66,0c0-3.54.07-7.09.06-10.64a4.57,4.57,0,0,0-.4-1.29c0-.2,0-.39,0-.59l1,0C371.49,233.87,371.52,234.11,371.54,234.35Z"/><path class="cls-21" d="M394,246.22c0-4,0-7.91,0-11.87,0-.24.08-.49.11-.73l.93,0c0,.2,0,.39,0,.59a4.57,4.57,0,0,0-.4,1.29c0,3.55,0,7.1.06,10.64Z"/><path class="cls-16" d="M373.39,233.79l.09.56v11.87h-.64c0-4,0-7.93,0-11.89Z"/><path class="cls-18" d="M368.58,233.63c0,.24,0,.48-.07.72l-1.28,0h-1.45l-.06-.65Z"/><path class="cls-18" d="M395,234.25c0-.2,0-.39,0-.59l1.32-.44c0,.37,0,.75,0,1.13Z"/><path class="cls-18" d="M385.43,234.22h-1.06l.06-.5h.94Z"/><path class="cls-4" d="M529.15,295.56H513.22l0-.51c1.66-.57,3.43-.21,5.15-.26s3.65,0,5.48,0h5.34Z"/><path class="cls-4" d="M525.39,305.62l-1.19,0c-.4-6.49-.25-8.32.88-9.43.77,1.57.32,3.16.39,4.68S525.42,304,525.39,305.62Z"/><path class="cls-24" d="M527.3,305.62h-1.18v-9.17c1.26-.32,1.29.4,1.28,1C527.38,300.2,527.34,302.91,527.3,305.62Z"/><path class="cls-24" d="M514.32,305.59l-1.18.06v-9.23c1.33-.25,1.29.57,1.28,1.28C514.4,300.33,514.35,303,514.32,305.59Z"/><path class="cls-24" d="M521.56,305.65l-1.18-.06q-.06-3.94-.11-7.89c0-.64,0-1.29,1.12-1.46.59,1.53.24,3.11.28,4.63S521.6,304.05,521.56,305.65Z"/><path class="cls-24" d="M523.47,305.64l-1.18,0c-.43-5.81-.22-8.39,1-9.48.61,1.63.26,3.21.31,4.72S523.51,304,523.47,305.64Z"/><path class="cls-24" d="M526.08,285.21h1.26c0,2.62,0,5.23.07,7.85,0,.68-.08,1.3-1.33,1Z"/><path class="cls-24" d="M524.17,285.23l1.25,0q0,4.31-.07,8.61c0,.11-.2.21-.57.56-.24-.47-.61-.85-.62-1.24C524.12,290.5,524.16,287.86,524.17,285.23Z"/><path class="cls-24" d="M522.25,285.22l1.26,0v8.9c-1.41.26-1.32-.57-1.32-1.27C522.19,290.29,522.22,287.75,522.25,285.22Z"/><path class="cls-24" d="M520.34,285.23l1.26,0v8.91c-1.35.26-1.33-.54-1.33-1.26C520.28,290.3,520.32,287.77,520.34,285.23Z"/><path class="cls-24" d="M513.1,285.19l1.26,0c0,2.54,0,5.07.07,7.61,0,.73,0,1.49-1.33,1.28Z"/><path class="cls-18" d="M517.74,305.58c0-3,.07-6,.1-8.95l1.07-.35c0,3.11,0,6.22,0,9.32Z"/><path class="cls-18" d="M515.83,305.6l.18-9,.85.06.09,8.95Z"/><path class="cls-18" d="M515.88,294.21l0-9,1.06,0v8.95Z"/><path class="cls-18" d="M517.77,294.18v-8.95l1.06,0c0,3,0,6,0,9Z"/><path class="cls-1" d="M588,262.7c0,.76-.09,1.53-.13,2.29l-.37,0-.18-2.35Z"/><path class="cls-24" d="M790.88,229.94l3.21.13v21.69h-3.43a7.7,7.7,0,0,1-.18-1.14c0-6.39,0-12.78,0-19.16A6.08,6.08,0,0,1,790.88,229.94Z"/><path class="cls-24" d="M823.17,230.07h3.47v7.44h-3.47Z"/><path class="cls-3" d="M806.37,236.78c-.13.89.49.82,1,.82,3,0,5.89,0,8.84,0,2.07,0,4.14-.06,6.21-.09,0,.39,0,.78,0,1.17l-15.2-.15c-.65,0-1.09.17-1,.94l-.74.11c-.31-.51-.46-1.1-1.33-1.07-3.15.12-6.31.15-9.46.21,0-.42,0-.83,0-1.24h10.24l.62-1.39Z"/><path class="cls-24" d="M823.14,238.69h3.6c-.12,2.07.51,4.09-.4,6.08h-3.2Z"/><path class="cls-5" d="M826.34,251.83c.14-.27.28-.53.43-.79,0,.29,0,.59,0,.88A.58.58,0,0,1,826.34,251.83Z"/><path class="cls-5" d="M826.77,246.28l-.43-.78a.5.5,0,0,1,.41-.09C826.75,245.7,826.76,246,826.77,246.28Z"/><path class="cls-4" d="M102.25,232.33a15.42,15.42,0,0,1,2.31-.37c2.62-.05,5.24,0,8,0l.19,1.63-9.33.15C102.43,233.74,102.24,233.14,102.25,232.33Z"/><path class="cls-4" d="M112.8,236.23c.31,1.18-.23,1.56-1.34,1.53-3.07-.06-6.15-.08-9.22-.12v0c-.1-1.13.42-1.52,1.54-1.49C106.79,236.24,109.8,236.21,112.8,236.23Z"/><path class="cls-3" d="M112.8,236.23c-3,0-6,0-9-.06-1.12,0-1.64.36-1.54,1.49l-.59-.2.18-5.58.41.45c0,.81.18,1.41,1.18,1.39l9.33-.15c0,.24,0,.49,0,.73H102.63c-.47.95-.21,1.38.63,1.4,1.67,0,3.34,0,5,0s3,0,4.54,0Z"/><path class="cls-3" d="M101.84,231.37v0Z"/><path class="cls-16" d="M101.1,434.25q0-10.71.05-21.42l.64-.08q0,3.66,0,7.32a13.6,13.6,0,0,0,.14,2.11c0,.1.55.12.85.18h.92l1,0,.89.06c1.14.16,1-.66,1-1.35,0-2.75,0-5.49,0-8.23l.54.05c0,2.7,0,5.39,0,8.09,0,.77-.08,1.66,1.38,1.59v-9.73H109c0,2.7,0,5.39,0,8.09,0,.95.08,1.78,1.28,1.87H113c1.22-.09,1.29-.92,1.28-1.88,0-2.7,0-5.41,0-8.12h.61c0,1.67-.12,3.34-.08,5a18.11,18.11,0,0,0,.24,4.95c.46-.22.82-.31.83-.41.13-3.15.23-6.31.34-9.46l.52-.14q0,4.89,0,9.77l.39.32.94-.15.07.68c-5,0-10,0-15,0a4.36,4.36,0,0,0-1.25.41l0,1.08c0,3.16,0,6.33,0,9.49Z"/><path class="cls-24" d="M134.31,420.36H130.7c0-2.55,0-5,0-7.5l3.65-.29Z"/><path class="cls-24" d="M114.2,412.78c0,2.71,0,5.42,0,8.12,0,1-.06,1.79-1.28,1.88v-10Z"/><path class="cls-24" d="M116.14,412.87c-.11,3.15-.21,6.31-.34,9.46,0,.1-.37.19-.83.41a18.11,18.11,0,0,1-.24-4.95c0-1.66,0-3.33.08-5Z"/><path class="cls-24" d="M110.28,422.78c-1.2-.09-1.28-.92-1.28-1.87,0-2.7,0-5.39,0-8.09l1.47-.18C110.4,416.12,110.65,419.45,110.28,422.78Z"/><path class="cls-24" d="M108.48,412.82v9.73c-1.46.07-1.37-.82-1.38-1.59,0-2.7,0-5.39,0-8.09Z"/><path class="cls-24" d="M111.51,412.57c.27.33.78.66.79,1,.06,2.7,0,5.39,0,8.09,0,.71-.42,1-1.25.65v-9.51Z"/><path class="cls-18" d="M105.66,412.8c0,3.2-.07,6.4-.11,9.6l-.89-.06q0-4.75-.07-9.51Z"/><path class="cls-15" d="M102.76,422.36l0-9.61,1,.06c0,3.19-.05,6.37-.08,9.55Z"/><path class="cls-18" d="M116.67,424.12l1.39-.36,0,1h-1.31C116.7,424.58,116.69,424.35,116.67,424.12Z"/><path class="cls-24" d="M511.75,486.93l-.82,0c-.64.06-1.27.18-1.9.18H485.1c-.56,0-1.11-.09-1.66-.14l-.83,0a15.41,15.41,0,0,1-1.65.18H456.54a13.84,13.84,0,0,1-1.43-.14c-.05-.71-.16-1.42-.16-2.14q0-18.71,0-37.42c0-.7.06-1.41.1-2.25.71-.07,1.32-.18,1.94-.18q41.14,0,82.29,0a1.81,1.81,0,0,1,0,.23q0,20.49.05,41a2.87,2.87,0,0,1-.16.69,11.34,11.34,0,0,1-1.64.22H513.17A13.65,13.65,0,0,1,511.75,486.93Zm-54.46-2.34H537V447.38H457.29Z"/><path class="cls-15" d="M172.49,433.89c-.06-2.22-.16-4.43-.16-6.65,0-4.68.1-9.36.16-14a7.48,7.48,0,0,1,.27,1.38q0,9,0,17.93A7.48,7.48,0,0,1,172.49,433.89Z"/><path class="cls-15" d="M171.87,412.58l-2.8.29C169.91,411.86,170.9,412.29,171.87,412.58Z"/><path class="cls-20" d="M71.61,274.46l.32-.3Z"/><path class="cls-1" d="M454.33,421.35v-7.12l0-1.8c.21-.81.42-1.61.62-2.42v15.61c-.2-.8-.4-1.59-.61-2.39Z"/><path class="cls-10" d="M450.72,412.84l0,9.92.48,1-.11.93-.92,0q0-7,0-13.93l.92,0,.1.92C451,412.14,450.86,412.49,450.72,412.84Z"/><path class="cls-5" d="M454.35,412.43l0,1.8-.17,0-.17,0Z"/><path class="cls-5" d="M454.33,421.35l0,1.88c-.14-.6-.29-1.2-.43-1.81A.68.68,0,0,1,454.33,421.35Z"/><path class="cls-24" d="M864.45,251.85c0-2.87-.09-5.73-.11-8.6,0-.64,0-1.36,1.33-1.17,0,1.56.08,3.18.07,4.8s-.08,3.34-.12,5Z"/><path class="cls-24" d="M855.29,251.9v-9.83h1.18v9.68Z"/><path class="cls-24" d="M853.37,251.89v-9.73c1.22-.4,1.3.32,1.29,1.09,0,2.87-.08,5.74-.12,8.6Z"/><path class="cls-24" d="M862.52,242.07h1.18v9.83l-1.18-.15Z"/><path class="cls-15" d="M859.91,242l1.06,0,.06,9.89h-1.15Z"/><path class="cls-15" d="M858,251.87,858,242l1.07,0,0,9.85Z"/><path class="cls-15" d="M861.78,251.84l0-9.83.71.06v9.68Z"/><path class="cls-15" d="M857.19,242c0,3.28,0,6.55,0,9.83l-.73-.09c0-3.23,0-6.45,0-9.68Z"/><path class="cls-18" d="M107.51,424.11l8.17.05c0,.18,0,.37,0,.56l-.91.08-.7,0-1.22,0h-2.55l-1.21,0-.71,0-.89-.06Z"/><path class="cls-8" d="M495.74,76.51l-.54.47c-.88,0-1.76-.06-2.64-.06H204.31c-.88,0-1.76,0-2.64,0l-.5-.46-.07-.1,3.6,0H493.35C494.15,76.42,494.94,76.48,495.74,76.51Z"/><path class="cls-10" d="M495.21,219.33l.53.46c-.87,0-1.75.08-2.63.08H204l-2.87,0-.05-.52.6,0c.8,0,1.59,0,2.39,0q144.39,0,288.76,0C493.61,219.39,494.41,219.35,495.21,219.33Z"/><path class="cls-12" d="M201.66,219.35l-.6,0c-.08-.87-.24-1.74-.24-2.6q0-69,0-138a15,15,0,0,1,.34-2.27l.5.46c0,1-.08,1.91-.08,2.87q0,68.44,0,136.89C201.59,217.6,201.63,218.47,201.66,219.35Z"/><path class="cls-12" d="M324,277.45c.28.21.73.37.79.63a6.62,6.62,0,0,1,.08,1.67v32.56c0,.78-.08,1.56-.12,2.44H311.54a8.26,8.26,0,0,1-.15-1.15q0-17.36,0-34.72c0-.31.06-.63.09-.95l.57.07v35.91h11.88V278.05Z"/><path class="cls-8" d="M312.05,278l-.57-.07a6.41,6.41,0,0,1,1.61-.47c3.62,0,7.24,0,10.87,0l0,.6Z"/><path class="cls-12" d="M311.54,362.43h13.13V399.7H311.54ZM323.82,399V363.1H312.1V399Z"/><path class="cls-14" d="M385.49,362.85a11.7,11.7,0,0,1,.28,1.84q0,16.51,0,33c0,.62-.1,1.24-.16,2H372.31a8.33,8.33,0,0,1-.27-1.52q0-17,0-34a6.54,6.54,0,0,1,.28-1.37l1.08,0a11.82,11.82,0,0,0-.42,2.26q0,15.81,0,31.64c0,.69.09,1.39.13,2.06h11.66c0-.57.1-.95.1-1.34q0-16.42,0-32.84a8.1,8.1,0,0,0-.43-1.78Z"/><path class="cls-10" d="M385.49,362.85l-1.08,0h-11l-1.08,0c.32-.16.65-.45,1-.45,3.74,0,7.49,0,11.23,0C384.85,362.4,385.17,362.69,385.49,362.85Z"/><path class="cls-14" d="M385.49,277.92a16.92,16.92,0,0,1,.29,2.09q0,16.19,0,32.37c0,.78-.08,1.56-.13,2.43H372.19c-.06-.8-.16-1.49-.16-2.19q0-16.42,0-32.85a11.82,11.82,0,0,1,.28-1.85l1.08,0a9.82,9.82,0,0,0-.42,2q0,16.16,0,32.3a13,13,0,0,0,.19,1.56h11.59c.05-.55.1-.93.1-1.32q0-16.39,0-32.78a7.78,7.78,0,0,0-.42-1.78Z"/><path class="cls-8" d="M385.49,277.92l-1.08,0h-11l-1.08,0c.32-.16.63-.46.95-.47,3.76,0,7.51,0,11.27,0C384.86,277.46,385.18,277.76,385.49,277.92Z"/><path class="cls-18" d="M101.82,423.74l4.79.34-.11.75c-1,0-.91.69-.9,1.33q0,4.08.05,8.14l-1.05,0c0-3,0-6-.1-9,0-.08-.21-.16-.32-.23s-.33.15-.33.23c0,3-.06,6-.09,9h-1.08c0-2.7,0-5.4,0-8.09,0-.62.12-1.35-.85-1.36Z"/><path class="cls-24" d="M112.89,424.8l1.22,0,0,9.47-1.27,0C112.88,431.15,112.89,428,112.89,424.8Z"/><path class="cls-24" d="M111,424.81h1.22l0,9.5H111Z"/><path class="cls-24" d="M109.13,424.82l1.21,0c0,3.17,0,6.35,0,9.52l-1.27,0C109.1,431.13,109.12,428,109.13,424.82Z"/><path class="cls-24" d="M107.53,424.74l.89.06c0,3.17,0,6.35,0,9.52l-1.24-.07c0-2.74-.07-5.48-.06-8.22A5.29,5.29,0,0,1,107.53,424.74Z"/><path class="cls-21" d="M106.51,434.31q0-4.74,0-9.48c0-.25.08-.5.11-.75l.9,0c0,.21,0,.42,0,.63a5.29,5.29,0,0,0-.39,1.29c0,2.74,0,5.48.06,8.22Z"/><path class="cls-16" d="M108.44,434.32c0-3.17,0-6.35,0-9.52l.71,0c0,3.16,0,6.31,0,9.47Z"/><path class="cls-2" d="M110.36,434.32c0-3.17,0-6.35,0-9.52H111l0,9.5Z"/><path class="cls-2" d="M112.26,434.31l0-9.5h.66c0,3.17,0,6.35,0,9.52Z"/><path class="cls-16" d="M114.14,434.29l0-9.47.7,0q0,4.74,0,9.48Z"/><path class="cls-2" d="M867.57,241.43c0-.18,0-.35.07-.52l.54.56Z"/><path class="cls-18" d="M373.39,233.79l-.57.55h-1.28c0-.24-.05-.48-.07-.72l2.39-.16Z"/><path class="cls-18" d="M370.51,233.66c0,.2,0,.39,0,.59h-1c0-.2,0-.39,0-.59Z"/><path class="cls-1" d="M805.59,239.58l.74-.11,2.27.11v4.15h-2.84C805.71,242.37,805.65,241,805.59,239.58Z"/><path class="cls-1" d="M806.37,236.78l-.7-.69V232.4h3v4.22Z"/><path class="cls-3" d="M116.67,422.5l.39.32Z"/><path class="cls-1" d="M457.29,484.59V447.38H537v37.21ZM458,484H536.3V448H458Z"/></svg>