<svg id="Layer_1" data-name="Layer 1" xmlns="http://www.w3.org/2000/svg" viewBox="0 0 950 600"><defs><style>.cls-1{fill:#262626;}.cls-2{fill:#e94c46;}.cls-3{fill:#e6312d;}.cls-4{fill:#e7322f;}.cls-5{fill:#504f4e;}.cls-6{fill:#e73533;}.cls-7{fill:#f7bdbf;}.cls-8{fill:#e94546;}.cls-9{fill:#1f1f1f;}.cls-10{fill:#454545;}.cls-11{fill:#ea534d;}.cls-12{fill:#e73631;}.cls-13{fill:#e8413c;}.cls-14{fill:#e73934;}.cls-15{fill:#e83e38;}.cls-16{fill:#fef5f5;}.cls-17{fill:none;stroke:#000;stroke-miterlimit:10;stroke-width:5px;}</style></defs><path class="cls-1" d="M433,440h-1.4l-.21-1.39a11.15,11.15,0,0,0,.1-1.15V361.3c0-.6-.05-1.2-.09-1.92H263.84v76.69c0,.85.07,1.7.1,2.54l-.21,1.39h-1.39a.79.79,0,0,0-.07-.43v-.94c0-.38.08-.77.08-1.15V360.87c0-.51-.1-1-.14-1.48H219.66v76.68c0,.85.07,1.7.1,2.54l-.21,1.39h-1.39a.79.79,0,0,0-.07-.43v-.94c0-.38.08-.77.08-1.15V361.06c0-.58-.1-1.16-.15-1.69H174.39c0,.8-.1,1.48-.1,2.17v75.25c0,.61.09,1.23.14,1.84l-.08.9L174,440h-.93l-.36-.45-.09-.92c0-.69.14-1.38.14-2.06V360.29c0-7.65,0-15.3-.07-22.94l1.61-.11v20.5H600.4v1.58H514.61a3.83,3.83,0,0,0-.74.19c0,.7-.1,1.38-.1,2.07v75.27c0,.61.09,1.22.14,1.84v.95a.35.35,0,0,0,0,.41h-1.86a.38.38,0,0,0,0-.41v-1a12.9,12.9,0,0,0,.14-1.38V361.08a14.2,14.2,0,0,0-.19-1.71H433v72.54c0,2.24.06,4.49.09,6.73v.94A.76.76,0,0,0,433,440Z"/><path class="cls-2" d="M12.14,188.58l202.68.1h3.49c-.08.56-.15,1.12-.23,1.68h-202c-.66,0-1.32.1-2.06.15v78.92l-1.46.16V193.06a16.44,16.44,0,0,0-.39-2.61Z"/><path class="cls-3" d="M513.93,439.57v-.95h86.55V422.2l-.06-62.92V337.94a12,12,0,0,0-.07-1.58,17.06,17.06,0,0,1,3.1-.55q38.91-.06,77.81,0c0,.48,0,1,.07,1.43l-76.48.05H602v100a20,20,0,0,0,.33,2.68h-1.86a7.23,7.23,0,0,0-1.72-.43Q556.33,439.55,513.93,439.57Z"/><path class="cls-4" d="M172.6,438.61l.09.92H16.88A18.79,18.79,0,0,0,14,440H12.6V271.18l1.41.14V436.75c0,.59.09,1.18.15,1.86Z"/><path class="cls-5" d="M14,271.32l-1.41-.14-.45-.34v-.93l.42-.33,1.46-.16c.93,0,1.85.11,2.78.11H94.93v22c0,.61-.05,1.22-.08,1.82h0l-1.66,0V271.2H15.61C15.07,271.21,14.54,271.28,14,271.32Z"/><path class="cls-6" d="M431.41,438.59l.21,1.39h-.46a13.2,13.2,0,0,0-2.42-.43H266.61a13.24,13.24,0,0,0-2.41.43h-.47l.21-1.39Z"/><path class="cls-7" d="M12.14,270.84l.45.34V440a10,10,0,0,1-.44-2.09v-167Z"/><path class="cls-8" d="M264.2,440a13.24,13.24,0,0,1,2.41-.43H428.74a13.2,13.2,0,0,1,2.42.43Z"/><path class="cls-8" d="M14,440a18.71,18.71,0,0,1,2.88-.43H172.69l.36.45Z"/><path class="cls-8" d="M513.93,439.57h84.79a7.23,7.23,0,0,1,1.72.43h-86.5A.36.36,0,0,1,513.93,439.57Z"/><path class="cls-6" d="M262.28,438.61v.94H222a9.53,9.53,0,0,0-2,.45h-.47l.21-1.39Z"/><path class="cls-7" d="M12.56,269.58l-.42.33V190.44a16.44,16.44,0,0,1,.39,2.61Q12.58,231.32,12.56,269.58Z"/><path class="cls-8" d="M433,440a.7.7,0,0,1,.07-.43h79a.38.38,0,0,1,0,.41Z"/><path class="cls-8" d="M218.09,439.55a.79.79,0,0,1,.07.43H174l.37-.47Z"/><path class="cls-8" d="M220,440a9.22,9.22,0,0,1,1.94-.43h40.31a.79.79,0,0,1,.07.43Z"/><path class="cls-9" d="M681.34,337.2c0-.48-.05-.95-.07-1.43s.07-.77.07-1.16V251.24a8.25,8.25,0,0,0-.17-1.2H558v86.32h42.33a11.86,11.86,0,0,0,.07,1.58H556.3V248.37H842.21V234.48c.27-.45.54-.89.8-1.34l1.1,1.33v14h85.6c.46,0,.92-.07,1.38-.1a13.25,13.25,0,0,0,.07,1.66c-.3,0-.61-.05-.92-.05H802c-.51,0-1,.11-1.52.16v85.57l-.09,1.55H799l-.1-1.43c0-.39.07-.77.07-1.16V251.3a8.25,8.25,0,0,0-.17-1.2H743V334c0,.61.09,1.22.15,1.84a4.12,4.12,0,0,1-.25,1.43h-1.5c-.06-.48-.11-1-.16-1.43s.09-1.08.09-1.62V250H682.85v84c0,.61.07,1.23.1,1.85a7,7,0,0,1-.13,1.43Z"/><path class="cls-9" d="M512.2,168.06v-1.13l1.65-.24c.54,0,1.08.08,1.62.08h80.29V120q0-19.86-.06-39.71V78.52c.25-.37.51-.73.77-1.1l.78,1.1v1.73c0,.31-.06.61-.06.92v85.51h82.29V119.73q0-19.74-.06-39.48c.05-.56.11-1.12.17-1.67h1.21l.17,1.67c0,.31-.06.61-.06.92v85.46h61.74V81.92c0-.54-.07-1.08-.11-1.62l.29-1.73H744c.08.55.15,1.1.23,1.66a7.43,7.43,0,0,1-.08,1.38v83.57a11.84,11.84,0,0,0,.15,1.46h58.51V89c0-2.94,0-5.88-.08-8.81l.24-1.66h1.22c.15.54.29,1.08.44,1.63,0,.53-.15,1.07-.15,1.6v83.36c0,.5.08,1,.14,1.61H928.09c1,0,2,.15,3,.23v.86a20.35,20.35,0,0,1-2.7.35H843.14v16.58h-1.39V168.24H516.47c-.85,0-1.69.07-2.54.11Z"/><path class="cls-2" d="M931.09,167.87V167c0-.46.1-.92.1-1.39V82c0-.52-.05-1-.09-1.8H804.58c-.15-.55-.29-1.09-.44-1.63H932.78V337.12a3.49,3.49,0,0,1-.85.19H801.07a2.69,2.69,0,0,1-.69-.06l.09-1.55c.31,0,.62.05.93.05H929.23c.58,0,1.17-.09,1.93-.15V250a13.09,13.09,0,0,0-.07-1.66c0-.93.1-1.85.1-2.78V170.88C931.19,169.88,931.12,168.87,931.09,167.87Z"/><path class="cls-10" d="M218.08,190.38c.08-.56.15-1.12.23-1.68h1.19c.1.58.19,1.16.28,1.74,0,.38-.08.77-.08,1.15v76.17c0,.53.05,1.05.08,1.7H350.56v-63.7c0-5.11-.06-10.21-.08-15.32l.27-1.74h1.19c.08.57.15,1.14.23,1.7,0,.31-.07.62-.07.93V268.2a10.5,10.5,0,0,0,.19,1.37H512c.13.56.27,1.12.4,1.69h-338v20.91l-1.81-.55a.26.26,0,0,1,.16-.25,20.54,20.54,0,0,0,.29-2.47V270l.74-.09h42.68a6.12,6.12,0,0,0,1.68-.49V218.69C218.15,209.23,218.11,199.8,218.08,190.38Z"/><path class="cls-11" d="M512.46,271.2c-.13-.57-.27-1.13-.4-1.69a11.13,11.13,0,0,0,.09-1.15V192.2c0-.58-.12-1.16-.19-1.84H352.16c-.08-.56-.15-1.13-.23-1.7H512.16v-20.6l1.73.29c0,8-.08,15.91-.08,23.86q0,38.73.07,77.44C513.92,270.72,513.89,271.57,512.46,271.2Z"/><path class="cls-11" d="M513.86,166.69l-1.65.24q0-42.17-.05-84.32v-4.1h83.55v1.73H513.86Z"/><path class="cls-11" d="M219.78,190.42c-.09-.58-.18-1.16-.28-1.74H350.75l-.27,1.74c-.85,0-1.7-.06-2.55-.06H222.33C221.48,190.36,220.63,190.4,219.78,190.42Z"/><path class="cls-11" d="M679.59,78.58c-.06.55-.12,1.11-.17,1.67H597.26V78.52h79.31Z"/><path class="cls-11" d="M681,80.25l-.17-1.67h62l-.29,1.73Z"/><path class="cls-11" d="M802.92,78.58l-.24,1.66H744.19c-.08-.56-.15-1.11-.23-1.66Z"/><path class="cls-3" d="M741.29,335.78c.05.47.1,1,.16,1.43H682.83c0-.47.09-.95.13-1.43Z"/><path class="cls-3" d="M798.93,335.77l.1,1.43H743c.07-.47.16-.95.24-1.43Z"/><path class="cls-12" d="M172.67,337.33l-53.92-.07H93.21V293.38l1.66-.05v42.42h31.92a2,2,0,0,0,.62-.24.21.21,0,0,0,.1-.27c.1-5.11.24-10.21.29-15.31,0-1.58-.19-3.16-.29-4.74V315h-7.7a.21.21,0,0,0-.27.09c-.1,3.61-.22,7.22-.27,10.83v8.57c0,.36-.52.71-.8,1.06a3.94,3.94,0,0,1-.61-1,7.22,7.22,0,0,1,0-1.61V293.11H104.43c-3.16,0-6.31.16-9.46.24,0-.6,0-1.21.08-1.82q28,0,56.1.07c7.18,0,14.37-.05,21.56-.07l1.81.55v43.76c0,.46-.06.92-.09,1.37Zm-.09-1.66V293.28H148v42.39Zm-43.15-20.93v20.89h8.09V314.74Zm-1.75-1.67V293.28h-8.32v19.79Zm9.87,0v-19.8h-8.1v19.81Zm1.77,22.56h7V314.81h-7Zm7-22.6v-19.8h-7V313Z"/><path class="cls-6" d="M433.08,438.61h79v1h-79Z"/><path class="cls-6" d="M174.43,438.61H218.1v.94H174.36C174.38,439.21,174.4,438.91,174.43,438.61Z"/><path class="cls-13" d="M843.18,184.82a15,15,0,0,1,.45,2.65q0,21.19.06,42.39c0,1.16.63,2.3.85,3.47.06.34-.28.76-.43,1.14l-1.1-1.33c-.26.45-.53.89-.8,1.34H757.59c-3.78,0-4-.25-4-4V185c.67,0,1.33-.1,2-.1H840.4c.47,0,.93-.05,1.39-.08Zm-31.36,47.93H842V186.52H811.82Zm-29.11,0V186.52H755.34v46.22ZM793.27,210v22.75h8V210Zm8.05-1.85V186.58h-8.08v21.54Zm8.74,24.63V210h-6.71v22.77Zm-18.6,0V210h-6.71v22.76Zm11.86-46.25v21.58H810V186.5Zm-18.61,0v21.6h6.71v-21.6Z"/><path class="cls-5" d="M173.79,269.85c1-.1,2-.3,3-.3h38.87c.84,0,1.68-.08,2.53-.13a6.12,6.12,0,0,1-1.68.49Q195.14,269.9,173.79,269.85Z"/><path class="cls-5" d="M172.75,291.29c0-6.78-.05-13.57-.05-20.35a3.22,3.22,0,0,1,.35-1v18.88A20.56,20.56,0,0,1,172.75,291.29Z"/><path class="cls-14" d="M513.84,291.69v45.42H365.29V291.69Zm-87.75,43.93h86V293.28h-86Zm-1.72,0V293.28H367v42.38Z"/><path class="cls-15" d="M571.19,236.24v-48H704.92v48Zm1.48-46.5v44.84H615V189.74Zm86.55,44.88V189.78H616.9v44.84ZM661,189.77v44.77h42.22V189.77Z"/><path class="cls-3" d="M352,291.82v45.31H218.31V291.82Zm-88,43.82h86.52V293.23H264Zm-44.2-42.45v42.43h42.46V293.19Z"/><path class="cls-16" d="M139.32,335.64V314.81h7v20.83Z"/><rect class="cls-17" width="950" height="600"/></svg>