<svg id="Layer_1" data-name="Layer 1" xmlns="http://www.w3.org/2000/svg" viewBox="0 0 950 600"><defs><style>.cls-1{fill:#47464a;}.cls-2{fill:#f18975;}.cls-3{fill:#817e80;}.cls-4{fill:#24252a;}.cls-5{fill:#515054;}.cls-6{fill:#ec604b;}.cls-7{fill:#c5c3c3;}.cls-8{fill:#9c9a9e;}.cls-9{fill:#f39a84;}.cls-10{fill:#333438;}.cls-11{fill:#424145;}.cls-12{fill:#8e8c90;}.cls-13{fill:#626063;}.cls-14{fill:#a8a5a5;}.cls-15{fill:#8e8d90;}.cls-16{fill:#59575d;}.cls-17{fill:#a29fa1;}.cls-18{fill:#777575;}.cls-19{fill:#dbd9da;}.cls-20{fill:#b0aeae;}.cls-21{fill:#4c4c4f;}.cls-22{fill:none;stroke:#000;stroke-miterlimit:10;stroke-width:5px;}</style></defs><path class="cls-1" d="M629.65,241.6a21.36,21.36,0,0,1,.36,2.51v37.15h296.4c0,.56.06,1.12.06,1.67V413.47c0,.24.27.46.42.69v.48c-.85.05-1.7.14-2.54.14H672.59v54.91H454.33V427.82c-.64-.09-1.16-.2-1.69-.23H75.55a24.6,24.6,0,0,1-2.87-.11,6.17,6.17,0,0,1,0-.86c1,0,2.07.1,3.11.1H452.86c.72,0,1.22.1,2,.17V469H671.47V415c-1.13-.31-1.88-.22-1.89,1.08l-.7.44-.21-2.74c2.41.13,4.83.36,7.24.36H925.77v-132H632.71c-1.91,0-3.83-.05-5.74-.1-.11,0-.22-.19-.46-.4l1.35-.54V242.5c1.25.28.65,1.29.66,1.94.05,6.32,0,12.63,0,18.94v16.07c0,.59-.39,1.45.73,1.77,0-.64.1-1.19.1-1.74V244c0-.63-.1-1.27-.15-1.9Z"/><path class="cls-2" d="M797.36,226.65h-1v-.58c0-.63.1-1.27.1-1.91V136.25c0-.68-.1-1.37-.15-2.09a8.07,8.07,0,0,0-1.1-.14l-32.82,0h-1.11c-.8,0-1.59-.06-2.39-.06h-94v-.94h214v1l-.49.49a14.78,14.78,0,0,0-2.72-.49H799.88c-.78,0-1.56.07-2.57.11V226A1.79,1.79,0,0,1,797.36,226.65Z"/><path class="cls-3" d="M24.28,384.42a9.36,9.36,0,0,1,2,.94c1,.86,1.89,1.9,2.88,2.8a3.44,3.44,0,0,0,1.2.46l-.05,2.18c-1.56-1.55-3.1-3.13-4.69-4.65a6.45,6.45,0,0,0-1.35-.77Z"/><path class="cls-4" d="M31,252.58v146c0,.88,0,1.76.05,2.63h-.63l-.12-10.43c0-.72,0-1.45.05-2.18l-.06-10.93c-.15-.26-.45-.52-.43-.77.12-1.48.44-3,.44-4.44q0-59.06.05-118.11c0-.9-.68-2.08.61-2.73Z"/><path class="cls-1" d="M30.44,401.23h.63l36.36.07h3.83c.6,0,.86.32.61.92H32.79a10.07,10.07,0,0,1-1.9-.07C30.69,402.05,30.59,401.53,30.44,401.23Z"/><path class="cls-4" d="M71.23,402.19h.64L72,421.61v5a3.37,3.37,0,0,1-.07.83c-.19-.12-.37-.25-.55-.38l-.09-20.36C71.28,405.23,71.25,403.71,71.23,402.19Z"/><path class="cls-1" d="M71.38,427.1c.18.13.36.26.55.38C71.74,427.36,71.56,427.23,71.38,427.1Z"/><path class="cls-1" d="M502.1,182.44v-2H200.83l-.9-.37c.22-.16.43-.45.66-.47.71-.07,1.44,0,2.16,0H502.89v32.56h95a21.64,21.64,0,0,1,2.55.3l-.49.42c-1,0-1.91-.13-2.86-.13H504.87c-.88,0-1.75,0-2.63-.05V194.37C502.19,190.37,502.14,186.41,502.1,182.44Z"/><path class="cls-5" d="M31,252.58l-.06-.94c.64,0,1.27-.09,1.91-.09H199.66a1.11,1.11,0,0,1,.29-.14v.08l-.06.92c-1,0-1.92.06-2.88.06H34.15C33.12,252.51,32.08,252.56,31,252.58Z"/><path class="cls-6" d="M878.45,134.51l.49-.49v92.42a14.37,14.37,0,0,1-1.73.23H797.32V226c1,0,1.92.1,2.87.1h77.72l.47-.5V137.14C878.41,136.26,878.43,135.39,878.45,134.51Z"/><path class="cls-6" d="M761.36,226.65H668c-.88,0-1.76,0-2.63-.05v-.51l.07-.07h93.92a17.6,17.6,0,0,0,1.92-.07Z"/><path class="cls-6" d="M664.87,134h.61c0,.88-.07,1.76-.07,2.63v86.75c0,.88,0,1.75.05,2.63l-.07.07h-.51V135.67A15.49,15.49,0,0,1,664.87,134Z"/><path class="cls-4" d="M199.93,180.07l.9.37c-.08.85-.25,1.71-.25,2.57V248.9c0,.87-.06,1.75-.09,2.63H200v-.08a.34.34,0,0,0,0-.34c0-.56-.07-1.11-.07-1.67V181.5A6.83,6.83,0,0,1,199.93,180.07Z"/><path class="cls-6" d="M796.38,226.06v.58h-34V226Z"/><path class="cls-2" d="M762.34,226v.62h-1V226a.85.85,0,0,1,.09-.38h.81A.86.86,0,0,1,762.34,226Z"/><path class="cls-4" d="M25.73,381c.44.89-.19.92-1,1.11l.48-1.08Z"/><path class="cls-1" d="M614.28,226.24l.6.6-.48.36-.48-.48Z"/><path class="cls-1" d="M614.88,226.84l.48.48-.48.36-.48-.48Z"/><path class="cls-1" d="M615.36,227.32l.48.48-.48.36-.48-.48Z"/><path class="cls-1" d="M615.84,227.8l.48.48-.48.36-.48-.48Z"/><path class="cls-1" d="M616.32,228.28l.48.48-.48.36-.48-.48Z"/><path class="cls-1" d="M616.8,228.76l.48.48-.48.36-.48-.48Z"/><path class="cls-1" d="M617.28,229.24l.48.48-.48.36-.48-.48Z"/><path class="cls-1" d="M617.76,229.72l.48.48-.48.36-.48-.48Z"/><path class="cls-1" d="M618.24,230.2l.48.49-.48.35-.48-.48Z"/><path class="cls-1" d="M199.93,251.1a.34.34,0,0,1,0,.34,1.11,1.11,0,0,0-.29.14Z"/><path class="cls-1" d="M629.16,241.12l.49.48-.4.49-.45-.5Z"/><path class="cls-1" d="M628.68,240.64l.48.48-.36.47-.48-.48Z"/><path class="cls-1" d="M600.47,212.44l.49.49-.48.36-.5-.43Z"/><path class="cls-1" d="M601,212.93l.48.48-.48.36-.48-.48Z"/><path class="cls-1" d="M628.2,240.16l.48.48-.36.47-.48-.48Z"/><path class="cls-1" d="M601.44,213.41l.48.48-.48.36-.48-.48Z"/><path class="cls-1" d="M627.72,239.68l.48.48-.36.47-.48-.47Z"/><path class="cls-1" d="M601.92,213.89l.48.48-.48.36-.48-.48Z"/><path class="cls-1" d="M602.4,214.37l.48.48-.48.36-.48-.48Z"/><path class="cls-1" d="M602.88,214.85l.48.48-.48.36-.48-.48Z"/><path class="cls-1" d="M603.36,215.33l.48.48-.48.36-.48-.48Z"/><path class="cls-1" d="M603.84,215.81l.48.48-.48.36-.48-.48Z"/><path class="cls-1" d="M604.32,216.29l.48.48-.48.36-.48-.48Z"/><path class="cls-1" d="M604.8,216.77l.48.48-.48.36-.48-.48Z"/><path class="cls-1" d="M627.24,239.2l.48.48-.36.48-.48-.48Z"/><path class="cls-1" d="M626.76,238.72l.48.48-.36.48-.48-.48Z"/><path class="cls-1" d="M605.28,217.25l.48.48-.48.36-.48-.48Z"/><path class="cls-1" d="M626.28,238.24l.48.48-.36.48-.48-.48Z"/><path class="cls-1" d="M605.76,217.73l.48.48-.48.36-.48-.48Z"/><path class="cls-1" d="M625.8,237.76l.48.48-.36.48-.48-.48Z"/><path class="cls-1" d="M606.24,218.21l.48.48-.48.36-.48-.48Z"/><path class="cls-1" d="M625.32,237.28l.48.48-.36.48-.48-.48Z"/><path class="cls-1" d="M624.84,236.8l.48.48-.36.48-.48-.48Z"/><path class="cls-1" d="M606.72,218.69l.48.48-.48.36-.48-.48Z"/><path class="cls-1" d="M624.36,236.32l.48.48-.36.48-.48-.48Z"/><path class="cls-1" d="M607.2,219.17l.48.48-.48.36-.48-.48Z"/><path class="cls-1" d="M607.68,219.65l.48.48-.48.36-.48-.48Z"/><path class="cls-1" d="M623.88,235.84l.48.48-.36.48-.48-.48Z"/><path class="cls-1" d="M608.16,220.13l.48.48-.48.36-.48-.48Z"/><path class="cls-1" d="M608.64,220.61l.48.48-.48.36-.48-.48Z"/><path class="cls-1" d="M609.12,221.09l.48.47-.48.37-.48-.48Z"/><path class="cls-1" d="M609.6,221.56l.48.48-.48.37-.48-.48Z"/><path class="cls-1" d="M623.4,235.36l.48.48-.36.48-.48-.48Z"/><path class="cls-1" d="M610.08,222l.48.48-.48.37-.48-.48Z"/><path class="cls-1" d="M610.56,222.52l.48.48-.48.37-.48-.48Z"/><path class="cls-1" d="M622.92,234.88l.48.48-.36.48-.48-.48Z"/><path class="cls-4" d="M29.83,377.72H29l.57-.54Z"/><path class="cls-4" d="M29.1,377.67v.56h-.57Z"/><path class="cls-1" d="M622.44,234.4l.48.48-.36.48-.48-.48Z"/><path class="cls-4" d="M28.62,378.15v.56h-.57Z"/><path class="cls-4" d="M28.14,378.63v.56h-.57Z"/><path class="cls-4" d="M27.66,379.11v.56h-.57Z"/><path class="cls-4" d="M27.18,379.59v.56h-.57Z"/><path class="cls-4" d="M26.7,380.07v.56h-.57Z"/><path class="cls-4" d="M26.22,380.55v.56h-.57Z"/><path class="cls-1" d="M622,233.92l.48.48-.36.48-.48-.48Z"/><path class="cls-1" d="M611,223l.48.48-.48.37-.48-.48Z"/><path class="cls-1" d="M621.48,233.44l.48.48-.36.48-.48-.48Z"/><path class="cls-1" d="M621,233l.48.48-.36.48-.48-.48Z"/><path class="cls-1" d="M611.52,223.48l.48.48-.48.37-.48-.48Z"/><path class="cls-1" d="M612,224l.48.48-.48.36-.48-.47Z"/><path class="cls-1" d="M620.52,232.48l.48.48-.36.48-.48-.48Z"/><path class="cls-1" d="M612.48,224.44l.48.48-.48.36-.48-.48Z"/><path class="cls-1" d="M613,224.92l.48.48-.48.36-.48-.48Z"/><path class="cls-1" d="M620,232l.48.48-.36.48-.48-.48Z"/><path class="cls-1" d="M613.44,225.4l.48.49-.48.35-.48-.48Z"/><path class="cls-1" d="M613.92,225.89l.36.35-.36.48-.48-.48Z"/><path class="cls-2" d="M664.88,226.14h.51v.51Z"/><path class="cls-1" d="M619.56,231.52l.48.48-.36.48-.48-.48Z"/><path class="cls-1" d="M619.07,231l.49.48-.36.48-.48-.48Z"/><path class="cls-1" d="M618.72,230.69l.35.35-.35.48-.48-.48Z"/><path class="cls-7" d="M618.24,231l.48.48.48.48.48.48.48.48.48.48.48.48.48.48.48.48.48.48.48.48.48.48.48.48.48.48.48.48.48.48.48.48.48.48.48.48.48.48.48.47.48.48.48.48.45.5c0,.63.15,1.27.15,1.9v35.49c0,.55-.06,1.1-.1,1.74-1.12-.32-.73-1.18-.73-1.77v-35c0-.65.59-1.66-.66-1.94H628l-.49-.49h0l-.5-.49h0l-.5-.49h0l-.5-.49h0l-.5-.49h0l-.5-.49h0l-.5-.49h0l-.5-.49h0l-.5-.49h0l-.5-.49h0l-.5-.49h0l-.5-.49h0l-.5-.49h0l-.5-.5h0l-.5-.5h0l-.5-.5h0l-.5-.5h0l-.5-.5h0l-.5-.5h0l-.5-.5h0l-.5-.5h0l-.5-.5h0l-.5-.5h0l-.5-.5h0l-.5-.5h0l-.5-.5h0l-.5-.5h0l-.5-.5h0l-.5-.5h0l-.5-.5h0l-.5-.49h0l-.5-.49h0l-.5-.49h0l-.5-.49h0l-.5-.49h0l-.5-.49h0l-.5-.49h0l-.5-.49h0l-.5-.49h0l-.49-.49h0l-.49-.49h0l-.49-.49h0l-.49-.49h0l-.49-.49h0l-.49-.49h0l-.49-.49h0l-.49-.5h0l-.49-.5h0l-.49-.5h0l-.49-.5h0l-.49-.5h0l-.49-.5h0l-.49-.5h0l-.49-.5h0l-.49-.5h0l-.49-.5h0l-.49-.5h0l-.49-.5h0l-.26-.56a16.58,16.58,0,0,0-2.72-.44h-92c-.95,0-1.91-.07-2.86-.1v-.87c.88,0,1.75.05,2.63.05h92.25c1,0,1.91.08,2.86.13l.5.43.48.48.48.48.48.48.48.48.48.48.48.48.48.48.48.48.48.48.48.48.48.48.48.48.48.48.48.48.48.48.48.48.48.48.48.48.48.48.48.48.48.48.48.48.48.48.48.47.48.48.48.48.48.48.48.48.48.48.48.48.48.48.48.48.48.48.48.48.48.48.48.48Z"/><path class="cls-8" d="M668.67,466.37l.06-26.52V419.07c0-.87.1-1.74.15-2.61l.7-.44c0,.71.09,1.43.09,2.14v46a18.29,18.29,0,0,1-.28,2.33Z"/><path class="cls-9" d="M761.34,143.6c0-3.18,0-6.36-.05-9.54h1.11c-.06,3.19-.11,6.38-.17,9.57Z"/><path class="cls-10" d="M668.77,412.44l.76.54-.79.48c-5.67,0-11.34-.13-17-.14H601.16v-21H563.75V413.2H499.42V392.32H457.66V464a16.1,16.1,0,0,0,.38,2.49.76.76,0,0,0,0,.3c-.33-.1-.91-.16-.94-.31a12.79,12.79,0,0,1-.1-2.14V427.2a21.12,21.12,0,0,0-.33-2.5l.12-.82a7.5,7.5,0,0,0,.21-1.15V393.55a7.93,7.93,0,0,0-.25-1.36H441.32l-.48.4c0,4-.06,8-.06,12,0,6.39.05,12.77.08,19.16l-.1.95a1.34,1.34,0,0,1-.4,0l-.37-1.4v-31H422.41v31.47l-.35.88-.21.05-.2-.08-.14-.49.06-31.52-.47-.43H380.91a1.85,1.85,0,0,0-.47.08.62.62,0,0,0-.19.12l-.18.21c0,.22-.06.45-.07.67v29.18a7.75,7.75,0,0,0,.31,1.58c-.06.05-.17.1-.17.14a2.7,2.7,0,0,0,.14.4l-.87.15c-.07-.34-.13-.68-.2-1V392.3H357.43v31.42l-.15,1-.84-.07v-.73a11.3,11.3,0,0,0,.17-1.41V394c0-.54-.1-1.08-.17-1.77H336.72l-.49.44v31.12c0,.32-.07.63-.1.95l-.84-.05v-.79a11.69,11.69,0,0,0,.11-1.19V393.94c0-.53-.07-1.07-.12-1.75H291.61l-.52.42h-.88a11.23,11.23,0,0,0-2-.39H267.14c-.45,0-.91.06-1.38.1V407h24.29l.95.05V408h-.87c-.7-.06-1.41-.17-2.12-.17H237.4v16l-.1.95h-.84v-.81c0-.4.12-.79.12-1.19V392.31l.28-.61c.79,0,1.59-.06,2.38-.07,2.48,0,5.15.49,7.37-.27s3.82-2.8,5.72-4.26c.5-.39,1.07-.72,1.61-1.07-1.32,2.25-3.73,3.29-5.48,5.59h193c19.26,0,38.53-.05,57.79,0,2.2,0,3.87-.4,5-2.31l.45.46-.84,1.57a2.44,2.44,0,0,0,.46.14l42.93.11a1.46,1.46,0,0,1,.46.1.3.3,0,0,1,.12.17,2.29,2.29,0,0,1,0,.37H534.65a14,14,0,0,0-2.24.39.86.86,0,0,0-.32,0l-2.48-.16-.86-.2-.76.09-1.15-.11h-1.53a.43.43,0,0,0-.42-.07h-2.57a.41.41,0,0,0-.41.07h-1.54l-1.28.21a.31.31,0,0,0-.41.11l-4-.1a39.46,39.46,0,0,0-10.3.12v19.9h10.3l1.84.2h3l1-.36h.19l.18-.05c.53.54,1.05.63,1.57,0h.3l1.41.39h.7l1.38-.39.18.05h.18l1,.36h3l1.43-.36h.32a9.69,9.69,0,0,0,2,.39h26.62c.54,0,1.09,0,1.83-.09v-21h88.34c.08,7.08,0,14,.08,21h15.88A12.1,12.1,0,0,0,668.77,412.44Zm-66.92.06h24.5V392.32h-24.5Zm48.58-20.21H627.37v20.22h23.06Zm-412.69-.06c-.49,1.55-.6,11.74-.15,14.56h27.09V392.23Zm262.52,0c-.47,3.17-.34,18.75.17,20.49h1.39c.47,0,1.07-.06,1.58-.08.44-3.3.32-18.7-.15-20.41Z"/><path class="cls-5" d="M106.25,424.62H105v-8.26H82v7.3l.28.93h-8.1V399.34h-41l.33-1.35h.16l.12-.1a11,11,0,0,0,2.4.54H75c.62,0,1.23-.1,2-.17v-16.8h32.13c.71-1.38-.37-3,1-4.28v5.07l-4.1.24v41.16ZM77.8,398.29H105V382.51H77.8Zm4.2,9.92h23v-8.72H82Zm-1,15.87V399.46H75v24.62Zm24-8.74v-6.12H82.07v6.1Z"/><path class="cls-11" d="M122.2,254.47h.89v.79c-.07.87-.19,1.74-.2,2.6v25.63c-.13.69.29.7.78.62H163.9l1.38.07a.68.68,0,0,1,0,.4l-.89.5c-3.45-.54-6.9-.11-10.47-.26v12.84l-.07.82.42.51h10.88l-.79.85c-3.24-.06-6.47-.15-9.71-.17-.94,0-.87.66-.54,1.55h7.25c1,0,2-.2,3-.3l.78,1.07H153.77l.55,1.44v.36a.94.94,0,0,0-.31,1.29.93.93,0,0,0,.25.27l-.29,1c-.11.73,0,1.25.94,1.23,3.17-.08,6.35-.14,9.52-.21l.8.85H153.78l.54,1.43a3.09,3.09,0,0,0,0,.43,1.15,1.15,0,0,0,0,1.87,3.23,3.23,0,0,0,0,.44l-.44,1.43h11.35l-.8.85c-3.17-.06-6.35-.12-9.52-.2-.92,0-1,.5-.95,1.23l.3,1c-.57.54-.47,1,.06,1.55v.36l-.45,1.45h11.35l-.78.87c-1.76-.05-3.51-.13-5.26-.15s-3.44,0-5.06.06c-.34,1.08-.12,1.58.76,1.56,3.18,0,6.37-.13,9.55-.2l.79.85h-.88c-1.75,0-3.5-.07-5.26-.07s-3.42,0-5.05.07c-.31,1.46.5,1.38,1.23,1.38l9.08-.08h.88l-.76,1.07A5.29,5.29,0,0,0,163,325h-9v1.24l.31,1a1,1,0,0,0-.17,1.4.91.91,0,0,0,.17.17v.36l-.34,1.4-.64.61c0-.88-.1-1.75-.1-2.63V285h-7.7v45.31a3.1,3.1,0,0,1-.44,1.06l-.46-.08v-30.7H122.87v28.05c0,.88-.11,1.75-.16,2.62l-.65-.65V315.75l-.09-1.31H111.68a.42.42,0,0,0-.37-.12c.12-.17.25-.34.37-.52h10.38l.07-1.25v-3.09l-.07-1.25H111.68l-.47-.13.47-.5H122l.09-1.31v-3l-.43-1.42v-.41l.37-1.73.07-.67.13-2.21H144.1l.47-.22V284.81H122.1V255.46Zm22.42,43.27h-21.7l.1,1.77h21.6Z"/><path class="cls-12" d="M122.2,254.47l-.1,1c-.72-.05-1.43-.13-2.15-.13H36.23c-.7,0-1.4.06-2.35.11V394.8c0,1-.1,2.07-.15,3.1l-.12.1h-.16a15,15,0,0,1-.36-2.31V256.85c0-.71.08-1.42.13-2.27a16,16,0,0,1,1.68-.18h86.36A7.72,7.72,0,0,1,122.2,254.47Z"/><path class="cls-13" d="M203.27,182.55c.72,0,1.44-.07,2.15-.07H501.2v.91h-.36a27.23,27.23,0,0,0-3-.32H206.5c-1,0-2.08,0-3.12.06Z"/><path class="cls-14" d="M106.25,424.62l-.26-.95c.71.05,1.43.16,2.14.16H236.44v.81c-.87,0-1.75.13-2.62.13h-125C108,424.76,107.13,424.67,106.25,424.62Z"/><path class="cls-15" d="M165.28,284.21l-1.38-.07a8.11,8.11,0,0,0,.48-2V257a14.78,14.78,0,0,0-.22-1.74H123.08v-.79c.71,0,1.43-.11,2.14-.11h75c.72,0,1.43.06,2.15.09l.38,1c-.4,0-.79-.12-1.19-.12H166.78a8.65,8.65,0,0,0-1.42.26v3Q165.32,271.39,165.28,284.21Z"/><path class="cls-16" d="M458.06,466.82a.76.76,0,0,1,0-.3c.95,0,1.91-.09,2.87-.09H665.79c1,0,1.92,0,2.88-.06l.72.1c-.25.15-.49.41-.75.43a15.38,15.38,0,0,1-1.92,0h-206C459.82,466.92,458.94,466.86,458.06,466.82Z"/><path class="cls-16" d="M202.73,255.46l-.38-1a14.77,14.77,0,0,0,.39-2.47V184.86c0-.76-.56-1.74.48-2.33l.11.6c0,.88-.07,1.75-.07,2.63v139.6c0,.8,0,1.6.06,2.39l-.57.05v-2.88Z"/><path class="cls-14" d="M237.3,424.67l.1-.95c.63,0,1.27.11,1.9.11h48.88c.63,0,1.27-.07,1.9-.11l.08,1c-.56,0-1.11.08-1.67.08H239C238.41,424.76,237.85,424.7,237.3,424.67Z"/><path class="cls-17" d="M335.3,423.83v.79c-.55.05-1.1.13-1.66.13h-41.4c-.4,0-.8-.05-1.19-.08a4.35,4.35,0,0,1,.07-.95c.47,0,.95.13,1.42.13Z"/><path class="cls-18" d="M380.28,424.54a2.7,2.7,0,0,1-.14-.4l.17-.14,41.2.12.14.49q-19.38,0-38.75.06C382,424.67,381.15,424.59,380.28,424.54Z"/><path class="cls-19" d="M501.19,183.41v-.91l.88-.06c0,4,.09,7.93.1,11.9v19.2h-.83c0-1-.11-2.06-.11-3.1Q501.22,196.91,501.19,183.41Z"/><path class="cls-20" d="M105,423.83v.82H82.29l-.28-.93c1,0,1.91.11,2.87.11Z"/><path class="cls-20" d="M357.28,424.69l.15-1c3.59,0,7.18.12,10.77.11s7.34-.08,11-.13c.07.34.13.68.2,1Z"/><path class="cls-14" d="M336.15,424.67l.1-.95c.87,0,1.74.1,2.6.11l17.6.06v.73c-3.5.05-7,.12-10.5.13C342.68,424.76,339.41,424.7,336.15,424.67Z"/><path class="cls-18" d="M440,423.24l.37,1.4h-18.3l.35-.88c.15.06.3.18.44.18,5.27,0,10.54.06,15.8,0C439.1,424,439.55,423.49,440,423.24Z"/><path class="cls-5" d="M291.13,423.72c0,.32-.05.63-.07.95h-.9c0-.32-.05-.64-.08-1q0-7.91.05-15.8H291Z"/><path class="cls-7" d="M456.79,423.88l-.12.82H440.76l.1-.95Z"/><path class="cls-1" d="M200,251.52h.5c.2.54.2,1-.56.91Z"/><path class="cls-2" d="M878,226.12l.47-.5Z"/><path class="cls-9" d="M761.44,225.65v-10H680.16c-3.38,0-3.31.25-3.3-3.21v-30c0-.8.09-1.59.14-2.38h.76V214.4c3.52.49,81.66.34,83.55-.15V147c0-.79-.06-1.59-.09-2.39l1-.06c0,.72.09,1.43.09,2.15v77a17.33,17.33,0,0,1-.07,1.91Z"/><path class="cls-21" d="M792,365.74c.2-.33.37-.93.58-.94,1.27-.09,2.54-.05,4.07-.05v9.92h26.93v-12h-7.22c-.07-1.22-.14-2.29-.22-3.64h7.94V345.62H808.45l-.47.5.26.87-.35.37-1-1.63h-10v5.94c3.62.4,7.31-.15,10.93.61-1.73.65-3.51.43-5.27.47s-3.65,0-5.62,0V359h10.88c-1.41.93-12.89,1.13-16.07.52V336.41H824v-10h96.11c1,0,1.92-.06,2.87-.09l.67.12v.78l-.69.13c-.56,0-1.12-.05-1.68-.05H825v9h4v42.2c-.62,0-1.1.1-1.57.1H793.89a4.57,4.57,0,0,1-1.43-.07c-.23-.07-.32-.55-.48-.85h35.45a4.9,4.9,0,0,0,1-.19V360H817.05c.07.7.13,1.22.19,1.88h7.32v13.63H795.88v-9.83h-3.19Zm15.45-22.09h.63c-.22,1.31.7,1.18,1.49,1.18h12.7c.6,0,1.21-.06,1.81-.1v-7.57H818.5a55.12,55.12,0,0,0-5.75,0c-1.68.17-3.56-.88-5,.7-1.61-1.58-3.59-.53-5.39-.72a51.38,51.38,0,0,0-5.41,0v7.7h9.37c.85,0,1-.62,1.11-1.24Zm-14.72-6.39v21.6h3.09v-21.6Zm35.72,7.48v-7.46h-3.27v7.46Zm0,14.1v-5.92h-3.27v5.92Zm0-7.12v-6H825.2v6Z"/><path class="cls-3" d="M923.71,326.47l-.67-.12V285c-.59-.08-1.12-.2-1.64-.22H653.17c-1,0-2.08,0-3.12-.06a.35.35,0,0,1-.07-.4c.87,0,1.75-.11,2.63-.11H923.75c.07.82.18,1.44.18,2.06v38.61C923.88,325.41,923.81,325.94,923.71,326.47Z"/><path class="cls-21" d="M892.57,369.55c0-3,.12-6.06.13-9.09V335.63h27.74c.87,0,1.75-.1,2.62-.15l.73.09a4.85,4.85,0,0,0,.05.85l-.67.48a8.13,8.13,0,0,0-1.76-.38H895.06c-.52,0-1,.08-1.58.13v26.13H923l1,.09-.06.87-.87.09a9.3,9.3,0,0,0-1.18-.16H895.06a8.36,8.36,0,0,0-1.5.23,4.23,4.23,0,0,0-.11.62V410a5.47,5.47,0,0,0,.35,1.32v.39H877.44c-1.25,0-2.51,0-3.76-.06a.37.37,0,0,0,0-.29,2.64,2.64,0,0,1,.4-.12h18.51c0-.72.11-1.34.12-2V371.19C892.7,370.66,892.62,370.1,892.57,369.55Z"/><path class="cls-18" d="M669.74,411.22c.8,0,1.6.06,2.39.06H853c.8,0,1.6,0,2.4-.06v.66c-.8,0-1.6-.05-2.4-.05H672.16c-.8,0-1.59,0-2.39.05Z"/><path class="cls-12" d="M893.79,411.73v-.39c.87,0,1.75-.09,2.63-.09h26.64V363.82l.87-.09v46.53a12.7,12.7,0,0,1-.18,1.51c-.7,0-1.32.1-1.93.1h-25.4C895.54,411.86,894.67,411.78,893.79,411.73Z"/><path class="cls-4" d="M500.9,214.11a.35.35,0,0,1,0-.43l.54-.17h.83c1,0,1.91.1,2.86.1h92a16.58,16.58,0,0,1,2.72.44l-.79.1H501.44Z"/><path class="cls-16" d="M598.68,217.07c-.88,0-1.76-.06-2.63-.06H504.27c-.95,0-1.91.11-2.86.17l-.3-.59.29-.14c1,0,2.08.06,3.12.06H596c.88,0,1.75.06,2.63.1A1.19,1.19,0,0,0,598.68,217.07Z"/><path class="cls-4" d="M650,284.27a.35.35,0,0,0,.07.4c-.07.94-.21,1.89-.21,2.84V324.6c0,.79-.09,1.58-.13,2.37l-.67-.66V284.74l.12-.5Z"/><path class="cls-21" d="M855.36,411.88V370a.61.61,0,0,0,.07-.4V369h.91v33.65c0,2.87,0,5.74.08,8.61v.6Z"/><path class="cls-13" d="M669.74,411.22v.66c-.17.51-.22,1.23-1,.61v-30l-4-.21c1.46-.91,1.88-.94,5-.59Z"/><path class="cls-18" d="M625.06,308.14V243.87h.46v64.28Z"/><path class="cls-3" d="M924,362.86l-1-.09c0-3.92,0-7.83.07-11.74q.06-7.06.11-14.13l.67-.48q0,9.88.1,19.77C924,358.41,924,360.64,924,362.86Z"/><path class="cls-13" d="M649,326.31l.67.66a3.26,3.26,0,0,1-1,.37H626.51c-.63,0-1.57.29-1.37-1l.53-.07Z"/><path class="cls-18" d="M649.11,284.24l-.12.5H627.23v-.5Z"/><path class="cls-18" d="M625.67,326.32l-.53.07-.06-14.58c0-.88-.07-1.75-.1-2.62l.57-.08Z"/><path class="cls-18" d="M856.42,411.85v-.6h2.84l14.44.11a.37.37,0,0,1,0,.29l-12.29.14Z"/><path class="cls-5" d="M625.55,309.11l-.57.08-6.53,2.49-.26-.63,6.87-2.91h.51C625.56,308.47,625.56,308.79,625.55,309.11Z"/><path class="cls-3" d="M923.79,335.57l-.73-.09v-8.1l.69-.13C923.74,330,923.76,332.8,923.79,335.57Z"/><path class="cls-1" d="M500.9,214.11l.54.11v2.23l-.29.14-.22-.05Z"/><path class="cls-3" d="M598.68,217.07a1.14,1.14,0,0,1,0-.45l.51.89Z"/><path class="cls-1" d="M599,214.2l.79-.1.26.56Z"/><path class="cls-1" d="M612.07,226.64l.5.49Z"/><path class="cls-3" d="M609.25,227.59l-.51-.52Z"/><path class="cls-1" d="M612.55,227.12l.5.49Z"/><path class="cls-3" d="M609.73,228.07l-.51-.52Z"/><path class="cls-1" d="M613,227.6l.5.49Z"/><path class="cls-3" d="M610.21,228.55l-.51-.52Z"/><path class="cls-1" d="M613.51,228.07l.5.5Z"/><path class="cls-3" d="M610.69,229l-.51-.52Z"/><path class="cls-1" d="M614,228.55l.5.5Z"/><path class="cls-3" d="M611.17,229.5l-.51-.51Z"/><path class="cls-1" d="M614.47,229l.5.5Z"/><path class="cls-3" d="M611.65,230l-.51-.51Z"/><path class="cls-1" d="M615,229.51l.5.5Z"/><path class="cls-3" d="M612.13,230.46l-.51-.51Z"/><path class="cls-1" d="M615.43,230l.5.5Z"/><path class="cls-3" d="M612.61,230.94l-.51-.51Z"/><path class="cls-1" d="M615.91,230.47l.5.5Z"/><path class="cls-3" d="M613.09,231.42l-.51-.51Z"/><path class="cls-3" d="M625.57,243.87h-.46l-.05-.49Z"/><path class="cls-3" d="M625.09,243.42l-.51-.52Z"/><path class="cls-3" d="M624.61,242.94l-.51-.52Z"/><path class="cls-1" d="M627.43,242l.49.49Z"/><path class="cls-3" d="M624.13,242.46l-.51-.52Z"/><path class="cls-1" d="M627,241.51l.5.49Z"/><path class="cls-3" d="M623.65,242l-.51-.52Z"/><path class="cls-1" d="M626.47,241l.5.49Z"/><path class="cls-3" d="M623.17,241.5l-.51-.52Z"/><path class="cls-1" d="M626,240.55l.5.49Z"/><path class="cls-3" d="M622.69,241l-.51-.52Z"/><path class="cls-1" d="M625.51,240.07l.5.49Z"/><path class="cls-1" d="M600.08,214.64l.49.5Z"/><path class="cls-1" d="M600.56,215.12l.49.5Z"/><path class="cls-3" d="M622.21,240.54l-.51-.52Z"/><path class="cls-1" d="M601,215.6l.49.5Z"/><path class="cls-1" d="M601.52,216.08l.49.5Z"/><path class="cls-1" d="M602,216.56l.49.5Z"/><path class="cls-1" d="M602.48,217l.49.5Z"/><path class="cls-3" d="M599.66,218l-.52-.51Z"/><path class="cls-1" d="M625,239.59l.5.49Z"/><path class="cls-3" d="M621.73,240.06l-.51-.52Z"/><path class="cls-1" d="M603,217.52l.49.5Z"/><path class="cls-1" d="M624.55,239.11l.5.49Z"/><path class="cls-3" d="M621.25,239.58l-.51-.52Z"/><path class="cls-3" d="M600.14,218.47l-.52-.51Z"/><path class="cls-1" d="M624.07,238.63l.5.49Z"/><path class="cls-3" d="M620.77,239.1l-.51-.52Z"/><path class="cls-1" d="M603.44,218l.49.5Z"/><path class="cls-1" d="M623.59,238.15l.5.49Z"/><path class="cls-3" d="M620.29,238.62l-.51-.52Z"/><path class="cls-3" d="M600.62,219l-.52-.51Z"/><path class="cls-1" d="M603.92,218.48l.49.5Z"/><path class="cls-3" d="M601.1,219.43l-.52-.51Z"/><path class="cls-1" d="M623.11,237.67l.5.49Z"/><path class="cls-3" d="M619.81,238.14l-.51-.52Z"/><path class="cls-1" d="M604.4,219l.49.5Z"/><path class="cls-1" d="M622.63,237.19l.5.49Z"/><path class="cls-3" d="M619.33,237.66l-.51-.51Z"/><path class="cls-3" d="M601.58,219.91l-.52-.51Z"/><path class="cls-1" d="M622.15,236.71l.5.49Z"/><path class="cls-3" d="M618.85,237.18l-.51-.51Z"/><path class="cls-1" d="M604.88,219.44l.49.5Z"/><path class="cls-3" d="M602.06,220.39l-.52-.51Z"/><path class="cls-1" d="M605.36,219.92l.49.5Z"/><path class="cls-3" d="M602.54,220.87l-.52-.51Z"/><path class="cls-1" d="M605.84,220.4l.49.49Z"/><path class="cls-3" d="M603,221.35l-.52-.51Z"/><path class="cls-1" d="M606.32,220.88l.49.49Z"/><path class="cls-3" d="M603.5,221.83l-.52-.51Z"/><path class="cls-1" d="M606.8,221.36l.49.49Z"/><path class="cls-1" d="M621.67,236.23l.5.49Z"/><path class="cls-3" d="M604,222.31l-.52-.52Z"/><path class="cls-3" d="M618.37,236.7l-.51-.51Z"/><path class="cls-1" d="M607.28,221.84l.49.49Z"/><path class="cls-3" d="M604.46,222.79l-.52-.52Z"/><path class="cls-1" d="M607.76,222.32l.49.49Z"/><path class="cls-3" d="M617.89,236.22l-.51-.51Z"/><path class="cls-3" d="M604.94,223.27l-.52-.52Z"/><path class="cls-1" d="M608.24,222.8l.49.49Z"/><path class="cls-1" d="M620.71,235.27l.5.5Z"/><path class="cls-3" d="M617.41,235.74l-.51-.51Z"/><path class="cls-1" d="M620.23,234.79l.5.5Z"/><path class="cls-3" d="M616.93,235.26l-.51-.51Z"/><path class="cls-3" d="M605.42,223.75l-.52-.52Z"/><path class="cls-1" d="M608.72,223.28l.49.49Z"/><path class="cls-1" d="M619.75,234.31l.5.5Z"/><path class="cls-3" d="M616.45,234.78l-.51-.51Z"/><path class="cls-1" d="M619.27,233.83l.5.5Z"/><path class="cls-3" d="M616,234.3l-.51-.51Z"/><path class="cls-1" d="M618.79,233.35l.5.5Z"/><path class="cls-3" d="M615.49,233.82l-.51-.51Z"/><path class="cls-3" d="M605.9,224.23l-.52-.52Z"/><path class="cls-1" d="M609.19,223.76l.5.49Z"/><path class="cls-1" d="M621.19,235.75l.5.5Z"/><path class="cls-3" d="M606.38,224.71l-.52-.52Z"/><path class="cls-1" d="M609.67,224.24l.5.49Z"/><path class="cls-1" d="M618.31,232.87l.5.5Z"/><path class="cls-3" d="M606.86,225.19l-.52-.52Z"/><path class="cls-1" d="M610.15,224.72l.5.49Z"/><path class="cls-3" d="M607.34,225.67l-.52-.52Z"/><path class="cls-3" d="M615,233.34l-.51-.51Z"/><path class="cls-1" d="M610.63,225.2l.5.49Z"/><path class="cls-1" d="M617.83,232.39l.5.5Z"/><path class="cls-3" d="M607.82,226.15l-.52-.52Z"/><path class="cls-1" d="M611.11,225.68l.5.49Z"/><path class="cls-3" d="M608.29,226.63l-.51-.52Z"/><path class="cls-1" d="M611.59,226.16l.5.49Z"/><path class="cls-3" d="M614.53,232.86l-.51-.51Z"/><path class="cls-1" d="M617.35,231.91l.5.5Z"/><path class="cls-3" d="M614.05,232.38l-.51-.51Z"/><path class="cls-3" d="M608.77,227.11l-.51-.52Z"/><path class="cls-1" d="M616.87,231.43l.5.5Z"/><path class="cls-3" d="M613.57,231.9l-.51-.51Z"/><path class="cls-1" d="M616.39,231l.5.5Z"/><path class="cls-2" d="M677.81,180.06h-.76q.09-12.69.17-25.38v-10.8c1.07-.07,2-.17,2.89-.17h78.6c.88,0,1.75-.06,2.63-.1h.89v.93l-1,.06H679.44c-.45,0-.91.08-1.56.13v5.85Q677.87,165.33,677.81,180.06Z"/><path class="cls-15" d="M514.69,411.84c0-2.61,0-5.22.15-7.83,0-.6-.3-1.52.83-1.59l6.75.31a4.08,4.08,0,0,1-.07.92h-1.44v8.62l-.18.05h-.19c-.07-2.86-.15-5.72-.24-9.11-1.06,1.77-1.25,6-.72,9.47h-1.13c0-1.52.16-3,.06-4.54s.5-3-.68-4.38a48.44,48.44,0,0,0-.16,8.93h-1.13c.35-5.4.2-7.83-.87-9.37V411C515.64,411.62,515.54,412.19,514.69,411.84Z"/><path class="cls-15" d="M526.63,412.29h-.18l-.18-.05v-8.61h-1.45l-.06-.93c1.94,0,3.88,0,5.82-.1.21,0,.92.24.52-.51l.73-.08c0,.55.07,1.09.1,1.63l-1.3.06v8.89H529.5c.44-4.58.27-7.74-.81-9.43-.07,3.48-.12,6.44,0,9.42h-1.12c.52-3.45.33-7.7-.73-9.47C526.78,406.57,526.71,409.43,526.63,412.29Z"/><path class="cls-5" d="M290.06,406.93l.15-14.37h.8V407Z"/><path class="cls-16" d="M532.06,412.26l-.13-8.59c0-.54-.07-1.08-.1-1.63.08-3.16.15-6.32.23-9.48a.86.86,0,0,1,.32,0v19.7h-.32Z"/><path class="cls-15" d="M528.72,392.2v10h-1.14l.38-9.91Z"/><path class="cls-15" d="M519.08,392.39c.07,2.29.22,4.58.18,6.86a2.56,2.56,0,0,0,.94,2.45l-1.74.5.21-9.7A.31.31,0,0,1,519.08,392.39Z"/><path class="cls-13" d="M524.19,412.65c0-2.43.07-4.85.1-7.27v-1.77h-1.9a4.08,4.08,0,0,1,.07-.92h2.34l.06.93q0,4.5.07,9Z"/><path class="cls-16" d="M504.18,389.23q1.9-2.46,3.79-4.94c0,1.68-.54,2.41-3.34,5.4Z"/><path class="cls-16" d="M522.14,401.21c.05-2.87.11-5.75.17-8.62a.51.51,0,0,0,0-.45H523c0,2.71-.09,5.42-.09,8.13,0,.31.32.62.49.93l-.47.54-.73-.15Z"/><path class="cls-18" d="M526.81,392.18v9.07l-.71.57-.68-.63a4.61,4.61,0,0,0,.65-1.55v-7.42Z"/><path class="cls-18" d="M520.32,401.25v-9.07h.74c0,2.47-.09,4.95,0,7.42a5.16,5.16,0,0,0,.65,1.55l-.76.61Z"/><path class="cls-16" d="M524.87,392.59l.15,8.62c0,.05.09.1.08.15s-.08.18-.13.27l-.73.14-.5-.53c.18-.29.53-.59.53-.88,0-2.73,0-5.46-.08-8.19h.67A.55.55,0,0,0,524.87,392.59Z"/><path class="cls-16" d="M522.39,403.61h.49q0,4.33-.1,8.65h-.3Z"/><path class="cls-14" d="M236.53,392.19l.28-.61Z"/><path class="cls-17" d="M291.61,392.16l-.52.42Z"/><path class="cls-14" d="M336.72,392.16l-.49.44Z"/><path class="cls-20" d="M421.57,392.6l-.47-.43Z"/><path class="cls-7" d="M441.32,392.19l-.48.4Z"/><path class="cls-19" d="M522.31,392.14a.51.51,0,0,1,0,.45l-.41-.38A.41.41,0,0,1,522.31,392.14Z"/><path class="cls-19" d="M524.87,392.59a.51.51,0,0,1,0-.45.43.43,0,0,1,.42.07Z"/><path class="cls-17" d="M164.44,325.43c.6-.62.87-.11.89.36v5.6c-.86.07-1.54.16-2.23.16h-8.79a3.5,3.5,0,0,1-1-.35l.64-.61h10.28l.07-1.24c.6-.21.64-.43,0-.67l-.09-1.42h-10l-.31-1c3.06,0,6.12.06,9.18.11C163.88,326.41,164.38,326.24,164.44,325.43Z"/><path class="cls-17" d="M154,296.56h10.47V285.11l.89-.5L165.22,299h-.88l-.08-1.28H154Z"/><path class="cls-19" d="M122.08,310.28v1.5H111.71v-1.46Z"/><path class="cls-19" d="M164.44,311.77h0l-10.11.22a1.15,1.15,0,0,1,0-1.87l10.11.23v1.42Z"/><path class="cls-19" d="M122.08,320.83v1.55H111.69v-1.5Z"/><path class="cls-14" d="M111,303.36c-.09-1.79-.22-3.59-.28-5.38,0-1.06.7-1.28,1.6-1.27,3.31.05,6.63.07,10,.1l-.13,2.21h-.49c.42-.89.15-1.37-.84-1.37h-9l-.11,1.3v.74l-.06,1.33c-.28.34-.66.69.07,1v1.27Z"/><path class="cls-19" d="M111.61,301l.06-1.33H122.1l-.37,1.73-4-.17Z"/><path class="cls-17" d="M164.41,307.42c0-.88-.39-1.23-1.29-1.21-3.05.06-6.1.08-9.15.12l.29-1h10l.08-1.39c.6-.21.64-.44,0-.67V302h.87c0,1.56.13,3.13.13,4.69C165.34,307.14,165.33,307.92,164.41,307.42Z"/><path class="cls-17" d="M164.35,320.08v-1.3c.63-.24.59-.46,0-.67l-.08-1.39h-10l-.3-1c3.06,0,6.11,0,9.16.12.9,0,1.31-.34,1.29-1.22.92-.49.93.29.93.77,0,1.56-.07,3.12-.12,4.68Z"/><path class="cls-15" d="M111.67,325v1.31h10.44v1.11H111.75l-.12,1.26v.7l.09,1.24-.19.11a1.2,1.2,0,0,1-.46-.11c0-1.88-.09-3.76-.14-5.64l.38-.09A.37.37,0,0,1,111.67,325Z"/><path class="cls-15" d="M122.11,306.29H111.76l-.08,1.31-.47.5h-.29l.21-4c.48.68.85,1.31,2,1.25,3-.15,6-.09,9-.11Z"/><path class="cls-15" d="M111.68,314.46v1.31h10.43v1.1c-3,0-6,0-9-.12-1.12-.06-1.49.58-2,1.26-.07-1.19-.13-2.38-.19-3.57l.37-.1A.43.43,0,0,1,111.68,314.46Z"/><path class="cls-14" d="M111.73,330.63h10.33l.65.65a6.1,6.1,0,0,1-1.28.29c-3.25.06-6.51.09-9.76.12l-.13-.95Z"/><path class="cls-5" d="M121.7,301.83l-10,.17c-.73-.28-.35-.63-.07-1l6.12.22,4,.17Z"/><path class="cls-5" d="M111.68,309.51h10.45v.8H111.77C111.26,310.07,111.05,309.81,111.68,309.51Z"/><path class="cls-5" d="M111.68,320.06h10.45v.79H111.77C111.26,320.62,111.05,320.37,111.68,320.06Z"/><path class="cls-5" d="M111.68,303.27h10.45V304l-11,.1-.08-.71Z"/><path class="cls-1" d="M122.13,323.13H111.68v-.73H122.1Z"/><path class="cls-5" d="M122.13,312.57H111.68v-.77h10.37Z"/><path class="cls-1" d="M122.1,299.69H111.67V299l10,.07h.49Z"/><path class="cls-14" d="M111.71,311.78v2c-.12.18-.25.35-.37.52l-.37.1v-6.35a1.41,1.41,0,0,0,.29,0l.47.13v1.28c-.63.3-.42.56,0,.81Z"/><path class="cls-5" d="M122.13,318.81H111.68l-.64-.07.07-.72,11,.1Z"/><path class="cls-1" d="M111.67,325a.36.36,0,0,0-.35-.11l.36-.52h10.45v.77Z"/><path class="cls-16" d="M164.33,312.54l-10-.14a3.23,3.23,0,0,1,0-.44l10.11-.22c.75-.25.76.28.81.77Z"/><path class="cls-5" d="M164.34,303.28c.63.23.59.46,0,.67l-10-.17v-.36Z"/><path class="cls-5" d="M164.33,318.11c.6.21.64.43,0,.67l-10-.15v-.36Z"/><path class="cls-5" d="M164.33,329.37l-10-.16v-.36l10-.15C165,328.94,164.93,329.16,164.33,329.37Z"/><path class="cls-5" d="M111.64,329.39v-.7h10.5v.72Z"/><path class="cls-16" d="M154.32,309.66l10-.14h.92c-.05.5-.06,1-.81.78l-10.11-.23A2.81,2.81,0,0,1,154.32,309.66Z"/><path class="cls-17" d="M164.33,312.54h.92v1.34h-.89Z"/><path class="cls-17" d="M164.34,324.39v-1.3h.88v1.34Z"/><path class="cls-17" d="M165.25,309.54h-.92v-1.29h.89Z"/><path class="cls-15" d="M122.86,283.52l.78.62C123.15,284.22,122.73,284.21,122.86,283.52Z"/><path class="cls-17" d="M153.92,298.51l.42.51Z"/><path class="cls-14" d="M144.17,296.79l.47-.22Z"/><path class="cls-18" d="M501.39,213.51l-.54.17V183.42h.36q0,13.5.09,27C501.28,211.45,501.35,212.48,501.39,213.51Z"/><path class="cls-5" d="M165.29,341.72v21.5h80.53v18.17H290V328.72H205.5a14,14,0,0,1-2.15-.07c-.21,0-.35-.54-.52-.83l.57-.05c1,0,2.07.05,3.11.05H333c3.63,0,3.26.11,3.25,3.26v8.84c0,3.94,0,7.88.05,11.82v1.1a3.37,3.37,0,0,0,1.15.45c2.23,0,4.45,0,6.68,0h7V338c.17.11.48.21.5.34a11.61,11.61,0,0,1,.06,1.67q0,20.51.06,41c0,.39-.06.78-.1,1.32H229.54v-17.9c-2-.54-23-.73-28.67-.3v17.46h18.55l.05.51a5,5,0,0,1-1.2.31H184.92a2.89,2.89,0,0,1-.86-.28,3.09,3.09,0,0,0,0-.43l12.91-.13h2.8V364.07H165.54c-.54,2.22.22,4.6-.52,7.17-.77-2-1-20.15-.54-29.52Zm170-3.74a.44.44,0,0,0,.09-.41v-8.72H291.21v52.62h43.94l.26-.44c0-9-.06-18-.08-27.09H320a3.66,3.66,0,0,1-.92-.18c-.05,0-.07-.14-.09-.21a2,2,0,0,1-.06-.34h16.32V338.38ZM351,381V354.13H336.39v27.28H343V365.78a2.08,2.08,0,0,1,.5.07c.15,5.14.29,10.28.44,15.66h6.65ZM230.38,364v17.38h14.45V364Z"/><path class="cls-11" d="M228.76,411.87H117.94V388.74h17.69v22.39h13.21V388.77h20.65v22.35h16a7.5,7.5,0,0,0,.14-.95V391.23c0-.93.24-2-1.63-2.06,2.14-.62,39-.82,44.72-.37Zm-.83-.7V389.51H200.78v21.66Zm-93.26,0V389.5H118.86v21.65Zm52-21.71v21.68h13.06v-21.7ZM159.72,411.1h8.89V389.49h-8.89Zm-9.89,0h8.86V389.61a26.62,26.62,0,0,0-8.86.15Z"/><path class="cls-4" d="M649.76,337q0,14.38.07,28.76v15.83h5.35V382c-.18.1-.36.29-.53.29H500.86c-.05-.76-.11-1.38-.11-2V338.07a10,10,0,0,1,.47-2.15,9.72,9.72,0,0,0,.14,1.18v44.27h123.7v-44h.66v44h23.34V338.93c0-.64-.07-1.28-.12-1.91l.13-.14Z"/><path class="cls-1" d="M363.67,353.67a1,1,0,0,1,.05-.33l.8-.11h0v28.13h7.23V366.69h.72c0,4.92.1,9.84.15,14.71h6.5c0-.49.08-.87.08-1.25V355.46a8,8,0,0,0-.24-1.37v-2.2c.08-2.6.18-5.19.24-7.79v-4.23h-2.26l-.92-.13a1.41,1.41,0,0,0,0-.29,18.15,18.15,0,0,0,2.56-.12c.66-.08.68-.5.33-1v-.4c.11-1,.28-2,.3-3v-7H425v54.38h-61.4V354.72Zm16.59-.91.14.57-.36,1v27h44.29v-52.5H379.88c.15,3.12.3,6.11.45,9.11v1.82a5.3,5.3,0,0,0-.34,1.3v10.65l.21,1Z"/><path class="cls-11" d="M838.61,337.42c-.23-.49-.34-1,.4-1,1-.06,2.08,0,3.11,0H880c.55,0,1.11.06,1.78.1v22.94c-1.94.53-35.14.75-43.18.29a4.23,4.23,0,0,1-.25-1.05V346a7,7,0,0,1,.29-1.36h.48l3.34.32V337.1l-3.34.3A2.9,2.9,0,0,0,838.61,337.42Zm21.07,21.49h1.1l1.13-.11.79.14h.79l.8-.14,1.12.11h15.44V337.38H870.26l-1,.08-1.3.05h-.63l-1.28.06-.55-.14h-1.09l-.92.11h-.84l-.93-.11h-1.08l-.53.1h-3.25v10l-3.6.23a.21.21,0,0,0-.28-.06h0l.06-.85,1.33.22v-9.6h-1.29l-.51-.08h-9.2v8.12l-4.25.21V359h15.26V349H855c0,2.94,0,5.88-.09,8.82,0,1,.29,1.5,1.41,1V349h.58v10h2Zm-3.83-11.62.56-.42v-9.39l-.62-.22c-.29.32-.82.64-.83,1-.07,2.67-.07,5.37,0,8.12C855,346.68,855.54,347,855.85,347.29Z"/><path class="cls-13" d="M510.81,275.08v-1h.58c6.07,0,12.15.05,18.22.05a3.47,3.47,0,0,0,1.62-.3c3-1.66,5.93-3.39,8.77-5v-43H511.29v6.07l-.54.08-4.16.05v-.74h4.2V230c-.11-.32-.23-.64-.35-1l.37-1.38H506.6V227h4.17l.22-.46c-.33-.27-.64-.76-1-.79-1.09-.08-2.2,0-3.3,0h-1.24l-3.21-.17v-.71c4.78,0,9.57-.18,14.35-.09a5.29,5.29,0,0,0,4.6-1.87c1.28-1.52,2.79-2.85,4.21-4.25a2.73,2.73,0,0,1,1.18-.67c-.35,1.55-1.7,2.3-2.65,3.36s-2,2-3.33,3.38c19.8,0,39.06,0,58.33.39-2,.74-4.15.52-6.23.56s-4.15,0-6.23,0h-12.7l-.7.45a7.41,7.41,0,0,0-1.74-.44c-2.88-.05-5.75,0-8.63,0a15,15,0,0,0-1.64.21v43.37c-2.94,1.67-5.86,3.29-8.74,5a5.77,5.77,0,0,1-3.16.84H511.41Z"/><path class="cls-13" d="M617.33,297.58l.09,24.18v5.47c-.77,0-1.45.12-2.13.12H512.76a6.62,6.62,0,0,1-1.66-.09c-.15,0-.18-.59-.27-.91h.58c.32,0,.64.06,1,.06h53.11a9.45,9.45,0,0,0,1.51-.09V308.5a3.26,3.26,0,0,1,1-2.8l.47.51a13.08,13.08,0,0,0-.39,2.32V325a7,7,0,0,0,.19,1.2h48.18V297.63Z"/><path class="cls-16" d="M86.81,296.86h3.55V368.1H86.81Zm.93.85v69.6h1.68v-69.6Z"/><path class="cls-16" d="M492.09,190.21c-.88,0-1.76-.06-2.64-.06H213.35c-.95,0-1.91.07-2.86.11l-.05-.63H490.19c.87,0,1.92-.52,2.63.48Z"/><path class="cls-18" d="M210.52,319.43c.88.06,1.75.15,2.62.15h276.4c.87,0,1.74-.11,2.61-.17l.58.4-.58.32H210.47Z"/><path class="cls-14" d="M210.52,319.43l-.05.71c-.25-.24-.69-.46-.73-.73a19.65,19.65,0,0,1-.15-2.87V192.44a12.85,12.85,0,0,1,.07-2.15c0-.25.51-.44.78-.66l.05.63v2.88Z"/><path class="cls-8" d="M492.09,190.21l.73-.06a20.42,20.42,0,0,1,.26,2.34V316.83A12.12,12.12,0,0,1,493,319c0,.2-.53.31-.81.46V193.35C492.13,192.28,492.1,191.25,492.09,190.21Z"/><path class="cls-4" d="M500.89,216.54l.22.05.3.59v7.33c-.05,1-.63,2,.34,2.79-.37.72-.64,1.44,0,2.16a1.85,1.85,0,0,0,0,.47v1.53a.39.39,0,0,0,0,.39l-.25,1.35v1.22c.09.43.17.87.25,1.3v.46c-.08.44-.15.88-.23,1.31v1.23l.26,1.32v1c-.09.93-.27,1.87-.27,2.8V327c-.85-.66-.66-1.48-.66-2.24V219.23A21.77,21.77,0,0,1,500.89,216.54Z"/><path class="cls-4" d="M503.17,336.46c.88,0,1.76-.06,2.64-.06H622.25c1,0,1.92,0,2.87-.06l-.13.89c-1,0-1.91-.11-2.86-.11H504.59c-1,0-1.91-.05-2.87-.08Z"/><path class="cls-18" d="M501.74,229.93a1.85,1.85,0,0,1,0-.47l3.62-.22c.36-1.21-.06-1.57-1-1.67-.73-.13-1.46-.29-2.18-.49h3.22v-1.35h1.24c0,.41-.06.82-.1,1.23v.74c.13.45.26.91.4,1.36l-.37,1V232l.15,1.24h4V232l.54-.08c0,3,.06,5.91.06,8.86q0,16.66.06,33.33h-.58q0-15.56-.05-31.1a17.51,17.51,0,0,0-.36-2.5l.37-1c-.15-.4-.26-1.14-.44-1.16a16.34,16.34,0,0,0-3.28,0c-.18,0-.3.76-.44,1.16l.37,1a24.14,24.14,0,0,1-2.66.55,22.55,22.55,0,0,1-2.6,0V240c.94,0,1.89-.07,2.83-.07s1-.58.94-1.27l-.37-1,.37-1.51H501.7v-.46h3.87c-.23-.72-.35-1.11-.47-1.5l.37-1c0-.69,0-1.28-.94-1.28s-1.9,0-2.84-.08a.39.39,0,0,1,0-.39l4.19-.19c-.56-.66-.79-1.18-1.07-1.22C503.81,229.92,502.77,230,501.74,229.93Zm4.42,4.14c.66.8.9,1.37,1.23,1.42a9.22,9.22,0,0,0,2.57,0c.28,0,.52-.45.78-.69-.25-.25-.48-.7-.74-.72-1.07-.08-2.14,0-3.84,0Zm4.58,3.36c-.45-1.48-1.22-1.64-4-.94C507.12,237.84,507.19,237.86,510.74,237.43Z"/><path class="cls-10" d="M568.41,306.21l-.47-.51c1.28-2.29,2.67-4.53,3.8-6.89.78-1.61,1.83-2,3.56-2,12.85.07,25.71,0,38.56,0,.87,0,1.74-.1,2.61-.16h.85v.92l-1,.05h-43Z"/><path class="cls-11" d="M111.61,341.23V347c-.93-1.27-1-2.56-.63-6.18,2.86-.42,32.55-.29,34.21.38Z"/><path class="cls-13" d="M554.36,258.23a8,8,0,0,1,.76.53q12.68,12.67,25.34,25.37l-.07.63a12.71,12.71,0,0,1-1.86-1.31q-11.89-11.85-23.76-23.74c-.44-.45-.83-.95-1.25-1.42Z"/><path class="cls-4" d="M892.6,369.58H874.81v41.66h-.73V370.52a4.83,4.83,0,0,0-.18-.92H856.36V369c4.7,0,9.4-.07,14.09-.08h19.83C891.07,368.92,892.07,368.52,892.6,369.58Z"/><path class="cls-13" d="M617.32,296.66h-.85v-2.61c-.06-3.08-.13-6.17-.2-9.25l.11-.67c0-7.65,0-15.29.1-22.94a3,3,0,0,1,.69-2.67,16.1,16.1,0,0,1,.25,1.83V296A4.07,4.07,0,0,1,617.32,296.66Z"/><path class="cls-13" d="M120.86,381.65h29.32a6.43,6.43,0,0,1-1.21.72C145.59,382.78,122.25,382.43,120.86,381.65Z"/><path class="cls-18" d="M511.41,326.35h-.58V275.07h.63c0,.88-.08,1.75-.08,2.63v29.46Q511.37,316.77,511.41,326.35Z"/><path class="cls-4" d="M626.37,336.42h22.71v.51l-.13.14H626.08l-.87-.81h.64Z"/><path class="cls-4" d="M616.38,284.12l-.11.67H580.39l.07-.63Z"/><path class="cls-20" d="M124.05,356.16h17.81l-.08,1-17.43,0Z"/><path class="cls-10" d="M553.1,226.13l.7-.45c0,3.18-.1,6.35-.1,9.53,0,7.46,0,14.93.07,22.4l-.5.45a3.56,3.56,0,0,1-.22-.91Q553.06,241.64,553.1,226.13Z"/><path class="cls-8" d="M364.52,353.23l-.8.11q0-7.29-.08-14.58c0-.13.14-.27.22-.41l.73.1Q364.56,345.83,364.52,353.23Z"/><path class="cls-4" d="M124.05,356.16l.3,1v8.91h17.36l.61.56H123.61v-10C123.63,356.47,123.9,356.32,124.05,356.16Z"/><path class="cls-5" d="M503.17,336.46l-1.45.57a.22.22,0,0,1-.28.11l0,0c-.05-.4-.1-.79-.14-1.18,1.74-2.21,3.49-4.42,5.23-6.64l.48.33a6.92,6.92,0,0,1-.65,1.27c-1.11,1.45-2.26,2.85-3.39,4.28C502.55,335.68,502.38,336.17,503.17,336.46Z"/><path class="cls-13" d="M142.32,366.65l-.61-.56c0-3,0-6,.07-9l.08-1c.3.27.86.53.86.81.05,3.16,0,6.32,0,9.49C142.7,366.51,142.45,366.58,142.32,366.65Z"/><path class="cls-5" d="M539,402.8h9C546.91,403.77,541.25,403.93,539,402.8Z"/><path class="cls-16" d="M626.37,336.42l-.52-.15h0l-.24-.78c1.16-2.55,2.37-5.07,3.77-7.5l.51.22a14.32,14.32,0,0,1-.53,1.56C628.4,332,627.38,334.21,626.37,336.42Z"/><path class="cls-13" d="M173.57,381.74c-2,.89-7.36.82-8.94,0A47.68,47.68,0,0,1,173.57,381.74Z"/><path class="cls-10" d="M165.29,341.72h-.81a8.61,8.61,0,0,0-1.74-.4h-8.59a5.23,5.23,0,0,1-2.07-.36,126.21,126.21,0,0,1,15.8.08Z"/><path class="cls-4" d="M855.44,369v.65a.47.47,0,0,0-.46,0H838.71a2.74,2.74,0,0,1,.08-.5c.05-.06.12-.15.17-.15Z"/><path class="cls-10" d="M111.54,330.74l.13.95c.23.81.49,1.61.8,2.4.57,1.34,1.23,2.65,1.73,4a9.64,9.64,0,0,1-3.12-7.47A1.21,1.21,0,0,0,111.54,330.74Z"/><path class="cls-16" d="M336.24,338.47v-.7l12.2.1c.87,0,1.75.05,2.63.08v.43Z"/><path class="cls-16" d="M364.59,338.45l-.73-.1a5.8,5.8,0,0,1,1.47-.44h13.59v.4Z"/><path class="cls-10" d="M120.71,291.86h-9.8c.59-.61.59-.61,3.31-.61h8.62l-.64,1.09Z"/><path class="cls-4" d="M792.66,377.67H792V365.74l.71-.06Z"/><path class="cls-18" d="M120.71,291.86l1.49.48-3.92,4.15c-.4-1.4.53-1.69.89-2.27C119.66,293.42,121,293.2,120.71,291.86Z"/><path class="cls-14" d="M111.68,324.38l-.36.52-.38.09c0-2.09.06-4.19.1-6.28l.64.07v1.28c-.63.31-.42.56,0,.81v3.5Z"/><path class="cls-10" d="M352.72,363.41h10.13v.32H352.78Z"/><path class="cls-8" d="M507,240.46c-.12-.33-.25-.66-.37-1h4.16l-.37,1Z"/><path class="cls-13" d="M839.08,344.61h-.48v-7.18h.47Z"/><path class="cls-18" d="M595.75,222.82l-1.14-1.08c.84-.61,1-2.13,2.45-1.16l-.37.37c-.92.25-1.23.72-.55,1.53Z"/><path class="cls-18" d="M501.77,227.3c-1-.83-.39-1.84-.34-2.79l.83.34v.71c-.78.39-.76.91-.25,1.52A.84.84,0,0,0,501.77,227.3Z"/><path class="cls-5" d="M625.21,336.28l.87.81-.36.36h-.66l-.07-.18.13-.89Z"/><path class="cls-12" d="M809.1,348.19l-.18.45c-.17-.1-.41-.16-.49-.31s.12-.32.19-.48Z"/><path class="cls-18" d="M621.5,245c.68.5.7,1,0,1.48l-.35-.33v-.78Z"/><path class="cls-18" d="M621,247c-1,.82-1.27-.13-1.72-.67l.32-.39,1.07.69Z"/><path class="cls-17" d="M164.44,311.77v-1.48c.87-.44.88.22.88.74S165.31,312.21,164.44,311.77Z"/><path class="cls-17" d="M164.41,322.29v-1.41c.88-.5.9.18.9.71S165.28,322.79,164.41,322.29Z"/><path class="cls-17" d="M164.39,301v-1.2c1.08-.37,1,.44.89,1S164.85,301.56,164.39,301Z"/><path class="cls-10" d="M107.86,295.28l-.74.76-.34-.29.83-1C107.69,294.92,107.77,295.1,107.86,295.28Z"/><path class="cls-16" d="M649.06,336.94v-.51l.68.56Z"/><path class="cls-18" d="M600.56,227.62l-.48-.49.35-.36.48.48Z"/><path class="cls-18" d="M603.26,226.78l.53.53-.39.33-.48-.48Z"/><path class="cls-18" d="M601,228.09l-.47-.48.35-.36.48.48Z"/><path class="cls-18" d="M603.79,227.31l.47.48-.38.33-.48-.48Z"/><path class="cls-18" d="M601.51,228.57l-.47-.48.35-.36.48.48Z"/><path class="cls-18" d="M604.26,227.79l.48.48-.38.33-.48-.48Z"/><path class="cls-18" d="M602,229.05l-.47-.48.35-.36.48.48Z"/><path class="cls-18" d="M604.74,228.27l.48.48-.38.33-.48-.48Z"/><path class="cls-18" d="M602.47,229.53l-.47-.48.35-.36.48.48Z"/><path class="cls-18" d="M605.22,228.75l.48.48-.38.33-.48-.48Z"/><path class="cls-18" d="M603,230l-.48-.48.36-.36.48.48Z"/><path class="cls-18" d="M605.7,229.23l.48.48-.38.33-.48-.48Z"/><path class="cls-18" d="M603.43,230.49,603,230l.36-.36.48.48Z"/><path class="cls-18" d="M606.18,229.71l.48.48-.38.33-.48-.48Z"/><path class="cls-18" d="M603.91,231l-.48-.48.36-.36.48.48Z"/><path class="cls-18" d="M606.66,230.19l.48.48-.38.33-.48-.48Z"/><path class="cls-18" d="M604.4,231.45l-.49-.48.36-.36.48.48Z"/><path class="cls-18" d="M607.14,230.67l.49.48-.39.33-.48-.48Z"/><path class="cls-18" d="M620.06,243.57l.52.53-.38.33-.48-.48Z"/><path class="cls-18" d="M617.35,244.4l-.48-.48.36-.36.48.48Z"/><path class="cls-10" d="M554.36,258.23l-.84.06a.28.28,0,0,1-.25-.23l.5-.45Z"/><path class="cls-18" d="M619.58,243.09l.48.48-.34.38-.48-.48Z"/><path class="cls-18" d="M616.87,243.92l-.48-.48.36-.36.48.48Z"/><path class="cls-18" d="M621.48,246.5c-.17.16-.33.33-.49.49l-.33-.37.47-.45Z"/><path class="cls-18" d="M619.1,242.61l.48.48-.34.38-.48-.48Z"/><path class="cls-18" d="M616.39,243.44l-.48-.48.36-.36.48.48Z"/><path class="cls-18" d="M619.27,246.32l-.48-.48.35-.36.45.45Z"/><path class="cls-18" d="M618.79,245.84l-.48-.48.36-.36.47.48Z"/><path class="cls-10" d="M109.75,292.58l.85-.33-.34.63Z"/><path class="cls-10" d="M109.27,293.06l.48-.48.51.3-.48.48Z"/><path class="cls-18" d="M618.62,242.13l.48.48-.34.38-.48-.48Z"/><path class="cls-8" d="M492.15,320.13l.58-.32Z"/><path class="cls-18" d="M615.91,243l-.48-.48.36-.36.48.48Z"/><path class="cls-10" d="M108.79,293.54l.48-.48.51.3-.48.48Z"/><path class="cls-10" d="M109.3,293.84l-.48.48-.51-.31.48-.47Z"/><path class="cls-10" d="M108.82,294.32l-.48.48-.54-.25.51-.54Z"/><path class="cls-18" d="M613.34,236.86l.52.52-.38.34-.48-.48Z"/><path class="cls-18" d="M618.14,241.66l.48.48-.34.37-.48-.48Z"/><path class="cls-18" d="M615.43,242.48,615,242l.36-.36.48.48Z"/><path class="cls-10" d="M108.34,294.8l-.48.48c-.09-.18-.17-.36-.25-.54l.19-.19Z"/><path class="cls-18" d="M621,244.53c.17.16.33.32.49.49l-.35.37-.47-.48Z"/><path class="cls-18" d="M618.31,245.36l-.48-.48.36-.36.48.48Z"/><path class="cls-5" d="M625.64,335.51l.24.78Z"/><path class="cls-18" d="M617.66,241.18l.48.48-.34.37-.48-.48Z"/><path class="cls-18" d="M615,242l-.48-.48.36-.36.48.48Z"/><path class="cls-18" d="M617.18,240.7l.48.48-.34.37-.48-.48Z"/><path class="cls-18" d="M614.47,241.52,614,241l.36-.36.48.48Z"/><path class="cls-18" d="M616.7,240.22l.48.48-.34.37-.48-.48Z"/><path class="cls-18" d="M614,241l-.48-.48.36-.36.48.48Z"/><path class="cls-18" d="M616.22,239.74l.48.48-.34.37-.48-.48Z"/><path class="cls-18" d="M613.51,240.56l-.48-.47.36-.37.48.48Z"/><path class="cls-18" d="M620.58,244.1l.43.43-.33.38-.48-.48Z"/><path class="cls-18" d="M615.74,239.26l.48.48-.34.37-.48-.48Z"/><path class="cls-18" d="M613,240.09l-.48-.48.36-.37.48.48Z"/><path class="cls-18" d="M615.26,238.78l.48.48-.34.37-.48-.48Z"/><path class="cls-18" d="M612.55,239.61l-.48-.48.36-.36.48.47Z"/><path class="cls-18" d="M614.78,238.3l.48.48-.34.37-.48-.48Z"/><path class="cls-18" d="M612.07,239.13l-.48-.48.36-.36.48.48Z"/><path class="cls-18" d="M614.3,237.82l.48.48-.34.37-.48-.47Z"/><path class="cls-18" d="M611.59,238.65l-.48-.48.36-.36.48.48Z"/><path class="cls-18" d="M613.86,237.38l.44.44c-.12.12-.23.25-.34.38l-.48-.48Z"/><path class="cls-18" d="M611.11,238.17l-.48-.48.36-.36.48.48Z"/><path class="cls-18" d="M610.63,237.69l-.48-.48.36-.36.48.48Z"/><path class="cls-12" d="M808,346.12l.47-.5Z"/><path class="cls-18" d="M612.86,236.38l.48.48-.34.38-.48-.48Z"/><path class="cls-12" d="M808.24,347l.13.56-.48-.19Z"/><path class="cls-18" d="M610.15,237.21l-.48-.48.36-.36.48.48Z"/><path class="cls-18" d="M597.06,220.58l.49.49-.38.34-.48-.46Z"/><path class="cls-18" d="M597.55,221.07l.48.48-.38.34-.48-.48Z"/><path class="cls-18" d="M598,221.55l.48.48-.38.34-.48-.48Z"/><path class="cls-18" d="M612.38,235.9l.48.48-.34.38-.48-.48Z"/><path class="cls-18" d="M609.67,236.73l-.48-.48.36-.36.48.48Z"/><path class="cls-18" d="M598.51,222l.48.48-.38.34-.48-.48A2.83,2.83,0,0,0,598.51,222Z"/><path class="cls-18" d="M596.24,223.3l-.48-.49.38-.33.45.46Z"/><path class="cls-18" d="M611.9,235.42l.48.48-.34.38-.48-.48Z"/><path class="cls-18" d="M609.19,236.25l-.48-.48.36-.36.48.48Z"/><path class="cls-18" d="M611.42,234.94l.48.48-.34.38-.48-.48Z"/><path class="cls-18" d="M608.71,235.77l-.48-.48.36-.36.48.48Z"/><path class="cls-18" d="M596.72,223.78l-.48-.48.35-.36.48.47Z"/><path class="cls-18" d="M599.42,223l.53.52-.38.33-.48-.48Z"/><path class="cls-13" d="M184.09,381.64a3.09,3.09,0,0,1,0,.43l-.3-.25Z"/><path class="cls-18" d="M610.94,234.46l.48.48-.34.38-.48-.48Z"/><path class="cls-18" d="M608.23,235.29l-.48-.48.36-.36.48.48Z"/><path class="cls-18" d="M599,222.51l.43.44-.33.37-.48-.47Z"/><path class="cls-18" d="M610.46,234l.48.48-.34.38-.48-.48Z"/><path class="cls-18" d="M607.75,234.81l-.48-.48.36-.36.48.48Z"/><path class="cls-18" d="M610,233.5l.48.48-.34.38-.48-.48Z"/><path class="cls-18" d="M607.27,234.33l-.48-.48.36-.36.48.48Z"/><path class="cls-18" d="M597.2,224.26l-.48-.48.35-.37.48.48Z"/><path class="cls-18" d="M609.5,233l.48.48-.34.38-.48-.48Z"/><path class="cls-18" d="M600,223.47l.48.48-.38.33-.48-.48Z"/><path class="cls-18" d="M597.68,224.74l-.48-.48.35-.37.48.48Z"/><path class="cls-18" d="M600.43,224l.48.48-.38.33-.48-.48Z"/><path class="cls-18" d="M598.16,225.22l-.48-.48.35-.37.48.48Z"/><path class="cls-18" d="M606.79,233.85l-.48-.48.36-.36.48.48Z"/><path class="cls-18" d="M600.91,224.43l.48.48-.38.33-.48-.48Z"/><path class="cls-18" d="M598.64,225.7l-.48-.48.35-.37.48.48Z"/><path class="cls-18" d="M601.39,224.91l.48.48-.38.33-.48-.48Z"/><path class="cls-18" d="M609,232.54l.48.48-.34.38-.48-.48Z"/><path class="cls-18" d="M606.31,233.37l-.48-.48.36-.36.48.48Z"/><path class="cls-18" d="M599.12,226.18l-.48-.48.35-.37.48.48Z"/><path class="cls-18" d="M601.87,225.39l.48.48-.38.33-.48-.48Z"/><path class="cls-18" d="M599.6,226.65l-.48-.47.35-.37.48.48Z"/><path class="cls-18" d="M602.35,225.87l.48.48-.38.33-.48-.48Z"/><path class="cls-18" d="M608.54,232.06l.48.48-.34.38-.48-.48Z"/><path class="cls-18" d="M605.83,232.89l-.48-.48.36-.36.48.48Z"/><path class="cls-18" d="M600.08,227.13l-.48-.48.35-.36.48.48Z"/><path class="cls-18" d="M608.06,231.58l.48.48-.34.38-.48-.48Z"/><path class="cls-18" d="M605.35,232.41l-.48-.48.36-.36.48.48Z"/><path class="cls-18" d="M602.83,226.35l.43.43c-.11.13-.22.26-.34.38l-.47-.48Z"/><path class="cls-18" d="M607.63,231.15l.43.43-.34.38-.48-.48Z"/><path class="cls-18" d="M604.87,231.93l-.47-.48.35-.36.48.48Z"/><path class="cls-18" d="M617.83,244.88l-.48-.48.36-.36.48.48Z"/><path class="cls-3" d="M808.57,342.87l-.51.79h-.63l.81-1.11Z"/><path class="cls-15" d="M515.92,401.21l-.24,1.22c-1-.06-.79-.81-.81-1.4-.07-2.68-.12-5.36-.18-8,.8-.32.95.17,1,.79v4.91C515.7,399.53,515.83,400.37,515.92,401.21Z"/><path class="cls-15" d="M517.67,402.2c-.47-.27-1.53.21-1.29-1,.09-1.73.19-3.46.25-5.19a15.05,15.05,0,0,1,.23-3c1.08,1.44.54,3.08.66,4.62S517.62,400.68,517.67,402.2Z"/><path class="cls-15" d="M530.61,402.19H529.5c0-3.07,0-6.13.07-9.2.31.19.87.36.9.58.1,1.09,0,2.2.07,3.3C530.56,398.65,530.58,400.42,530.61,402.19Z"/><path class="cls-15" d="M526.71,402l-.57-.14.71-.56C526.81,401.48,526.76,401.71,526.71,402Z"/><path class="cls-15" d="M521,401.8l-.73-.1a2.42,2.42,0,0,1,.1-.45Z"/><path class="cls-15" d="M522.92,401.77l-.73-.15Z"/><path class="cls-15" d="M525,401.63l-.73.14Z"/><path class="cls-17" d="M336.28,352.83v-1.1l1.28-.08V339.88h1.06V351.7h1.22c.2.42.41.72.73.08h2.06l1.19-.15V339.86h1.07v11.79l1.28.06.41.37.24-.36,1.3-.07V339.88h1.08V351.5h.35V339.9l.65-.08q.07,6.17.12,12.32c0,.12-.18.25-.52.71Z"/><path class="cls-16" d="M335.23,339.83h-2l-1.31.08v11.78h-.63V339.88h-5.65v11.85h-.63V339.86H321.4v11.85l-.06.8-.63-.06a5.87,5.87,0,0,1,.08-.72V339.86h-1.32l-.53-.08.54-.53,15.75.05Z"/><path class="cls-16" d="M336.25,339.22c3.95,0,7.89,0,11.84.11a10.31,10.31,0,0,1,2.12.47l-.65.08a.36.36,0,0,0-.35,0h-2.38v11.85l-.24.36-.41-.37V339.87h-4.29l-1.31.08v11.81c-.32.64-.53.34-.73-.08V340l-1.22-.11h-2.39Z"/><path class="cls-16" d="M335.23,338.38l-15.82.08v-.59h15.36l.51.09Z"/><path class="cls-8" d="M335.26,338l-.51-.09.6-.32A.44.44,0,0,1,335.26,338Z"/><path class="cls-12" d="M335.15,381.47l.26-.44Z"/><path class="cls-12" d="M350.55,381.51,351,381Z"/><path class="cls-17" d="M396.77,338.36a3.4,3.4,0,0,1,.27.89v13.84a4.69,4.69,0,0,1-.24.91c-.61.06-1.29.17-2,.18H382.65c-.87,0-1.74.11-2.61.16l.36-1,15.41-.19v-.37H380.25v-.07l-.21-1h1.2V339.89l.65.1v10.28c0,1.26.39,1.83,1.69,1.45h2.71l1.22-.1v-11.8h1.09v11.83h3.2V339.9h1.1v11.8l1.22.1h.72l1.27-.11V339.91l.38-.42-.36-.23v-.8Z"/><path class="cls-17" d="M379,351.9v.81c-4.58.08-9.15.22-13.93-.1v-11a11.25,11.25,0,0,1,.29-1.83l.7.09V351.5h.34V339.89h1.09v11.87h3.22V339.9h1.08a81.54,81.54,0,0,0,.08,11.8h.93c-.05-3.94.14-7.87-.14-11.81h1.08v11.85H375c.23.55.44.48.65,0H377V339.86h1.06v10.25C378,350.88,377.74,351.81,379,351.9Z"/><path class="cls-16" d="M384.23,351.75h-.67V339.86l-1.67.13-.65-.1-.9-.13v-.38l15.78-.12.36.23-.38.42-1.26-.05h-4.35v11.85h-.61V339.9h-5.64Z"/><path class="cls-5" d="M376,339.73a4.13,4.13,0,0,0-.42,1.27c0,3.58,0,7.15.05,10.73-.21.5-.42.57-.65,0V339.9h-5.62v11.85h-.6V339.87h-2.4a.3.3,0,0,0-.34,0l-.7-.09c.33-.15.66-.43,1-.43,3.24,0,6.48,0,9.72.07A1.65,1.65,0,0,1,376,339.73Z"/><path class="cls-17" d="M364.53,353.22l14.42.08v.8l-14.43.15Z"/><path class="cls-16" d="M396.1,338.46l-15.77-.12v-.4c5,0,10-.05,15,0a5.14,5.14,0,0,1,1.44.45Z"/><path class="cls-13" d="M371.79,366.69l.25-.55.47.56Z"/><path class="cls-12" d="M870.26,337.38v18.67c0,.95.06,1.91.09,2.86h-1.12V348.4c0-.87-.7-.69-1.23-.69h-4.53V337.47l.92-.11c0,2.78,0,5.57.06,8.35a5,5,0,0,0,.41,1.26l.62-.1v-9.48l.55.14v7.91c0,.65-.22,1.54,1.25,1.49v-9.46h.63v8.1c0,.71-.07,1.53,1.3,1.25v-9.4Z"/><path class="cls-13" d="M869.28,348.41V349H868v9.92h-.7c0-3,.09-6,.13-8.94,0-.62-.15-1.09-.92-1l-1,.37-.91-.39h-3l-.91.39-1-.37c-.77-.09-.92.38-.91,1l.12,8.94h-.7c0-2.76.07-5.51.12-8.27,0-1-.22-1.72-1.39-1.72h-2.48l-1.28.17v9.82h-.7c0-.88.13-1.75.13-2.63V337.36l.51.08v9.38l-.06.85.51.72Z"/><path class="cls-12" d="M860.14,337.49l.53-.1c.18,3.16-.19,6.35.21,9.69.45-.29.67-.36.68-.44.07-3.1.14-6.19.19-9.28l.93.11v10.38l-5.79-.32V347l1.31-.11v-9.34h.63c0,1.58-.08,3.16,0,4.74A20.07,20.07,0,0,0,859,347c1.38-.18,1.08-1.05,1.09-1.68C860.13,342.71,860.13,340.1,860.14,337.49Z"/><path class="cls-14" d="M859.68,358.91V349l1,.37.12,9.51Z"/><path class="cls-15" d="M863.49,358.91V349h1.14c0,2.4-.08,4.79-.15,7.18,0,.87-.12,1.74-.18,2.61Z"/><path class="cls-15" d="M862.71,349v9.92l-.79-.14c-.06-2.23-.12-4.45-.2-6.68,0-1-.09-2.07-.14-3.11Z"/><path class="cls-14" d="M866.53,349v9.91h-1.11l.12-9.51Z"/><path class="cls-7" d="M853.29,347.76l.23.66-.51-.72a.2.2,0,0,1,.28.06Z"/><path class="cls-8" d="M507,229.06h3.45c.12.32.24.64.35,1h-4.17C506.75,229.74,506.87,229.4,507,229.06Z"/><path class="cls-19" d="M502,227.08a.18.18,0,0,1,.24,0c.72.2,1.45.36,2.18.49.91.1,1.33.46,1,1.67l-3.62.22c-.63-.72-.36-1.44,0-2.16A.7.7,0,0,1,502,227.08Z"/><path class="cls-8" d="M505.52,238.7h-4v-1.23l3.64.2Z"/><path class="cls-8" d="M501.49,233.2h4c-.12.34-.25.67-.37,1l-3.65.2C501.5,234,501.5,233.6,501.49,233.2Z"/><path class="cls-3" d="M810.24,339.74l.33-.17-.15.34Z"/><path class="cls-3" d="M810.42,339.91l-.39.44c0-.06-.16-.15-.15-.16.11-.16.24-.3.36-.45Z"/><path class="cls-3" d="M809.2,341.1l.46-.4-.12.73Z"/><path class="cls-3" d="M809.54,341.43l-.49.38c.05-.23.1-.47.16-.7Z"/><path class="cls-3" d="M808.24,342.54l.46-.4a3.73,3.73,0,0,1-.13.73Z"/><path class="cls-8" d="M331.33,351.73h1.8a3.77,3.77,0,0,0,.2-.75c0-3.71,0-7.41-.06-11.11h1.08V352.3c-1.43.53-9.65.71-13,.22l.06-.8h1.3V339.87h1.07v11.86H327V339.88h1.06c-.46,4.9-.25,10.5.76,11.82a95.13,95.13,0,0,0,.14-11.82H330v11.85Z"/><path class="cls-12" d="M320.79,351.74a5.87,5.87,0,0,1-.08.72l-2.1.52c-.18-4.31-.15-8.5,0-12.7l.35-.5.53.08v11.88Z"/><path class="cls-8" d="M318.94,339.78l-.35.5c.1-.86-.86-2.07.8-2.41v.59l.07.79Z"/><path class="cls-18" d="M341.84,351.78q0-6,.05-11.93h.65c0,4,.07,7.93.1,11.9Z"/><path class="cls-19" d="M381.89,340l1.67-.13v11.86c-1.3.38-1.71-.19-1.69-1.45C381.91,346.85,381.89,343.42,381.89,340Z"/><path class="cls-18" d="M385.54,351.79V339.86h.7v11.88Z"/><path class="cls-18" d="M394.1,351.77V339.89h.7v11.93Z"/><rect class="cls-22" width="950" height="600"/></svg>