<svg id="Layer_1" data-name="Layer 1" xmlns="http://www.w3.org/2000/svg" viewBox="0 0 950 600"><defs><style>.cls-1{fill:#292928;}.cls-2{fill:#e94944;}.cls-3{fill:#e73530;}.cls-4{fill:#e62b27;}.cls-5{fill:#e52521;}.cls-6{fill:#201f1e;}.cls-7{fill:#0a0b0b;}.cls-8{fill:#171818;}.cls-9{fill:#232322;}.cls-10{fill:#e6302d;}.cls-11{fill:#e83e3e;}.cls-12{fill:#3d3d3c;}.cls-13{fill:#020101;}.cls-14{fill:#e73a39;}.cls-15{fill:#e94546;}.cls-16{fill:#e83d37;}.cls-17{fill:#c45541;}.cls-18{fill:#505050;}.cls-19{fill:#e94943;}</style></defs><path class="cls-1" d="M935.35,208v1.48l-1.41.12c-.38,0-.77-.08-1.15-.08H847.46a13.59,13.59,0,0,0-1.43.14c0,5.6,0,11.08,0,16.55a5.08,5.08,0,0,1-.72,1.68l.06,0-1-.26-.07-1.72V209.47H519.65c-.85,0-1.69.06-2.54.09-1.07-.14-2-.24-2,1.35.08,5.79.1,11.58.14,17.38.07.2.14.41.2.62a13.31,13.31,0,0,0,.31-2q0-51.84,0-103.66a16.39,16.39,0,0,0-.49-2.84h.46a6.45,6.45,0,0,0-.57,1.83q0,42,0,83.91c0,1.57.5,2.15,2,1.7a11.4,11.4,0,0,0,1.15.1H638.42c.59,0,1.19-.05,1.93-.08,0-.9.11-1.65.11-2.4V123.93c0-.69-.06-1.38-.1-2.08l.21-1.4H642l.06,1.39c0,.38-.08.77-.08,1.15q0,41.6,0,83.2c0,.58.1,1.16.15,1.68h42.15c0-.79.11-1.47.11-2.16q0-41,0-82c0-.62-.09-1.23-.14-1.84v-1.39h1.86c0,.46.05.93.07,1.39s-.09.77-.09,1.15V206.2c0,.58.11,1.16.16,1.68H801.69c0-.79.1-1.47.1-2.15q0-41,0-82c0-.62-.09-1.23-.14-1.84v-1.39h1.85c0,.46,0,.93.07,1.4s-.09.76-.09,1.15q0,41.61,0,83.21c0,.58.11,1.15.17,1.78H932.32c.54,0,1.08-.06,1.62-.1Z"/><path class="cls-2" d="M178,479.37c-.85,0-1.7.05-2.55.05l-158,0c-.39,0-.77,0-1.16,0V311.53l1.78.08q0,82.29,0,164.59a17.58,17.58,0,0,0,.18,1.81H97l1,1,1-1,78.9,0Z"/><path class="cls-3" d="M16.27,229.9H221c.31,0,.62.05.92.08l-.09,1.33H18v78.76l-1.73.08Z"/><path class="cls-4" d="M935.35,208l-1.41-.07v-86H803.56c0-.47,0-.94-.07-1.4H935.78c-.12,1.21-.34,2.43-.35,3.65q0,40.54,0,81.08C935.42,206.11,935.37,207,935.35,208Z"/><path class="cls-5" d="M517.12,207.89c-1.53.45-2-.13-2-1.7q0-42,0-83.91a6.45,6.45,0,0,1,.57-1.83H640.57l-.21,1.4H517.12Z"/><path class="cls-5" d="M686.13,121.84c0-.46,0-.93-.07-1.39H801.64v1.39Z"/><path class="cls-6" d="M16.27,310.14l1.74-.08c.85,0,1.69.06,2.54.06H98.73c0,2.42,0,4.48,0,6.55,0,5.09.1,10.19.15,15.28v1.48c0,.12-.07.24-.11.36l-1.58,0v-22.3h-23q-28.08,0-56.15.06l-1.78-.08Z"/><path class="cls-5" d="M684.2,120.45v1.39H642l-.06-1.39Z"/><path class="cls-7" d="M221.84,231.3l.09-1.33h1.42c0,.44.09.89.13,1.33s-.1,1.08-.1,1.61q0,37.79,0,75.57c0,.51.09,1,.13,1.51H266v-2.45q0-37,0-74c0-.77-.06-1.54-.09-2.3L266,230h1.42c.05.44.09.89.14,1.33s-.1.92-.1,1.38q0,38,0,76c0,.44.07.88.11,1.29h42.5c0-18.14,0-36.13,0-54.13,0-8.18,0-16.37-.07-24.55l.08-1.32h1.45c0,.44.09.89.13,1.33s-.1.92-.1,1.38v76c0,.44.08.88.11,1.29h42.5c0-18.14,0-36.13,0-54.13,0-8.18-.05-16.37-.07-24.55,0-.44.05-.88.07-1.32h1.4l.08,1.32c0,.38-.08.76-.08,1.15v76.47c0,.37.05.73.08,1.15.44,0,.74.06,1,.06H515.56l.12,1.33c-1,0-2,.08-3,.08h-333l-1.29,0c-1-2.22.91-1.32,1.54-1.32,13.15-.06,26.3,0,39.45,0h2.56v-76.3C221.94,233,221.87,232.15,221.84,231.3Z"/><path class="cls-5" d="M515.68,311.45l-.12-1.33c0-.31.06-.62.06-.93q0-38.15,0-76.28a14.41,14.41,0,0,0-.18-1.61H355.66l-.08-1.32c.92,0,1.85-.07,2.78-.07H512.15a6.69,6.69,0,0,0,2.29-.09c.4-.15.55-1,.81-1.51,0-5.81-.07-11.6-.15-17.39,0-1.59.94-1.49,2-1.35q0,49.6,0,99.22a4.83,4.83,0,0,1-.05,1.83C516.86,311,516.16,311.18,515.68,311.45Z"/><path class="cls-5" d="M266,230l-.08,1.31H223.48c0-.44-.09-.89-.13-1.33Z"/><path class="cls-5" d="M267.58,231.3c-.05-.44-.09-.89-.14-1.33h42.65c0,.44,0,.88-.08,1.32Z"/><path class="cls-5" d="M354.18,230l-.07,1.32H311.67c0-.44-.09-.89-.13-1.33Z"/><path class="cls-8" d="M178,479.37c0-.45-.09-.89-.14-1.33.05-.61.15-1.22.15-1.84q0-37.67,0-75.33V399.2H141.82l-42.45-.07c0-2.15,1.68-1.17,2.55-1.17q84.68-.07,169.35,0h329a8.8,8.8,0,0,1,2.3.07c.38.1.6.77.89,1.18H517.11c0,11.89,0,23.47,0,35q0,21.92.07,43.82a.49.49,0,0,0,0,.44V479a.77.77,0,0,0-.08.37h-1.46c0-.44-.09-.88-.14-1.32s.1-1.08.1-1.62q0-37.77,0-75.56c0-.51-.06-1-.09-1.52H436.35c0,16.45,0,32.74,0,49,0,9.89,0,19.78.07,29.66l-.07,1.3h-1.41a.87.87,0,0,0-.07-.39V478c0-.46.07-.93.07-1.39v-76c0-.44-.05-.88-.08-1.29H351.14a4.46,4.46,0,0,0-.1.59q0,38.71,0,77.42a4,4,0,0,0,.1.68c-.32.33-.63.66-.95,1l-.71-1c0-.46.1-.93.1-1.39v-76c0-.43-.05-.87-.08-1.29H267.57a8.21,8.21,0,0,0-.08.82q0,38.6,0,77.2a4,4,0,0,0,.1.68c0,.45-.1.89-.14,1.33l-1.44,0c0-.43-.05-.86-.07-1.29s.09-.92.09-1.38v-76c0-.44,0-.87-.07-1.3H223.45c0,.44-.06.75-.06,1.05q0,38.37,0,76.74a7.39,7.39,0,0,0,.1.92l-.13,1.32-1.44,0c0-.43,0-.86-.08-1.29s.09-.92.09-1.38q0-38,0-76.06c0-.44-.06-.87-.09-1.28H179.48v1.29q0,37.92,0,75.83a14.42,14.42,0,0,0,.15,1.6l-.14,1.31Z"/><path class="cls-9" d="M803.4,377.31h-1.51l-.24-1.44c.05-.69.15-1.38.15-2.07v-81.3c0-.59-.06-1.17-.1-1.92H684.22c-.85,0-1.7.06-2.55.06H605.31v2.52q0,25.83,0,51.68c0,10.35,0,20.7.06,31.05l-1.61,2H559.71v-9.2q0-37.9,0-75.8a7.71,7.71,0,0,0-.36-2.18,8.21,8.21,0,0,0-.77-1.42,9.86,9.86,0,0,1,2.45-.71c.83,0,1.67.55,2.51.55q139.2,0,278.39,0c.81,0,1.62-.07,2.45-.11V274.3c0-.52,0-1.05,0-1.58a1.51,1.51,0,0,1,.29-.13l1.55.19v16.39h81.87c1.93,0,3.86-.05,5.8-.08,0,.53,0,1.06,0,1.59-.31,0-.62,0-.93,0H804.93c-.44,0-.88.05-1.46.08v2.66q0,39.06,0,78.11c0,1.47.06,2.94.09,4.4C803.51,376.36,803.45,376.84,803.4,377.31Zm-199.63-1V290.74H561.28v85.57Z"/><path class="cls-10" d="M803.4,377.31l.16-1.43H933.78a6.7,6.7,0,0,0,.16-.81l0-84.4c0-.53,0-1.06,0-1.59q0-19.12,0-38.25l1.39-.12c0,.92.07,1.85.07,2.78q0,59.79,0,119.59v4.28H806.18C805.25,377.35,804.33,377.33,803.4,377.31Z"/><path class="cls-4" d="M603.77,377.9l1.61-2H684.2l.12,1.44H605.23V399.2a15.64,15.64,0,0,0-.37,2.44q0,37,0,73.95a18.77,18.77,0,0,0,.35,2.45c.4,1.77-.77,1.41-1.76,1.29a11.43,11.43,0,0,0-2-.35q-42.13,0-84.27,0v-.52q42.15,0,84.29,0a10.53,10.53,0,0,0,2-.38,16.91,16.91,0,0,0,.34-2.43q0-23.85,0-47.7c0-9.57,0-19.14-.07-28.71v-1.63Z"/><path class="cls-11" d="M434.87,478v.46h-83V479h83a.87.87,0,0,1,.07.39c-.61,0-1.23.06-1.85.06H268.6c-.38,0-.77,0-1.15-.05,0-.44.09-.88.14-1.33l81.89,0,.71,1c.32-.32.63-.65.95-1Z"/><path class="cls-12" d="M684.32,377.32l-.12-1.44c0-.93.13-1.85.13-2.77V293.83c0-1.09-.07-2.17-.11-3.26h1.83c0,3.67,0,7.34,0,11q0,32.52,0,65c0,3.09.05,6.17.08,9.26,0,.48,0,1-.08,1.45Z"/><path class="cls-6" d="M935.35,250.71l-1.39.12c-.85,0-1.7-.09-2.55-.09H846.33c-.4-2.25,1.35-1.42,2.24-1.42q41.07-.06,82.15,0c.75,0,1.51-.1,2.27-.15l1-.19,1.41.13Z"/><path class="cls-13" d="M745.92,377.29h-1.36l-.09-1.4c0-.93.07-1.85.07-2.78q0-39.72,0-79.44c0-.84.12-1.67.18-2.51h1c.07.84.18,1.67.18,2.51q0,33.24,0,66.47c0,5.25,0,10.5.08,15.75C746,376.35,746,376.82,745.92,377.29Z"/><path class="cls-14" d="M515.51,478c0,.44.09.88.14,1.32l-79.3,0c0-.43,0-.86.07-1.3Z"/><path class="cls-10" d="M744.47,375.89l.09,1.4-58.5,0c0-.49.05-1,.08-1.45Z"/><path class="cls-10" d="M745.92,377.29l.1-1.4h55.63l.24,1.44Z"/><path class="cls-14" d="M265.94,478.05c0,.43.05.86.07,1.29l-42.65,0c0-.44.09-.88.13-1.32Z"/><path class="cls-14" d="M221.84,478.05c0,.43,0,.86.08,1.29l-42.42,0c.05-.44.09-.87.14-1.31Z"/><path class="cls-10" d="M935.36,249.07l-1.41-.13V209.56l1.41-.12Z"/><path class="cls-15" d="M517.19,479q42.13,0,84.27,0a11.43,11.43,0,0,1,2,.35c-.84,0-1.69.09-2.54.09H519.65c-.85,0-1.7,0-2.54-.06A.77.77,0,0,1,517.19,479Z"/><path class="cls-15" d="M605.2,478a18.77,18.77,0,0,1-.35-2.45q0-37,0-73.95a15.64,15.64,0,0,1,.37-2.44q0,31.91.06,63.82C605.29,468,605.23,473,605.2,478Z"/><path class="cls-16" d="M844.35,227.56H814.77v45.16h29.64c0,.53,0,1.06,0,1.58h-87.6V225.84h87.52C844.3,226.42,844.32,227,844.35,227.56Zm-86.21,45h27.55V227.67H758.14Zm38-21.7v21.73h8.11V250.84Zm0-23.2v21.29h8.13V227.64Zm16.82,45V250.94h-6.9V272.6Zm-18.57,0V250.94h-6.89V272.6Zm-6.88-44.93v21.22h6.91V227.67Zm18.53,0v21.23H813V227.65Z"/><path class="cls-17" d="M844.7,272.59q0-21.13.1-42.26a12.63,12.63,0,0,1,.53-2.51l-.05,0a6.69,6.69,0,0,1,.91,2.21c.08,5.48,0,11,0,16.44V249h84.25c.84,0,1.68.09,2.51.14-.76.05-1.52.15-2.27.15q-41.07,0-82.15,0c-.89,0-2.64-.83-2.24,1.42q0,11-.08,22Z"/><path class="cls-18" d="M99.37,399.13a5.08,5.08,0,0,0-.55,1.57q0,38.31,0,76.63a4,4,0,0,0,.11.68l-1,1-1-1c0-.92.12-1.84.12-2.76l0-97.92,1.65.13v20.18H603.72c0,.54,0,1.09,0,1.63a.24.24,0,0,1-.29-.1c-.29-.41-.51-1.08-.89-1.18a8.8,8.8,0,0,0-2.3-.07h-329q-84.67,0-169.35,0C101.05,398,99.38,397,99.37,399.13Z"/><path class="cls-3" d="M98.77,333.8v42.09h2.72q13.68,0,27.36,0a23.44,23.44,0,0,0,2.48-.26.21.21,0,0,0,.09-.27,10,10,0,0,0,.3-1.76q0-8.34,0-16.68a8.54,8.54,0,0,0-.34-1.7H123.5a13.47,13.47,0,0,0-.34,2.16c0,5.32,0,10.64,0,16v2.23l-1,.16a11.06,11.06,0,0,1-.48-2.24q0-18.62,0-37.25v-2.79H98.88V332H178.2v1.51H151.89v42.29h26.36v-2.62q0-19.45.08-38.91l1.29,0v43.08h-78c-.92,0-1.85.06-2.77.09l-1.65-.13,0-43.49Zm24.56-.27v19.76h8.27V333.53Zm10,21.56v20.62h8.1V355.09Zm8.09-1.77V333.57h-8.13v19.75Zm8.72,22.46V355.09h-7v20.69Zm0-22.43V333.58h-7v19.77Z"/><path class="cls-6" d="M179.62,334.28l-1.29,0-.13-.76V332q.09-10.23.19-20.46l1.29,0Z"/><path class="cls-15" d="M517.19,478h83.48c.93,0,1.86,0,2.78.06a10.53,10.53,0,0,1-2,.38q-42.15,0-84.29,0A.49.49,0,0,1,517.19,478Z"/><path class="cls-5" d="M434.87,479h-83v-.46h83Z"/><path class="cls-12" d="M745.92,290.59l-.17.57h-1c-.06-.19-.11-.38-.17-.57Z"/><path class="cls-19" d="M707.83,229.17v47.89H574.38V229.17Zm-89.66,1.7h-42v44.49h42Zm44.11,0H620v44.45h42.31Zm1.82,0v44.47h42.19V230.84Z"/><path class="cls-10" d="M368.68,377.26V332.12H517v45.14Zm1.81-1.51H515.43V333.57H370.49Z"/><path class="cls-4" d="M355.47,332.14v45.15H222V332.14Zm-1.35,1.31H267.69v42.28h86.43ZM265.9,375.79V333.51H223.55v42.28Z"/></svg>