<svg id="Layer_1" data-name="Layer 1" xmlns="http://www.w3.org/2000/svg" viewBox="0 0 950 600"><defs><style>.cls-1{fill:#171717;}.cls-2{fill:#e52521;}.cls-3{fill:#191918;}.cls-4{fill:#414241;}.cls-5{fill:#e73934;}.cls-6{fill:#151515;}.cls-7{fill:#e52925;}.cls-8{fill:#e9453f;}.cls-9{fill:#50504f;}.cls-10{fill:#010101;}.cls-11{fill:#e52a26;}.cls-12{fill:#e73833;}.cls-13{fill:#e6322c;}.cls-14{fill:#e83d38;}</style></defs><path class="cls-1" d="M476.34,477.12h-1.49c0-.46-.09-.91-.14-1.37a7.52,7.52,0,0,0,.11-.94q0-38.94,0-77.88a9.86,9.86,0,0,0-.21-1.5H432.67v77.74c0,.87.07,1.73.1,2.6l-.09,1.34h-1.46c0-.46-.09-.91-.14-1.37a7.52,7.52,0,0,0,.11-.94q0-38.94,0-77.89a9.55,9.55,0,0,0-.21-1.49H350.15v2.45q0,37.75,0,75.53c0,.78.06,1.57.09,2.36,0,.45,0,.91,0,1.37a2,2,0,0,0-.14.34c0,.05.08.12.12.18h-1.42l-.14-.5-.06-1.41c0-.31.1-.63.1-.94q0-38.94,0-77.88a11.56,11.56,0,0,0-.2-1.5H260.1v2.68q0,21.19,0,42.38,0,17.63.07,35.26l-.08,1.36h-1.43c0-.45-.05-.9-.08-1.36s.07-.94.07-1.41q0-38.58,0-77.15c0-.6-.08-1.2-.12-1.76H215v2.71q0,23.89,0,47.8,0,14.91.07,29.81l-.08,1.36h-1.43l-.08-1.36c0-.31.07-.62.07-.94q0-38.93,0-77.87a14.06,14.06,0,0,0-.16-1.5H170.08V473.4c0,.79.07,1.57.11,2.36l-.14,1.37h-1.49c0-.45-.05-.9-.08-1.36a2.42,2.42,0,0,0,.06-.46q-.24-51.06-.5-102.11a.85.85,0,0,0,0-.23h1.59v20.88h259q43.14,0,86.27,0,44.45,0,88.89,0v1.52H515.19v2.77q0,37.66,0,75.31c0,.79.06,1.57.1,2.36l-.09,1.35h-1.46c0-.46-.09-.91-.14-1.37a11.54,11.54,0,0,0,.1-1.17q0-38.7,0-77.4a16.47,16.47,0,0,0-.17-1.75H476.35v2.7q0,21.06,0,42.13,0,17.75.07,35.49Z"/><path class="cls-2" d="M168.48,475.76c0,.46.05.91.08,1.36-.95,0-1.89.07-2.84.07H3.53V306.13l1.42.06V475.76Z"/><path class="cls-2" d="M3.53,222.73H210.78c.95,0,1.89.05,2.84.07l-.09,1.36H5V304.5l-1.43.21Z"/><path class="cls-3" d="M3.53,304.71,5,304.5c.87,0,1.73.11,2.6.11h80v22.26L86.1,328v-21.9H12.52c-2.53,0-5,.06-7.57.09l-1.42-.06Z"/><path class="cls-4" d="M687.86,372.91l-1.55,0-.12-1.44c0-.86.09-1.73.09-2.59v-84H619.46v86.59h-1.71V284.79H560.37v86.69H563l39.83.08v1.34h-44.2V284.68c-4.75,0-9.4,0-14,0q-14.69,0-29.36.12l-1.5-.33,0-1.38,1.46-.2c.79.05,1.57.13,2.36.13H851.25V268.86l1.54-.17V283c4.14,0,8,0,11.84,0,1.29,0,2,.16,2,1.8q-.11,42.39-.08,84.78c0,.62.09,1.25.13,1.88l-.18,1.44-1.58,0c0-.46-.11-.93-.16-1.39a13.43,13.43,0,0,0,.13-1.41q0-41.89,0-83.79a11.59,11.59,0,0,0-.19-1.5H807.83v2.68q0,32.77,0,65.56c0,6.15,0,12.3.08,18.46,0,.46-.06.92-.1,1.38h-1.48c-.06-.46-.11-.93-.16-1.4s.09-.79.09-1.18V286.53c0-.54,0-1.07-.08-1.68a14.58,14.58,0,0,0-1.47-.16q-27,0-54,0a6.49,6.49,0,0,0-1.81.59h-1.16a11.5,11.5,0,0,0-2.52-.59q-27.51,0-55,0h-2.37v3q0,35.77,0,71.54c0,4.1,0,8.2.08,12.31C687.9,372,687.88,372.44,687.86,372.91Z"/><path class="cls-3" d="M513.78,201.83c0-.45,0-.9,0-1.35l1.49-.23c.55,0,1.1.11,1.65.11h67.31c.52,0,1.05-.06,1.67-.1V112.53h1.49v87.71h66.37V112.55h1.53v87.67H694V112.55h1.53v87.68H806.28V112.55h1.54v87.68h43.12v-87.7h1.5v87.68H893.6V155h47.61l-.12,1.65c-.55,0-1.1-.11-1.65-.11H896.8c-.53,0-1.06.06-1.8.11V202H852.48v16.72l-1.58-.1V201.84H518c-.95,0-1.9.06-2.84.09Z"/><path class="cls-5" d="M587.34,112.53h-1.49c-.32,0-.63-.07-.94-.07h-68c-.53,0-1.05.07-1.72.12v87.66l-1.49.23q0-30.19-.07-60.4V111H942.83V242.43l-1.64-.29,0-84.37a11.63,11.63,0,0,0-.13-1.17l.12-1.65V112.46H878c-8.53,0-17,.05-25.57.07h-1.5l-43.12,0h-1.54c-.78,0-1.57-.1-2.36-.1h-106c-.79,0-1.58.06-2.37.1H653.71Z"/><path class="cls-6" d="M213.53,224.16l.09-1.36H215l.08,1.36c0,.31-.07.63-.07.94q0,39,0,77.92a10.85,10.85,0,0,0,.19,1.48h43.42v-2.66q0-21.07,0-42.16,0-17.76-.07-35.52c0-.45.06-.91.08-1.36h1.43c0,.45.05.91.08,1.36s-.07.62-.07.94q0,38.94,0,77.87a13.53,13.53,0,0,0,.16,1.5h43.36v-78c0-.79-.07-1.57-.1-2.36l.14-1.37h1.48c0,.45.06.91.08,1.36s-.07.62-.07.94V303a13.53,13.53,0,0,0,.16,1.5h43.37v-2.68q0-37.64,0-75.27c0-.79-.06-1.57-.1-2.36l.14-1.37h1.45l.09,1.35c0,.31-.09.63-.09.94q0,39,0,77.92a11,11,0,0,0,.21,1.53c.39,0,.62.07.86.07l162.36,0,.17,1.46-.47,0-209.37.05q-66.5,0-133,0a12.34,12.34,0,0,0-1.39.14c0,6.15,0,12.14,0,18.13a14.23,14.23,0,0,1-.35,2.22l-1.11.24V304.41c15.45.45,30.45.07,45.57.22v-2.87q0-24.13,0-48.27Q213.59,238.82,213.53,224.16Z"/><path class="cls-7" d="M617.75,371.45h1.71l66.73,0,.12,1.44h-81V477.1c-.7,0-1.22.09-1.75.09h-87c-.47,0-.94,0-1.41-.07l.09-1.35h88.52V473q0-37.53,0-75.05c0-.87-.06-1.74-.09-2.6,0-.51,0-1,0-1.52,0-6.49.08-13,0-19.47,0-.48-.62-1-1-1.44v-1.34Z"/><path class="cls-8" d="M866.46,372.92l.18-1.44h74.45c0-.62.1-1,.1-1.38q0-63,0-126l1.67-.3v129a4.08,4.08,0,0,1-1,.23Z"/><path class="cls-7" d="M350.25,224.15l-.09-1.35c.95,0,1.9-.07,2.84-.07H513.78v-20.9l1.4.11q0,40.49,0,81l-1.46.2v-59Z"/><path class="cls-9" d="M942.84,243.77l-1.67.3a5.9,5.9,0,0,0-.7-.1l-87.56,0v-1.8c.47,0,1,0,1.42,0h85c.62,0,1.25-.07,1.88-.11l1.64.29C942.84,242.88,942.84,243.32,942.84,243.77Z"/><path class="cls-10" d="M747.73,285.3h1.16c.05.87.13,1.73.13,2.59v66.34c0,5.77.05,11.53.08,17.29l-.08,1.34H747.6l-.08-1.34c0-.87.07-1.73.08-2.6v-81C747.6,287,747.68,286.17,747.73,285.3Z"/><path class="cls-2" d="M431.08,475.76c.05.46.1.91.14,1.37q-27.59,0-55.19.06c-8.61,0-17.21,0-25.82,0,0-.46,0-.92,0-1.37Z"/><path class="cls-2" d="M747.52,371.52l.08,1.34-45.52.08c-4.74,0-9.48,0-14.22,0,0-.47,0-.94.07-1.4Z"/><path class="cls-2" d="M749,372.86l.08-1.34,57.07,0c.05.47.1.94.16,1.4Z"/><path class="cls-2" d="M864.72,371.51c0,.46.11.93.16,1.39H807.81c0-.46.07-.92.1-1.38Z"/><path class="cls-2" d="M215.12,224.16,215,222.8h43.62l-.08,1.36Z"/><path class="cls-2" d="M303.66,222.79c-.05.46-.1.92-.14,1.37H260.17c0-.45-.05-.91-.08-1.36Z"/><path class="cls-2" d="M348.71,222.79c0,.46-.09.92-.14,1.37H305.22c0-.45-.05-.91-.08-1.36Z"/><path class="cls-2" d="M432.68,477.12l.09-1.34,41.94,0c.05.46.1.91.14,1.37Z"/><path class="cls-2" d="M513.6,475.76c0,.46.09.91.14,1.37h-37.4l.08-1.36Z"/><path class="cls-11" d="M168,373H86.1V328l1.45-1.12,80.49,0,1.11-.24c.28.46.81.93.8,1.38,0,1.29-.41,2.58-.41,3.87q-.06,18.65,0,37.28c0,1.28,0,2.56.07,3.83Zm-46.93-22.74h-8.46v17.83a18.52,18.52,0,0,1,0,2.36c0,.27-.45.67-.69.66a1,1,0,0,1-.73-.63,9.91,9.91,0,0,1-.06-1.89V328.5H87.6v43h33.47a6.09,6.09,0,0,0,.52-1.69q.06-9,0-17.9A6.09,6.09,0,0,0,121.07,350.22ZM168,371.41V328.47H141.74v42.94Zm-36.63,0V350.36h-8.51v21.09Zm-8.55-43v20.19h8.59V328.47Zm-10,0v20.19H121V328.43Zm27.32,21.91h-7v21h7Zm-.05-1.62V328.54h-6.92v20.18Z"/><path class="cls-2" d="M260.17,475.76h88.4l.06,1.41-87.36,0c-.39,0-.79-.05-1.18-.07C260.12,476.67,260.14,476.22,260.17,475.76Z"/><path class="cls-2" d="M170.19,475.76h43.34l.08,1.36H170.05C170.09,476.67,170.14,476.22,170.19,475.76Z"/><path class="cls-2" d="M215.12,475.76h43.46c0,.46.06.91.08,1.36H215C215.07,476.67,215.09,476.22,215.12,475.76Z"/><path class="cls-12" d="M852.91,244l-.12,24.68-1.54.17q-44.65,0-89.31-.08c-.63,0-1.26-.52-2-.82V218.59H850.9l1.58.1a19,19,0,0,1,.36,2.48c0,7,0,14,.07,21Zm-33.53-23.58v46.74H851.2V220.43Zm-29.7,46.8V220.49H761.51v46.74Zm18.93,0V244H800.4v23.2Zm-8.16-46.82v21.77h8.2V220.41Zm10.18,46.73h7V244.08h-7ZM791.71,244v23.19h6.95V244Zm6.95-1.78V220.45h-6.94v21.76Zm12.07-21.79v21.71h6.85V220.42Z"/><path class="cls-13" d="M513.59,304.59l.12-20.11,1.5.33c0,6.51,0,13,0,19.51,0,1,.28,2.21-1.46,1.73Z"/><path class="cls-13" d="M363.63,372.81V326.87H515.06v45.94Zm150-44.26H365.32V371.4H513.58Z"/><path class="cls-11" d="M213.68,372.8V326.9H350v45.9Zm134.87-44.29H260.24v42.9h88.31Zm-90,42.93V328.5H215.17v42.94Z"/><path class="cls-8" d="M121.07,371.5V350.22a6.09,6.09,0,0,1,.52,1.69q.06,9,0,17.9A6.09,6.09,0,0,1,121.07,371.5Z"/><path class="cls-14" d="M573.71,221.92H710.27v48.76H573.71Zm44.81,1.76h-43v45.39h43Zm45,45.38v-45.3H620.25v45.3Zm1.83-45.39v45.38H708.5V223.67Z"/></svg>