<svg id="Layer_1" data-name="Layer 1" xmlns="http://www.w3.org/2000/svg" viewBox="0 0 950 950"><defs><style>.cls-1{fill:#e94a41;}.cls-2{fill:#f18b75;}.cls-3{fill:#ee7a66;}.cls-4{fill:#fdebe7;}.cls-5{fill:#fbd7ce;}.cls-6{fill:#f29586;}.cls-7{fill:#f08172;}.cls-8{fill:#514f52;}.cls-9{fill:#2d2e32;}.cls-10{fill:#5a595d;}.cls-11{fill:#636164;}.cls-12{fill:#868586;}.cls-13{fill:#9d9b9f;}.cls-14{fill:#a7a4a4;}.cls-15{fill:#f6afa2;}.cls-16{fill:#f1897d;}.cls-17{fill:#c6c3c4;}.cls-18{fill:#f8c2b2;}.cls-19{fill:#d89083;}.cls-20{fill:#e6b7ac;}.cls-21{fill:#f2968f;}.cls-22{fill:#caa39f;}.cls-23{fill:#727175;}.cls-24{fill:#fef4f3;}</style></defs><path class="cls-1" d="M665.36,542.67l12.25,33.76,2.82-1L794.67,534a21.73,21.73,0,0,1,3-.61l31,85.26c-.94.34-1.77.73-2.67,1.06l-77.08,28,43.49,119.81L666.48,813.12c-.28-.77-.63-1.53-.92-2.33L595,616.46c-.34-.94-.77-1.93-1.15-2.9l.16-.36a4.63,4.63,0,0,0,.54,0l1.07,2.93,70.06,193,.57,1.58a12.39,12.39,0,0,0,.88,1.58l3-1.09L791,767.34c1-1.05,0-2-.31-2.81q-21.21-58.62-42.53-117.18c.83-.3,1.63-.65,2.46-1l74.11-26.9c.94-.34,1.8-.65,2.68-1,.74-.9,0-1.68-.29-2.42l-28.85-79.5a21.87,21.87,0,0,0-1-2.12l-.8-.37a23.69,23.69,0,0,0-2.51.65L761.7,546.4l-84.5,30.67-12.46-34.32Z"/><path class="cls-2" d="M80.22,168.37l1-.25.32.88c.19.52.33,1.06.52,1.59l26.14,72a14.12,14.12,0,0,0,.63,1.56l.37,1L125,288.72a5.65,5.65,0,0,0,.67,1.07l2.76-1,133-48.26c.83-.3,1.64-.6,2.44-1l.27,1-51.16,18.57-.76.28-86.48,31.38,27.39,75.47c.3.82.6,1.65,1,2.46l.32.87-.91.44Z"/><path class="cls-3" d="M756.21,419.23c-.14,0-.31.06-.47.1L696.85,257.06a14.9,14.9,0,0,0-.65-1.8,3.74,3.74,0,0,0-.83-.76l-1.13.41L531.37,314l-.66.25-.06,0-.12-.64h0c.76-.28,1.53-.49,2.27-.76l163.3-59.27Z"/><path class="cls-4" d="M647.05,865.54l.32.57L482.28,926l-.23-.64c.72-.31,1.44-.67,2.19-.94l161.88-58.76Z"/><path class="cls-2" d="M482.09,925.38l.17.62-.94.34c-.49-1.36-.9-2.73-1.39-4.08l-55.71-153.5c-.35-.94-.8-1.92-1.21-2.88l.33-.65A18.58,18.58,0,0,1,424.9,768l35,96.43,21.83,60.16Z"/><path class="cls-2" d="M696.13,253.69,532.8,313c-.74.27-1.49.55-2.27.76a22.28,22.28,0,0,1,2.49-1.25l159.6-57.93c1.12-.4,2.23-.86,3.35-1.3Z"/><path class="cls-5" d="M202.81,71.38l-.25-.5L327.94,25.37l-.29.65-2.71,1L206.16,70.11C205,70.5,203.92,71,202.81,71.38Z"/><path class="cls-2" d="M327.65,26l.29-.65.45-.16.32.88-.63.29a.23.23,0,0,1-.28.1l-.15-.41Z"/><path class="cls-1" d="M530.68,314.31l.67-.25c.34.94.55,1.83.88,2.74l56.91,156.78L553.9,486.37,468,249.71c-.32-.89-.73-1.77-1.1-2.64l.65-.32,86.7,238.88,34-12.35-56.63-156C531.32,316.29,531,315.29,530.68,314.31Z"/><path class="cls-1" d="M328.09,26.38l.63-.29,85.54,235.69,1.07,2.93a2.9,2.9,0,0,0-.57.25l-1-2.7-84.56-233A30,30,0,0,0,328.09,26.38Z"/><path class="cls-2" d="M414.83,264.94a2.44,2.44,0,0,0,.57-.26c.94-.34,2-.61,3-1l46.52-16.89a10.35,10.35,0,0,1,1.81-.59c.24-.09.58.33.88.51l-.65.32L417.44,265a8.17,8.17,0,0,1-1.82.56C415.39,265.61,415.1,265.17,414.83,264.94Z"/><path class="cls-2" d="M530.52,313.72l.11.64Z"/><path class="cls-3" d="M327.65,26l.15.41L206,70.63a15.94,15.94,0,0,0-1.77.71.49.49,0,0,0-.14.18c0,.08-.07.15-.16.37l102,280.88.17.64c-1,.57-1-.53-1.46-.93l-.16-.6-.29-.81-.2-.55c-.3-.82-.49-1.69-.79-2.51L265.05,243c-.3-.83-.67-1.62-1-2.43l-.26-1-13.25-36.5c-1-2.71-2-5.39-3-8.09l-.34-.94c-.34-.94-.65-2-1-2.95L202.76,71.44c1.11-.4,2.22-.88,3.34-1.28L324.88,27C325.84,26.64,326.74,26.34,327.65,26Z"/><path class="cls-1" d="M304,350.52l.2.56q-17.35,6.3-34.73,12.54a3.55,3.55,0,0,0-2.25,2q-2,4.2-4,8.39-3.21,6.92-6.38,13.83l-6.69,14.31a30.84,30.84,0,0,0,.81,3.18l31.41,86.57.9,2.48-30.37,11c.81,3.76,102.22,282.66,103.3,284.14l2.44-.89,62-22.51c.94-.35,1.81-.66,2.73-.93l-.33.65-67.62,24.54L252,505.15l.69-.55c.61-.16,1.25-.26,1.85-.48q13.15-4.77,26.34-9.63c.45-.16.92-.4,1.56-.69-.3-.82-.5-1.64-.78-2.43L249.89,404a4.44,4.44,0,0,1,.2-3.8c5.63-12.2,11.18-24.43,16.43-36Z"/><path class="cls-6" d="M154.26,369.59l-.31-.88c.94-.34,1.82-.58,2.72-.91l73.45-26.66,10.34-3.75.68.31a3.21,3.21,0,0,1-.79.77c-.72.32-1.49.54-2.24.81L157,368.72C156.09,369,155.18,369.3,154.26,369.59Z"/><path class="cls-1" d="M241.19,337.64l-.68-.32c-.19-.52-.31-1.07-.51-1.6l-27.07-74.61c-.22-.6-.51-1.18-.76-1.75l.75-.28c.27.92.5,1.84.82,2.74l26.7,73.55C240.7,336.13,240.94,336.89,241.19,337.64Z"/><path class="cls-7" d="M647.05,865.54l-.88.14-.24-.66-1.06-2.93L560.1,628.54l-.82-2.25c-.08-.24.1-.56.16-.85l.76.36c.35.94.62,2,1,3l85,234.06A24.23,24.23,0,0,1,647.05,865.54Z"/><path class="cls-1" d="M560.28,625.78l-.77-.36c.74-.27,1.47-.61,2.21-.88L593.8,612.9l.25.31-.18.36Z"/><path class="cls-6" d="M695.34,254.53a3.78,3.78,0,0,1,.83.77,15.91,15.91,0,0,1,.65,1.79l58.87,162.22c-.59.21-1.16.53-1.75.74L636.86,462.54l-.44.16-.73.21c.07-.35,0-.88.25-1a15.35,15.35,0,0,1,2.22-.89L755,418.61,696.34,256.93C696.05,256.14,695.67,255.34,695.34,254.53Z"/><path class="cls-8" d="M665.36,542.67l-.6.09c.14-.36.18-.93.43-1,1-.46,2.06-.75,3.07-1.19a5.58,5.58,0,0,0,1.14-1A2.43,2.43,0,0,0,668,537.2l.74,2.57-6.59,2.54L654.77,545l-2-5.44-.21-.73.94-.35.24.68,1.77,4.87c1.74-1.86,5.12-.53,5.82-3.86,0-.19.55-.27.85-.39l1.78-.65c2.35-.85,2.79-1.93,1.87-4.33l-.07-.78,1.18-.43.22.59c0,.94-.2,1.94,1.31,1.85a1.16,1.16,0,0,1,.78.67c.51,1.23.91,2.51,1.47,4Zm-3.59-1.75.29.45c1.79-.77,3.72-1.2,5.3-2.48Z"/><path class="cls-9" d="M648.58,496.48l5.22-1.89,1.63,4.48-1,1,.62,1.69-.6.21c-.12-2.08-2.56-1.19-3.1-2.7l-3.76,1.37c-.33.12-.77-.14-1.15-.23a.31.31,0,0,0,.32-.21l5.26-1.91.93,1.12.32-.19-.62-1.72-6.06,2.2-.47.17L640.29,502l1.68,4.63.28.5-1.09.4-.14-.61-2-5.48,13.44-4.88-.2-.52c-1,.36-2,.79-3,1.09-.31.12-.74-.22-1.12-.34Z"/><path class="cls-10" d="M661.13,500.11c1.25,1.11.78,2.49.37,3.68a22.7,22.7,0,0,1-1.91,3.53l2.69.84-.3.53c-.54-.11-1.07-.25-1.62-.31-4.36-.55-7.49,2.81-6.85,7.25l.13.66c-.3-.17-.77-.28-.85-.52a5.53,5.53,0,0,1,.76-4.95A19.76,19.76,0,0,1,655,509c-.73-.64-2,.21-2.38-1.12.62,0,1.24.08,1.86.1a5.93,5.93,0,0,0,6.45-5.38,5.8,5.8,0,0,0-.11-1.81Z"/><path class="cls-1" d="M648.58,496.48l-.47.29c-.3-.83-.67-1.62-1-2.44L635.74,462.9l.73-.2a18.86,18.86,0,0,0,.51,1.82Q642.76,480.51,648.58,496.48Z"/><path class="cls-11" d="M667.71,520c.8-.21,1.2.15,1.29.93a6.49,6.49,0,0,1-.87,4.35c-.39.6-.81,1.16-1.35,1.9.79.25,1.53.41,2.22.69,1.86.74,3.48,1.73,3.65,4l-.79-.4c-1.07-2.61-3.37-3-5.79-3.29l-.44-1.2a14.94,14.94,0,0,0,1.4-1.57c1-1.41,1.62-2.92.91-4.67Z"/><path class="cls-12" d="M661.13,500.11l-.35.67c-2.3.78-4.61,1.53-6.89,2.37-1.46.53-2.87,1.21-4.3,1.83l-.73-.35a6.08,6.08,0,0,1,1.23-.9c1.46-.61,2.95-1.14,4.42-1.7l.6-.21c1.4-.51,2.82-1,4.25-1.43A11.65,11.65,0,0,1,661.13,500.11Z"/><path class="cls-13" d="M667.71,520l.27.74-11.13,4-.37-.65,5.24-2.29c.49.54.65.18.77-.28Z"/><path class="cls-14" d="M653.63,516.29l-.13-.66,11.12-4,.28.57-5,2.1c-.5-.28-.89-.34-.79.44Z"/><path class="cls-13" d="M671.86,531.48l.8.4-5.48,2.27-.21-.59C668.6,532.83,670.24,532.17,671.86,531.48Z"/><path class="cls-9" d="M659.12,514.75c-.09-.78.29-.72.8-.45l2.55,7.29c-.12.47-.28.83-.78.28Z"/><path class="cls-10" d="M664.91,512.2l-.27-.57c-.27-1.54-1.63-2.1-2.67-2.93l.3-.54c1.51.4,2.27,1.66,3.14,2.78C665.86,511.49,665.62,512,664.91,512.2Z"/><path class="cls-6" d="M247.21,194l.34.94-1.8.65L111.18,244.43c-.68.24-1.36.49-2,.79l-.37-1,.66-.24,83.41-30.27a11.08,11.08,0,0,0,1.36-.73L167,137.84,83.94,168c-.82.3-1.65.6-2.45,1l-.32-.88c.75-.27,1.47-.63,2.22-.9l81.33-29.52c3-1.1,3-1.1,4.16,2l26.46,72.92a10.39,10.39,0,0,0,1.46-.26Z"/><path class="cls-6" d="M791,767.33c-.28-1-.53-2-.88-3L748.58,650a13.72,13.72,0,0,1-.43-2.64l42.53,117.18C791,765.37,792,766.28,791,767.33Z"/><path class="cls-15" d="M796.45,534c-.78.37-1.55.8-2.37,1.1L679.67,576.65a12.77,12.77,0,0,1-2.46.41l84.51-30.67,32.22-11.7C794.77,534.43,795.6,534.21,796.45,534Z"/><path class="cls-15" d="M827.42,618.43c-.34-.94-.64-2-1-2.94l-28.35-78.12c-.35-.94-.56-2-.84-3a21.87,21.87,0,0,1,1,2.12L827.13,616C827.4,616.76,828.19,617.53,827.42,618.43Z"/><path class="cls-6" d="M593.79,612.89l.79.28a4.89,4.89,0,0,1-.54,0Z"/><path class="cls-1" d="M481.79,924.53c.75-.27,1.53-.43,2.28-.7l159.86-58c.68-.25,1.34-.54,2-.8l.24.65L484.29,924.42c-.74.27-1.47.63-2.19.94Z"/><path class="cls-5" d="M267.17,365.61a3.57,3.57,0,0,1,2.25-2q17.38-6.24,34.74-12.54l.29.81-35.58,12.91C268.34,365.09,267.77,365.35,267.17,365.61Z"/><path class="cls-1" d="M330.08,344.86l-13,4.6-11,4-.18-.64,1.7-.62,1-.37c.83-.3,1.67-.54,2.5-.84l36.66-13.3.1.63a.54.54,0,0,0-.27.2Z"/><path class="cls-1" d="M268.92,364.83l35.58-12.91.16.6-35.55,12.9Z"/><path class="cls-5" d="M283.94,494.71l-.71-.33-.9-2.48-31.42-86.56c-.37-1-.54-2.13-.81-3.19l.43.21.26.71a28.59,28.59,0,0,1,1.3,2.79l31.28,86.19.9,2.47A1.09,1.09,0,0,1,283.94,494.71Z"/><path class="cls-3" d="M268.92,364.83l.18.5c-.48.82-1,1.61-1.42,2.46-3,6.43-6.05,12.84-9.06,19.31a13.63,13.63,0,0,1-1.28,1.89l-.43-1.19q3.18-6.92,6.37-13.82c1.31-2.81,2.64-5.6,4-8.4Z"/><path class="cls-5" d="M256.85,387.82l.43,1.19h0l-.28.63h0l-.28.62h0l-.29.63h0l-.28.62h0l-.29.63h0l-.28.62h0l-.29.62h0L255,394h0l-.28.62h0l-.29.63h0l-.28.62h0l-.29.61h0l-.29.6h0l-.29.61h0l-.29.6h0l-.28.6h0l-.28.6h0l-.28.61h0l-.28.6h0l-.28.6h0l-.29.61h0l-.67.44-.44-.2Q253.5,395,256.85,387.82Z"/><path class="cls-16" d="M675.39,580.28l-7.66-20.9-6.14-16.92.55-.2L675.82,580l-.05.23Z"/><path class="cls-13" d="M653.53,538.47l5-2,.24.65c-1.64.67-3.29,1.35-4.94,2Z"/><path class="cls-13" d="M660.74,535.48c1.7-.5,3.4-1,5.12-1.49l.07.77-5,1.54Z"/><path class="cls-13" d="M647.53,540.48l5.07-1.65.21.74-5,1.59Z"/><path class="cls-17" d="M669.4,539.56l-.66.25-.75-2.58A2.44,2.44,0,0,1,669.4,539.56Z"/><path class="cls-6" d="M645.79,499,631.9,460.75l19.7-7.29.33.49-19.3,7,13.73,37.85Z"/><path class="cls-12" d="M641.15,507.55c-1.26.46-2.51,1-3.76,1.37-.9.32-1,.85-.64,1.64l-.71.26-1-1.78,5.95-2.16Z"/><path class="cls-12" d="M647.27,505.25l-5,1.9-.28-.51,4.44-1.61a5.61,5.61,0,0,1,1.53-.06Z"/><path class="cls-12" d="M646.62,499.74l.18.5a.34.34,0,0,1-.32.21l-.33-.56Z"/><path class="cls-9" d="M663,528.09l2.62-1.1.43,1.2-2.65,1Z"/><path class="cls-10" d="M649.59,505l1.81,2.33c-1.39.41-1.48-1.13-2.53-1.56l-.8.74-.77-1.26L648,505l.64.55.29-.92Z"/><path class="cls-8" d="M656.87,524.81c.58.69,1.18,1.37,1.74,2.1a2.44,2.44,0,0,1,.2.7c-1.53-.26-2.15-1.46-2.66-2.7-.07-.18.22-.5.35-.76Z"/><path class="cls-8" d="M677.85,666l-3.21,1.34,1.36,3.76L665.46,675l28.72,79.15,8.33-3,.34.94c-.44.16-.91.27-1.36.43l-45.41,16.48c-.6.22-1.18.49-1.77.74l-.64-.2a1,1,0,0,1-.16-.43l.51-.36a8.64,8.64,0,0,1,1-.28l37.15-13.48a7.53,7.53,0,0,0,1-.5l-6.93-19.09-1.68.62-35.81,13c-.51.19-1,.45-1.52.67l-.71-.05-.12-.48.42-.31c.45-.16,1-.27,1.37-.41l36.46-13.24c.43-.15.84-.36,1.35-.59l-7-19.16-2.26.82L661,721.91q-10.58,3.84-21.13,7.73l-.53.07a.63.63,0,0,1-.16-.44l.49-.57c.37-.13.77-.18,1.15-.31l36.45-13.23a11.1,11.1,0,0,0,1.45-.76l-6.88-18.95-2.26.82L652,702.65q-9.68,3.51-19.32,7.08l-.15-.11-.25-.69-.06-.17c.44-.16.92-.24,1.37-.4L670.33,695c.36-.14.7-.33,1-.48l-6.9-19-37.6,13.64c-.52.19-1,.46-1.53.69l0-.12,0-.1L625,689l-.05-.13c.3-.11.62-.16,1-.28l47.76-17.33a11.38,11.38,0,0,0,1.15-.6l-14.15-39-2.31.83-35.59,12.92c-4,1.45-8,2.89-11.91,4.4l-.54.07-.17-.46c.1-.2.22-.39.32-.59.37-.13.77-.19,1.15-.33l47.79-17.34a5.1,5.1,0,0,0,.89-.48l-14.12-38.89-1.27.46-46.9,17c-.59.22-1.16.53-1.73.8l-.12-.07-.11.09a1.57,1.57,0,0,1-.26-.19l-.22-.6c.68-.24,1.31-.58,2-.82l47.11-17.1c.66-.24,1.33-.41,2.2-.68l27.38,75.41,4-.6Z"/><path class="cls-10" d="M544.74,753.4c-.35,0-.85.1-1-.07a4.88,4.88,0,0,1-.48-1.34l-24.85-68.48a11.53,11.53,0,0,1-.32-1.15l.77-.38,11-4c-.17-.47-.2-.86-.34-1.22l-13.16-36.27a8.73,8.73,0,0,0-1-1.57l-.16-.43c.5-.24,1-.52,1.5-.71l38.14-13.84c.45-.16.91-.26,1.38-.38l.24.65-.53.46a9.37,9.37,0,0,0-1.16.29L518,638.31a9.31,9.31,0,0,0-1.32.71l6.63,18.25a2.07,2.07,0,0,0,.46.52l.32.89a6.37,6.37,0,0,0,.19,1.37l6,16.64a9.34,9.34,0,0,0,.57,1c.59-.21,1.06-.31,1.49-.46l36.2-13.14c.53-.19,1-.47,1.51-.7l.68.17.2.56a5.69,5.69,0,0,0-.72.4,8.53,8.53,0,0,1-1,.3l-48.7,17.67c-.42.16-.83.38-1.19.53a2.56,2.56,0,0,0,0,.62L533,721.1a3.71,3.71,0,0,0,.85,1l.22.61a5.9,5.9,0,0,0,.09,1.57l10.36,28.54Z"/><path class="cls-3" d="M728.47,622.81c-.32.37-.55.91-1,1.07-1.85.75-3.76,1.36-5.64,2l-2.54.93,1.81,5c.6,1.65,1.31,3.28,1.8,4.95s1.62,2.7,1.77,4.46,1.09,3.31,1.69,5l1.82,5,5.22-1.9-4.3-11.87,10.57-3.84c-1.62-4.66-3.31-9.11-4.93-13.57l-4.9-13.51a5.12,5.12,0,0,0,.73-.39c.33.9.72,1.78,1,2.68L745,645.29l.24.67a.78.78,0,0,1-.05.4,3.17,3.17,0,0,0-.41.21c-.92.26-1.85.47-2.75.79-5.15,1.87-10.35,3.7-15.5,5.54l-.43-.64,1.27-.66-3.75-10.34c-.14-.38-.78-.57-1.16-.83.09-.59.43-1.22.24-1.76-1.3-3.78-2.73-7.52-4.16-11.47l-15.77,5.72-5.57-15.34,6.28-2.28c-.76,1.34-1.79,1.35-2.57,1.71s-1.62.59-2.55.92l5,13.9,24.08-8.74ZM744,645.56c-1.36-3.76-2.59-7.39-4-10.91l-9.63,3.5,4,10.9Z"/><path class="cls-18" d="M426,762.18l1.15,3.16,56.43,155.49.05.71c-.36-.24-.84-.43-1-.76a13.53,13.53,0,0,1-.83-2l-55.65-153.3-1.06-2.93Z"/><path class="cls-2" d="M357.06,786.21,261.88,524,255.74,507a5.51,5.51,0,0,1-.1-1.62l.19.55.47.54.41,1.61c.3.82.48,1.69.77,2.51l98.94,272.6c.33.9.71,1.78,1.08,2.67Z"/><path class="cls-14" d="M357.06,786.21l.52-.31a.92.92,0,0,0,.36-.13c.75-.27,1.52-.49,2.27-.76l131.22-47.63c.75-.27,1.5-.54,2.23-.88a1.51,1.51,0,0,1,.37,0l.59-.21c-.11.33-.11.85-.32,1a15.47,15.47,0,0,1-2.21.89l-63.43,23c-.94.35-1.8.66-2.67,1.06l-.94.34c-.94.34-2,.65-2.94,1l-62,22.52a13.2,13.2,0,0,1-2,.68C357.7,786.75,357.36,786.39,357.06,786.21Z"/><path class="cls-19" d="M744.74,646.57a2.27,2.27,0,0,1,.41-.21l10.06,27.72q9.33,25.68,18.71,51.35,7,19.27,13.92,38.56c.19.52.32,1.06.51,1.71a10.08,10.08,0,0,1-1.25.68l-58.57,21.26-.31-1.19c.86.69,1.67.18,2.48-.11l55-20c.64-.23,1.25-.57,2.16-1l-13.6-37.48c-.25-.68-.5-1.38-1.39-1.4l.43-1-8.48-23.36-.28-.75-7.36-20.3c-1.78-4.89-3.59-9.75-5.4-14.63l-1-.47c.86-.81.29-1.63,0-2.42Z"/><path class="cls-20" d="M625.46,814.29c1.62,4.43,3.28,8.84,4.89,13.28l13.07,36a17,17,0,0,1-2,1l-38.1,13.83a2.35,2.35,0,0,1-.7,0l.1-.26.47-.79,39.09-14.19-16.82-46.34c-.24-.67-.54-1.32-.81-2Z"/><path class="cls-7" d="M715.8,565.7c.68-.25,1.33-.56,2-.8l75.54-27.42,2.2-.79a18.3,18.3,0,0,1,.85,1.72l27.83,76.68c.23.64,1.26,1.58-.21,2.14l-.15-.42a11.48,11.48,0,0,0-.35-2L796.2,539.55c-.23-.64-.58-1.24-1-2.08L727.79,562l-11.48,4.16Z"/><path class="cls-11" d="M693.72,800.23l-.53.19-.43-.43-8.44-23.42-.74-2c-.56-1.69-.49-1.86,1.09-2.52l3.15-1.14q9.67-3.51,19.31-7.12c.44.23,1.08.39.37,1l-23.24,8.43,9.45,26a.54.54,0,0,0,.12.34Z"/><path class="cls-9" d="M534.06,722.67l-.22-.61c.82-.29,1.63-.64,2.46-.94l45.87-16.65c.83-.3,1.63-.65,2.45-1l.54-.06.06.18.07.17-.34.65c-.94.34-1.84.52-2.74.84l-42.53,15.44C537.84,721.37,536,722,534.06,722.67Z"/><path class="cls-8" d="M524.11,658.68l-.35-.94,35.5-12.88c1.19-.43,2.37-.92,3.56-1.39l.61-.05.28.78-.5.35c-.83.3-1.67.51-2.5.81Z"/><path class="cls-21" d="M823.84,616.8l.15.41c-.94.34-1.77.72-2.67,1l-73.21,26.57c-.94.34-2,.7-2.9,1.11l-.25-.66c.94-.34,1.83-.58,2.73-.91l50.25-18.24Z"/><path class="cls-6" d="M483.56,921.57l-.05-.72c.4-.08.78-.18,1.16-.29l77.74-28.22.24.44-.07.13-.46.16-75.85,27.54C485.37,920.94,484.47,921.25,483.56,921.57Z"/><path class="cls-9" d="M610.91,774.24l.07.19.06.17a3,3,0,0,0-.46.3c-.81.3-1.67.52-2.49.82L571.43,789l-.24-.68,36.42-13.22c.94-.34,1.76-.74,2.64-1.11Z"/><path class="cls-22" d="M610.91,774.24l-.68-.28L585,704.4l.34-.64,11.11,30.62Q603.7,754.27,610.91,774.24Z"/><path class="cls-19" d="M692.75,800l.43.44-25,9.07-14.54-40,.65.2q6.83,18.79,13.66,37.65a8.77,8.77,0,0,0,.8,1.39Z"/><path class="cls-9" d="M715.8,565.7l.45.41,6.86,19.13,7.49,20.93a7.24,7.24,0,0,0-.73.38l-1.55.2c1-.94,1.44-1.52,1-2.64-2.11-5.51-4-11.09-6.09-16.62a4.41,4.41,0,0,0-.7-.91l-.28-.78a2.25,2.25,0,0,0,0-.89q-3.36-9.24-6.78-18.48l.15-.69Z"/><path class="cls-9" d="M625.46,814.29c-.26.22-.53.43-.82.66-.45.16-.93.23-1.38.39L585.62,829l-.29-.12-.17-.45.06-.14c.94-.34,1.84-.57,2.74-.9l32.9-11.94c1.28-.47,2.53-1,3.79-1.47l.57-.06A1,1,0,0,1,625.46,814.29Z"/><path class="cls-19" d="M715.67,565.75l-.15.69c-4.35,1.58-8.74,3.09-13.09,4.67q-13.09,4.75-26.13,9.56l-.55-.46,0-.23c1-.3,1.85-.52,2.74-.84l34.64-12.57C714,566.26,714.83,566,715.67,565.75Z"/><path class="cls-6" d="M585.16,703.42a2,2,0,0,1-.54.06l-13.45-37.05a18,18,0,0,0-1-1.91,4.33,4.33,0,0,0,.73-.4Z"/><path class="cls-7" d="M556.5,624.15l-.22-.6,39.23-14.24.22.59c-.75.27-1.53.45-2.28.72l-34.73,12.6C558,623.5,557.24,623.84,556.5,624.15Z"/><path class="cls-13" d="M596,610.1l.11-.09.12.07,8.53,23.3,5.69,15.44c-.11.2-.22.39-.32.59Q603.5,631.23,597,613C596.6,612.07,596.3,611.09,596,610.1Z"/><path class="cls-6" d="M625.28,813.92a2.13,2.13,0,0,1-.57.05l-14.17-39.05a1.72,1.72,0,0,0,.45-.31c1.06,2.93,2.21,5.82,3.26,8.74Q619.79,798.62,625.28,813.92Z"/><path class="cls-16" d="M610.29,649.86l.54-.07,14.16,39,0,.13a1.21,1.21,0,0,0-.45.16Z"/><path class="cls-16" d="M693.72,800.23l0-.59a.46.46,0,0,0,.34-.19c1.56-.57,3.17-1,4.74-1.6,6-2.17,11.91-4.4,17.82-6.59a.52.52,0,0,0,.45-.09l.94-.34,9.69-3.51.35.4Z"/><path class="cls-21" d="M255.88,506l-.19-.55c5.75-2.09,11.5-4.17,17.23-6.33,3.76-1.36,7.38-2.91,11.06-4.37a1.13,1.13,0,0,0,.35-.21l.39.82c-1.34.49-2.66,1.05-4,1.54q-12.2,4.48-24.41,8.95A.86.86,0,0,0,255.88,506Z"/><path class="cls-6" d="M563.21,644.57l.5-.35,7,19.34-.68-.17Z"/><path class="cls-22" d="M639.55,728.71l-.48.57L632,709.79l.45-.16.15.12Z"/><path class="cls-16" d="M639.25,729.66a2.25,2.25,0,0,1,.52-.08l6.94,19.11-.42.31Z"/><path class="cls-20" d="M646.4,749.54l.71.05,6.91,19a2,2,0,0,0-.5.37Z"/><path class="cls-22" d="M582.61,885.74q-7.87,2.87-15.79,5.63l-2.69,1-.6.13-.13-.54L582.47,885Z"/><path class="cls-16" d="M631.72,709l-6.94-19.13a2.54,2.54,0,0,0,.43-.27l0,.1,0,.12,6.88,18.94.06.17A4.46,4.46,0,0,0,631.72,709Z"/><path class="cls-6" d="M563.43,643.44a2.1,2.1,0,0,1-.61,0L556,624.69l.53-.45Z"/><path class="cls-9" d="M728.13,787.73l-.35-.41-6.51-17.93-.07-.56.88.55,6.18,17,.3,1.19A.8.8,0,0,1,728.13,787.73Z"/><path class="cls-16" d="M602.46,878.49l-18.6,6.75-.2-.56,18.47-6.7Z"/><path class="cls-20" d="M563.51,892.44l.6-.13-1.36.87a1.41,1.41,0,0,0-.18-.29l.08-.13Z"/><path class="cls-20" d="M583.68,884.66l.2.55-1,.51a1.66,1.66,0,0,1,.1-.29l.36-.73A.62.62,0,0,1,583.68,884.66Z"/><path class="cls-23" d="M631.72,709a4.42,4.42,0,0,1,.5-.1l.25.68-.45.17Z"/><path class="cls-23" d="M625.24,689.6a2,2,0,0,0-.43.28l-.29-.8a.87.87,0,0,1,.44-.16Z"/><path class="cls-20" d="M602.46,878.49l-.33-.56.25-.52.37.83-.1.26Z"/><path class="cls-20" d="M582.61,885.74l-.15-.74h0l.41.42a1.33,1.33,0,0,0-.1.28Z"/><path class="cls-18" d="M562.57,892.89a1.41,1.41,0,0,1,.18.29l-.62-.09Z"/><path class="cls-8" d="M323.57,144.23a2.88,2.88,0,0,1-.76.17,16,16,0,0,1-.74-1.76L300.92,84.36l-8.46,3.07-.34-.6c6.2-2.25,12.36-4.59,18.61-6.9L308,72.29,248.77,93.77l2.8,7.7,18.72-6.79-.08.84-8.4,3,2.88,8.1,26.36,72.65-37.26,13.52c-.82.3-1.64.6-2.45,1l-1,.06a1.06,1.06,0,0,1-.12-.34L251,193a8,8,0,0,1,1.15-.34L288.4,179.5l1.61-.59-7.17-19.74c-.69.26-1.32.37-1.92.58l-35.59,12.92c-.53.19-1,.46-1.53.69l-.87.07-.28-.63.8-.48c.38-.14.78-.21,1.16-.34L280.9,158.8c.52-.18,1-.43,1.58-.66l-7-19.31L238,152.42c-.53.2-1,.45-1.53.68l.06-.12-.08-.09-.26-.69,0-.15c.74-.27,1.52-.47,2.27-.74l34.45-12.51c.76-.27,1.49-.6,2.22-.9l.16-.06-14.16-39-38.82,14.09-.81-.14.3-.54,28.86-10.47L238.39,68.09c-.65-1.8-1.31-3.6-2-5.37l-.09-.84.67-.24.48.8C241,72.66,244.8,82.8,248.42,93l29.05-10.54a2.26,2.26,0,0,0,0-.58l-10.88-30-.14-.93.33-.12.76.67c.9,2.48,1.71,5,2.61,7.46q4.17,11.48,8.41,22.93l.52.07,28.55-10.36a3.65,3.65,0,0,0-.07-.87L296.7,41l-.08-1a1.61,1.61,0,0,1,.33-.12l.54.8c.11.3.14.62.27,1L311,77.94a13.17,13.17,0,0,0,.66,1.56,7.34,7.34,0,0,0,1-.2q14.1-5.11,28.11-10.27l.56.14.07.18-.34.5-39.14,14.2,14.17,39.05,2.35-.85,20.73-7.53q8-2.89,16-5.86a2.89,2.89,0,0,1,.5-.08l.29.82a1.71,1.71,0,0,0-.41.27c-.6.22-1.24.34-1.83.55l-35.59,12.92c-.58.21-1.13.49-1.76.75l7,19.27Z"/><path class="cls-8" d="M461.72,396.39l9.85-3.58-45.72-126c-.19-.52-.44-1-.66-1.53l-.06-.93.6-.21.5.8c.11.3.17.62.27.91l20.58,56.7c.15.42.38.81.61,1.31l7.77-2.81,31.26-11.41.52-.12.3.82a2.07,2.07,0,0,0-.41.27,7.51,7.51,0,0,0-.94.21L449,324.35a9.83,9.83,0,0,0-1,.5l21.41,59,2.58-.94,29.29-10.63c2.41-.87,4.81-1.74,7.19-2.69l.49-.1.23.8a3.62,3.62,0,0,0-.41.27c-.37.13-.78.14-1.16.28l-36.73,13.33a10.4,10.4,0,0,0-1.27.69L498,463c-.44.08-.57.12-.58.11L483.14,425.2l-4.29,1.56c-1.89.63-3.81,1.21-5.67,1.8l-.15-.4.44-.46,9.4-3.41-11-30.42-9.74,3.53Z"/><path class="cls-8" d="M361.33,287.81c-.25-.68-.55-1.34-.8-2l-35.58-98,11.88-4.31-6.41-18.06.76-.28,6.52,18,10.88-3.94q14.18-5.14,28.32-10.36l.51-.08.29.8a1,1,0,0,0-.38.28c-.38.13-.78.16-1.16.3l-48.22,17.5c-.58.21-1.14.51-1.79.8l22.1,60.87,2.48-.9,27.5-10q10.57-3.84,21.15-7.74l.28.77.07.2a4.52,4.52,0,0,0-.47.11l-49.49,18a8.49,8.49,0,0,0-1.18.66l13.35,36.79Z"/><path class="cls-11" d="M267.43,238.21c1.66-.6,3.33-1.13,5-1.73l46.78-17L340,276.91l2.76-.57.13.34a12.32,12.32,0,0,1-1.05.73,12.84,12.84,0,0,1-1.37.59l19.11,52.64c.3.83.59,1.65.84,2.49a6.68,6.68,0,0,0-.88.38l-.07-.19-.24-.68L345.7,295.28a6,6,0,0,0-.6-1l-2.59.94-42.3,15.35c-1.94.71-3.89,1.41-5.82,2.18l-.94.34-.34-.94.94-.34c.31-.12.78-.19,1.14-.32l48.46-17.59a12.25,12.25,0,0,0,1.21-.58l-26.32-72.5-2.53.92-39,14.15c-3.08,1.12-6.15,2.24-9.21,3.42l-.94.14-.24-.66Z"/><path class="cls-9" d="M640.87,423.29c.12-.26.16-.65.36-.75a19.38,19.38,0,0,1,2-.8l66.51-24.14c-.34-.94-.57-1.92-.87-2.74l-33.63-92.67c-.29-.8-.74-1.55-1.1-2.33l-.29-.78a11.29,11.29,0,0,0-.37-1.82l-9.62-26.49a14.63,14.63,0,0,0-.71-1.5l.1-.95a2.09,2.09,0,0,0,.3-.11l.53.72c.13.37.19.77.32,1.15l17.09,47.08a12.23,12.23,0,0,0,.77,1.48l2.15-.78,25.45-9.24c.75-.27,1.47-.61,2.19-.93l.67.2.08.22.08.22a2.91,2.91,0,0,0-.45.26L683,319.29c-.14,0-.23.2-.43.4.08.22.1.53.2.81l20.59,56.72a6.61,6.61,0,0,0,.88,1.28l.28.76a6.22,6.22,0,0,0,.14,1.55l5.57,15.33a8.69,8.69,0,0,0,.61,1.07l29.82-10.82.27.74L702.13,401.2a7.39,7.39,0,0,0-1.06.6L711,429.15c.3.82.67,1.62,1,2.43l-.08.66a1.63,1.63,0,0,1-.37.13l-.34-.44c-.16-.45-.23-.93-.39-1.38l-10-27.49c-.13-.36-.32-.69-.51-1.12L671,412.59l9.89,27.26c.34.94.73,1.77,1.1,2.66V443l-.72.26-.29-.43c-.14-.37-.2-.78-.33-1.14l-10.16-28a5.21,5.21,0,0,0-.41-.91l-28.26,10.26Z"/><path class="cls-11" d="M552.82,490c-.75.27-1.47.61-2.23.88L463,522.65l-2.54.92L431.15,442.9l3.76-1.37c-.29-.79-.42-1.47-.64-2.11l-3.36-9.24c-.21-.6-.48-1.33.65-1.15l3,8.14.28.78L436,441.2l4.36-1.58,11.81-4.46v.17l.24.67c-6.73,2.44-13.43,4.95-20.09,7.4l28.66,79,2.35-.85,86.3-31.32c.75-.28,1.48-.59,2.22-.88l.59-.09.18.09Z"/><path class="cls-15" d="M221.71,112.19l-.3.55.81.14a22.13,22.13,0,0,0,.6,2.53l13.3,36.66.06.15-.87.31-.89-2.47-27-74.39c-1.11-3-1.11-3,2-4.17l24.34-8.84c.83-.3,1.67-.54,2.51-.82l.09.84L208,73.08c-.06,0-.1.11-.14.18a4.47,4.47,0,0,0-.18.45l3.43,9.45Z"/><path class="cls-11" d="M606.46,324.37c-2.08.75-4.13,1.61-6.21,2.36-5.29,1.92-10.6,3.78-15.9,5.66l-.26-.71a7,7,0,0,0-.18-1.58l-2.45-6.75-7.92-21.59-.09-.85.63-.23.53.67c.06.31.13.62.22.92L584.9,330a6.33,6.33,0,0,0,.51,1l19.24-7-10.74-29.57-.08-.91.6-.22.54.72,10.74,29.74Z"/><path class="cls-8" d="M606.46,324.37l-.73-.68L634,313.42l-10.77-29.66-.1-.89a2,2,0,0,0,.34-.12l.56.25.22.42,10.79,29.73,38.78-14.07.29.78-7.65,2.77-57.58,20.9C608.09,323.86,607.26,324.11,606.46,324.37Z"/><path class="cls-8" d="M584.08,331.68l.26.71-7.68,2.79,16.72,46.06c.3.83.6,1.66.85,2.5a2.85,2.85,0,0,1-.51.08l-.44-.38c-.3-.82-.65-1.63-.95-2.45L575.85,335.6l-2.34.85-16.92,6.14c-3.52,1.28-7,2.62-10.54,3.93l-.54.1-.25-.83a2.59,2.59,0,0,0,.46-.3c.94-.34,1.82-.59,2.72-.91Z"/><path class="cls-15" d="M294.08,311.73l-.94.34-25.32-69.76-1.06-2.93.94-.14Z"/><path class="cls-3" d="M593.7,383.78a4.34,4.34,0,0,1,.52-.08l12.46,34.18,1.87,5.17a3.72,3.72,0,0,1,0,1.29l-.18-.49-.49-.3-3.09-8.3-4-10.52-.22-.6a.8.8,0,0,1,0-.43l-.1-.46L594,385.17l-.36-.32L564,395.6l-.6.22-.34-.94.56-.21c4.79-1.74,9.62-3.41,14.41-5.15,5.1-1.85,10.18-3.76,15.26-5.64A.59.59,0,0,0,593.7,383.78Z"/><path class="cls-15" d="M545.74,345.45a2.59,2.59,0,0,0-.46.3,16.2,16.2,0,0,1-1.14-2q-4.7-13-9.41-25.93l-.4-1.12a1.36,1.36,0,0,1,1-2l.68-.24,36.52-13.26a5.51,5.51,0,0,1,1-.27l.09.85-38.54,14Z"/><path class="cls-16" d="M487.25,309.56a1.27,1.27,0,0,1-.52.11l-21.39-58.94-39.13,14.19-.5-.8q8.88-3.22,17.76-6.52l19.36-7c.8-.29,1.63-.5,2.54-.77.33.68.62,1.14.8,1.64Z"/><path class="cls-7" d="M425.1,264.36l.06.92-42.78,15.53-.57-.74c.89-.32,1.77-.72,2.67-1.05l28.66-10.4-13.43-37-.08-.2.47-.17,12.39,34.15,1.08,3Z"/><path class="cls-19" d="M552.47,489.24l-.59.08c-.34-.94-.6-1.82-.92-2.72L529,426l-20.13-55.46a2.33,2.33,0,0,0,.41-.26c.38,1.05.82,2.09,1.19,3.13Z"/><path class="cls-20" d="M267.43,238.21l-.81.52c-1.7-4.7-3.45-9.3-5.14-14l-11.22-30.9,1.05-.06c.46,1.28.85,2.59,1.31,3.86Z"/><path class="cls-15" d="M293.51,313.09l.94-.34,9.78,26.93c1.46,4,3,8.06,4.46,12.09l-1,.38c-.93-2.55-1.78-5.12-2.7-7.66Z"/><path class="cls-9" d="M323.57,144.23l-.26-.87q14-5.07,28-10.09c3.76-1.36,7.52-2.73,11.26-4.16A1.08,1.08,0,0,0,363,129l.17.48-.41.4.1.14a4.1,4.1,0,0,0-.7.12Q342.87,137.23,323.57,144.23Z"/><path class="cls-22" d="M624.23,283.4,624,283l.45-.52c9.29-3.37,18.55-6.8,27.85-10.18,3.29-1.2,6.59-2.34,9.91-3.52l.9.56c-.94.34-1.84.54-2.73.87l-28.33,10.28C629.44,281.42,626.84,282.42,624.23,283.4Z"/><path class="cls-11" d="M640.87,423.29l1-.27c1.81,5,3.54,10,5.36,15.07s3.7,10,5.55,15l0,.59L652,454l-.34-.49-9.79-27.21C641.49,425.27,641.2,424.27,640.87,423.29Z"/><path class="cls-2" d="M377.28,169.79a.94.94,0,0,1,.38-.27c2.07,5.69,4.18,11.37,6.25,17.07l16,44.06-.47.17-.06-.17Z"/><path class="cls-18" d="M664.05,268.94l-.52-.72c2.4-.88,4.76-1.84,7.16-2.71L691.43,258a21.25,21.25,0,0,1,2.51-.58l0,.79c-.59.22-1.24.31-1.83.53Q678.09,263.81,664.05,268.94Z"/><path class="cls-8" d="M704.42,379.24l-.28-.75q4.71-1.71,9.38-3.49,10.1-3.67,20.19-7.41l.58-.08.27.76-.52.37c-2.69,1-5.41,1.9-8.1,2.87Q715.19,375.37,704.42,379.24Z"/><path class="cls-10" d="M602.12,430.76l2.6,7.17-.88.32-4.57,1.66L608,463.86l-8.46,3.07c-2.74,1-5.7,2.07-8.52,3.17l-.58.08a.53.53,0,0,1-.15-.41l.5-.36c2.77-1,5.58-2,8.37-2.94s5.49-2,8.32-3l-8.71-24,5.39-2L602.48,433a8.45,8.45,0,0,0-1-1.43Z"/><path class="cls-20" d="M267.41,51.39l-.76-.67,29.87-10.84.08,1c-.45.17-.93.23-1.38.4Q281.31,46.33,267.41,51.39Z"/><path class="cls-18" d="M297.4,40.56l-.55-.8,28.44-10.32a4.9,4.9,0,0,1,1.53-.05l-.3.66Z"/><path class="cls-7" d="M734.31,367.49a2.8,2.8,0,0,1-.58.08l-21.39-58.95a2.89,2.89,0,0,0,.44-.27c.19.52.45,1,.64,1.55l20.42,56.26A13.74,13.74,0,0,1,734.31,367.49Z"/><path class="cls-16" d="M509,369.48a2.26,2.26,0,0,1-.53.08l-21.39-58.92a1.76,1.76,0,0,0,.42-.27l7,19.34Z"/><path class="cls-18" d="M237.34,62.35l-.49-.8,29.47-10.7.15.93Z"/><path class="cls-18" d="M623.12,282.88l.1.89L595,294l-.54-.72c2.61-.94,5.18-2,7.8-2.95C609.16,287.85,616.16,285.37,623.12,282.88Z"/><path class="cls-19" d="M694,258.2l-.06-.79a5.72,5.72,0,0,1,.92,1.27l17.86,49.21-.66-.2L695.48,262C695,260.72,694.49,259.47,694,258.2Z"/><path class="cls-19" d="M734.08,368.64c.18-.13.36-.24.52-.37l17.71,48.78a7.6,7.6,0,0,1-.8.17,7.2,7.2,0,0,0-.23-1.39L740.85,387.1l-.26-.73Z"/><path class="cls-21" d="M563.6,394.67l-.55.2-17.53-48.28a4.69,4.69,0,0,1,.54-.11l7.68,21.18Q558.65,381.16,563.6,394.67Z"/><path class="cls-20" d="M751.5,417.22a6.66,6.66,0,0,1,.8-.17,4.52,4.52,0,0,1-1.18,1l-39.26,14.25.08-.66Q731.72,424.4,751.5,417.22Z"/><path class="cls-9" d="M330.84,164.08q18.71-6.78,37.42-13.52c.6-.22,1.18-.5,1.76-.74l.49,0,.2.53c-.14.11-.27.21-.41.3-.82.3-1.68.5-2.5.8L338.53,162c-2.48.89-4.94,1.85-7.4,2.78Z"/><path class="cls-21" d="M552.82,490l-.15-.63c.52-.19,1.08-.28,1.6-.47l36.15-13.12c.52-.19,1-.45,1.52-.68l.32.11.16.45Z"/><path class="cls-15" d="M251,193l-.79.52L243,173.39l.87-.07Z"/><path class="cls-2" d="M326.51,30l.3-.67,14.46,39.83-.55-.14Z"/><path class="cls-2" d="M355.63,108.77a3.61,3.61,0,0,1-.49.07L341,69.83l.34-.5Z"/><path class="cls-15" d="M243.46,172.24l-.81.49-7.1-19.56.87-.32.08.09-.06.12Z"/><path class="cls-18" d="M593.83,293.5l.08.91-19.28,7-.53-.67c2.9-1.12,5.78-2.25,8.7-3.32C586.46,296.07,590.15,294.81,593.83,293.5Z"/><path class="cls-21" d="M590.72,469.42l-.5.36L577.8,435.55c.21-.07.44-.09.65-.15.14.38.17.79.31,1.17Z"/><path class="cls-1" d="M600.56,404.16l.21.6L571.18,415.5l-.6.15-.19-.53.57-.29Q585.77,409.52,600.56,404.16Z"/><path class="cls-21" d="M711.13,431.89l.34.44L682,443v-.51Q696.56,437.17,711.13,431.89Z"/><path class="cls-21" d="M652.73,453.66l0-.6L681,442.8l.3.43Z"/><path class="cls-2" d="M370.51,149.77l-.49,0-7.16-19.74-.11-.13.57,0Z"/><path class="cls-21" d="M570.61,415.68l.6-.16,7,19.23-.55.2Z"/><path class="cls-21" d="M571,414.85l-.58.29-7-19.3.6-.22Z"/><path class="cls-2" d="M363,129a1.1,1.1,0,0,1-.48.07l-7-19.26a1.76,1.76,0,0,0,.42-.27Z"/><path class="cls-2" d="M370.3,150.6a1.59,1.59,0,0,0,.41-.3l6.68,18.41a3.89,3.89,0,0,1-.51.08Z"/><path class="cls-1" d="M577.63,435l.56-.2q3.07-1.12,6.16-2.16l-.2.75-5.64,2-.65.14Z"/><path class="cls-21" d="M590.38,470.19l.58-.08,1.61,4.44-.32.62-.32-.1Z"/><path class="cls-11" d="M236.45,152.86l-.87.32-.26-.71.87-.31Z"/><path class="cls-18" d="M663.08,269.34l-.9-.57,1-.43-.11,1Z"/><path class="cls-18" d="M624.46,282.46,624,283l-.56-.26Z"/><path class="cls-11" d="M399.4,230.82l.47-.17.22.61-.46.16Z"/><path class="cls-12" d="M363.32,129.87l-.57,0,.42-.4.13.15Z"/><path class="cls-10" d="M254.47,401.7c.18.7.3,1.41.54,2.07q10.89,30,21.76,60l.6,1.64,7.24-2.62-16.29-44.89a3,3,0,0,1,.59-.21.16.16,0,0,1,.17.07l16.58,45.66-7.86,2.85,6.52,18,65.1-23.63-3.76-10.34,1.63-.91c0-.15.09-.34,0-.46-.78-1.48-.43-2.79.27-4.27q6.41-13.41,12.58-26.9c.66-1.48,1.4-2.64,3.07-2.83l.61-2.18,1,2.67.45,1.25.21.58.56,1.29,8.89-3.23a3,3,0,0,0,.79-.76l.65.27.15.41-.67.33L366.11,419l.74,1.56.16.64.54,1.28,8.88-3.22a2.94,2.94,0,0,0,.79-.74l.66.27.12.34-.61.28L367.67,423l2.73,7.52.11.51-6.06,13-.47.24-7.52,2.73-.6.22-1.22.44-1,.37-1.18.49,3.55,9.77,1.2-.43,1-.36,1.22-.45.61-.22,7.52-2.73.48-.1a7.19,7.19,0,0,1-1.59,1.08l-17.33,6.29-43.89,15.93-.66.33-1.48.54-.72.18-1.21.85-.34.13-1.49.08-1,.37-1.25.46,1.29,3.54-.48.17-1.28-3.53-1.31.47-1,.37-1.19.89-.34.12H291.1l1.36,3.76c1,.85,1.24.82,2.43-.36l.89-.45a6.29,6.29,0,0,0,5-1.81l.93-.22a2.83,2.83,0,0,0,3.14-1.19l.89-.32c.69.5.85.11.89-.5.41.69.86,1.36,1.21,2.09s.58,1.59.93,2.37l.2.92-.81.29-.41-.85-1.26-3.48-1.24.45-1,.37-1.25.46,1.27,3.49-.07.41-.47-.2L302.45,484l-1.23.45a5.49,5.49,0,0,0-.63.34c-.47.18-1,.29-1.79.53l2,3.67-1.09-.06-1.25-3.46-1.24.44-.64.23-1.22.35-1,.38-1.26.46,1.27,3.5.25.88a1.34,1.34,0,0,1-.38.14l-.7-.72-2.87-8.17-.79-.19-5,1.82-.29.62,2.93,8.07-.33.81-32.49-89.51a20.89,20.89,0,0,1-.74-2.28C253.94,402.17,254.3,401.92,254.47,401.7ZM351.35,460l.61-.22,1.22-.45,1-.36,1.18-.43-3.56-9.81-1.14.41-1,.36-1.22.44-.58.21-1.24.45,3.58,9.87Zm.09-20.57,10.51,4a1.47,1.47,0,0,0,2-.59,1.88,1.88,0,0,0,.12-.3c1.66-3.62,3.37-7.23,5.06-10.85.48-1,.15-1.64-.89-2l-10.4-3.88c-2.17,4.64-4.26,9.11-6.43,13.7Zm17.13-10.61-4.83-13.32c-.87.55-1.83.82-2.18,1.48-1.34,2.51-2.45,5.15-3.71,7.81ZM350.65,440c-.84,1.82-1.53,3.5-2.39,5.12a2.91,2.91,0,0,0,.3,3.59l6.23-2.26,6.58-2.39Z"/><path class="cls-11" d="M330.63,346.09l2.89,8-46,16.68-.18-.25a4.35,4.35,0,0,1,.9-.81,15.91,15.91,0,0,1,1.79-.65l42.19-15.31-2.49-6.85v-.24l-.13-.18.1-.57.59-.31,0,.09Z"/><path class="cls-1" d="M285.49,495.07l-.79.29-.39-.81-.9-2.48-31.28-86.19c-.34-.94-.84-1.82-1.3-2.78l.72-.26,10.69,29.47,21.81,60.08A25.47,25.47,0,0,0,285.49,495.07Z"/><path class="cls-2" d="M329.72,345.85l-.1.57a.85.85,0,0,0-.42.22c-.75.28-1.52.47-2.27.75L272.79,367c-.9.32-1.75.76-2.62,1.15.09-.27.1-.68.27-.76a17.47,17.47,0,0,1,2-.79Z"/><path class="cls-14" d="M294.16,491.93l-7,2.53a.4.4,0,0,1,0-.37l.34-.81,5.91-2.14Z"/><path class="cls-3" d="M251.56,402.79l-.71.26-.26-.71.67-.45Z"/><path class="cls-3" d="M257,389.6l.28-.62Z"/><path class="cls-3" d="M256.72,390.22l.28-.63Z"/><path class="cls-3" d="M256.43,390.83l.29-.62Z"/><path class="cls-3" d="M256.15,391.45l.28-.63Z"/><path class="cls-3" d="M255.86,392.06l.28-.62Z"/><path class="cls-3" d="M255.57,392.68l.28-.63Z"/><path class="cls-3" d="M251.26,401.89l.3-.61Z"/><path class="cls-3" d="M251.54,401.23l.28-.6Z"/><path class="cls-3" d="M251.84,400.66l.28-.6Z"/><path class="cls-3" d="M252.13,400l.28-.6Z"/><path class="cls-3" d="M252.41,399.43l.29-.6Z"/><path class="cls-3" d="M253.55,397l.3-.6Z"/><path class="cls-3" d="M253.86,396.35l.29-.6Z"/><path class="cls-3" d="M254.13,395.75l.29-.62Z"/><path class="cls-3" d="M254.42,395.14l.28-.63Z"/><path class="cls-3" d="M254.71,394.52l.28-.62Z"/><path class="cls-3" d="M255,393.91l.28-.63Z"/><path class="cls-3" d="M255.28,393.29l.29-.62Z"/><path class="cls-3" d="M252.7,398.82l.28-.61Z"/><path class="cls-3" d="M253,398.2l.28-.6Z"/><path class="cls-3" d="M253.25,397.6l.29-.61Z"/><path class="cls-10" d="M347.82,337.7l1.88-.68.2.55-1.15.92-.74-.33-.11.15Z"/><path class="cls-8" d="M607.06,514.75c.18.51.46,1,.65,1.53l13.66,37.63a9.7,9.7,0,0,1,.42,1.37l-.91.44-37.65,13.66a8.67,8.67,0,0,0-1.12.62l6.14,16.92,38.86-14.1.62.29c-4.28,1.56-8.52,3.17-12.8,4.72l-25,9.07q-19.89,7.27-39.76,14.6a25.84,25.84,0,0,1-2.75.72l-.17-.47-6.18-17-51.54,18.71a7,7,0,0,1-.63-1l-13.82-38.09a5.47,5.47,0,0,1-.16-.7l0-.82,11.57-4.2c-.21-.78-.32-1.37-.52-1.94l-5-13.72a6.5,6.5,0,0,1-.16-1.7l.18.5,6,16.4,39.18-14.22-6.17-17a21.76,21.76,0,0,1,2.13-1l36.66-13.31a22.58,22.58,0,0,1,2.3-.54l.14.4a4.09,4.09,0,0,0,.13.93l5.4,14.88a4.86,4.86,0,0,0,.54.87l2.32-.84,30.64-11.12c2-.74,4.05-1.52,6.06-2.28Zm-40.41,15.38L560.41,513l-39.07,14.18,6.22,17.16-51.77,18.79L490,602.32l51.31-18.63c.06,0,.15,0,.23.07l.42.19,6.24,17.18,39.15-14.21L581,569.21l39.67-14.4-14.2-39.12Z"/><path class="cls-3" d="M529.67,782.14q10.74-3.9,21.48-7.74a9.42,9.42,0,0,1,1.8-.57c.22-.08.54.39.81.61a8.69,8.69,0,0,0-.81.4l-3,1.09,4,11.14-1.13.42c-.63-1.9-1.24-3.81-1.9-5.7s-1.34-3.68-2.1-5.62L524.43,785a5.7,5.7,0,0,0-1.46,1.31,4.11,4.11,0,0,0-1.77-.13c-2.93,1.07-5.83,2.19-8.73,3.3l-.59.21L508.44,791c2.23,5.93,4.15,11.75,6.55,17.66l3.24-1.45.56,1.39a3.57,3.57,0,0,0-1.13,0l-12.57,4.56c-.11,0-.16.26-.21.35l3.44,9.49,13.31-4.83c.18-.06.29-.35.43-.54l.34.94h0l-.34.69-1.34.65,3.41,9.4c.63.2,1.16.27,1.16-.67l-3.23-9.39a2.78,2.78,0,0,1,.32-.26l.21,0,1.71,4.7,1.55,4.26c.29.81.8.78,1.53.12l-3.48-9.59.52-.19,3.63,10,1.24-.94.71-.26,1.51-.17-3.57-9.82.53-.2,1.55,4.27,1.71,4.7c.29.8.79.88,1.53.12l-3.48-9.57.63-.23,3.45,9.31,1.42.12.51.23-34.9,12.67a5.43,5.43,0,0,1-1.06.16l-18.44-50.81,1.72-.62,38.71-14.05a13.13,13.13,0,0,0,2-.8c.22-.09.19-.63.28-1l1.23,1a1.17,1.17,0,0,1-.15.27l-1.21.44,3.55,9.77,1.16-.42Zm-22,41.41-.37-.53-3.27-9-.17-.46-.32-.88-.17-.47-6.05-16.68-.17-.47-.3-.82.82-.48,1.18-.43-3.54-9.76-1.2.43-1,.37-1.7.61-.64.3-8.69,3.15c.78,3.62,17.19,48.34,18.18,49.66L508.8,835l.75-.13,1.25-.36,1.45-.61,1.14-.42-3.57-9.84-1.19.52Zm4.45-46.14-1,.37-1.15.49,3.51,9.67c.43-.15.82-.23,1.18-.34l1.05-.38,1.14-.5-3.51-9.67Zm-.38,45.52c-.67.09-1.37.26-1.06,1.14l3.36,9.28,1.25-1,.72-.26,1.55-.17-3.17-8.74c-.34-.94-.88-1.24-1.76-.62Zm-14.62-40.08-1.15.49L499.5,793l1.2-.31,1.05-.38,1.13-.5-3.51-9.67c-.45.16-.83.25-1.2.36Zm7.28,29.42,9.63-3.49-6.32-17.41-9.63,3.5Zm1-21.4,1.56-.57-3.21-8.85c-.44-1.21-1.11-.66-1.81-.17ZM520,774.67l3.5,9.64,1.54-.56-3.22-8.86c-.29-.79-.83-.86-1.82-.22Zm-.59,11c1,0,1.65-.24,1.29-1.26l-2.95-8.11c-.36-1-1-.79-1.78-.12Zm-13.39-6,3.5,9.63,1.54-.56L507.82,780c-.3-.8-.85-.87-1.83-.22Zm12.1,41.16c-1.16.05-1.75.32-1.4,1.32l2.84,7.82c.13.36.76.53,1.16.78.16-.45.57-1,.44-1.35-.93-2.86-2-5.67-3-8.57Zm.06-45.57,3.48,9.59c.9,0,1.17-.42.92-1.09l-3-8.29c-.28-.74-.77-.67-1.39-.21Zm-9.25,14.94L505.18,780c-.88.08-1.16.42-.91,1.13l3,8.28c.16.28.76.39,1.62.83Zm3.58-1.7.23-.54-3.46-9.53-.49-.06c-.14.41-.52.88-.4,1.21.94,2.8,1.94,5.56,3,8.31.12.29.73.4,1.11.61ZM501,781.18c-.43.53-1,.93-.88,1.13,1,3,2,5.87,3.17,8.75.08.23.77.21,1.45.38Zm18.23,49.92L516,822c-.09-.24-.76-.24-1.63-.48l3.36,9.27c.24.73.66,1.06,1.56.27Zm7-47.6.47-.36-3.53-9.71-.49,0c-.15.4-.52.88-.41,1.21.95,2.78,2,5.53,3,8.3C525.45,783.17,526,783.3,526.29,783.5Zm-11.89-7.09-.31.53,3.46,9.54c.64-.31,1-.79.93-1.1-.94-2.78-2-5.56-3-8.3C515.33,776.76,514.76,776.63,514.4,776.41Zm8.81,53.18-3.41-9.4c-.83,0-1.24.28-1,1l3,8.28c.25.66.74.63,1.37.09Z"/><path class="cls-1" d="M388.35,297.32l33-12,30.2,83.2-32.9,11.94-.34-.48,12.22-4.44a4.1,4.1,0,0,0,0-1.05l-8.26-22.76c-.18-.5-.87-.75-1.33-1.17.13-.28.56-.78.45-1.1-1.07-3.15-2.27-6.25-3.41-9.4l-6,2.19,3.29,9.09c.18.48.93.73,1.46,1.09l-2.29.83a6.68,6.68,0,0,0,0-2.14c-.67-2.12-1.48-4.22-2.29-6.3-.29-.8-.63-1.57-.93-2.32l-6,2.16c1.14,3.16,2.23,6.15,3.36,9.12.16.45.91.65,1.42,1-1.13.55-.56,1.38-.26,2.22l4,11.06c.21.58.33,1.18.52,1.88l-3,1.1c-1.53.63-3,1.31-4.6,2l-.71.26-.34-.94a5.21,5.21,0,0,0,.81-.35l7.1-2.58-4.77-13.16c-.14-.37-.86-.52-1.34-.75.2-.27.69-.66.61-.86-1.1-3.22-2.32-6.4-3.56-9.83-2.4,1.06-5,1.28-7,2.93-.76-.16-.72-.53-.25-1l20.29-7.37-16.67-45.95L388.37,298Zm37.37,44.34L420,343.73c1,2.89,2,5.49,2.94,8.12.37,1,.8,1.84,2.17,1.79-.48.48-.79.75-1,1l7.35,20.25c2.79-.49,17.63-6,19.07-7.08l-7.26-20-1.18-.17c.2-.68.65-1.3.49-1.75-1-3-2.11-6-3.2-9l-6.06,2.19,2.57,7.06c.44,1.22.6,2.66,2.52,3l-3,1.08c1.31-1,.45-1.95.13-2.88l-1.38-3.83c-.46-1.27-1.07-2.8-1.64-4.26l-6.79,2.47Zm3.38-32.76-19.2,7c2.84,7.8,5.54,15.49,8.46,23.06L437.5,332Zm-8.24-22.7-19,6.91,8,21.95,19-6.9Zm18.06,49.9-1.19-3.26-19,6.91,1.18,3.26Z"/><path class="cls-9" d="M764.54,701.31l.28.75L726.48,716a8.65,8.65,0,0,0-.93.54L734,739.69l39.33-14.27-.43,1-38.43,13.94c-3.15,1.15-6.26,2.36-9.35,3.54l-1-.2a.63.63,0,0,0,0-.27l.75-.48,8.32-3a3.64,3.64,0,0,0-.07-.74L704.64,661l.7-.26,6.89,19,20.37-7.39-6.91-19-.22-.86.66-.24.44.65a7.53,7.53,0,0,0,.22,1.15l6.19,17a10.38,10.38,0,0,0,.57,1.1l17.39-6.31,1,.48L733.58,673l5.82,16.06-21,7.61,6.83,18.8c.64-.18,1.17-.3,1.68-.49Q745.76,708.16,764.54,701.31Zm-31.69-28-20.27,7.36,5.45,15,20.28-7.36Z"/><path class="cls-9" d="M678.37,338.18l.25,1a.93.93,0,0,0-.39.15l-2,.48,9.36,25.81,1.73-.62.63-.17.25,1a.8.8,0,0,0-.39.14l-2,.48,9.38,25.85,1.82-.66.59-.16c-.06.27,0,.66-.19.76a6.46,6.46,0,0,1-1.31.54l-37.06,13.45c-.52.19-1.07.27-1.6.41v-.52l.48-.27,35.85-13a1.44,1.44,0,0,0,.43-.42L685,366.67l-2.29.83L666,373.55c-5.78,2.1-11.55,4.25-17.33,6.37l-.65,0-.08-.23,0-.23.47-.32,35.82-13a1.3,1.3,0,0,0,.43-.41L675.33,340l-2.35.85-16.23,5.89Q647.86,350,639,353.28l-.65,0-.08-.22,0-.24.47-.32,35.81-13c.2-.07.33-.31.45-.41l-9.32-25.67-2.33.84-16.23,5.89q-8.9,3.24-17.76,6.53l-.74,0a1.18,1.18,0,0,1-.24-.37c.53-.19,1-.48,1.54-.67l36.19-13.14a18,18,0,0,1,2.27-.7c.13-.05.4.48.6.74a1.19,1.19,0,0,0-.4.14l-1.95.48L676,339l1.73-.63Z"/><path class="cls-3" d="M705.27,660.79l-.7.25-12.12,4.4-1.45-4,.8-.5,1.26,3c3.41-.78,9.58-3.15,10.87-4.11l-8.72-24-11.08,4,7.42,20.43-.93.17-12.06-33.37-.87-2.4,14.39-5.22c-1.54,1.62-.79,2.74-.36,3.92l13.2,36.38L715.31,656,711,644l1.34-.65c.42,4.43,2.71,8.12,3.86,12.43l6.26-2.27,3-1,.22.85L721.13,655Q713.2,657.85,705.27,660.79ZM690,621.16l-11,4,4.9,13.52,11-4Z"/><path class="cls-15" d="M485.55,632.79c-.18.25-.31.62-.53.71l-14.1,5.11c-1.15-1.45-10.81-27.52-11.59-31.12a7.15,7.15,0,0,1,1.16-.7l11.72-4.25a5.31,5.31,0,0,1,1.38-.15l.16.44-13.38,5L471,637.14l.38-.13L461,608.5l12.07-4.38.21.57a79.48,79.48,0,0,0-10.86,4.22c.27.24.51.34.69.28l10.34-3.76.31.66-11.17,4,.44,1.23.19.52.44,1.22,11.15-4,.39,1c-3.35,1.22-6.72,2.35-10.08,3.51-1,.36-1.2.91-.64,1.78l.19.53.44,1.22,11.15-4,.18.7c-2.62.95-5.27,1.86-7.9,2.8a21.3,21.3,0,0,0-2.44,1c-.28.1-.58.77-.49.9a2,2,0,0,0,1.07.68c.27.07.6-.15.91-.26q4.69-1.7,9.43-3.49l.31.66-11.13,4,.45,1.23.19.53c.11,1,.64,1.33,1.63,1,3.32-1.27,6.65-2.51,10-3.76l.38,1-11.12,4,1.08,3,11.13-4,.38,1c-3.36,1.17-6.71,2.35-10.07,3.5-1,.37-1.23.9-.64,1.78l.19.54.46,1.25.26.56c.07,1.25.6,1.68,1.86,1.2,3.23-1.23,6.49-2.42,9.74-3.62l.31.65-11.15,4,.45,1.23.18.52c.13,1,.65,1.34,1.64,1,3.33-1.27,6.65-2.51,10-3.77l.58-.21.79-.29Z"/><path class="cls-10" d="M393,458.14l-.49-1.36-.16-.44.58-.21L494.63,736.25l-.58.21c-.34-.94-.53-1.84-.85-2.73L394.05,460.57C393.71,459.75,393.36,459,393,458.14Z"/><path class="cls-2" d="M270.21,95.52l.09-.78a3.61,3.61,0,0,1,.57-.12l.43,1,3.53,9.73,8.3-3a8,8,0,0,1,1.95-.2c1.7,4.92,3.4,9.84,5.15,14.75.07.19.62.23.95.33l.66-.24,9.22-3.46.26.71a9.52,9.52,0,0,0-1.17.29L282,121.12c-.35.13-.69.32-1.11.52l3.11,8.58,8-2.89,1.41,3.86.34.94-8.81,3.2c-.4-.92-.75-1.65-1-2.44l-12.53-34.5C271,97.37,270.55,96.46,270.21,95.52Zm7.08,16.57.38,1.07.26.72.38,1,.26.72.28.76.38,1,.26.73.49,1.09,9.17-3.33-.33-1.19-.24-.66-.4-1.11-.26-.7-.67-.91-.29-.61-.38-1-.17-.65-.06-1.13-.26-.69-.4-1.12-.24-.66-.51-1.12-9.17,3.33.33,1.15.25.72.39,1,.27.76Zm7.07,19.09,1.08,3,6.78-2.47-1.07-3Zm-.21-28.65c-2.82,1-5.7,2.07-8.59,3.17-.2.07-.14.79-.25,1.58l8.52-3.09c.75-.32,1.1-.74.35-1.71Zm5.61,14.61-.41-.45L280.3,120c.06.9.43,1.17,1.13.92l7.42-2.7C289.22,118,289.46,117.44,289.76,117.14Z"/><path class="cls-7" d="M438.1,548.48a.85.85,0,0,1,.6-1.28l13.66-5c1.18,1.7,9.39,23.74,11.51,30.82a4.48,4.48,0,0,1-.91.6l-12.59,4.57a4.56,4.56,0,0,1-1.52,0,4.66,4.66,0,0,0,.61-.34l13.78-5c-.08-.42-.18-.83-.3-1.24q-5.13-14.1-10.22-28.13a1.16,1.16,0,0,0-.29-.37.26.26,0,0,0-.19-.06,3.46,3.46,0,0,0-.54.19l10.5,29.1-11.35,4.13a3.11,3.11,0,0,1-1.1-.11l.59-.27q5.46-2,10.9-4.07c5.44-2.08.07-.13.06-.19a.94.94,0,0,0-.1-.28,1.33,1.33,0,0,0-.62-.06c-3.5,1.27-7,2.54-10.51,3.86l-.23-.63,11.18-4-.44-1.22-.23-.62-.57-1.58-.23-.62-.68-1.88-.66-1.59-.15-.63-.5-1.21-10.68,3.87c-.18.07-.26.35-.39.54L446,566l-.4-.92a5.49,5.49,0,0,0,.63-.34l11.11-4-.43-1.2-.34-.94-.59-1.14-11,4-.23-.64c2.32-.85,4.67-1.62,7-2.45,1.2-.43,2.4-.87,3.56-1.38.26-.09.26-.75.5-1.55l-11.51,4.18-.66.17-.28-1,.49-.11a11,11,0,0,0,1.8-.27l8.05-2.93a11.92,11.92,0,0,0,1.37-.72c-.09-1.46-.83-1.46-1.81-1.11l-8.95,3.25a3.37,3.37,0,0,0-.85.75l-.45.22-.38-.92.61-.22c2.63-1,5.28-1.84,7.91-2.77a18.54,18.54,0,0,0,2.67-1.06c.27-.1.25-.77.49-1.57l-11.5,4.17-.23-.63,11.17-4-.44-1.23-.36-1-.44-1.21-11.15,4.05-.22-.62,11.18-4.06-.46-1.26-.23-.62-.57-1.57-11.17,4.06-1.06.39-.32.44Z"/><path class="cls-16" d="M441.94,404.12a4.64,4.64,0,0,0,1.39-.07q9-3.26,17.95-6.58l.3.68c-2.53.92-5.09,1.75-7.64,2.65-.7.25-1.37.56-.58,1.62l8.63-3.13.25.68c-2.55.92-5.13,1.77-7.68,2.68-.6.21-1.28.46-.5,1.54l8.62-3.13.25.69c-1.5.54-3.05,1-4.51,1.55s-3.06.7-4.27,2c1.43.69,3.2.2,9.16-2.39l.25.69c-1.5.55-3,1-4.53,1.55s-3,.77-4.33,1.9c1.43.74,3.92.06,9.25-2.29l.25.68c-1.5.55-3.05,1-4.53,1.53s-3,.77-4.26,1.84c.54,1,1.16.79,1.76.56q3.7-1.35,7.38-2.8l.3.69c-2.58.94-5.2,1.78-7.79,2.68-.56.2-1,.46-.76,1.19l.69.89.34.94.23.82c.14.92.72.9,1.39.64,2.49-.94,5-1.9,7.47-2.86l.21.72c-2.47.9-5,1.72-7.45,2.6-.67.24-1.46.48-.77,1.64l8.68-3.15.25.7-19.16,7-.22-.62,8.39-3c-.25-1.32-1-1.07-1.65-.82-2.39.87-4.77,1.73-7.13,2.66l-.28-.6c2.46-.89,4.93-1.71,7.38-2.57.62-.23,1.23-.45.81-1.36l-.35-.94-.28-.79-.36-1c-.24-.93-.87-.75-1.47-.48l-7.31,2.75-.18-.64c2.39-.86,4.79-1.67,7.18-2.53.67-.24,1.43-.52.73-1.68l-8.38,3-.22-.61c2.38-.86,4.79-1.67,7.17-2.54.66-.24,1.47-.44.75-1.67l-8.37,3-.22-.62,7.43-2.7c.37-.13.6-.62,1-1-.46-.23-.62-.38-.73-.35q-4.05,1.47-8.11,2.87l-.23-.62,8.34-3c-.17-1.27-.78-1.13-1.39-.91-2.47.89-4.92,1.78-7.36,2.74l-.26-.71q3.69-1.35,7.43-2.62c.82-.3,1.2-.72.41-1.6l-8.29,3Zm10.19-2.45-.72.26,1.82,5c.62,1.72,1.19,3.46,1.87,5.15s.9,3.39,2,4.75l.48-.17Z"/><path class="cls-14" d="M392.92,456.13l-.59.21a1.17,1.17,0,0,0-.29.22c-.89.32-1.82.59-2.72.91l-77.64,28.18c-.94.35-1.82.58-2.74.86l-.2-.92c.94-.34,2-.59,3-.93l78.08-28.34a15.85,15.85,0,0,1,2.27-.74C392.29,455.54,392.62,455.93,392.92,456.13Z"/><path class="cls-7" d="M397.21,346.79c-.46.47-.5.83.25,1l3.7,9.8.24.64,5,13.83a5.82,5.82,0,0,0-.81.35c-1.76-4.68-3.58-9.4-5.3-14.13l-20.13-55.46-.8-2.22c2.77-1,5.33-2.05,7.93-3.06l.45.78c-2.38.86-4.72,1.79-7.21,2.74l11.22,30.9C393.56,336.91,395.39,341.83,397.21,346.79Z"/><path class="cls-1" d="M302.73,138.69a.46.46,0,0,1,.42-.15l.3.47a.51.51,0,0,0,.22.36l1.07,2.92,5.95-2.16-1.07-2.92a.56.56,0,0,0-.05-.42l-.07-.55a4,4,0,0,1,.87.93l12.1,33.34a3.3,3.3,0,0,1,0,.7L301.05,179l.1-1a5.86,5.86,0,0,0,1.56-.15l18-6.54a7.64,7.64,0,0,0,1-.56l-1.17-3.22-20.39,7.4c-.28-.23-.69-.42-.8-.71l-3.41-9.4c0-.09.18-.25.28-.38l1.8,4.94c.6,1.65,1.17,3.22,1.85,4.87l7-2.55,1.17-.42,5.77-2.09-3.8-10.47.51-.18,3.75,10.32,6-2.17-9.39-25.87-12.33,4.47-1.1.4c-2.35.86-4.72,1.65-7,2.56l5.56,15.3a3.81,3.81,0,0,1-.86-1l-4.94-13.63a3.38,3.38,0,0,1,.07-1.29l7-2.54,1.11-.4,5.72-2.07-1.1-3Z"/><path class="cls-7" d="M530.41,816.22l-.63.23-5.85,2.13-1.29.46-.22,0a2.16,2.16,0,0,0,0-.44h0l.36-.79c2.82-1,5.74-2,8.56-3.1.58-.22,1-.93,1.65-1.6a1.43,1.43,0,0,0,.83.59,4.1,4.1,0,0,0,1.6-.43l27.73-10.07.94-.34c-.1.35-.1.85-.33,1a9.49,9.49,0,0,1-1.78.65l-21.62,7.85,3.41,9.4,0,.71-.11.18a3.44,3.44,0,0,1-.45,0c-1-2.89-2-5.8-3-8.71-.38-1-.9-1.43-1.9-.74l-1.76.64-.68.25-1.47.74,2.73,7.52a14.49,14.49,0,0,0,1.13,2l-.28.54-2.26.82-.51-.23a2.34,2.34,0,0,0-.09-.38c-1-2.82-2-5.64-3-8.5C531.86,815.71,531.21,815.78,530.41,816.22Zm6.86,8.3-3.25-9c-.26-.72-.79-.55-1.28,0l3.31,9.12c0,.1.25.17.39.17A3.88,3.88,0,0,0,537.27,824.52Z"/><path class="cls-3" d="M707.49,764.77c.73-.64.09-.8-.37-1L702.85,752l-7-19.29,8.2-3,.11.53-7.32,2.65,1.52,3.33.21.6,3.89,10.72,20.15-7.31.95-.29.08.21.08.23-.94.34L713.86,744l-.94.34a.59.59,0,0,0-.38.14,2.08,2.08,0,0,0-.62.3l-9.34,3.39.46,1.26.31.44.37,1.28.63,1.73,9.4-3.42.91,2.51c-3.25.79-6.3,2.16-9.59,3.28l.67,1.32.18.49.51,1.28.14.53.31.84.36,1,.29.78.28,1,.32.88.29.58,2.88,7.92-.06,0-.88.32Zm-2.88-10.44.36.35,8.94-3.25c0-.89-.37-1.19-1-.95l-7.61,2.76C705,753.37,704.83,754,704.61,754.33Z"/><path class="cls-11" d="M436.36,390.88,416,398.28l11.25,31,2.86-1c.6-.22,1.08-.29,1.35.43-.44.16-.86.39-1.3.56l-3.48,1.27-11.9-32.77,7.91-2.87-1.57-4.34c1.95.91,1.51,2.75,2.66,3.87l10-3.63a22.15,22.15,0,0,1,2.24-.81c.25-.09.6.25.89.39Z"/><path class="cls-1" d="M522.78,817.78l-.37.79-3.61-9.94-.55-1.4-6.34-17.45.58-.21,1.86,5.1c3.66-1.42,7.16-2.36,10.5-4.06a1.2,1.2,0,0,1,.26.4,4.27,4.27,0,0,1,.16.88c-2.16.16-9,2.68-10.34,3.75l1.82,5,8.71-3.16c.81-.3.86-.81.88-1.47,0-.08.21-.19.33-.31l.87,1,25.38-9.21,1.14-.41L557,786l.91-.27c.19.53.23,1-.52,1.06-1.43.46-2.88.86-4.31,1.36l-23.84,8.66c-.86.31-2,.36-1.36,2.12a2.16,2.16,0,0,0-2.87-.61c-2.59,1-5.22,1.9-8,2.91l3.8,10.47,9.65-3.51-.75-3.09.5-.18a31.31,31.31,0,0,1,1.51,4c-3.73.65-7,2.39-10.77,3.53Z"/><path class="cls-16" d="M657.5,406v.52L617.7,421c-.3-.63-.61-1.16-.82-1.74q-13.9-38.3-27.81-76.64a8.6,8.6,0,0,1-.22-2l.19.51,28.07,77.35c.21.58.53,1.12.83,1.76.79-.28,1.49-.43,2.15-.67l35.18-12.77c.67-.24,1.3-.59,2-.88A.49.49,0,0,0,657.5,406Z"/><path class="cls-3" d="M706.32,692.55l.17.45-.71.66a7.72,7.72,0,0,0-.93.2l-18,6.54a11.17,11.17,0,0,0-1.33.69l6.23,17.16c-.3,0-.72.18-.86,0a2.75,2.75,0,0,1-.55-1l-7.16-19.74a4.61,4.61,0,0,1-.12-.83,12.33,12.33,0,0,1,1.4-.72l18.44-6.69c.8-.29,1.63-.83,2.33.22l-.85.3h-.49a7.32,7.32,0,0,0-1.39.22l-16.85,6.11a7.68,7.68,0,0,0-1.2.73l-.38.79c.07,1,0,2.13,1.23,2.54l20.06-7.28Z"/><path class="cls-13" d="M592.26,475.17l.32-.63c6.67-1.92,20.17-7.06,21.58-8.25-.15-.42-.21-.9-.37-1.35l-9.15-25.2a11.41,11.41,0,0,0-.77-1.47l.88-.31,8.35,22.74,2.39,6.58-23.06,8.37Z"/><path class="cls-10" d="M563.51,892.44l-.86.32-.24-.44c-.66-1.79-1.23-3.63-1.88-5.42l-11.77-32.44a6.94,6.94,0,0,1-.51-1.58c-.07-.18.44-.45.7-.68l.56.4a4.26,4.26,0,0,0,.07,1.33l13.78,38Z"/><path class="cls-8" d="M722.25,585.8l.28.78-35.18,12.85-3.6,1.31c-.28.1-.66-.08-1-.14l.7-.71L694.21,596Q708.21,590.8,722.25,585.8Z"/><path class="cls-13" d="M518.82,682l-.76.39a2.18,2.18,0,0,1-.24-.42l-13.65-37.6a5,5,0,0,1-.13-.94l.67-.17,1,2.69Z"/><path class="cls-7" d="M691.71,718.26l-.31-.85L711.71,710l-5.93-16.34.71-.66,6.39,17.61C705.74,713.2,698.77,715.85,691.71,718.26Z"/><path class="cls-9" d="M348.28,339.05l-.25-.86.74.32,25.51,70.29-.65-.27c-.3-.83-.65-1.63-.95-2.46l-23.24-64c-.3-.82-.59-1.64-.95-2.45Z"/><path class="cls-9" d="M602.75,878.24l-.37-.83-4.25-11.7L588.36,839l-.39-.2q-9.5,3.45-19,6.93l-.25-.7,19.34-7-3.24-8.93.45-.16.29.12c.21.6.33,1.24.54,1.83L602.53,876c.19.52.44,1,.66,1.54Z"/><path class="cls-6" d="M302.73,138.69l.27,1c-2.19-.17-3.85,1.11-5.85,1.7l1.23,3.39-1.11.4-1.18-3.26-7,2.54,1.19,3.26a3.38,3.38,0,0,0-.08,1.29l4.95,13.63a3.91,3.91,0,0,0,.85,1,13.63,13.63,0,0,1,1.57-.32c-.69.66-1,1-1.3,1.25-.1.13-.32.29-.29.38l3.41,9.4c.11.29.53.48.8.71l1,3.06-.09,1a5,5,0,0,1-.92-1.22q-5.83-16.06-11.66-32.12a13.62,13.62,0,0,1-.38-1.68Z"/><path class="cls-1" d="M462.22,400l-.25-.67-.41-1.14-.3-.68L456,383l.64-.23,5.06,13.63.36,1,10.51,28.95a7.61,7.61,0,0,0,.89,1.34l-.44.46-.68-.47-1.06-2.92-19.25,7-.16-.15-.53-.58a.22.22,0,0,1,.27-.12l0,0a11,11,0,0,0,1.39-.28l16.81-6.11a6.43,6.43,0,0,0,1-.61L467.28,414l-.25-.7-.46-1.09-.21-.72-.26-.71-.38-1.06-.27-.74-.38-1.06-.26-.72-.31-.68-.34-1.13-.25-.69-.4-1.11-.25-.69-.41-1.11-.65-1.8Z"/><path class="cls-18" d="M438.1,548.48l.44-.22c.41,1.13.88,2.23,1.29,3.35l9.62,26.3a3.05,3.05,0,0,0-.61.34,13.21,13.21,0,0,1-1-1.85l-9.39-25.87A11,11,0,0,1,438.1,548.48Z"/><path class="cls-10" d="M501.34,599.07l.65-.23c1.87,5.7,4.05,11.29,6.09,17.07l39.21-14.23.17.47-39.59,14.37Z"/><path class="cls-12" d="M584.14,433.35l.2-.76.67-.24c.83-.09,1.66-.16,2.49-.24l1.8-.27a7.65,7.65,0,0,0,6.79-2.4l1.56-1,2-1.39.94-.34.38.55,1.12,3.52-.71.81-.88.32-.31-.87,1-.51-1-2.82c-1.77,1.22-3.33,2.27-5.19,3.59l4.23-.07-.78.79a10.81,10.81,0,0,0-9.32,3.39l-1.15-.06,3.41-2.8-6.29.68a12.11,12.11,0,0,0,.85,2.19c.16.25.76.22,1.18.32l.32.86-1.88.68Z"/><path class="cls-9" d="M544.74,753.4l-.23-.62,11.84-4.3,14.41,39.72-.58.22L557,752.19l-1-2.77C552.18,750.8,548.46,752.1,544.74,753.4Z"/><path class="cls-2" d="M497,839.73l-18.15-50a3.41,3.41,0,0,1-.1-.46,2.06,2.06,0,0,1,.35-.12l1.05,2.91,17.24,47.49Z"/><path class="cls-10" d="M636,510.88l.71-.26c3.31,3.25,7.18,3,10-.6a6.47,6.47,0,0,1,.79-.78c.53,1.49-1.14,1.85-1.48,3l2.38.7-.23.58a17.89,17.89,0,0,0-2.31-.23,5.71,5.71,0,0,0-5.75,5.66,5.8,5.8,0,0,0,.25,1.71.62.62,0,0,0,.13.34c-.63.47-1,.29-1.22-.42a6,6,0,0,1,1-5c.38-.59.86-1.1,1.38-1.77C639.29,513.48,637.3,512.84,636,510.88Z"/><path class="cls-1" d="M301.38,114.29l-.26-.72-.19-.74-.45-1-.39-1.1-.21-.72-.55-1.07-.16-.71-.26-.71-.4-1.09-.64-1.77-.25-.7-.34-.67-.26-1.16-.31-.69-.39-1.09-.26-.7-.4-1.11-.37-.72-3.39-9.62-.26-1.07.47-.17.34.6c1.09,3,2.11,6,3.18,9l11,30.46-1-.08a9.86,9.86,0,0,0-.29-1.78C304,121.54,302.7,117.91,301.38,114.29Z"/><path class="cls-1" d="M436.36,390.88l.53-.54,5,13.8.4,1,1.32,3.61.42,1.18.23.62.43,1.18.22.62.43,1.18.18.64.29.8.36,1,.29.8.36,1,.29.79.27.6.43,1.19.23.62L451.63,431c-.24-.06-.63-.06-.71-.2a20,20,0,0,1-.89-2.21Z"/><path class="cls-7" d="M728.47,622.81l-1,.29-5-13.84-5.13,1.87c.75-1.47,2.81-2.38,5.91-2.82Z"/><path class="cls-16" d="M480.51,785.24l41.08-14.91a2,2,0,0,1,.12.34l-41.06,15-.08-.22Z"/><path class="cls-16" d="M542.13,826.61c-4.49,1.63-9,3.32-13.44,4.95l-27.59,10a2.32,2.32,0,0,0-.16-.44l41-14.88A1.55,1.55,0,0,1,542.13,826.61Z"/><path class="cls-3" d="M589.15,341.16l-.19-.51c3-1.08,6-2.25,9-3.32l30.52-11.08a.91.91,0,0,0,.24.37.51.51,0,0,0-.09.27,3.36,3.36,0,0,0-.71.08q-19.26,7-38.52,14A1,1,0,0,0,589.15,341.16Z"/><path class="cls-9" d="M584.73,828.61l-14.25-39.24.69-.19c.19.52.29,1.08.48,1.6l13.61,37.51-.06.14Z"/><path class="cls-7" d="M361.33,287.81l.59-.67c.81-.29,1.66-.55,2.48-.83l16.81-6.1.11,1c-5.95,2.15-11.9,4.31-17.88,6.42C362.8,287.86,362.1,288.62,361.33,287.81Z"/><path class="cls-23" d="M481.14,541.6l-.18-.49c.83-.3,1.62-.69,2.44-1q18.38-6.68,36.79-13.3l.18.51L496.5,536C491.38,537.82,486.24,539.72,481.14,541.6Z"/><path class="cls-23" d="M561.34,512.39l-.15-.4c.94-.34,1.92-.79,2.89-1.15l33.44-12.13c.82-.3,1.66-.52,2.5-.78l.12.34Z"/><path class="cls-8" d="M329.58,163.11l-6.75-18.61c1.41,1.19,4.59,9.3,7.48,18.39A4.4,4.4,0,0,0,329.58,163.11Z"/><path class="cls-14" d="M620.92,555.7l.91-.43c2,5.42,4,10.82,6,16.25a4.5,4.5,0,0,1,0,1.51l-.61-.29Z"/><path class="cls-3" d="M564.18,802.88l-.94.34-5.87-16.47c.26-.1.69-.25.77-.15a4.7,4.7,0,0,1,.66,1.23Z"/><path class="cls-16" d="M473.76,602.85l-.16-.44c.29,0,.71-.12.87,0a3,3,0,0,1,.53,1.05l10.57,29.32-.6-.32-10.21-28.11A7.4,7.4,0,0,0,473.76,602.85Z"/><path class="cls-23" d="M640.55,520.9a.7.7,0,0,1-.12-.34l10.89-3.95a.68.68,0,0,1,.11.32l-4.8,2.06,2.67,7.35.23.93-.85.3-.39-.84-2.66-7.32C643.78,520,642.14,520.44,640.55,520.9Z"/><path class="cls-16" d="M723.52,740l-1,.3L717.22,725C718.62,725.86,721.21,732.36,723.52,740Z"/><path class="cls-7" d="M722.43,653.5l-1.1.4c-1.23-3.38-2.45-6.75-3.51-10.17-.35-.94-1.21-.63-2-1.29l3.33-1.21a2.58,2.58,0,0,0-.25,2.85C720.11,647.21,721.26,650.36,722.43,653.5Z"/><path class="cls-12" d="M688,364.79l-.62.17c-.34-.94-.64-2-1-2.94l-8.19-22.73a1,1,0,0,1,.4-.15c.54,1.5,1.21,2.95,1.75,4.45Q684.21,354.18,688,364.79Z"/><path class="cls-12" d="M687.88,365.9a.84.84,0,0,1,.4-.14c.51,1.41,1.14,2.77,1.65,4.18l7.8,21.47-.59.16L696,388.42Z"/><path class="cls-12" d="M678.37,338.18l-.63.16c-.34-.94-.64-2-1-2.94q-4.12-11.36-8.18-22.72a1.32,1.32,0,0,1,.39-.15c.55,1.51,1.21,3,1.76,4.46Q674.56,327.57,678.37,338.18Z"/><path class="cls-7" d="M305.61,127l1,.08c-.26.25-.46.63-.79.75l-12.14,4.41-.34-.94Z"/><path class="cls-8" d="M654.52,532.72c-.25.09-.45.38-.67.37a6.56,6.56,0,0,0-5.86,3c-.08.11-.28.1-.41.21-.64-1.18,1-1.42,1-2.48L646,533l.33-.47c2.67.64,5.09.28,7.08-1.78l.54.26-.84,1.3Z"/><path class="cls-15" d="M557.83,785.7l-.9.26-4-11.14a8.69,8.69,0,0,0,.81-.4Z"/><path class="cls-9" d="M683.43,599.85l-.7.71-7.35-20.27.33-.12.55.46,6.79,18.92C683.12,599.69,683.31,599.76,683.43,599.85Z"/><path class="cls-7" d="M405.93,373.33l.71-.26,3.7,9.77-.35.71c-.23-.17-.6-.3-.68-.52C408.16,379.79,407.05,376.56,405.93,373.33Z"/><path class="cls-18" d="M529.67,782.14l-1,.37-3.48-9.75a1.75,1.75,0,0,0,.16-.27l.37-.35,2.7,6.74Z"/><path class="cls-9" d="M549.51,852.6l-.56-.4,18.89-6.86-.18.66Z"/><path class="cls-1" d="M698.54,736.86l-.21-.59,7-2.56-1.23-3.4-.11-.52.48-.27c.56,1.25.52,2.82,2.17,3.57l-1.4-3.85c.31.28.76.5.9.85.48,1.08.81,2.21,1.3,3.57Z"/><path class="cls-3" d="M446.88,386.27c1.45,1.28,3.27,6.27,3,8.19A42.61,42.61,0,0,1,446.88,386.27Z"/><path class="cls-23" d="M607.06,514.75l-.63,0c-.34-.94-.64-1.95-1-2.92-1.64-4.52-3.23-9.07-4.84-13.61l-.17-.47a4.91,4.91,0,0,1,.88,1.18C603.25,504.21,605.14,509.47,607.06,514.75Z"/><path class="cls-16" d="M722.79,740.75l.94-.34,1,2.6-.76.49c-.46-.81-1.1-.72-1.82-.41l-6.69,2.43a3.22,3.22,0,0,0-.87.73l-.52.19-.34-.94.64-.23,8.92-3.24Z"/><path class="cls-10" d="M480.51,785.24l.08.22.08.22-1.62,3.5-.35.13C478,787,478.35,786.24,480.51,785.24Z"/><path class="cls-11" d="M515.26,638.49l.15.43c-3.58,1.3-7.14,2.65-10.72,4l-.25-.49Z"/><path class="cls-11" d="M501,841.1a2.6,2.6,0,0,1,.16.44c-2.35.61-3.09.28-4.13-1.83l.43-.15Z"/><path class="cls-10" d="M418.22,380l.34.48,1.16,4-.54.19c-.88-1.11-1-2.65-1.7-3.83l-.07-.57Z"/><path class="cls-8" d="M525.69,772.12l-.37.35-1.27-1c-.75-.27-1.48-.53-2.24-.84l-.1-.27C523.83,769.66,524.49,770,525.69,772.12Z"/><path class="cls-8" d="M542.13,826.61a1.63,1.63,0,0,0-.13-.37l1.39-2.94,0-.62h0a3.44,3.44,0,0,0,.45,0C544.59,824.75,544.26,825.54,542.13,826.61Z"/><path class="cls-23" d="M364,444.23l.48-.24,3.61,9.94-.49.1Z"/><path class="cls-9" d="M349.92,337.59l-.2-.55,9.84-3.69.05.15.27.49Z"/><path class="cls-11" d="M381.34,281.21l-.12-1,.58-.2.57.73,1.1,3.86-.62.22Z"/><path class="cls-13" d="M648.19,526.77l.39.85-4.88,1.93-.43-.64Z"/><path class="cls-11" d="M691.8,661c-.27.18-.53.33-.79.51l-3.74,1.13c.71-1.53,2.24-1.48,3.35-2.17l.93-.17Z"/><path class="cls-23" d="M370.52,431l-.11-.51,9.44-3.29.12.33Z"/><path class="cls-10" d="M387.74,298.3l-.45-.77L386,293.85c1.77.66,1.57,2.39,2.41,3.51V298Z"/><path class="cls-8" d="M647.53,540.48l.25.68c-.23,0-.56.12-.68,0a3.09,3.09,0,0,1,.23-4.34Z"/><path class="cls-8" d="M643.27,528.91l.43.64c.11,1.34,1.19,1.91,2,2.68l-.15.56c-.92-.87-1.9-1.7-2.75-2.63C642.4,529.67,642.62,529.15,643.27,528.91Z"/><path class="cls-5" d="M705.29,729.16l1.4,3.86c-1.64-.76-1.61-2.32-2.17-3.58Z"/><path class="cls-1" d="M601,427.24l-.38-.55,7.21-2.62.51-.19.18.49Z"/><path class="cls-9" d="M377.41,419.44l.61-.29,2.79,7.69-.58.21Z"/><path class="cls-1" d="M417.42,380.31l.07.57c-2.49.9-5,1.75-7.55,2.65l.35-.7Z"/><path class="cls-3" d="M303.46,139l-.3-.47,6.34-2.31.07.55-.82.3-4.48,1.63Z"/><path class="cls-7" d="M706.32,692.55l-1,.29-1-3.14.85-.31Z"/><path class="cls-12" d="M306.6,481.14c-.05.62-.22,1-.88.5l-1.12-4,.66-.34Z"/><path class="cls-11" d="M329.58,163.11l.71-.26.54,1.22.27.74c.12.08.12.18,0,.29s-.51.19-.76.28Z"/><path class="cls-9" d="M374.42,409.22l1.32,3.65-.65.17-.45-1.25-.38-1-.45-1.24Z"/><path class="cls-10" d="M567.66,846l.19-.66.94-.34.25.69a.3.3,0,0,1,.05.35l-.55.19Z"/><path class="cls-10" d="M571.18,789.18l-.69.19-.34-.94.59-.22.43.11.25.69a.16.16,0,0,1-.16.18A.12.12,0,0,1,571.18,789.18Z"/><path class="cls-9" d="M375.89,415.41l.66-.33.68,1.88-.67.37Z"/><path class="cls-10" d="M504.42,642.42l.25.49a.38.38,0,0,1,0,.33l-.67.17Z"/><path class="cls-10" d="M374.42,409.22l-.61.29a.3.3,0,0,1-.35.05l-.14-.4.28-.64.65.28Z"/><path class="cls-9" d="M376.39,414.68l-.65-.28-.44-.9.59-.22Z"/><path class="cls-9" d="M377.87,418.74l-.65-.28-.56-.86.07-.11.6-.22Z"/><path class="cls-10" d="M359.87,334l-.27-.49a4.55,4.55,0,0,0,.88-.37C360.75,333.77,360.4,334,359.87,334Z"/><path class="cls-10" d="M375.89,413.28l-.59.22a.43.43,0,0,1-.38,0l-.07-.17-.06-.17a.37.37,0,0,1,.3-.19l.65-.17Z"/><path class="cls-10" d="M380.18,427l.58-.21-.81.69-.12-.32A.28.28,0,0,1,380.18,427Z"/><path class="cls-11" d="M677.85,666l.3-.47Z"/><path class="cls-10" d="M521.77,770.37l.1.27-.14.05a1.58,1.58,0,0,0-.13-.34Z"/><path class="cls-8" d="M646,533a.7.7,0,0,1-.42-.19l.15-.56.6.28Z"/><path class="cls-8" d="M647.6,536.2l-.31.67-.19-.51Z"/><path class="cls-10" d="M584.73,828.61l.49-.17.16.45-.48.17Z"/><path class="cls-11" d="M475,562.68l-.05.83Z"/><path class="cls-4" d="M543.9,822.5l0-.72Z"/><path class="cls-10" d="M377.35,417.35l-.6.22-.16-.07-.06-.16.68-.37Z"/><path class="cls-8" d="M600.44,497.78l.17.47a.5.5,0,0,1-.46,0l-.13-.34A.42.42,0,0,1,600.44,497.78Z"/><path class="cls-13" d="M649.43,527.31l-.23-.92,5-1.43.18.7Z"/><path class="cls-8" d="M663,528.09l.37,1c-.85.58-1.25,1.74-2.47,1.78.39-.6.78-1.21,1.17-1.84l-2.16-.89C661,527.37,662,528.15,663,528.09Z"/><path class="cls-8" d="M658.73,537.14l-.24-.66-2.18-2.9a3,3,0,0,1,2.71,1.79C659.33,536,659.75,536.71,658.73,537.14Z"/><path class="cls-8" d="M654.41,525.66l-.18-.7c.78-.28,1.33.09,1.3.82-.06,1.22-.33,2.43-.51,3.64l-.44-.39C654.79,527.89,655.16,526.75,654.41,525.66Z"/><path class="cls-10" d="M651.33,517a.76.76,0,0,0-.11-.32l-1.9-2.62.29-.55a4.28,4.28,0,0,1,2.43,2.66C652.28,516.78,651.88,516.93,651.33,517Z"/><path class="cls-8" d="M660.74,535.48l.19.82c-.32-.34-.83-.63-.94-1a3.07,3.07,0,0,1,.45-3.21,4.11,4.11,0,0,1,.26.91C660.7,533.83,660.67,534.65,660.74,535.48Z"/><path class="cls-10" d="M647.5,509.25l.54-2.77C648.61,507.55,648.68,508.52,647.5,509.25Z"/><path class="cls-8" d="M655.71,533.33c-.54,0-1.19.31-1.29-.6C655,532.6,655.69,532.34,655.71,533.33Z"/><path class="cls-8" d="M654.87,529.74,654,531l-.54-.26.87-1.1Z"/><path class="cls-10" d="M651.37,507.29l1.28.6C652,508.35,651.5,508.19,651.37,507.29Z"/><path class="cls-8" d="M660.68,531.45l.19.52-.52.19Z"/><path class="cls-8" d="M661,530.86l.18.51-.5.19C660.77,531.3,660.87,531.08,661,530.86Z"/><path class="cls-8" d="M656.35,533.61l-.67-.34.52-.19Z"/><path class="cls-8" d="M655,529.42a.63.63,0,0,1-.15.32l-.58-.11.29-.6Z"/><path class="cls-10" d="M648.39,512.89l.64.26-.26.56-.6-.24Z"/><path class="cls-10" d="M649,513.15l.6.33-.29.55-.57-.32Z"/><path class="cls-8" d="M659.34,527.87l.51-.18.19.52Z"/><path class="cls-8" d="M658.72,527.59l.51-.19.19.51Z"/><path class="cls-11" d="M711.64,772.9l6.48,17.86-.94.35a.53.53,0,0,0-.19-.33l-6.64-18.56.88-.32Z"/><path class="cls-7" d="M711.64,772.9l-.43-.9.06,0,9.45-3.27.47.2.08.56C718.05,770.56,714.85,771.73,711.64,772.9Z"/><path class="cls-19" d="M721.19,768.83l-.48-.2,1.34-.48.29.81c-.09.15-.19.3-.29.44Z"/><path class="cls-9" d="M569.11,846l13.23,36.2c.3.82.64,1.63,1,2.45l-.36.73-.41-.41-13-36.06c-.33-.9-.65-1.8-.91-2.73Z"/><path class="cls-20" d="M278.43,81.78l.53.07Z"/><polygon class="cls-15" points="275.04 137.89 275.01 137.73 275.14 137.63 275.19 137.79 275.04 137.89"/><path class="cls-3" d="M473.17,428.55l-19.9,7.23-1.09-.44v-.17l-1-3.12.74-.45.16.15,1.12,3.1,2.39-.87,11.28-4.1c1.88-.68,3.72-1.46,5.58-2.2l.68.46Z"/><path class="cls-9" d="M451.13,432,434.82,438l-.28-.78q8.46-3.07,16.8-6.15l.52.58C451.62,431.74,451.38,431.89,451.13,432Z"/><path class="cls-12" d="M452.18,435.33l1.08.44a3.58,3.58,0,0,1-.81.22Z"/><path class="cls-23" d="M593.28,383.87a.83.83,0,0,1,0-.47l.43.38A.61.61,0,0,1,593.28,383.87Z"/><path class="cls-7" d="M600.59,403.73a.69.69,0,0,1-.09-.47Z"/><path class="cls-7" d="M607.82,424a1.19,1.19,0,0,1,0-.46l.49.3Z"/><path class="cls-7" d="M593.94,385.2l-.36-.32Z"/><path class="cls-2" d="M348.28,339.05l.2.57-17.86,6.48-.27-.46,15.1-5.48c.81-.29,1.62-.66,2.42-1A2.77,2.77,0,0,0,348.28,339.05Z"/><path class="cls-11" d="M373.33,409.15l.14.39L364,413l-.16-.43Z"/><path class="cls-11" d="M259.44,403.49l1.17-.43-.63.88Z"/><path class="cls-11" d="M258.49,402.14l.4,1.08-.7-.1Z"/><path class="cls-11" d="M258.82,403.19l.68.32Z"/><path class="cls-14" d="M308.15,486.83l-13.61,4.94-.26-.88,1.23-.54-1.24-3.42,1-.37a8.38,8.38,0,0,0,1.77,3.79c.2-.75.44-1.16.36-1.49-.23-.91-.64-1.76-.9-2.65l.64-.24,1.26,3.47,1.23-.44,1.08.05a1.25,1.25,0,0,0,.71-1.62.84.84,0,0,0-.06-.14l-.88-2.42a4.65,4.65,0,0,0,.62-.34l1.26,3.47,1.23-.44.47.2.08-.41a10,10,0,0,0,1.22-.51l-1.24-3.44,1-.37,1.26,3.48,1.24-.45Z"/><path class="cls-12" d="M294.25,481.26l1-.37,1.36,3.76,1.21-.67,1.74-.63-1.28-3.55,1-.37,1.44,3.95a6.29,6.29,0,0,1-5,1.81Z"/><path class="cls-13" d="M353.18,459.28l-3.57-9.85,1-.36,3.57,9.83Z"/><path class="cls-13" d="M357.21,457.8,353.64,448l1-.37,3.57,9.83Z"/><path class="cls-13" d="M364.49,414.36l9.79-3.62.37,1.05-9.81,3.56Z"/><path class="cls-12" d="M303.1,478.16l1.71,3.81a2.85,2.85,0,0,1-3.14,1.19l-.84-3.83.34-.13,1.4,3.16.49.05c.15-.41.49-.87.4-1.21a29.89,29.89,0,0,0-1-2.87Z"/><path class="cls-23" d="M359.43,457l-3.56-9.81.6-.22,3.57,9.83Z"/><path class="cls-23" d="M351.35,460l-3.58-9.87.58-.21,3.57,9.85Z"/><path class="cls-12" d="M376.66,417.64,367,421.16l-.16-.65,7.95-2.88C375.36,417.47,376,416.86,376.66,417.64Z"/><path class="cls-23" d="M374.93,413.57c-3.16,1.15-6.28,2.37-9.42,3.56l-.21-.59c3.14-1.13,6.31-2.2,9.44-3.28l.06.16Z"/><path class="cls-12" d="M292.47,486c.34-.13.72-.19,1.25-.33l-1-3.4.34-.12,1.81,3.48C293.7,486.8,293.47,486.83,292.47,486Z"/><path class="cls-14" d="M290.64,483l-.79-.19Z"/><path class="cls-14" d="M284.84,484.65l-.28.61Z"/><path class="cls-13" d="M257.41,507.88a19,19,0,0,1,2.66-1.44l129.51-47a18.15,18.15,0,0,1,1.79-.65,5,5,0,0,1,1.16.05l-.21.08-.25.65-1.8.65-130,47.19c-.68.24-1.35.49-2,.78l-.63-.35a.13.13,0,0,1-.18.08S257.42,507.9,257.41,507.88Z"/><path class="cls-24" d="M511.91,789.78l6.34,17.45L515,808.69c-2.4-5.91-4.32-11.73-6.55-17.66Z"/><path class="cls-21" d="M491.4,784.94c.62,1.73,1.18,3.47,1.81,5.2l16.12,44.41-.59.35c-1-2.82-1.94-5.56-2.95-8.34l-14-38.64c-.34-.94-.65-1.8-1-2.68Z"/><path class="cls-4" d="M505.42,790.87,502,781.29c.68-.52,1.34-1,1.8.16,1.11,2.9,2.12,5.83,3.21,8.86Z"/><path class="cls-4" d="M520,774.67c1-.64,1.53-.55,1.82.22l3.22,8.86-1.54.56Z"/><path class="cls-4" d="M519.38,785.71l-3.44-9.49c.75-.67,1.41-.87,1.78.12l2.95,8.11C521,785.47,520.36,785.69,519.38,785.71Z"/><path class="cls-4" d="M506,779.75c1-.65,1.53-.56,1.83.22l3.21,8.85-1.54.56Z"/><path class="cls-4" d="M518.09,820.91c1.06,2.9,2.08,5.72,3.06,8.56.13.37-.28.91-.44,1.36-.4-.26-1-.43-1.17-.79-1-2.58-1.89-5.22-2.83-7.82C516.34,821.23,516.93,821,518.09,820.91Z"/><path class="cls-24" d="M512.64,822.61c.85-.62,1.42-.37,1.76.62l3.17,8.74-1.55.17Z"/><path class="cls-24" d="M515.31,832.39l-1.25,1-3.36-9.28c-.32-.87.39-1.05,1.06-1.14Z"/><path class="cls-24" d="M524.44,818.35l1.3-.47,3.55,9.46-1.25.94Z"/><path class="cls-24" d="M526.64,817.54l1.29-.47,3.57,9.83-1.51.17Z"/><path class="cls-18" d="M508.62,824.1l3.62,9.74c-.49.18-1,.4-1.45.61a12.46,12.46,0,0,0-.36-2.5c-1-2.84-2.05-5.64-3.07-8.46a1.26,1.26,0,0,1,.33,0Z"/><path class="cls-18" d="M494.11,784l3.54,9.76-.83.49-3.74-9.9Z"/><path class="cls-21" d="M500.7,792.71l-3.56-9.81,1-.37,3.56,9.81Z"/><path class="cls-21" d="M512.14,777.41l3.58,9.85-1.05.38-3.57-9.81Z"/><path class="cls-6" d="M526.64,817.54l3.35,9.53-.71.25-3.55-9.46Z"/><path class="cls-6" d="M515.31,832.39l-3.53-9.47.88-.32,3.37,9.53Z"/><path class="cls-5" d="M524.17,829.3c.38-.23.77-.44,1.16-.67C525.32,829.52,524.79,829.5,524.17,829.3Z"/><path class="cls-5" d="M533.86,825.54l1.33-.28a1.37,1.37,0,0,1,.09.4Z"/><path class="cls-1" d="M522.43,818.55a2.1,2.1,0,0,1,0,.43l-.32.26h0Z"/><path class="cls-6" d="M497.32,795.51l-.17-.47Z"/><path class="cls-6" d="M503.52,812.66l-.17-.47Z"/><path class="cls-16" d="M504.05,814l-.17-.46Z"/><path class="cls-16" d="M507.69,823.55a1.26,1.26,0,0,0-.33,0l0-.48Z"/><path class="cls-18" d="M508.77,834.89l.59-.35a.5.5,0,0,1,.18.27,5.86,5.86,0,0,1-.75.13Z"/><path class="cls-24" d="M438.93,336.15l-19,6.91-1.18-3.27,19-6.9Z"/><path class="cls-3" d="M426.91,341.28c1.06,2.91,2,5.89,3.1,8.78.21.6,1,.95,1.68,1.51l-3,1.08a3.12,3.12,0,0,0,0-3.15c-1-2.59-2-5.2-3-7.8Z"/><path class="cls-7" d="M722.37,769l-.29-.81,9.35-3.55-2.86-7.88-.2-.72-.29-.79-.65-1.8-.36-1-.29-.81-.3-.63-.35-1.19-.22-.61-.44-1.19-.85-2.36-.44-1.19-.21-.59.1-.12,1,.2,7.7,21.23-5.2,1.89C725.93,767.65,724.11,768.34,722.37,769Z"/><path class="cls-24" d="M714.59,746.23a3.05,3.05,0,0,1,.87-.73l6.69-2.43c.74-.27,1.38-.36,1.81.4a.51.51,0,0,1,0,.27l-.1.12L715,747.09Z"/><path class="cls-22" d="M639,353.32c1,2.62,1.78,5.27,2.73,7.89,2.17,6,4.4,12,6.6,17.92a2.65,2.65,0,0,0-.46.31l-.26-.1c-.14-.53-.24-1.08-.43-1.6L639,355.27c-.21-.59-.54-1.14-.81-1.72l.15-.24Z"/><path class="cls-22" d="M648.66,379.93c1,2.63,1.79,5.29,2.74,7.9,2.17,6,4.4,12,6.61,17.95l-.49.28a.5.5,0,0,1-.24-.09,13.51,13.51,0,0,0-.36-1.39l-8.34-23a15.81,15.81,0,0,0-.73-1.49l.14-.24Z"/><path class="cls-22" d="M629.34,326.71c.89,2.46,1.67,5,2.57,7.44,2.23,6.13,4.49,12.2,6.76,18.36a2.72,2.72,0,0,0-.46.32l-.26-.1a13.28,13.28,0,0,0-.35-1.38l-8.32-22.93a10.73,10.73,0,0,0-.77-1.46.52.52,0,0,1,.1-.27Z"/><path class="cls-22" d="M647.87,379.44l0,.24.09.22-.15.25-.28-.78Z"/><path class="cls-22" d="M638.21,352.83l0,.24.08.22-.15.24-.28-.77Z"/><path class="cls-24" d="M473.76,602.85a7.36,7.36,0,0,1,1,1.52L485,632.49l-.8.29c-3.23-8.9-6.45-17.78-9.73-26.64-.27-.75-.15-1.83-1.31-2L461,608.5,471.39,637l-.35.12-10.63-29.29Z"/><path class="cls-7" d="M473.11,604.12c1.14.2,1,1.28,1.31,2,3.27,8.87,6.49,17.75,9.73,26.64l-.57.21-.56-1.21-11.06,4-.19-.52,11.09-4-.39-1.26-.31-.65-.57-1.58-11,4-.25-.56,7.4-2.69a28.71,28.71,0,0,0,3.11-1.23c.26-.09.24-.74.49-1.58l-11.5,4.17-.19-.53,11-4-.32-1.28-.38-1.05-.53-1.18-11,4-.21-.58,11-4-.34-1.24-.38-1-.58-1.2-11,4-.19-.53,11.15-4-.45-1.23-.31-.65-.57-1.56-.18-.7-.5-1.2-11.13,4-.19-.53,11.06-4-.34-1.27-.38-1.06-.53-1.19-11.07,4-.19-.53,11.09-4-.38-1.24-.31-.65-.18-.74Z"/><path class="cls-4" d="M470.54,631.76l11-4,.58,1.58c-3.26,1.18-6.52,2.36-9.74,3.62C471.17,633.43,470.61,633,470.54,631.76Z"/><path class="cls-4" d="M476.5,613.8l.56,1.56-9.46,3.5c-.3.11-.64.33-.91.26a2,2,0,0,1-1.06-.68,1.31,1.31,0,0,1,.48-.9,17.78,17.78,0,0,1,2.45-1C471.23,615.66,473.87,614.73,476.5,613.8Z"/><path class="cls-24" d="M466.9,621.81l11-4,.58,1.2c-3.35,1.21-6.66,2.49-10,3.76C467.54,623.14,467,622.86,466.9,621.81Z"/><path class="cls-24" d="M480.35,624.07l.32,1.28-11,4c-.57-.85-.36-1.43.64-1.77C473.64,626.42,477,625.24,480.35,624.07Z"/><path class="cls-4" d="M473.29,604.7l.17.74-10.34,3.75c-.18.06-.42,0-.7-.28A80.07,80.07,0,0,1,473.29,604.7Z"/><path class="cls-16" d="M285.62,101.43l9.66-3.68.37.72c-1.58.5-3.18,1-4.76,1.53s-3,1.16-4.48,1.71c.11,1.21.66,1.26,1.36,1,2.75-1,5.49-2,8.23-3.1l.25.7c-1.57.57-3.18,1-4.74,1.59s-3.05,1.11-4.49,1.7c.29,1.35,1,1.08,1.55.85,2.7-1,5.37-2,8.05-3l.3.69-9.24,3.35.41,1.11.18.69.29.79.36,1,.28.77.39,1,.28.78.3.66.41,1.11,9.24-3.36.21.72c-2.69,1-5.42,1.87-8.13,2.83-.72.26-1.38.57-.58,1.58l9.14-3.32.45,1c-.31-.06-.67-.24-.92-.15l-8.57,3.1.46,1.27-.65.24-5.42-15.22Z"/><path class="cls-7" d="M291.89,88.14c-3.83,1.33-7.65,2.64-11.46,4-3.05,1.1-6.08,2.28-9.13,3.42l-.42-1,20.72-7.52Z"/><path class="cls-24" d="M285.79,102l5.42,15.22c-.33-.1-.88-.13-.95-.33-1.78-4.9-3.45-9.82-5.15-14.75l.16-.06A3.28,3.28,0,0,0,285.79,102Z"/><path class="cls-24" d="M276.1,108.83l-.32-1.16,9.16-3.32.52,1.12Z"/><path class="cls-24" d="M279.23,117.46l-.38-1,9.33-3.39.4,1.11Z"/><path class="cls-24" d="M288.88,114.74l.33,1.19L280,119.25l-.49-1.08Z"/><path class="cls-24" d="M285.75,106.11l.41,1.12-9.33,3.38-.38-1Z"/><path class="cls-24" d="M291.85,117.05l-.46-1.27,8.56-3.1c.26-.1.61.09.92.15l.2.74C298,114.74,295,115.89,291.85,117.05Z"/><path class="cls-24" d="M289.76,117.14c-.3.35-.54.86-.93,1-2.44,1-4.94,1.79-7.42,2.69-.68.25-1.07,0-1.12-.92l9-3.28Z"/><path class="cls-18" d="M277.29,112.09c2.21-.8,4.41-1.6,6.67-2.3.8-.29,1.65-.48,2.47-.72l.17.66-8.91,3.42Z"/><path class="cls-18" d="M278,113.85c3-1,6-2.07,9-3.09l.3.6-6.52,2.57c-.81.29-1.59.64-2.39,1Z"/><path class="cls-16" d="M285.75,106.11l-9.4,3.41-.26-.72,9.35-3.39Z"/><path class="cls-16" d="M288.88,114.74l-9.34,3.39-.26-.73,9.4-3.41Z"/><path class="cls-16" d="M278.58,115.65l9.4-3.41.25.7-9.32,3.39Z"/><path class="cls-16" d="M286.41,107.92l-9.4,3.41-.28-.76,9.33-3.38Z"/><path class="cls-4" d="M459.71,567.3l.58,1.59c-3.33,1.2-6.64,2.47-10,3.67a4.72,4.72,0,0,1-1.35.07l-.34-.94a4.29,4.29,0,0,1,1.07-.82C453,569.65,456.38,568.48,459.71,567.3Z"/><path class="cls-4" d="M443.5,557.69a3.15,3.15,0,0,1,.85-.74l8.95-3.25c.94-.34,1.72-.36,1.81,1.11a11.92,11.92,0,0,1-1.37.72l-8.06,2.92a9.92,9.92,0,0,1-1.8.28Z"/><path class="cls-4" d="M458.2,563.25l.66,1.58-11.16,4c-.63-1-.61-1.7.69-2.15C451.67,565.6,454.93,564.42,458.2,563.25Z"/><path class="cls-4" d="M439.92,547.44l11.12-4,.57,1.57c-3.33,1.21-6.64,2.49-10,3.69a4.36,4.36,0,0,1-1.35.06Z"/><path class="cls-18" d="M442.67,557l-2.62-7.22.72-.15.44,1.2.22.62.55,1.17,11-4,.36,1-11.08,4,.34,1.26.23.63.45,1.23Z"/><path class="cls-24" d="M445,561.43l11-4,.59,1.15c-3.29,1.19-6.58,2.38-9.85,3.65C445.83,562.57,445.19,562.54,445,561.43Z"/><path class="cls-18" d="M445,561.43c.19,1.11.83,1.14,1.75.8,3.27-1.24,6.56-2.44,9.85-3.65l.34.94-11.05,4,.33,1.23a3.46,3.46,0,0,0-.63.34l-2-5.38.66-.18.45,1.24Z"/><path class="cls-15" d="M446.49,565.83c.36,1,1.1.66,1.78.42l9.79-3.62.15.63c-3.27,1.18-6.53,2.37-9.81,3.49-1.27.46-1.33,1.16-.69,2.15l-.5.27-.46-.33L446,566.1Z"/><path class="cls-21" d="M460.55,569.49l-11.15,4c-.23.08-.47.12-.71.18l-.34-.94.56-.2a4.71,4.71,0,0,0,1.35-.06c3.33-1.21,6.67-2.43,10-3.68Z"/><path class="cls-21" d="M448.37,570.7l11.15-4.05.23.62c-3.33,1.21-6.69,2.36-10,3.58a4.77,4.77,0,0,0-1.08.81l-.55.21-.35-.94A2.38,2.38,0,0,0,448.37,570.7Z"/><path class="cls-21" d="M451.86,545.54l-11.16,4.05c-.22.08-.49.09-.72.15l-.32-.88.56-.2a4.38,4.38,0,0,0,1.35-.06c3.33-1.21,6.67-2.43,10-3.69Z"/><path class="cls-16" d="M447.21,569.16l.49-.28,11.16-4,.22.6-11.18,4.06Z"/><path class="cls-18" d="M448.7,573.73a2.67,2.67,0,0,1,.7-.18l.44,1.2.49,1.37-.59.28Z"/><path class="cls-18" d="M440.27,548.69l-.56.2-.86-1.09,1.06-.39Z"/><path class="cls-18" d="M443.5,557.69l.37,1-.49.11-.33-.88Z"/><path class="cls-4" d="M452.13,401.67l5.44,15-.48.18c-1.11-1.37-1.37-3.16-2-4.76s-1.24-3.43-1.87-5.15l-1.82-5Z"/><path class="cls-4" d="M462.87,401.77l.41,1.12c-6,2.59-7.74,3.07-9.17,2.39,1.21-1.26,2.86-1.38,4.27-2S461.34,402.29,462.87,401.77Z"/><path class="cls-24" d="M462.22,400l.4,1.11L454,404.21c-.73-1.07-.06-1.35.5-1.54C457.1,401.75,459.66,400.86,462.22,400Z"/><path class="cls-24" d="M466.62,412.19l.46,1.08-8.68,3.15c-.69-1.16.1-1.4.77-1.64C461.65,413.9,464.17,413,466.62,412.19Z"/><path class="cls-24" d="M464.2,405.36l.35,1.13-7.38,2.79c-.6.22-1.21.44-1.75-.55,1.23-1.08,2.84-1.29,4.25-1.84S462.69,405.87,464.2,405.36Z"/><path class="cls-24" d="M463.54,403.57l.41,1.11c-5.32,2.38-7.82,3.07-9.26,2.29,1.33-1.13,2.93-1.34,4.33-1.9S462,404.09,463.54,403.57Z"/><path class="cls-24" d="M443.45,408.08,443,406.9c2.46-.89,4.92-1.79,7.35-2.74.64-.24,1.25-.37,1.4.9Z"/><path class="cls-24" d="M444.12,409.87l-.43-1.17q4.05-1.47,8.12-2.87c.1,0,.27.11.72.34-.36.39-.59.86-.95,1C449.09,408.12,446.59,409,444.12,409.87Z"/><path class="cls-24" d="M444.76,411.68l-.42-1.18,8.36-3c.73,1.24-.08,1.43-.74,1.67C449.55,410,447.15,410.85,444.76,411.68Z"/><path class="cls-24" d="M445.43,413.47l-.43-1.18,8.37-3c.71,1.18-.05,1.43-.73,1.68C450.21,411.8,447.82,412.62,445.43,413.47Z"/><path class="cls-24" d="M447.86,420.29l-.43-1.18c2.39-.87,4.76-1.73,7.13-2.66.68-.25,1.4-.51,1.66.81Z"/><path class="cls-18" d="M465.44,409c-2.82,1-5.66,2-8.45,3l-.69-.88,8.76-3.18Z"/><path class="cls-18" d="M466.11,410.76l-8.52,2.9-.23-.82,8.38-3.13Z"/><path class="cls-18" d="M455.39,414.6l-8.46,3.07-.36-1,8.41-3.06Z"/><path class="cls-18" d="M454.72,412.83l-8.42,3.06-.36-1,8.46-3.07Z"/><path class="cls-1" d="M401.16,357.56c.72-.26,1.47-.44,2.2-.66l.13.35-2.15,1Z"/><path class="cls-24" d="M301.15,178l-1-3.06,20.39-7.4,1.17,3.22a7.64,7.64,0,0,1-1,.56l-18,6.54A6.38,6.38,0,0,1,301.15,178Z"/><path class="cls-24" d="M290.26,147.63l-1.19-3.26,7-2.54,1.18,3.26Z"/><path class="cls-3" d="M302.3,161.13c.88-.18.6-.74.43-1.22l-3-8.31c-.7-1.94-1.47-3.87-2.2-5.8l1.1-.4,5,14.34c.22.61.53,1,1.23.62l.35.66c-.37.46-.87.8-.55,1.61,1.19,2.92,2.29,5.88,3.43,8.82l-1.17.42-3.49-9.62-1.52-.11Z"/><path class="cls-24" d="M298.37,144.72l-1.23-3.39c2-.59,3.67-1.87,5.86-1.69l1.09,3Z"/><path class="cls-5" d="M309.63,137.23l-.89-.14.83-.3A.56.56,0,0,1,309.63,137.23Z"/><path class="cls-5" d="M304.27,138.72l-.59.67a.51.51,0,0,1-.22-.36Z"/><path class="cls-4" d="M538.34,824.53a16.44,16.44,0,0,1-1.14-2c-.94-2.45-1.78-4.93-2.72-7.52l1.46-.73,3.33,8.71C539.6,823.88,539.11,824.26,538.34,824.53Z"/><path class="cls-4" d="M538.41,813.28c1-.7,1.54-.32,1.89.74,1,2.9,2,5.8,3,8.7h0c-1,.48-1.58.13-1.93-.94C540.47,818.92,539.41,816.1,538.41,813.28Z"/><path class="cls-3" d="M538.41,813.28c1,2.82,2,5.64,3,8.48.38,1,.9,1.42,1.93.94v.62l-5.31,1.73.29-.53c.76-.28,1.26-.65.9-1.59l-3.32-8.72.68-.25,3.46,9.54c1.06.11,1.37-.28,1.1-1.07l-1.7-4.7-1.55-4.27Z"/><path class="cls-16" d="M728.54,756.72q-10.06,3.64-20.15,7.26l-.3-.58,6.88-2.49a13.46,13.46,0,0,0,1.94-.86c.09,0-.08-.55-.12-.86l-.32-.86-.34-.94-.24-.86c-.24-1.12-1-.71-1.61-.48l-7.74,2.81-.14-.52,7.61-2.76c.72-.27,1.58-.49,1-1.84l-9.15,3.32-.16-.46,7.6-2.76c.89-.33,1.65-.69,1.32-1.85l-.93-2.55c-.5-1.12-1.3-.9-2.2-.56l-7.63,2.77-.21-.58c1.57-.57,3.18-1,4.73-1.63a18.13,18.13,0,0,0,4.57-1.91c-.37-.36-.57-.67-.67-.64-3,1-6,1.93-9,2.91l-.31-.45,9.19-3.33.16-.47-.46-.84.62-.3,5.12,14.1a4.1,4.1,0,0,0,.81,1l1-.37,8.92-3.24Z"/><path class="cls-24" d="M704.15,730.24l1.23,3.39-7,2.56-1.52-3.33Z"/><path class="cls-24" d="M703.89,751.73l7.63-2.77c.94-.34,1.7-.56,2.2.56l-9.4,3.41Z"/><path class="cls-24" d="M703.31,749.87c3-1,6-2,9-2.9.09,0,.3.28.67.64a18.51,18.51,0,0,1-4.57,1.91c-1.57.57-3.13,1.14-4.73,1.63Z"/><path class="cls-24" d="M714.62,752c.33,1.16-.42,1.52-1.32,1.84l-7.6,2.76-.67-1.32C708.32,754.16,711.37,752.79,714.62,752Z"/><path class="cls-24" d="M705.88,757.09l9.14-3.32c.57,1.35-.3,1.57-1,1.84l-7.61,2.76Z"/><path class="cls-24" d="M704.61,754.33c.22-.37.35-1,.67-1.09,2.52-1,5.06-1.83,7.6-2.76.67-.24,1.09.06,1,1L705,754.68Z"/><path class="cls-18" d="M706.82,759.75c3-1.09,6-2.12,9.06-3.17l.25.85q-4.47,1.62-8.92,3.31Z"/><path class="cls-15" d="M716.79,759.21l-9,3.28-.28-1c3-1.09,6-2.12,9-3.18Z"/><path class="cls-18" d="M713.7,745.54l-.81-1.19.94-.34.45,1.23A3.89,3.89,0,0,1,713.7,745.54Z"/><path class="cls-24" d="M638,352.73l.28.77a18.1,18.1,0,0,1,.82,1.73l8.17,22.49c.19.53.29,1.08.43,1.61l.28.78a15.88,15.88,0,0,1,.74,1.49l8.33,23a12.84,12.84,0,0,1,.35,1.39c-.65.29-1.28.63-2,.88l-35.18,12.76c-.66.24-1.34.43-2.15.68-.31-.65-.62-1.18-.83-1.76l-28.07-77.36.21-.08q19.26-7,38.53-14a2.74,2.74,0,0,1,.7-.09,11.41,11.41,0,0,1,.77,1.47l8.31,22.9A13.94,13.94,0,0,1,638,352.73Zm16.39,52-27.2-74.92-35,12.69,27.2,74.93Z"/><path class="cls-15" d="M703.84,689.73c-2.06.82-4.11,1.66-6.19,2.42-4.4,1.6-8.84,3.1-13.22,4.63a7.78,7.78,0,0,1,1.21-.73l16.85-6.11A7.74,7.74,0,0,1,703.84,689.73Z"/><path class="cls-15" d="M684,697.59l1.23,2.53C684,699.67,684.08,698.6,684,697.59Z"/><path class="cls-20" d="M588.4,839l-.39-.19Z"/><path class="cls-1" d="M595.9,429.08l-6.69,2.43-1.7.61-2.48.25L599.7,427l-2,1.39Z"/><path class="cls-10" d="M589.13,435.38l9.33-3.39.77-.79.91-.21.32.86-13.1,4.76-.31-.87.83-.41Z"/><path class="cls-5" d="M587.51,432.11l1.69-.62.06.16.06.16Z"/><path class="cls-5" d="M595.9,429.08l1.77-.64-1.56,1A.68.68,0,0,1,595.9,429.08Z"/><path class="cls-24" d="M296.65,101.4c-2.7,1-5.36,2-8,3-.6.22-1.28.47-1.55-.85,1.46-.53,3-1.16,4.49-1.7s3.16-1.06,4.74-1.59Z"/><path class="cls-24" d="M299.82,110l-9.24,3.35-.4-1.11,9.1-3.3Z"/><path class="cls-24" d="M300.47,111.8l-9.15,3.32c-.79-1-.14-1.33.58-1.59,2.7-1,5.43-1.88,8.13-2.82Z"/><path class="cls-24" d="M288.11,106.55l-.4-1.11,9.24-3.35.26,1.16Z"/><path class="cls-15" d="M288.94,109l-.36-1,9.27-3.43.39,1.08Z"/><path class="cls-15" d="M298.87,107.45l-9.28,3.37-.37-1,9.26-3.36Z"/><path class="cls-15" d="M297.55,103.91l-9.24,3.35-.19-.68,9.1-3.31Z"/><path class="cls-15" d="M289.87,111.58l9.24-3.35.16.72-9.1,3.3Z"/><path class="cls-18" d="M716.82,754.15l-2.74-7.7.53-.19.38.83.24.66.42,1.15.87,2.39.41,1.14.24.67.25.86Z"/><path class="cls-8" d="M257.62,507.81l.63.34c.3.83.54,1.68.84,2.51l98.34,271,.91,2.48-.27.63-.07.1-1.22-3.39L258.3,510.1C258.08,509.33,257.87,508.57,257.62,507.81Z"/><path class="cls-10" d="M392.05,459.58l.26-.66c.29.82.67,1.62,1,2.45l98.63,271.76,1,2.7-.47.22-.2-.56-.82-2.25L392.88,461.81C392.66,461.06,392.35,460.32,392.05,459.58Z"/><path class="cls-12" d="M492.22,735.51l.21.56c-.79.37-1.56.82-2.36,1.12L360.35,784.27a14.46,14.46,0,0,1-2.25.45l.26-.63c.94-.34,1.82-.57,2.72-.9l128.68-46.7C490.6,736.17,491.41,735.84,492.22,735.51Z"/><path class="cls-12" d="M505.1,600.69c.1-.34.1-.82.32-1a6.72,6.72,0,0,1,1.54-.65L537.57,588c.73-.27,1.49-.46,2.33-.72l4.51,12.41a9.14,9.14,0,0,1-1,.54l-32.64,11.84a8.85,8.85,0,0,1-.92.24l-.13-.56,33.76-12.25-4.06-11.17-33.7,12.24Z"/><path class="cls-8" d="M509.69,611.73l.13.56a6.26,6.26,0,0,1-1-1.35l-3.71-10.22.57-.2Z"/><path class="cls-12" d="M589.23,583.41l-4.48-12.35,35-12.71,4.47,12.34Zm30.19-24-33.75,12.24,4,11,33.75-12.25Z"/><path class="cls-14" d="M564.4,513.75a11.19,11.19,0,0,1,1.63-.89l31-11.26c.58-.21,1.2-.33,1.93-.53l4.54,12.5a8.06,8.06,0,0,1-1.33.77l-32,11.6a6.58,6.58,0,0,1-1.39.21l-.37-1a12.36,12.36,0,0,0,2.27-.37L600.48,514c.65-.23,1.28-.56,1.9-.82l-4-11c-.54.19-.93.23-1.3.36l-30.87,11.2a8.54,8.54,0,0,0-1.52,1Z"/><path class="cls-10" d="M564.4,513.75l.36,1,3.76,10.34.37,1c-.26-.25-.65-.46-.77-.79l-3.83-10.55A2.56,2.56,0,0,1,564.4,513.75Z"/><path class="cls-14" d="M484.56,542.73a16.71,16.71,0,0,1,1.87-1l30.43-11c.73-.27,1.49-.46,2.32-.71l4.6,12.65c-.74.33-1.35.66-2,.9l-30.88,11.21a11.39,11.39,0,0,1-1.83.36l-.37-1a9.84,9.84,0,0,0,2-.29l30.37-11a13.14,13.14,0,0,0,1.4-.71l-4-10.89c-.53.14-.91.22-1.27.35l-30.82,11.19a8.05,8.05,0,0,0-1.53,1Z"/><path class="cls-8" d="M484.56,542.73l.37,1,3.75,10.34.37,1c-.26-.25-.65-.44-.76-.74l-3.85-10.59C484.34,543.47,484.52,543.07,484.56,542.73Z"/><path class="cls-18" d="M718.41,759.63,717.1,755l.74-.16c.34.94,1,.62,1.56.4,2.55-.93,5.1-1.87,7.63-2.83l.36,1c-2.82,1-5.64,2.05-8.43,3.16-.07,0-.07.26-.1.38s.25.26.33.24c2.82-1,5.66-2,8.49-3l.37,1L720.44,758c-.58.22-1.31.35-1,1.27Z"/><path class="cls-24" d="M715.63,748.86l-.41-1.15,8.9-3.23.43,1.19C721.6,746.7,718.64,747.77,715.63,748.86Z"/><path class="cls-24" d="M716.29,750.63l-.42-1.15,8.93-3.24.42,1.15Z"/><path class="cls-24" d="M716.93,752.39l-.41-1.14,9-3.25.43,1.19Z"/><path class="cls-24" d="M717.4,753.92l-.24-.86,9-3.25.35,1.19c-2.57.94-5.12,1.94-7.7,2.86A5.16,5.16,0,0,1,717.4,753.92Z"/><path class="cls-21" d="M726.75,751.61l-8.91,3.24c-.24.08-.5.09-.75.15l-.3-.85.59-.21a5.11,5.11,0,0,0,1.35-.08c2.57-.93,5.15-1.87,7.7-2.86Z"/><path class="cls-16" d="M726.1,749.79l-9,3.25-.24-.67,8.9-3.23Z"/><path class="cls-2" d="M725.44,748l-8.94,3.25-.22-.6,8.93-3.25Z"/><path class="cls-2" d="M724.79,746.21l-8.93,3.24-.23-.62,9-3.25Z"/><path class="cls-16" d="M724.13,744.45l-8.91,3.23L715,747l8.91-3.24Z"/><path class="cls-2" d="M285.79,102a1.3,1.3,0,0,1-.51.11l.34-.7Z"/><path class="cls-18" d="M447.21,569.16l.71.34.44,1.21c-.23.08-.44.21-.66.31l-1-2.19Z"/><path class="cls-18" d="M448.07,571.91l.55-.2.34.94-.55.2Z"/><path class="cls-1" d="M305.2,160.91l-.36-.66-.67-2.17,3.9-1.41,1,2.67Z"/><path class="cls-1" d="M302.3,161.13l-.41.9-3.47,1.26-1-2.82,4-1.44Z"/><path class="cls-3" d="M712.18,746.09l.17-.48Z"/><path class="cls-1" d="M654.34,404.72l-35,12.7-27.2-74.93,35-12.69Zm-.8-.46-26.72-73.6L593,342.94l26.72,73.6Z"/></svg>