<svg id="Layer_1" data-name="Layer 1" xmlns="http://www.w3.org/2000/svg" viewBox="0 0 950 950"><defs><style>.cls-1{fill:#171717;}.cls-2{fill:#e52922;}.cls-3{fill:#1a1a19;}.cls-4{fill:#424342;}.cls-5{fill:#e73936;}.cls-6{fill:#151515;}.cls-7{fill:#e62c27;}.cls-8{fill:#e94640;}.cls-9{fill:#515150;}.cls-10{fill:#010202;}.cls-11{fill:#e62d27;}.cls-12{fill:#e73934;}.cls-13{fill:#e6342d;}.cls-14{fill:#e83d39;}</style></defs><path class="cls-1" d="M304.31,540.72l-.51-1.4c.43-.16.82-.4,1.24-.6a7.24,7.24,0,0,0,.92-.22l73.2-26.6a9.42,9.42,0,0,0,1.33-.71l-14.32-39.42L293.1,498.33c-.81.29-1.6.65-2.41,1l-1.29.37-.49-1.37c.43-.16.82-.4,1.24-.6a7.67,7.67,0,0,0,.92-.22l73.2-26.6a9.42,9.42,0,0,0,1.33-.71l-27.61-76-2.3.84-71,25.8c-.73.26-1.45.59-2.19.89l-1.28.47a2.36,2.36,0,0,0-.37,0c-.05,0-.09.12-.13.18l-.49-1.34.43-.3,1.3-.54c.29-.11.63-.12.92-.23l73.19-26.6a11.5,11.5,0,0,0,1.35-.7l-30.2-83.08-2.52.91L264.88,325q-16.57,6-33.12,12.11l-1.3.39-.49-1.35c.42-.15.83-.35,1.25-.53s.91-.26,1.35-.42l72.51-26.35c.56-.21,1.1-.49,1.61-.72l-14.87-40.91-2.54.93-44.93,16.32q-14,5.1-28,10.25l-1.31.39-.48-1.34,1.25-.54c.29-.11.6-.15.9-.26l73.19-26.6a11.23,11.23,0,0,0,1.35-.66L276.47,225l-73.28,26.63c-.74.27-1.45.6-2.18.91l-1.34.34-.5-1.41c.42-.15.82-.35,1.25-.53a2.46,2.46,0,0,0,.45-.11q47.91-17.66,95.8-35.35a.86.86,0,0,0,.21-.07l.55,1.49L277.8,224l88.47,243.42,29.47,81.08,30.37,83.55-1.43.52-30.27-83.27-2.6.94L321,576c-.74.27-1.46.59-2.18.9l-1.3.37-.5-1.37a10.85,10.85,0,0,0,1.24-.6,11.06,11.06,0,0,0,1.13-.3l72.74-26.44a16.61,16.61,0,0,0,1.59-.76l-12.7-34.94-2.54.92-39.59,14.39q-16.68,6.06-33.33,12.19Z"/><path class="cls-2" d="M200.43,250.91c-.44.16-.84.36-1.26.54-.32-.89-.71-1.75-1-2.64L142.74,96.37,303.51,37.94l.43,1.35L144.57,97.22Z"/><path class="cls-2" d="M381.89,9.45l70.8,194.79c.32.89.59,1.79.9,2.69l-1.31.38-71.23-196L305.54,38.76l-.68-1.27Z"/><path class="cls-3" d="M304.84,37.45l.7,1.31c.3.82.49,1.67.79,2.49l27.32,75.18L312.73,124l-1.57-1,20.58-7.48L306.61,46.38c-.87-2.38-1.77-4.68-2.67-7.09l-.43-1.35Z"/><path class="cls-4" d="M474.5,703.92l-.53-1.46,1.32-.6c.8-.3,1.65-.51,2.46-.8l79-28.7-22.83-62.8-81.38,29.58-.58-1.61,81.46-29.61L513.77,554,432.3,583.61l.9,2.47,13.53,37.46-1.26.46-15.1-41.54,82.91-30.14-4.78-13.15q-5-13.81-10.14-27.56l-.2-1.52,1.29-.47.69,1.3c.22.76.41,1.52.68,2.26l114,313.6,13.31-4.84.68,1.39-13.45,4.89,4,11.12c.44,1.22.53,1.94-1,2.5q-39.89,14.37-79.71,28.88c-.58.21-1.14.51-1.72.77l-1.42.32-.54-1.49a12.25,12.25,0,0,0,1.26-.62c.46-.1.92-.22,1.37-.36l78.75-28.62a11.3,11.3,0,0,0,1.34-.69l-19.43-53.45-2.51.91-61.62,22.4c-5.78,2.1-11.56,4.2-17.32,6.38-.44.16-.89.26-1.33.38l-.51-1.39c.41-.22.84-.43,1.26-.63a7.68,7.68,0,0,1,1.14-.32l78.74-28.62a11.69,11.69,0,0,0,1.55-.65,14.19,14.19,0,0,0-.35-1.43l-18.44-50.76a6.57,6.57,0,0,0-1.18-1.5l-.39-1.09a11.8,11.8,0,0,0-.31-2.57L558.22,676l-.81-2.23-2.82,1-67.23,24.44c-3.86,1.4-7.71,2.8-11.55,4.28Z"/><path class="cls-3" d="M575.83,481.87l1.27-.46.72,1.32c.19.52.28,1.07.46,1.59l23,63.26c.17.49.41,1,.66,1.54l82.45-30,.51,1.4-82.43,30,22.67,62.38,82.41-30,.53,1.44-82.4,30L638.9,650.7l82.4-30,.52,1.44-82.4,29.95,37.83,104.09,82.4-30,.53,1.45-82.41,29.95L692.5,798.2l82.43-30,.51,1.41-82.41,30,14.06,38.68,42.49-15.44,16.27,44.74-1.59.45c-.19-.51-.28-1.07-.46-1.58l-14.57-40.08c-.18-.5-.42-1-.72-1.65l-42.62,15.49-14.52-40L675.65,806l-.44-1.52L691,798.72,577.26,485.84c-.32-.89-.7-1.77-1-2.64Z"/><path class="cls-5" d="M684.89,520.5l-.51-1.4c-.11-.3-.15-.61-.26-.91l-23.23-63.91c-.18-.49-.42-1-.7-1.57l-82.38,29.94-.73-1.32q28.38-10.31,56.74-20.7l27.32-9.93L807.75,854.09,684.23,899l-.29-1.64,79.3-28.82a10.24,10.24,0,0,0,1-.52l1.59-.45L805.82,853l-21.58-59.38c-2.92-8-5.86-16-8.8-24l-.52-1.41-14.73-40.53-.52-1.45c-.27-.73-.44-1.51-.71-2.25l-36.21-99.62c-.27-.75-.6-1.47-.91-2.2l-14.28-39.31Z"/><path class="cls-6" d="M452.28,207.31l1.31-.38.47,1.3-1.25.54c-.29.1-.62.14-.91.25l-73.23,26.62a9.8,9.8,0,0,0-1.33.68l14.84,40.81,2.5-.91,39.62-14.4q16.69-6.08,33.36-12.2c.42-.15.87-.25,1.3-.39l.49,1.34c-.42.16-.84.36-1.25.54a6,6,0,0,1-.91.26L394.11,278a13.13,13.13,0,0,0-1.36.66l14.81,40.75,73.31-26.64c.75-.27,1.45-.6,2.19-.9l1.33-.34.51,1.39c-.43.16-.84.37-1.25.54a8.6,8.6,0,0,1-.91.26l-73.27,26.63c-.46.2-.92.42-1.36.66l14.82,40.76,2.52-.91,70.74-25.71c.74-.27,1.45-.6,2.18-.9l1.34-.34.49,1.36-1.23.55c-.3.1-.63.13-.92.24l-73.23,26.61a11.92,11.92,0,0,0-1.37.72c.14.37.15.61.23.83l55.46,152.6-1.31.66-.16-.44L406.1,320.25l-45.43-125a11.26,11.26,0,0,0-.61-1.26l-17,6.19a15,15,0,0,1-2.2.43l-.61-1L361.32,192c4.86,14.67,10.34,28.64,15.36,42.9l2.7-1,45.37-16.49Z"/><path class="cls-7" d="M451.93,637.53l.58,1.6,22.8,62.72-1.32.6-27.67-76.12-97.94,35.59c-.24-.65-.5-1.11-.68-1.61L318,578.54a8.78,8.78,0,0,1-.41-1.35l1.3-.37L349.1,660l2.61-.94,70.53-25.64c.82-.3,1.62-.65,2.41-1l1.43-.52c6.1-2.22,12.25-4.37,18.3-6.65.45-.17.73-.93,1-1.43l1.26-.46Z"/><path class="cls-8" d="M535.5,871.78l1.42-.32,25.43,70c.58-.21,1-.25,1.33-.38L682.1,898l.85,1.47L561.71,943.54a4.1,4.1,0,0,1-.56-.86Z"/><path class="cls-7" d="M499,335.8l1.24-.54c.32.89.71,1.76,1,2.64L556.19,489l19.64-7.14.37,1.35-76.12,27.67-.69-1.3,55.45-20.16Z"/><path class="cls-9" d="M683,899.45l-.85-1.47a5.63,5.63,0,0,0-.14-.69L652.07,815l1.69-.62.48,1.34,29,79.88c.21.59.49,1.15.74,1.73l.29,1.64Z"/><path class="cls-10" d="M577.29,730.26l.4,1.09c-.8.34-1.58.71-2.39,1L513,755c-5.42,2-10.82,4-16.22,6l-1.29.38-.48-1.33,1.23-.54c.82-.29,1.65-.52,2.47-.81L574.79,731C575.65,730.72,576.46,730.51,577.29,730.26Z"/><path class="cls-2" d="M290.13,497.72l-1.24.6q-9.43-25.93-18.91-51.85l-8.82-24.27,1.29-.47Z"/><path class="cls-2" d="M496.19,759.52l-1.23.53-15.63-42.76-4.85-13.36a9.26,9.26,0,0,1,1.33-.41Z"/><path class="cls-2" d="M495.44,761.36l1.28-.38,19.5,53.64c-.43.21-.85.41-1.26.63Z"/><path class="cls-2" d="M536.23,869.66a13.3,13.3,0,0,0-1.25.63l-19.49-53.64c.43-.16.88-.25,1.33-.38Z"/><path class="cls-2" d="M452.82,208.8l1.24-.57,14.9,41-1.3.39Z"/><path class="cls-2" d="M484.36,291.55l-1.34.34-14.81-40.75c.43-.15.84-.35,1.25-.54Z"/><path class="cls-2" d="M499.74,333.89a12.35,12.35,0,0,1-1.33.34L483.6,293.48c.42-.15.84-.35,1.25-.54Z"/><path class="cls-2" d="M289.4,499.68l1.29-.37L305,538.73l-1.24.6Z"/><path class="cls-2" d="M318.31,575.27c-.43.16-.82.4-1.24.6L304.3,540.72l1.31-.39Z"/><path class="cls-11" d="M296.84,215.36l-28-77L311.16,123l1.55,1,27.49,75.65.61,1c-.34.42-.6,1.08-1,1.23-1.21.44-2.56.49-3.78.93q-17.55,6.31-35,12.74c-1.21.44-2.41.87-3.58,1.37Zm5.34-51.88-2.89-7.95-16.76,6.09a17.74,17.74,0,0,1-2.21.81.89.89,0,0,1-.86-.42,1,1,0,0,1,.34-.9,10.29,10.29,0,0,1,1.76-.71l37.68-13.69-8-22.12-40.41,14.69,11.43,31.46a5.86,5.86,0,0,0,1.77-.09q8.47-3,16.82-6.11a6.4,6.4,0,0,0,1.41-1.07Zm-3.84,51.34,40.35-14.67-9-24.68-40.35,14.67Zm-12.52-34.43,19.79-7.19-2.91-8-19.82,7.2Zm37.5-22.72-19,6.89,2.93,8.08,18.92-6.88Zm-3.42-9.4-19,6.89,2.8,7.69,19-6.89Zm-11.26,33.16-2.39-6.58L286.51,182l2.39,6.58Zm1.51-.6,18.94-6.89-2.36-6.5-19,6.89Z"/><path class="cls-2" d="M231.75,337.09l30.19,83.08-1.3.54L230.8,338.6c-.14-.36-.23-.76-.34-1.13Z"/><path class="cls-2" d="M201,252.52l14.8,40.73-1.25.54-14.88-40.94Z"/><path class="cls-2" d="M216.36,294.75l14.84,40.84c-.43.16-.83.37-1.25.54L215,295.1C215.49,295,215.91,294.88,216.36,294.75Z"/><path class="cls-12" d="M652,815l-23.24,8.31-.68-1.39q-15.25-42-30.44-84a6.75,6.75,0,0,1,.09-2.16L644.16,719l31.07,85.49.45,1.52a18.74,18.74,0,0,1-2.21,1.18c-6.58,2.39-13.16,4.78-19.71,7.24Zm10.71-39.57-43.93,16,10.87,29.91,43.92-16Zm-54.13-11.93,43.92-16-9.63-26.48L599,737Zm6.46,17.79,21.83-7.93-2.81-7.72-21.8,7.93Zm41.22-23.66-20.46,7.44,2.8,7.7,20.45-7.43Zm-40.44,25.53,2.39,6.58,21.66-7.87-2.39-6.58Zm15.27-25.68-21.79,7.92,2.37,6.53,21.8-7.92Zm4,5.92L655.64,756l-2.37-6.53-20.45,7.44Zm24.6,3.9-20.4,7.42,2.34,6.44,20.41-7.42Z"/><path class="cls-13" d="M479.19,516.79,498.13,510l.2,1.52L480,518.22c-.94.35-2,1-2.12-.78Z"/><path class="cls-13" d="M363.84,399.16,407,383.46l51.73,142.33-43.18,15.69ZM456.68,525,406,385.63l-40.27,14.63,50.64,139.35Z"/><path class="cls-11" d="M312.63,258.22l43.14-15.68,46.57,128.12L359.2,386.34Zm87.7,111.63-30.17-83-40.32,14.66,30.17,83Zm-71.09-69.92,40.35-14.67-14.81-40.77-40.36,14.67Z"/><path class="cls-8" d="M282.22,170.74l20-7.27a6.4,6.4,0,0,1-1.41,1.07q-8.44,3.12-16.82,6.11A5.86,5.86,0,0,1,282.22,170.74Z"/><path class="cls-14" d="M577.42,545.06,624.07,673.4l-45.83,16.66L531.59,561.71Zm13.65,42.71-14.69-40.41-42.66,15.51,14.69,40.41Zm-27.28,57.8,42.58-15.48-14.78-40.66L549,604.9Zm43.29-13.79-42.65,15.51,14.74,40.55,42.65-15.5Z"/></svg>