<svg id="Layer_1" data-name="Layer 1" xmlns="http://www.w3.org/2000/svg" viewBox="0 0 950 950"><defs><style>.cls-1{fill:#292a29;}.cls-2{fill:#e94a44;}.cls-3{fill:#e73731;}.cls-4{fill:#e62e28;}.cls-5{fill:#e52922;}.cls-6{fill:#201f1e;}.cls-7{fill:#0a0c0c;}.cls-8{fill:#171818;}.cls-9{fill:#232322;}.cls-10{fill:#e6322f;}.cls-11{fill:#e83e3f;}.cls-12{fill:#3e3d3c;}.cls-13{fill:#020202;}.cls-14{fill:#e83b3a;}.cls-15{fill:#e94646;}.cls-16{fill:#e83d38;}.cls-17{fill:#c55642;}.cls-18{fill:#515151;}</style></defs><path class="cls-1" d="M718.24,875.5l-1.39.51-.6-1.29c-.13-.36-.19-.75-.31-1.11l-29.13-80.2c-.19-.44-.39-.88-.62-1.3l-15.56,5.65a5.06,5.06,0,0,1-1.82-.1l0,.06-.1-1,1.59-.66,15.46-5.61L575,485.27c-.29-.8-.63-1.57-1-2.35-.23-1.06-.45-2-2-1.42-5.41,2.05-10.85,4-16.29,6.06-.16.13-.33.27-.51.4a13.33,13.33,0,0,0,2-.39l97.44-35.39a16.3,16.3,0,0,0,2.5-1.43l.16.44a6.19,6.19,0,0,0-1.92.09l-78.87,28.64c-1.47.53-1.85,1.2-.91,2.46a10.06,10.06,0,0,0,.3,1.11l41,112.9c.2.55.45,1.1.73,1.79.85-.31,1.59-.46,2.29-.72l76.65-27.83c.64-.24,1.27-.53,1.92-.81l1.38-.28.49,1.35-1.28.53c-.36.13-.75.18-1.11.31l-78.2,28.4a15.57,15.57,0,0,0-1.53.72l14.39,39.62c.74-.27,1.41-.4,2.06-.64l77.08-28c.58-.21,1.12-.5,1.68-.76l1.31-.47.63,1.75c-.43.15-.86.36-1.28.54s-.76.17-1.11.3l-78.19,28.4c-.54.2-1.05.5-1.52.72l39.4,108.51c.75-.27,1.42-.41,2.06-.64l77.07-28c.59-.21,1.13-.51,1.69-.76l1.3-.48.63,1.74a9.61,9.61,0,0,0-1.29.55,6,6,0,0,1-1.11.3L674.86,751c-.55.2-1,.49-1.62.77l43.93,120.94c.18.5.42,1,.64,1.49Z"/><path class="cls-2" d="M204.64,256.28c-.29-.8-.63-1.59-.92-2.38L149.79,105.39l-.4-1.09L307.2,47l.53,1.7L153,104.87a16.48,16.48,0,0,0-1.64.79l26.88,74-.6,1.28,1.28.6,26.94,74.16Z"/><path class="cls-3" d="M383.92,19.1l69.89,192.43c.1.3.16.6.23.9l-1.28.37L383.18,21.21l-74,26.88-.67-1.59Z"/><path class="cls-4" d="M718.24,875.5l-.42-1.35,80.84-29.35L754.15,722.25a8.62,8.62,0,0,0,1.29-.55L800.6,846.05c-1.18.3-2.4.51-3.55.91l-76.21,27.68C720,874.92,719.18,875.18,718.24,875.5Z"/><path class="cls-5" d="M575.58,482.35c-1-1.28-.56-1.92.91-2.46l78.87-28.64a6.87,6.87,0,0,1,1.92-.09L699.9,568.54l-1.38.28L656.45,453Z"/><path class="cls-5" d="M714.15,611.84a10.21,10.21,0,0,0,1.28-.54l39.46,108.64-1.31.47Z"/><path class="cls-6" d="M308.5,46.49l.67,1.61c.29.8.52,1.61.81,2.41L336.67,124l-6.16,2.24c-4.78,1.74-9.54,3.57-14.31,5.36l-1.39.5a1.2,1.2,0,0,1-.38,0l-.54-1.49,21-7.61L327,101.39Q317.42,75,307.78,48.64l-.53-1.7Z"/><path class="cls-5" d="M714.8,609.55l-1.31.48-14.4-39.67,1.28-.53Z"/><path class="cls-7" d="M452.78,212.8l1.28-.37.48,1.34c-.41.15-.8.39-1.2.57s-1,.28-1.55.46l-71,25.8c-.48.17-.91.42-1.38.63l14.51,39.94,2.3-.84,69.56-25.26c.72-.26,1.42-.58,2.13-.87l1.19-.33.49,1.33-1.21.59a12.24,12.24,0,0,1-1.33.37l-71.43,25.95c-.41.15-.8.36-1.18.54l14.51,40,50.88-18.48q11.54-4.19,23.05-8.45l1.27-.37.49,1.36c-.41.15-.8.39-1.2.58a13.65,13.65,0,0,1-1.33.37l-71.44,25.95c-.41.15-.8.37-1.17.54L424,364.05l50.87-18.48c7.69-2.79,15.37-5.63,23.06-8.45.41-.15.84-.25,1.26-.38l.48,1.32-1.22.52c-.35.13-.74.19-1.1.32L425.45,365c-.35.13-.67.3-1.05.47.15.41.19.72.28,1L478.93,515.8l-1.21.56c-.34-.94-.76-1.85-1.1-2.79L363,200.57l-.44-1.21c1.74-1.7,1.55.4,1.76,1,4.55,12.34,9,24.72,13.47,37.08l.87,2.4,71.72-26C451.21,213.48,452,213.12,452.78,212.8Z"/><path class="cls-5" d="M477.74,516.35l1.21-.56c.3-.11.61-.16.9-.27l71.7-26c.49-.22,1-.46,1.45-.72L498.46,338.58l1.21-.52c.31.86.7,1.71,1,2.59l52.5,144.55a6.78,6.78,0,0,0,.87,2.12c.28.33,1.13.18,1.69.25,5.46-2,10.88-4,16.3-6.08,1.49-.54,1.72.38,2,1.42l-93.26,33.87a4.9,4.9,0,0,1-1.74.58C478.57,517.31,478.16,516.71,477.74,516.35Z"/><path class="cls-5" d="M469.07,253.87l-1.26.37-14.48-39.89c.41-.15.8-.39,1.2-.58Z"/><path class="cls-5" d="M468.39,255.79c.4-.19.81-.38,1.2-.58l14.56,40.09a6.86,6.86,0,0,1-1.27.37Z"/><path class="cls-5" d="M499.17,336.75l-1.26.38-14.49-39.89c.42-.15.81-.39,1.21-.57Z"/><path class="cls-8" d="M204.64,256.28a12.14,12.14,0,0,0,1.2-.59c.59-.16,1.2-.28,1.78-.49l70.81-25.71,1.57-.57-12.35-34L253.22,155c2-.74,1.67,1.18,2,2q29,79.56,57.81,159.17L425.31,625.39a9.37,9.37,0,0,1,.72,2.19c0,.39-.52.82-.81,1.24l-29.48-81.17-32.89,12q-20.61,7.49-41.17,15a.46.46,0,0,0-.41.15l-.5.18a.66.66,0,0,0-.37,0l-.5-1.38a11.85,11.85,0,0,0,1.19-.58c.4-.19,1.05-.27,1.56-.46l71-25.79c.48-.17.92-.4,1.4-.6l-27-74.41L322,488.52q-14,5.06-27.86,10.19l-1.24.38-.48-1.33a1,1,0,0,0,.34-.2l.86-.31c.44-.16.9-.25,1.33-.41l71.44-25.94c.41-.15.81-.35,1.18-.52L339,391.69a3.84,3.84,0,0,0-.59.11l-72.77,26.43a4.42,4.42,0,0,0-.61.32l-1.26-.55.7-1c.43-.16.9-.22,1.34-.38l71.43-25.94c.41-.15.8-.35,1.19-.52l-28-77c-.27.06-.54.13-.8.21L237.09,339.7a4,4,0,0,0-.61.33c-.42.15-.87.21-1.29.32l-.5-1.35c.41-.15.8-.34,1.19-.51s.9-.23,1.33-.39l71.44-25.94a8.36,8.36,0,0,0,1.19-.51l-14.51-40c-.41.15-.72.2-1,.31l-72.14,26.19a9.12,9.12,0,0,0-.83.41l-1.28.33-.49-1.36a6.47,6.47,0,0,0,1.18-.51,9,9,0,0,1,1.33-.39l71.49-26c.42-.15.8-.35,1.17-.52L280.3,230.37l-1.21.44L207.82,256.7a14.92,14.92,0,0,0-1.46.68l-1.28.32Z"/><path class="cls-9" d="M514.06,809.27l-.52-1.42,1.27-.71c.67-.19,1.35-.33,2-.57l76.42-27.75c.55-.2,1.07-.46,1.77-.75L554.89,667.64c-.29-.79-.63-1.57-.92-2.37L527.9,593.49l-2.37.86L477,612q-14.59,5.29-29.17,10.65l-2.43-.83-15-41.4,8.64-3.14,71.25-25.88a7.64,7.64,0,0,0,1.93-1.08,8.82,8.82,0,0,0,1.07-1.21,9.79,9.79,0,0,1,1.5,2.06c.28.78,0,1.76.34,2.55l95,261.67c.28.76.62,1.5.94,2.26l13.84-5,1.48-.54a1.2,1.2,0,0,1,.22.23l.35,1.52-15.4,5.59,28,77c.65,1.82,1.36,3.62,2,5.43l-1.49.54-.32-.87L596,781.14c-.15-.42-.34-.81-.57-1.35l-2.5.91-73.42,26.66c-1.38.51-2.74,1.06-4.1,1.59Zm-67.21-188,80.43-29.21-14.5-39.94-80.43,29.21Z"/><path class="cls-10" d="M514.06,809.27l1.39-.34,44.46,122.4a7.54,7.54,0,0,0,.81-.12l79.33-28.81,1.5-.55,36-13.05.59,1.26c-.87.32-1.72.7-2.59,1L563.09,931.9l-4,1.46L515,811.9C514.65,811,514.35,810.15,514.06,809.27Z"/><path class="cls-4" d="M445.36,621.83l2.43.83,26.9,74.09-1.31.6-27-74.33-20.55,7.46a15.7,15.7,0,0,0-2.42.48l-69.5,25.25a17.6,17.6,0,0,0-2.19,1.16c-1.52,1-1.59-.24-1.81-1.21a12.13,12.13,0,0,0-.35-2L320.79,575l.49-.18L350.05,654a11.06,11.06,0,0,0,1,1.75,16.53,16.53,0,0,0,2.4-.51L398.33,639q13.49-4.9,27-9.87l1.53-.56Z"/><path class="cls-11" d="M293.61,497.25l-.43.16-28.33-78-.51.19,28.33,78a.83.83,0,0,1-.34.2c-.21-.57-.48-1.14-.69-1.72L235.49,341.46a8.24,8.24,0,0,1-.34-1.1,13,13,0,0,1,1.3-.32l27.95,77-.7,1c.41.19.83.37,1.27.55Z"/><path class="cls-12" d="M473.4,697.35l1.31-.61c.87-.31,1.78-.51,2.65-.82l74.52-27.06c1-.37,2-.81,3-1.22l.63,1.72-10.34,3.76-61.1,22.18c-2.9,1.06-5.78,2.16-8.67,3.24A9.55,9.55,0,0,1,474,699Z"/><path class="cls-6" d="M678.09,890.08l-.58-1.27c-.29-.79-.5-1.62-.79-2.42l-29-80c2-1.15,1.79.78,2.1,1.62q14.07,38.58,28,77.21c.26.71.61,1.39.92,2.09l.51.87.36,1.37Z"/><path class="cls-13" d="M494.45,755.24,494,754l1.28-.56c.88-.32,1.77-.57,2.64-.89l74.67-27.11c.79-.29,1.61-.46,2.42-.69l.34.94c-.76.35-1.51.74-2.3,1l-62.47,22.69c-4.94,1.8-9.87,3.59-14.78,5.46A7.46,7.46,0,0,1,494.45,755.24Z"/><path class="cls-14" d="M321.14,573.05a10.89,10.89,0,0,0-1.19.58l-27.07-74.54a8.49,8.49,0,0,1,1.24-.38Z"/><path class="cls-10" d="M495.27,753.4,494,754l-20-55c.46-.16,1-.29,1.39-.42Z"/><path class="cls-10" d="M494.45,755.24l1.35-.39,19,52.29-1.27.72Z"/><path class="cls-14" d="M235.9,338.48c-.4.15-.79.34-1.19.51L220.15,298.9c.42-.15.86-.22,1.29-.33Z"/><path class="cls-14" d="M220.85,297a7.4,7.4,0,0,0-1.19.52l-14.48-39.87,1.28-.32Z"/><path class="cls-10" d="M679.64,889.53l-.36-1.37,37-13.44.6,1.28Z"/><path class="cls-15" d="M320.77,575l28.77,79.2a10.61,10.61,0,0,1,.35,2c-.28-.79-.66-1.55-.95-2.35L321.2,577.43c-.29-.8-.58-1.6-.81-2.41A.71.71,0,0,1,320.77,575Z"/><path class="cls-15" d="M351.76,657.35a18.28,18.28,0,0,1,2.18-1.17l69.51-25.24a15.26,15.26,0,0,1,2.42-.49q-30,10.9-60,21.85C361.19,654,356.47,655.67,351.76,657.35Z"/><path class="cls-16" d="M668.79,796.64l-10.1-27.8-42.45,15.42,10.12,27.86-1.48.54L595,730.32l45.55-16.55L670.4,796A16.19,16.19,0,0,0,668.79,796.64ZM597.06,731l9.41,25.9,42.19-15.33-9.4-25.89Zm33.37,28.31L610,766.7l2.77,7.62,20.44-7.42Zm21.81-7.92-20,7.27,2.77,7.64L655,759Zm-36.56,31.17,20.42-7.41-2.36-6.49L613.38,776Zm-6.34-17.45,20.42-7.41-2.35-6.48-20.36,7.39Zm39.89-21.8-20,7.24,2.36,6.49,20-7.26Zm6.32,17.41-19.95,7.25,2.37,6.54,20-7.27Z"/><path class="cls-17" d="M626.58,812.34q19.86-7.2,39.76-14.33a13.52,13.52,0,0,1,2.54-.36l0,0a6.93,6.93,0,0,1-1.76,1.61c-5.13,1.94-10.34,3.75-15.46,5.61l-2.37.86L678,884.88c.29.79.49,1.61.73,2.41-.31-.7-.66-1.38-.92-2.08l-28-77.22c-.3-.84-.12-2.76-2.1-1.62q-10.34,3.75-20.7,7.43Z"/><path class="cls-18" d="M253.22,155a4.87,4.87,0,0,0-1.66,0l-72,26.16a3.51,3.51,0,0,0-.6.33l-1.28-.6.6-1.28c.86-.31,1.77-.51,2.63-.83l92-33.42.44,1.59-19,6.89L426.78,628.53l-1.53.55a.25.25,0,0,1,0-.31c.28-.41.84-.84.8-1.23a8.4,8.4,0,0,0-.72-2.19L313,316.11,255.22,156.93C254.86,156.17,255.23,154.26,253.22,155Z"/><path class="cls-3" d="M314.42,132.11l-39.56,14.37.93,2.56,9.34,25.71a23.31,23.31,0,0,0,1.09,2.25.2.2,0,0,0,.28,0,9.41,9.41,0,0,0,1.76-.32L303.94,171a8.6,8.6,0,0,0,1.48-.9l-2.69-7.41a13.39,13.39,0,0,0-2.15.42l-15,5.46-2.1.76-.49-.88a10.55,10.55,0,0,1,1.94-1.22l35-12.72,2.62-1-7.78-21.43,1.4-.51,27.08,74.56-1.42.51-9-24.73-39.75,14.44,9,24.78,2.46-.9q18.29-6.63,36.6-13.2l.44,1.21L301.09,223l-26.63-73.31c-.31-.87-.69-1.72-1-2.57l-.44-1.6,40.88-14.85Zm8.64,23-18.57,6.74,2.82,7.77,18.57-6.74Zm-16.85,16.76-19.38,7,2.76,7.62,19.38-7Zm4.42,7,18.57-6.74-2.78-7.64-18.56,6.74ZM292.5,194.73,312,187.67l-2.39-6.58-19.45,7.06Zm21.08-7.66,18.58-6.75-2.38-6.58-18.59,6.75Z"/><path class="cls-6" d="M341.57,208.27l-.44-1.21.67-.38,1.43-.52,19.29-6.81.44,1.21Z"/><path class="cls-15" d="M321.71,574.62l28.5,78.47c.32.87.64,1.75.89,2.63a10.62,10.62,0,0,1-1-1.75l-28.77-79.22A.5.5,0,0,1,321.71,574.62Z"/><path class="cls-5" d="M292.67,497.59l-28.33-78,.43-.16,28.34,78Z"/><path class="cls-12" d="M576,725.64l-.6,0-.34-.94.48-.36Z"/><path class="cls-2" d="M620.67,668.87l-45,16.35L530.11,559.79l45-16.35Zm-32.2-83.69L574.13,545.7l-41.81,15.19,14.33,39.48Zm15.06,41.46L589.09,586.9l-41.78,15.17,14.45,39.77Zm.62,1.71-41.8,15.18,14.4,39.66L618.58,668Z"/><path class="cls-10" d="M365.71,400.65l42.43-15.41,50.63,139.41-42.43,15.41Zm2,1.18,49.47,136.24,39.65-14.4L407.39,387.43Z"/><path class="cls-4" d="M403.61,372.83l-42.44,15.41L315.61,262.79l42.44-15.42Zm-1.69-.82-29.51-81.24L332.67,305.2l29.51,81.24ZM332,303.54l39.74-14.43L357.29,249.3l-39.74,14.43Z"/></svg>