<?xml version="1.0" encoding="utf-8"?>
<!-- Generator: Adobe Illustrator 25.2.1, SVG Export Plug-In . SVG Version: 6.00 Build 0)  -->
<svg version="1.1" id="Layer_1" xmlns="http://www.w3.org/2000/svg" xmlns:xlink="http://www.w3.org/1999/xlink" x="0px" y="0px"
	 viewBox="0 0 652.9 705" style="enable-background:new 0 0 652.9 705;" xml:space="preserve">
<style type="text/css">
	.st0{clip-path:url(#SVGID_4_);}
	.st1{fill:none;stroke:#020203;stroke-width:0.25;stroke-linecap:round;stroke-linejoin:round;}
	.st2{clip-path:url(#SVGID_6_);}
	.st3{fill:none;stroke:#020203;stroke-width:0.15;stroke-linecap:round;stroke-linejoin:round;}
	.st4{clip-path:url(#SVGID_8_);}
	.st5{clip-path:url(#SVGID_10_);}
	.st6{clip-path:url(#SVGID_12_);}
	.st7{clip-path:url(#SVGID_14_);}
	.st8{clip-path:url(#SVGID_16_);}
	.st9{clip-path:url(#SVGID_18_);}
	.st10{clip-path:url(#SVGID_20_);}
	.st11{clip-path:url(#SVGID_22_);}
	.st12{fill:none;stroke:#020203;stroke-width:0.1;stroke-linecap:round;stroke-linejoin:round;}
	.st13{clip-path:url(#SVGID_24_);}
</style>
<g>
	<g>
		<defs>
			
				<rect id="SVGID_1_" x="35.4" y="-53.2" transform="matrix(0.7257 -0.688 0.688 0.7257 -146.6047 325.8686)" width="600" height="800"/>
		</defs>
		<clipPath id="SVGID_2_">
			<use xlink:href="#SVGID_1_"  style="overflow:visible;"/>
		</clipPath>
	</g>
	<g>
		<defs>
			
				<rect id="SVGID_3_" x="35.4" y="-53.2" transform="matrix(0.7257 -0.688 0.688 0.7257 -146.6047 325.8686)" width="600" height="800"/>
		</defs>
		<clipPath id="SVGID_4_">
			<use xlink:href="#SVGID_3_"  style="overflow:visible;"/>
		</clipPath>
		<g class="st0">
			<polyline class="st1" points="258.9,227.3 269.9,238.9 247.1,260.5 236.1,248.9 258.9,227.3 			"/>
			<line class="st1" x1="427.5" y1="487.7" x2="427.5" y2="487.7"/>
			<line class="st1" x1="427.5" y1="487.7" x2="427.5" y2="487.7"/>
			<line class="st1" x1="427.5" y1="487.7" x2="427.5" y2="487.7"/>
			<line class="st1" x1="417.6" y1="477.3" x2="417.6" y2="477.3"/>
			<line class="st1" x1="417.6" y1="477.3" x2="417.6" y2="477.3"/>
			<line class="st1" x1="417.6" y1="477.3" x2="417.6" y2="477.3"/>
			<polyline class="st1" points="417.6,477.3 427.5,487.7 430,490.4 412.6,506.8 392.6,485.7 410,469.2 417.6,477.3 			"/>
			<polyline class="st1" points="199.2,281.2 172.5,253.1 195.3,254 200.2,259.2 226.2,234.5 221.3,229.3 195.3,254 172.5,253.1 
				230.9,197.7 257.6,225.9 199.2,281.2 			"/>
			<line class="st1" x1="373.1" y1="433.8" x2="373.1" y2="433.8"/>
			<polyline class="st1" points="373.1,433.8 432.6,377.3 430.6,410.1 405.2,434.2 408.2,437.4 433.6,413.3 430.6,410.1 
				432.6,377.3 466.5,413 391.5,484.1 357.7,448.4 358.6,447.5 357.7,446.6 372.2,432.9 373.1,433.8 			"/>
			<polyline class="st1" points="341.7,276.3 340.4,274.9 338.9,276.2 338.6,275.9 338.3,276.2 330.9,268.4 331.2,268.1 
				330.9,267.8 330.8,267.9 308.9,244.7 352.5,203.3 352.2,203 360.3,195.3 360.6,195.6 361.1,195.2 389.3,224.9 390.2,225.9 
				390.1,227.7 387.3,230.4 388.6,231.8 341.7,276.3 			"/>
			<polyline class="st1" points="219.4,301.5 240.1,281.9 239.2,281 237.3,282.7 232.3,277.4 242.5,267.8 247.5,273.1 245.6,274.8 
				246.3,275.5 248.1,273.7 255,280.9 255.9,280.1 244.5,268 250.8,262 249.7,260.9 258.4,252.6 281.2,276.7 266.2,290.9 
				264.1,288.7 263.2,289.6 265.2,291.8 238.6,317 236.6,314.9 234.3,317.1 219.4,301.5 219.4,301.5 			"/>
			<polyline class="st1" points="201.6,282.7 219.5,265.8 234.8,281.9 228.4,287.9 230,289.6 218.5,300.5 201.6,282.7 201.6,282.7 
							"/>
			<line class="st1" x1="226.1" y1="270.9" x2="225.8" y2="271.3"/>
			<line class="st1" x1="225.8" y1="271.3" x2="225.6" y2="271.2"/>
			<line class="st1" x1="225.1" y1="271.7" x2="225.6" y2="272.3"/>
			<line class="st1" x1="225.6" y1="271.2" x2="225.1" y2="271.7"/>
			<line class="st1" x1="226.5" y1="271.4" x2="226.1" y2="270.9"/>
			<line class="st1" x1="225.6" y1="272.3" x2="226.5" y2="271.4"/>
			<line class="st1" x1="221.1" y1="265.6" x2="220.7" y2="265.2"/>
			<line class="st1" x1="220.7" y1="265.2" x2="220.3" y2="265.6"/>
			<line class="st1" x1="220.3" y1="265.6" x2="220.5" y2="265.7"/>
			<line class="st1" x1="219.9" y1="266.2" x2="219.4" y2="265.7"/>
			<line class="st1" x1="220.5" y1="265.7" x2="219.9" y2="266.2"/>
			<line class="st1" x1="220.3" y1="264.8" x2="220.7" y2="265.2"/>
			<line class="st1" x1="219.4" y1="265.7" x2="220.3" y2="264.8"/>
			<line class="st1" x1="225.6" y1="272.3" x2="226.5" y2="271.4"/>
			<line class="st1" x1="219.4" y1="265.7" x2="220.3" y2="264.8"/>
			<line class="st1" x1="224.6" y1="308" x2="225.1" y2="307.5"/>
			<line class="st1" x1="233.6" y1="317.6" x2="234.2" y2="317"/>
			<line class="st1" x1="98.8" y1="213.7" x2="98.8" y2="213.7"/>
			<polyline class="st1" points="98.8,213.7 176.2,140.3 147.8,110.3 164.9,94.2 149.5,77.9 147.9,79.4 144.4,75.7 55.2,160.2 
				58.7,164 55,167.5 98.8,213.7 			"/>
			<polyline class="st1" points="200,284.9 201.8,286.8 203.2,285.5 201.4,283.6 			"/>
			<line class="st1" x1="161.4" y1="124.6" x2="162.3" y2="123.7"/>
			<line class="st1" x1="152.3" y1="115" x2="153.2" y2="114.1"/>
			<line class="st1" x1="243.1" y1="258.1" x2="243.1" y2="258.1"/>
			<line class="st1" x1="235.2" y1="249.8" x2="235.2" y2="249.8"/>
			<line class="st1" x1="235.2" y1="249.8" x2="235.2" y2="249.8"/>
			<polyline class="st1" points="235.2,249.8 219.9,264.3 227.8,272.7 243.1,258.1 235.2,249.8 			"/>
			<line class="st1" x1="388.3" y1="328.3" x2="388.3" y2="328.3"/>
			<polyline class="st1" points="388.3,328.3 387.9,328.6 388.1,328.7 387.7,329 387.6,328.9 387.4,329.1 387.1,328.8 387.2,328.7 
				387.4,328.8 388,328.2 387.9,328 387.9,328 388.3,328.3 			"/>
			<line class="st1" x1="166.4" y1="282.2" x2="167.3" y2="281.3"/>
			<polyline class="st1" points="392.5,617.5 391.2,616.1 438.1,571.6 439.5,573 440.9,571.7 505,639.3 452.9,688.7 388.8,621.1 
				392.5,617.5 			"/>
			<polyline class="st1" points="206.4,294.1 206.4,294 206.4,294 206.5,294 206.5,294 206.5,294 206.5,294 206.5,293.9 
				206.5,293.9 206.5,293.9 			"/>
			<polyline class="st1" points="205,290.6 205,290.6 205,290.5 204.9,290.5 204.9,290.5 204.9,290.5 204.9,290.5 204.8,290.5 
				204.8,290.5 			"/>
			<polyline class="st1" points="206.7,294.4 206.7,294.3 206.8,294.3 206.8,294.2 206.9,294.2 206.9,294.1 206.9,294 206.9,294 
				206.9,293.9 206.9,293.8 			"/>
			<polyline class="st1" points="205.3,290.3 205.2,290.2 205.2,290.2 205.1,290.1 205.1,290.1 205,290.1 204.9,290.1 204.8,290.1 
				204.8,290.1 			"/>
			<line class="st1" x1="206.7" y1="294.4" x2="206.1" y2="294.6"/>
			<line class="st1" x1="204.8" y1="290.1" x2="204.2" y2="290.4"/>
			<line class="st1" x1="206.4" y1="294.1" x2="205.9" y2="294.3"/>
			<line class="st1" x1="204.8" y1="290.5" x2="204.3" y2="290.7"/>
			<line class="st1" x1="205" y1="290.6" x2="206.5" y2="293.9"/>
			<line class="st1" x1="205.3" y1="290.3" x2="206.9" y2="293.8"/>
			<line class="st1" x1="294.5" y1="417.2" x2="294.5" y2="417.2"/>
			<polyline class="st1" points="294.5,417.2 294.8,416.9 294.9,417 295.3,416.7 295.1,416.6 295.3,416.4 295,416.1 294.9,416.2 
				295.1,416.3 294.4,416.9 294.3,416.8 294.2,416.9 294.5,417.2 			"/>
			<line class="st1" x1="390.2" y1="518.1" x2="390.2" y2="518.1"/>
			<polyline class="st1" points="390.2,518.1 390.5,517.8 390.4,517.7 390.7,517.3 390.8,517.5 391,517.3 391.3,517.6 391.2,517.7 
				391.1,517.6 390.4,518.2 390.6,518.3 390.5,518.4 390.2,518.1 			"/>
			<line class="st1" x1="413.7" y1="508.5" x2="413.7" y2="508.5"/>
			<polyline class="st1" points="413.7,508.5 431.7,491.5 442.6,503 440.9,504.6 446.9,510.9 430.6,526.3 413.7,508.5 			"/>
			<line class="st1" x1="511.5" y1="478.4" x2="512.4" y2="479.3"/>
			<line class="st1" x1="502.9" y1="486.6" x2="503.8" y2="487.5"/>
			<line class="st1" x1="233.1" y1="60.2" x2="233.1" y2="60.2"/>
			<polyline class="st1" points="233.1,60.2 262.9,91.6 259.1,95.2 260.5,96.6 213.5,141.1 212.2,139.7 210.8,141 181,109.6 
				233.1,60.2 			"/>
			<line class="st1" x1="232.2" y1="59.2" x2="232.2" y2="59.2"/>
			<polyline class="st1" points="232.2,59.2 202.4,27.8 198.6,31.3 195.1,27.6 148.1,72.1 151.7,75.8 150.3,77.2 180.1,108.6 
				232.2,59.2 			"/>
			<polyline class="st1" points="113.6,233.1 114.6,232.2 116.4,232.3 119.1,235.1 120.5,233.8 			"/>
			<path class="st1" d="M418.9,521.5c1.2-0.5,2.4-1.3,3.3-2.2"/>
			<polyline class="st1" points="413.5,510.1 413.9,510.5 414.3,510.2 414.4,510.3 415,509.8 414.4,509.2 413.5,510.1 			"/>
			<polyline class="st1" points="422.6,519.7 422.2,519.3 422.6,518.9 422.4,518.8 423,518.2 423.5,518.8 422.6,519.7 			"/>
			<polyline class="st1" points="414.4,510.3 419.3,521.3 418.9,521.5 413.9,510.5 414.4,510.3 			"/>
			<line class="st1" x1="415" y1="509.8" x2="414.4" y2="509.2"/>
			<line class="st1" x1="423.5" y1="518.8" x2="422.6" y2="519.7"/>
			<polyline class="st1" points="201.8,286.8 202.2,287.2 202.6,286.9 202.7,287 203.3,286.5 202.7,285.9 201.8,286.8 			"/>
			<polyline class="st1" points="210.9,296.4 210.5,296 210.8,295.6 210.7,295.5 211.3,294.9 211.8,295.5 210.9,296.4 			"/>
			<polyline class="st1" points="202.7,287 207.6,298 207.1,298.2 202.2,287.2 202.7,287 			"/>
			<line class="st1" x1="203.3" y1="286.5" x2="202.7" y2="285.9"/>
			<path class="st1" d="M207.1,298.2c1.2-0.6,2.4-1.3,3.3-2.2"/>
			<line class="st1" x1="224.6" y1="308" x2="223.1" y2="309.3"/>
			<line class="st1" x1="233.6" y1="317.6" x2="232.2" y2="318.9"/>
			<line class="st1" x1="212.3" y1="295" x2="210.9" y2="296.4"/>
			<line class="st1" x1="264.1" y1="288.7" x2="263.2" y2="289.6"/>
			<line class="st1" x1="255" y1="280.9" x2="255.9" y2="280.1"/>
			<line class="st1" x1="255.8" y1="279.9" x2="255.9" y2="280.1"/>
			<line class="st1" x1="135.1" y1="249.2" x2="136" y2="248.3"/>
			<line class="st1" x1="122.3" y1="233.8" x2="121.4" y2="234.7"/>
			<line class="st1" x1="117" y1="196.4" x2="117.9" y2="197.4"/>
			<line class="st1" x1="103.4" y1="211.1" x2="102.5" y2="210.1"/>
			<line class="st1" x1="179.3" y1="107.6" x2="178.4" y2="108.4"/>
			<line class="st1" x1="170.3" y1="98" x2="169.3" y2="98.9"/>
			<polyline class="st1" points="441.6,178.9 507,247.9 407.7,342.1 405.3,339.6 401.9,342.9 353.6,291.9 353.7,291.8 342.5,279.9 
				343.9,278.6 342.6,277.2 389.5,232.7 390.9,234.1 394.6,230.5 391.1,226.8 441.6,178.9 			"/>
			<polyline class="st1" points="80.3,397.3 143.6,464.1 246.5,366.6 183.1,299.8 80.3,397.3 			"/>
			<polyline class="st1" points="260.6,485.9 209.9,534 144.5,465 247.3,367.5 308.2,431.7 304.9,434.9 307.2,437.3 262.2,480 
				260.8,478.5 257,482.1 260.6,485.9 			"/>
			<polyline class="st1" points="290.6,517.5 259.3,484.5 311.5,435 342.8,468 290.6,517.5 			"/>
			<polyline class="st1" points="291.2,518.2 322.6,551.3 374.9,501.8 343.4,468.6 291.2,518.2 			"/>
			<polyline class="st1" points="406.8,535.4 375.5,502.4 323.2,552 354.5,585 406.8,535.4 			"/>
			<polyline class="st1" points="355.4,585.9 386.6,618.8 438.7,569.3 407.6,536.5 355.4,585.9 			"/>
			<polyline class="st1" points="320.9,352.3 266.2,294.6 237.1,322.2 291.8,379.9 320.9,352.3 			"/>
			<polyline class="st1" points="321.9,351.4 267.2,293.7 296.5,265.9 351.1,323.6 321.9,351.4 			"/>
			<polyline class="st1" points="352.9,292.5 401.3,343.5 399.7,345 405.2,350.8 410.9,345.4 408.5,343 420,332.2 483.1,398.8 
				468.7,412.5 432.7,374.6 354.9,448.3 434.3,532 435.2,531.1 431.5,527.2 452.9,507 456.6,510.9 511.1,459.2 520.9,469.5 
				444.3,542.1 468.9,568.1 453.3,582.9 260.7,380 276.2,365.3 291.8,381.7 353,323.7 337.4,307.3 352.9,292.5 			"/>
			<polyline class="st1" points="467.8,414.4 487.8,435.5 479.5,443.4 480.9,444.8 489.6,436.5 510.2,458.2 456.6,509.1 436,487.3 
				469.6,455.5 468.3,454.1 460,461.9 440,440.8 467.8,414.4 			"/>
			<polyline class="st1" points="469.6,413.5 535,482.5 637.4,385.4 572,316.4 469.6,413.5 			"/>
			<polyline class="st1" points="484.1,397.9 420.9,331.3 507.9,248.8 571.1,315.5 484.1,397.9 			"/>
			<polyline class="st1" points="308.2,244.1 276.8,210.9 329.1,161.4 360.5,194.5 308.2,244.1 			"/>
			<polyline class="st1" points="182.9,170.2 218,207.2 171.2,251.7 136,214.6 182.9,170.2 			"/>
			<polyline class="st1" points="259.4,250.6 276.5,268.7 287.9,257.9 270.8,239.8 259.4,250.6 			"/>
			<polyline class="st1" points="521.8,470.4 530.5,479.6 528.9,481.2 532.4,484.9 535.2,482.3 537.1,482.3 596.7,545.2 
				592.9,548.8 596.5,552.5 507.3,637.1 503.8,633.3 502.3,634.6 454.2,583.8 470.7,568.1 446.1,542.2 521.8,470.4 			"/>
			<line class="st1" x1="215.8" y1="143.4" x2="215.8" y2="143.4"/>
			<polyline class="st1" points="215.8,143.4 214.4,142 261.4,97.5 262.7,98.9 266.5,95.4 296.4,127 244.2,176.5 214.2,144.9 
				215.8,143.4 			"/>
			<line class="st1" x1="297" y1="127.6" x2="297" y2="127.6"/>
			<polyline class="st1" points="297,127.6 327,159.2 323.2,162.8 324.7,164.3 294.2,193.2 262.8,160.1 297,127.6 			"/>
			<line class="st1" x1="228.6" y1="192.5" x2="228.6" y2="192.5"/>
			<line class="st1" x1="228" y1="191.8" x2="228" y2="191.8"/>
			<line class="st1" x1="243.5" y1="177.1" x2="243.5" y2="177.1"/>
			<polyline class="st1" points="244.4,178 262.4,161 293.5,193.9 277.8,208.8 276.3,207.3 272.5,210.8 276.1,214.6 277.6,213.1 
				338.2,276.9 336.6,278.4 340.2,282.2 341.6,280.8 351.9,291.7 336.5,306.3 228.6,192.5 228,191.8 195.8,157.9 209.8,144.6 
				212,147 213.6,145.5 243.5,177.1 244.4,178 			"/>
			<polyline class="st1" points="195.1,158.5 230.3,195.6 218.7,206.6 183.5,169.5 195.1,158.5 			"/>
			<line class="st1" x1="133.3" y1="214.5" x2="133.3" y2="214.5"/>
			<polyline class="st1" points="178,140.3 149.7,110.4 165.8,95.1 209.7,141.5 210,141.8 133.3,214.5 170.2,253.5 154.8,268.1 
				121.4,232.9 123.8,230.7 120.2,226.9 116.5,230.5 114.6,230.4 99.7,214.6 178,140.3 			"/>
			<polyline class="st1" points="170.8,254.1 275.3,364.3 259.9,378.9 249.6,368.1 251,366.7 247.4,363 245.9,364.4 185.4,300.6 
				186.9,299.1 183.4,295.4 181.8,296.8 168.6,283 168.8,282.8 155.4,268.7 170.8,254.1 			"/>
			<line class="st1" x1="114.6" y1="232.2" x2="114.6" y2="232.2"/>
			<polyline class="st1" points="114.6,232.2 116.4,232.3 119.1,235.1 120.5,233.8 181,297.6 177.7,300.7 179.2,302.3 85.3,391.3 
				83.8,389.7 78.2,395.1 17.7,331.2 21.4,327.7 17.9,323.9 114.6,232.2 			"/>
			<line class="st1" x1="411.5" y1="508" x2="412.8" y2="509.4"/>
			<line class="st1" x1="469.6" y1="455.5" x2="412.8" y2="509.4"/>
			<line class="st1" x1="490.6" y1="435.6" x2="480.9" y2="444.8"/>
			<line class="st1" x1="471.5" y1="415.5" x2="490.6" y2="435.6"/>
			<polyline class="st1" points="397.8,493.5 354.9,448.3 357.3,446.1 			"/>
			<polyline class="st1" points="373.1,433.8 432.6,377.3 466.5,413 391.5,484.1 357.7,448.4 358.6,447.5 			"/>
			<line class="st1" x1="398.9" y1="492.4" x2="397.8" y2="493.5"/>
			<line class="st1" x1="358.6" y1="447.5" x2="357.3" y2="446.1"/>
			<line class="st1" x1="373.1" y1="433.8" x2="371.7" y2="432.4"/>
			<polyline class="st1" points="371.7,432.4 432.7,374.6 471.5,415.5 			"/>
			<line class="st1" x1="479.5" y1="443.4" x2="480.9" y2="444.8"/>
			<line class="st1" x1="468.3" y1="454.1" x2="469.6" y2="455.5"/>
			<line class="st1" x1="485.5" y1="433.1" x2="470.1" y2="416.8"/>
			<line class="st1" x1="485.5" y1="433.1" x2="486.9" y2="431.8"/>
			<line class="st1" x1="470.1" y1="416.8" x2="471.5" y2="415.5"/>
			<line class="st1" x1="446.3" y1="450.3" x2="447.7" y2="449"/>
			<line class="st1" x1="456.1" y1="460.6" x2="457.5" y2="459.3"/>
			<line class="st1" x1="427.5" y1="487.7" x2="428.9" y2="486.4"/>
			<polyline class="st1" points="427.5,487.7 430,490.4 412.6,506.8 			"/>
			<polyline class="st1" points="398.9,492.4 392.6,485.7 410,469.2 417.6,477.3 			"/>
			<polyline class="st1" points="419.1,476 411.4,467.9 438.6,442.1 458.6,463.3 431.4,489 428.9,486.4 			"/>
			<line class="st1" x1="468.3" y1="454.1" x2="460" y2="461.9"/>
			<polyline class="st1" points="485.5,433.1 487.8,435.5 479.5,443.4 			"/>
			<line class="st1" x1="460" y1="461.9" x2="460" y2="461.9"/>
			<polyline class="st1" points="460,461.9 440,440.8 467.8,414.4 470.1,416.8 			"/>
			<line class="st1" x1="412.6" y1="506.8" x2="411.5" y2="508"/>
			<polyline class="st1" points="420.3,442.8 416.9,444.5 418.8,441.3 			"/>
			<polyline class="st1" points="408,414.6 411.3,412.9 409.5,416.1 			"/>
			<line class="st1" x1="418.8" y1="425.2" x2="418.1" y2="423.8"/>
			<line class="st1" x1="417.4" y1="422.4" x2="416.8" y2="421"/>
			<line class="st1" x1="416.1" y1="419.7" x2="415.4" y2="418.3"/>
			<line class="st1" x1="414.8" y1="416.9" x2="414.1" y2="415.6"/>
			<line class="st1" x1="413.4" y1="414.2" x2="412.8" y2="412.8"/>
			<line class="st1" x1="412.1" y1="411.5" x2="411.4" y2="410.1"/>
			<line class="st1" x1="410.8" y1="408.7" x2="410.1" y2="407.4"/>
			<line class="st1" x1="409.5" y1="406" x2="408.8" y2="404.6"/>
			<line class="st1" x1="408.1" y1="403.3" x2="407.4" y2="401.8"/>
			<line class="st1" x1="417.8" y1="426.2" x2="417" y2="424.5"/>
			<line class="st1" x1="416.4" y1="423.2" x2="415.7" y2="421.8"/>
			<line class="st1" x1="415" y1="420.4" x2="414.4" y2="419.1"/>
			<line class="st1" x1="413.7" y1="417.7" x2="413" y2="416.3"/>
			<line class="st1" x1="412.4" y1="415" x2="411.7" y2="413.6"/>
			<line class="st1" x1="411" y1="412.2" x2="410.4" y2="410.8"/>
			<line class="st1" x1="409.7" y1="409.5" x2="409" y2="408.1"/>
			<line class="st1" x1="408.4" y1="406.7" x2="407.7" y2="405.4"/>
			<line class="st1" x1="407" y1="404" x2="406.3" y2="402.4"/>
			<line class="st1" x1="412.3" y1="412" x2="421.7" y2="403.1"/>
			<line class="st1" x1="398.5" y1="425.1" x2="411.3" y2="412.9"/>
			<line class="st1" x1="440.1" y1="422.6" x2="418.2" y2="443.4"/>
			<line class="st1" x1="418.2" y1="443.4" x2="416.9" y2="444.5"/>
			<line class="st1" x1="405.2" y1="434.2" x2="408.2" y2="437.4"/>
			<line class="st1" x1="406.3" y1="433.2" x2="390.8" y2="417"/>
			<line class="st1" x1="433.6" y1="413.3" x2="430.6" y2="410.1"/>
			<line class="st1" x1="408.2" y1="437.4" x2="433.6" y2="413.3"/>
			<line class="st1" x1="417.5" y1="422.6" x2="430.6" y2="410.1"/>
			<line class="st1" x1="405.2" y1="434.2" x2="416.5" y2="423.5"/>
			<line class="st1" x1="408.8" y1="430.8" x2="393.4" y2="414.5"/>
			<line class="st1" x1="424.7" y1="452.6" x2="409.2" y2="436.4"/>
			<line class="st1" x1="447.8" y1="430.7" x2="432.4" y2="414.4"/>
			<line class="st1" x1="429.4" y1="411.3" x2="414" y2="395"/>
			<line class="st1" x1="427.2" y1="450.2" x2="411.8" y2="433.9"/>
			<line class="st1" x1="429.8" y1="447.8" x2="414.4" y2="431.5"/>
			<line class="st1" x1="432.4" y1="445.3" x2="417" y2="429.1"/>
			<line class="st1" x1="435" y1="442.9" x2="419.5" y2="426.6"/>
			<line class="st1" x1="437.5" y1="440.4" x2="422.1" y2="424.2"/>
			<line class="st1" x1="440.1" y1="438" x2="424.7" y2="421.7"/>
			<line class="st1" x1="442.7" y1="435.6" x2="427.3" y2="419.3"/>
			<line class="st1" x1="445.3" y1="433.1" x2="429.9" y2="416.8"/>
			<line class="st1" x1="426.9" y1="413.7" x2="411.5" y2="397.4"/>
			<line class="st1" x1="424.3" y1="416.1" x2="408.9" y2="399.9"/>
			<line class="st1" x1="421.7" y1="418.6" x2="409.1" y2="405.3"/>
			<line class="st1" x1="411.4" y1="412.8" x2="403.7" y2="404.8"/>
			<line class="st1" x1="419.1" y1="421" x2="414.3" y2="416"/>
			<line class="st1" x1="416.6" y1="423.5" x2="401.1" y2="407.2"/>
			<line class="st1" x1="414" y1="425.9" x2="398.6" y2="409.7"/>
			<line class="st1" x1="411.4" y1="428.4" x2="396" y2="412.1"/>
			<polyline class="st1" points="194.4,245.5 191.1,247.2 192.9,244 			"/>
		</g>
	</g>
	<g>
		<defs>
			
				<rect id="SVGID_5_" x="35.4" y="-53.2" transform="matrix(0.7257 -0.688 0.688 0.7257 -146.6047 325.8686)" width="600" height="800"/>
		</defs>
		<clipPath id="SVGID_6_">
			<use xlink:href="#SVGID_5_"  style="overflow:visible;"/>
		</clipPath>
		<g class="st2">
			<line class="st3" x1="203.7" y1="235.2" x2="191.1" y2="247.2"/>
		</g>
	</g>
	<g>
		<defs>
			
				<rect id="SVGID_7_" x="35.4" y="-53.2" transform="matrix(0.7257 -0.688 0.688 0.7257 -146.6047 325.8686)" width="600" height="800"/>
		</defs>
		<clipPath id="SVGID_8_">
			<use xlink:href="#SVGID_7_"  style="overflow:visible;"/>
		</clipPath>
		<g class="st4">
			<line class="st1" x1="195.3" y1="254" x2="200.2" y2="259.2"/>
			<line class="st1" x1="221.3" y1="229.3" x2="226.2" y2="234.5"/>
			<polyline class="st1" points="226.7,242.7 230,241 228.2,244.2 			"/>
			<polyline class="st1" points="207.5,233.1 204.2,234.7 206,231.5 			"/>
			<line class="st1" x1="211.6" y1="238.6" x2="209.7" y2="237.8"/>
			<line class="st1" x1="208.3" y1="237.2" x2="206.9" y2="236.6"/>
			<line class="st1" x1="205.5" y1="235.9" x2="204.1" y2="235.3"/>
			<line class="st1" x1="202.7" y1="234.7" x2="201.3" y2="234.1"/>
			<line class="st1" x1="199.9" y1="233.5" x2="198.5" y2="232.9"/>
			<line class="st1" x1="197.1" y1="232.3" x2="195.3" y2="231.5"/>
			<line class="st1" x1="226.2" y1="234.5" x2="226.2" y2="234.5"/>
			<line class="st1" x1="226.2" y1="234.5" x2="200.2" y2="259.2"/>
		</g>
	</g>
	<g>
		<defs>
			
				<rect id="SVGID_9_" x="35.4" y="-53.2" transform="matrix(0.7257 -0.688 0.688 0.7257 -146.6047 325.8686)" width="600" height="800"/>
		</defs>
		<clipPath id="SVGID_10_">
			<use xlink:href="#SVGID_9_"  style="overflow:visible;"/>
		</clipPath>
		<g class="st5">
			<line class="st3" x1="195.3" y1="254" x2="195.3" y2="254"/>
			<line class="st3" x1="211.6" y1="238.6" x2="195.3" y2="254"/>
		</g>
	</g>
	<g>
		<defs>
			
				<rect id="SVGID_11_" x="35.4" y="-53.2" transform="matrix(0.7257 -0.688 0.688 0.7257 -146.6047 325.8686)" width="600" height="800"/>
		</defs>
		<clipPath id="SVGID_12_">
			<use xlink:href="#SVGID_11_"  style="overflow:visible;"/>
		</clipPath>
		<g class="st6">
			<line class="st1" x1="221.3" y1="229.3" x2="212" y2="238.1"/>
			<line class="st1" x1="212" y1="238.1" x2="210.2" y2="237.3"/>
			<line class="st1" x1="208.8" y1="236.7" x2="207.4" y2="236.1"/>
			<line class="st1" x1="206" y1="235.5" x2="204.6" y2="234.9"/>
			<line class="st1" x1="203.2" y1="234.3" x2="201.8" y2="233.7"/>
			<line class="st1" x1="200.4" y1="233.1" x2="199" y2="232.5"/>
			<line class="st1" x1="197.6" y1="231.9" x2="195.7" y2="231"/>
			<line class="st1" x1="225" y1="235.7" x2="235.5" y2="246.8"/>
			<line class="st1" x1="222.4" y1="238.1" x2="232.9" y2="249.3"/>
			<line class="st1" x1="219.7" y1="240.6" x2="230.3" y2="251.8"/>
			<line class="st1" x1="217.1" y1="243.1" x2="227.7" y2="254.2"/>
			<line class="st1" x1="214.5" y1="245.6" x2="225" y2="256.7"/>
			<line class="st1" x1="211.9" y1="248.1" x2="222.4" y2="259.2"/>
			<line class="st1" x1="209.3" y1="250.6" x2="219.8" y2="261.7"/>
			<line class="st1" x1="206.6" y1="253.1" x2="217.2" y2="264.2"/>
			<line class="st1" x1="204" y1="255.6" x2="214.6" y2="266.7"/>
		</g>
	</g>
	<g>
		<defs>
			
				<rect id="SVGID_13_" x="35.4" y="-53.2" transform="matrix(0.7257 -0.688 0.688 0.7257 -146.6047 325.8686)" width="600" height="800"/>
		</defs>
		<clipPath id="SVGID_14_">
			<use xlink:href="#SVGID_13_"  style="overflow:visible;"/>
		</clipPath>
		<g class="st7">
			<line class="st3" x1="208.8" y1="218.6" x2="220.1" y2="230.5"/>
			<line class="st3" x1="206.2" y1="221.1" x2="217.5" y2="233"/>
			<line class="st3" x1="203.6" y1="223.6" x2="214.9" y2="235.5"/>
			<line class="st3" x1="201" y1="226.1" x2="212.2" y2="238"/>
			<line class="st3" x1="205.2" y1="235.8" x2="209.6" y2="240.4"/>
			<line class="st3" x1="198.3" y1="228.6" x2="204.2" y2="234.7"/>
			<line class="st3" x1="196.7" y1="232.1" x2="207" y2="242.9"/>
			<line class="st3" x1="193.1" y1="233.5" x2="204.4" y2="245.4"/>
			<line class="st3" x1="190.5" y1="236" x2="201.7" y2="247.9"/>
			<line class="st3" x1="187.9" y1="238.5" x2="199.1" y2="250.4"/>
			<line class="st3" x1="214.7" y1="224.8" x2="204.2" y2="234.7"/>
		</g>
	</g>
	<g>
		<defs>
			
				<rect id="SVGID_15_" x="35.4" y="-53.2" transform="matrix(0.7257 -0.688 0.688 0.7257 -146.6047 325.8686)" width="600" height="800"/>
		</defs>
		<clipPath id="SVGID_16_">
			<use xlink:href="#SVGID_15_"  style="overflow:visible;"/>
		</clipPath>
		<g class="st8">
			<line class="st1" x1="201.4" y1="258" x2="211.9" y2="269.2"/>
		</g>
	</g>
	<g>
		<defs>
			
				<rect id="SVGID_17_" x="35.4" y="-53.2" transform="matrix(0.7257 -0.688 0.688 0.7257 -146.6047 325.8686)" width="600" height="800"/>
		</defs>
		<clipPath id="SVGID_18_">
			<use xlink:href="#SVGID_17_"  style="overflow:visible;"/>
		</clipPath>
		<g class="st9">
			<line class="st3" x1="185.2" y1="241" x2="196.5" y2="252.9"/>
			<line class="st3" x1="206.4" y1="263.4" x2="230" y2="241"/>
		</g>
	</g>
	<g>
		<defs>
			
				<rect id="SVGID_19_" x="35.4" y="-53.2" transform="matrix(0.7257 -0.688 0.688 0.7257 -146.6047 325.8686)" width="600" height="800"/>
		</defs>
		<clipPath id="SVGID_20_">
			<use xlink:href="#SVGID_19_"  style="overflow:visible;"/>
		</clipPath>
		<g class="st10">
			<line class="st1" x1="231.8" y1="198.7" x2="230.9" y2="197.7"/>
			<line class="st1" x1="231.8" y1="198.7" x2="233.2" y2="197.3"/>
			<line class="st1" x1="241.4" y1="206" x2="240" y2="207.3"/>
			<line class="st1" x1="199.2" y1="281.2" x2="257.6" y2="225.9"/>
			<line class="st1" x1="172.5" y1="253.1" x2="199.2" y2="281.2"/>
			<line class="st1" x1="230.9" y1="197.7" x2="172.5" y2="253.1"/>
			<line class="st1" x1="257.6" y1="225.9" x2="240" y2="207.3"/>
			<line class="st1" x1="199.2" y1="281.2" x2="257.6" y2="225.9"/>
			<line class="st1" x1="172.5" y1="253.1" x2="199.2" y2="281.2"/>
			<line class="st1" x1="230.9" y1="197.7" x2="172.5" y2="253.1"/>
			<line class="st1" x1="257.6" y1="225.9" x2="240" y2="207.3"/>
			<polyline class="st1" points="268.5,245.6 283.8,261.7 287.9,257.9 272.6,241.7 268.5,245.6 			"/>
			<line class="st1" x1="268.1" y1="236.9" x2="269.5" y2="235.6"/>
			<line class="st1" x1="260.8" y1="229.2" x2="262.2" y2="227.9"/>
			<line class="st1" x1="266.5" y1="243.9" x2="266.1" y2="243.5"/>
			<line class="st1" x1="266.1" y1="243.5" x2="266" y2="243.7"/>
			<line class="st1" x1="265.4" y1="243.1" x2="266" y2="242.6"/>
			<line class="st1" x1="266" y1="243.7" x2="265.4" y2="243.1"/>
			<line class="st1" x1="266.9" y1="243.5" x2="266.5" y2="243.9"/>
			<line class="st1" x1="266" y1="242.6" x2="266.9" y2="243.5"/>
			<line class="st1" x1="261.1" y1="249" x2="260.8" y2="249.4"/>
			<line class="st1" x1="260.8" y1="249.4" x2="260.4" y2="249"/>
			<line class="st1" x1="260.4" y1="249" x2="260.5" y2="248.8"/>
			<line class="st1" x1="260" y1="248.3" x2="259.4" y2="248.8"/>
			<line class="st1" x1="260.5" y1="248.8" x2="260" y2="248.3"/>
			<line class="st1" x1="260.3" y1="249.8" x2="260.8" y2="249.4"/>
			<line class="st1" x1="259.4" y1="248.8" x2="260.3" y2="249.8"/>
			<line class="st1" x1="260.3" y1="249.8" x2="259.4" y2="248.8"/>
			<line class="st1" x1="266.9" y1="243.5" x2="266" y2="242.6"/>
			<line class="st1" x1="200.5" y1="282.7" x2="201.4" y2="283.6"/>
			<line class="st1" x1="419.1" y1="476" x2="417.6" y2="477.3"/>
			<line class="st1" x1="428.9" y1="486.4" x2="427.5" y2="487.7"/>
			<line class="st1" x1="454.2" y1="582" x2="455.1" y2="583"/>
			<line class="st1" x1="454.2" y1="582" x2="455.1" y2="583"/>
			<polyline class="st1" points="98.6,115.5 97.4,116.6 98.3,117.6 99.5,116.4 98.6,115.5 			"/>
			<line class="st1" x1="99.1" y1="115.9" x2="110.5" y2="105.1"/>
			<line class="st1" x1="86.4" y1="128" x2="97.8" y2="117.1"/>
		</g>
	</g>
	<g>
		<defs>
			
				<rect id="SVGID_21_" x="35.4" y="-53.2" transform="matrix(0.7257 -0.688 0.688 0.7257 -146.6047 325.8686)" width="600" height="800"/>
		</defs>
		<clipPath id="SVGID_22_">
			<use xlink:href="#SVGID_21_"  style="overflow:visible;"/>
		</clipPath>
		<g class="st11">
			<line class="st12" x1="344.9" y1="300.1" x2="344.9" y2="300.1"/>
			<line class="st12" x1="344.9" y1="300.1" x2="344.9" y2="300.1"/>
		</g>
	</g>
	<g>
		<defs>
			
				<rect id="SVGID_23_" x="35.4" y="-53.2" transform="matrix(0.7257 -0.688 0.688 0.7257 -146.6047 325.8686)" width="600" height="800"/>
		</defs>
		<clipPath id="SVGID_24_">
			<use xlink:href="#SVGID_23_"  style="overflow:visible;"/>
		</clipPath>
		<g class="st13">
			<line class="st1" x1="263.1" y1="479.1" x2="264" y2="480"/>
			<line class="st1" x1="450.9" y1="582.2" x2="451.8" y2="581.3"/>
			<line class="st1" x1="520.2" y1="468.8" x2="521.1" y2="467.9"/>
			<line class="st1" x1="468.7" y1="568.3" x2="469.6" y2="569.2"/>
			<line class="st1" x1="483.5" y1="483.5" x2="484.4" y2="484.5"/>
			<line class="st1" x1="475.8" y1="492.7" x2="474.9" y2="491.7"/>
			<line class="st1" x1="298.6" y1="266.3" x2="297.7" y2="267.2"/>
			<line class="st1" x1="306.8" y1="275" x2="305.8" y2="275.9"/>
			<line class="st1" x1="237.4" y1="324.4" x2="238.3" y2="323.5"/>
			<line class="st1" x1="245.6" y1="333" x2="246.5" y2="332.1"/>
			<line class="st1" x1="98.4" y1="216.1" x2="111.2" y2="229.6"/>
			<line class="st1" x1="84.4" y1="201.4" x2="97.2" y2="214.9"/>
			<polyline class="st1" points="96.7,215.3 97.9,216.5 98.8,215.6 97.7,214.4 96.7,215.3 			"/>
			<line class="st1" x1="194.5" y1="156.5" x2="195.8" y2="157.9"/>
			<line class="st1" x1="195.8" y1="157.9" x2="136" y2="214.6"/>
			<line class="st1" x1="194.5" y1="156.5" x2="133.3" y2="214.5"/>
			<line class="st1" x1="171.2" y1="251.7" x2="136" y2="214.6"/>
			<line class="st1" x1="169.7" y1="253" x2="133.3" y2="214.5"/>
			<line class="st1" x1="376.7" y1="208.9" x2="389.5" y2="222.4"/>
			<line class="st1" x1="362.8" y1="194.1" x2="375.6" y2="207.6"/>
			<line class="st1" x1="490.9" y1="655.3" x2="506.2" y2="640.8"/>
			<line class="st1" x1="145.5" y1="71.9" x2="161.2" y2="57"/>
			<line class="st1" x1="404" y1="211.9" x2="392.8" y2="222.4"/>
			<line class="st1" x1="258.9" y1="490.3" x2="247.6" y2="501"/>
			<line class="st1" x1="98.2" y1="245.1" x2="111.1" y2="232.9"/>
			<line class="st1" x1="84.1" y1="258.5" x2="97" y2="246.3"/>
			<line class="st1" x1="274" y1="502.9" x2="288.9" y2="518.6"/>
			<line class="st1" x1="262.2" y1="490.4" x2="272.9" y2="501.7"/>
			<line class="st1" x1="554.5" y1="497.8" x2="567.3" y2="511.3"/>
			<line class="st1" x1="540.5" y1="483.1" x2="553.3" y2="496.6"/>
			<line class="st1" x1="555.2" y1="466" x2="568.6" y2="453.2"/>
			<line class="st1" x1="540.6" y1="479.8" x2="554" y2="467.1"/>
			<line class="st1" x1="346.8" y1="177.3" x2="361.6" y2="192.9"/>
			<line class="st1" x1="330.7" y1="160.4" x2="345.6" y2="176"/>
			<polyline class="st1" points="500,251.8 503.6,255.6 509.2,250.2 505.7,246.5 500,251.8 			"/>
			<polyline class="st1" points="564.1,319.4 567.7,323.2 573.3,317.8 569.7,314.1 564.1,319.4 			"/>
			<polyline class="st1" points="405.3,339.6 408,342.4 402.4,347.8 399.7,345 405.3,339.6 			"/>
			<polyline class="st1" points="408.2,342.6 410.9,345.4 405.2,350.8 402.6,348 408.2,342.6 			"/>
			<polyline class="st1" points="177.7,300.7 181.3,304.5 186.9,299.1 183.4,295.4 177.7,300.7 			"/>
			<polyline class="st1" points="241.8,368.3 245.4,372.1 251,366.7 247.4,363 241.8,368.3 			"/>
			<polyline class="st1" points="78.2,395.1 81.8,398.8 87.4,393.5 83.8,389.7 78.2,395.1 			"/>
			<polyline class="st1" points="142.3,462.6 145.9,466.4 151.5,461.1 147.9,457.3 142.3,462.6 			"/>
			<polyline class="st1" points="260.7,486 261.7,485.1 261.6,487 260.7,486 			"/>
			<polyline class="st1" points="259.8,485 260.6,485.9 259.7,486.8 259.8,485 			"/>
			<polyline class="st1" points="259,484.1 260.7,486 264.5,482.4 262.7,480.6 259,484.1 			"/>
			<polyline class="st1" points="257,482.1 258.8,483.9 262.5,480.4 260.8,478.5 257,482.1 			"/>
			<polyline class="st1" points="304.9,434.9 307.6,437.7 313.2,432.3 310.5,429.5 304.9,434.9 			"/>
			<polyline class="st1" points="307.8,437.9 310.4,440.7 316.1,435.3 313.4,432.5 307.8,437.9 			"/>
			<polyline class="st1" points="336.6,278.4 340.2,282.2 343.9,278.6 340.4,274.9 336.6,278.4 			"/>
			<polyline class="st1" points="260.5,489.6 262.4,487.8 260.6,485.9 258.8,487.7 260.5,489.6 			"/>
			<polyline class="st1" points="111.9,231.3 113.7,229.5 115.5,231.3 113.6,233.1 111.9,231.3 			"/>
			<line class="st1" x1="115.5" y1="231.3" x2="115.5" y2="231.3"/>
			<polyline class="st1" points="115.5,231.3 116.5,230.5 114.6,230.4 115.5,231.3 114.6,232.2 116.4,232.3 115.5,231.3 			"/>
			<polyline class="st1" points="391.2,223.1 392.9,225 391.1,226.8 389.3,224.9 391.2,223.1 			"/>
			<line class="st1" x1="391.1" y1="226.8" x2="391.1" y2="226.8"/>
			<polyline class="st1" points="391.1,226.8 391.9,227.7 392,225.9 391.1,226.8 390.2,225.9 390.1,227.7 391.1,226.8 			"/>
			<polyline class="st1" points="539.8,481.5 538,479.6 536.2,481.4 537.9,483.2 539.8,481.5 			"/>
			<line class="st1" x1="636" y1="382" x2="636" y2="382"/>
			<polyline class="st1" points="636,382 635,382.9 637.4,385.4 634.9,387.8 635.8,388.7 639.2,385.4 636,382 			"/>
			<polyline class="st1" points="438.2,180.3 439.1,181.2 441.6,178.9 443.9,181.4 444.9,180.5 441.6,177.1 438.2,180.3 			"/>
			<line class="st1" x1="201.2" y1="26.5" x2="201.2" y2="26.5"/>
			<line class="st1" x1="201.2" y1="26.5" x2="201.2" y2="26.5"/>
			<polyline class="st1" points="195.4,25.4 196.3,26.4 198.8,24 201.2,26.5 202.1,25.6 198.9,22.2 195.4,25.4 			"/>
			<line class="st1" x1="52.9" y1="167.1" x2="52.9" y2="167.1"/>
			<polyline class="st1" points="52.9,167.1 53.8,166.2 51.4,163.8 53.9,161.4 53,160.5 49.6,163.7 52.9,167.1 			"/>
			<line class="st1" x1="12.3" y1="327.4" x2="12.3" y2="327.4"/>
			<polyline class="st1" points="12.3,327.4 15.6,330.8 16.5,330 14.1,327.5 16.6,325.1 15.7,324.2 12.3,327.4 			"/>
			<line class="st1" x1="209.9" y1="535.8" x2="209.9" y2="535.8"/>
			<polyline class="st1" points="209.9,535.8 206.6,532.4 207.6,531.5 209.9,534 212.4,531.6 213.3,532.6 209.9,535.8 			"/>
			<line class="st1" x1="452.8" y1="690.5" x2="452.8" y2="690.5"/>
			<polyline class="st1" points="452.8,690.5 449.6,687.1 450.5,686.2 452.9,688.7 455.4,686.3 456.2,687.3 452.8,690.5 			"/>
			<line class="st1" x1="602.1" y1="549" x2="602.1" y2="549"/>
			<polyline class="st1" points="602.1,549 598.7,552.3 597.8,551.3 600.2,549 597.9,546.5 598.8,545.6 602.1,549 			"/>
			<line class="st1" x1="536.2" y1="481.4" x2="536.2" y2="481.4"/>
			<polyline class="st1" points="536.2,481.4 535.3,480.4 537.1,480.5 536.2,481.4 537.1,482.3 535.2,482.3 536.2,481.4 			"/>
			<polyline class="st1" points="605.7,549.1 452.7,694.2 260.5,491.4 209.8,539.5 8.6,327.3 110,231.2 45.9,163.6 199,18.5 
				391.2,221.3 441.7,173.4 642.9,385.5 541.7,481.5 605.7,549.1 			"/>
			<polyline class="st1" points="603.9,549.1 452.8,692.3 260.5,489.6 209.8,537.6 10.5,327.4 111.9,231.3 47.8,163.7 198.9,20.4 
				391.2,223.1 441.7,175.2 641,385.5 539.8,481.5 603.9,549.1 			"/>
			<polyline class="st1" points="602.1,549 452.8,690.5 260.6,487.8 209.9,535.8 12.3,327.4 113.7,231.3 49.6,163.7 198.9,22.2 
				391.1,225 441.6,177.1 639.2,385.4 538,481.4 602.1,549 			"/>
			<polyline class="st1" points="290.6,517.5 260.6,485.9 209.9,534 14.1,327.5 115.5,231.3 51.4,163.8 198.8,24 391.1,226.8 
				441.6,178.9 637.4,385.4 536.2,481.4 600.2,549 			"/>
			<polyline class="st1" points="600.2,549 452.9,688.7 291.2,518.2 			"/>
			<line class="st1" x1="232.2" y1="318.9" x2="236.2" y2="323.1"/>
			<line class="st1" x1="210.9" y1="296.4" x2="223.1" y2="309.3"/>
			<line class="st1" x1="169.7" y1="253" x2="200" y2="284.9"/>
			<line class="st1" x1="233.2" y1="197.3" x2="231" y2="195"/>
			<line class="st1" x1="262.2" y1="227.9" x2="241.4" y2="206"/>
			<line class="st1" x1="297.4" y1="265.1" x2="269.5" y2="235.6"/>
			<line class="st1" x1="200.5" y1="282.7" x2="258.9" y2="227.3"/>
			<line class="st1" x1="201.4" y1="283.6" x2="200.5" y2="282.7"/>
			<line class="st1" x1="224.6" y1="308" x2="212.3" y2="295"/>
			<line class="st1" x1="236.3" y1="320.3" x2="233.6" y2="317.6"/>
			<line class="st1" x1="294.6" y1="265" x2="236.3" y2="320.3"/>
			<line class="st1" x1="268.1" y1="236.9" x2="294.6" y2="265"/>
			<line class="st1" x1="258.9" y1="227.3" x2="260.8" y2="229.2"/>
			<line class="st1" x1="297.4" y1="265.1" x2="236.2" y2="323.1"/>
			<line class="st1" x1="171.2" y1="251.7" x2="231" y2="195"/>
			<polyline class="st1" points="435.9,569.3 439.5,573 444.2,568.6 440.6,564.8 435.9,569.3 			"/>
			<polyline class="st1" points="371.8,501.7 375.4,505.5 379.2,501.9 375.6,498.1 371.8,501.7 			"/>
			<polyline class="st1" points="206.4,530.2 209.9,534 213.7,530.4 210.1,526.7 206.4,530.2 			"/>
			<polyline class="st1" points="14.1,327.5 17.7,331.2 21.4,327.7 17.9,323.9 14.1,327.5 			"/>
			<polyline class="st1" points="115.5,231.3 119.1,235.1 123.8,230.7 120.2,226.9 115.5,231.3 			"/>
			<polyline class="st1" points="51.4,163.8 55,167.5 58.7,164 55.2,160.2 51.4,163.8 			"/>
			<polyline class="st1" points="272.5,210.8 276.1,214.6 279.8,211 276.3,207.3 272.5,210.8 			"/>
			<polyline class="st1" points="208.4,143.2 212,147 215.8,143.4 212.2,139.7 208.4,143.2 			"/>
			<polyline class="st1" points="144.4,75.7 147.9,79.4 151.7,75.8 148.1,72.1 144.4,75.7 			"/>
			<polyline class="st1" points="321.1,549.8 324.7,553.5 328.5,550 324.9,546.2 321.1,549.8 			"/>
			<polyline class="st1" points="385.2,617.3 388.8,621.1 392.5,617.5 389,613.8 385.2,617.3 			"/>
			<polyline class="st1" points="449.3,684.9 452.9,688.7 456.6,685.1 453.1,681.4 449.3,684.9 			"/>
			<polyline class="st1" points="500,636.9 503.6,640.6 507.3,637.1 503.8,633.3 500,636.9 			"/>
			<polyline class="st1" points="592.9,548.8 596.5,552.5 600.2,549 596.7,545.2 592.9,548.8 			"/>
			<polyline class="st1" points="528.9,481.2 532.4,484.9 536.2,481.4 532.6,477.6 528.9,481.2 			"/>
			<polyline class="st1" points="630.1,385.2 633.6,389 637.4,385.4 633.8,381.6 630.1,385.2 			"/>
			<polyline class="st1" points="437.8,182.4 441.4,186.2 445.1,182.6 441.6,178.9 437.8,182.4 			"/>
			<polyline class="st1" points="387.3,230.4 390.9,234.1 394.6,230.5 391.1,226.8 387.3,230.4 			"/>
			<polyline class="st1" points="323.2,162.8 326.8,166.5 330.5,163 327,159.2 323.2,162.8 			"/>
			<polyline class="st1" points="259.1,95.2 262.7,98.9 266.5,95.4 262.9,91.6 259.1,95.2 			"/>
			<polyline class="st1" points="195.1,27.6 198.6,31.3 202.4,27.8 198.8,24 195.1,27.6 			"/>
		</g>
	</g>
</g>
</svg>
