<svg id="Layer_1" data-name="Layer 1" xmlns="http://www.w3.org/2000/svg" xmlns:xlink="http://www.w3.org/1999/xlink" viewBox="0 0 653.42 693.15"><defs><style>.cls-1,.cls-3,.cls-4,.cls-5{fill:none;}.cls-2{clip-path:url(#clip-path);}.cls-3,.cls-4,.cls-5{stroke:#010101;stroke-linecap:round;stroke-linejoin:round;}.cls-3{stroke-width:0.25px;}.cls-4{stroke-width:0.15px;}.cls-5{stroke-width:0.1px;}</style><clipPath id="clip-path"><rect class="cls-1" x="39.73" y="-64.73" width="600" height="800" transform="translate(-137.42 322.99) rotate(-43.15)"/></clipPath></defs><g class="cls-2"><polyline class="cls-3" points="263.97 215.35 274.89 227.01 252 248.46 241.08 236.8 263.97 215.35"/><line class="cls-3" x1="431.09" y1="476.74" x2="431.09" y2="476.74"/><line class="cls-3" x1="431.09" y1="476.74" x2="431.09" y2="476.74"/><line class="cls-3" x1="431.09" y1="476.74" x2="431.09" y2="476.74"/><line class="cls-3" x1="421.27" y1="466.26" x2="421.27" y2="466.26"/><line class="cls-3" x1="421.27" y1="466.26" x2="421.27" y2="466.26"/><line class="cls-3" x1="421.27" y1="466.26" x2="421.27" y2="466.26"/><polyline class="cls-3" points="421.27 466.26 431.09 476.74 433.56 479.38 416.08 495.76 396.18 474.53 413.66 458.14 421.27 466.26"/><polyline class="cls-3" points="203.94 268.96 177.4 240.65 200.17 241.73 205.03 246.92 231.22 222.37 226.36 217.18 200.17 241.73 177.4 240.65 236.1 185.62 262.64 213.94 203.94 268.96"/><line class="cls-3" x1="376.95" y1="422.52" x2="376.95" y2="422.52"/><polyline class="cls-3" points="376.95 422.52 436.83 366.39 434.63 399.18 409.1 423.11 412.06 426.27 437.59 402.34 434.63 399.18 436.83 366.39 470.45 402.25 395.09 472.89 361.47 437.03 362.42 436.14 361.53 435.2 376.07 421.58 376.95 422.52"/><polyline class="cls-3" points="346.47 264.79 345.14 263.37 343.68 264.74 343.37 264.41 343.04 264.72 335.7 256.89 336.03 256.58 335.72 256.25 335.63 256.33 313.82 233.07 357.7 191.94 357.39 191.6 365.56 183.95 365.87 184.28 366.34 183.84 394.34 213.71 395.22 214.66 395.17 216.48 392.33 219.14 393.66 220.55 346.47 264.79"/><polyline class="cls-3" points="224.05 289.29 244.79 269.85 243.91 268.9 242.04 270.65 237.05 265.32 247.29 255.72 252.28 261.05 250.42 262.8 251.04 263.46 252.9 261.71 259.71 268.98 260.66 268.1 249.29 255.97 255.66 250 254.6 248.86 263.33 240.68 285.98 264.84 270.88 279 268.8 276.78 267.85 277.66 269.93 279.88 243.18 304.96 241.19 302.84 238.83 305.05 224.05 289.29 224.05 289.29"/><polyline class="cls-3" points="206.36 270.41 224.29 253.6 239.5 269.83 233.13 275.81 234.73 277.51 223.17 288.34 206.36 270.41 206.36 270.41"/><line class="cls-3" x1="230.94" y1="258.81" x2="230.56" y2="259.16"/><line class="cls-3" x1="230.56" y1="259.16" x2="230.43" y2="259.02"/><line class="cls-3" x1="229.87" y1="259.55" x2="230.4" y2="260.11"/><line class="cls-3" x1="230.43" y1="259.02" x2="229.87" y2="259.55"/><line class="cls-3" x1="231.34" y1="259.23" x2="230.94" y2="258.81"/><line class="cls-3" x1="230.4" y1="260.11" x2="231.34" y2="259.23"/><line class="cls-3" x1="225.9" y1="253.43" x2="225.55" y2="253.05"/><line class="cls-3" x1="225.55" y1="253.05" x2="225.17" y2="253.4"/><line class="cls-3" x1="225.17" y1="253.4" x2="225.3" y2="253.54"/><line class="cls-3" x1="224.73" y1="254.07" x2="224.2" y2="253.51"/><line class="cls-3" x1="225.3" y1="253.54" x2="224.73" y2="254.07"/><line class="cls-3" x1="225.15" y1="252.62" x2="225.55" y2="253.05"/><line class="cls-3" x1="224.2" y1="253.51" x2="225.15" y2="252.62"/><line class="cls-3" x1="230.4" y1="260.11" x2="231.34" y2="259.23"/><line class="cls-3" x1="224.2" y1="253.51" x2="225.15" y2="252.62"/><line class="cls-3" x1="229.15" y1="295.86" x2="229.72" y2="295.33"/><line class="cls-3" x1="238.17" y1="305.48" x2="238.74" y2="304.95"/><line class="cls-3" x1="103.89" y1="200.82" x2="103.89" y2="200.82"/><polyline class="cls-3" points="103.89 200.82 181.76 127.83 153.56 97.75 170.69 81.69 155.38 65.37 153.83 66.83 150.29 63.05 60.63 147.09 64.17 150.87 60.39 154.41 103.89 200.82"/><polyline class="cls-3" points="204.73 272.65 206.5 274.53 207.92 273.21 206.15 271.32"/><line class="cls-3" x1="167" y1="112.1" x2="167.95" y2="111.21"/><line class="cls-3" x1="157.98" y1="102.47" x2="158.92" y2="101.58"/><line class="cls-3" x1="248.01" y1="246.09" x2="248.01" y2="246.09"/><line class="cls-3" x1="240.14" y1="237.69" x2="240.14" y2="237.69"/><line class="cls-3" x1="240.14" y1="237.69" x2="240.14" y2="237.69"/><polyline class="cls-3" points="240.14 237.69 224.71 252.15 232.58 260.55 248.01 246.09 240.14 237.69"/><line class="cls-3" x1="392.73" y1="317.07" x2="392.73" y2="317.07"/><polyline class="cls-3" points="392.74 317.07 392.4 317.38 392.54 317.52 392.21 317.83 392.07 317.69 391.88 317.87 391.57 317.54 391.67 317.45 391.82 317.62 392.49 317 392.33 316.83 392.43 316.74 392.74 317.07"/><line class="cls-3" x1="171.15" y1="269.73" x2="172.09" y2="268.85"/><polyline class="cls-3" points="395.37 606.35 394.04 604.93 441.23 560.7 442.56 562.12 443.97 560.79 507.66 628.74 455.28 677.84 391.59 609.89 395.37 606.35"/><polyline class="cls-3" points="211.08 281.81 211.1 281.8 211.11 281.78 211.13 281.77 211.14 281.75 211.15 281.73 211.15 281.7 211.15 281.68 211.15 281.66 211.14 281.64"/><polyline class="cls-3" points="209.67 278.33 209.66 278.31 209.64 278.29 209.62 278.27 209.6 278.26 209.57 278.25 209.55 278.25 209.52 278.25 209.5 278.26"/><polyline class="cls-3" points="211.35 282.11 211.41 282.08 211.47 282.04 211.51 281.98 211.54 281.93 211.57 281.86 211.58 281.8 211.58 281.73 211.57 281.66 211.55 281.6"/><polyline class="cls-3" points="209.97 278.05 209.94 277.99 209.89 277.93 209.83 277.88 209.76 277.85 209.68 277.83 209.61 277.82 209.53 277.83 209.46 277.86"/><line class="cls-3" x1="211.35" y1="282.11" x2="210.76" y2="282.37"/><line class="cls-3" x1="209.46" y1="277.85" x2="208.87" y2="278.12"/><line class="cls-3" x1="211.08" y1="281.81" x2="210.6" y2="282.02"/><line class="cls-3" x1="209.5" y1="278.26" x2="209.03" y2="278.47"/><line class="cls-3" x1="209.67" y1="278.33" x2="211.14" y2="281.64"/><line class="cls-3" x1="209.97" y1="278.05" x2="211.55" y2="281.6"/><line class="cls-3" x1="298.45" y1="405.45" x2="298.45" y2="405.45"/><polyline class="cls-3" points="298.45 405.45 298.78 405.14 298.91 405.28 299.24 404.97 299.11 404.83 299.3 404.65 298.99 404.32 298.9 404.41 299.05 404.57 298.39 405.19 298.24 405.03 298.14 405.12 298.45 405.45"/><line class="cls-3" x1="393.55" y1="506.9" x2="393.55" y2="506.9"/><polyline class="cls-3" points="393.55 506.9 393.88 506.59 393.75 506.45 394.08 506.14 394.21 506.29 394.4 506.11 394.71 506.44 394.61 506.53 394.46 506.36 393.8 506.98 393.95 507.15 393.86 507.24 393.55 506.9"/><line class="cls-3" x1="417.18" y1="497.4" x2="417.18" y2="497.4"/><polyline class="cls-3" points="417.18 497.4 435.2 480.51 446.03 492.07 444.33 493.66 450.31 500.03 433.98 515.33 417.18 497.4"/><line class="cls-3" x1="515.14" y1="467.9" x2="516.02" y2="468.84"/><line class="cls-3" x1="506.45" y1="476.04" x2="507.34" y2="476.98"/><line class="cls-3" x1="239.09" y1="48.08" x2="239.09" y2="48.08"/><polyline class="cls-3" points="239.09 48.08 268.72 79.69 264.94 83.23 266.27 84.65 219.08 128.88 217.76 127.47 216.34 128.79 186.71 97.17 239.09 48.08"/><line class="cls-3" x1="238.2" y1="47.13" x2="238.2" y2="47.13"/><polyline class="cls-3" points="238.2 47.13 208.56 15.52 204.79 19.06 201.25 15.28 154.06 59.51 157.6 63.29 156.19 64.61 185.82 96.23 238.2 47.13"/><polyline class="cls-3" points="118.66 220.35 119.6 219.47 121.43 219.53 124.09 222.36 125.5 221.03"/><path class="cls-3" d="M422.23,510.46a11.48,11.48,0,0,0,3.33-2.22"/><polyline class="cls-3" points="416.94 499.04 417.34 499.47 417.71 499.11 417.85 499.25 418.41 498.72 417.88 498.16 416.94 499.04"/><polyline class="cls-3" points="425.96 508.67 425.56 508.24 425.94 507.89 425.81 507.75 426.38 507.22 426.91 507.78 425.96 508.67"/><polyline class="cls-3" points="417.81 499.26 422.7 510.25 422.23 510.46 417.34 499.47 417.81 499.26"/><line class="cls-3" x1="418.41" y1="498.72" x2="417.88" y2="498.16"/><line class="cls-3" x1="426.91" y1="507.78" x2="425.96" y2="508.67"/><polyline class="cls-3" points="206.5 274.53 206.9 274.96 207.28 274.61 207.41 274.75 207.98 274.21 207.44 273.65 206.5 274.53"/><polyline class="cls-3" points="215.53 284.16 215.13 283.74 215.5 283.38 215.37 283.24 215.94 282.71 216.47 283.28 215.53 284.16"/><polyline class="cls-3" points="207.37 274.75 212.26 285.74 211.79 285.95 206.9 274.96 207.37 274.75"/><line class="cls-3" x1="207.98" y1="274.22" x2="207.45" y2="273.65"/><path class="cls-3" d="M211.79,286a12.21,12.21,0,0,0,3.34-2.21"/><line class="cls-3" x1="229.15" y1="295.86" x2="227.73" y2="297.19"/><line class="cls-3" x1="238.17" y1="305.48" x2="236.76" y2="306.81"/><line class="cls-3" x1="216.94" y1="282.83" x2="215.52" y2="284.16"/><line class="cls-3" x1="268.8" y1="276.78" x2="267.85" y2="277.66"/><line class="cls-3" x1="259.71" y1="268.98" x2="260.66" y2="268.09"/><line class="cls-3" x1="260.5" y1="267.93" x2="260.66" y2="268.09"/><line class="cls-3" x1="140.01" y1="236.51" x2="140.95" y2="235.62"/><line class="cls-3" x1="127.33" y1="221.09" x2="126.39" y2="221.97"/><line class="cls-3" x1="122.2" y1="183.65" x2="123.09" y2="184.6"/><line class="cls-3" x1="108.55" y1="198.22" x2="107.67" y2="197.28"/><line class="cls-3" x1="185.08" y1="95.16" x2="184.13" y2="96.04"/><line class="cls-3" x1="176.05" y1="85.53" x2="175.11" y2="86.41"/><polyline class="cls-3" points="446.91 167.98 511.93 237.35 412.05 330.97 409.75 328.51 406.31 331.74 358.27 280.5 358.41 280.36 347.27 268.47 348.68 267.14 347.36 265.73 394.55 221.5 395.87 222.91 399.65 219.37 396.11 215.6 446.91 167.98"/><polyline class="cls-3" points="84.39 384.29 147.33 451.44 250.72 354.53 187.78 287.38 84.39 384.29"/><polyline class="cls-3" points="264.22 473.96 213.24 521.75 148.22 452.39 251.56 355.52 312.07 420.07 308.77 423.17 311.07 425.62 265.79 468.07 264.37 466.56 260.6 470.1 264.22 473.96"/><polyline class="cls-3" points="293.97 505.74 262.88 472.57 315.4 423.34 346.49 456.51 293.97 505.74"/><polyline class="cls-3" points="294.59 506.4 325.82 539.72 378.34 490.49 347.11 457.17 294.59 506.4"/><polyline class="cls-3" points="410.05 524.32 378.96 491.15 326.44 540.38 357.53 573.55 410.05 524.32"/><polyline class="cls-3" points="358.42 574.5 389.38 607.53 441.81 558.39 410.84 525.36 358.42 574.5"/><polyline class="cls-3" points="325.26 340.66 270.91 282.68 241.64 310.13 295.98 368.1 325.26 340.66"/><polyline class="cls-3" points="326.2 339.78 271.86 281.8 301.28 254.22 355.63 312.19 326.2 339.78"/><polyline class="cls-3" points="357.61 281.12 405.65 332.36 404.09 333.82 409.57 339.67 415.24 334.37 412.94 331.91 424.4 321.16 487.21 388.17 472.68 401.79 436.92 363.65 358.73 436.94 437.6 521.08 438.54 520.19 434.87 516.28 456.34 496.15 460.01 500.07 514.84 448.67 524.58 459.05 447.56 531.24 472.02 557.33 456.31 572.06 264.84 368.07 280.46 353.43 295.92 369.93 357.46 312.25 341.99 295.75 357.61 281.12"/><polyline class="cls-3" points="471.78 403.67 491.68 424.9 483.36 432.7 484.69 434.12 493.48 425.88 513.96 447.73 460.07 498.24 439.59 476.39 473.36 444.73 472.04 443.32 463.72 451.12 443.81 429.88 471.78 403.67"/><polyline class="cls-3" points="473.56 402.74 538.58 472.11 641.53 375.62 576.51 306.25 473.56 402.74"/><polyline class="cls-3" points="488.16 387.29 425.35 320.28 512.81 238.29 575.62 305.3 488.16 387.29"/><polyline class="cls-3" points="313.2 232.41 281.97 199.09 334.49 149.87 365.72 183.18 313.2 232.41"/><polyline class="cls-3" points="188.24 157.79 223.19 195.07 176.07 239.23 141.13 201.95 188.24 157.79"/><polyline class="cls-3" points="264.31 238.7 281.3 256.82 292.76 246.07 275.78 227.95 264.31 238.7"/><polyline class="cls-3" points="525.46 460 534.1 469.22 532.45 470.76 535.99 474.54 538.82 471.88 540.65 471.94 599.92 535.18 596.14 538.72 599.68 542.49 510.02 626.53 506.49 622.76 505.07 624.08 457.19 573.01 473.85 557.39 449.39 531.3 525.46 460"/><line class="cls-3" x1="221.29" y1="131.24" x2="221.29" y2="131.24"/><polyline class="cls-3" points="221.29 131.24 219.97 129.82 267.16 85.59 268.48 87.01 272.26 83.47 302.03 115.23 249.51 164.46 219.74 132.7 221.29 131.24"/><line class="cls-3" x1="302.65" y1="115.89" x2="302.65" y2="115.89"/><polyline class="cls-3" points="302.65 115.89 332.41 147.65 328.64 151.19 330.1 152.74 299.43 181.49 268.2 148.18 302.65 115.89"/><line class="cls-3" x1="233.85" y1="180.38" x2="233.85" y2="180.38"/><line class="cls-3" x1="233.23" y1="179.72" x2="233.23" y2="179.72"/><line class="cls-3" x1="248.85" y1="165.08" x2="248.85" y2="165.08"/><polyline class="cls-3" points="249.73 166.02 267.8 149.08 298.77 182.11 282.91 196.97 281.45 195.42 277.68 198.96 281.21 202.73 282.77 201.27 342.93 265.45 341.37 266.91 344.91 270.68 346.32 269.36 356.58 280.3 341.11 294.81 233.84 180.38 233.23 179.72 201.25 145.6 215.31 132.42 217.52 134.78 219.08 133.32 248.84 165.08 249.73 166.02"/><polyline class="cls-3" points="200.59 146.22 235.53 183.5 223.85 194.45 188.9 157.17 200.59 146.22"/><line class="cls-3" x1="138.38" y1="201.86" x2="138.38" y2="201.86"/><polyline class="cls-3" points="183.58 127.89 155.39 97.81 171.57 82.64 215.25 129.24 215.54 129.54 138.38 201.86 175.08 241.01 159.6 255.52 126.44 220.15 128.81 217.93 125.27 214.16 121.49 217.7 119.66 217.64 104.78 201.76 183.58 127.89"/><polyline class="cls-3" points="175.7 241.67 279.57 352.49 264.09 367 253.83 356.05 255.25 354.72 251.71 350.95 250.15 352.41 190 288.23 191.56 286.77 188.02 283 186.46 284.46 173.37 270.49 173.51 270.36 160.22 256.18 175.7 241.67"/><line class="cls-3" x1="119.6" y1="219.47" x2="119.6" y2="219.47"/><polyline class="cls-3" points="119.6 219.47 121.43 219.53 124.09 222.36 125.5 221.03 185.66 285.21 182.35 288.3 183.81 289.86 89.44 378.32 87.97 376.77 82.31 382.07 22.16 317.9 25.93 314.36 22.39 310.58 119.6 219.47"/><line class="cls-3" x1="414.91" y1="496.87" x2="416.23" y2="498.29"/><line class="cls-3" x1="473.36" y1="444.73" x2="416.23" y2="498.29"/><line class="cls-3" x1="494.42" y1="424.99" x2="484.69" y2="434.12"/><line class="cls-3" x1="475.46" y1="404.77" x2="494.42" y2="424.99"/><polyline class="cls-3" points="401.28 482.34 358.73 436.94 361.09 434.73"/><polyline class="cls-3" points="376.95 422.52 436.83 366.39 470.45 402.25 395.09 472.89 361.47 437.03 362.42 436.14"/><line class="cls-3" x1="402.46" y1="481.23" x2="401.28" y2="482.34"/><line class="cls-3" x1="362.42" y1="436.14" x2="361.09" y2="434.73"/><line class="cls-3" x1="376.95" y1="422.52" x2="375.62" y2="421.11"/><polyline class="cls-3" points="375.63 421.11 436.92 363.65 475.46 404.77"/><line class="cls-3" x1="483.36" y1="432.7" x2="484.69" y2="434.12"/><line class="cls-3" x1="472.04" y1="443.32" x2="473.36" y2="444.73"/><line class="cls-3" x1="489.41" y1="422.48" x2="474.05" y2="406.09"/><line class="cls-3" x1="489.41" y1="422.48" x2="490.83" y2="421.16"/><line class="cls-3" x1="474.05" y1="406.09" x2="475.46" y2="404.77"/><line class="cls-3" x1="450.1" y1="439.42" x2="451.51" y2="438.09"/><line class="cls-3" x1="459.83" y1="449.8" x2="461.24" y2="448.47"/><line class="cls-3" x1="431.09" y1="476.74" x2="432.5" y2="475.41"/><polyline class="cls-3" points="431.09 476.74 433.56 479.38 416.08 495.76"/><polyline class="cls-3" points="402.46 481.23 396.18 474.53 413.66 458.14 421.27 466.26"/><polyline class="cls-3" points="422.69 464.93 415.08 456.82 442.4 431.21 462.3 452.44 434.98 478.05 432.5 475.41"/><line class="cls-3" x1="472.04" y1="443.32" x2="463.72" y2="451.12"/><polyline class="cls-3" points="489.41 422.48 491.68 424.9 483.36 432.7"/><line class="cls-3" x1="463.72" y1="451.12" x2="463.72" y2="451.12"/><polyline class="cls-3" points="463.72 451.12 443.81 429.88 471.78 403.67 474.05 406.09"/><line class="cls-3" x1="416.08" y1="495.77" x2="414.91" y2="496.87"/><polyline class="cls-3" points="424.07 431.81 420.75 433.46 422.61 430.25"/><polyline class="cls-3" points="412.01 403.47 415.34 401.82 413.48 405.03"/><line class="cls-3" x1="422.72" y1="414.2" x2="422.02" y2="412.74"/><line class="cls-3" x1="421.36" y1="411.37" x2="420.71" y2="409.99"/><line class="cls-3" x1="420.05" y1="408.62" x2="419.39" y2="407.25"/><line class="cls-3" x1="418.74" y1="405.88" x2="418.08" y2="404.51"/><line class="cls-3" x1="417.42" y1="403.13" x2="416.76" y2="401.76"/><line class="cls-3" x1="416.11" y1="400.39" x2="415.45" y2="399.02"/><line class="cls-3" x1="414.79" y1="397.65" x2="414.14" y2="396.27"/><line class="cls-3" x1="413.48" y1="394.9" x2="412.82" y2="393.53"/><line class="cls-3" x1="412.17" y1="392.16" x2="411.47" y2="390.7"/><line class="cls-3" x1="421.73" y1="415.12" x2="420.94" y2="413.48"/><line class="cls-3" x1="420.29" y1="412.11" x2="419.63" y2="410.74"/><line class="cls-3" x1="418.97" y1="409.37" x2="418.31" y2="407.99"/><line class="cls-3" x1="417.66" y1="406.62" x2="417" y2="405.25"/><line class="cls-3" x1="416.34" y1="403.88" x2="415.69" y2="402.51"/><line class="cls-3" x1="415.03" y1="401.13" x2="414.37" y2="399.76"/><line class="cls-3" x1="413.72" y1="398.39" x2="413.06" y2="397.02"/><line class="cls-3" x1="412.4" y1="395.65" x2="411.75" y2="394.27"/><line class="cls-3" x1="411.09" y1="392.9" x2="410.3" y2="391.26"/><line class="cls-3" x1="416.32" y1="400.9" x2="425.7" y2="392.11"/><line class="cls-3" x1="402.43" y1="413.92" x2="415.33" y2="401.83"/><line class="cls-3" x1="444.03" y1="411.66" x2="421.97" y2="432.32"/><line class="cls-3" x1="421.97" y1="432.32" x2="420.75" y2="433.46"/><line class="cls-3" x1="409.1" y1="423.11" x2="412.06" y2="426.27"/><line class="cls-3" x1="410.14" y1="422.13" x2="394.81" y2="405.78"/><line class="cls-3" x1="437.59" y1="402.34" x2="434.63" y2="399.18"/><line class="cls-3" x1="412.06" y1="426.27" x2="437.59" y2="402.34"/><line class="cls-3" x1="421.44" y1="411.54" x2="434.63" y2="399.18"/><line class="cls-3" x1="409.1" y1="423.11" x2="420.45" y2="412.47"/><line class="cls-3" x1="412.73" y1="419.71" x2="397.4" y2="403.36"/><line class="cls-3" x1="428.42" y1="441.65" x2="413.1" y2="425.3"/><line class="cls-3" x1="451.69" y1="419.84" x2="436.36" y2="403.49"/><line class="cls-3" x1="433.4" y1="400.33" x2="418.07" y2="383.98"/><line class="cls-3" x1="431.01" y1="439.22" x2="415.69" y2="422.87"/><line class="cls-3" x1="433.61" y1="436.79" x2="418.28" y2="420.44"/><line class="cls-3" x1="436.2" y1="434.36" x2="420.87" y2="418.01"/><line class="cls-3" x1="438.79" y1="431.93" x2="423.46" y2="415.58"/><line class="cls-3" x1="441.38" y1="429.51" x2="426.05" y2="413.16"/><line class="cls-3" x1="443.97" y1="427.08" x2="428.64" y2="410.73"/><line class="cls-3" x1="446.56" y1="424.65" x2="431.23" y2="408.3"/><line class="cls-3" x1="449.15" y1="422.22" x2="433.82" y2="405.87"/><line class="cls-3" x1="430.86" y1="402.71" x2="415.53" y2="386.36"/><line class="cls-3" x1="428.27" y1="405.14" x2="412.94" y2="388.79"/><line class="cls-3" x1="425.68" y1="407.57" x2="413.17" y2="394.22"/><line class="cls-3" x1="415.36" y1="401.75" x2="407.76" y2="393.64"/><line class="cls-3" x1="423.09" y1="409.99" x2="418.31" y2="404.9"/><line class="cls-3" x1="420.5" y1="412.42" x2="405.17" y2="396.07"/><line class="cls-3" x1="417.91" y1="414.85" x2="402.58" y2="398.5"/><line class="cls-3" x1="415.32" y1="417.28" x2="399.99" y2="400.93"/><polyline class="cls-3" points="199.34 233.2 196.02 234.84 197.87 231.63"/></g><g class="cls-2"><line class="cls-4" x1="208.74" y1="222.91" x2="196.02" y2="234.84"/></g><g class="cls-2"><line class="cls-3" x1="200.17" y1="241.73" x2="205.03" y2="246.92"/><line class="cls-3" x1="226.36" y1="217.18" x2="231.22" y2="222.37"/><polyline class="cls-3" points="231.69 230.52 235.02 228.88 233.16 232.09"/><polyline class="cls-3" points="212.53 220.84 209.2 222.48 211.06 219.27"/><line class="cls-3" x1="216.56" y1="226.36" x2="214.69" y2="225.54"/><line class="cls-3" x1="213.3" y1="224.92" x2="211.91" y2="224.31"/><line class="cls-3" x1="210.52" y1="223.69" x2="209.13" y2="223.08"/><line class="cls-3" x1="207.73" y1="222.47" x2="206.34" y2="221.85"/><line class="cls-3" x1="204.95" y1="221.24" x2="203.56" y2="220.62"/><line class="cls-3" x1="202.17" y1="220.01" x2="200.3" y2="219.18"/><line class="cls-3" x1="231.22" y1="222.37" x2="231.22" y2="222.37"/><line class="cls-3" x1="231.22" y1="222.37" x2="205.03" y2="246.92"/></g><g class="cls-2"><line class="cls-4" x1="200.17" y1="241.73" x2="200.17" y2="241.73"/><line class="cls-4" x1="216.56" y1="226.36" x2="200.17" y2="241.73"/></g><g class="cls-2"><line class="cls-3" x1="226.36" y1="217.18" x2="217.03" y2="225.92"/><line class="cls-3" x1="217.03" y1="225.92" x2="215.16" y2="225.1"/><line class="cls-3" x1="213.77" y1="224.48" x2="212.38" y2="223.87"/><line class="cls-3" x1="210.99" y1="223.25" x2="209.6" y2="222.64"/><line class="cls-3" x1="208.21" y1="222.02" x2="206.81" y2="221.41"/><line class="cls-3" x1="205.42" y1="220.79" x2="204.03" y2="220.18"/><line class="cls-3" x1="202.64" y1="219.56" x2="200.77" y2="218.74"/><line class="cls-3" x1="230" y1="223.52" x2="240.48" y2="234.71"/><line class="cls-3" x1="227.36" y1="225.99" x2="237.84" y2="237.18"/><line class="cls-3" x1="224.72" y1="228.47" x2="235.21" y2="239.65"/><line class="cls-3" x1="222.09" y1="230.94" x2="232.57" y2="242.12"/><line class="cls-3" x1="219.45" y1="233.41" x2="229.93" y2="244.59"/><line class="cls-3" x1="216.81" y1="235.88" x2="227.29" y2="247.07"/><line class="cls-3" x1="214.17" y1="238.35" x2="224.66" y2="249.54"/><line class="cls-3" x1="211.54" y1="240.83" x2="222.02" y2="252.01"/><line class="cls-3" x1="208.9" y1="243.3" x2="219.38" y2="254.48"/></g><g class="cls-2"><line class="cls-4" x1="213.94" y1="206.39" x2="225.13" y2="218.33"/><line class="cls-4" x1="211.3" y1="208.86" x2="222.5" y2="220.8"/><line class="cls-4" x1="208.67" y1="211.34" x2="219.86" y2="223.28"/><line class="cls-4" x1="206.03" y1="213.81" x2="217.22" y2="225.75"/><line class="cls-4" x1="210.22" y1="223.56" x2="214.58" y2="228.22"/><line class="cls-4" x1="203.39" y1="216.28" x2="209.18" y2="222.45"/><line class="cls-4" x1="201.77" y1="219.83" x2="211.95" y2="230.69"/><line class="cls-4" x1="198.12" y1="221.22" x2="209.31" y2="233.16"/><line class="cls-4" x1="195.48" y1="223.7" x2="206.67" y2="235.64"/><line class="cls-4" x1="192.84" y1="226.17" x2="204.03" y2="238.11"/><line class="cls-4" x1="219.76" y1="212.6" x2="209.22" y2="222.47"/></g><g class="cls-2"><line class="cls-3" x1="206.26" y1="245.77" x2="216.74" y2="256.95"/></g><g class="cls-2"><line class="cls-4" x1="190.21" y1="228.64" x2="201.4" y2="240.58"/><line class="cls-4" x1="211.28" y1="251.13" x2="235.02" y2="228.88"/></g><g class="cls-2"><line class="cls-3" x1="236.98" y1="186.57" x2="236.1" y2="185.62"/><line class="cls-3" x1="236.98" y1="186.57" x2="238.4" y2="185.24"/><line class="cls-3" x1="246.54" y1="193.92" x2="245.12" y2="195.25"/><line class="cls-3" x1="203.94" y1="268.96" x2="262.64" y2="213.94"/><line class="cls-3" x1="177.4" y1="240.65" x2="203.94" y2="268.96"/><line class="cls-3" x1="236.1" y1="185.62" x2="177.4" y2="240.65"/><line class="cls-3" x1="262.64" y1="213.94" x2="245.12" y2="195.25"/><line class="cls-3" x1="203.94" y1="268.96" x2="262.64" y2="213.94"/><line class="cls-3" x1="177.4" y1="240.65" x2="203.94" y2="268.96"/><line class="cls-3" x1="236.1" y1="185.62" x2="177.4" y2="240.65"/><line class="cls-3" x1="262.64" y1="213.94" x2="245.12" y2="195.25"/><polyline class="cls-3" points="273.44 233.69 288.66 249.92 292.76 246.07 277.55 229.84 273.44 233.69"/><line class="cls-3" x1="273.06" y1="225.05" x2="274.47" y2="223.72"/><line class="cls-3" x1="265.8" y1="217.31" x2="267.22" y2="215.98"/><line class="cls-3" x1="271.44" y1="232.02" x2="271.08" y2="231.64"/><line class="cls-3" x1="271.08" y1="231.64" x2="270.94" y2="231.78"/><line class="cls-3" x1="270.41" y1="231.21" x2="270.98" y2="230.68"/><line class="cls-3" x1="270.94" y1="231.78" x2="270.41" y2="231.21"/><line class="cls-3" x1="271.86" y1="231.62" x2="271.44" y2="232.02"/><line class="cls-3" x1="270.98" y1="230.68" x2="271.86" y2="231.62"/><line class="cls-3" x1="266.06" y1="237.06" x2="265.68" y2="237.42"/><line class="cls-3" x1="265.68" y1="237.42" x2="265.32" y2="237.04"/><line class="cls-3" x1="265.32" y1="237.04" x2="265.47" y2="236.91"/><line class="cls-3" x1="264.93" y1="236.34" x2="264.37" y2="236.87"/><line class="cls-3" x1="265.47" y1="236.91" x2="264.93" y2="236.34"/><line class="cls-3" x1="265.25" y1="237.81" x2="265.68" y2="237.42"/><line class="cls-3" x1="264.37" y1="236.87" x2="265.25" y2="237.81"/><line class="cls-3" x1="265.25" y1="237.81" x2="264.37" y2="236.87"/><line class="cls-3" x1="271.86" y1="231.62" x2="270.98" y2="230.68"/><line class="cls-3" x1="205.26" y1="270.38" x2="206.15" y2="271.32"/><line class="cls-3" x1="422.68" y1="464.93" x2="421.27" y2="466.26"/><line class="cls-3" x1="432.5" y1="475.41" x2="431.09" y2="476.74"/><line class="cls-3" x1="457.25" y1="571.18" x2="458.14" y2="572.12"/><line class="cls-3" x1="457.25" y1="571.18" x2="458.14" y2="572.12"/><polyline class="cls-3" points="104.3 102.61 103.08 103.76 103.96 104.7 105.19 103.55 104.3 102.61"/><line class="cls-3" x1="104.74" y1="103.08" x2="116.26" y2="92.29"/><line class="cls-3" x1="92" y1="115.02" x2="103.52" y2="104.23"/></g><g class="cls-2"><line class="cls-5" x1="349.54" y1="288.68" x2="349.54" y2="288.68"/><line class="cls-5" x1="349.54" y1="288.68" x2="349.54" y2="288.68"/></g><g class="cls-2"><line class="cls-3" x1="266.73" y1="467.18" x2="267.62" y2="468.13"/><line class="cls-3" x1="453.88" y1="571.36" x2="454.82" y2="570.48"/><line class="cls-3" x1="523.87" y1="458.3" x2="524.81" y2="457.41"/><line class="cls-3" x1="471.79" y1="557.56" x2="472.67" y2="558.5"/><line class="cls-3" x1="487.13" y1="472.88" x2="488.01" y2="473.82"/><line class="cls-3" x1="479.33" y1="481.96" x2="478.45" y2="481.01"/><line class="cls-3" x1="303.42" y1="254.61" x2="302.48" y2="255.49"/><line class="cls-3" x1="311.56" y1="263.29" x2="310.62" y2="264.17"/><line class="cls-3" x1="241.89" y1="312.29" x2="242.83" y2="311.4"/><line class="cls-3" x1="250.03" y1="320.97" x2="250.97" y2="320.08"/><line class="cls-3" x1="103.5" y1="203.23" x2="116.21" y2="216.79"/><line class="cls-3" x1="89.63" y1="188.43" x2="102.35" y2="202"/><polyline class="cls-3" points="101.87 202.44 103.02 203.67 103.97 202.78 102.82 201.56 101.87 202.44"/><line class="cls-3" x1="199.92" y1="144.18" x2="201.25" y2="145.6"/><line class="cls-3" x1="201.25" y1="145.6" x2="141.13" y2="201.95"/><line class="cls-3" x1="199.92" y1="144.18" x2="138.38" y2="201.86"/><line class="cls-3" x1="176.07" y1="239.23" x2="141.13" y2="201.95"/><line class="cls-3" x1="174.65" y1="240.56" x2="138.38" y2="201.86"/><line class="cls-3" x1="381.89" y1="197.59" x2="394.6" y2="211.16"/><line class="cls-3" x1="368.02" y1="182.8" x2="380.74" y2="196.36"/><line class="cls-3" x1="493.47" y1="644.71" x2="508.85" y2="630.29"/><line class="cls-3" x1="151.46" y1="59.29" x2="167.22" y2="44.52"/><line class="cls-3" x1="409.1" y1="200.76" x2="397.9" y2="211.26"/><line class="cls-3" x1="262.42" y1="478.32" x2="251.04" y2="488.98"/><line class="cls-3" x1="103.15" y1="232.23" x2="116.11" y2="220.09"/><line class="cls-3" x1="88.97" y1="245.52" x2="101.93" y2="233.38"/><line class="cls-3" x1="277.52" y1="491.02" x2="292.29" y2="506.79"/><line class="cls-3" x1="265.71" y1="478.43" x2="276.37" y2="489.8"/><line class="cls-3" x1="557.97" y1="487.58" x2="570.68" y2="501.15"/><line class="cls-3" x1="544.1" y1="472.79" x2="556.82" y2="486.36"/><line class="cls-3" x1="558.92" y1="455.71" x2="572.4" y2="443.07"/><line class="cls-3" x1="544.21" y1="469.5" x2="557.69" y2="456.86"/><line class="cls-3" x1="352.1" y1="165.81" x2="366.87" y2="181.57"/><line class="cls-3" x1="336.17" y1="148.82" x2="350.95" y2="164.58"/><polyline class="cls-3" points="504.94 241.24 508.48 245.02 514.14 239.71 510.6 235.94 504.94 241.24"/><polyline class="cls-3" points="568.63 309.19 572.17 312.97 577.83 307.66 574.29 303.89 568.63 309.19"/><polyline class="cls-3" points="409.75 328.51 412.41 331.35 406.74 336.65 404.09 333.82 409.75 328.51"/><polyline class="cls-3" points="412.58 331.53 415.24 334.37 409.57 339.67 406.92 336.84 412.58 331.53"/><polyline class="cls-3" points="182.35 288.3 185.89 292.08 191.56 286.77 188.02 283 182.35 288.3"/><polyline class="cls-3" points="246.05 356.26 249.59 360.03 255.25 354.72 251.71 350.95 246.05 356.26"/><polyline class="cls-3" points="82.31 382.07 85.85 385.85 91.51 380.54 87.97 376.77 82.31 382.07"/><polyline class="cls-3" points="146.01 450.03 149.54 453.8 155.21 448.5 151.67 444.72 146.01 450.03"/><polyline class="cls-3" points="264.29 474.08 265.24 473.19 265.18 475.02 264.29 474.08"/><polyline class="cls-3" points="263.34 473.02 264.22 473.96 263.28 474.85 263.34 473.02"/><polyline class="cls-3" points="262.54 472.17 264.31 474.06 268.09 470.52 266.32 468.63 262.54 472.17"/><polyline class="cls-3" points="260.6 470.1 262.37 471.98 266.14 468.44 264.37 466.56 260.6 470.1"/><polyline class="cls-3" points="308.77 423.17 311.42 426 317.08 420.69 314.43 417.86 308.77 423.17"/><polyline class="cls-3" points="311.6 426.19 314.25 429.02 319.92 423.71 317.26 420.88 311.6 426.19"/><polyline class="cls-3" points="341.37 266.91 344.91 270.68 348.68 267.14 345.14 263.37 341.37 266.91"/><polyline class="cls-3" points="264.08 477.64 265.97 475.87 264.2 473.98 262.31 475.75 264.08 477.64"/><polyline class="cls-3" points="116.89 218.46 118.78 216.69 120.55 218.58 118.66 220.35 116.89 218.46"/><line class="cls-3" x1="120.55" y1="218.58" x2="120.55" y2="218.58"/><polyline class="cls-3" points="120.55 218.58 121.49 217.7 119.66 217.64 120.55 218.58 119.6 219.47 121.43 219.53 120.55 218.58"/><polyline class="cls-3" points="396.23 211.94 398 213.83 396.11 215.6 394.34 213.71 396.23 211.94"/><line class="cls-3" x1="396.11" y1="215.6" x2="396.11" y2="215.6"/><polyline class="cls-3" points="396.11 215.6 396.99 216.54 397.05 214.71 396.11 215.6 395.22 214.66 395.17 216.48 396.11 215.6"/><polyline class="cls-3" points="543.42 471.12 541.65 469.23 539.76 471 541.53 472.89 543.42 471.12"/><line class="cls-3" x1="640.13" y1="372.23" x2="640.13" y2="372.23"/><polyline class="cls-3" points="640.13 372.23 639.18 373.11 641.53 375.62 639.03 377.96 639.91 378.9 643.36 375.67 640.13 372.23"/><polyline class="cls-3" points="443.52 169.38 444.41 170.33 446.91 167.98 449.25 170.49 450.2 169.6 446.97 166.16 443.52 169.38"/><line class="cls-3" x1="207.37" y1="14.24" x2="207.37" y2="14.24"/><line class="cls-3" x1="207.37" y1="14.24" x2="207.37" y2="14.24"/><polyline class="cls-3" points="201.64 13.14 202.53 14.09 205.03 11.74 207.37 14.24 208.31 13.36 205.09 9.91 201.64 13.14"/><line class="cls-3" x1="58.25" y1="154.02" x2="58.25" y2="154.02"/><polyline class="cls-3" points="58.25 154.02 59.2 153.13 56.85 150.63 59.35 148.29 58.47 147.34 55.02 150.57 58.25 154.02"/><line class="cls-3" x1="16.79" y1="314.06" x2="16.79" y2="314.06"/><polyline class="cls-3" points="16.79 314.06 20.02 317.51 20.96 316.62 18.62 314.12 21.12 311.78 20.24 310.83 16.79 314.06"/><line class="cls-3" x1="213.18" y1="523.58" x2="213.18" y2="523.58"/><polyline class="cls-3" points="213.18 523.58 209.95 520.14 210.9 519.25 213.24 521.75 215.74 519.41 216.63 520.35 213.18 523.58"/><line class="cls-3" x1="455.22" y1="679.67" x2="455.22" y2="679.67"/><polyline class="cls-3" points="455.23 679.67 452 676.23 452.94 675.34 455.28 677.84 457.79 675.5 458.67 676.44 455.23 679.67"/><line class="cls-3" x1="605.29" y1="539.01" x2="605.29" y2="539.01"/><polyline class="cls-3" points="605.29 539.01 601.84 542.24 600.96 541.3 603.46 538.95 601.11 536.45 602.06 535.57 605.29 539.01"/><line class="cls-3" x1="539.76" y1="471" x2="539.76" y2="471"/><polyline class="cls-3" points="539.76 471 538.88 470.06 540.71 470.12 539.76 471 540.65 471.94 538.82 471.88 539.76 471"/><polyline class="cls-3" points="608.94 539.13 455.11 683.33 264.02 479.47 213.06 527.24 13.13 313.95 115.06 218.41 51.37 150.45 205.2 6.26 396.29 210.11 447.08 162.5 647.01 375.79 545.25 471.18 608.94 539.13"/><polyline class="cls-3" points="607.12 539.07 455.17 681.5 264.08 477.64 213.12 525.41 14.96 314 116.89 218.46 53.2 150.51 205.15 8.09 396.23 211.94 447.02 164.33 645.18 375.73 543.42 471.12 607.12 539.07"/><polyline class="cls-3" points="605.29 539.01 455.23 679.67 264.14 475.81 213.18 523.58 16.79 314.06 118.72 218.52 55.02 150.57 205.09 9.91 396.17 213.77 446.97 166.16 643.36 375.67 541.59 471.06 605.29 539.01"/><polyline class="cls-3" points="293.97 505.74 264.2 473.98 213.24 521.75 18.62 314.12 120.55 218.58 56.85 150.63 205.03 11.74 396.11 215.6 446.91 167.98 641.53 375.62 539.76 471 603.46 538.95"/><polyline class="cls-3" points="603.46 538.95 455.28 677.84 294.59 506.4"/><line class="cls-3" x1="236.76" y1="306.81" x2="240.69" y2="311.01"/><line class="cls-3" x1="215.52" y1="284.16" x2="227.73" y2="297.19"/><line class="cls-3" x1="174.65" y1="240.56" x2="204.73" y2="272.65"/><line class="cls-3" x1="238.4" y1="185.24" x2="236.19" y2="182.88"/><line class="cls-3" x1="267.22" y1="215.98" x2="246.54" y2="193.92"/><line class="cls-3" x1="302.23" y1="253.33" x2="274.47" y2="223.72"/><line class="cls-3" x1="205.26" y1="270.38" x2="263.97" y2="215.35"/><line class="cls-3" x1="206.15" y1="271.32" x2="205.26" y2="270.38"/><line class="cls-3" x1="229.15" y1="295.86" x2="216.94" y2="282.83"/><line class="cls-3" x1="240.78" y1="308.27" x2="238.17" y2="305.48"/><line class="cls-3" x1="299.48" y1="253.24" x2="240.78" y2="308.27"/><line class="cls-3" x1="273.06" y1="225.05" x2="299.48" y2="253.24"/><line class="cls-3" x1="263.97" y1="215.35" x2="265.8" y2="217.31"/><line class="cls-3" x1="302.23" y1="253.33" x2="240.69" y2="311.01"/><line class="cls-3" x1="176.07" y1="239.23" x2="236.19" y2="182.88"/><polyline class="cls-3" points="439.02 558.34 442.56 562.12 447.27 557.7 443.74 553.92 439.02 558.34"/><polyline class="cls-3" points="375.32 490.39 378.86 494.17 382.64 490.63 379.1 486.85 375.32 490.39"/><polyline class="cls-3" points="209.7 517.98 213.24 521.75 217.01 518.22 213.48 514.44 209.7 517.98"/><polyline class="cls-3" points="18.62 314.12 22.16 317.9 25.93 314.36 22.39 310.58 18.62 314.12"/><polyline class="cls-3" points="120.55 218.58 124.09 222.36 128.81 217.93 125.27 214.16 120.55 218.58"/><polyline class="cls-3" points="56.85 150.63 60.39 154.41 64.17 150.87 60.63 147.09 56.85 150.63"/><polyline class="cls-3" points="277.68 198.96 281.21 202.73 284.99 199.19 281.45 195.42 277.68 198.96"/><polyline class="cls-3" points="213.98 131 217.52 134.78 221.29 131.24 217.76 127.47 213.98 131"/><polyline class="cls-3" points="150.29 63.05 153.83 66.83 157.6 63.29 154.06 59.51 150.29 63.05"/><polyline class="cls-3" points="324.36 538.16 327.9 541.94 331.67 538.4 328.13 534.62 324.36 538.16"/><polyline class="cls-3" points="388.05 606.11 391.59 609.89 395.37 606.35 391.83 602.58 388.05 606.11"/><polyline class="cls-3" points="451.75 674.07 455.28 677.84 459.06 674.3 455.52 670.53 451.75 674.07"/><polyline class="cls-3" points="502.71 626.29 506.25 630.07 510.02 626.53 506.49 622.76 502.71 626.29"/><polyline class="cls-3" points="596.14 538.72 599.68 542.49 603.46 538.95 599.92 535.18 596.14 538.72"/><polyline class="cls-3" points="532.45 470.76 535.99 474.54 539.76 471 536.23 467.23 532.45 470.76"/><polyline class="cls-3" points="634.21 375.38 637.75 379.15 641.53 375.62 637.99 371.84 634.21 375.38"/><polyline class="cls-3" points="443.13 171.52 446.67 175.3 450.45 171.76 446.91 167.98 443.13 171.52"/><polyline class="cls-3" points="392.33 219.14 395.87 222.91 399.65 219.37 396.11 215.6 392.33 219.14"/><polyline class="cls-3" points="328.64 151.19 332.18 154.96 335.95 151.42 332.41 147.65 328.64 151.19"/><polyline class="cls-3" points="264.94 83.23 268.48 87.01 272.26 83.47 268.72 79.69 264.94 83.23"/><polyline class="cls-3" points="201.25 15.28 204.79 19.06 208.56 15.52 205.03 11.74 201.25 15.28"/></g></svg>