<svg id="Layer_1" data-name="Layer 1" xmlns="http://www.w3.org/2000/svg" xmlns:xlink="http://www.w3.org/1999/xlink" viewBox="0 0 657.53 697.26"><defs><style>.cls-1,.cls-3,.cls-5,.cls-6{fill:none;}.cls-2{clip-path:url(#clip-path);}.cls-3,.cls-5,.cls-6{stroke:#010101;stroke-linecap:round;stroke-linejoin:round;}.cls-3{stroke-width:0.25px;}.cls-4{fill:#010101;fill-rule:evenodd;}.cls-5{stroke-width:0.13px;}.cls-6{stroke-width:0.15px;}</style><clipPath id="clip-path"><rect class="cls-1" x="38.36" y="-58.56" width="600" height="800" transform="translate(-142.07 325.43) rotate(-43.35)"/></clipPath></defs><g class="cls-2"><polyline class="cls-3" points="232.03 150.11 247.57 166.57 231.25 181.98 234.27 185.18 172.7 243.3 172.32 242.9 155.95 258.36 137.76 239.09 154.38 223.41 158.97 228.28 220.01 170.66 215.42 165.79 232.03 150.11"/><polyline class="cls-3" points="147.33 63.26 150.94 67.08 152.37 65.72 213.65 130.63 212.21 131.99 215.82 135.8 217.25 134.45 231.13 149.15 213.56 165.73 218.16 170.6 159.02 226.43 154.43 221.56 136.86 238.14 122.99 223.44 126.09 220.51 122.48 216.69 118.67 220.29 116.81 220.24 56.44 156.29 60.25 152.68 56.65 148.86 147.33 63.26"/><line class="cls-3" x1="261.89" y1="215.97" x2="261.89" y2="215.97"/><polyline class="cls-3" points="261.89 215.97 202.52 272.02 203.55 249.65 230.04 224.64 225.09 219.39 199.84 243.23 198.6 244.4 203.55 249.65 202.52 272.02 175.48 243.38 234.86 187.33 236.16 188.72 236.54 188.36 236.97 188.23 244.69 196.46 244.05 197.07 245.4 198.5 242.44 201.29 246.32 205.4 249.27 202.6 261.89 215.97"/><polyline class="cls-3" points="397.23 478.28 362.99 442.01 439.21 370.05 437.09 403.33 411.79 427.21 414.81 430.41 440.11 406.53 437.09 403.33 439.21 370.05 473.45 406.33 397.23 478.28 362.99 442.01"/><polyline class="cls-3" points="275.27 230.14 292.57 248.47 280.98 259.42 264.21 241.66 275.81 230.72"/><polyline class="cls-3" points="239.14 240.15 247.16 248.65 231.55 263.38 223.53 254.89 239.14 240.15"/><polyline class="cls-3" points="274.37 229.19 251.22 251.04 240.09 239.25 263.24 217.4 274.37 229.19"/><polyline class="cls-3" points="209.81 285.03 209.83 285.02 209.85 285 209.87 284.98 209.88 284.96 209.88 284.93 209.89 284.91 209.88 284.88 209.88 284.86"/><polyline class="cls-3" points="210.09 285.34 210.16 285.3 210.22 285.25 210.26 285.19 210.3 285.12 210.32 285.04 210.32 284.97 210.31 284.89 210.29 284.82"/><line class="cls-3" x1="210.09" y1="285.34" x2="209.49" y2="285.6"/><line class="cls-3" x1="209.81" y1="285.03" x2="209.33" y2="285.25"/><line class="cls-3" x1="204.77" y1="274.41" x2="203.34" y2="275.76"/></g><g class="cls-2"><path class="cls-4" d="M281.88,262.9l0,0h0Z"/><path class="cls-4" d="M281.88,262.9l0,0-.05.05Z"/><path class="cls-4" d="M281.87,262.92l.05-.05h0Z"/><path class="cls-4" d="M281.87,262.92l.07-.06-.08.09Z"/><path class="cls-4" d="M281.86,263l.08-.09h0Z"/><path class="cls-4" d="M281.86,263l.11-.1-.11.12Z"/><path class="cls-4" d="M281.86,263l.11-.12h0Z"/><path class="cls-4" d="M281.86,263l.13-.12-.13.15Z"/><path class="cls-4" d="M281.86,263l.13-.15h0Z"/><path class="cls-4" d="M281.86,263l.16-.15-.16.17Z"/><path class="cls-4" d="M281.86,263l.16-.17h0Z"/><path class="cls-4" d="M281.86,263l.18-.16-.16.19Z"/><path class="cls-4" d="M281.88,263.05l.16-.19h0Z"/><path class="cls-4" d="M281.88,263.05l.18-.18-.17.2Z"/><path class="cls-4" d="M281.89,263.07l.17-.2,0,0Z"/><path class="cls-4" d="M281.89,263.07l.19-.18-.17.2Z"/><path class="cls-4" d="M281.91,263.09l.17-.2,0,0Z"/><path class="cls-4" d="M281.91,263.09l.19-.18-.17.19Z"/><path class="cls-4" d="M281.93,263.1l.17-.19v0Z"/><path class="cls-4" d="M281.93,263.1l.18-.17-.15.18Z"/><path class="cls-4" d="M282,263.11l.15-.18v0Z"/><path class="cls-4" d="M282,263.11l.16-.15-.14.15Z"/><path class="cls-4" d="M282,263.11l.14-.15v0Z"/><path class="cls-4" d="M282,263.11l.14-.13-.11.13Z"/><path class="cls-4" d="M282,263.11l.11-.13v0Z"/><path class="cls-4" d="M282,263.11l.11-.1-.09.09Z"/><path class="cls-4" d="M282,263.1l.09-.09v0Z"/><path class="cls-4" d="M282,263.1l.08-.07-.05.06Z"/><path class="cls-4" d="M282.06,263.09l.05-.06,0,0Z"/><path class="cls-4" d="M282.06,263.09l0,0v0Z"/><path class="cls-4" d="M282.22,263.3l0,0,0,0Z"/><path class="cls-4" d="M282.22,263.3l.08-.07-.1.12Z"/><path class="cls-4" d="M282.2,263.35l.1-.12,0,0Z"/><path class="cls-4" d="M282.2,263.35l.14-.14-.16.19Z"/><path class="cls-4" d="M282.18,263.4l.16-.19h.05Z"/><path class="cls-4" d="M282.18,263.4l.21-.2-.21.25Z"/><path class="cls-4" d="M282.18,263.45l.21-.25h.06Z"/><path class="cls-4" d="M282.18,263.45l.27-.26-.27.31Z"/><path class="cls-4" d="M282.18,263.5l.27-.31h.05Z"/><path class="cls-4" d="M282.18,263.5l.32-.3-.31.35Z"/><path class="cls-4" d="M282.19,263.55l.31-.35.05,0Z"/><path class="cls-4" d="M282.19,263.55l.36-.33-.33.37Z"/><path class="cls-4" d="M282.22,263.59l.33-.37,0,0Z"/><path class="cls-4" d="M282.22,263.59l.37-.35-.34.4Z"/><path class="cls-4" d="M282.25,263.64l.34-.4,0,0Z"/><path class="cls-4" d="M282.25,263.64l.38-.37-.34.4Z"/><path class="cls-4" d="M282.29,263.67l.34-.4,0,.05Z"/><path class="cls-4" d="M282.29,263.67l.37-.35-.33.37Z"/><path class="cls-4" d="M282.33,263.69l.33-.37,0,0Z"/><path class="cls-4" d="M282.33,263.69l.35-.33-.3.35Z"/><path class="cls-4" d="M282.38,263.71l.3-.35,0,.05Z"/><path class="cls-4" d="M282.38,263.71l.32-.3-.27.31Z"/><path class="cls-4" d="M282.43,263.72l.27-.31v0Z"/><path class="cls-4" d="M282.43,263.72l.27-.26-.22.25Z"/><path class="cls-4" d="M282.48,263.71l.22-.25v.05Z"/><path class="cls-4" d="M282.48,263.71l.21-.2-.16.19Z"/><path class="cls-4" d="M282.53,263.7l.16-.19v.05Z"/><path class="cls-4" d="M282.53,263.7l.15-.14-.1.12Z"/><path class="cls-4" d="M282.58,263.68l.1-.12,0,.05Z"/><path class="cls-4" d="M282.58,263.68l.07-.07,0,0Z"/><path class="cls-4" d="M282.78,263.86l0,0,0,0Z"/><path class="cls-4" d="M282.78,263.86l0,0-.05.06Z"/><path class="cls-4" d="M282.77,263.88l.05-.06h0Z"/><path class="cls-4" d="M282.77,263.88l.07-.07-.08.09Z"/><path class="cls-4" d="M282.76,263.9l.08-.09h0Z"/><path class="cls-4" d="M282.76,263.9l.11-.1-.11.13Z"/><path class="cls-4" d="M282.76,263.93l.11-.13h0Z"/><path class="cls-4" d="M282.76,263.93l.13-.13-.13.15Z"/><path class="cls-4" d="M282.76,264l.13-.15h0Z"/><path class="cls-4" d="M282.76,264l.16-.15-.15.18Z"/><path class="cls-4" d="M282.77,264l.15-.18h0Z"/><path class="cls-4" d="M282.77,264l.17-.17-.16.19Z"/><path class="cls-4" d="M282.78,264l.16-.19,0,0Z"/><path class="cls-4" d="M282.78,264l.19-.17-.18.19Z"/><path class="cls-4" d="M282.79,264l.18-.19h0Z"/><path class="cls-4" d="M282.79,264l.19-.18-.17.2Z"/><path class="cls-4" d="M282.81,264l.17-.2,0,0Z"/><path class="cls-4" d="M282.81,264l.19-.18-.17.19Z"/><path class="cls-4" d="M282.83,264.05l.17-.19v0Z"/><path class="cls-4" d="M282.83,264.05l.18-.16-.15.17Z"/><path class="cls-4" d="M282.86,264.06l.15-.17v0Z"/><path class="cls-4" d="M282.86,264.06l.16-.15-.14.15Z"/><path class="cls-4" d="M282.88,264.06l.14-.15v0Z"/><path class="cls-4" d="M282.88,264.06l.14-.12-.11.12Z"/><path class="cls-4" d="M282.91,264.06l.11-.12v0Z"/><path class="cls-4" d="M282.91,264.06l.11-.1-.08.1Z"/><path class="cls-4" d="M282.94,264.06l.08-.1v0Z"/><path class="cls-4" d="M282.94,264.06,283,264,283,264Z"/><path class="cls-4" d="M283,264,283,264v0Z"/><path class="cls-4" d="M283,264l0,0,0,0Z"/></g><g class="cls-2"><polyline class="cls-3" points="282.26 263.26 282.22 263.3 282.2 263.35 282.18 263.4 282.18 263.45 282.18 263.5 282.19 263.55 282.22 263.6 282.25 263.63 282.29 263.67 282.33 263.69 282.38 263.71 282.43 263.72 282.48 263.71 282.53 263.7 282.58 263.68 282.62 263.65 282.65 263.61 282.68 263.56 282.69 263.51 282.7 263.46 282.7 263.41 282.68 263.36 282.66 263.31 282.63 263.27 282.59 263.24 282.55 263.21 282.5 263.2 282.45 263.19 282.39 263.2 282.35 263.21 282.3 263.23 282.26 263.26"/><polyline class="cls-3" points="281.9 262.88 281.88 262.9 281.87 262.92 281.86 262.95 281.86 262.98 281.86 263 281.87 263.02 281.88 263.05 281.89 263.07 281.91 263.08 281.93 263.1 281.96 263.11 281.98 263.11 282.01 263.11 282.04 263.1 282.06 263.09 282.08 263.07 282.1 263.05 282.11 263.03 282.12 263.01 282.12 262.98 282.12 262.96 282.11 262.93 282.1 262.91 282.08 262.89 282.06 262.87 282.04 262.86 282.02 262.85 281.99 262.85 281.97 262.85 281.94 262.86 281.92 262.87 281.9 262.88"/><polyline class="cls-3" points="282.8 263.84 282.78 263.86 282.77 263.88 282.76 263.9 282.76 263.93 282.76 263.95 282.77 263.98 282.78 264 282.79 264.02 282.81 264.04 282.83 264.05 282.86 264.06 282.88 264.06 282.91 264.06 282.94 264.06 282.96 264.04 282.98 264.03 283 264.01 283.01 263.99 283.02 263.96 283.02 263.94 283.02 263.91 283.01 263.89 283 263.86 282.98 263.84 282.96 263.83 282.94 263.81 282.92 263.81 282.89 263.8 282.87 263.8 282.84 263.81 282.82 263.82 282.8 263.84"/></g><g class="cls-2"><path class="cls-4" d="M236.23,267.57h0v0Z"/><path class="cls-4" d="M236.23,267.57l0,0,.06,0Z"/><path class="cls-4" d="M236.26,267.59l-.06,0v0Z"/><path class="cls-4" d="M236.26,267.59l-.07-.08.09.08Z"/><path class="cls-4" d="M236.28,267.59l-.09-.08v0Z"/><path class="cls-4" d="M236.28,267.59l-.1-.1.13.11Z"/><path class="cls-4" d="M236.31,267.6l-.13-.11v0Z"/><path class="cls-4" d="M236.31,267.6l-.13-.14.15.14Z"/><path class="cls-4" d="M236.33,267.6l-.15-.14v0Z"/><path class="cls-4" d="M236.33,267.6l-.15-.16.18.15Z"/><path class="cls-4" d="M236.36,267.59l-.18-.15v0Z"/><path class="cls-4" d="M236.36,267.59l-.17-.18.19.17Z"/><path class="cls-4" d="M236.38,267.58l-.19-.17v0Z"/><path class="cls-4" d="M236.38,267.58l-.18-.19.2.17Z"/><path class="cls-4" d="M236.4,267.56l-.2-.17,0,0Z"/><path class="cls-4" d="M236.4,267.56l-.18-.19.2.17Z"/><path class="cls-4" d="M236.42,267.54l-.2-.17h0Z"/><path class="cls-4" d="M236.42,267.54l-.18-.18.19.16Z"/><path class="cls-4" d="M236.43,267.52l-.19-.16,0,0Z"/><path class="cls-4" d="M236.43,267.52l-.17-.18.18.16Z"/><path class="cls-4" d="M236.44,267.5l-.18-.16h0Z"/><path class="cls-4" d="M236.44,267.5l-.15-.16.15.13Z"/><path class="cls-4" d="M236.44,267.47l-.15-.13h0Z"/><path class="cls-4" d="M236.44,267.47l-.13-.13.13.1Z"/><path class="cls-4" d="M236.44,267.44l-.13-.1h0Z"/><path class="cls-4" d="M236.44,267.44l-.1-.1.09.08Z"/><path class="cls-4" d="M236.43,267.42l-.09-.08h0Z"/><path class="cls-4" d="M236.43,267.42l-.07-.07.06,0Z"/><path class="cls-4" d="M236.42,267.4l-.06,0h0Z"/><path class="cls-4" d="M236.42,267.4l0,0,0,0Z"/><path class="cls-4" d="M236.64,267.23l0,0,0,0Z"/><path class="cls-4" d="M236.64,267.23l-.08-.07.12.1Z"/><path class="cls-4" d="M236.68,267.26l-.12-.1,0-.05Z"/><path class="cls-4" d="M236.68,267.26l-.14-.15.19.16Z"/><path class="cls-4" d="M236.73,267.27l-.19-.16v-.05Z"/><path class="cls-4" d="M236.73,267.27l-.2-.21.25.22Z"/><path class="cls-4" d="M236.78,267.28l-.25-.22V267Z"/><path class="cls-4" d="M236.78,267.28l-.26-.27.31.27Z"/><path class="cls-4" d="M236.83,267.28l-.31-.27V267Z"/><path class="cls-4" d="M236.83,267.28l-.3-.32.35.3Z"/><path class="cls-4" d="M236.88,267.26l-.35-.3,0,0Z"/><path class="cls-4" d="M236.88,267.26l-.33-.35.38.33Z"/><path class="cls-4" d="M236.93,267.24l-.38-.33,0-.05Z"/><path class="cls-4" d="M236.93,267.24l-.36-.38.4.35Z"/><path class="cls-4" d="M237,267.21l-.4-.35,0,0Z"/><path class="cls-4" d="M237,267.21l-.36-.38.39.34Z"/><path class="cls-4" d="M237,267.17l-.39-.34,0,0Z"/><path class="cls-4" d="M237,267.17l-.35-.38.38.33Z"/><path class="cls-4" d="M237,267.12l-.38-.33,0,0Z"/><path class="cls-4" d="M237,267.12l-.34-.35.35.3Z"/><path class="cls-4" d="M237,267.07l-.35-.3h.05Z"/><path class="cls-4" d="M237,267.07l-.3-.31.31.26Z"/><path class="cls-4" d="M237.05,267l-.31-.26h.06Z"/><path class="cls-4" d="M237.05,267l-.25-.27.25.22Z"/><path class="cls-4" d="M237.05,267l-.25-.22h0Z"/><path class="cls-4" d="M237.05,267l-.2-.21.18.16Z"/><path class="cls-4" d="M237,266.92l-.18-.16.05,0Z"/><path class="cls-4" d="M237,266.92l-.13-.14.11.1Z"/><path class="cls-4" d="M237,266.88l-.11-.1,0,0Z"/><path class="cls-4" d="M237,266.88l-.07-.08,0,0Z"/><path class="cls-4" d="M237.19,266.67h0l0,0Z"/><path class="cls-4" d="M237.19,266.67l0,0,.06.05Z"/><path class="cls-4" d="M237.21,266.69l-.06-.05v0Z"/><path class="cls-4" d="M237.21,266.69l-.07-.08.09.08Z"/><path class="cls-4" d="M237.23,266.69l-.09-.08v0Z"/><path class="cls-4" d="M237.23,266.69l-.09-.1.12.11Z"/><path class="cls-4" d="M237.26,266.7l-.12-.11v0Z"/><path class="cls-4" d="M237.26,266.7l-.13-.14.16.14Z"/><path class="cls-4" d="M237.29,266.7l-.16-.14v0Z"/><path class="cls-4" d="M237.29,266.7l-.15-.16.17.15Z"/><path class="cls-4" d="M237.31,266.69l-.17-.15v0Z"/><path class="cls-4" d="M237.31,266.69l-.17-.18.19.17Z"/><path class="cls-4" d="M237.33,266.68l-.19-.17,0,0Z"/><path class="cls-4" d="M237.33,266.68l-.17-.19.19.17Z"/><path class="cls-4" d="M237.35,266.66l-.19-.17v0Z"/><path class="cls-4" d="M237.35,266.66l-.18-.19.2.17Z"/><path class="cls-4" d="M237.37,266.64l-.2-.17,0,0Z"/><path class="cls-4" d="M237.37,266.64l-.17-.19.18.17Z"/><path class="cls-4" d="M237.38,266.62l-.18-.17h0Z"/><path class="cls-4" d="M237.38,266.62l-.16-.18.17.16Z"/><path class="cls-4" d="M237.39,266.6l-.17-.16h0Z"/><path class="cls-4" d="M237.39,266.6l-.15-.16.16.13Z"/><path class="cls-4" d="M237.4,266.57l-.16-.13h0Z"/><path class="cls-4" d="M237.4,266.57l-.13-.14.12.11Z"/><path class="cls-4" d="M237.39,266.54l-.12-.11h0Z"/><path class="cls-4" d="M237.39,266.54l-.1-.1.1.08Z"/><path class="cls-4" d="M237.39,266.52l-.1-.08h0Z"/><path class="cls-4" d="M237.39,266.52l-.07-.07.06.05Z"/><path class="cls-4" d="M237.38,266.5l-.06-.05h0Z"/><path class="cls-4" d="M237.38,266.5l0,0,0,0Z"/></g><g class="cls-2"><polyline class="cls-3" points="236.61 266.82 236.57 266.86 236.55 266.91 236.53 266.96 236.53 267.01 236.53 267.06 236.54 267.11 236.56 267.16 236.6 267.2 236.63 267.23 236.68 267.26 236.73 267.27 236.78 267.28 236.83 267.27 236.88 267.26 236.93 267.24 236.97 267.21 237 267.17 237.03 267.12 237.04 267.07 237.05 267.02 237.05 266.97 237.03 266.92 237.01 266.88 236.98 266.84 236.94 266.8 236.9 266.78 236.85 266.76 236.79 266.75 236.74 266.76 236.69 266.77 236.65 266.79 236.61 266.82"/><polyline class="cls-3" points="236.22 267.37 236.2 267.39 236.19 267.41 236.18 267.44 236.18 267.46 236.18 267.49 236.19 267.51 236.2 267.54 236.22 267.56 236.23 267.57 236.26 267.59 236.28 267.6 236.31 267.6 236.33 267.6 236.36 267.59 236.38 267.58 236.4 267.56 236.42 267.54 236.43 267.52 236.44 267.5 236.44 267.47 236.44 267.44 236.43 267.42 236.42 267.4 236.41 267.38 236.39 267.36 236.36 267.35 236.34 267.34 236.31 267.34 236.29 267.34 236.26 267.34 236.24 267.36 236.22 267.37"/><polyline class="cls-3" points="237.17 266.47 237.16 266.49 237.15 266.51 237.14 266.54 237.13 266.56 237.13 266.59 237.14 266.61 237.15 266.63 237.17 266.66 237.19 266.67 237.21 266.69 237.24 266.69 237.26 266.7 237.29 266.7 237.31 266.69 237.33 266.68 237.35 266.66 237.37 266.64 237.38 266.62 237.39 266.6 237.4 266.57 237.39 266.54 237.39 266.52 237.38 266.5 237.36 266.48 237.34 266.46 237.32 266.44 237.29 266.44 237.27 266.44 237.24 266.44 237.22 266.44 237.19 266.45 237.17 266.47"/></g><g class="cls-2"><path class="cls-4" d="M244.68,259.6l0,0v0Z"/><path class="cls-4" d="M244.68,259.6l0,0,0,.05Z"/><path class="cls-4" d="M244.7,259.61l0-.05v0Z"/><path class="cls-4" d="M244.7,259.61l-.06-.07.09.08Z"/><path class="cls-4" d="M244.73,259.62l-.09-.08v0Z"/><path class="cls-4" d="M244.73,259.62l-.1-.11.12.11Z"/><path class="cls-4" d="M244.75,259.62l-.12-.11v0Z"/><path class="cls-4" d="M244.75,259.62l-.12-.13.15.13Z"/><path class="cls-4" d="M244.78,259.62l-.15-.13v0Z"/><path class="cls-4" d="M244.78,259.62l-.15-.16.17.15Z"/><path class="cls-4" d="M244.8,259.61l-.17-.15v0Z"/><path class="cls-4" d="M244.8,259.61l-.16-.17.19.16Z"/><path class="cls-4" d="M244.83,259.6l-.19-.16v0Z"/><path class="cls-4" d="M244.83,259.6l-.18-.18.2.17Z"/><path class="cls-4" d="M244.85,259.59l-.2-.17,0,0Z"/><path class="cls-4" d="M244.85,259.59l-.18-.19.19.17Z"/><path class="cls-4" d="M244.86,259.57l-.19-.17,0,0Z"/><path class="cls-4" d="M244.86,259.57l-.17-.19.19.17Z"/><path class="cls-4" d="M244.88,259.55l-.19-.17h0Z"/><path class="cls-4" d="M244.88,259.55l-.17-.18.18.15Z"/><path class="cls-4" d="M244.89,259.52l-.18-.15h0Z"/><path class="cls-4" d="M244.89,259.52l-.15-.16.15.14Z"/><path class="cls-4" d="M244.89,259.5l-.15-.14h0Z"/><path class="cls-4" d="M244.89,259.5l-.13-.14.13.11Z"/><path class="cls-4" d="M244.89,259.47l-.13-.11h0Z"/><path class="cls-4" d="M244.89,259.47l-.1-.11.09.09Z"/><path class="cls-4" d="M244.88,259.45l-.09-.09h0Z"/><path class="cls-4" d="M244.88,259.45l-.07-.08.06.05Z"/><path class="cls-4" d="M244.87,259.42l-.06-.05h0Z"/><path class="cls-4" d="M244.87,259.42l0,0,0,0Z"/><path class="cls-4" d="M245.08,259.26l0,0,0,0Z"/><path class="cls-4" d="M245.08,259.26l-.07-.08.12.1Z"/><path class="cls-4" d="M245.13,259.28l-.12-.1,0-.05Z"/><path class="cls-4" d="M245.13,259.28l-.14-.15.19.17Z"/><path class="cls-4" d="M245.18,259.3l-.19-.17v0Z"/><path class="cls-4" d="M245.18,259.3l-.2-.21.25.21Z"/><path class="cls-4" d="M245.23,259.3l-.25-.21V259Z"/><path class="cls-4" d="M245.23,259.3,245,259l.31.27Z"/><path class="cls-4" d="M245.28,259.3,245,259v0Z"/><path class="cls-4" d="M245.28,259.3,245,259l.35.31Z"/><path class="cls-4" d="M245.33,259.29,245,259l0-.05Z"/><path class="cls-4" d="M245.33,259.29l-.33-.36.37.33Z"/><path class="cls-4" d="M245.37,259.26l-.37-.33,0,0Z"/><path class="cls-4" d="M245.37,259.26l-.35-.37.39.34Z"/><path class="cls-4" d="M245.41,259.23l-.39-.34,0,0Z"/><path class="cls-4" d="M245.41,259.23l-.36-.38.4.34Z"/><path class="cls-4" d="M245.45,259.19l-.4-.34,0,0Z"/><path class="cls-4" d="M245.45,259.19l-.35-.37.37.33Z"/><path class="cls-4" d="M245.47,259.15l-.37-.33,0,0Z"/><path class="cls-4" d="M245.47,259.15l-.33-.35.35.3Z"/><path class="cls-4" d="M245.49,259.1l-.35-.3.05,0Z"/><path class="cls-4" d="M245.49,259.1l-.3-.32.31.27Z"/><path class="cls-4" d="M245.5,259.05l-.31-.27h.05Z"/><path class="cls-4" d="M245.5,259.05l-.26-.27.25.22Z"/><path class="cls-4" d="M245.49,259l-.25-.22h0Z"/><path class="cls-4" d="M245.49,259l-.2-.21.19.16Z"/><path class="cls-4" d="M245.48,259l-.19-.16h.05Z"/><path class="cls-4" d="M245.48,259l-.14-.15.12.1Z"/><path class="cls-4" d="M245.46,258.9l-.12-.1,0,0Z"/><path class="cls-4" d="M245.46,258.9l-.07-.07,0,0Z"/><path class="cls-4" d="M245.64,258.7l0,0,0,0Z"/><path class="cls-4" d="M245.64,258.7l0,0,.06,0Z"/><path class="cls-4" d="M245.66,258.71l-.06,0v0Z"/><path class="cls-4" d="M245.66,258.71l-.07-.07.09.08Z"/><path class="cls-4" d="M245.68,258.72l-.09-.08v0Z"/><path class="cls-4" d="M245.68,258.72l-.1-.11.13.11Z"/><path class="cls-4" d="M245.71,258.72l-.13-.11v0Z"/><path class="cls-4" d="M245.71,258.72l-.13-.13.15.13Z"/><path class="cls-4" d="M245.73,258.72l-.15-.13v0Z"/><path class="cls-4" d="M245.73,258.72l-.15-.16.18.15Z"/><path class="cls-4" d="M245.76,258.71l-.18-.15v0Z"/><path class="cls-4" d="M245.76,258.71l-.17-.17.19.16Z"/><path class="cls-4" d="M245.78,258.7l-.19-.16,0,0Z"/><path class="cls-4" d="M245.78,258.7l-.17-.19.19.18Z"/><path class="cls-4" d="M245.8,258.69l-.19-.18v0Z"/><path class="cls-4" d="M245.8,258.69l-.18-.2.2.18Z"/><path class="cls-4" d="M245.82,258.67l-.2-.18h0Z"/><path class="cls-4" d="M245.82,258.67l-.18-.19.19.16Z"/><path class="cls-4" d="M245.83,258.64l-.19-.16h0Z"/><path class="cls-4" d="M245.83,258.64l-.16-.17.17.15Z"/><path class="cls-4" d="M245.84,258.62l-.17-.15h0Z"/><path class="cls-4" d="M245.84,258.62l-.15-.16.15.13Z"/><path class="cls-4" d="M245.84,258.59l-.15-.13h0Z"/><path class="cls-4" d="M245.84,258.59l-.12-.13.12.11Z"/><path class="cls-4" d="M245.84,258.57l-.12-.11h0Z"/><path class="cls-4" d="M245.84,258.57l-.1-.11.1.08Z"/><path class="cls-4" d="M245.84,258.54l-.1-.08h0Z"/><path class="cls-4" d="M245.84,258.54l-.07-.07,0,0Z"/><path class="cls-4" d="M245.82,258.52l0,0h0Z"/><path class="cls-4" d="M245.82,258.52l0,0,0,0Z"/></g><g class="cls-2"><polyline class="cls-3" points="245.06 258.85 245.02 258.89 245 258.93 244.98 258.98 244.97 259.03 244.98 259.08 244.99 259.13 245.01 259.18 245.04 259.22 245.08 259.25 245.13 259.28 245.18 259.3 245.23 259.3 245.28 259.3 245.33 259.29 245.37 259.26 245.41 259.23 245.45 259.19 245.47 259.15 245.49 259.1 245.5 259.05 245.49 259 245.48 258.95 245.46 258.9 245.43 258.86 245.39 258.83 245.34 258.8 245.29 258.79 245.24 258.78 245.19 258.78 245.14 258.8 245.1 258.82 245.06 258.85"/><polyline class="cls-3" points="244.67 259.4 244.65 259.42 244.64 259.44 244.63 259.46 244.63 259.49 244.63 259.51 244.63 259.54 244.65 259.56 244.66 259.58 244.68 259.6 244.7 259.61 244.73 259.62 244.75 259.62 244.78 259.62 244.81 259.61 244.83 259.6 244.85 259.59 244.87 259.57 244.88 259.55 244.89 259.52 244.89 259.5 244.89 259.47 244.88 259.44 244.87 259.42 244.85 259.4 244.83 259.38 244.81 259.37 244.79 259.36 244.76 259.36 244.74 259.36 244.71 259.37 244.69 259.38 244.67 259.4"/><polyline class="cls-3" points="245.62 258.5 245.6 258.51 245.59 258.54 245.58 258.56 245.58 258.59 245.58 258.61 245.59 258.64 245.6 258.66 245.62 258.68 245.64 258.7 245.66 258.71 245.68 258.72 245.71 258.72 245.74 258.72 245.76 258.71 245.78 258.7 245.8 258.69 245.82 258.67 245.83 258.64 245.84 258.62 245.84 258.59 245.84 258.57 245.84 258.54 245.82 258.52 245.81 258.5 245.79 258.48 245.77 258.47 245.74 258.46 245.72 258.46 245.69 258.46 245.66 258.47 245.64 258.48 245.62 258.5"/></g><g class="cls-2"><path class="cls-4" d="M208,270.13h0v0Z"/><path class="cls-4" d="M208,270.13l0,0,0,0Z"/><path class="cls-4" d="M208,270.15l0,0v0Z"/><path class="cls-4" d="M208,270.15l-.06-.07.09.08Z"/><path class="cls-4" d="M208,270.16l-.09-.08v0Z"/><path class="cls-4" d="M208,270.16l-.1-.11.12.11Z"/><path class="cls-4" d="M208.06,270.16l-.12-.11v0Z"/><path class="cls-4" d="M208.06,270.16l-.12-.14.15.14Z"/><path class="cls-4" d="M208.09,270.16l-.15-.14v0Z"/><path class="cls-4" d="M208.09,270.16l-.15-.16.17.15Z"/><path class="cls-4" d="M208.11,270.15l-.17-.15v0Z"/><path class="cls-4" d="M208.11,270.15,208,270l.19.17Z"/><path class="cls-4" d="M208.14,270.14,208,270v0Z"/><path class="cls-4" d="M208.14,270.14,208,270l.2.17Z"/><path class="cls-4" d="M208.16,270.12,208,270l0,0Z"/><path class="cls-4" d="M208.16,270.12l-.18-.19.19.17Z"/><path class="cls-4" d="M208.17,270.1l-.19-.17h0Z"/><path class="cls-4" d="M208.17,270.1l-.17-.18.19.16Z"/><path class="cls-4" d="M208.19,270.08l-.19-.16h0Z"/><path class="cls-4" d="M208.19,270.08l-.17-.17.18.15Z"/><path class="cls-4" d="M208.2,270.06l-.18-.15h0Z"/><path class="cls-4" d="M208.2,270.06l-.15-.16.15.13Z"/><path class="cls-4" d="M208.2,270l-.15-.13h0Z"/><path class="cls-4" d="M208.2,270l-.13-.13.13.11Z"/><path class="cls-4" d="M208.2,270l-.13-.11h0Z"/><path class="cls-4" d="M208.2,270l-.1-.11.09.08Z"/><path class="cls-4" d="M208.19,270l-.09-.08h0Z"/><path class="cls-4" d="M208.19,270l-.07-.07.06,0Z"/><path class="cls-4" d="M208.18,270l-.06,0h0Z"/><path class="cls-4" d="M208.18,270l0,0,0,0Z"/><path class="cls-4" d="M208.39,269.79l0,0,0,0Z"/><path class="cls-4" d="M208.39,269.79l-.07-.07.12.1Z"/><path class="cls-4" d="M208.44,269.82l-.12-.1,0-.05Z"/><path class="cls-4" d="M208.44,269.82l-.14-.15.19.16Z"/><path class="cls-4" d="M208.49,269.83l-.19-.16v-.05Z"/><path class="cls-4" d="M208.49,269.83l-.2-.21.25.22Z"/><path class="cls-4" d="M208.54,269.84l-.25-.22v-.05Z"/><path class="cls-4" d="M208.54,269.84l-.26-.27.31.27Z"/><path class="cls-4" d="M208.59,269.84l-.31-.27v-.05Z"/><path class="cls-4" d="M208.59,269.84l-.3-.32.35.3Z"/><path class="cls-4" d="M208.64,269.82l-.35-.3,0,0Z"/><path class="cls-4" d="M208.64,269.82l-.33-.35.37.33Z"/><path class="cls-4" d="M208.68,269.8l-.37-.33,0,0Z"/><path class="cls-4" d="M208.68,269.8l-.35-.37.4.34Z"/><path class="cls-4" d="M208.73,269.77l-.4-.34,0,0Z"/><path class="cls-4" d="M208.73,269.77l-.37-.38.4.34Z"/><path class="cls-4" d="M208.76,269.73l-.4-.34,0,0Z"/><path class="cls-4" d="M208.76,269.73l-.35-.37.37.32Z"/><path class="cls-4" d="M208.78,269.68l-.37-.32,0,0Z"/><path class="cls-4" d="M208.78,269.68l-.33-.35.35.31Z"/><path class="cls-4" d="M208.8,269.64l-.35-.31h.05Z"/><path class="cls-4" d="M208.8,269.64l-.3-.32.31.26Z"/><path class="cls-4" d="M208.81,269.58l-.31-.26h.05Z"/><path class="cls-4" d="M208.81,269.58l-.26-.27.25.22Z"/><path class="cls-4" d="M208.8,269.53l-.25-.22h0Z"/><path class="cls-4" d="M208.8,269.53l-.2-.21.19.16Z"/><path class="cls-4" d="M208.79,269.48l-.19-.16.05,0Z"/><path class="cls-4" d="M208.79,269.48l-.14-.14.12.1Z"/><path class="cls-4" d="M208.77,269.44l-.12-.1,0,0Z"/><path class="cls-4" d="M208.77,269.44l-.07-.08,0,0Z"/><path class="cls-4" d="M209,269.23h0l0,0Z"/><path class="cls-4" d="M209,269.23l0,0,.06.05Z"/><path class="cls-4" d="M209,269.25l-.06-.05v0Z"/><path class="cls-4" d="M209,269.25l-.07-.08.09.09Z"/><path class="cls-4" d="M209,269.26l-.09-.09v0Z"/><path class="cls-4" d="M209,269.26l-.1-.11.13.11Z"/><path class="cls-4" d="M209,269.26l-.13-.11v0Z"/><path class="cls-4" d="M209,269.26l-.13-.14.15.14Z"/><path class="cls-4" d="M209,269.26l-.15-.14v0Z"/><path class="cls-4" d="M209,269.26l-.14-.16.17.15Z"/><path class="cls-4" d="M209.07,269.25l-.17-.15v0Z"/><path class="cls-4" d="M209.07,269.25l-.17-.18.19.17Z"/><path class="cls-4" d="M209.09,269.24l-.19-.17,0,0Z"/><path class="cls-4" d="M209.09,269.24l-.17-.19.19.17Z"/><path class="cls-4" d="M209.11,269.22l-.19-.17v0Z"/><path class="cls-4" d="M209.11,269.22l-.18-.19.2.17Z"/><path class="cls-4" d="M209.13,269.2l-.2-.17h0Z"/><path class="cls-4" d="M209.13,269.2,209,269l.19.16Z"/><path class="cls-4" d="M209.14,269.18,209,269l0,0Z"/><path class="cls-4" d="M209.14,269.18,209,269l.17.16Z"/><path class="cls-4" d="M209.15,269.16,209,269h0Z"/><path class="cls-4" d="M209.15,269.16,209,269l.15.13Z"/><path class="cls-4" d="M209.15,269.13,209,269h0Z"/><path class="cls-4" d="M209.15,269.13,209,269l.12.1Z"/><path class="cls-4" d="M209.15,269.1,209,269h0Z"/><path class="cls-4" d="M209.15,269.1l-.1-.1.1.08Z"/><path class="cls-4" d="M209.15,269.08l-.1-.08h0Z"/><path class="cls-4" d="M209.15,269.08l-.07-.07,0,.05Z"/><path class="cls-4" d="M209.13,269.06l0-.05h0Z"/><path class="cls-4" d="M209.13,269.06l0,0,0,0Z"/></g><g class="cls-2"><polyline class="cls-3" points="208.37 269.39 208.33 269.43 208.31 269.47 208.29 269.52 208.28 269.57 208.29 269.62 208.3 269.67 208.32 269.72 208.35 269.76 208.39 269.79 208.44 269.82 208.49 269.83 208.54 269.84 208.59 269.84 208.64 269.82 208.69 269.8 208.72 269.77 208.76 269.73 208.78 269.68 208.8 269.64 208.81 269.58 208.8 269.53 208.79 269.48 208.77 269.44 208.74 269.4 208.7 269.36 208.65 269.34 208.6 269.32 208.55 269.31 208.5 269.32 208.45 269.33 208.41 269.36 208.37 269.39"/><polyline class="cls-3" points="207.98 269.93 207.96 269.95 207.95 269.97 207.94 270 207.94 270.02 207.94 270.05 207.94 270.07 207.96 270.1 207.97 270.12 207.99 270.13 208.01 270.15 208.04 270.16 208.06 270.16 208.09 270.16 208.12 270.15 208.14 270.14 208.16 270.12 208.18 270.11 208.19 270.08 208.2 270.06 208.2 270.03 208.2 270.01 208.19 269.98 208.18 269.96 208.16 269.94 208.14 269.92 208.12 269.91 208.1 269.9 208.07 269.9 208.05 269.9 208.02 269.91 208 269.92 207.98 269.93"/><polyline class="cls-3" points="208.93 269.03 208.92 269.05 208.9 269.07 208.9 269.1 208.89 269.12 208.89 269.15 208.9 269.17 208.91 269.2 208.93 269.22 208.95 269.23 208.97 269.25 208.99 269.25 209.02 269.26 209.04 269.26 209.07 269.25 209.09 269.24 209.11 269.22 209.13 269.2 209.14 269.18 209.15 269.16 209.15 269.13 209.15 269.11 209.15 269.08 209.13 269.06 209.12 269.04 209.1 269.02 209.08 269.01 209.05 269 209.03 269 209 269 208.98 269 208.95 269.02 208.93 269.03"/></g><g class="cls-2"><path class="cls-4" d="M255,297.15h0v0Z"/><path class="cls-4" d="M255,297.15l0,0,.05.05Z"/><path class="cls-4" d="M255,297.17l-.05-.05v0Z"/><path class="cls-4" d="M255,297.17l-.06-.08.09.08Z"/><path class="cls-4" d="M255.05,297.17l-.09-.08v0Z"/><path class="cls-4" d="M255.05,297.17l-.1-.1.12.11Z"/><path class="cls-4" d="M255.07,297.18l-.12-.11v0Z"/><path class="cls-4" d="M255.07,297.18,255,297l.15.14Z"/><path class="cls-4" d="M255.1,297.18,255,297v0Z"/><path class="cls-4" d="M255.1,297.18,255,297l.17.15Z"/><path class="cls-4" d="M255.12,297.17,255,297v0Z"/><path class="cls-4" d="M255.12,297.17,255,297l.19.17Z"/><path class="cls-4" d="M255.15,297.16,255,297v0Z"/><path class="cls-4" d="M255.15,297.16,255,297l.2.17Z"/><path class="cls-4" d="M255.17,297.14,255,297l0,0Z"/><path class="cls-4" d="M255.17,297.14,255,297l.19.17Z"/><path class="cls-4" d="M255.18,297.12,255,297h0Z"/><path class="cls-4" d="M255.18,297.12l-.17-.18.19.16Z"/><path class="cls-4" d="M255.2,297.1l-.19-.16,0,0Z"/><path class="cls-4" d="M255.2,297.1l-.17-.18.18.16Z"/><path class="cls-4" d="M255.21,297.08l-.18-.16h0Z"/><path class="cls-4" d="M255.21,297.08l-.15-.16.15.13Z"/><path class="cls-4" d="M255.21,297.05l-.15-.13h0Z"/><path class="cls-4" d="M255.21,297.05l-.13-.13.13.1Z"/><path class="cls-4" d="M255.21,297l-.13-.1h0Z"/><path class="cls-4" d="M255.21,297l-.1-.1.09.08Z"/><path class="cls-4" d="M255.2,297l-.09-.08h0Z"/><path class="cls-4" d="M255.2,297l-.07-.07.06.05Z"/><path class="cls-4" d="M255.19,297l-.06-.05h0Z"/><path class="cls-4" d="M255.19,297l0,0,0,0Z"/><path class="cls-4" d="M255.4,296.81l0,0,0,0Z"/><path class="cls-4" d="M255.4,296.81l-.07-.07.12.1Z"/><path class="cls-4" d="M255.45,296.84l-.12-.1,0-.05Z"/><path class="cls-4" d="M255.45,296.84l-.14-.15.19.16Z"/><path class="cls-4" d="M255.5,296.85l-.19-.16v-.05Z"/><path class="cls-4" d="M255.5,296.85l-.2-.21.25.22Z"/><path class="cls-4" d="M255.55,296.86l-.25-.22v-.05Z"/><path class="cls-4" d="M255.55,296.86l-.26-.27.31.27Z"/><path class="cls-4" d="M255.6,296.86l-.31-.27v0Z"/><path class="cls-4" d="M255.6,296.86l-.3-.32.35.3Z"/><path class="cls-4" d="M255.65,296.84l-.35-.3,0-.05Z"/><path class="cls-4" d="M255.65,296.84l-.33-.35.37.33Z"/><path class="cls-4" d="M255.69,296.82l-.37-.33,0-.05Z"/><path class="cls-4" d="M255.69,296.82l-.35-.38.4.35Z"/><path class="cls-4" d="M255.74,296.79l-.4-.35,0,0Z"/><path class="cls-4" d="M255.74,296.79l-.36-.38.39.34Z"/><path class="cls-4" d="M255.77,296.75l-.39-.34,0,0Z"/><path class="cls-4" d="M255.77,296.75l-.35-.38.37.33Z"/><path class="cls-4" d="M255.79,296.7l-.37-.33,0,0Z"/><path class="cls-4" d="M255.79,296.7l-.33-.35.35.31Z"/><path class="cls-4" d="M255.81,296.66l-.35-.31h0Z"/><path class="cls-4" d="M255.81,296.66l-.3-.32.31.26Z"/><path class="cls-4" d="M255.82,296.6l-.31-.26h.05Z"/><path class="cls-4" d="M255.82,296.6l-.26-.27.25.22Z"/><path class="cls-4" d="M255.81,296.55l-.25-.22h.05Z"/><path class="cls-4" d="M255.81,296.55l-.2-.21.19.16Z"/><path class="cls-4" d="M255.8,296.5l-.19-.16,0,0Z"/><path class="cls-4" d="M255.8,296.5l-.14-.14.12.1Z"/><path class="cls-4" d="M255.78,296.46l-.12-.1.05,0Z"/><path class="cls-4" d="M255.78,296.46l-.07-.08,0,0Z"/><path class="cls-4" d="M256,296.25h0l0,0Z"/><path class="cls-4" d="M256,296.25l0,0,.06,0Z"/><path class="cls-4" d="M256,296.27l-.06,0v0Z"/><path class="cls-4" d="M256,296.27l-.07-.08.09.08Z"/><path class="cls-4" d="M256,296.27l-.09-.08v0Z"/><path class="cls-4" d="M256,296.27l-.1-.1.13.11Z"/><path class="cls-4" d="M256,296.28l-.13-.11v0Z"/><path class="cls-4" d="M256,296.28l-.13-.14.15.14Z"/><path class="cls-4" d="M256.05,296.28l-.15-.14v0Z"/><path class="cls-4" d="M256.05,296.28l-.15-.16.18.15Z"/><path class="cls-4" d="M256.08,296.27l-.18-.15v0Z"/><path class="cls-4" d="M256.08,296.27l-.17-.18.19.17Z"/><path class="cls-4" d="M256.1,296.26l-.19-.17,0,0Z"/><path class="cls-4" d="M256.1,296.26l-.17-.19.19.17Z"/><path class="cls-4" d="M256.12,296.24l-.19-.17v0Z"/><path class="cls-4" d="M256.12,296.24l-.18-.19.2.17Z"/><path class="cls-4" d="M256.14,296.22l-.2-.17h0Z"/><path class="cls-4" d="M256.14,296.22,256,296l.19.16Z"/><path class="cls-4" d="M256.15,296.2,256,296l0,0Z"/><path class="cls-4" d="M256.15,296.2,256,296l.17.16Z"/><path class="cls-4" d="M256.16,296.18,256,296h0Z"/><path class="cls-4" d="M256.16,296.18,256,296l.15.13Z"/><path class="cls-4" d="M256.16,296.15,256,296h0Z"/><path class="cls-4" d="M256.16,296.15,256,296l.12.11Z"/><path class="cls-4" d="M256.16,296.12,256,296h0Z"/><path class="cls-4" d="M256.16,296.12l-.1-.1.1.08Z"/><path class="cls-4" d="M256.16,296.1l-.1-.08h0Z"/><path class="cls-4" d="M256.16,296.1l-.07-.07.05.05Z"/><path class="cls-4" d="M256.14,296.08l-.05-.05h0Z"/><path class="cls-4" d="M256.14,296.08l0,0,0,0Z"/></g><g class="cls-2"><polyline class="cls-3" points="255.38 296.4 255.34 296.44 255.32 296.49 255.3 296.54 255.29 296.59 255.3 296.64 255.31 296.69 255.33 296.74 255.37 296.78 255.4 296.81 255.45 296.84 255.5 296.85 255.55 296.86 255.6 296.86 255.65 296.84 255.69 296.82 255.74 296.79 255.77 296.75 255.79 296.7 255.81 296.65 255.82 296.6 255.81 296.55 255.8 296.5 255.78 296.46 255.75 296.42 255.71 296.38 255.66 296.36 255.61 296.34 255.56 296.33 255.51 296.34 255.46 296.35 255.42 296.37 255.38 296.4"/><polyline class="cls-3" points="254.99 296.95 254.97 296.97 254.96 296.99 254.95 297.02 254.95 297.04 254.95 297.07 254.96 297.09 254.97 297.12 254.98 297.14 255 297.15 255.02 297.17 255.05 297.17 255.07 297.18 255.1 297.18 255.13 297.17 255.15 297.16 255.17 297.14 255.19 297.12 255.2 297.1 255.21 297.08 255.21 297.05 255.21 297.02 255.2 297 255.19 296.98 255.17 296.96 255.15 296.94 255.13 296.93 255.11 296.92 255.08 296.92 255.06 296.92 255.03 296.92 255.01 296.94 254.99 296.95"/><polyline class="cls-3" points="255.94 296.05 255.93 296.07 255.91 296.09 255.9 296.12 255.9 296.14 255.9 296.17 255.91 296.19 255.92 296.22 255.94 296.24 255.96 296.25 255.98 296.26 256 296.27 256.03 296.28 256.06 296.27 256.08 296.27 256.1 296.26 256.12 296.24 256.14 296.22 256.15 296.2 256.16 296.18 256.16 296.15 256.16 296.12 256.15 296.1 256.14 296.08 256.13 296.06 256.11 296.04 256.09 296.03 256.06 296.02 256.04 296.01 256.01 296.02 255.99 296.02 255.96 296.04 255.94 296.05"/><line class="cls-3" x1="229.89" y1="261.62" x2="229.5" y2="261.98"/><line class="cls-3" x1="229.5" y1="261.98" x2="229.37" y2="261.83"/><line class="cls-3" x1="228.8" y1="262.38" x2="229.34" y2="262.95"/><line class="cls-3" x1="229.37" y1="261.83" x2="228.8" y2="262.38"/><line class="cls-3" x1="230.29" y1="262.05" x2="229.89" y2="261.62"/><line class="cls-3" x1="229.34" y1="262.95" x2="230.29" y2="262.05"/><line class="cls-3" x1="224.75" y1="256.18" x2="224.39" y2="255.79"/><line class="cls-3" x1="224.39" y1="255.79" x2="224.01" y2="256.15"/><line class="cls-3" x1="224.01" y1="256.15" x2="224.14" y2="256.3"/><line class="cls-3" x1="223.57" y1="256.84" x2="223.03" y2="256.27"/><line class="cls-3" x1="224.14" y1="256.3" x2="223.57" y2="256.84"/><line class="cls-3" x1="223.98" y1="255.36" x2="224.39" y2="255.79"/><line class="cls-3" x1="223.03" y1="256.27" x2="223.98" y2="255.36"/><polyline class="cls-3" points="203.34 275.76 205.14 277.67 206.57 276.31 204.77 274.41"/><polyline class="cls-3" points="263.76 281.81 263.74 281.8 263.72 281.79 263.7 281.78 263.68 281.77 263.65 281.77 263.63 281.77 263.61 281.78 263.59 281.79 263.57 281.81"/><polyline class="cls-3" points="260.9 284.33 260.88 284.35 260.87 284.37 260.86 284.4 260.86 284.42 260.86 284.45 260.87 284.47 260.88 284.5 260.89 284.52"/><polyline class="cls-3" points="263.95 281.45 263.9 281.4 263.84 281.37 263.78 281.34 263.71 281.33 263.64 281.32 263.58 281.33 263.51 281.36 263.45 281.39 263.4 281.43"/><polyline class="cls-3" points="260.53 284.13 260.48 284.19 260.44 284.26 260.42 284.33 260.41 284.41 260.42 284.49 260.44 284.56 260.47 284.63 260.52 284.69"/><line class="cls-3" x1="263.95" y1="281.45" x2="264.4" y2="281.92"/><line class="cls-3" x1="260.52" y1="284.69" x2="260.97" y2="285.17"/><line class="cls-3" x1="263.76" y1="281.81" x2="264.12" y2="282.19"/><line class="cls-3" x1="260.89" y1="284.52" x2="261.25" y2="284.9"/><line class="cls-3" x1="260.9" y1="284.33" x2="263.57" y2="281.81"/><line class="cls-3" x1="260.53" y1="284.13" x2="263.4" y2="281.43"/><polyline class="cls-3" points="208.37 281.5 208.36 281.48 208.34 281.46 208.32 281.45 208.3 281.44 208.27 281.43 208.25 281.43 208.22 281.43 208.2 281.44"/><polyline class="cls-3" points="208.68 281.22 208.64 281.16 208.59 281.1 208.53 281.05 208.46 281.02 208.38 281 208.31 280.99 208.23 281 208.16 281.03"/><line class="cls-3" x1="208.16" y1="281.03" x2="207.56" y2="281.29"/><line class="cls-3" x1="208.2" y1="281.44" x2="207.72" y2="281.65"/><line class="cls-3" x1="208.37" y1="281.5" x2="209.88" y2="284.86"/><line class="cls-3" x1="208.68" y1="281.22" x2="210.29" y2="284.82"/><polyline class="cls-3" points="205.14 277.67 205.54 278.1 205.93 277.74 206.06 277.88 206.63 277.34 206.09 276.76 205.14 277.67"/><polyline class="cls-3" points="214.33 287.4 213.93 286.97 214.31 286.61 214.17 286.47 214.75 285.93 215.29 286.5 214.33 287.4"/><polyline class="cls-3" points="206.02 277.88 211.02 289.02 210.54 289.23 205.54 278.1 206.02 277.88"/><line class="cls-3" x1="206.64" y1="277.34" x2="206.09" y2="276.77"/><path class="cls-3" d="M210.54,289.23a12.25,12.25,0,0,0,3.39-2.26"/><line class="cls-3" x1="228.2" y1="299.22" x2="226.77" y2="300.58"/><polyline class="cls-3" points="226.77 300.58 228.57 302.49 230 301.13 228.2 299.22 230 301.13"/><line class="cls-3" x1="237.39" y1="308.96" x2="235.96" y2="310.31"/><polyline class="cls-3" points="215.76 286.05 212.16 282.23 210.73 283.58 214.33 287.4"/><line class="cls-3" x1="215.76" y1="286.05" x2="214.33" y2="287.4"/><line class="cls-3" x1="202.52" y1="272.02" x2="261.89" y2="215.97"/><line class="cls-3" x1="202.52" y1="272.02" x2="261.89" y2="215.97"/><line class="cls-3" x1="272.5" y1="227.21" x2="273.93" y2="225.86"/><line class="cls-3" x1="265.11" y1="219.38" x2="266.54" y2="218.03"/><line class="cls-3" x1="270.88" y1="234.29" x2="270.52" y2="233.91"/><line class="cls-3" x1="270.52" y1="233.91" x2="270.38" y2="234.04"/><line class="cls-3" x1="269.84" y1="233.47" x2="270.41" y2="232.93"/><line class="cls-3" x1="270.38" y1="234.04" x2="269.84" y2="233.47"/><line class="cls-3" x1="271.31" y1="233.88" x2="270.88" y2="234.29"/><line class="cls-3" x1="270.41" y1="232.93" x2="271.31" y2="233.88"/><line class="cls-3" x1="265.44" y1="239.43" x2="265.06" y2="239.79"/><line class="cls-3" x1="265.06" y1="239.79" x2="264.7" y2="239.4"/><line class="cls-3" x1="264.7" y1="239.4" x2="264.84" y2="239.27"/><line class="cls-3" x1="264.3" y1="238.7" x2="263.73" y2="239.24"/><line class="cls-3" x1="264.84" y1="239.27" x2="264.3" y2="238.7"/><line class="cls-3" x1="264.63" y1="240.19" x2="265.06" y2="239.79"/><line class="cls-3" x1="263.73" y1="239.24" x2="264.63" y2="240.19"/><polyline class="cls-3" points="234.32 260.77 233.94 261.13 234.3 261.51 234.68 261.15 234.32 260.77"/><polyline class="cls-3" points="241.1 254.37 240.72 254.73 241.08 255.11 241.46 254.75 241.1 254.37"/><polyline class="cls-3" points="241.1 254.37 233.94 261.13 234.3 261.51 241.46 254.75 241.1 254.37"/><line class="cls-3" x1="203.87" y1="273.45" x2="204.77" y2="274.41"/><line class="cls-3" x1="235.96" y1="310.31" x2="239.97" y2="314.56"/><line class="cls-3" x1="214.33" y1="287.4" x2="226.77" y2="300.58"/><line class="cls-3" x1="302.21" y1="255.81" x2="273.93" y2="225.86"/><line class="cls-3" x1="203.87" y1="273.45" x2="263.24" y2="217.4"/><line class="cls-3" x1="204.77" y1="274.41" x2="203.87" y2="273.45"/><line class="cls-3" x1="228.2" y1="299.22" x2="215.76" y2="286.05"/><line class="cls-3" x1="240.05" y1="311.78" x2="237.39" y2="308.96"/><line class="cls-3" x1="299.42" y1="255.73" x2="240.05" y2="311.78"/><line class="cls-3" x1="272.5" y1="227.21" x2="299.42" y2="255.73"/><line class="cls-3" x1="263.24" y1="217.4" x2="265.11" y2="219.38"/><line class="cls-3" x1="302.21" y1="255.81" x2="239.97" y2="314.56"/><polyline class="cls-3" points="223 292.57 243.98 272.77 243.08 271.82 241.19 273.6 236.1 268.2 246.46 258.43 251.55 263.82 249.67 265.6 250.3 266.27 252.18 264.49 259.12 271.84 260.08 270.94 248.5 258.67 254.94 252.59 253.86 251.44 262.69 243.11 285.76 267.54 270.48 281.96 268.37 279.72 267.41 280.62 269.53 282.86 242.47 308.41 240.44 306.26 238.05 308.51 223 292.57 223 292.57"/><polyline class="cls-3" points="204.98 273.48 223.12 256.36 238.62 272.78 232.17 278.86 233.79 280.58 222.1 291.62 204.98 273.48 204.98 273.48"/><line class="cls-3" x1="247.16" y1="248.65" x2="247.16" y2="248.65"/><line class="cls-3" x1="239.14" y1="240.15" x2="239.14" y2="240.15"/><line class="cls-3" x1="239.14" y1="240.15" x2="239.14" y2="240.15"/><polyline class="cls-3" points="239.14 240.15 223.53 254.89 231.55 263.38 247.16 248.65 239.14 240.15"/><polyline class="cls-3" points="263.68 241.09 280.98 259.42 292.57 248.47 275.27 230.14 263.68 241.09"/><polyline class="cls-3" points="241.19 315.85 241.64 316.33 242.59 315.43 242.14 314.95 241.19 315.85"/><polyline class="cls-3" points="442.12 564.84 445.72 568.65 450.5 564.15 446.89 560.33 442.12 564.84"/><polyline class="cls-3" points="117.71 221.2 121.32 225.01 126.09 220.51 122.48 216.69 117.71 221.2"/><line class="cls-3" x1="395.79" y1="512.8" x2="395.79" y2="512.8"/><polyline class="cls-3" points="395.79 512.8 396.13 512.49 395.99 512.34 396.33 512.03 396.46 512.17 396.65 511.99 396.97 512.32 396.87 512.41 396.71 512.25 396.05 512.88 396.2 513.04 396.11 513.13 395.79 512.8"/><line class="cls-3" x1="394.28" y1="320.16" x2="394.28" y2="320.16"/><polyline class="cls-3" points="394.28 320.16 393.95 320.48 394.08 320.62 393.75 320.94 393.61 320.79 393.42 320.98 393.11 320.64 393.2 320.55 393.36 320.72 394.03 320.09 393.87 319.92 393.97 319.83 394.28 320.16"/><line class="cls-3" x1="105.15" y1="338.4" x2="105.15" y2="338.4"/><polyline class="cls-3" points="105.15 338.4 104.81 338.71 104.95 338.86 104.61 339.17 104.48 339.03 104.29 339.21 103.97 338.88 104.07 338.79 104.22 338.95 104.89 338.32 104.74 338.16 104.83 338.07 105.15 338.4"/><line class="cls-3" x1="235.48" y1="342.99" x2="235.48" y2="342.99"/><polyline class="cls-3" points="235.48 342.99 235.82 342.67 235.95 342.81 236.29 342.5 236.15 342.36 236.34 342.18 236.03 341.84 235.93 341.93 236.09 342.1 235.42 342.73 235.26 342.56 235.17 342.65 235.48 342.99"/><line class="cls-3" x1="298.92" y1="410.19" x2="298.92" y2="410.19"/><polyline class="cls-3" points="298.92 410.19 299.26 409.87 299.39 410.01 299.73 409.7 299.59 409.56 299.78 409.38 299.46 409.04 299.37 409.13 299.53 409.3 298.86 409.93 298.7 409.76 298.61 409.85 298.92 410.19"/><line class="cls-3" x1="116.76" y1="222.1" x2="116.76" y2="222.1"/><polyline class="cls-3" points="116.76 222.1 118.61 222.15 121.32 225.01 122.03 224.34 169.62 274.75 153.94 289.55 154.07 289.69 103.79 337.16 52.47 282.79 116.76 222.1"/><line class="cls-3" x1="271.18" y1="83.54" x2="271.18" y2="83.54"/><polyline class="cls-3" points="271.18 83.54 301.5 115.66 248.53 165.67 218.2 133.55 219.63 132.2 218.28 130.77 266.01 85.71 267.36 87.14 271.18 83.54"/><line class="cls-3" x1="237.39" y1="47.74" x2="237.39" y2="47.74"/><polyline class="cls-3" points="237.39 47.74 267.58 79.72 263.76 83.32 265.11 84.75 217.38 129.81 216.03 128.38 214.6 129.73 184.41 97.75 237.39 47.74"/><polyline class="cls-3" points="198.88 14.6 202.48 18.41 206.3 14.81 236.49 46.79 183.51 96.8 153.32 64.82 154.75 63.47 151.15 59.65 198.88 14.6"/><line class="cls-3" x1="86.23" y1="190.71" x2="99.18" y2="204.44"/></g><g class="cls-2"><line class="cls-5" x1="279.78" y1="357.22" x2="282.31" y2="354.83"/></g><g class="cls-2"><polyline class="cls-3" points="301.25 256.71 341.29 299.12 280.96 356.07 240.92 313.66 301.25 256.71"/><polyline class="cls-3" points="457.46 499.05 463.45 505.4 518.43 453.49 539.4 475.7 496.45 516.25 563.58 587.37 512.85 635.26 418.75 535.59 434.74 520.5 440.87 526.99 441.82 526.09 435.7 519.6 457.46 499.05"/><line class="cls-3" x1="264.82" y1="372.25" x2="264.82" y2="372.25"/><polyline class="cls-3" points="358.37 283.94 407.3 335.77 405.87 337.12 411.45 343.04 417.18 337.63 414.84 335.15 428.98 321.79 492.96 389.56 475.71 405.85 439.29 367.27 360.21 441.93 418.78 503.97 418.97 503.79 433.84 519.54 417.85 534.64 264.68 372.38 264.82 372.25 280.47 357.47 280.91 357.93 343.14 299.17 342.71 298.71 358.37 283.94"/><polyline class="cls-3" points="496.67 430.44 517.53 452.54 463.5 503.54 442.64 481.44 496.67 430.44"/><polyline class="cls-3" points="529.84 549.72 498.3 516.31 542.69 474.41 574.23 507.82 529.84 549.72"/><polyline class="cls-3" points="530.74 550.67 564.54 586.47 608.92 544.57 575.13 508.77 530.74 550.67"/><polyline class="cls-3" points="459.06 686.04 425.13 650.11 478.25 599.96 512.18 635.9 459.06 686.04"/><polyline class="cls-3" points="424.5 649.44 392.69 615.74 445.72 565.68 477.53 599.38 424.5 649.44"/><polyline class="cls-3" points="327.81 547.01 392.06 615.07 445.08 565.01 380.83 496.95 327.81 547.01"/><polyline class="cls-3" points="295.37 512.65 327.18 546.35 380.3 496.2 348.49 462.5 295.37 512.65"/><polyline class="cls-3" points="294.74 511.98 263.06 478.43 316.18 428.28 347.86 461.83 294.74 511.98"/><polyline class="cls-3" points="315.28 427.33 251.3 359.55 146.63 458.36 210.62 526.13 315.28 427.33"/><polyline class="cls-3" points="416.03 463.25 436.3 484.73 418.86 501.19 398.58 479.71 416.03 463.25"/><polyline class="cls-3" points="474.81 407.76 495.08 429.24 466.8 455.93 446.52 434.46 474.81 407.76"/><polyline class="cls-3" points="580.73 308.51 646.97 378.68 542.61 477.19 476.38 407.03 580.73 308.51"/><polyline class="cls-3" points="448.72 168.67 514.95 238.83 413.94 334.19 411.59 331.71 408.11 335 359.18 283.17 359.32 283.03 347.97 271.01 349.4 269.65 348.05 268.22 395.77 223.17 397.13 224.6 400.94 220.99 397.34 217.18 448.72 168.67"/><polyline class="cls-3" points="493.92 388.66 429.94 320.89 515.85 239.79 579.83 307.56 493.92 388.66"/><polyline class="cls-3" points="367.02 185.06 398.68 218.59 345.65 268.65 313.99 235.11 367.02 185.06"/><polyline class="cls-3" points="313.26 234.53 281.45 200.84 334.58 150.69 366.39 184.39 313.26 234.53"/><line class="cls-3" x1="302.14" y1="116.33" x2="302.14" y2="116.33"/><polyline class="cls-3" points="302.14 116.33 332.46 148.45 328.64 152.05 330.13 153.63 295.76 186.07 263.95 152.37 302.14 116.33"/><polyline class="cls-3" points="248.49 167.51 263.56 153.29 295.1 186.7 282.4 198.68 280.91 197.11 277.09 200.71 280.7 204.53 282.27 203.04 343.55 267.95 341.98 269.44 345.58 273.26 347.01 271.91 357.46 282.98 341.81 297.76 232.55 182.02 248.22 167.22 248.49 167.51"/><line class="cls-3" x1="104.74" y1="338.16" x2="103.79" y2="337.16"/><line class="cls-3" x1="118.17" y1="353.72" x2="118.17" y2="353.72"/><polyline class="cls-3" points="118.17 353.72 51.8 283.42 18.44 314.91 22.04 318.73 18.22 322.34 79.5 387.25 85.23 381.84 86.72 383.42 118.17 353.72"/><polyline class="cls-3" points="83.11 391.06 88.83 385.66 87.35 384.08 182.8 293.97 184.29 295.55 187.77 292.26 249.05 357.17 245.57 360.45 246.92 361.89 151.46 452 150.11 450.57 144.38 455.98 83.11 391.06"/><line class="cls-3" x1="154.7" y1="290.36" x2="154.7" y2="290.36"/><polyline class="cls-3" points="203.34 275.76 279.57 356.51 263.92 371.29 253.47 360.22 254.9 358.87 251.29 355.05 249.72 356.54 188.44 291.63 190.02 290.14 186.41 286.32 180.69 291.73 182.17 293.3 118.84 353.09 104.42 337.82 154.7 290.36 154.84 290.5 171.47 274.8 156.58 259.02 172.95 243.57 203.34 275.76"/><line class="cls-3" x1="423.87" y1="471.55" x2="425.11" y2="472.87"/><line class="cls-3" x1="426.17" y1="474" x2="427.23" y2="475.12"/><line class="cls-3" x1="428.29" y1="476.24" x2="429.35" y2="477.36"/><line class="cls-3" x1="430.41" y1="478.49" x2="431.47" y2="479.61"/><line class="cls-3" x1="432.53" y1="480.73" x2="433.78" y2="482.05"/><line class="cls-3" x1="477.12" y1="410.21" x2="478.55" y2="408.86"/><line class="cls-3" x1="452.93" y1="444.11" x2="454.36" y2="442.76"/><line class="cls-3" x1="462.84" y1="454.61" x2="464.28" y2="453.26"/><line class="cls-3" x1="423.87" y1="471.55" x2="425.3" y2="470.2"/><line class="cls-3" x1="433.78" y1="482.05" x2="435.21" y2="480.7"/><polyline class="cls-3" points="433.78 482.05 436.3 484.73 418.86 501.19"/><polyline class="cls-3" points="404.98 486.49 398.58 479.71 416.03 463.25 423.87 471.55"/><polyline class="cls-3" points="425.3 470.2 417.46 461.89 445.09 435.81 465.37 457.29 437.73 483.37 435.21 480.7"/><polyline class="cls-3" points="492.77 426.79 495.08 429.24 466.8 455.93"/><line class="cls-3" x1="466.8" y1="455.93" x2="466.8" y2="455.93"/><polyline class="cls-3" points="466.8 455.93 446.52 434.46 474.81 407.76 477.12 410.21"/><line class="cls-3" x1="404.98" y1="486.49" x2="403.55" y2="487.84"/><line class="cls-3" x1="418.86" y1="501.19" x2="417.43" y2="502.54"/><line class="cls-3" x1="363.95" y1="441.11" x2="362.59" y2="439.67"/><line class="cls-3" x1="378.65" y1="427.23" x2="377.29" y2="425.8"/><polyline class="cls-3" points="426.5 436.49 423.13 438.17 425 434.9"/><polyline class="cls-3" points="414.16 407.77 417.52 406.08 415.65 409.35"/><line class="cls-3" x1="425.06" y1="418.62" x2="424.34" y2="417.14"/><line class="cls-3" x1="423.67" y1="415.75" x2="423" y2="414.36"/><line class="cls-3" x1="422.33" y1="412.97" x2="421.66" y2="411.58"/><line class="cls-3" x1="420.99" y1="410.19" x2="420.32" y2="408.8"/><line class="cls-3" x1="419.64" y1="407.41" x2="418.97" y2="406.02"/><line class="cls-3" x1="418.3" y1="404.63" x2="417.63" y2="403.24"/><line class="cls-3" x1="416.96" y1="401.85" x2="416.29" y2="400.46"/><line class="cls-3" x1="415.62" y1="399.07" x2="414.94" y2="397.68"/><line class="cls-3" x1="414.27" y1="396.29" x2="413.56" y2="394.81"/><line class="cls-3" x1="424.06" y1="419.56" x2="423.25" y2="417.9"/><line class="cls-3" x1="422.58" y1="416.51" x2="421.91" y2="415.12"/><line class="cls-3" x1="421.24" y1="413.73" x2="420.57" y2="412.34"/><line class="cls-3" x1="419.9" y1="410.95" x2="419.23" y2="409.56"/><line class="cls-3" x1="418.55" y1="408.17" x2="417.88" y2="406.78"/><line class="cls-3" x1="417.21" y1="405.39" x2="416.54" y2="404"/><line class="cls-3" x1="415.87" y1="402.61" x2="415.2" y2="401.22"/><line class="cls-3" x1="414.53" y1="399.83" x2="413.85" y2="398.44"/><line class="cls-3" x1="413.18" y1="397.05" x2="412.38" y2="395.38"/><line class="cls-3" x1="418.52" y1="405.15" x2="428" y2="396.19"/><line class="cls-3" x1="404.47" y1="418.41" x2="417.52" y2="406.09"/><line class="cls-3" x1="446.67" y1="415.97" x2="424.36" y2="437.01"/><line class="cls-3" x1="424.36" y1="437.01" x2="423.13" y2="438.17"/><line class="cls-3" x1="411.27" y1="427.71" x2="414.29" y2="430.9"/><line class="cls-3" x1="412.32" y1="426.72" x2="396.71" y2="410.18"/><line class="cls-3" x1="440.11" y1="406.53" x2="437.09" y2="403.33"/><line class="cls-3" x1="414.29" y1="430.9" x2="440.11" y2="406.53"/><line class="cls-3" x1="423.75" y1="415.92" x2="437.09" y2="403.33"/><line class="cls-3" x1="411.27" y1="427.71" x2="422.75" y2="416.87"/><line class="cls-3" x1="414.94" y1="424.24" x2="399.33" y2="407.71"/><line class="cls-3" x1="430.95" y1="446.45" x2="415.34" y2="429.91"/><line class="cls-3" x1="454.48" y1="424.24" x2="438.87" y2="407.7"/><line class="cls-3" x1="435.85" y1="404.5" x2="420.24" y2="387.97"/><line class="cls-3" x1="433.57" y1="443.98" x2="417.96" y2="427.44"/><line class="cls-3" x1="436.19" y1="441.5" x2="420.58" y2="424.97"/><line class="cls-3" x1="438.81" y1="439.03" x2="423.2" y2="422.49"/><line class="cls-3" x1="441.43" y1="436.56" x2="425.82" y2="420.02"/><line class="cls-3" x1="444.05" y1="434.09" x2="428.44" y2="417.55"/><line class="cls-3" x1="446.67" y1="431.61" x2="431.06" y2="415.08"/><line class="cls-3" x1="449.29" y1="429.14" x2="433.68" y2="412.6"/><line class="cls-3" x1="451.91" y1="426.67" x2="436.3" y2="410.13"/><line class="cls-3" x1="433.28" y1="406.93" x2="417.67" y2="390.39"/><line class="cls-3" x1="430.66" y1="409.4" x2="415.05" y2="392.87"/><line class="cls-3" x1="428.04" y1="411.88" x2="415.3" y2="398.38"/><line class="cls-3" x1="417.54" y1="406.01" x2="409.81" y2="397.81"/><line class="cls-3" x1="425.42" y1="414.35" x2="420.55" y2="409.2"/><line class="cls-3" x1="422.8" y1="416.82" x2="407.19" y2="400.29"/><line class="cls-3" x1="420.18" y1="419.3" x2="404.57" y2="402.76"/><line class="cls-3" x1="417.56" y1="421.77" x2="401.95" y2="405.23"/><polyline class="cls-3" points="403.55 487.84 360.21 441.93 362.59 439.68"/><polyline class="cls-3" points="494.2 425.43 497.87 429.31 418.78 503.97 417.43 502.54"/><polyline class="cls-3" points="377.29 425.8 439.29 367.27 478.55 408.86"/><polyline class="cls-3" points="378.65 427.23 439.21 370.05 473.45 406.33 397.23 478.28 362.99 442.01 363.94 441.11"/><line class="cls-3" x1="203.34" y1="275.76" x2="172.7" y2="243.3"/><line class="cls-3" x1="237.19" y1="186.93" x2="234.94" y2="184.55"/><line class="cls-3" x1="245.48" y1="195.72" x2="266.54" y2="218.03"/><polyline class="cls-3" points="197.73 235.74 194.36 237.42 196.23 234.16"/></g><g class="cls-2"><line class="cls-6" x1="207.23" y1="225.27" x2="194.36" y2="237.42"/></g><g class="cls-2"><line class="cls-3" x1="198.6" y1="244.4" x2="203.55" y2="249.65"/><line class="cls-3" x1="225.08" y1="219.39" x2="230.04" y2="224.64"/><polyline class="cls-3" points="230.55 232.91 233.91 231.23 232.04 234.5"/><polyline class="cls-3" points="211.06 223.15 207.69 224.84 209.56 221.57"/><line class="cls-3" x1="215.18" y1="228.75" x2="213.27" y2="227.92"/><line class="cls-3" x1="211.86" y1="227.3" x2="210.45" y2="226.68"/><line class="cls-3" x1="209.03" y1="226.06" x2="207.62" y2="225.44"/><line class="cls-3" x1="206.2" y1="224.82" x2="204.79" y2="224.2"/><line class="cls-3" x1="203.37" y1="223.59" x2="201.96" y2="222.97"/><line class="cls-3" x1="200.55" y1="222.35" x2="198.64" y2="221.52"/><line class="cls-3" x1="230.04" y1="224.64" x2="230.04" y2="224.64"/><line class="cls-3" x1="230.04" y1="224.64" x2="203.55" y2="249.65"/></g><g class="cls-2"><line class="cls-6" x1="198.6" y1="244.4" x2="198.6" y2="244.4"/><line class="cls-6" x1="215.18" y1="228.75" x2="198.6" y2="244.4"/></g><g class="cls-2"><line class="cls-3" x1="225.08" y1="219.39" x2="215.65" y2="228.3"/><line class="cls-3" x1="215.65" y1="228.3" x2="213.75" y2="227.47"/><line class="cls-3" x1="212.34" y1="226.85" x2="210.92" y2="226.23"/><line class="cls-3" x1="209.51" y1="225.61" x2="208.09" y2="224.99"/><line class="cls-3" x1="206.68" y1="224.37" x2="205.27" y2="223.75"/><line class="cls-3" x1="203.85" y1="223.14" x2="202.44" y2="222.52"/><line class="cls-3" x1="201.02" y1="221.9" x2="199.12" y2="221.07"/><line class="cls-3" x1="228.8" y1="225.81" x2="239.48" y2="237.13"/><line class="cls-3" x1="226.13" y1="228.33" x2="236.81" y2="239.64"/><line class="cls-3" x1="223.47" y1="230.85" x2="234.14" y2="242.16"/><line class="cls-3" x1="220.8" y1="233.37" x2="231.48" y2="244.68"/><line class="cls-3" x1="218.13" y1="235.89" x2="228.81" y2="247.2"/><line class="cls-3" x1="215.46" y1="238.41" x2="226.14" y2="249.72"/><line class="cls-3" x1="212.8" y1="240.92" x2="223.47" y2="252.23"/><line class="cls-3" x1="210.13" y1="243.44" x2="220.81" y2="254.75"/><line class="cls-3" x1="207.46" y1="245.96" x2="218.14" y2="257.27"/></g><g class="cls-2"><line class="cls-6" x1="212.45" y1="208.49" x2="223.84" y2="220.56"/><line class="cls-6" x1="209.78" y1="211.01" x2="221.18" y2="223.08"/><line class="cls-6" x1="207.11" y1="213.53" x2="218.51" y2="225.6"/><line class="cls-6" x1="204.44" y1="216.04" x2="215.84" y2="228.12"/><line class="cls-6" x1="208.73" y1="225.93" x2="213.17" y2="230.64"/><line class="cls-6" x1="201.77" y1="218.56" x2="207.67" y2="224.8"/><line class="cls-6" x1="200.14" y1="222.17" x2="210.51" y2="233.15"/><line class="cls-6" x1="196.44" y1="223.6" x2="207.84" y2="235.67"/><line class="cls-6" x1="193.77" y1="226.12" x2="205.17" y2="238.19"/><line class="cls-6" x1="191.11" y1="228.63" x2="202.5" y2="240.71"/><line class="cls-6" x1="218.37" y1="214.77" x2="207.71" y2="224.82"/></g><g class="cls-2"><line class="cls-3" x1="204.79" y1="248.48" x2="215.47" y2="259.79"/></g><g class="cls-2"><line class="cls-6" x1="188.44" y1="231.15" x2="199.84" y2="243.23"/><line class="cls-6" x1="209.91" y1="253.89" x2="233.91" y2="231.23"/></g><g class="cls-2"><line class="cls-3" x1="235.76" y1="188.29" x2="234.86" y2="187.33"/><line class="cls-3" x1="492.77" y1="426.79" x2="494.2" y2="425.43"/><line class="cls-3" x1="235.76" y1="188.29" x2="237.19" y2="186.93"/><line class="cls-3" x1="245.48" y1="195.72" x2="244.05" y2="197.07"/><line class="cls-3" x1="234.86" y1="187.33" x2="175.48" y2="243.38"/><line class="cls-3" x1="175.48" y1="243.38" x2="202.52" y2="272.02"/><line class="cls-3" x1="175.48" y1="243.38" x2="202.52" y2="272.02"/><line class="cls-3" x1="234.86" y1="187.33" x2="175.48" y2="243.38"/><line class="cls-3" x1="261.89" y1="215.97" x2="244.05" y2="197.07"/><line class="cls-3" x1="261.89" y1="215.97" x2="244.05" y2="197.07"/><line class="cls-3" x1="419.9" y1="534.51" x2="420.28" y2="534.15"/><line class="cls-3" x1="418.57" y1="533.96" x2="419.47" y2="534.92"/><line class="cls-3" x1="419.47" y1="534.92" x2="419.9" y2="534.51"/><line class="cls-3" x1="419.68" y1="533.99" x2="419.14" y2="533.42"/><line class="cls-3" x1="419.14" y1="533.42" x2="418.57" y2="533.96"/><line class="cls-3" x1="419.54" y1="534.13" x2="419.68" y2="533.99"/><line class="cls-3" x1="419.9" y1="534.51" x2="419.54" y2="534.13"/><line class="cls-3" x1="434.26" y1="520.95" x2="433.83" y2="521.35"/><line class="cls-3" x1="433.33" y1="521.11" x2="432.79" y2="520.53"/><line class="cls-3" x1="433.47" y1="520.97" x2="433.33" y2="521.11"/><line class="cls-3" x1="433.83" y1="521.35" x2="433.47" y2="520.97"/><line class="cls-3" x1="432.79" y1="520.53" x2="433.36" y2="519.99"/><line class="cls-3" x1="433.83" y1="521.35" x2="433.45" y2="521.71"/><polyline class="cls-3" points="450.62 499.37 450.98 499.75 451.36 499.39 451 499.01 450.62 499.37"/><polyline class="cls-3" points="444.31 492.69 444.67 493.07 445.06 492.71 444.69 492.33 444.31 492.69"/><polyline class="cls-3" points="444.31 492.69 450.98 499.75 451.36 499.39 444.69 492.33 444.31 492.69"/><polyline class="cls-3" points="431.97 323.05 432.42 323.52 431.47 324.42 431.02 323.95 431.97 323.05"/><polyline class="cls-3" points="447.56 339.56 447.11 339.08 446.16 339.98 446.61 340.46 447.56 339.56"/><polyline class="cls-3" points="431.97 323.05 432.42 323.52 431.47 324.42 431.02 323.95 431.97 323.05"/><line class="cls-3" x1="539.24" y1="473.15" x2="538.29" y2="474.05"/><polyline class="cls-3" points="546.8 476.85 547.97 478.09 548.92 477.19 547.75 475.95 546.8 476.85"/><line class="cls-3" x1="563.42" y1="460.25" x2="577.06" y2="447.38"/><line class="cls-3" x1="548.54" y1="474.3" x2="562.18" y2="461.42"/><polyline class="cls-3" points="561.73 460.94 562.97 459.77 563.87 460.73 562.63 461.9 561.73 460.94"/><polyline class="cls-3" points="546.85 474.99 548.09 473.82 549 474.77 547.75 475.95 546.85 474.99"/><polyline class="cls-3" points="576.61 446.9 577.85 445.73 578.75 446.68 577.51 447.85 576.61 446.9"/><polyline class="cls-3" points="547.75 475.95 545.95 474.04 544.04 475.84 545.84 477.75 547.75 475.95"/><line class="cls-3" x1="645.53" y1="375.24" x2="645.53" y2="375.24"/><polyline class="cls-3" points="645.53 375.24 644.58 376.14 646.97 378.68 644.44 381.06 645.34 382.02 648.82 378.73 645.53 375.24"/><line class="cls-3" x1="544.04" y1="475.84" x2="544.04" y2="475.84"/><polyline class="cls-3" points="544.04 475.84 543.14 474.88 545 474.94 544.04 475.84 544.94 476.79 543.09 476.74 544.04 475.84"/><polyline class="cls-3" points="100.81 103.57 99.57 104.74 100.47 105.69 101.71 104.52 100.81 103.57"/><line class="cls-3" x1="101.26" y1="104.04" x2="112.9" y2="93.05"/><line class="cls-3" x1="88.37" y1="116.21" x2="100.02" y2="105.21"/><line class="cls-3" x1="148.51" y1="59.44" x2="164.45" y2="44.39"/><polyline class="cls-3" points="146.82 60.13 148.06 58.96 148.96 59.91 147.72 61.09 146.82 60.13"/><line class="cls-3" x1="205.08" y1="13.52" x2="205.08" y2="13.52"/><line class="cls-3" x1="205.08" y1="13.52" x2="205.08" y2="13.52"/><polyline class="cls-3" points="199.26 12.43 200.17 13.38 202.7 10.99 205.08 13.52 206.04 12.62 202.75 9.14 199.26 12.43"/><polyline class="cls-3" points="149.86 60.87 148.62 62.04 147.72 61.09 148.96 59.91 149.86 60.87"/><line class="cls-3" x1="54.26" y1="155.9" x2="54.26" y2="155.9"/><polyline class="cls-3" points="54.26 155.9 55.22 155 52.83 152.47 55.36 150.08 54.46 149.13 50.98 152.42 54.26 155.9"/><polyline class="cls-3" points="52.83 152.47 56.44 156.29 60.25 152.68 56.65 148.86 52.83 152.47"/><polyline class="cls-3" points="147.33 63.26 150.94 67.08 154.75 63.47 151.15 59.65 147.33 63.26"/><polyline class="cls-3" points="198.88 14.6 202.48 18.41 206.3 14.81 202.7 10.99 198.88 14.6"/><polyline class="cls-3" points="264.31 483.57 263.07 484.74 262.17 483.79 263.41 482.62 264.31 483.57"/><polyline class="cls-3" points="264.31 483.57 265.48 484.81 266.43 483.91 265.26 482.67 264.31 483.57"/><polyline class="cls-3" points="264.5 479.95 265.46 479.06 265.41 480.91 264.5 479.95"/><polyline class="cls-3" points="263.53 478.88 264.44 479.84 263.48 480.74 263.53 478.88"/><polyline class="cls-3" points="264.31 483.57 266.22 481.77 264.42 479.86 262.5 481.66 264.31 483.57"/><line class="cls-3" x1="262.62" y1="484.27" x2="251.11" y2="495.12"/><line class="cls-3" x1="277.99" y1="497.1" x2="293.04" y2="513.05"/><line class="cls-3" x1="265.96" y1="484.36" x2="276.82" y2="495.86"/><polyline class="cls-3" points="276.34 496.31 277.51 497.56 278.46 496.65 277.29 495.41 276.34 496.31"/><polyline class="cls-3" points="328.08 547.3 326.91 546.06 325.95 546.96 327.13 548.2 328.08 547.3"/><polyline class="cls-3" points="392.96 616.03 391.79 614.79 390.83 615.69 392.01 616.93 392.96 616.03"/><polyline class="cls-3" points="262.72 478.03 264.53 479.94 268.34 476.33 266.54 474.42 262.72 478.03"/><polyline class="cls-3" points="260.74 475.93 262.54 477.83 266.36 474.23 264.56 472.32 260.74 475.93"/><polyline class="cls-3" points="212.21 131.99 215.82 135.8 219.63 132.2 216.03 128.38 212.21 131.99"/><polyline class="cls-3" points="359.41 284.75 358.51 283.8 359.18 283.17 360.08 284.12 359.41 284.75"/><polyline class="cls-3" points="393.36 320.72 392.46 319.76 393.13 319.13 394.03 320.09 393.36 320.72"/><polyline class="cls-3" points="265.58 373.33 264.68 372.38 264.01 373.01 264.91 373.97 265.58 373.33"/><polyline class="cls-3" points="299.53 409.3 298.63 408.34 297.96 408.97 298.86 409.93 299.53 409.3"/><line class="cls-3" x1="100.35" y1="205.68" x2="113.31" y2="219.4"/><polyline class="cls-3" points="98.7 204.89 99.88 206.13 100.83 205.23 99.66 203.99 98.7 204.89"/><polyline class="cls-3" points="84.58 189.92 85.75 191.16 86.7 190.26 85.53 189.02 84.58 189.92"/><polyline class="cls-3" points="112.83 219.85 114 221.09 114.95 220.19 113.78 218.95 112.83 219.85"/><line class="cls-3" x1="382.84" y1="198.95" x2="395.8" y2="212.67"/><line class="cls-3" x1="368.72" y1="183.99" x2="381.67" y2="197.71"/><polyline class="cls-3" points="381.19 198.16 382.37 199.4 383.32 198.5 382.15 197.26 381.19 198.16"/><polyline class="cls-3" points="367.07 183.2 368.24 184.44 369.2 183.54 368.02 182.3 367.07 183.2"/><polyline class="cls-3" points="395.32 213.13 396.49 214.37 397.45 213.46 396.27 212.22 395.32 213.13"/><line class="cls-3" x1="596.1" y1="559.38" x2="607.75" y2="548.39"/><line class="cls-3" x1="583.21" y1="571.55" x2="594.86" y2="560.55"/><polyline class="cls-3" points="594.41 560.08 595.65 558.9 596.55 559.86 595.31 561.03 594.41 560.08"/><polyline class="cls-3" points="581.52 572.24 582.76 571.07 583.66 572.02 582.42 573.2 581.52 572.24"/><polyline class="cls-3" points="607.29 547.91 608.54 546.74 609.44 547.69 608.2 548.86 607.29 547.91"/><line class="cls-3" x1="497.68" y1="652.29" x2="513.24" y2="637.6"/><line class="cls-3" x1="410.47" y1="202.07" x2="399.14" y2="212.77"/><polyline class="cls-3" points="399.59 213.25 398.35 214.42 397.45 213.46 398.69 212.29 399.59 213.25"/><line class="cls-3" x1="100.11" y1="235.11" x2="113.21" y2="222.74"/><line class="cls-3" x1="85.77" y1="248.65" x2="98.87" y2="236.28"/><polyline class="cls-3" points="98.42 235.8 99.66 234.63 100.56 235.58 99.32 236.75 98.42 235.8"/><polyline class="cls-3" points="84.08 249.34 85.32 248.17 86.22 249.12 84.98 250.29 84.08 249.34"/><polyline class="cls-3" points="112.76 222.26 114 221.09 114.9 222.04 113.66 223.22 112.76 222.26"/><line class="cls-3" x1="562.57" y1="492.6" x2="575.53" y2="506.32"/><line class="cls-3" x1="548.45" y1="477.64" x2="561.4" y2="491.36"/><polyline class="cls-3" points="560.92 491.81 562.1 493.05 563.05 492.15 561.88 490.91 560.92 491.81"/><polyline class="cls-3" points="575.05 506.77 576.22 508.01 577.18 507.11 576 505.87 575.05 506.77"/><polyline class="cls-3" points="146.77 458.5 145.6 457.26 144.65 458.16 145.82 459.4 146.77 458.5"/><polyline class="cls-3" points="507.87 242.81 511.48 246.63 517.2 241.22 513.6 237.4 507.87 242.81"/><polyline class="cls-3" points="572.75 311.53 576.36 315.35 582.09 309.95 578.48 306.13 572.75 311.53"/><polyline class="cls-3" points="411.59 331.71 414.3 334.58 408.57 339.98 405.87 337.12 411.59 331.71"/><polyline class="cls-3" points="414.48 334.77 417.18 337.63 411.45 343.04 408.75 340.17 414.48 334.77"/><polyline class="cls-3" points="180.69 291.73 184.29 295.55 190.02 290.14 186.41 286.32 180.69 291.73"/><polyline class="cls-3" points="245.57 360.45 249.17 364.27 254.9 358.87 251.29 355.05 245.57 360.45"/><polyline class="cls-3" points="79.5 387.25 83.11 391.06 88.83 385.66 85.23 381.84 79.5 387.25"/><polyline class="cls-3" points="144.38 455.98 147.99 459.79 153.72 454.39 150.11 450.57 144.38 455.98"/><polyline class="cls-3" points="309.46 428.13 312.16 431 317.89 425.59 315.18 422.73 309.46 428.13"/><polyline class="cls-3" points="312.34 431.19 315.04 434.05 320.77 428.64 318.07 425.78 312.34 431.19"/><polyline class="cls-3" points="341.98 269.44 345.58 273.26 349.4 269.65 345.79 265.84 341.98 269.44"/><polyline class="cls-3" points="114 221.09 115.91 219.29 117.71 221.2 115.8 223 114 221.09"/><line class="cls-3" x1="117.71" y1="221.2" x2="117.71" y2="221.2"/><polyline class="cls-3" points="117.71 221.2 118.67 220.29 116.81 220.24 117.71 221.2 116.76 222.1 118.61 222.15 117.71 221.2"/><polyline class="cls-3" points="397.45 213.46 399.25 215.37 397.34 217.18 395.54 215.27 397.45 213.46"/><line class="cls-3" x1="397.34" y1="217.18" x2="397.34" y2="217.18"/><polyline class="cls-3" points="397.34 217.18 398.24 218.13 398.29 216.28 397.34 217.18 396.44 216.22 396.38 218.08 397.34 217.18"/><polyline class="cls-3" points="579.7 307.42 580.87 308.66 581.82 307.76 580.65 306.52 579.7 307.42"/><polyline class="cls-3" points="514.82 238.69 515.99 239.93 516.94 239.03 515.77 237.79 514.82 238.69"/><polyline class="cls-3" points="445.29 170.11 446.19 171.06 448.72 168.67 451.11 171.2 452.06 170.3 448.77 166.82 445.29 170.11"/><polyline class="cls-3" points="366.12 184.1 367.29 185.34 368.24 184.44 367.07 183.2 366.12 184.1"/><polyline class="cls-3" points="301.24 115.37 302.41 116.61 303.36 115.71 302.19 114.47 301.24 115.37"/><polyline class="cls-3" points="333.68 149.74 334.85 150.98 335.8 150.08 334.63 148.84 333.68 149.74"/><polyline class="cls-3" points="236.35 46.64 237.53 47.88 238.48 46.98 237.31 45.74 236.35 46.64"/><polyline class="cls-3" points="268.79 81.01 269.96 82.25 270.92 81.35 269.75 80.11 268.79 81.01"/><line class="cls-3" x1="12.76" y1="318.47" x2="12.76" y2="318.47"/><polyline class="cls-3" points="12.77 318.46 16.05 321.95 17.01 321.05 14.62 318.52 17.15 316.13 16.25 315.18 12.77 318.46"/><line class="cls-3" x1="212.81" y1="530.38" x2="212.81" y2="530.38"/><polyline class="cls-3" points="212.81 530.38 209.53 526.89 210.48 525.99 212.87 528.52 215.4 526.13 216.3 527.09 212.81 530.38"/><line class="cls-3" x1="459" y1="687.9" x2="459" y2="687.9"/><polyline class="cls-3" points="459 687.9 455.72 684.42 456.67 683.51 459.06 686.04 461.59 683.66 462.49 684.61 459 687.9"/><line class="cls-3" x1="610.78" y1="544.62" x2="610.78" y2="544.62"/><polyline class="cls-3" points="610.78 544.62 607.29 547.91 606.39 546.95 608.92 544.57 606.53 542.04 607.49 541.14 610.78 544.62"/><polyline class="cls-3" points="511.89 636.17 513.13 635 514.03 635.95 512.79 637.12 511.89 636.17"/><polyline class="cls-3" points="81.89 389.78 80.72 388.54 79.76 389.44 80.94 390.68 81.89 389.78"/><polyline class="cls-3" points="614.49 544.73 458.9 691.61 264.25 485.43 212.71 534.09 9.05 318.36 112.14 221.04 47.26 152.31 202.86 5.42 397.5 211.61 448.88 163.11 652.53 378.83 549.61 476 614.49 544.73"/><polyline class="cls-3" points="612.63 544.67 458.95 689.76 264.31 483.57 212.76 532.23 10.91 318.41 114 221.09 49.12 152.36 202.8 7.28 397.45 213.46 448.82 164.96 650.68 378.78 547.75 475.95 612.63 544.67"/><polyline class="cls-3" points="610.78 544.62 459 687.9 264.36 481.71 212.81 530.38 12.77 318.46 115.86 221.14 50.98 152.42 202.75 9.14 397.39 215.32 448.77 166.82 648.82 378.73 545.9 475.89 610.78 544.62"/><polyline class="cls-3" points="52.47 282.79 117.71 221.2 52.83 152.47 202.7 10.99 397.34 217.18 448.72 168.67 646.97 378.68 544.04 475.84 608.92 544.57"/><polyline class="cls-3" points="608.92 544.57 459.06 686.04 264.42 479.86 212.87 528.52 14.62 318.52 51.8 283.42"/><line class="cls-3" x1="234.94" y1="184.55" x2="172.7" y2="243.3"/><line class="cls-3" x1="172.7" y1="243.3" x2="234.94" y2="184.55"/><polyline class="cls-3" points="377.24 496.11 380.84 499.93 384.66 496.32 381.06 492.5 377.24 496.11"/><polyline class="cls-3" points="209.26 524.7 212.87 528.52 216.69 524.92 213.08 521.1 209.26 524.7"/><polyline class="cls-3" points="14.62 318.52 18.22 322.34 22.04 318.73 18.44 314.91 14.62 318.52"/><polyline class="cls-3" points="277.09 200.71 280.7 204.53 284.52 200.93 280.91 197.11 277.09 200.71"/><polyline class="cls-3" points="325.69 544.77 329.3 548.59 333.11 544.98 329.51 541.16 325.69 544.77"/><polyline class="cls-3" points="390.57 613.5 394.18 617.32 398 613.71 394.39 609.89 390.57 613.5"/><polyline class="cls-3" points="455.45 682.23 459.06 686.04 462.88 682.44 459.27 678.62 455.45 682.23"/><polyline class="cls-3" points="507 633.57 510.6 637.38 514.42 633.78 510.82 629.96 507 633.57"/><polyline class="cls-3" points="601.5 544.35 605.11 548.17 608.92 544.57 605.32 540.75 601.5 544.35"/><polyline class="cls-3" points="536.62 475.63 540.22 479.44 544.04 475.84 540.44 472.02 536.62 475.63"/><polyline class="cls-3" points="639.54 378.46 643.15 382.28 646.97 378.68 643.36 374.86 639.54 378.46"/><polyline class="cls-3" points="444.9 172.28 448.5 176.1 452.32 172.49 448.72 168.67 444.9 172.28"/><polyline class="cls-3" points="393.52 220.78 397.13 224.6 400.94 220.99 397.34 217.18 393.52 220.78"/><polyline class="cls-3" points="328.64 152.05 332.25 155.87 336.06 152.26 332.46 148.45 328.64 152.05"/><polyline class="cls-3" points="263.76 83.32 267.36 87.14 271.18 83.54 267.58 79.72 263.76 83.32"/><polyline class="cls-3" points="255.87 331.41 255.42 330.93 256.38 330.03 256.83 330.51 255.87 331.41"/><polyline class="cls-3" points="493.13 391.21 492.65 391.67 491.75 390.71 492.23 390.26 493.13 391.21"/><polyline class="cls-3" points="476.62 406.81 477.09 406.35 476.19 405.4 475.71 405.85 476.62 406.81"/><polyline class="cls-3" points="493.13 391.21 492.65 391.67 491.75 390.71 492.23 390.26 493.13 391.21"/><polyline class="cls-3" points="419.93 502.89 434.8 518.64 452.78 501.66 437.92 485.91 419.93 502.89"/><line class="cls-3" x1="172.7" y1="243.3" x2="203.34" y2="275.76"/></g></svg>