<svg id="Layer_1" data-name="Layer 1" xmlns="http://www.w3.org/2000/svg" viewBox="0 0 475.2 187.44"><defs><style>.cls-1{fill:#fefefe;}.cls-2{fill:#090909;}.cls-3{fill:#fd5f5f;}.cls-4{fill:#fe1717;}.cls-5{fill:#3f3e3e;}.cls-6{fill:#febebe;}.cls-7{fill:#fdfdfd;}</style></defs><path class="cls-1" d="M-23,313.6V256H452.2v.71l-2.16,0H356c-.68,0-1.35,0-2,.05l-31.93,0h-.64l-42.48,0-.34-.6-.46.6H235.1v45.48c0,1.56-.06,3.11-.07,4.66,0,2.19,0,4.38,0,6.68H85.43c-.71,0-1.42.05-2.14.07H-20.51C-21.34,313.69-22.17,313.63-23,313.6Z" transform="translate(23 -256)"/><path class="cls-1" d="M452.2,390.4v53H281.56a11.76,11.76,0,0,1-.11-1.18q0-25.25,0-50.49c0-.42,0-.84.06-1.35h32.23l8.63,0,.77,0h60l.65,0c.48,0,1,.05,1.44.05H450Z" transform="translate(23 -256)"/><path class="cls-2" d="M235.72,443.44H235a.11.11,0,0,0,0-.17c0-.18,0-.35,0-.53a5.51,5.51,0,0,0,.08-.71V402.7c0-.31-.06-.62-.08-.9H194.17v39.75c0,.4,0,.79.05,1.19v.53a.2.2,0,0,0,0,.17h-.72l-.11-.72c0-.23.06-.47.06-.71V401.79H106.89v40.1c0,.28,0,.56.06.83l-.11.72h-.72a.2.2,0,0,0,0-.17v-.53c0-.24.05-.47.05-.71V402.68c0-.31-.05-.61-.07-.89h-22v40.1c0,.28,0,.56.06.83l-.11.72h-.72a.2.2,0,0,0,0-.17v-.53a5.87,5.87,0,0,0,0-.59V402.56a7.49,7.49,0,0,0-.09-.85H60.77V401H280.55v.81l-44.13,0a4.16,4.16,0,0,0-.52.08c0,.38-.05.73-.05,1.08v38.86c0,.32.05.63.08.95Z" transform="translate(23 -256)"/><path class="cls-3" d="M452.2,390.4l-2.16,0H385.19c-.48,0-1,0-1.44-.05,0-.28.06-.56.08-.84l.48,0h65.76c.35,0,.7,0,1.18-.06v-45q0-20.26,0-40.53a6,6,0,0,0-.15-.93l.12-.56c0-.28,0-.56,0-.84q0-21.47,0-42.94c0-.3,0-.61-.06-1H385.92l-.47-.78-.47.77h-30.2c0-.48-.08-1-.79-.72a.32.32,0,0,1,0-.14c.68,0,1.35-.05,2-.05h94l2.16,0Z" transform="translate(23 -256)"/><path class="cls-4" d="M-23,313.6c.83,0,1.66.09,2.49.09H83.29a.21.21,0,0,0,0,.17l0,.61H-22v40.89h-.81a5.51,5.51,0,0,0,.08-.71q0-19.62,0-39.24a3.26,3.26,0,0,0-.22-.84Z" transform="translate(23 -256)"/><path class="cls-3" d="M235.72,443.44l.21-.74h44.65v-4.76l0-36.19v-.81c0-3.41,0-6.82,0-10.23l0-.79a2.93,2.93,0,0,1,1-.37q20.42,0,40.83,0l0,.85-8.63,0H281.51c0,.51-.06.93-.06,1.35q0,25.25,0,50.49a11.76,11.76,0,0,0,.11,1.18Z" transform="translate(23 -256)"/><path class="cls-4" d="M-22,443.44h-.72c0-.48,0-1,0-1.44q0-42.06,0-84.13c0-.52,0-1-.08-1.55H-22c0,.12,0,.24,0,.36v86.06H59.8l.09.54-.47,0H-21A5.23,5.23,0,0,0-22,443.44Z" transform="translate(23 -256)"/><path class="cls-5" d="M-22,356.32h-.81c-.05.05-.09,0-.14,0v-1l.07,0,.07,0H-22c.48,0,1,.05,1.43.05H19.72v11.37l0,.9h0l-.82,0V356.26H-21.22C-21.49,356.26-21.77,356.3-22,356.32Z" transform="translate(23 -256)"/><path class="cls-5" d="M59.89,443.27l-.09-.54c0-.44.06-.88.06-1.31V418.19l0-27.78.85-.07c0,3.54,0,7.08.08,10.62v.75c0,.4-.07.8-.07,1.2v38.75c0,.35,0,.71.06,1.07l-.08.5-.16.21H60A.23.23,0,0,0,59.89,443.27Z" transform="translate(23 -256)"/><path class="cls-4" d="M106.84,443.44l.11-.72,1.55,0h74l10.9,0,.11.72h-.24a7.83,7.83,0,0,0-1.26-.19H108.34a7.83,7.83,0,0,0-1.26.19Z" transform="translate(23 -256)"/><path class="cls-6" d="M-23,356.32c.05,0,.09.05.14,0,0,.52.08,1,.08,1.55q0,42.06,0,84.13c0,.48,0,1,0,1.44a5.21,5.21,0,0,1-.23-1.08q0-25.14,0-50.28Z" transform="translate(23 -256)"/><path class="cls-3" d="M107.08,443.44a7.83,7.83,0,0,1,1.26-.19H192a7.83,7.83,0,0,1,1.26.19Z" transform="translate(23 -256)"/><path class="cls-3" d="M59.89,443.27a.23.23,0,0,1,.15.17H-22a5.23,5.23,0,0,1,1-.19H59.42Z" transform="translate(23 -256)"/><path class="cls-4" d="M84,443.44l.11-.72,21.95,0v.53l-21,0a3.17,3.17,0,0,0-.78.19Z" transform="translate(23 -256)"/><path class="cls-6" d="M-22.86,355.35l-.07,0-.07,0v-40.8a3.26,3.26,0,0,1,.22.84q0,19.62,0,39.24A5.51,5.51,0,0,1-22.86,355.35Z" transform="translate(23 -256)"/><path class="cls-3" d="M235,443.27a.11.11,0,0,1,0,.17H194.2a.2.2,0,0,1,0-.17l4.56,0Z" transform="translate(23 -256)"/><path class="cls-3" d="M60.52,443.44l.16-.21,22.62,0a.2.2,0,0,1,0,.17Z" transform="translate(23 -256)"/><path class="cls-3" d="M84.28,443.44a3.17,3.17,0,0,1,.78-.19l21,0a.2.2,0,0,1,0,.17Z" transform="translate(23 -256)"/><path class="cls-2" d="M451.23,302.46l-.12.56c-.43,0-.87.06-1.31.06H405.86v8.58h-.69v-8.57H237.26c-.44,0-.87,0-1.31.05s-1-.06-.69-.81l.61,0c.2,0,.4.05.6.05h41c.22,0,.44-.05.71-.07v-1.39q0-13.74,0-27.47c0-5.28,0-10.56,0-15.83v-.79l.46-.6.34.6v.79c0,.2,0,.4,0,.59q0,21.72,0,43.44c0,.23,0,.45.06.66H321.4V300.9q0-13.74,0-27.48c0-5.28,0-10.55,0-15.83l.08-.77h.64c0,.25.05.51.08.77s0,.47,0,.71q0,21.65,0,43.29c0,.23,0,.46,0,.67H354V258.91c0-.44,0-.88,0-1.32l0-.66c.71-.24.75.24.79.72a3.91,3.91,0,0,0,0,.48v43.53a4,4,0,0,0,.09.63H385V258.73c0-.36,0-.72,0-1.08l.47-.77.47.78c0,.32-.07.63-.07.95v43.74h63.84C450.2,302.35,450.72,302.42,451.23,302.46Z" transform="translate(23 -256)"/><path class="cls-3" d="M235.26,302.32c-.33.75.15.8.69.81q0,6.11,0,12.22,0,20,0,40c0,.7-.08,1.14-.92.83l-.06-.8c0-.2,0-.4,0-.6q0-19.66,0-39.34a9.23,9.23,0,0,0-.1-1H152.46l-.5-.75-.33.76H84.13c0-.53-.06-1-.8-.68a.21.21,0,0,1,0-.17c.72,0,1.43-.07,2.14-.07H235c0-2.3,0-4.49,0-6.68,0-1.55,0-3.1.07-4.66A.29.29,0,0,1,235.26,302.32Z" transform="translate(23 -256)"/><path class="cls-4" d="M235.26,302.32a.29.29,0,0,0-.16,0V256.8h43.06v.79H235.87V302.3Z" transform="translate(23 -256)"/><path class="cls-4" d="M279,257.59v-.79l42.48,0c0,.25-.05.51-.08.77Z" transform="translate(23 -256)"/><path class="cls-4" d="M322.16,257.59c0-.26-.06-.52-.08-.77l31.93,0a.32.32,0,0,0,0,.14c0,.22,0,.44,0,.66Z" transform="translate(23 -256)"/><path class="cls-2" d="M322.37,390.38c0-.29,0-.57,0-.85q0-22,0-43.92a.63.63,0,0,0-.09-.24H258.69v44.55h21.85c0,.26,0,.52,0,.79h-22.7v-46.2H405.38v-7.24l.46-.66.49.65v7.25h17.92l27,0v.83l-.72,0H384.67c-.27,0-.54,0-.87,0v5l0,39.23c0,.28-.05.56-.08.84l-.65,0-.05-.74c0-.16,0-.32,0-.48q0-21.58,0-43.17a3.69,3.69,0,0,0-.08-.58H354.17v43.25c0,.31.06.63.09.94l-.11.78h-.76c0-.25-.05-.51-.07-.77s0-.47,0-.71V345.33H323.17c0,.23,0,.43,0,.63v42.68a4.71,4.71,0,0,0,.17.91l-.16.8Z" transform="translate(23 -256)"/><path class="cls-4" d="M323.14,390.35l.16-.8c2.79,0,5.58.07,8.36.07l21.66-.05c0,.26,0,.52.07.77Z" transform="translate(23 -256)"/><path class="cls-4" d="M383.05,389.6l.05.74h-29c0-.26.08-.52.11-.78Z" transform="translate(23 -256)"/><path class="cls-7" d="M405.38,337.27v7.24H257.86v46.2h22.7c0,3.41,0,6.82,0,10.23H60.76c0-3.54,0-7.08-.08-10.62a2,2,0,0,0,0-.35q0-11.48,0-22.95V356.21h152l22.31,0c.84.31.92-.13.92-.83q0-20,0-40,0-6.11,0-12.22c.44,0,.87-.05,1.31-.05H405.17v8.57c-.2,0-.4.05-.6.05H360.44c-.26,0-.52.06-.79.08v23.45c0,2,.08,2,2.08,2ZM265.57,313.42v24.79h68.94V313.42Zm-29.69,76.95V366.84h-76.6v23.53ZM83.4,366.87v23.44h69V366.87Z" transform="translate(23 -256)"/><path class="cls-7" d="M193.37,442.72l-10.9,0h-74l-1.55,0c0-.27-.06-.55-.06-.83v-40.1h86.54V442C193.43,442.25,193.39,442.49,193.37,442.72Z" transform="translate(23 -256)"/><path class="cls-7" d="M280.55,401.75l0,36.19v4.76H235.93c0-.32-.08-.63-.08-.95V402.89c0-.35,0-.7.05-1.08a4.16,4.16,0,0,1,.52-.08Z" transform="translate(23 -256)"/><path class="cls-7" d="M194.22,442.74c0-.4-.05-.79-.05-1.19V401.8H235c0,.28.08.59.08.9V442a5.51,5.51,0,0,1-.08.71Z" transform="translate(23 -256)"/><path class="cls-7" d="M60.76,442.73c0-.36-.06-.72-.06-1.07V402.91c0-.4,0-.8.07-1.2H83.26a7.49,7.49,0,0,1,.09.85v39.59a5.87,5.87,0,0,1,0,.59Z" transform="translate(23 -256)"/><path class="cls-7" d="M106.1,442.74l-21.95,0c0-.27-.06-.55-.06-.83v-40.1h22c0,.28.07.58.07.89V442C106.15,442.27,106.12,442.5,106.1,442.74Z" transform="translate(23 -256)"/><path class="cls-4" d="M194.22,442.74H235c0,.18,0,.35,0,.53l-36.24,0-4.56,0Z" transform="translate(23 -256)"/><path class="cls-4" d="M60.76,442.73H83.3v.53l-22.62,0C60.71,443.06,60.73,442.9,60.76,442.73Z" transform="translate(23 -256)"/><path class="cls-7" d="M383.83,389.53l0-39.23v-5c.33,0,.6,0,.87,0h65.86l.72,0v44.18c-.48,0-.83.06-1.18.06H384.31Z" transform="translate(23 -256)"/><path class="cls-1" d="M451.23,302.46c-.51,0-1-.11-1.54-.11H385.85V258.61c0-.32,0-.63.07-.95H451.2c0,.41.06.72.06,1q0,21.48,0,42.94C451.26,301.9,451.24,302.18,451.23,302.46Z" transform="translate(23 -256)"/><path class="cls-7" d="M451.25,344.48l-27,0H406.33v-7.25c.06-.22.21-.46.17-.66-.08-.37-.39-.71-.39-1.07,0-7.5,0-15,0-22.49a8.25,8.25,0,0,0-.22-1.38v-8.58H449.8c.44,0,.88,0,1.31-.06a6,6,0,0,1,.15.93Q451.26,324.21,451.25,344.48Z" transform="translate(23 -256)"/><path class="cls-1" d="M385,257.65c0,.36,0,.72,0,1.08v43.56H354.82a4,4,0,0,1-.09-.63V258.13a3.91,3.91,0,0,1,0-.48Z" transform="translate(23 -256)"/><path class="cls-1" d="M19.72,366.79V355.42H-20.62c-.47,0-.95,0-1.43-.05V314.47H83.31c0,.24,0,.48,0,.71v39.44c0,.27,0,.54-.09.93H59.86V366.8l-7.91,0Z" transform="translate(23 -256)"/><path class="cls-2" d="M59.86,366.8V355.55h23.4c0-.39.09-.66.09-.93V315.18c0-.23,0-.47,0-.71s0-.41,0-.61c.74-.33.8.15.8.68,0,.2,0,.4,0,.6V354.6a6.41,6.41,0,0,0,.09.78h67.49V354q0-16,0-32c0-2.48,0-5,0-7.44l.33-.76.5.75c0,.2-.05.4-.05.6v39.45c0,.27,0,.54.06.89h81.32l1.19,0,.06.8-22.31,0h-152V367Z" transform="translate(23 -256)"/><path class="cls-1" d="M280.54,389.92H258.69V345.37h63.56a.63.63,0,0,1,.09.24q0,22,0,43.92-20.41,0-40.83,0A2.93,2.93,0,0,0,280.54,389.92Z" transform="translate(23 -256)"/><path class="cls-1" d="M59.83,390.41l0,27.78v23.23c0,.43,0,.87-.06,1.31H-22.06V356.68c0-.12,0-.24,0-.36.28,0,.56-.06.83-.06H18.86v34.12H42.69Z" transform="translate(23 -256)"/><path class="cls-7" d="M19.68,367.7h0a4.13,4.13,0,0,1,.69-.11H30.82a4,4,0,0,1,.63.1v21.89H19.68Z" transform="translate(23 -256)"/><path class="cls-4" d="M19.68,367.7v21.87H31.45V367.68a4,4,0,0,0-.63-.1H20.38a4.13,4.13,0,0,0-.69.11l0-.9,32.23,0,7.91,0,.85.24q0,11.47,0,22.95a2,2,0,0,1,0,.35l-.85.07-17.14,0H18.86V367.74Zm40.14-.06H47.13v21.93H59.82ZM36.63,377.9V367.66h-4.3V377.9Zm.88.84v10.84h4.24V378.74Zm4.21-.84V367.64H37.55V377.9Zm-5.1,11.66V378.8H32.33v10.76Zm6-10.81v10.79h3.58V378.75Zm0-11.14v10.24h3.58V367.61Z" transform="translate(23 -256)"/><path class="cls-1" d="M279,257.59h42.4c0,5.28,0,10.55,0,15.83q0,13.74,0,27.48v1.38H279c0-.21-.06-.43-.06-.66q0-21.72,0-43.44C278.93,258,279,257.79,279,257.59Z" transform="translate(23 -256)"/><path class="cls-1" d="M235.87,302.3V257.59h42.29c0,5.27,0,10.55,0,15.83q0,13.72,0,27.47v1.39c-.27,0-.49.07-.71.07h-41C236.27,302.35,236.07,302.32,235.87,302.3Z" transform="translate(23 -256)"/><path class="cls-7" d="M322.16,257.59H354c0,.44,0,.88,0,1.32v43.35H322.17c0-.21,0-.44,0-.67q0-21.64,0-43.29C322.13,258.06,322.15,257.83,322.16,257.59Z" transform="translate(23 -256)"/><path class="cls-4" d="M405.86,311.66a8.25,8.25,0,0,1,.22,1.38c0,7.5,0,15,0,22.49,0,.36.31.7.39,1.07,0,.2-.11.44-.17.66-.17-.21-.33-.43-.49-.65l-.46.66H361.73c-2,0-2.08-.08-2.08-2V311.77c.27,0,.53-.08.79-.08h44.13c.2,0,.4,0,.6-.05Zm-16.19.85v23.91h15.6V312.51Zm-29.14,0v23.89h14.14V312.5Zm19.54,12.11v11.81h4.2V324.61Zm4.23-.91V312.54h-4.23V323.7Zm1,.88V336.4h3.5V324.58Zm-6.09,0h-3.53v11.81h3.53Zm-3.52-12.13v11.2h3.52v-11.2Zm13.08,11.24V312.48h-3.48v11.25Z" transform="translate(23 -256)"/><path class="cls-1" d="M235,355.43l-1.19,0H152.47c0-.35-.06-.62-.06-.89V315.13c0-.2,0-.4.05-.6h82.46a9.23,9.23,0,0,1,.1,1q0,19.68,0,39.34C235,355,235,355.23,235,355.43Z" transform="translate(23 -256)"/><path class="cls-7" d="M151.63,314.54c0,2.48,0,5,0,7.44q0,16,0,32v1.38H84.18a6.41,6.41,0,0,1-.09-.78V315.14c0-.2,0-.4,0-.6Z" transform="translate(23 -256)"/><path class="cls-7" d="M353.32,389.57l-21.66.05c-2.78,0-5.57,0-8.36-.07a4.71,4.71,0,0,1-.17-.91V346c0-.2,0-.4,0-.63h30.18v43.53C353.35,389.1,353.33,389.34,353.32,389.57Z" transform="translate(23 -256)"/><path class="cls-7" d="M383.05,389.6l-28.79,0c0-.31-.09-.63-.09-.94V345.37H383a3.69,3.69,0,0,1,.08.58q0,21.58,0,43.17C383.07,389.28,383.06,389.44,383.05,389.6Z" transform="translate(23 -256)"/><path class="cls-4" d="M265.57,313.42h68.94v24.79H265.57Zm46.25,24h21.84V314.21H311.82Zm-23.65-23.18H266.28v23.16h21.89Zm22.79,0H289.08v23.16H311Z" transform="translate(23 -256)"/><path class="cls-4" d="M235.88,390.37h-76.6V366.84h76.6Zm-45.26-.8H235V367.64h-44.4Zm-.85-21.9H160.11v21.86h29.66Z" transform="translate(23 -256)"/><path class="cls-4" d="M83.4,366.87h69v23.44h-69Zm68.2.76H107v21.91h44.6Zm-45.53,21.94V367.65H84.18v21.92Z" transform="translate(23 -256)"/><path class="cls-7" d="M59.82,367.64v21.93H47.13V367.64Z" transform="translate(23 -256)"/><path class="cls-7" d="M36.63,377.9h-4.3V367.66h4.3Z" transform="translate(23 -256)"/><path class="cls-7" d="M37.51,378.74h4.24v10.84H37.51Z" transform="translate(23 -256)"/><path class="cls-1" d="M41.72,377.9H37.55V367.64h4.17Z" transform="translate(23 -256)"/><path class="cls-1" d="M36.62,389.56H32.33V378.8h4.29Z" transform="translate(23 -256)"/><path class="cls-7" d="M42.64,378.75h3.58v10.79H42.64Z" transform="translate(23 -256)"/><path class="cls-7" d="M42.65,367.61h3.58v10.24H42.65Z" transform="translate(23 -256)"/><path class="cls-7" d="M389.67,312.51h15.6v23.91h-15.6Z" transform="translate(23 -256)"/><path class="cls-7" d="M360.53,312.5h14.14v23.89H360.53Z" transform="translate(23 -256)"/><path class="cls-7" d="M380.07,324.61h4.2v11.81h-4.2Z" transform="translate(23 -256)"/><path class="cls-7" d="M384.3,323.7h-4.23V312.54h4.23Z" transform="translate(23 -256)"/><path class="cls-1" d="M385.3,324.58h3.5V336.4h-3.5Z" transform="translate(23 -256)"/><path class="cls-1" d="M379.21,324.62v11.81h-3.53V324.62Z" transform="translate(23 -256)"/><path class="cls-7" d="M375.69,312.49h3.52v11.2h-3.52Z" transform="translate(23 -256)"/><path class="cls-7" d="M388.77,323.73h-3.48V312.48h3.48Z" transform="translate(23 -256)"/><path class="cls-7" d="M311.82,337.39V314.21h21.84v23.18Z" transform="translate(23 -256)"/><path class="cls-7" d="M288.17,314.21v23.16H266.28V314.21Z" transform="translate(23 -256)"/><path class="cls-7" d="M311,314.21v23.16H289.08V314.21Z" transform="translate(23 -256)"/><path class="cls-7" d="M190.62,389.57V367.64H235v21.93Z" transform="translate(23 -256)"/><path class="cls-7" d="M189.77,367.67v21.86H160.11V367.67Z" transform="translate(23 -256)"/><path class="cls-7" d="M151.6,367.63v21.91H107V367.63Z" transform="translate(23 -256)"/><path class="cls-7" d="M106.07,389.57H84.18V367.65h21.89Z" transform="translate(23 -256)"/></svg>