<svg id="Layer_1" data-name="Layer 1" xmlns="http://www.w3.org/2000/svg" viewBox="0 0 475.44 185.76"><defs><style>.cls-1{fill:#fefefe;}.cls-2{fill:#0e0e0e;}.cls-3{fill:#fe2424;}.cls-4{fill:#fe0000;}.cls-5{fill:#2b2b2b;}.cls-6{fill:#fe7e7e;}.cls-7{fill:#fdfdfd;}</style></defs><path class="cls-1" d="M-23,313.64V257H235c.06.63.16,1.26.17,1.89q0,9.51,0,19,0,12.21,0,24.43v11.26H153.83c-.48,0-1,0-1.44,0l-.71,0H83.32c-.48,0-1,0-1.44,0Z" transform="translate(23 -257)"/><path class="cls-1" d="M452.44,389.72v53h-300s-.07-.06-.07-.08a.85.85,0,0,1,.06-.17h22.66q9.18,0,18.35,0H235.2l.71,0c.2,0,.4,0,.6,0h45.05V389.72h41l.77,0,30.25,0H413.7Z" transform="translate(23 -257)"/><path class="cls-2" d="M152.43,442.51a.85.85,0,0,0-.06.17s0,.05.07.08h-.72l-.07-.25,0-.71c0-.2,0-.39,0-.59V402a6.88,6.88,0,0,0-.1-.9H106.85v1.37q0,12.22,0,24.46c0,5,0,9.91,0,14.87l0,.68h-.72l0-.68c0-.2,0-.4,0-.6V402c0-.28,0-.55,0-.87h-22v1.35q0,11.94,0,23.88c0,5.16,0,10.32,0,15.48l0,.68h-.72l0-.68c0-.16,0-.32,0-.48V401.88c0-.27,0-.53-.06-.76H61.36a4.45,4.45,0,0,0-.07.52q0,20,0,39.93a2.23,2.23,0,0,0,0,.23l-.06.68h-.76l0-.68a2,2,0,0,0,0-.24q-.12-25.85-.26-51.7s0-.08,0-.12H61v10.57H196.53q19.56,0,39.1,0l45.1,0v.76H235.93v36.77c0,1.31,0,2.63,0,3.95l-.07.72-.71,0-.06-.68c0-.2.05-.4.05-.6V402a8.65,8.65,0,0,0-.09-.89H216.29v1.37q0,10.78,0,21.58c0,5.91,0,11.82,0,17.74l0,.68h-.76l-.06-.68c0-.2,0-.4,0-.6V402c0-.27,0-.54,0-.87h-21.3V438.2c0,1.2,0,2.4.05,3.6l-.05.68h-.73l-.06-.68c0-.24.05-.48.05-.72v-40h-41v36.72c0,1.32,0,2.64.05,4Z" transform="translate(23 -257)"/><path class="cls-3" d="M235.21,302.36q0-12.21,0-24.43,0-9.53,0-19c0-.63-.11-1.26-.17-1.89H452.44v1a5.09,5.09,0,0,0-.21,1q0,32.3,0,64.58l-.69-.05q0-21.25,0-42.52a8,8,0,0,0-.08-.83c0-.27,0-.54.07-.81V257.79H407.69c-.36,0-.72,0-1.08,0H384l-.81.13a9.47,9.47,0,0,0-1.27-.18q-26.71,0-53.42,0a9.47,9.47,0,0,0-1.27.18l-.81-.13q-9.51,0-19,0a2,2,0,0,0-.55.17l-.81-.13c-.43,0-.87,0-1.31,0q-12.86,0-25.71,0c-2.2,0-4.39,0-6.58,0h-.74c-.24,0-.48,0-.72,0H236.83c-.27,0-.54,0-.87.06v44.41Z" transform="translate(23 -257)"/><path class="cls-4" d="M60.48,441.8l0,.68c-.48,0-1,0-1.44,0H-23V355.88l.72,0v85.9Z" transform="translate(23 -257)"/><path class="cls-4" d="M-23,313.64H81.88c.48,0,1,0,1.44,0,0,.22,0,.45,0,.68H-22.28v40.7l-.72.1Z" transform="translate(23 -257)"/><path class="cls-3" d="M452.44,389.72l-38.74,0,.09-.72h37.76V324.43l.69-.05q0,31.81,0,63.62a5.09,5.09,0,0,0,.21,1Z" transform="translate(23 -257)"/><path class="cls-2" d="M-23,355.16l.72-.1c.44,0,.88.05,1.32.05H19.51v11.24l-.73.6v-11.1h-40.7a2.23,2.23,0,0,0-.36,0l-.72,0Z" transform="translate(23 -257)"/><path class="cls-5" d="M452.24,324.38l-.69.05c-1.08,0-2.15-.06-3.23-.06l-41.47,0v-.86l.48,0h43.39c.27,0,.55,0,.83-.06l.69.05h.11l.09-.07v1A.14.14,0,0,0,452.24,324.38Z" transform="translate(23 -257)"/><path class="cls-1" d="M-23,442.52H59.08c.48,0,1,0,1.44,0h46.32l44.81,0,.07.25H-21.92A5.21,5.21,0,0,1-23,442.52Z" transform="translate(23 -257)"/><path class="cls-6" d="M452.44,323.48l-.09.07h-.11q0-32.3,0-64.58a5.09,5.09,0,0,1,.21-1Z" transform="translate(23 -257)"/><path class="cls-6" d="M452.24,324.38a.14.14,0,0,1,.2.06V389a5.09,5.09,0,0,1-.21-1Q452.23,356.19,452.24,324.38Z" transform="translate(23 -257)"/><path class="cls-2" d="M405.87,257.84h.74v44.39H427.4v-22.9h24.15l-.07.81c-.2,0-.39-.05-.59-.05H428.94c-.23,0-.45,0-.8.06v22.94h-21.5v8.53l-.8-.07v-8.5H237.26c-.44,0-.87,0-1.31.05l-.74-.09v-.65l.75-.1c.23,0,.47.05.71.05H271c.23,0,.45,0,.74-.05V257.84h.74v44.41h33.6V257.84l.81.13c0,.23-.05.47-.05.71v43.56h19.58a2.41,2.41,0,0,0,.07-.4q0-22,0-44l.81.13c0,.23-.05.47-.05.71v43.56h56.06V259c0-.36,0-.72,0-1.07l.81-.13v44.41h21.84Z" transform="translate(23 -257)"/><path class="cls-2" d="M83.28,314.36c0-.23,0-.46,0-.68H84l0,.68c0,.2,0,.4,0,.6V354.2c0,.28,0,.55,0,.87h22v-1.35q0-11.94,0-23.88c0-5.16,0-10.32,0-15.48l0-.68h.72l0,.68c0,.16,0,.32,0,.48v39.44a5.91,5.91,0,0,0,.08.76h21.94V315.56c0-.4,0-.8-.05-1.2l.06-.68h.76l0,.68c0,.16,0,.32,0,.48v39.44a5.91,5.91,0,0,0,.08.76h21.94V315.56c0-.4,0-.8,0-1.2l.06-.68.71,0c0,.24.05.48.07.72s-.05.4-.05.59v39.22c0,.28,0,.55.06.92H235.1l.11.72-.6,0H60.94v10.51l-.64,0V354.7c1.48.44,20.37.66,23,.3v-1.3q0-12,0-24C83.31,324.59,83.29,319.48,83.28,314.36Z" transform="translate(23 -257)"/><path class="cls-3" d="M152.46,314.38c0-.24,0-.48-.07-.72.48,0,1,0,1.44,0h81.38V303l.74.09v41l-.75.1V314.38Z" transform="translate(23 -257)"/><path class="cls-4" d="M106.88,314.36l0-.68h22l-.06.68Z" transform="translate(23 -257)"/><path class="cls-4" d="M84.08,314.36l0-.68h22.08l0,.68Z" transform="translate(23 -257)"/><path class="cls-4" d="M151.68,313.68l-.06.68H129.68l0-.68Z" transform="translate(23 -257)"/><path class="cls-5" d="M235.2,344.23l.75-.1c.4,0,.8.07,1.2.07H405.9V337l.89-.12v7.36h6.93v1.77q0,20.93,0,41.85c0,.36,0,.72.06,1.08l-.09.72h-.77c0-.23-.05-.46-.08-.7s.06-.47.06-.71q0-21.16,0-42.34a8.22,8.22,0,0,0-.08-.88H384V385.4c0,1.19,0,2.39,0,3.59l-.05.7h-.75l-.06-.7c0-.2,0-.4,0-.59V345.94c0-.27,0-.54,0-.85a5.49,5.49,0,0,0-.75-.08q-13.66,0-27.34,0a2.89,2.89,0,0,0-.91.31h-.58a5.24,5.24,0,0,0-1.27-.31q-13.89,0-27.8,0h-1.25v40.4c0,1.2,0,2.39,0,3.59l0,.71-.77,0c0-.25,0-.5-.05-.74,0-.44,0-.88,0-1.32V345.09H288.75a2.67,2.67,0,0,0-.06.33q0,21.76,0,43.54h-.86V345.31c0-.07-.06-.13-.11-.23H258.79V389h21.47v.68H257.93V345H247.11l-11.16.07-.76-.19Z" transform="translate(23 -257)"/><path class="cls-3" d="M322.49,389c0,.24,0,.49.05.74h-41v52.82H236.51c-.2,0-.4,0-.6,0,0-.24.05-.48.07-.72h44.8V417.6q0-8.27,0-16.54c0-.25,0-.51,0-.76,0-3.29,0-6.58,0-9.88,0-.24-.33-.48-.5-.72V389l7.59-.06h.86Z" transform="translate(23 -257)"/><path class="cls-2" d="M353.63,345.33h.58c0,.43.07.87.07,1.3q0,15.57,0,31.12c0,3.75,0,7.5,0,11.25l0,.68h-.72l0-.68c0-.44,0-.88,0-1.32q0-20.52,0-41.05C353.56,346.2,353.6,345.76,353.63,345.33Z" transform="translate(23 -257)"/><path class="cls-4" d="M193.38,441.8l.06.68q-9.18,0-18.35,0H152.43l0-.71Z" transform="translate(23 -257)"/><path class="cls-4" d="M353.52,389l0,.68-30.25,0,0-.71Z" transform="translate(23 -257)"/><path class="cls-4" d="M354.28,389.68l0-.68h28.89l.06.7Z" transform="translate(23 -257)"/><path class="cls-4" d="M412.85,389c0,.24,0,.47.08.7H384l.05-.7Z" transform="translate(23 -257)"/><path class="cls-4" d="M194.17,442.48l.05-.68h21.24l.06.68Z" transform="translate(23 -257)"/><path class="cls-4" d="M235.14,441.8l.06.68H216.28l0-.68Z" transform="translate(23 -257)"/><path class="cls-7" d="M280.26,389.7c.17.24.49.48.5.72,0,3.3,0,6.59,0,9.88l-45.1,0q-19.55,0-39.1,0H61V389.74c0-.52,0-1,0-1.55,0-1.56,0-3.11,0-4.66.08-5.64.18-11.27.25-16.9,0-.09-.21-.18-.33-.27V355.85H234.61l.6,0c.89.25.74-.36.74-.87v-9.89l11.16-.07h10.82v44.7Zm-121,0h76.67V366.43H159.21Zm-6.8-23.28h-69v23.29h69Z" transform="translate(23 -257)"/><path class="cls-1" d="M-22.28,355.9a2.23,2.23,0,0,1,.36,0h40.7v33.89H60.24s0,.08,0,.12q.14,25.84.26,51.7a2,2,0,0,1,0,.24H-22.28Z" transform="translate(23 -257)"/><path class="cls-7" d="M280.74,401.06q0,8.28,0,16.54v24.18H236c0-1.32,0-2.64,0-3.95V401.06Z" transform="translate(23 -257)"/><path class="cls-7" d="M106.88,441.8c0-5,0-9.91,0-14.87q0-12.23,0-24.46V401.1h44.72a6.88,6.88,0,0,1,.1.9v39.21c0,.2,0,.39,0,.59Z" transform="translate(23 -257)"/><path class="cls-7" d="M193.38,441.8H152.46c0-1.32-.05-2.64-.05-4V401.12h41v40C193.43,441.32,193.4,441.56,193.38,441.8Z" transform="translate(23 -257)"/><path class="cls-1" d="M84.08,441.8c0-5.16,0-10.32,0-15.48q0-11.94,0-23.88v-1.35h22c0,.32,0,.59,0,.87V441.2c0,.2,0,.4,0,.6Z" transform="translate(23 -257)"/><path class="cls-7" d="M61.34,441.8a2.23,2.23,0,0,1,0-.23q0-20,0-39.93a4.45,4.45,0,0,1,.07-.52H83.25c0,.23.06.49.06.76v39.44c0,.16,0,.32,0,.48Z" transform="translate(23 -257)"/><path class="cls-7" d="M215.46,441.8H194.22c0-1.2-.05-2.4-.05-3.6V401.12h21.3c0,.33,0,.6,0,.87V441.2C215.51,441.4,215.48,441.6,215.46,441.8Z" transform="translate(23 -257)"/><path class="cls-7" d="M235.14,441.8H216.32c0-5.92,0-11.83,0-17.74q0-10.79,0-21.58v-1.37H235.1a8.65,8.65,0,0,1,.09.89v39.2C235.19,441.4,235.16,441.6,235.14,441.8Z" transform="translate(23 -257)"/><path class="cls-3" d="M60.24,389.74H18.78V367l.73-.6,40.43,0a2.23,2.23,0,0,0,.36-.05l.64,0c.12.09.33.18.33.27-.07,5.63-.17,11.26-.25,16.9,0,1.55,0,3.1,0,4.66,0,.52,0,1,0,1.55Zm-28-11.49v8.63a11.42,11.42,0,0,1,0,1.31,2,2,0,0,1-.34.62,3.46,3.46,0,0,1-.43-.67,2.4,2.4,0,0,1,0-.71V367.21H19.56v21.71h16.9V378.25ZM47,367.18v21.73h13.2V367.18Zm-5.33,21.75V378.31h-4.3v10.62Zm0-11.52V367.24h-4.3v10.17Zm-9.37-10.23v10.21h4.17V367.18Zm10.29,11.07v10.67h3.48V378.25Zm3.52-11H42.59v10.17H46.1Z" transform="translate(23 -257)"/><path class="cls-4" d="M106.88,441.8h44.74l0,.71-44.81,0Z" transform="translate(23 -257)"/><path class="cls-4" d="M61.34,441.8H83.28l0,.68h-22Z" transform="translate(23 -257)"/><path class="cls-4" d="M84.08,441.8h22l0,.68H84Z" transform="translate(23 -257)"/><path class="cls-7" d="M383.22,258c0,.35,0,.71,0,1.07v43.2H327.21V258.68c0-.24,0-.48.05-.71a9.47,9.47,0,0,1,1.27-.18q26.72,0,53.42,0A9.47,9.47,0,0,1,383.22,258Z" transform="translate(23 -257)"/><path class="cls-7" d="M271.71,257.84v44.42c-.29,0-.51.05-.74.05h-34.3c-.24,0-.48,0-.71-.05V257.85c.33,0,.6-.06.87-.06H271C271.23,257.79,271.47,257.82,271.71,257.84Z" transform="translate(23 -257)"/><path class="cls-7" d="M306.05,257.84v44.41h-33.6V257.84c2.19,0,4.38,0,6.58,0q12.86,0,25.71,0C305.18,257.79,305.62,257.82,306.05,257.84Z" transform="translate(23 -257)"/><path class="cls-1" d="M406.64,311.62v-8.53h21.5V280.15c.35,0,.57-.06.8-.06h21.95c.2,0,.39,0,.59.05a8,8,0,0,1,.08.83q0,21.27,0,42.52c-.28,0-.56.06-.83.06H407.33l-.48,0c0-3.55,0-7.1,0-10.65A10.92,10.92,0,0,0,406.64,311.62Z" transform="translate(23 -257)"/><path class="cls-7" d="M451.55,279.33H427.4v22.9H406.61V257.84c.36,0,.72,0,1.08,0h43.86Z" transform="translate(23 -257)"/><path class="cls-7" d="M405.87,257.84v44.41H384V257.84Z" transform="translate(23 -257)"/><path class="cls-7" d="M326.45,257.84q0,22,0,44a2.41,2.41,0,0,1-.07.4H306.81V258.68c0-.24,0-.48.05-.71a2,2,0,0,1,.55-.17Q316.93,257.8,326.45,257.84Z" transform="translate(23 -257)"/><path class="cls-1" d="M60.3,366.32a2.23,2.23,0,0,1-.36.05l-40.43,0V355.11H-21c-.44,0-.88,0-1.32-.05v-40.7H83.28c0,5.12,0,10.23,0,15.35q0,12,0,24V355c-2.64.36-21.53.14-23-.3Z" transform="translate(23 -257)"/><path class="cls-1" d="M413.79,389c0-.36-.06-.72-.06-1.08q0-20.92,0-41.85v-1.77h-6.93v-7.36l.06-12.53,41.47,0c1.08,0,2.15,0,3.23.06V389Z" transform="translate(23 -257)"/><path class="cls-3" d="M406.85,324.39l-.06,12.53-.89.12c-.48,0-1-.05-1.44-.05H361.54c-1.64,0-1.76-.12-1.76-1.72V311.55h46.06l.8.07a10.92,10.92,0,0,1,.18,1.26c0,3.55,0,7.1,0,10.65Zm-17-11.91v23.68H406V312.48Zm-15,23.7V312.5H360.61v23.68Zm9.58,0V324.44H380.3V336.2Zm.05-23.73h-4.21v11h4.21ZM389,336.16V324.45h-3.51v11.71Zm-13.09-11.74v11.74h3.52V324.42Zm13.12-.91v-11h-3.52v11Zm-9.6,0v-11h-3.53v11Z" transform="translate(23 -257)"/><path class="cls-7" d="M405.84,311.55H359.78v23.71c0,1.6.12,1.72,1.76,1.72h42.92c.48,0,1,0,1.44.05v7.16H237.15c-.4,0-.8-.05-1.2-.07v-41c.44,0,.87-.05,1.31-.05H405.84Zm-140.3,26.38h69.08V313.24H265.54Z" transform="translate(23 -257)"/><path class="cls-7" d="M235.2,344.23c0,.22,0,.44,0,.65l-.09,10.23H152.47c0-.37-.06-.64-.06-.92V315c0-.19,0-.39.05-.59H235.2Z" transform="translate(23 -257)"/><path class="cls-7" d="M106.88,314.36h21.94c0,.4.05.8.05,1.2V355H106.93a5.91,5.91,0,0,1-.08-.76V314.84C106.85,314.68,106.87,314.52,106.88,314.36Z" transform="translate(23 -257)"/><path class="cls-7" d="M129.68,314.36h21.94c0,.4,0,.8,0,1.2V355H129.73a5.91,5.91,0,0,1-.08-.76V314.84C129.65,314.68,129.67,314.52,129.68,314.36Z" transform="translate(23 -257)"/><path class="cls-1" d="M84.08,314.36h22c0,5.16,0,10.32,0,15.48q0,11.94,0,23.88v1.35h-22c0-.32,0-.59,0-.87V315C84.05,314.76,84.07,314.56,84.08,314.36Z" transform="translate(23 -257)"/><path class="cls-3" d="M235.1,355.11l.09-10.23.76.19V355c0,.51.15,1.12-.74.87Z" transform="translate(23 -257)"/><path class="cls-7" d="M322.49,389l-33.78,0q0-21.78,0-43.54a2.67,2.67,0,0,1,.06-.33h33.78v42.57C322.53,388.1,322.5,388.54,322.49,389Z" transform="translate(23 -257)"/><path class="cls-1" d="M353.52,389H323.35c0-1.2,0-2.39,0-3.59V345h1.25q13.9,0,27.8,0a5.24,5.24,0,0,1,1.27.31c0,.43-.07.87-.07,1.3q0,20.53,0,41.05C353.55,388.12,353.53,388.56,353.52,389Z" transform="translate(23 -257)"/><path class="cls-1" d="M287.85,389l-7.59.06H258.79V345.08h28.95c.05.1.11.16.11.23Z" transform="translate(23 -257)"/><path class="cls-1" d="M412.85,389H384.07c0-1.2,0-2.4,0-3.59V345.06h28.8a8.22,8.22,0,0,1,.08.88q0,21.18,0,42.34C412.91,388.52,412.87,388.75,412.85,389Z" transform="translate(23 -257)"/><path class="cls-7" d="M383.21,389H354.32c0-3.75,0-7.5,0-11.25q0-15.56,0-31.12c0-.43,0-.87-.07-1.3a2.89,2.89,0,0,1,.91-.31q13.67,0,27.34,0a5.49,5.49,0,0,1,.75.08c0,.31,0,.58,0,.85V388.4C383.25,388.59,383.22,388.79,383.21,389Z" transform="translate(23 -257)"/><path class="cls-3" d="M159.21,389.66V366.43h76.67v23.23Zm75.92-22.43h-75V388.9h75Z" transform="translate(23 -257)"/><path class="cls-3" d="M152.41,366.38v23.29h-69V366.38Zm-.79.85H106.94v21.68h44.68ZM84.1,388.9H106V367.21H84.1Z" transform="translate(23 -257)"/><path class="cls-7" d="M32.22,378.25h4.24v10.67H19.56V367.21H31.42v20.22a2.4,2.4,0,0,0,0,.71,3.46,3.46,0,0,0,.43.67,2,2,0,0,0,.34-.62,11.42,11.42,0,0,0,0-1.31Z" transform="translate(23 -257)"/><path class="cls-7" d="M47,367.18h13.2v21.73H47Z" transform="translate(23 -257)"/><path class="cls-7" d="M41.66,388.93h-4.3V378.31h4.3Z" transform="translate(23 -257)"/><path class="cls-7" d="M41.66,377.41h-4.3V367.24h4.3Z" transform="translate(23 -257)"/><path class="cls-1" d="M32.29,367.18h4.17v10.21H32.29Z" transform="translate(23 -257)"/><path class="cls-1" d="M42.58,378.25h3.48v10.67H42.58Z" transform="translate(23 -257)"/><path class="cls-1" d="M46.1,367.22v10.17H42.59V367.22Z" transform="translate(23 -257)"/><path class="cls-7" d="M389.89,312.48H406v23.68H389.89Z" transform="translate(23 -257)"/><path class="cls-1" d="M374.86,336.18H360.61V312.5h14.25Z" transform="translate(23 -257)"/><path class="cls-1" d="M384.44,336.2H380.3V324.44h4.14Z" transform="translate(23 -257)"/><path class="cls-1" d="M384.49,312.47v11h-4.21v-11Z" transform="translate(23 -257)"/><path class="cls-1" d="M389,336.16h-3.51V324.45H389Z" transform="translate(23 -257)"/><path class="cls-1" d="M375.88,324.42h3.52v11.74h-3.52Z" transform="translate(23 -257)"/><path class="cls-1" d="M389,323.51h-3.52v-11H389Z" transform="translate(23 -257)"/><path class="cls-1" d="M379.4,323.51h-3.53v-11h3.53Z" transform="translate(23 -257)"/><path class="cls-3" d="M265.54,337.93V313.24h69.08v24.69Zm22.7-.81v-23H266.42v23Zm.87,0H311v-23h-21.9Zm22.81,0H333.8v-23H311.92Z" transform="translate(23 -257)"/><path class="cls-1" d="M235.13,367.23V388.9h-75V367.23Z" transform="translate(23 -257)"/><path class="cls-1" d="M151.62,367.23v21.68H106.94V367.23Z" transform="translate(23 -257)"/><path class="cls-1" d="M84.1,388.9V367.21H106V388.9Z" transform="translate(23 -257)"/><path class="cls-1" d="M288.24,337.12H266.42v-23h21.82Z" transform="translate(23 -257)"/><path class="cls-7" d="M289.11,337.11v-23H311v23Z" transform="translate(23 -257)"/><path class="cls-7" d="M311.92,337.09v-23H333.8v23Z" transform="translate(23 -257)"/></svg>