<svg id="Layer_1" data-name="Layer 1" xmlns="http://www.w3.org/2000/svg" viewBox="0 0 475.44 185.76"><defs><style>.cls-1{fill:#fefefe;}.cls-2{fill:#050505;}.cls-3{fill:#3f3f3f;}.cls-4{fill:#fe3232;}.cls-5{fill:#fe0000;}.cls-6{fill:#febebe;}.cls-7{fill:#fdbdbd;}.cls-8{fill:#7f7d7d;}.cls-9{fill:#fdfdfd;}</style></defs><path class="cls-1" d="M-23,313.66V257H235.22c0,.67,0,1.34,0,2v54.61H153.86c-.48,0-1,0-1.43,0H84.07l-.71,0c-.4,0-.8,0-1.2,0H-21.68Z" transform="translate(23 -257)"/><path class="cls-1" d="M452.4,390v52.79H281.53V390l1.44,0h39.41l.9,0,30.28,0h.65l28.94,0h.8Z" transform="translate(23 -257)"/><path class="cls-2" d="M194.18,442.76h-.72l0-.71c0-.2,0-.4,0-.6V401.87a4.68,4.68,0,0,0-.05-.55H150.07v39.89c0,.28,0,.55.05.83l-.47.5-.36-.49c0-.24.05-.48.05-.72V402c0-.22,0-.45,0-.67H106.87v40c0,.24,0,.47.06.71l-.1.72h-.72l0-.71c0-.24,0-.48,0-.72q0-19.68,0-39.35c0-.22,0-.45,0-.67h-22v.79q0,19.61,0,39.23c0,.24,0,.47,0,.71l-.1.72h-.72l0-.71c0-.28,0-.56,0-.84q0-19.6,0-39.2v-.68h-22c0,.25,0,.41,0,.57v39.32a7.77,7.77,0,0,0,.08.83l0,.71h-.72l-.13-.16-.07-.55c0-.32.07-.63.07-.95q0-19.5,0-39v-.86H37.36l-17.39,0v-.67c.43,0,.87-.05,1.31-.05h259.4v.79H235.94c0,6.53,0,12.92,0,19.31q0,10.74,0,21.48l0,.71h-.72l-.1-.72c0-.24,0-.47,0-.71V402c0-.23,0-.46,0-.67H194.18v27.54q0,6.58,0,13.19Z" transform="translate(23 -257)"/><path class="cls-3" d="M235.19,303.08v-.74l.77-.09a5.87,5.87,0,0,0,.59.05h62.15a8.3,8.3,0,0,0,.95-.1c0-.35.05-.62.05-.9V258.35a5.63,5.63,0,0,0-.05-.59l.13-.73h.72l0,.73c0,.2,0,.4,0,.6v42.92c0,.32,0,.63.05,1h21.85V259c0-.4,0-.79-.06-1.19V257h1l0,.73c0,.2,0,.4,0,.6v42.93c0,.32,0,.63,0,1H383.1V259c0-.4,0-.79-.06-1.19V257h1l0,.75c0,.2,0,.4,0,.6q0,21.53,0,43.07c0,.27,0,.54.07.85h66.4c.32,0,.63,0,.95-.05l.75.08.22.05v.48l-.22.22-.75.06c-.2,0-.4,0-.6,0H406.88c-.31,0-.61,0-1,.08,0,2.1,0,4.13,0,6.17,0,1.09-.12,2.19-.19,3.29a.21.21,0,0,1-.19,0l-.41-.18c0-.3,0-.6,0-.9V303.1H237.39c-.48,0-1,0-1.44,0Z" transform="translate(23 -257)"/><path class="cls-4" d="M60.55,442.05c0,.18,0,.37.07.55a.38.38,0,0,0-.11.16H-22.76a9.6,9.6,0,0,1-.23-1.49q0-42.6,0-85.19l.9-.15V442H18.76l.42.5.54-.5Z" transform="translate(23 -257)"/><path class="cls-4" d="M452.4,390l-68.45,0c0-.26.06-.53.08-.79l.6,0h66.72c0-.25.09-.45.09-.64q0-21.7,0-43.42v-.84q0-9.88,0-19.77l.75-.06q0,31.72,0,63.45a9.11,9.11,0,0,0,.2,1.36Z" transform="translate(23 -257)"/><path class="cls-4" d="M-23,313.66l1.32,0H82.16c.4,0,.8,0,1.2,0,0,.24,0,.48-.07.72H-22.1v40.73L-23,355V313.66Z" transform="translate(23 -257)"/><path class="cls-4" d="M280.68,401.26c0-.26,0-.53,0-.79,0-3.41,0-6.82,0-10.24l.34-.45.48.18v52.8H235.94c0-.24,0-.48,0-.71h44.76V441q0-19.43,0-38.86C280.73,401.81,280.7,401.54,280.68,401.26Z" transform="translate(23 -257)"/><path class="cls-4" d="M384,257.78l0-.75h67.44c.48,0,1.18-.25,1,.72a8.85,8.85,0,0,0-.2,1.34q0,21.63,0,43.24l-.75-.08V257.78Z" transform="translate(23 -257)"/><path class="cls-5" d="M236,302.25l-.77.09V259.05c0-.68,0-1.35,0-2h64.55c0,.24-.09.48-.13.73H236Z" transform="translate(23 -257)"/><path class="cls-4" d="M106.83,442.76l.1-.72h42.36l.36.49.48-.5h43.29l0,.71Z" transform="translate(23 -257)"/><path class="cls-3" d="M452.18,324.44l-.75.06c-.4,0-.8,0-1.2,0H406.12v-.91h44.24c.36,0,.71,0,1.07-.05l.74.08.23.16v.72Z" transform="translate(23 -257)"/><path class="cls-5" d="M323.33,257.76l0-.73H383v.73Z" transform="translate(23 -257)"/><path class="cls-2" d="M-23,355l.9.14c.44,0,.87,0,1.31,0H18.26a3,3,0,0,1,.95,0c.16.06.2.42.3.65l-.75,0h-25l-15.81,0-.9.14V355Z" transform="translate(23 -257)"/><path class="cls-4" d="M235.12,442l.1.72h-41l0-.71Z" transform="translate(23 -257)"/><path class="cls-1" d="M-23,355.89v.18q0,42.6,0,85.2a9.6,9.6,0,0,0,.23,1.49,5.21,5.21,0,0,1-.23-1.08q0-25.26,0-50.51Z" transform="translate(23 -257)"/><path class="cls-4" d="M106.09,442.05l0,.71H84l.1-.72Z" transform="translate(23 -257)"/><path class="cls-4" d="M61.47,442.76l0-.71H83.29l0,.71Z" transform="translate(23 -257)"/><path class="cls-5" d="M300.53,257.76l0-.73h21.84v.73Z" transform="translate(23 -257)"/><path class="cls-6" d="M452.18,324.44l.22,0v64.79a9.11,9.11,0,0,1-.2-1.36Q452.17,356.17,452.18,324.44Z" transform="translate(23 -257)"/><path class="cls-7" d="M452.18,302.33q0-21.61,0-43.24a8.85,8.85,0,0,1,.2-1.34v44.63Z" transform="translate(23 -257)"/><path class="cls-1" d="M-23,355v0Z" transform="translate(23 -257)"/><path class="cls-7" d="M452.4,323.74l-.23-.16q0-10.26,0-20.5l.22-.22Z" transform="translate(23 -257)"/><path class="cls-8" d="M60.51,442.76a.38.38,0,0,1,.11-.16c0,.06.09.11.13.16Z" transform="translate(23 -257)"/><path class="cls-2" d="M83.29,314.4c0-.24,0-.48.07-.72l.71,0,.06.68c0,.2,0,.4,0,.59q0,19.74,0,39.46c0,.23,0,.46.06.67h22v-1.39q0-19,0-38c0-.44,0-.87,0-1.31l.06-.68h.72l0,.68c0,.24,0,.48,0,.71v39.33c0,.23,0,.45.06.67h22c0-9.39,0-18.7,0-28,0-4.24,0-8.48,0-12.71l0-.68h.76c0,.22,0,.45.05.68s-.05.48-.05.71v39.33c0,.23,0,.45.06.67h22c0-9.39,0-18.7,0-28q0-6.36,0-12.71l0-.68h.73l0,.68c0,.2,0,.4,0,.6v39.56c0,.19,0,.37,0,.63h82.65l.06.68c-.52,0-1,0-1.56,0H63.06l-1.56,0-.71,0c-.48-1.18.53-.68.87-.68,6.79,0,13.58,0,20.38,0h1.31v-1.46q0-19,0-38C83.34,315.28,83.31,314.84,83.29,314.4Z" transform="translate(23 -257)"/><path class="cls-5" d="M235.18,355.85l-.06-.68c0-.28,0-.56,0-.83q0-19.54,0-39.08c0-.27,0-.54-.06-.88H152.47l0-.68c.47,0,.95,0,1.43,0h81.33V303.08l.76.06q0,25.68,0,51.36c0,.28.09.62,0,.82S235.43,355.68,235.18,355.85Z" transform="translate(23 -257)"/><path class="cls-5" d="M151.7,313.7l0,.68H129.72c0-.23,0-.46-.05-.68Z" transform="translate(23 -257)"/><path class="cls-5" d="M84.13,314.38l-.06-.68h22.08l-.06.68Z" transform="translate(23 -257)"/><path class="cls-5" d="M128.91,313.7l0,.68h-22l0-.68Z" transform="translate(23 -257)"/><path class="cls-3" d="M281.05,389.79l-.34.44H257.93v-1.66q0-21.1,0-42.22a4.6,4.6,0,0,0-.22-1.21,3.07,3.07,0,0,0-.39-.68,3.73,3.73,0,0,1,1.22-.48c.68,0,1.36.3,2,.3H405.12v-7.64l0-.85.2-.1.75.09a5.16,5.16,0,0,1,.1.67c0,2.59,0,5.17,0,7.79.13,0,.28,0,.44,0l44.78,0v.84H384.48a2.42,2.42,0,0,0-.48.1v8.56l0,35.39c0,.26,0,.53-.08.79h-.8c0-.27-.07-.53-.1-.8s.05-.48.05-.71V345.15a6.61,6.61,0,0,0-.67,0q-13.73,0-27.44,0a2.92,2.92,0,0,0-.83.25h-.55a4.53,4.53,0,0,0-1.06-.25q-14.21,0-28.4,0c-.31,0-.62,0-.86,0v8.78l0,35.22,0,.79-.9,0c0-.24,0-.49-.05-.73,0-3.08.05-6.16.05-9.23q0-17.38,0-34.82H281.56v15.38l0,28.67Zm-22.26-44.65v44.2h21.94v-44.2Z" transform="translate(23 -257)"/><path class="cls-2" d="M353.61,345.35h.55c0,2.63.08,5.26.08,7.89q0,18,0,35.91l-.07.77h-.65l-.07-.77c0-.48,0-1,0-1.43q0-20.54,0-41.07C353.53,346.22,353.58,345.78,353.61,345.35Z" transform="translate(23 -257)"/><path class="cls-5" d="M322.33,389.19c0,.24,0,.49.05.73H283l-1.44,0-.48-.18.54-.59Z" transform="translate(23 -257)"/><path class="cls-4" d="M353.49,389.15l.07.77-30.28,0c0-.26,0-.53,0-.79Z" transform="translate(23 -257)"/><path class="cls-4" d="M354.21,389.92c0-.25.05-.51.07-.77h28.77c0,.27.07.53.1.8Z" transform="translate(23 -257)"/><path class="cls-9" d="M405.12,336.65v7.64H260.57c-.67,0-1.35-.3-2-.3a3.73,3.73,0,0,0-1.22.48,3.07,3.07,0,0,1,.39.68,4.6,4.6,0,0,1,.22,1.21q0,21.12,0,42.22v1.66h22.78c0,3.42,0,6.83,0,10.24H21.27c-.44,0-.88,0-1.31.05a3.52,3.52,0,0,1-.29-1c0-3.19,0-6.38,0-9.58.48,0,1,0,1.44,0H61.48V367.67l0-11.76,1.56,0H233.62c.52,0,1,0,1.56,0,.25-.17.59-.29.73-.53s0-.54,0-.82q0-25.68,0-51.36c.48,0,1,0,1.44,0H405.08v8.44H359.83v25.09h4.52c6.87,0,13.75.07,20.63.08C391.69,336.71,398.41,336.67,405.12,336.65ZM265.58,313.24v24.83h68.94V313.24ZM159.22,389.92H235.9V366.51H159.22Zm-6.86,0V366.53h-69V390Z" transform="translate(23 -257)"/><path class="cls-1" d="M280.68,401.26c0,.28.05.55.05.83q0,19.43,0,38.86v1.1H236q0-10.74,0-21.48c0-6.39,0-12.78,0-19.31Z" transform="translate(23 -257)"/><path class="cls-9" d="M193.42,442.05H150.13c0-.28-.06-.55-.06-.83V401.32h43.34a4.68,4.68,0,0,1,.05.55v39.58C193.46,441.65,193.43,441.85,193.42,442.05Z" transform="translate(23 -257)"/><path class="cls-9" d="M149.29,442.05H106.93c0-.24-.06-.47-.06-.71v-40H149.3c0,.22,0,.45,0,.67v39.35C149.34,441.57,149.31,441.81,149.29,442.05Z" transform="translate(23 -257)"/><path class="cls-1" d="M60.55,442.05l-40.83,0a3.55,3.55,0,0,1-.06-.47q0-19.71,0-39.43a3.09,3.09,0,0,1,.3-.92l17.39,0H60.63v.86q0,19.5,0,39C60.62,441.42,60.57,441.73,60.55,442.05Z" transform="translate(23 -257)"/><path class="cls-9" d="M235.12,442h-40.9q0-6.6,0-13.19V401.32h40.94c0,.21,0,.44,0,.67v39.34C235.17,441.57,235.14,441.8,235.12,442Z" transform="translate(23 -257)"/><path class="cls-9" d="M106.09,442.05h-22c0-.24,0-.47,0-.71q0-19.62,0-39.23v-.79h22c0,.22,0,.45,0,.67q0,19.68,0,39.35C106.14,441.57,106.11,441.81,106.09,442.05Z" transform="translate(23 -257)"/><path class="cls-1" d="M83.29,442.05H61.44a7.77,7.77,0,0,1-.08-.83V401.9c0-.16,0-.32,0-.57h22V402q0,19.61,0,39.2C83.34,441.49,83.31,441.77,83.29,442.05Z" transform="translate(23 -257)"/><path class="cls-3" d="M20,401.21a3.09,3.09,0,0,0-.3.92q0,19.72,0,39.43a3.55,3.55,0,0,0,.06.47l-.54.5-.42-.5c0-.47,0-.95,0-1.43q0-25.34,0-50.66l.85.06c0,3.2,0,6.39,0,9.58a3.52,3.52,0,0,0,.29,1Z" transform="translate(23 -257)"/><path class="cls-9" d="M384,257.78h67.39v44.47c-.32,0-.63.05-.95.05h-66.4c0-.31-.07-.58-.07-.85q0-21.54,0-43.07C384,258.18,384,258,384,257.78Z" transform="translate(23 -257)"/><path class="cls-9" d="M236,302.25V257.76h63.69a5.63,5.63,0,0,1,.05.59V301.3c0,.28,0,.55-.05.9a8.3,8.3,0,0,1-.95.1H236.54A5.87,5.87,0,0,1,236,302.25Z" transform="translate(23 -257)"/><path class="cls-9" d="M323.33,257.76H383c0,.4.06.79.06,1.19v43.31H323.34c0-.34,0-.65,0-1V258.36C323.29,258.16,323.32,258,323.33,257.76Z" transform="translate(23 -257)"/><path class="cls-9" d="M300.53,257.76h21.8c0,.4.06.79.06,1.19v43.3H300.54c0-.34-.05-.65-.05-1V258.36C300.49,258.16,300.52,258,300.53,257.76Z" transform="translate(23 -257)"/><path class="cls-1" d="M451.43,323.5c-.36,0-.71.05-1.07.05H406.12c0-3.27,0-6.54-.05-9.81a4.14,4.14,0,0,0-.35-1.1c.07-1.1.18-2.2.19-3.29,0-2,0-4.07,0-6.17.35,0,.65-.08,1-.08h43.95c.2,0,.4,0,.6,0Z" transform="translate(23 -257)"/><path class="cls-1" d="M405.35,335.7l-.2.1H389.84V312.44h15.28l.41.18a9.38,9.38,0,0,0-.16,1.27Q405.34,324.8,405.35,335.7Z" transform="translate(23 -257)"/><path class="cls-4" d="M405.12,312.44H389.84V335.8h15.31l0,.85c-6.71,0-13.43.06-20.14.06-6.88,0-13.76-.06-20.63-.08h-4.52V311.54h45.25C405.1,311.84,405.11,312.14,405.12,312.44Zm-30.29.1H360.58v23.21h14.25Zm5.39,11.95v11.25h4.19V324.49Zm4.2-1v-11h-4.17v11Zm.92,1v11.21h3.57V324.5Zm-6,11.24V324.5h-3.55v11.24Zm6-23.24v11h3.57v-11Zm-9.63,11h3.59V312.55h-3.59Z" transform="translate(23 -257)"/><path class="cls-5" d="M405.35,335.7q0-10.9,0-21.81a9.38,9.38,0,0,1,.16-1.27.21.21,0,0,0,.19,0,4.14,4.14,0,0,1,.35,1.1c0,3.27,0,6.54.05,9.81v.91l0,11.33Z" transform="translate(23 -257)"/><path class="cls-4" d="M451.43,323.5V303.14l.75-.06q0,10.25,0,20.5Z" transform="translate(23 -257)"/><path class="cls-1" d="M18.82,389.94q0,25.32,0,50.66c0,.48,0,1,0,1.43H-22.1v-86.1l15.81,0H18.76a3.47,3.47,0,0,1,.06.45v33.6Z" transform="translate(23 -257)"/><path class="cls-1" d="M384,389.15l0-35.39V345.2a2.42,2.42,0,0,1,.48-.1h66.94q0,21.72,0,43.42c0,.19-.06.39-.09.64H384.63Z" transform="translate(23 -257)"/><path class="cls-9" d="M406.1,335.79l0-11.33h44.11c.4,0,.8,0,1.2,0q0,9.88,0,19.77l-44.78,0c-.16,0-.31,0-.44,0,0-2.62,0-5.2,0-7.79A5.16,5.16,0,0,0,406.1,335.79Z" transform="translate(23 -257)"/><path class="cls-1" d="M83.29,314.4c0,.44,0,.88,0,1.32q0,19,0,38v1.46H82c-6.8,0-13.59,0-20.38,0-.34,0-1.35-.5-.87.68,0,3.53,0,7.05-.08,10.57h-41c0-2.1,0-4.21-.07-6.31,0-1.43-.09-2.85-.14-4.28-.1-.23-.14-.59-.3-.65a3,3,0,0,0-.95,0h-39c-.44,0-.87,0-1.31,0V314.4Z" transform="translate(23 -257)"/><path class="cls-3" d="M19.51,355.85c0,1.43.12,2.85.14,4.28,0,2.1.05,4.21.07,6.31v.84a.2.2,0,0,1,0,.13l-.85,0v-11.1a3.47,3.47,0,0,0-.06-.45Z" transform="translate(23 -257)"/><path class="cls-1" d="M152.47,314.38h82.64c0,.34.06.61.06.88q0,19.53,0,39.08c0,.27,0,.55,0,.83H152.47c0-.26,0-.44,0-.63V315C152.43,314.78,152.45,314.58,152.47,314.38Z" transform="translate(23 -257)"/><path class="cls-9" d="M84.13,314.38h22c0,.44,0,.87,0,1.31q0,19,0,38v1.39h-22c0-.21-.06-.44-.06-.67q0-19.73,0-39.46C84.08,314.78,84.11,314.58,84.13,314.38Z" transform="translate(23 -257)"/><path class="cls-9" d="M106.92,314.38h22c0,4.23,0,8.47,0,12.71,0,9.3,0,18.61,0,28h-22c0-.22-.06-.44-.06-.67V315.09C106.87,314.86,106.91,314.62,106.92,314.38Z" transform="translate(23 -257)"/><path class="cls-9" d="M129.72,314.38h21.94q0,6.35,0,12.71c0,9.3,0,18.61,0,28h-22c0-.22-.06-.44-.06-.67V315.09C129.67,314.86,129.7,314.62,129.72,314.38Z" transform="translate(23 -257)"/><path class="cls-3" d="M60.71,366.44c0-3.52,0-7,.08-10.57l.71,0q0,5.88,0,11.76l-.72-.05,0-.29Z" transform="translate(23 -257)"/><path class="cls-1" d="M322.33,389.19H281.59l0-28.67V345.14h40.83q0,17.46,0,34.82C322.38,383,322.35,386.11,322.33,389.19Z" transform="translate(23 -257)"/><path class="cls-1" d="M353.49,389.15H323.32l0-35.22v-8.78c.24,0,.55,0,.86,0q14.21,0,28.4,0a4.53,4.53,0,0,1,1.06.25c0,.43-.08.87-.08,1.3q0,20.53,0,41.07C353.52,388.19,353.5,388.67,353.49,389.15Z" transform="translate(23 -257)"/><path class="cls-1" d="M383.05,389.14H354.28q0-18,0-35.91c0-2.63-.05-5.26-.08-7.89a2.92,2.92,0,0,1,.83-.25q13.71,0,27.44,0a6.61,6.61,0,0,1,.67,0v43.28C383.1,388.66,383.07,388.9,383.05,389.14Z" transform="translate(23 -257)"/><path class="cls-9" d="M258.79,345.14h21.94v44.2H258.79Z" transform="translate(23 -257)"/><path class="cls-4" d="M265.58,313.24h68.94v24.83H265.58Zm22.58,23.94v-23H266.41v23Zm1-23.05v23.05H311V314.13Zm22.78,23h21.86v-23H311.9Z" transform="translate(23 -257)"/><path class="cls-4" d="M159.22,389.92V366.51H235.9v23.41Zm.94-22.6V389.1h74.91V367.32Z" transform="translate(23 -257)"/><path class="cls-4" d="M60.76,367.62l.72.05V390H21.11c-.48,0-1,0-1.44,0l-.85-.06v-22.5l.85,0v21.67H36.61V378.44H32.27v4.83c0,1.6,0,3.2,0,4.8a3.53,3.53,0,0,1-.34,1c-.14-.35-.31-.69-.42-1.05a2.39,2.39,0,0,1,0-.6V367.28H19.71v-.84h41c0,.3,0,.59,0,.89H47.12v21.78H60.76ZM36.61,377.5V367.34H32.33V377.5Zm.92,11.59h4.15V378.45H37.53Zm4.19-11.59V367.32H37.55V377.5Zm.88,11.6h3.59V378.43H42.6Zm0-21.8v10.17h3.61V367.3Z" transform="translate(23 -257)"/><path class="cls-4" d="M152.36,390h-69V366.53h69ZM107,367.23v21.88h44.65V367.23ZM106,389.12V367.26H84.17v21.86Z" transform="translate(23 -257)"/><path class="cls-1" d="M374.83,312.54v23.21H360.58V312.54Z" transform="translate(23 -257)"/><path class="cls-1" d="M380.22,324.49h4.19v11.25h-4.19Z" transform="translate(23 -257)"/><path class="cls-1" d="M384.42,323.51h-4.17v-11h4.17Z" transform="translate(23 -257)"/><path class="cls-9" d="M385.34,324.5h3.57v11.21h-3.57Z" transform="translate(23 -257)"/><path class="cls-9" d="M379.3,335.74h-3.55V324.5h3.55Z" transform="translate(23 -257)"/><path class="cls-9" d="M385.34,312.5h3.57v11h-3.57Z" transform="translate(23 -257)"/><path class="cls-9" d="M375.71,323.5V312.55h3.59V323.5Z" transform="translate(23 -257)"/><path class="cls-9" d="M60.76,367.62v21.49H47.12V367.33h13.6Z" transform="translate(23 -257)"/><path class="cls-1" d="M288.16,337.18H266.41v-23h21.75Z" transform="translate(23 -257)"/><path class="cls-9" d="M289.12,314.13H311v23.05H289.12Z" transform="translate(23 -257)"/><path class="cls-9" d="M311.9,337.16v-23h21.86v23Z" transform="translate(23 -257)"/><path class="cls-9" d="M160.16,367.32h74.91V389.1H160.16Z" transform="translate(23 -257)"/><path class="cls-9" d="M19.71,367.28H31.48v20.13a2.39,2.39,0,0,0,0,.6c.11.36.28.7.42,1.05a3.53,3.53,0,0,0,.34-1c0-1.6,0-3.2,0-4.8v-4.83h4.34v10.64H19.67V367.41A.2.2,0,0,0,19.71,367.28Z" transform="translate(23 -257)"/><path class="cls-9" d="M36.61,377.5H32.33V367.34h4.28Z" transform="translate(23 -257)"/><path class="cls-9" d="M37.53,389.09V378.45h4.15v10.64Z" transform="translate(23 -257)"/><path class="cls-9" d="M41.72,377.5H37.55V367.32h4.17Z" transform="translate(23 -257)"/><path class="cls-9" d="M42.6,389.1V378.43h3.59V389.1Z" transform="translate(23 -257)"/><path class="cls-9" d="M42.61,367.3h3.61v10.17H42.61Z" transform="translate(23 -257)"/><path class="cls-9" d="M107,367.23h44.65v21.88H107Z" transform="translate(23 -257)"/><path class="cls-9" d="M106,389.12H84.17V367.26H106Z" transform="translate(23 -257)"/></svg>