<svg id="Layer_1" data-name="Layer 1" xmlns="http://www.w3.org/2000/svg" viewBox="0 0 950 950"><defs><style>.cls-1{fill:#48464a;}.cls-2{fill:#f18975;}.cls-3{fill:#817f81;}.cls-4{fill:#24252a;}.cls-5{fill:#525155;}.cls-6{fill:#ec604b;}.cls-7{fill:#c6c4c4;}.cls-8{fill:#9d9b9f;}.cls-9{fill:#f39b85;}.cls-10{fill:#333438;}.cls-11{fill:#434245;}.cls-12{fill:#8e8d90;}.cls-13{fill:#636164;}.cls-14{fill:#a8a5a5;}.cls-15{fill:#8e8e90;}.cls-16{fill:#5a585e;}.cls-17{fill:#a29fa1;}.cls-18{fill:#787676;}.cls-19{fill:#dcdada;}.cls-20{fill:#b1afae;}.cls-21{fill:#4d4d50;}</style></defs><path class="cls-1" d="M366.79,350.44a20.78,20.78,0,0,1,2.24-1.18L401.3,337.7l2.71-1L305,60.41l-1-2.71c.53-.19,1-.44,1.55-.62L426.45,13.77l2-.72c.23-.08.35-.41.51-.63l.45-.16c.34.78.71,1.55,1,2.34l84.92,237L567,233.09l73.62,205.47-39.42,14.12c.13.63.21,1.16.36,1.67l.72,2,126.47,353a27,27,0,0,1,.86,2.74,5.57,5.57,0,0,1-.81.29c-.34-.94-.6-2-1-3L601.42,456.47l-.73-2c-.24-.67-.31-1.18-.51-1.94l39.64-14.2L566.76,234.37l-50.84,18.22c.09,1.17.43,1.84,1.66,1.41l.65.51-2.51,1.13c-.69-2.32-1.29-4.67-2.1-6.94l-40-111.58L429.34,13.48,305.08,58l98.84,275.89c.65,1.8,1.25,3.62,1.85,5.44,0,.1-.11.27-.23.56l-1-1.08-36.34,13c-.16-1.28,1-1.05,1.61-1.28,5.93-2.18,11.89-4.26,17.83-6.39l15.12-5.42c.56-.2,1.5-.12,1.42-1.28-.6.21-1.15.3-1.67.49l-33.41,12c-.59.21-1.16.52-1.74.78Z"/><path class="cls-2" d="M296.15,197.6l.34,1-.55.19c-.59.21-1.23.34-1.83.55l-82.76,29.65c-.64.23-1.26.56-1.92.85a9.91,9.91,0,0,0,.24,1.08l11.12,30.88.37,1.05c.27.75.48,1.51.75,2.27l30.62,85.45.89,2.48.21.58-.89.31L180.56,152.43l.94-.33.63.29a15.71,15.71,0,0,0,.45,2.73l25.56,71.34c.27.73.6,1.44,1,2.38l86.43-31A2,2,0,0,1,296.15,197.6Z"/><path class="cls-3" d="M705.43,872.17a9,9,0,0,1,.21-2.2c.47-1.23,1.15-2.42,1.66-3.66a3.45,3.45,0,0,0,0-1.28l2.07-.69c-.93,2-1.9,4-2.79,6a5.72,5.72,0,0,0-.27,1.53Z"/><path class="cls-4" d="M579.05,910.31l19.41-7,118-42.29c.83-.3,1.66-.59,2.46-.93l.21.59-9.78,3.63c-.67.24-1.36.49-2.06.69l-10.27,3.74c-.2.23-.34.6-.58.67-1.44.38-3,.59-4.33,1.08q-55.6,19.92-111.21,39.79c-.84.3-1.73,1.34-2.77.35Z"/><path class="cls-1" d="M719.18,860.7l-.22-.6-12.19-34.25-1.3-3.6c-.2-.57,0-.92.66-.89l.22.6,13,36.19a10.56,10.56,0,0,1,.57,1.81C719.86,860.19,719.41,860.46,719.18,860.7Z"/><path class="cls-4" d="M706.32,822l-.21-.6,18.23-6.67,4.71-1.69a3.44,3.44,0,0,1,.81-.21c-.05.22-.12.43-.18.64l-19.13,7C709.17,820.9,707.75,821.44,706.32,822Z"/><path class="cls-1" d="M729.72,813.43c.06-.21.12-.43.17-.64C729.84,813,729.78,813.22,729.72,813.43Z"/><path class="cls-1" d="M354.12,490.47l-1.88.68,100.64,280.9,1,2.71,0,1c-.23-.16-.57-.26-.67-.47-.3-.64-.48-1.35-.73-2L351.18,490.69l30.65-11-32-89.44a21.09,21.09,0,0,1-.58-2.5l.56.32c.29,1,.52,1.84.84,2.74l31.11,86.81c.3.83.59,1.65.84,2.5l-17.26,6.18C361.55,487.71,357.84,489.1,354.12,490.47Z"/><path class="cls-5" d="M579.05,910.31l-.87.37c-.21-.6-.51-1.16-.73-1.76L521.68,753.24l-.49-1.36a.84.84,0,0,1-.23-.23l.08,0,.88-.26c.34.94.71,1.79,1,2.69l54.93,153.32C578.27,908.34,578.66,909.3,579.05,910.31Z"/><path class="cls-6" d="M182.06,152.34l-.63-.29,19-6.79,68.05-24.38a16.17,16.17,0,0,1,.8,1.55l26.94,75.21-.61.21c-.34-.94-.55-1.84-.87-2.73L268.48,122l-.63-.27-2.26.81-81,29Z"/><path class="cls-6" d="M308.29,231.49l11,30.65,20.51,57.24c.3.83.6,1.66.84,2.5l-.48.17-.09,0-.65-1.81-31-86.61a16.09,16.09,0,0,0-.71-1.78Z"/><path class="cls-6" d="M253.62,353.58l-.21-.57c.83-.3,1.68-.53,2.5-.83l81.67-29.26c.83-.29,1.64-.59,2.46-.93l.09,0,.17.48-1.58.57L255.19,353C254.68,353.24,254.15,353.4,253.62,353.58Z"/><path class="cls-4" d="M453.81,775.74l0-1c.83-.21,1.7-.34,2.51-.63l62-22.22c.81-.3,1.66-.54,2.5-.8l.17.46-.08,0a.35.35,0,0,0-.32.12c-.53.19-1,.44-1.55.63l-64,22.91A6.75,6.75,0,0,1,453.81,775.74Z"/><path class="cls-6" d="M295.92,198.73l.55-.2L308,230.58l-.61.22Z"/><path class="cls-2" d="M307.35,230.79l.58-.21.34.94-.58.21a.88.88,0,0,1-.39.05L307,231A.91.91,0,0,1,307.35,230.79Z"/><path class="cls-4" d="M701.72,872c.69-.72.93-.14,1.38.56l-1.18-.09Z"/><path class="cls-1" d="M357.52,370.09l.36-.76.5.33-.29.61Z"/><path class="cls-1" d="M357.88,369.33l.29-.62.5.33-.29.62Z"/><path class="cls-1" d="M358.17,368.71l.29-.61.5.33-.29.61Z"/><path class="cls-1" d="M358.46,368.1l.29-.61.5.33-.29.61Z"/><path class="cls-1" d="M358.75,367.49l.29-.62.5.33-.29.62Z"/><path class="cls-1" d="M359,366.87l.29-.61.5.33-.29.61Z"/><path class="cls-1" d="M359.33,366.26l.29-.62.5.33-.29.62Z"/><path class="cls-1" d="M359.62,365.64l.29-.61.5.33-.29.61Z"/><path class="cls-1" d="M359.91,365l.3-.62.49.34-.29.61Z"/><path class="cls-1" d="M520.68,751.78a.35.35,0,0,1,.32-.12.84.84,0,0,0,.23.23Z"/><path class="cls-1" d="M366.5,351.07l.29-.63.6.22-.32.59Z"/><path class="cls-1" d="M366.21,351.68l.29-.61.57.18-.29.61Z"/><path class="cls-1" d="M349.18,387.75l.3-.63.5.33-.24.62Z"/><path class="cls-1" d="M349.46,387.09l.29-.62.51.33-.29.62Z"/><path class="cls-1" d="M365.92,352.29l.29-.61.57.18-.29.61Z"/><path class="cls-1" d="M349.77,386.51l.29-.61.5.33-.29.61Z"/><path class="cls-1" d="M365.63,352.91l.29-.62.57.18-.28.62Z"/><path class="cls-1" d="M350.06,385.9l.29-.62.5.33-.29.62Z"/><path class="cls-1" d="M350.35,385.28l.29-.61.5.33-.29.61Z"/><path class="cls-1" d="M350.64,384.67l.29-.62.5.33-.29.62Z"/><path class="cls-1" d="M350.93,384.05l.29-.61.5.33-.29.61Z"/><path class="cls-1" d="M351.22,383.44l.29-.61.5.33-.29.61Z"/><path class="cls-1" d="M351.51,382.83l.29-.62.5.33-.29.62Z"/><path class="cls-1" d="M351.8,382.21l.29-.61.5.33-.29.61Z"/><path class="cls-1" d="M365.34,353.52l.29-.61.58.18-.29.61Z"/><path class="cls-1" d="M365.05,354.14l.29-.62.58.18-.29.61Z"/><path class="cls-1" d="M352.09,381.6l.29-.62.5.34-.29.61Z"/><path class="cls-1" d="M364.76,354.75l.29-.61.58.17-.29.62Z"/><path class="cls-1" d="M352.38,381l.29-.61.5.33-.29.62Z"/><path class="cls-1" d="M364.47,355.36l.29-.61.58.18-.29.61Z"/><path class="cls-1" d="M352.67,380.37l.29-.61.5.33-.29.61Z"/><path class="cls-1" d="M364.18,356l.29-.62.58.18-.29.61Z"/><path class="cls-1" d="M363.89,356.59l.29-.61.58.17-.29.62Z"/><path class="cls-1" d="M353,379.76l.29-.62.5.33-.29.62Z"/><path class="cls-1" d="M363.6,357.2l.29-.61.58.18-.29.61Z"/><path class="cls-1" d="M353.25,379.14l.29-.61.5.33-.29.61Z"/><path class="cls-1" d="M353.54,378.53l.29-.61.5.33-.29.61Z"/><path class="cls-1" d="M363.31,357.82l.29-.62.58.18-.29.62Z"/><path class="cls-1" d="M353.83,377.92l.29-.62.5.33-.29.62Z"/><path class="cls-1" d="M354.12,377.3l.29-.61.5.33-.29.61Z"/><path class="cls-1" d="M354.41,376.69l.28-.61.51.33-.29.61Z"/><path class="cls-1" d="M354.69,376.08l.29-.62.51.33-.29.62Z"/><path class="cls-1" d="M363,358.43l.29-.61.58.18-.29.61Z"/><path class="cls-1" d="M354.94,375.48l.29-.62.51.33-.29.61Z"/><path class="cls-1" d="M355.27,374.85l.29-.61.51.32-.29.62Z"/><path class="cls-1" d="M362.73,359.05l.29-.62.58.18-.29.61Z"/><path class="cls-4" d="M697.25,869.2l.28.78-.7-.35Z"/><path class="cls-4" d="M697.45,869.91l.53-.19.19.53Z"/><path class="cls-1" d="M362.44,359.66l.29-.61.58.17-.29.62Z"/><path class="cls-4" d="M698.06,870.2l.53-.19.19.53Z"/><path class="cls-4" d="M698.68,870.49l.52-.19.2.53Z"/><path class="cls-4" d="M699.29,870.78l.53-.19.19.53Z"/><path class="cls-4" d="M699.9,871.07l.53-.19.19.53Z"/><path class="cls-4" d="M700.52,871.36l.52-.19.2.53Z"/><path class="cls-4" d="M701.13,871.65l.53-.19.19.53Z"/><path class="cls-1" d="M362.14,360.24l.29-.62.57.18-.29.61Z"/><path class="cls-1" d="M355.57,374.27l.29-.61.51.33-.29.61Z"/><path class="cls-1" d="M361.86,360.89l.29-.62.58.18-.29.61Z"/><path class="cls-1" d="M361.61,361.49l.29-.62.58.18-.29.61Z"/><path class="cls-1" d="M355.85,373.62l.29-.61.51.33-.29.61Z"/><path class="cls-1" d="M356.18,373l.29-.62.5.33-.28.61Z"/><path class="cls-1" d="M361.28,362.11l.29-.61.58.18-.29.61Z"/><path class="cls-1" d="M356.43,372.4l.29-.62.5.33-.29.62Z"/><path class="cls-1" d="M356.7,371.74l.29-.61.51.33-.29.61Z"/><path class="cls-1" d="M361,362.77l.29-.62.57.18-.29.61Z"/><path class="cls-1" d="M357,371.17l.3-.62.49.33-.29.62Z"/><path class="cls-1" d="M357.31,370.55l.21-.46.57.18-.29.61Z"/><path class="cls-2" d="M340.35,322.49l-.17-.48.48-.17Z"/><path class="cls-1" d="M360.7,363.34l.29-.61.58.18-.29.61Z"/><path class="cls-1" d="M360.38,364l.29-.62.57.17-.29.62Z"/><path class="cls-1" d="M360.21,364.41l.21-.44.57.16-.29.62Z"/><path class="cls-7" d="M360.66,364.76l.29-.61.29-.62.29-.61.29-.61.29-.62.29-.61.29-.62.29-.61.29-.61.29-.62.29-.61.29-.61.29-.62.29-.61.29-.62.29-.61.29-.61.29-.62.29-.61.28-.61.29-.62.29-.61.32-.59c.59-.21,1.14-.57,1.74-.78l33.41-12c.52-.19,1.05-.32,1.67-.5.08,1.17-.87,1.09-1.42,1.29l-15.13,5.42-17.83,6.39c-.61.22-1.76,0-1.6,1.27l0-.05-.3.62h0l-.29.64h0l-.29.63h0l-.3.64h0l-.29.64h0l-.29.63h0l-.29.64h0l-.3.63h0l-.29.64h0l-.29.64h0l-.3.63h0l-.29.64h0l-.29.63h0l-.3.64h0l-.3.64h0l-.31.64h0l-.3.64h0l-.3.64h0l-.3.64h0l-.3.64h0l-.31.64h0l-.3.64h0l-.3.64h0l-.3.64h0l-.31.64h0l-.3.64h0l-.3.63h0l-.3.64h0l-.3.64h0l-.31.64h0l-.29.64h0l-.29.63h0l-.29.64h0l-.3.64h0l-.29.63h0l-.29.64h0l-.29.63h0l-.3.64h0l-.29.64h0l-.3.62h0l-.29.63h0l-.3.63h0l-.29.62h0l-.3.63h0l-.3.63h0l-.29.62h0l-.31.63h0l-.3.63h0l-.31.63h0l-.3.63h0l-.31.63h0l-.3.63h0l-.31.63h0l-.3.63h0l-.31.63h0l-.31.63h0l-.3.63h0l-.31.63h0l-.44.44a17.61,17.61,0,0,0,.51,2.7l31,86.61c.32.9.58,1.82.87,2.73l-.82.29c-.3-.83-.54-1.66-.84-2.49L350,392c-.33-1-.56-1.83-.84-2.74l.24-.62.29-.61.29-.61.29-.62.29-.61.29-.62.29-.61.29-.61.29-.62.29-.61.29-.61.29-.62.29-.61.29-.62.29-.61.29-.61.29-.62.29-.61.29-.61L355,377l.29-.61.29-.62.29-.61.29-.61.28-.61.29-.62.29-.61.29-.61.29-.62.29-.61.29-.62.29-.61.29-.61.29-.62.29-.61.29-.61.29-.62Z"/><path class="cls-8" d="M565.23,237.9l-25,8.89-19.56,7c-.82.3-1.67.5-2.51.74l-.65-.51c.67-.24,1.32-.56,2-.8l43.3-15.52a18,18,0,0,1,2.29-.52Z"/><path class="cls-9" d="M230.12,259.53c-3,1.07-6,2.14-9,3.26l-.37-1,9.06-3.07Z"/><path class="cls-10" d="M514.42,256l.26-.89.72.58c1.91,5.33,3.7,10.72,5.6,16.05l17.06,47.61-19.77,7.09,12.62,35.22,19.65-7,21.7,60.56-19.66,7,14.09,39.31,2.26-.81,65.25-23.38a15.21,15.21,0,0,0,2.21-1.2.77.77,0,0,0,.29-.1c0,.35.15.91,0,1a13.11,13.11,0,0,1-2,.82l-35,12.53a20.63,20.63,0,0,0-2.24,1.16l-.82.16a6.42,6.42,0,0,0-1.15.19l-27.47,9.84a8,8,0,0,0-1.2.7l5.21,14.52.54.32c3.76-1.35,7.55-2.64,11.31-4,6-2.15,12-4.35,18-6.54l.93-.22a1,1,0,0,1,.14.37l-1.2.82-29.19,10.46,5.93,16.55,29.63-10.61.94,0,.12.18v.22l-.41.29L579.13,495.4l-.25.59,2.5,7,11.06,30.85a1.72,1.72,0,0,0,.23.42.86.86,0,0,0,.18.14l.25.09a4.88,4.88,0,0,0,.66-.16l27.47-9.84a8,8,0,0,0,1.38-.82c.07,0,.15.12.19.11a2.16,2.16,0,0,0,.33-.27l.44.77c-.3.18-.6.35-.88.53l-29.56,10.59,7.35,20.5,29.58-10.6,1-.19.22.81-.69.25a11.14,11.14,0,0,0-1.39.31l-26.87,9.63c-.51.19-1,.46-1.61.76l6.65,18.57.58.31,29.3-10.5a7.24,7.24,0,0,1,.92-.22l.24.8-.74.27a11.61,11.61,0,0,0-1.16.3l-27,9.69c-.5.18-1,.42-1.6.7l14.72,41.11.58.35,0,.07.27.76a10.51,10.51,0,0,0,.31,2l7.11,19.84c.15.42.36.83.56,1.26l13.81-4.95L637,614.36l-.27-.91.88-.32.29.82c.18.68.31,1.39.55,2.06l17.07,47.64,15.07-5.4.93-.22.28.79-.76.27c-.38.14-.79.15-1.16.29l-28.66,10.27-.67-.06c-.27-.75-.59-1.48-.87-2.22-.83-2.33-1.27-5-2.74-6.85s-3.92-2.65-5.94-3.94c-.53-.34-1-.77-1.55-1.16,2.56.49,4.36,2.4,7.11,3.28L571.49,477c-6.49-18.14-13-36.26-19.49-54.41-.74-2.07-1.68-3.51-3.86-3.93l.28-.58,1.76.27a2.54,2.54,0,0,0,0-.48l-14.38-40.46a1.76,1.76,0,0,1-.06-.46.3.3,0,0,1,.12-.17l.35-.13,4.45,12.41a12.9,12.9,0,0,0,1.12,2,.84.84,0,0,0,.11.3l.68,2.39.11.87.34.69.28,1.12.25.7.27.74a.43.43,0,0,0,.07.42l.23.63.41,1.15.23.64a.4.4,0,0,0,.2.36l.27.75.25.7.63,1.13a.31.31,0,0,0,.24.35l1.26,3.8a39.3,39.3,0,0,0,3.59,9.66l18.73-6.71-3.47-9.7-.44-1.8-.64-1.8-.38-1.06-.68-.82-.06-.18-.11-.15c.33-.68.24-1.2-.53-1.48l-.05-.14,0-.14-.11-1.46-.24-.66-.83-1.17V390l-.06-.16v-1.07l-.38-1.05-.64-1.8-.82-1.22-.06-.16-.05-.15a10.51,10.51,0,0,0-.31-2l-9-25.06c-.18-.51-.41-1-.7-1.69l-19.76,7.08-29.8-83.17c6.64-2.46,13.18-4.72,19.75-7.15l-5.36-14.95A9.68,9.68,0,0,0,514.42,256Zm22.63,63-8.26-23.06-19,6.8,8.27,23.07Zm-35.41-38.92,7.78,21.71,19-6.82-7.77-21.71ZM640.78,668.58c1.63-.06,11.26-3.39,13.76-4.77l-9.14-25.5-13.7,4.91ZM552.24,421.45c3.14-.63,17.76-6,19.23-7.08l-.47-1.3c-.16-.45-.42-1-.61-1.47-3.25.7-17.71,6-19.16,7Z"/><path class="cls-5" d="M715.62,781.44l.44,1.22-7.78,2.78L716,807.06l6.87-2.47.78-.57,2.73,7.62-23.77,8.52,13.83,38.6-1.38.14-.05-.15-.14-.08a11.16,11.16,0,0,0-.3-2.44q-6.54-18.27-13.1-36.56c-.21-.58-.51-1.12-.83-1.82l-15.82,5.67L674,793.27c-1.54-.2-2.7,1.36-4.37.5l4.77-1.71,1.61,3.78L714.78,782ZM700.43,817.1l-9.17-25.6-14.86,5.32,9.18,25.61Zm7.93-7.29-7.76-21.66-8.21,2.94,7.76,21.66Zm15.27-4.42-23.17,8.31,2,5.65L725.66,811Zm-16.32-19.64-5.76,2.06,7.73,21.59,5.75-2.06Z"/><path class="cls-11" d="M550.07,823.82l-.3-.84.74-.27c.84-.23,1.7-.41,2.51-.69l24.13-8.64c.7-.11.56-.51.32-1L563.9,774.56l-.4-1.32a.73.73,0,0,1,.38-.14l.77.67c.66,3.43,2.23,6.54,3.29,10l11-4,1.07-.38.79-.21.34-.57-3.37-9.41-.3-.83,1.07.45c1,3.07,2,6.15,3.11,9.2.32.89.92.6,1.64,0l-2.44-6.83a29.39,29.39,0,0,0-1.3-2.72l.75-1.1,3.83,10.71,1.17-1,.34-.12a.94.94,0,0,0,1.32-.14.87.87,0,0,0,.17-.33l1-.06c.72-.14,1.18-.42.84-1.3q-1.71-4.44-3.41-8.89l.53-1,.3.84L590,776l1.17-1a2.74,2.74,0,0,0,.4-.15,1.15,1.15,0,0,0,1.6-.29.89.89,0,0,0,.16-.34l.42-.15,1.49-.07-3.53-9.84-.3-.84,1.07.47q1.53,4.5,3,9c.31.86.81.77,1.48.47l.84-.61c.7.35,1.1.1,1.43-.58l.34-.13,1.52-.06-3.83-10.69,1.08.44c.55,1.68,1.07,3.35,1.64,5s1.16,3.24,1.76,4.74c1.13,0,1.53-.42,1.21-1.24-1.12-3-2.27-5.95-3.41-8.92l.54-1,.29.82c.59,1.65,1.12,3.32,1.71,5s1.2,3.2,1.77,4.73c1.48-.2,1.13-.94.89-1.62l-3.14-8.52-.3-.83,1.26.35a5.46,5.46,0,0,0,.13,1.56l3,8.47,1.17-.41.84-.63a1,1,0,0,0,1.38-.32,2,2,0,0,0,.1-.21l.33-.12,1.44-.16.79.4c-.83.3-1.62.68-2.45,1l-38.59,13.83-2.41.86L571,791.6l35-12.53,7.66-2.75a3.19,3.19,0,0,1,1.15.06l.08.46-28.91,10.35,7.33,20.44,2.27-.81,24.13-8.65c.83-.3,1.69-.49,2.52-.73l-.39.83-1.17.41-.67.25-1.17.42-1,.37-1.13.4-.72.26-1.15.42-.71.25-1.45.52-.75.27-1.16.41-.67.25-1.15.41-1,.37-1.2.53,3.47,9.68a.44.44,0,0,0,0,.39l-.61-.17-3.5-9.77-1.2.35-.75.27-1.41.5-.75.27-1.16.49,3.51,9.77,0,.49-.63-.27-3.48-9.72-1.26.36-1,.37-1.15.41-.67.24-1.2.89-.38.14-1.76.23-.65.16-2.12.62-7.38-20.58-.37-.37-11.07,4,7.58,21.16L551,823.58Zm33.17-35.7,7.32,20.42,1.63-.69-7.29-20.33Z"/><path class="cls-12" d="M550.07,823.82l1-.25c.2.7.36,1.39.6,2.07l28.24,78.81c.24.66.53,1.3.9,2.18l131.18-47c.94-.34,2-.61,3-.91l.14.08,0,.15a13.59,13.59,0,0,1-2,1.12L582.36,906.9c-.67.24-1.36.41-2.18.64a14.14,14.14,0,0,1-.73-1.52l-29.13-81.3A7.35,7.35,0,0,1,550.07,823.82Z"/><path class="cls-13" d="M455,771.75c-.25-.67-.56-1.33-.79-2L354.87,492.44l-.41-1.13.86-.31.12.34a26.6,26.6,0,0,0,.71,2.93l98.27,274.27c.33.94.7,2,1.11,2.92Z"/><path class="cls-14" d="M715.62,781.44l-.8.57c-.19-.69-.33-1.4-.57-2.07L671,659.15l.76-.28c.3.82.71,1.61,1,2.43L714.9,779C715.17,779.75,715.38,780.6,715.62,781.44Z"/><path class="cls-15" d="M563.53,773.23l.4,1.32a7.79,7.79,0,0,0-2,.23l-23.68,8.48a14.25,14.25,0,0,0-1.56.79l13.85,38.67-.74.27c-.24-.67-.59-1.31-.83-2l-25.29-70.6c-.25-.68-.43-1.37-.64-2.06l.81-.69c.14.38.15.78.29,1.16l11.73,32.74a9,9,0,0,0,.72,1.25l2.83-1Z"/><path class="cls-16" d="M636.69,436a.59.59,0,0,1-.28.1c-.32-.89-.73-1.76-1.06-2.67L566.26,240.59c-.34-.94-.65-1.81-1-2.69l-.15-.71c.23.18.55.32.66.56a16.76,16.76,0,0,1,.64,1.8l69.49,193.93C636.19,434.32,636.43,435.17,636.69,436Z"/><path class="cls-16" d="M523.84,747.67l-.82.7a14.5,14.5,0,0,0-2.45.46l-63.2,22.64c-.72.26-1.45,1.12-2.36.34l.53-.31c.83-.29,1.67-.52,2.5-.82L589.46,723.6c.75-.27,1.51-.54,2.23-.87l.24.52-2.71,1Z"/><path class="cls-14" d="M671.47,658.05l-.93.23c-.21-.59-.32-1.23-.54-1.83l-16.48-46c-.21-.59-.5-1.17-.75-1.75l.92-.42c.19.53.45,1,.64,1.55L671,656.41C671.18,657,671.31,657.53,671.47,658.05Z"/><path class="cls-17" d="M637.62,566.08l.75-.27c.23.5.49,1,.68,1.52l14,39c.14.37.23.77.33,1.14a4,4,0,0,1-.92.26c-.16-.44-.2-.94-.35-1.38Z"/><path class="cls-18" d="M623.12,523.5a2.91,2.91,0,0,1-.33.26l-.19-.11-13.78-38.83.41-.29q6.54,18.24,13.13,36.46C622.66,521.83,622.87,522.66,623.12,523.5Z"/><path class="cls-19" d="M355.34,491l-.86.31-.35-.81c3.77-1.35,7.43-2.76,11.17-4.11l17.25-6.18.82-.29.28.78c-.94.34-1.9.8-2.88,1.15Z"/><path class="cls-20" d="M715.3,782.88l.77-.27L723.73,804l-.78.57c-.33-.94-.54-1.83-.86-2.73Z"/><path class="cls-20" d="M631,545.1l-1,.19c-1.21-3.38-2.31-6.8-3.53-10.17s-2.55-6.88-3.83-10.31l.87-.53Z"/><path class="cls-14" d="M638.13,565l-.93.22c-.29-.82-.49-1.67-.77-2.48l-5.88-16.59.68-.25c1.23,3.28,2.48,6.55,3.67,9.84C636,558.82,637.06,561.92,638.13,565Z"/><path class="cls-18" d="M601.75,467.71l1.2-.82,6.17,17.23-1,0a1.31,1.31,0,0,0,0-.48c-1.77-5-3.49-9.94-5.32-14.87C602.77,468.31,602.14,468.05,601.75,467.71Z"/><path class="cls-5" d="M652.42,607.7c.3-.11.61-.17.92-.26l.3.85c-.3.11-.59.26-.91.41q-7.46,2.67-14.89,5.29l-.3-.82Z"/><path class="cls-7" d="M596.69,451.69l.82-.16,5.36,15-.93.22Z"/><path class="cls-1" d="M521.05,751.57l-.17-.47c.44-.37.87-.53,1,.22Z"/><path class="cls-2" d="M268.45,121.87l-.63-.28Z"/><path class="cls-9" d="M307.32,231.76l-9.41,3.37,27.41,76.52c1.14,3.18,1.36,3-1.9,4.19L295.17,326c-.75.27-1.52.46-2.28.68l-.26-.72L325,314.33c-.73-3.48-27.23-77-28.32-78.61l-63.31,22.69c-.75.26-1.48.59-2.22.89l-.4-.92c.68-.25,1.32-.57,2-.81l72.48-26A15.51,15.51,0,0,1,307,231Z"/><path class="cls-21" d="M428.9,155.74c-.38-.08-1,0-1.08-.23-.52-1.17-.91-2.38-1.42-3.82l9.34-3.34L426.65,123,415.36,127l2.43,6.8-3.35,1.43-2.68-7.47-12.62,4.52L404.41,147l.63.27.73-.54.46.21L405,148.47l3.37,9.41,5.59-2c-.84-3.54-2.6-6.83-3.11-10.5,1.19,1.41,1.59,3.16,2.22,4.81s1.23,3.43,1.9,5.29l5.88-2.11-3.67-10.24c1.35,1,5.41,11.75,5.91,15l-21.76,7.79-10.89-30.4-9.42,3.37L348.65,48.36c-.34-.94-.71-1.79-1.06-2.67l-.11-.67.74-.26.35.6c.19.53.33,1.07.52,1.6l32.49,90.68,8.47-3-1.35-3.77,39.73-14.23c.21.58.46,1,.62,1.44l11.32,31.58a4.34,4.34,0,0,1,.41,1.37c0,.24-.41.49-.64.74l-.23-.64-11.72-32.74a4.77,4.77,0,0,0-.52-.87l-16.46,5.9L415,134.09l1.71-.81-2.47-6.89,12.83-4.6,9.68,27-9.26,3.31,1.08,3Zm-26-7.1-.21-.59c1.31-.24.87-1.06.61-1.8l-4.29-12c-.2-.56-.46-1.12-.7-1.67l-7.13,2.56,1.88,5.25a54.38,54.38,0,0,0,2,5.39c.73,1.53.37,3.65,2.35,4.48-.95,2,.71,3.55,1.14,5.31a50,50,0,0,0,1.82,5.1l7.25-2.6-3.16-8.82c-.3-.8-.91-.7-1.54-.63Zm-1.05,16,20.33-7.28-1-2.91-20.33,7.29Zm-5-36.14-7,2.51,1.1,3.08,7-2.52Zm13.28-4.76-5.58,2,1.11,3.07,5.57-2Zm-6.71,2.4-5.64,2,1.09,3.06,5.65-2Z"/><path class="cls-3" d="M347.5,45l.12.67-38.93,14a16.35,16.35,0,0,0,.35,1.62l.72,2,89.75,250.48c.33.94.7,2,1,3a.36.36,0,0,1-.35.2c-.29-.82-.69-1.61-1-2.44L307.71,59.21c.74-.35,1.29-.66,1.87-.87l36.35-13A14.13,14.13,0,0,1,347.5,45Z"/><path class="cls-21" d="M398.56,59.77c-2.82,1-5.74,1.94-8.6,2.95l-21.22,7.6-2.15.77L357.23,45c-.29-.82-.69-1.62-1-2.42l-.16-.71a5.53,5.53,0,0,0,.79-.34l.67.47a9.06,9.06,0,0,0,.24,1.79l8.89,24.8c.17.49.41.92.65,1.44l24.6-8.81-10-27.79-.25-1,.84-.24.38.79a9.77,9.77,0,0,0,.25,1.17q4.51,12.62,9.05,25.25a8.64,8.64,0,0,0,.72,1.34,4.23,4.23,0,0,0,.62-.11L436.36,45.3a5.17,5.17,0,0,0,1.13-.78l.37-.13,5.51,15.4c.43,1.18.85,2.36,1.22,3.56a.36.36,0,0,0-.28.1c-.09-.11-.17-.22-.25-.34l-.24-.68-6-16.74c-.68.24-1.3.35-1.92.56L400.06,59.09C399.56,59.28,399.06,59.54,398.56,59.77Z"/><path class="cls-18" d="M513,255.49c-.27-.75-.48-1.53-.75-2.27L451.2,83c-.27-.75-.54-1.51-.87-2.24l.63-.22c.27.75.49,1.52.76,2.27l61,170.23c.27.75.53,1.49.85,2.23Z"/><path class="cls-12" d="M437.86,44.4l-.37.13c-.29-.82-.67-1.62-1-2.45l-9-25.07L382.88,33l-.37-.78,43.8-15.7a15.09,15.09,0,0,1,1.48-.34c.24.66.54,1.21.75,1.78l8.56,23.92C437.39,42.71,437.61,43.55,437.86,44.4Z"/><path class="cls-4" d="M384.34,480.92a.38.38,0,0,1-.41.15l-.34-.45-.28-.79c-.32-.89-.55-1.83-.87-2.72l-31-86.61a16.78,16.78,0,0,1-.5-2.71l.36.71,16.82,47,16.1,44.94Z"/><path class="cls-16" d="M354.14,387.87c.3.83.54,1.68.83,2.5l31,86.4c.32.89.75,1.76,1.13,2.64l-.46.48a2.5,2.5,0,0,1-.23-.23c-.33-.94-.64-2-1-3l-30.86-86.12c-.3-.82-.53-1.66-.79-2.51A.93.93,0,0,0,354.14,387.87Z"/><path class="cls-4" d="M400.1,316.89a.34.34,0,0,0,.35-.2c.91-.25,1.85-.44,2.74-.76l34.92-12.51c.74-.26,1.52-.45,2.28-.67l-.4.85-39.13,14-.52.06Z"/><path class="cls-21" d="M451,80.53l-.62.22L411.56,94.64a.64.64,0,0,0-.4.07l-.61.22-.3-.86.61-.22,31.06-11.13c2.71-1,5.41-1.93,8.08-3l.57-.2Z"/><path class="cls-13" d="M513,255.49l.62-.22c.54,0,1.23-.21.91.73l-28.24,10.12,1.15,3.84c-1.35-1.07-1.52-1.45-2.24-4.51Z"/><path class="cls-18" d="M431,332.32,373.19,353l-2.71,1-.16-.43,13.5-4.84,44.54-16,2.47-.89Z"/><path class="cls-3" d="M381.66,32.44l.26,1c-3.69,1.33-7.38,2.65-11.08,3.9L357.5,42l-.68-.47q9.3-3.33,18.58-6.76C377.47,33.94,379.57,33.19,381.66,32.44Z"/><path class="cls-13" d="M440,303.66l.4-.86a3.34,3.34,0,0,1,.68.82l7.48,20.86c.21.59.8,1.38-.48,1.63l-.25-.48Z"/><path class="cls-18" d="M400.37,317.74l.51-.05,7.34,20.48-.47.17Z"/><path class="cls-18" d="M447.89,325.62l.24.47-13.7,5c-.83.3-1.63.66-2.43,1l-.27-.51Z"/><path class="cls-18" d="M450.58,79.54l-.57.2-1-2.67-4.76-13.63a.34.34,0,0,1,.27-.1l4.28,11.52Z"/><path class="cls-5" d="M431.73,331.53l.27.51,4.54,5.31-.5.46L431,332.32l-.17-.48Z"/><path class="cls-3" d="M356,41.85l.16.71-7.62,2.73-.36-.6C350.82,43.77,353.45,42.81,356,41.85Z"/><path class="cls-1" d="M384.34,480.92l-.08-.54,2.1-.76a1.67,1.67,0,0,0,.23.23l0,.22Z"/><path class="cls-3" d="M354.14,387.87a1.06,1.06,0,0,1-.42.15l.67-.78Z"/><path class="cls-1" d="M351.33,388.54l-.36-.71.44-.43Z"/><path class="cls-1" d="M358.64,372l.29-.64Z"/><path class="cls-3" d="M360.48,374.37l-.31.66Z"/><path class="cls-1" d="M358.93,371.43l.29-.64Z"/><path class="cls-3" d="M360.77,373.76l-.31.66Z"/><path class="cls-1" d="M359.23,370.84l.29-.64Z"/><path class="cls-3" d="M361.06,373.15l-.31.65Z"/><path class="cls-1" d="M359.5,370.2l.3-.64Z"/><path class="cls-3" d="M361.32,372.54l-.31.66Z"/><path class="cls-1" d="M359.78,369.58l.31-.64Z"/><path class="cls-3" d="M361.63,371.92l-.3.65Z"/><path class="cls-1" d="M360.05,369l.3-.64Z"/><path class="cls-3" d="M361.94,371.3l-.31.65Z"/><path class="cls-1" d="M360.35,368.31l.3-.64Z"/><path class="cls-3" d="M362.21,370.69l-.31.66Z"/><path class="cls-1" d="M360.67,367.74l.3-.64Z"/><path class="cls-3" d="M362.5,370.08l-.31.65Z"/><path class="cls-1" d="M361,367.13l.3-.64Z"/><path class="cls-3" d="M362.79,369.47l-.31.65Z"/><path class="cls-3" d="M370.3,353.52l.16.43-.45.21Z"/><path class="cls-3" d="M370,354.12l-.32.66Z"/><path class="cls-3" d="M369.75,354.74l-.32.65Z"/><path class="cls-1" d="M367.92,352.4l.29-.63Z"/><path class="cls-3" d="M369.46,355.35l-.32.66Z"/><path class="cls-1" d="M367.6,353l.29-.64Z"/><path class="cls-3" d="M369.19,356l-.32.65Z"/><path class="cls-1" d="M367.3,353.64l.29-.64Z"/><path class="cls-3" d="M368.88,356.58l-.32.65Z"/><path class="cls-1" d="M367,354.23l.3-.63Z"/><path class="cls-3" d="M368.57,357.2l-.31.65Z"/><path class="cls-1" d="M366.75,354.86l.29-.64Z"/><path class="cls-1" d="M351.38,387.37l.31-.63Z"/><path class="cls-1" d="M351.67,386.76l.31-.63Z"/><path class="cls-3" d="M368.3,357.81l-.32.65Z"/><path class="cls-1" d="M352,386.18l.3-.63Z"/><path class="cls-1" d="M352.25,385.53l.31-.63Z"/><path class="cls-1" d="M352.54,384.92l.31-.63Z"/><path class="cls-1" d="M352.8,384.32l.3-.63Z"/><path class="cls-3" d="M354.69,386.64l-.31.66Z"/><path class="cls-1" d="M366.47,355.5l.29-.64Z"/><path class="cls-3" d="M368,358.42l-.32.65Z"/><path class="cls-1" d="M353.11,383.65l.31-.63Z"/><path class="cls-1" d="M366.17,356.08l.29-.63Z"/><path class="cls-3" d="M367.72,359l-.31.66Z"/><path class="cls-3" d="M355,386l-.3.66Z"/><path class="cls-1" d="M365.88,356.7l.29-.64Z"/><path class="cls-3" d="M367.43,359.65l-.31.65Z"/><path class="cls-1" d="M353.41,383.08l.31-.63Z"/><path class="cls-1" d="M365.59,357.31l.29-.63Z"/><path class="cls-3" d="M367.14,360.26l-.31.66Z"/><path class="cls-3" d="M355.31,385.4l-.31.66Z"/><path class="cls-1" d="M353.7,382.46l.31-.63Z"/><path class="cls-3" d="M355.55,384.8l-.3.66Z"/><path class="cls-1" d="M365.3,357.93l.29-.64Z"/><path class="cls-3" d="M366.85,360.87l-.31.66Z"/><path class="cls-1" d="M354,381.84l.31-.63Z"/><path class="cls-1" d="M365,358.54l.29-.64Z"/><path class="cls-3" d="M366.56,361.49l-.31.65Z"/><path class="cls-3" d="M355.84,384.18l-.3.67Z"/><path class="cls-1" d="M364.72,359.15l.29-.63Z"/><path class="cls-3" d="M366.27,362.1l-.31.65Z"/><path class="cls-1" d="M354.28,381.24l.31-.63Z"/><path class="cls-3" d="M356.13,383.57l-.3.66Z"/><path class="cls-1" d="M354.57,380.62l.31-.63Z"/><path class="cls-3" d="M356.42,383l-.31.66Z"/><path class="cls-1" d="M354.86,380l.3-.63Z"/><path class="cls-3" d="M356.72,382.36l-.31.66Z"/><path class="cls-1" d="M355.15,379.4l.3-.63Z"/><path class="cls-3" d="M357,381.73l-.31.66Z"/><path class="cls-1" d="M355.44,378.78l.3-.63Z"/><path class="cls-1" d="M364.43,359.77l.29-.64Z"/><path class="cls-3" d="M357.28,381.1l-.31.66Z"/><path class="cls-3" d="M366,362.72l-.31.65Z"/><path class="cls-1" d="M355.73,378.17l.3-.63Z"/><path class="cls-3" d="M357.58,380.5l-.31.67Z"/><path class="cls-1" d="M356,377.55l.3-.62Z"/><path class="cls-3" d="M365.69,363.33l-.31.65Z"/><path class="cls-3" d="M357.87,379.89l-.31.66Z"/><path class="cls-1" d="M356.31,376.94l.3-.63Z"/><path class="cls-1" d="M363.85,361l.3-.63Z"/><path class="cls-3" d="M365.4,363.94l-.31.66Z"/><path class="cls-1" d="M363.56,361.61l.3-.64Z"/><path class="cls-3" d="M365.11,364.56l-.31.65Z"/><path class="cls-3" d="M358.16,379.27l-.31.67Z"/><path class="cls-1" d="M356.6,376.33l.3-.63Z"/><path class="cls-1" d="M363.27,362.22l.3-.64Z"/><path class="cls-3" d="M364.82,365.17l-.31.65Z"/><path class="cls-1" d="M363,362.84l.3-.64Z"/><path class="cls-3" d="M364.52,365.76l-.31.65Z"/><path class="cls-1" d="M362.69,363.45l.3-.64Z"/><path class="cls-3" d="M364.24,366.4l-.31.65Z"/><path class="cls-3" d="M358.45,378.66l-.31.67Z"/><path class="cls-1" d="M356.9,375.72l.29-.63Z"/><path class="cls-1" d="M364.14,360.38l.3-.64Z"/><path class="cls-3" d="M358.74,378.05l-.31.66Z"/><path class="cls-1" d="M357.19,375.11l.29-.64Z"/><path class="cls-1" d="M362.4,364.06l.3-.64Z"/><path class="cls-3" d="M359,377.43l-.31.67Z"/><path class="cls-1" d="M357.48,374.49l.29-.63Z"/><path class="cls-3" d="M359.32,376.82l-.31.66Z"/><path class="cls-3" d="M364,367l-.31.65Z"/><path class="cls-1" d="M357.77,373.88l.29-.64Z"/><path class="cls-1" d="M362.11,364.68l.3-.64Z"/><path class="cls-3" d="M359.61,376.21l-.31.66Z"/><path class="cls-1" d="M358.06,373.27l.29-.64Z"/><path class="cls-3" d="M359.9,375.6l-.31.66Z"/><path class="cls-1" d="M358.35,372.65l.29-.63Z"/><path class="cls-3" d="M363.66,367.63l-.31.65Z"/><path class="cls-1" d="M361.82,365.29l.3-.64Z"/><path class="cls-3" d="M363.37,368.24l-.31.65Z"/><path class="cls-3" d="M360.19,375l-.31.65Z"/><path class="cls-1" d="M361.53,365.91l.3-.64Z"/><path class="cls-3" d="M363.08,368.85l-.31.66Z"/><path class="cls-1" d="M361.28,366.5l.31-.64Z"/><path class="cls-2" d="M292.61,325.86l.26.72L268.92,335l-10.17,3.64c-.42-1-.83-1.82-1.13-2.66L243.23,295.8,231.11,262c-.3-.82-.65-1.62-1-2.44l-.31-.84.88-.31.39.92,27.59,77c.15.42.38.83.65,1.42l5.51-2Q278.73,330.78,292.61,325.86Z"/><path class="cls-15" d="M565.83,401.25c-2.46.88-4.91,1.76-7.42,2.5-.57.2-1.33.79-1.78-.25l-2-6.46a4.32,4.32,0,0,1,.89-.24l.48,1.35,8.12-2.9.1.15.07.18-8.5,3.3c2,.4,6.07-.85,9.16-2.52l.38,1.06c-1.43.52-2.88.86-4.29,1.48s-3,.54-3.9,2.12a48.55,48.55,0,0,0,8.47-2.87l.38,1.07c-5.21,1.49-7.44,2.45-8.53,4l2.52-.91,4.71-1.68C565.3,400.43,565.87,400.33,565.83,401.25Z"/><path class="cls-15" d="M562.23,389.85l.06.17v.19l-8.1,2.9.48,1.37-.85.37c-.66-1.83-1.31-3.65-2.06-5.45-.07-.19-.08-.94-.65-.31l-.33-.66c.52-.19,1-.44,1.51-.65l.49,1.21,8.37-3,.38,1.06c-4.46,1.13-7.38,2.36-8.6,3.94,3.3-1.1,6.1-2.05,8.86-3.17l.38,1.05c-3.42.68-7.36,2.29-8.67,3.88C556.79,391.64,559.51,390.74,562.23,389.85Z"/><path class="cls-5" d="M637,614.37l-13.57,4.7-.27-.75,13.59-4.87Z"/><path class="cls-16" d="M560.37,384.75l-8,3c-.5.18-1,.43-1.5.65l-9,3a1.21,1.21,0,0,1-.11-.3l18.55-6.65,0,.15Z"/><path class="cls-15" d="M542.61,394.66l9.41-3.37.39,1.07-9.46,3Z"/><path class="cls-15" d="M546,403.67c2.13-.83,4.24-1.75,6.4-2.48a2.59,2.59,0,0,0,2-1.71l1.05,1.47-9.2,3.07A.3.3,0,0,1,546,403.67Z"/><path class="cls-13" d="M563.39,392c-2.29.82-4.59,1.57-6.88,2.36l-1.67.59.65,1.79h0a4.08,4.08,0,0,1-.89.25l-.79-2.2.85-.38c2.83-1,5.64-2,8.45-3.1Z"/><path class="cls-16" d="M548.09,418.77l-5.93-1.91c1.58-.56,2.45-.3,6.21,1.33Z"/><path class="cls-16" d="M553.31,397.82l-8.17,2.75a.53.53,0,0,0-.43.15l-.23-.64c2.56-.92,5.14-1.75,7.69-2.66.29-.1.47-.51.71-.77l.67.26.1.73Z"/><path class="cls-18" d="M543.23,396.47l8.54-3.06.78.47-.37.86a4.68,4.68,0,0,0-1.67-.09l-7,2.5Z"/><path class="cls-18" d="M554,399.52l-8.54,3.06-.25-.7c2.33-.83,4.69-1.58,7-2.5a5.17,5.17,0,0,0,1.24-1.14l.83.51Z"/><path class="cls-16" d="M544.27,398.16l8.07-3.05s.06-.12.11-.13l.3,0,.38.64-.33.65c-.34-.07-.74-.3-1-.2-2.57.92-5.14,1.84-7.68,2.84l-.23-.63A.54.54,0,0,0,544.27,398.16Z"/><path class="cls-16" d="M555.49,396.77l-.17-.46c2.72-1,5.44-1.91,8.18-2.82l0,.14.05.14Z"/><path class="cls-14" d="M641.15,669.73l-.67-.05Z"/><path class="cls-17" d="M622.55,617.89l.57.35Z"/><path class="cls-14" d="M607.33,575.43l.58.31Z"/><path class="cls-20" d="M579.13,495.4l-.25.59Z"/><path class="cls-7" d="M572.08,476.94l.54.32Z"/><path class="cls-19" d="M544.71,400.72a.53.53,0,0,1,.43-.15l-.22.51A.41.41,0,0,1,544.71,400.72Z"/><path class="cls-19" d="M544.27,398.16a.53.53,0,0,1-.42.15.43.43,0,0,1-.08-.42Z"/><path class="cls-17" d="M602.62,760.12c-.79-.36-.4-.78,0-1l5.27-1.89c.36.78.67,1.39.9,2l3,8.28a3.76,3.76,0,0,1,0,1.06l-.79-.4-3.47-9.68-1.19.36c-.4-.5-.62-.46-.63.22l-1.31.57,3.37,9.41-.83.63c-1-2.88-2-5.78-3-8.68C603.73,760.31,603.4,759.9,602.62,760.12Z"/><path class="cls-17" d="M579,779.68l-3.53-9.85-10.78,3.86-.77-.67,13.6-4.72.29.83-1.18.5,3.47,9.66Z"/><path class="cls-19" d="M602.65,805.1l1.41-.5,3.5,9.76-1.38.49Z"/><path class="cls-19" d="M589.76,764.72h0l3.62,9.45A1.16,1.16,0,0,1,592,775a1.33,1.33,0,0,1-.34-.16l-3.2-9.6,1.37-.49Z"/><path class="cls-19" d="M612.58,801.55,614,801l3.5,9.78-1.41.51Z"/><path class="cls-14" d="M599.87,817.87c-1.66.69-3.31,1.42-5,2.08-1,.36-1.44-.23-1.74-1.08-1.07-3.13-2.17-6.27-3.28-9.45l2.13-.62.16.46c-1-.09-1.34.32-1,1.25l3,8.48,1.26-.34.7-.25,1.27-.39c.42.15.88.39.92-.4l1.2-.43Z"/><path class="cls-19" d="M597.44,818.09l-1.27.39-3.52-9.82,1.75-.23,1.19,3.82Z"/><path class="cls-17" d="M585.68,766.22c-.83.3-1,.78-.71,1.62,1.09,2.85,2.13,5.72,3.2,8.58l-1,.06-3.37-9.41-1.34.39c-.4-.49-.63-.45-.63.23l-1.19.42-.3-.82c1.46-.57,2.91-1.17,4.38-1.7C585.1,765.44,585.84,765.19,585.68,766.22Z"/><path class="cls-17" d="M597.61,762l-1.22.43c-.44-.51-.63-.4-.63.23l-1.28.54,3.37,9.42-.84.62c-1-2.88-2.06-5.75-3-8.67-.3-.84-.76-1.11-1.58-.8-.77-.7,0-1,.41-1.13,1.47-.53,3-1,4.45-1.47Z"/><path class="cls-15" d="M620,809.94l1.24-.44-3.52-9.83,1-.37,3.5,9.75,1.22-.31.66-.24,1.14-.5.17.14a1.48,1.48,0,0,1,0,.47c-1.77.63-3.51,1.35-5.26,2l-.22-.32A.4.4,0,0,1,620,809.94Z"/><path class="cls-15" d="M598.88,806.42l3.49,9.75,1.26-.37.63.27a2.31,2.31,0,0,1,.1.28l-3.84,1.15a2.06,2.06,0,0,0,.5-2.31c-1.15-2.77-2.1-5.61-3.14-8.43Z"/><path class="cls-15" d="M610.09,813.49l1.23-.45-3.52-9.82,1-.37c1,2.83,2,5.65,2.92,8.52.32,1.07,1,1.2,1.86,1.45l-3.29,1.39-.22-.32A.41.41,0,0,1,610.09,813.49Z"/><path class="cls-14" d="M625.29,808l-3.48-9.72.39-.83a5.82,5.82,0,0,1,.71,1.11q1.73,4.56,3.4,9.14l-.85.45Z"/><path class="cls-5" d="M594.82,808.31l3.53,9.36c0,.78-.47.54-.92.4l-1.85-5.83-1.19-3.83Z"/><path class="cls-5" d="M605.43,815.16l-3.53-9.84.76-.27,3.49,9.75C606.1,815.36,605.92,815.65,605.43,815.16Z"/><path class="cls-5" d="M615.36,811.6l-3.52-9.84.74-.27,3.49,9.76C616,811.8,615.86,812.09,615.36,811.6Z"/><path class="cls-5" d="M599.55,817.26,596,807.42l.68-.24,3.8,10.32-.64.32Z"/><path class="cls-1" d="M614.73,800.72l3.52,9.84-.69.25L614.05,801Z"/><path class="cls-5" d="M604.78,804.29l3.53,9.83-.73.26-3.49-9.76Z"/><path class="cls-1" d="M592.67,808.66l3.52,9.82-.65.23-3.31-9.44-.16-.46Z"/><path class="cls-14" d="M607.56,814.36l.72-.26,1.2-.43.61.18.22.31-6,2.14a1,1,0,0,0-.1-.27l0-.49,1.2-.43c.5.49.67.21.77-.27Z"/><path class="cls-5" d="M610.66,802.18l3.52,9.84.15.62-.7.18L610,802.43Z"/><path class="cls-1" d="M620,809.94a.38.38,0,0,0,0,.37l-.61-.17-3.53-9.83.73-.26Z"/><path class="cls-16" d="M590.52,764.57l3.24,9.46a2.86,2.86,0,0,1-.41.15l-3.62-9.45c-.49-.62,0-.81.45-1Z"/><path class="cls-5" d="M581.8,767.68c0-.67.24-.71.63-.22l3.22,9.47-.34.12Z"/><path class="cls-5" d="M595.77,762.69c0-.64.19-.75.63-.23l3.23,9.47-.34.12Z"/><path class="cls-5" d="M606.37,758.89l3.22,9.47-.34.12-3.51-9.36C605.74,758.41,606,758.4,606.37,758.89Z"/><path class="cls-5" d="M624.16,808.49l-.66.23L620,798.84l.67-.24Z"/><path class="cls-16" d="M591.19,775l-3.51-9.36-.31-.87c.49-.12,1-.28,1,.5l3.19,9.59A1.74,1.74,0,0,1,591.19,775Z"/><path class="cls-17" d="M590.52,764.57l-.31-.87,1.26-.45.3.84Z"/><path class="cls-17" d="M601.68,760.56l-1.23.44-.3-.83,1.27-.45Z"/><path class="cls-17" d="M587.39,764.71l.31.87-1.22.44-.3-.84Z"/><path class="cls-15" d="M577.19,813.4l.32-.95C577.75,812.89,577.88,813.29,577.19,813.4Z"/><path class="cls-17" d="M580.83,779.1l.33-.57Z"/><path class="cls-14" d="M582.5,788.86l-.37-.37Z"/><path class="cls-18" d="M383.61,480.66l.34.45-28.49,10.21-.12-.34q12.71-4.55,25.39-9.19C381.71,481.46,382.65,481.05,383.61,480.66Z"/><path class="cls-5" d="M617.67,753.82l20.24-7.25-27.16-75.81,17.1-6.13L613,623l-49.58,17.77,28.5,79.54a14.83,14.83,0,0,1,.66,2c.07.2-.39.51-.61.77l-.24-.52c-.33-.94-.65-2-1-2.94L548,600.63c-1.23-3.42-1-3.11,2-4.16l6.31-2.26,2-.72c3.71-1.33,7.42-2.66,11.11-4l1-.37a3.63,3.63,0,0,0,0-1.23c-.7-2.12-1.5-4.19-2.25-6.29L565.88,575l-14,5-.4.14c0-.19,0-.52.15-.58a12.22,12.22,0,0,1,1.55-.62q19.3-6.91,38.58-13.89c.37-.13.75-.2,1.27-.35l41.19,115-16.85,6c.17,2.07,7.07,21.9,9.39,27.1l16.43-5.89-6.25-17.47.46-.22a4.8,4.8,0,0,1,.7,1l11.25,31.4a3,3,0,0,1,0,.9l-.4.14-4.48-12.11-.94-2.63-16.43,5.88,11.55,32.23c2.27-.24,4.25-1.76,6.92-1.93-1.62,1.4-18.63,7.74-27.61,10.46ZM556.81,595.05a.42.42,0,0,0-.42.05L548.18,598l14.9,41.58,49.54-17.75L597.8,580.51l-.5-.1c-8.48,3-16.93,6.13-25.48,9.22L577,604.06a3.6,3.6,0,0,1,.14.92s-.11.12-.17.16a2.14,2.14,0,0,1-.3.17L571.16,590l-14,5Zm35.2-29.3-25.3,9.06,4.93,13.75,25.68-9.2-2.23-6.22-14.71,5.27a2.13,2.13,0,0,1-.1-.49c4.78-1.88,9.58-3.74,14.59-5.7L592.63,566ZM616.69,685l16.36-5.86-4.87-13.6-16.36,5.86Z"/><path class="cls-11" d="M662.3,670.41l37.38,104.33-21.78,7.8-6-16.66L693,758.33l-4.46-12.43-21,7.54-7-19.44,21-7.54-5.4-15.06a6,6,0,0,0-.94.19L657.42,718c-.88.32-2,.45-1.39,2.23-1.31-1.8-13.93-36.43-15.43-42Zm-.38,1-20.39,7.3,9.16,25.56,20.39-7.3Zm31.46,87.79L673,766.53l5.33,14.89,20.38-7.31Zm-38-41.63,20.41-7.31L671.4,698,651,705.31Zm29.46,18.07-3-8.36-20.34,7.28,3,8.37ZM688.2,745l-3-8.35L665,743.88a26.53,26.53,0,0,0,3.13,8.29Z"/><path class="cls-4" d="M449.82,299.33q13.53-4.84,27.05-9.76l14.9-5.34-1.8-5,.35-.13c.16.14.4.25.46.41l51.87,144.77c-.7.31-1.26.57-1.85.78l-39.72,14.23a9.37,9.37,0,0,1-2.18.28A8.18,8.18,0,0,0,500,439l41.67-14.93L499.92,307.62,458.5,322.46l-.23-.62L499.7,307l-7.88-22-1.42.51-38.53,13.8c-.6.22-1.18.5-1.76.76l-.17-.08Z"/><path class="cls-1" d="M562,563a1,1,0,0,1-.33.06l-.37-.71h0l.94-.34,25.54-9.15-2.44-6.81L571.54,551l-.24-.68,13.79-5.1-2.19-6.12c-.46.16-.85.22-1.2.35l-23.25,8.32a9.67,9.67,0,0,0-1.21.69l-.75.27-.55.2-.77.27c-2.47.8-4.94,1.58-7.41,2.4l-4,1.43.4,1.13.36,1,.19.91a.94.94,0,0,0-.28.1,19,19,0,0,0-1-2.37c-.3-.6-.7-.47-1.05,0l-.38.14c-1,.23-2,.41-2.93.73l-6.59,2.36L517.08,514l51.19-18.34L589,553.41l-26,9.31Zm-6.46-15.31.49-.33h1.07l25.41-9.1-14.93-41.7-49.43,17.71,15,41.85,8.43-3.5,1.35-.49.36-.13a5.48,5.48,0,0,0,1.34-.11l10-3.6.87-.53Z"/><path class="cls-11" d="M386.52,121.41c-.39.38-.83.66-1.08,0-.39-.92-.7-2-1.05-2.93L371.61,82.78c-.18-.52-.31-1.06-.5-1.71l21.59-7.73c1.16,1.64,12.56,32.82,14.84,40.55a4.81,4.81,0,0,1-.9.59l-11.95,4.28a6.36,6.36,0,0,1-1.38.18l-.08-.22-.08-.23-.83-3.25-7.4,2.65,1.4,3A3.9,3.9,0,0,0,386.52,121.41Zm13.12-27.08-.37-1-.49-1-.13-.79-.27-.74L398,90l-.27-1.09-.38-1-.27-.76-.23-.66L392.5,74.4l-20.27,7.26,3.57,10,.41.91.49,1.21.21.59.49,1.19.05.56.37,1,.42.83.28.79.21.91.36,1,.28.46.44,1.24.21.59.44,1.23,9.42-3.37,1.43,3.31a.19.19,0,0,0,0,.28h0l-.82.23-.25-1.32-9,3.24.43,1.21.1.51,3.1,8.66,7.65-2.74,1.63,3.93,6.21-2.23,6.24-2.23-4.48-12.5-.23-.66-.44-1.21-9.41,3.37-.21-.58c2.77-1,5.54-2,8.33-2.89.95-.34,1.32-.78.42-1.65l-9.19,3.3-.2-.55,9.41-3.37-.42-1.2-.24-.66ZM390,101.85l-.58-.38-8.84,3.16v.66c.4.17.88.56,1.22.44,2.54-.83,5.08-1.74,7.65-2.73C389.7,102.86,389.82,102.24,390,101.85Z"/><path class="cls-13" d="M438.39,451l-.94.33-.19-.54c-2.05-5.72-4.06-11.46-6.1-17.17a3.34,3.34,0,0,0-.83-1.42c-2.58-2.27-5.19-4.44-7.67-6.57l-40.48,14.5,9.69,27,5.71-2.05.26.48,1.45,3.9-.7.25-1.41-3.95-1.22.43-.82.67-1.43.12,1.42,4-.58.21-1.41-3.93-.5,0c-.15.4-.5.86-.41,1.21.29,1.05.74,2.07,1.11,3.1l.42,1.17.92,3.08L394,476c-1.62-4.5-3.4-8.95-4.93-13.48a5.29,5.29,0,0,0-3.31-3.7c-1.86-.69-3.63-1.66-5.42-2.53a2.66,2.66,0,0,1-1-.88c1.58-.2,2.74.82,4.06,1.36s2.55,1.21,4.3,2c-6.68-18.64-13.17-36.77-19.31-55,1.39,1.68,1.89,3.73,2.63,5.68s1.4,3.9,2.1,5.86l2.19,6.09,2.1,5.87.66.5a7.2,7.2,0,0,0,.17,1.79c.92,2.73,1.94,5.41,2.91,8.12a13.69,13.69,0,0,0,.75,1.48l40.83-14.63c2.56,2.2,5.07,4.41,7.66,6.54a5.86,5.86,0,0,1,1.85,2.69l6,16.71Z"/><path class="cls-13" d="M423.65,343.16l22.73-8.24,5.15-1.85c.26.73.6,1.33.83,2l34.58,96.52a7.47,7.47,0,0,1,.48,1.59c.05.15-.5.37-.77.57l-.19-.55c-.11-.3-.16-.62-.28-1l-17.92-50a9.22,9.22,0,0,0-.59-1.39l-2.37.85-14.41,5.16a3.24,3.24,0,0,1-3,0l.32-.61a13.14,13.14,0,0,0,2.32-.42l15.54-5.57a6.79,6.79,0,0,0,1.06-.58l-16.25-45.36L424,343.94Z"/><path class="cls-16" d="M601.91,842.83l-1.2-3.34,67.07-24,1.19,3.35Zm.49-1.16,65.52-23.47-.57-1.58-65.52,23.47Z"/><path class="cls-16" d="M364.81,497.28c.3.82.54,1.67.83,2.5L458.77,759.7c.32.9.71,1.78,1.07,2.66l-.58.26-30.59-85.38-63.76-178c-.3-.82-1.14-1.63-.44-2.64Z"/><path class="cls-18" d="M581.43,718.76c-.24-.85-.45-1.7-.74-2.52L487.46,456c-.29-.82-.69-1.6-1-2.4l.18-.68.5.44,95,265.17Z"/><path class="cls-14" d="M581.43,718.76l.68-.19c-.14.32-.2.8-.44.93a20.58,20.58,0,0,1-2.65,1.11L462.19,762.47a12.14,12.14,0,0,1-2,.66c-.24.08-.59-.33-.89-.51l.58-.26,2.71-1Z"/><path class="cls-8" d="M364.81,497.28l-.3-.67a18.69,18.69,0,0,1,2.11-1l117.06-41.94a10.62,10.62,0,0,1,2.07-.66c.18-.07.47.39.7.61L367.73,496.12C366.75,496.54,365.79,496.92,364.81,497.28Z"/><path class="cls-4" d="M386.63,480.11l0-.22.46-.48,6.9-2.48c1-.29,2.09-.08,2.51-1.26.8.11,1.57.12,2-.73a1.29,1.29,0,0,0,.44-.16l1.44-.51a.42.42,0,0,0,.37-.13l1.36-.22,1.15-.41,1.14-.68.43-.15,1.31-.23,1.16-.41,1.15-.69.91-.33a27.76,27.76,0,0,0,2.72-.69L488,443.15l2.42-.87c-.34,1-1.17,1.12-1.89,1.38l-44.7,16-54.6,19.56A23.3,23.3,0,0,1,386.63,480.11Z"/><path class="cls-4" d="M498.75,437.52c-.29-.83-.65-1.64-.94-2.47L458.53,325.43c-.34-.94-.65-1.8-1-2.68l.88-.17c.34.94.54,1.83.86,2.72L498.9,436c.33.94.59,1.81.89,2.73Z"/><path class="cls-18" d="M399,474.79a1.46,1.46,0,0,1-.44.16l-1.43-3.33c-1.26.07-1.46.59-1.24,1.5.13.74.22,1.48.28,2.22l-1.09-3-1.27.46-.42-1.17a12.29,12.29,0,0,1,1.19-.32l.7-.25c.38-.28.77-.55,1.14-.84h1.07l1.12-.4.71-.25,1.11-.56L399,465.22l-1.17.42-.26-.48c2.78-1,5.54-2.05,8.32-3q15.69-5.62,31.36-11.3l.19.54q-14.64,5.25-29.26,10.54a19,19,0,0,0-2.23,1.18h-1.07c-.32.28-1,.63-.94.81a15.94,15.94,0,0,0,1.11,3.08c.06.17.81,0,1.24,0l.81-.69a13,13,0,0,1,2.3,4.77l-1,.36c-.32-.89-.71-1.76-1-2.64s-.89-.75-1.52-.46l-.81.68-1.55.17,1.28,3.55-.44.16-1.3-3.64c-.6.46-.93.7-1.26.94h-1.06c-.65.24-1.21.44-.89,1.32s.59,1.81.88,2.7a.36.36,0,0,1-.36.13l-1.6-3.88c-.43.75-.84,1.14-.78,1.42C398.24,472.85,398.67,473.8,399,474.79Zm2.4-5.55c.53-.89,1-1.31.93-1.64a9.46,9.46,0,0,0-.87-2.42c-.09-.26-.6-.34-.91-.5-.15.32-.5.69-.43.94.28,1,.71,2,1.28,3.62Zm1.62-5.45c-1.24.92-1.13,1.7.47,4.08C404.58,467.06,404.57,467,403,463.79Z"/><path class="cls-10" d="M448.27,386.3l-.32.62c-2.59-.44-5.17-1-7.77-1.26-1.78-.19-2.5-1-3.08-2.67-4.27-12.12-8.67-24.21-13-36.3-.29-.82-.68-1.61-1-2.41l-.29-.8.87-.31.38.93,14.51,40.48Z"/><path class="cls-11" d="M635.31,804.52l5.44-1.94c-.89,1.3-2.08,1.8-5.61,2.67-1.36-2.55-11.25-30.54-11.18-32.33Z"/><path class="cls-13" d="M407.84,415.71a6.88,6.88,0,0,1,.24-.89q7.65-16.21,15.34-32.41l.62-.15a13.66,13.66,0,0,1-.61,2.19q-7.14,15.19-14.33,30.38c-.28.56-.62,1.1-.92,1.65Z"/><path class="cls-4" d="M398.58,59.74l6,16.74L443.8,62.43l.25.69L405.71,76.85a5.84,5.84,0,0,0-.8.48l5.91,16.52-.56.2c-1.59-4.43-3.24-8.83-4.83-13.24l-6.69-18.67C398.47,61.4,397.76,60.59,398.58,59.74Z"/><path class="cls-13" d="M422.78,343.48l.29.8-2.46.88L412,348.47l-.67.12c-7.2,2.58-14.39,5.16-21.62,7.64a3,3,0,0,1-2.75.26,14.2,14.2,0,0,1,1.64-.86l33.52-12A5.63,5.63,0,0,1,422.78,343.48Z"/><path class="cls-13" d="M670.25,782.18l-9.89-27.6c.67.54,1,.71,1.08.9C663,758.52,670.51,780.61,670.25,782.18Z"/><path class="cls-18" d="M486.46,433.17l.19.55L438.38,451l-.22-.59c.83-.3,1.68-.52,2.51-.81l27.73-9.94Q477.45,436.44,486.46,433.17Z"/><path class="cls-4" d="M457.16,321.55l-7.66-21.38L450,300l.18.07,7.71,21.53-.47,1.1-.21-.61Z"/><path class="cls-4" d="M411.3,348.59l.66-.12,12.11,33.78-.62.15Z"/><path class="cls-20" d="M645.17,787.78l-6-16.77,1-.26,5.93,16.39Z"/><path class="cls-10" d="M378.05,427.73l-.66-.51c3-1.07,6-2.05,9-3.12,7-2.52,14.06-5,21.07-7.62l.59.32a4,4,0,0,1-.78.51Z"/><path class="cls-8" d="M561.31,562.39l.37.71q-6.87,2.46-13.7,5c-.12,0-.3,0-.46-.06l-.15-.73Q554.33,564.84,561.31,562.39Z"/><path class="cls-4" d="M645.17,787.78l.84-.62,8.39-3-5.85-16.34.32-.77,6.31,17.62L645.76,788C645.61,788.07,645.37,787.86,645.17,787.78Z"/><path class="cls-5" d="M498.75,437.52l1,1.17a.21.21,0,0,1,.19.22v0l-1.07.53-8-2.68.15-.57a7.47,7.47,0,0,1,1.41.19c1.74.55,3.45,1.16,5.18,1.74C498.23,438.36,498.75,438.36,498.75,437.52Z"/><path class="cls-13" d="M648.89,767l-.33.76c-2.82,1-5.64,2-8.49,3l-1,.26c.15-.37.21-1,.47-1.08,3-1.11,5.95-2.13,8.94-3.2C648.63,766.73,648.78,766.94,648.89,767Z"/><path class="cls-5" d="M549.12,381.41l-3-8.52C547.37,373.64,549.43,378.91,549.12,381.41Z"/><path class="cls-16" d="M457.16,321.55l0,.54h0l-.65.49c-2.79-.23-5.57-.52-8.33-1l0-.56a15.14,15.14,0,0,1,1.65,0C452.32,321.13,454.74,321.34,457.16,321.55Z"/><path class="cls-13" d="M652.55,732.53c1.51,1.58,3.26,6.65,3,8.42A47.76,47.76,0,0,1,652.55,732.53Z"/><path class="cls-10" d="M617.67,753.82l.27.76a8.83,8.83,0,0,0,.21,1.78l2.9,8.08a5.26,5.26,0,0,1,.36,2.07,124.17,124.17,0,0,1-5.25-14.9Z"/><path class="cls-4" d="M410.57,94.91l.61-.22a.48.48,0,0,0,.15.44l5.49,15.31a2.84,2.84,0,0,1-.49.1c-.08,0-.19-.06-.2-.11Z"/><path class="cls-10" d="M625.46,808.13l.85-.45a23.16,23.16,0,0,0,2-1.56c1.07-1,2.08-2,3.18-3a9.62,9.62,0,0,1-6,5.46A1.06,1.06,0,0,0,625.46,808.13Z"/><path class="cls-16" d="M557,594l-.66.23-4-11.52c-.29-.82-.54-1.66-.81-2.5l.4-.14Z"/><path class="cls-16" d="M547.37,567.3l.15.73a5.82,5.82,0,0,1-.91-1.24L542,554l.37-.14Z"/><path class="cls-10" d="M585.77,812.61l3.3,9.22c-.77-.35-.77-.35-1.69-2.91l-2.91-8.11,1.25.23Z"/><path class="cls-4" d="M439.91,151.09l.22.62-11.23,4-.3-.65Z"/><path class="cls-18" d="M585.77,812.61l0-1.57,5.23,2.29c-1.19.85-1.77.07-2.44-.07C587.59,813.07,586.93,811.88,585.77,812.61Z"/><path class="cls-14" d="M619.43,810.14l.61.16.21.33c-2,.71-4,1.36-5.94,2l-.15-.62,1.2-.43c.5.49.67.2.76-.28l1.42-.5,1.88-.68Z"/><path class="cls-10" d="M574.87,570.06l-3.42-9.54.3-.1,3.4,9.48Z"/><path class="cls-8" d="M407.09,466.29l-.82.69-1.4-3.92h1.06Z"/><path class="cls-13" d="M393.13,118.54l.08.23.08.22-6.76,2.43a4,4,0,0,1-.16-.45Z"/><path class="cls-18" d="M360.55,388.69l-.64,1.44c-.85-.59-2.34-.22-1.91-1.92l.47.23c.54.78,1.09.91,1.62,0Z"/><path class="cls-18" d="M396.46,475.65c-.44,1.22-1.6,1-2.51,1.26l0-.89.67-.24c.63.6,1.11.41,1.51-.28A.89.89,0,0,0,396.46,475.65Z"/><path class="cls-5" d="M457.42,322.69l.47-1.09.46.21.22.63-.14.12-.89.18Z"/><path class="cls-12" d="M406.61,145.56l.48,0c0,.19,0,.44-.12.56s-.35,0-.52,0Z"/><path class="cls-18" d="M372.74,357c.24-.81.71-1,1.39-.5l-.19.44-.73.26Z"/><path class="cls-18" d="M374.79,356.77c1.11.66.31,1.23-.05,1.84l-.47-.17.29-1.24Z"/><path class="cls-17" d="M589.76,764.72l-1.39.5c-.71-.67-.09-.9.4-1.07S589.88,763.76,589.76,764.72Z"/><path class="cls-17" d="M599.67,761.2l-1.32.48c-.77-.66-.14-.91.36-1.09S599.85,760.22,599.67,761.2Z"/><path class="cls-17" d="M579.64,768.4l-1.13.41c-.71-.89.08-1.09.64-1.18S580,767.78,579.64,768.4Z"/><path class="cls-10" d="M593.32,823.55l1,.44-.16.42c-.41-.15-.82-.29-1.22-.45Z"/><path class="cls-16" d="M450,300l-.48.18.29-.83Z"/><path class="cls-8" d="M562,563l1-.36Z"/><path class="cls-18" d="M363.44,382.54l-.3.62-.45-.21.29-.61Z"/><path class="cls-18" d="M361.74,380.29l.32-.68.44.25-.29.62Z"/><path class="cls-18" d="M363.74,382l-.3.61-.45-.21.29-.62Z"/><path class="cls-18" d="M362.06,379.61l.29-.61.44.25-.29.61Z"/><path class="cls-18" d="M364,381.33l-.3.6-.45-.2.29-.62Z"/><path class="cls-18" d="M362.35,379l.29-.61.44.25-.29.61Z"/><path class="cls-18" d="M364.3,380.71l-.29.6-.46-.21.29-.61Z"/><path class="cls-18" d="M362.64,378.39l.29-.61.44.24-.29.62Z"/><path class="cls-18" d="M364.6,380.1l-.3.61-.45-.21.29-.62Z"/><path class="cls-18" d="M362.93,377.78l.29-.62.44.25-.29.61Z"/><path class="cls-18" d="M364.86,379.44l-.29.62-.46-.22.29-.61Z"/><path class="cls-18" d="M363.22,377.16l.29-.61.44.25-.29.61Z"/><path class="cls-18" d="M365.18,378.87l-.32.57-.46-.21.29-.62Z"/><path class="cls-18" d="M363.51,376.55l.29-.61.44.24-.29.62Z"/><path class="cls-18" d="M365.49,378.25l-.29.61-.46-.21L365,378Z"/><path class="cls-18" d="M363.8,375.94l.29-.62.44.25-.29.61Z"/><path class="cls-18" d="M365.75,377.64l-.28.62L365,378l.29-.61Z"/><path class="cls-18" d="M364.09,375.32l.29-.62.44.25-.29.62Z"/><path class="cls-18" d="M371.88,358.81l.32-.67.44.25-.29.61Z"/><path class="cls-18" d="M373.58,361.08l-.29.61-.46-.22.29-.61Z"/><path class="cls-10" d="M407.84,415.71l.34.77a.29.29,0,0,1-.13.32l-.59-.32Z"/><path class="cls-18" d="M371.59,359.42l.29-.61.47.19-.29.61Z"/><path class="cls-18" d="M373.29,361.69l-.29.62-.46-.22.29-.62Z"/><path class="cls-18" d="M374.16,356.48l.63.3-.24.43-.58-.29Z"/><path class="cls-18" d="M371.3,360l.29-.61.47.19-.29.62Z"/><path class="cls-18" d="M373,362.31l-.29.61-.46-.22.29-.61Z"/><path class="cls-18" d="M374.74,358.62l-.29.62L374,359l.27-.58Z"/><path class="cls-18" d="M374.45,359.24l-.29.61-.46-.22.29-.6Z"/><path class="cls-10" d="M590.14,822.68l-.6-.69.71.11Z"/><path class="cls-10" d="M590.76,823l-.62-.29.11-.58.62.29Z"/><path class="cls-18" d="M371,360.65l.29-.62.47.2-.29.61Z"/><path class="cls-8" d="M487.1,453.4l-.5-.44Z"/><path class="cls-18" d="M372.74,362.91l-.29.61-.46-.22.29-.61Z"/><path class="cls-10" d="M591.37,823.26l-.61-.29.11-.58.61.29Z"/><path class="cls-10" d="M591.48,822.68l.61.29-.12.59-.6-.3Z"/><path class="cls-10" d="M592.09,823l.62.29-.06.59-.68-.29Z"/><path class="cls-18" d="M367.83,367.4l.31-.67.45.24-.29.62Z"/><path class="cls-18" d="M370.73,361.26l.29-.61.46.19-.29.61Z"/><path class="cls-18" d="M372.42,363.53l-.31.57-.46-.22.29-.61Z"/><path class="cls-10" d="M592.71,823.26l.61.29-.42.42-.25-.12Z"/><path class="cls-18" d="M372.47,357.6c.09-.22.19-.42.29-.63l.47.21-.29.6Z"/><path class="cls-18" d="M374.16,359.85l-.29.61-.46-.21.29-.62Z"/><path class="cls-5" d="M456.55,322.54l.65-.49Z"/><path class="cls-18" d="M370.44,361.87l.29-.61.46.19-.29.62Z"/><path class="cls-18" d="M372.11,364.1l-.29.61-.46-.21.29-.62Z"/><path class="cls-18" d="M370.15,362.49l.29-.62.46.2-.29.61Z"/><path class="cls-18" d="M371.84,364.76l-.34.62-.46-.22.29-.61Z"/><path class="cls-18" d="M369.86,363.1l.29-.61.46.19-.29.62Z"/><path class="cls-18" d="M371.5,365.38l-.29.61-.46-.21.29-.62Z"/><path class="cls-18" d="M369.57,363.71l.29-.61.46.2-.29.61Z"/><path class="cls-18" d="M371.26,366l-.28.61-.47-.22.29-.61Z"/><path class="cls-18" d="M372.2,358.14l.26-.55.47.18-.29.62Z"/><path class="cls-18" d="M369.28,364.33l.29-.62.46.2-.29.61Z"/><path class="cls-18" d="M371,366.63l-.29.61-.47-.21.29-.62Z"/><path class="cls-18" d="M369,364.94l.29-.61.46.19-.29.62Z"/><path class="cls-18" d="M370.69,367.21l-.29.62-.47-.22.29-.61Z"/><path class="cls-18" d="M368.7,365.56l.29-.62.46.2-.29.61Z"/><path class="cls-18" d="M370.4,367.83l-.29.61-.47-.22.29-.61Z"/><path class="cls-18" d="M368.41,366.17l.29-.61.46.19-.28.61Z"/><path class="cls-18" d="M370.11,368.44l-.29.61-.47-.21.29-.62Z"/><path class="cls-18" d="M368.14,366.73l.27-.56.47.19-.29.61Z"/><path class="cls-18" d="M369.82,369.05l-.29.62-.46-.22.28-.61Z"/><path class="cls-18" d="M369.53,369.67l-.29.61-.46-.22.29-.61Z"/><path class="cls-12" d="M405,147.29l-.63-.27Z"/><path class="cls-18" d="M367.54,368l.29-.61.47.19-.29.61Z"/><path class="cls-12" d="M405.78,146.77l.48-.31,0,.51Z"/><path class="cls-18" d="M369.24,370.28l-.29.62-.46-.22.29-.62Z"/><path class="cls-18" d="M358,388.21l.29-.62.45.24-.27.61Z"/><path class="cls-18" d="M358.29,387.59l.29-.62.45.25-.29.61Z"/><path class="cls-18" d="M358.59,387l.29-.61.45.24-.29.61Z"/><path class="cls-18" d="M367.25,368.62l.29-.61.47.19-.29.62Z"/><path class="cls-18" d="M369,370.9l-.29.61-.46-.22.29-.61Z"/><path class="cls-18" d="M358.84,386.37l.29-.61.45.24-.29.61A3.06,3.06,0,0,0,358.84,386.37Z"/><path class="cls-18" d="M360.83,388.07l-.3.62-.44-.25.29-.58Z"/><path class="cls-18" d="M367,369.24l.29-.62.47.2-.29.61Z"/><path class="cls-18" d="M368.66,371.51l-.29.61-.46-.21.29-.62Z"/><path class="cls-18" d="M366.67,369.85l.29-.61.47.19-.29.61Z"/><path class="cls-18" d="M368.37,372.12l-.29.62-.46-.22.29-.61Z"/><path class="cls-18" d="M361.12,387.45l-.29.62-.45-.21.28-.61Z"/><path class="cls-18" d="M359.48,385.18l.31-.68.44.25-.29.61Z"/><path class="cls-13" d="M648.91,722.66a3.25,3.25,0,0,1,.4-.15l-.13.37Z"/><path class="cls-18" d="M366.38,370.47l.29-.62.47.19-.29.62Z"/><path class="cls-18" d="M368.08,372.74l-.29.61-.46-.22.29-.61Z"/><path class="cls-18" d="M359.16,385.74l.27-.56.46.19-.28.61Z"/><path class="cls-18" d="M366.11,371.07l.29-.61.47.19-.29.61Z"/><path class="cls-18" d="M367.79,373.35l-.29.61-.46-.21.29-.62Z"/><path class="cls-18" d="M365.79,371.67l.29-.61.48.19-.29.62Z"/><path class="cls-18" d="M367.5,374l-.29.62-.46-.22.29-.61Z"/><path class="cls-18" d="M361.41,386.84l-.29.61-.46-.2.29-.61Z"/><path class="cls-18" d="M365.49,372.31l.29-.61.47.19-.29.62Z"/><path class="cls-18" d="M359.72,384.47l.29-.61.44.24-.29.62Z"/><path class="cls-18" d="M361.7,386.23l-.29.61-.46-.2.29-.62Z"/><path class="cls-18" d="M360.08,383.89l.29-.62.44.25-.29.61Z"/><path class="cls-18" d="M362,385.61l-.29.62-.46-.21.29-.61Z"/><path class="cls-18" d="M367.21,374.58l-.29.61-.46-.22.29-.61Z"/><path class="cls-18" d="M360.32,383.29l.29-.61.44.24-.29.62Z"/><path class="cls-18" d="M362.28,385l-.29.61-.46-.2.29-.62Z"/><path class="cls-18" d="M360.61,382.68l.29-.62.44.25-.29.61Z"/><path class="cls-18" d="M365.23,372.94l.29-.61.47.19-.29.61Z"/><path class="cls-18" d="M366.92,375.19l-.29.62-.46-.22.29-.62Z"/><path class="cls-18" d="M362.57,384.39l-.29.61-.46-.21.29-.61Z"/><path class="cls-18" d="M360.9,382.06l.29-.61.44.25-.29.61Z"/><path class="cls-18" d="M362.85,383.78l-.28.61-.46-.21.29-.61Z"/><path class="cls-18" d="M361.19,381.45l.29-.61.44.24-.29.62Z"/><path class="cls-18" d="M364.93,373.53l.29-.61.47.19-.29.62Z"/><path class="cls-18" d="M366.63,375.81l-.29.61-.46-.22.29-.61Z"/><path class="cls-18" d="M363.14,383.16l-.29.62-.45-.21.29-.62Z"/><path class="cls-18" d="M364.64,374.15l.29-.62.47.2-.29.61Z"/><path class="cls-18" d="M366.34,376.42l-.29.61-.46-.21.29-.62Z"/><path class="cls-18" d="M361.48,380.84l.26-.55.47.19-.29.6Z"/><path class="cls-18" d="M364.38,374.7l.26-.55.47.19-.29.61Z"/><path class="cls-18" d="M366.05,377l-.3.61-.45-.21.29-.61Z"/><path class="cls-18" d="M373.87,360.46l-.29.62-.46-.22.29-.61Z"/><path class="cls-3" d="M401.78,147.85l.91.21.22.6-1.32-.39Z"/><path class="cls-15" d="M555.41,403.67l1.23-.18c.28,1-.5,1-1,1.23l-7.47,2.87c-.57-.64-.16-.95.41-1.21l4.62-1.65C553.9,404.45,554.65,404,555.41,403.67Z"/><path class="cls-15" d="M555.75,401.69c-.1.54.71,1.37-.51,1.55-1.66.5-3.32,1-5,1.52a14.65,14.65,0,0,1-2.9.79c1-1.5,2.72-1.54,4.13-2.17S554.34,402.25,555.75,401.69Z"/><path class="cls-15" d="M551.38,389.51l.37,1.05c-2.89,1-5.78,2.05-8.68,3,.07-.36,0-.94.24-1.05,1-.46,2.07-.74,3.08-1.18Q548.9,390.46,551.38,389.51Z"/><path class="cls-15" d="M552.51,393.25l.06.58-.76-.48Z"/><path class="cls-15" d="M554.25,398.69l.15.72a2.22,2.22,0,0,1-.46.06Z"/><path class="cls-15" d="M553.57,396.9l.11.73Z"/><path class="cls-15" d="M552.74,395l.38.64Z"/><path class="cls-17" d="M570.45,589.11l-1,.37-.51-1.18-11.08,4-.36-1,11.13-4-.41-1.15c.33-.33.54-.62-.17-.71l-.43-1.19-.27-.75-.54-1.07-11.08,4-.36-1,11.1-4-.38-1.23.21-.51-.42-.1-.5-1.2-11.08,4-.36-1,10.93-3.92-.11-.33L553.81,581l-.3-.58q5.79-2.14,11.56-4.27c.11,0,.3.09.84.25Z"/><path class="cls-16" d="M558.57,594.48l.3.83.36,1,.52,1.21,11.09-4,.21.59-11.12,4,.45,1.26.36,1,.3.85.36,1,.44,1.22,11.15-4,.22.6-11.18,4,1.23,3.44,11.16-4,.77-.21.16.61a5.65,5.65,0,0,1-.71.17l-11.17,4,.44,1.24.11.53-.68-.33-5.27-14.84Z"/><path class="cls-16" d="M557.65,593.72c-1.33-3.71-2.66-7.42-3.89-11.18a11.19,11.19,0,0,1-.27-2.15l.29.58a.37.37,0,0,0,.12.33l.37,1,.43,1.22,11.16-4,.42.11-.21.51-11.16,4,1.23,3.42.22.62.52,1.2,11.12-4c.71.08.5.38.17.71l-11,3.94.31,1.19.36,1,.45,1.25Z"/><path class="cls-16" d="M557.21,595l5.41,14.86-.56.2-5.18-14.46-.09-.51Z"/><path class="cls-8" d="M556.84,595.07l.08.51-.5-.46A.42.42,0,0,1,556.84,595.07Z"/><path class="cls-12" d="M597.8,580.51l-.5-.1Z"/><path class="cls-12" d="M592.64,566l-.63-.25Z"/><path class="cls-17" d="M536.43,537a3.15,3.15,0,0,1,.75-.55l13-4.67a4.13,4.13,0,0,1,.93-.08,19.51,19.51,0,0,1,.85,1.82L556.08,545c.3.82.7,1.6,1,2.4h-1.07L550.68,533l-.35.12,5.25,14.65-.07,0-.87.54-.4-1.13-11.13,4-.13-.64,9.68-3.47c1.19-.42,1.59-1,.8-2.08l-.23-.63-.44-1.23-.25-.69-.5-1.11-11.11,4-.37-1,11.14-4-.44-1.22-.2-.57-.44-1.22-11.06,4-.38-1,11.11-4L550,535l-.25-.68-.53-1.15-11.09,4-.52-.22-.1.42-.75.27Z"/><path class="cls-17" d="M555.17,549.2l.76-.27c1.62,4.28,3.3,8.54,4.61,13.15l-10.36,3.71a12.42,12.42,0,0,1-1.82.34l-.15-.69,10.95-3.92-.12-.32-10.93,3.91-.36-1,11.17-4-1.09-3-11.16,4-.37-1A82.18,82.18,0,0,0,557.39,556l-.32-.87c-3.69,1.37-7.45,2.52-11.07,4.11l-.36-1,11.15-4-.42-1.19c.44-.4.3-.57-.22-.61l-.46-1.27-11.18,4-.36-1,9.65-3.46C554.55,550.49,555.51,550.42,555.17,549.2Z"/><path class="cls-16" d="M553.26,544.33l.23.63-11.19,4,.68,1.53.13.64.18.9-.36.12-5.43-14.81.09-.42.52.22.38,1.2.24.66.42,1.18.37,1,.44,1.23,11.16-4,.2.57-11.12,4,.44,1.21.37,1,.42,1.18.24.66.44,1.23Z"/><path class="cls-5" d="M544.72,556.13a4.3,4.3,0,0,0,1.34,0c3.37-1.21,6.73-2.41,10.09-3.67.54,0,.67.21.22.61l-11.14,4,.43,1.21.36,1,.3.81.36,1,.44,1.23,11.16-4,.2.56-11.18,4,.44,1.23.37,1a.3.3,0,0,0,.11.32l.15.69c-.25-.26-.62-.48-.74-.8-1.09-3-2.18-6.1-3.21-9.17A1.09,1.09,0,0,1,544.72,556.13Z"/><path class="cls-17" d="M561.29,562.38l-4.79-13.6.76-.27,5,13.53Z"/><path class="cls-16" d="M536.75,537.64,542,552.52l-.38.14c-1.69-4.71-3.42-9.4-5.06-14.12a4.79,4.79,0,0,1-.06-1.51Z"/><path class="cls-13" d="M571.52,551l-.6,0,.37-.63Z"/><path class="cls-12" d="M375.8,91.63l17.58-6.3c.89-.32,1.78-.7,2.66-1l.38,1.06-9.34,3.34-.56.2c-.82.29-.41.89-.23,1.39l1.53,4.27L378.18,98l-.42-.83c2.62-.94,5.25-1.88,7.84-2.87a4.9,4.9,0,0,0,1-.81l-.3-.55-8.93,3.19-.05-.56,7.45-2.67c.61-.22,1.52-.31,1-1.68l-8.91,3.19-.21-.59,7.62-2.73c.67-.24,1.47-.45.74-1.65l-8.85,3.17Z"/><path class="cls-13" d="M386.52,88.83l.55-.2.43,1.21,9.34-3.35.24.66c-2.83,1-5.68,1.94-8.46,2.89-.59.21-1,.51-.63,1.21l.68.81-.06,1,1,2.82.68.73v1.07c.17.75.67.73,1.25.51l8.37-3.12.24.66c-2.6.93-5.21,1.79-7.83,2.67-.94.34-1.54.79-1.15,1.89l.84,2.34.59,1.14,9.24-3.31.24.66c-.83.3-1.69.47-2.52.76l-17.82,6.39-.1-.51,8.83-3.16.82-.23.51-.72Z"/><path class="cls-12" d="M379.32,101.12l-.27-.47c2.91-1.23,6-2,9.05-3.46-.43-.33-.57-.51-.65-.5-2.94,1-5.87,2-8.8,3l-.21-.92,9.78-3.5,1.65,5.56-.5.18-.55-1.2L380,102.92l-.21-.59c1.48-.53,3-1,4.46-1.6A19.46,19.46,0,0,0,388.66,99c-.64-1.24-1.36-.66-2-.46C384.24,99.37,381.78,100.25,379.32,101.12Z"/><path class="cls-14" d="M399.64,94.33l-9.33,3.34V96.6l8.91-3.32Z"/><path class="cls-15" d="M398.35,90.74,389,94.08,388.64,93c2.26-.81,4.54-1.54,6.81-2.28.82-.3,1.68-.48,2.52-.71Z"/><path class="cls-15" d="M389.29,94.82l9.34-3.35.13.79c-2.08.81-4.15,1.61-6.22,2.44-.94.34-1.92.79-2.88,1.18Z"/><path class="cls-14" d="M388,91.22l9.33-3.34.37,1-9,3.1Z"/><path class="cls-7" d="M391.3,104.1l.54-.44-.5.73a.21.21,0,0,1,0-.28Z"/><path class="cls-8" d="M396.35,470.14l-1.16-3.25c.26-.22.52-.44.82-.67l1.41,3.93Z"/><path class="cls-19" d="M396.18,475.51a.18.18,0,0,1-.08-.23c-.06-.74-.15-1.48-.28-2.21-.21-.89,0-1.41,1.24-1.51l1.43,3.34c-.47.83-1.24.82-2,.73A.66.66,0,0,1,396.18,475.51Z"/><path class="cls-8" d="M405.93,468.28l1.35,3.76-1.16.42-1-3.5Z"/><path class="cls-8" d="M402.11,473.93l-1.35-3.77h1.07l1.42,3.37A10.93,10.93,0,0,0,402.11,473.93Z"/><path class="cls-3" d="M398.27,147.33l-.27-.25.37,0Z"/><path class="cls-3" d="M398.37,147.11l.54.22c-.05,0-.08.2-.1.19-.18-.05-.36-.12-.54-.19Z"/><path class="cls-3" d="M399.9,147.85l-.53-.29.73-.14Z"/><path class="cls-3" d="M400.1,147.42l.52.34-.71.08Z"/><path class="cls-3" d="M401.58,148.27l-.53-.3a3.48,3.48,0,0,1,.73-.12Z"/><path class="cls-8" d="M571.09,594.14l-.61-1.7a3.94,3.94,0,0,0-.77.07c-3.49,1.25-7,2.5-10.44,3.8l-.37-1,11.71-4.19c1,1.17,3.92,8.85,4.59,12.16l-.78.22-.43-1.23-11.16,4-.36-1,11.16-4-1.08-3-11.16,4-.35-1c4.76-1.22,10-3.3,10.87-4.7a95.78,95.78,0,0,0-11.18,3.85l-.36-1,11.16-4Z"/><path class="cls-12" d="M574.65,604.06a4.32,4.32,0,0,1,.71-.17l1.2,1.8c-4,1.62-8,3-12,4.28l-.59-.16-.1-.52,11.18-4Z"/><path class="cls-8" d="M564,609.83l.59.16c-.85.2-1.66,1.51-2.54.06l.55-.2.72-.33Z"/><path class="cls-18" d="M567.59,584.23c-3.77,1.34-7.51,2.67-11.25,4l-.22-.61c3.77-1.35,7.45-2.74,11.17-4.11Z"/><path class="cls-19" d="M543,550.5l-.68-1.53,11.16-4c.8,1.09.4,1.67-.79,2.08C549.43,548.17,546.21,549.34,543,550.5Z"/><path class="cls-18" d="M552.86,543.08l-11.23,4-.24-.66,11.19-4Z"/><path class="cls-18" d="M550,535l-11.18,4-.24-.66,11.24-4Z"/></svg>