<svg id="Layer_1" data-name="Layer 1" xmlns="http://www.w3.org/2000/svg" viewBox="0 0 950 950"><defs><style>.cls-1{fill:#262626;}.cls-2{fill:#e94d47;}.cls-3{fill:#e6332f;}.cls-4{fill:#e73431;}.cls-5{fill:#51504f;}.cls-6{fill:#e73635;}.cls-7{fill:#f7bec0;}.cls-8{fill:#e94646;}.cls-9{fill:#202020;}.cls-10{fill:#464545;}.cls-11{fill:#ea544d;}.cls-12{fill:#e73732;}.cls-13{fill:#e8413c;}.cls-14{fill:#e73936;}.cls-15{fill:#e83e39;}.cls-16{fill:#fef5f6;}</style></defs><path class="cls-1" d="M230.36,496.1l-.48-1.32,1.24-.67a10.7,10.7,0,0,0,1.11-.3L303.87,468c.56-.2,1.11-.45,1.77-.74l-56.9-157.6L176.6,335.66c-.8.29-1.57.64-2.35.95l-1.38.28-.47-1.31a.84.84,0,0,0,.38-.21l.88-.32c.36-.13.75-.19,1.11-.32l72.06-26c.48-.18.91-.44,1.34-.64l-14.45-40-72.12,26c-.8.29-1.57.65-2.35,1l-1.38.27-.48-1.3a.84.84,0,0,0,.39-.22l.88-.31c.36-.13.75-.19,1.11-.32l71.88-25.95c.54-.2,1-.49,1.53-.72l-14.81-41c-.75.28-1.43.41-2.08.65l-70.78,25.55c-.57.21-1.12.51-1.68.76l-.87.23-.56-.17-.32-.87.3-.5.84-.39c.66-.19,1.34-.34,2-.57L217,224.25c7.19-2.59,14.39-5.19,21.55-7.85l.65,1.47-19.28,7,49.65,137.51,95.06,263.26-1.49.54L334,545.46a4.11,4.11,0,0,0-.43-.63c-.66.23-1.34.37-2,.6L260.75,571c-.57.2-1.12.5-1.68.75l-.9.33a.34.34,0,0,0-.38.14l-.63-1.75a.4.4,0,0,0,.38-.14l.94-.34a12.11,12.11,0,0,0,1.35-.34l71.65-25.87A16.93,16.93,0,0,0,333,543l-26.83-74.31L238,493.35c-2.11.76-4.21,1.58-6.3,2.37l-.89.32A.76.76,0,0,0,230.36,496.1Z"/><path class="cls-2" d="M323.91,14.87l68.73,190.66,1.19,3.29-1.66.35-.32-.87L323.57,19.18c-.23-.62-.54-1.21-.84-1.89L248.5,44.09l-.65-1.32,72-26a15.81,15.81,0,0,0,2.33-1.25Z"/><path class="cls-3" d="M258.25,572.07l.89-.32,29.39,81.4L304,647.58l59.16-21.43,1.48-.53,18.59-6.71a11.56,11.56,0,0,0,1.46-.61,18.55,18.55,0,0,1,1.57,2.73q13.27,36.59,26.43,73.19c-.46.16-.93.39-1.33.55l-26-71.92-1-2.68-19,6.85-10,3.62-65.11,23.51a20.17,20.17,0,0,0-2.41,1.22l-.63-1.75a7.46,7.46,0,0,0-.18-1.76Q272.67,611.94,258.25,572.07Z"/><path class="cls-4" d="M143.23,250.7l-.84.4L89.48,104.55A18.65,18.65,0,0,0,88.06,102l-.48-1.32L246.37,43.35l.35,1.37-.66.24-154.94,56c-.56.2-1.08.48-1.7.77Z"/><path class="cls-5" d="M246.71,44.71l-.34-1.37.16-.54.88-.31.45.28.65,1.32c.31.87.52,1.78.84,2.65l26.53,73.49-20.69,7.47c-.57.21-1.16.37-1.74.54h0l-.61-1.54,20.88-7.54-26.35-73C247.18,45.68,246.94,45.21,246.71,44.71Z"/><path class="cls-6" d="M231.14,494.12l-1.23.67-.16-.43a14.08,14.08,0,0,0-.42-2.42l-55.06-152.5a13.54,13.54,0,0,0-1.22-2.12l-.16-.44,1.38-.27Z"/><path class="cls-7" d="M246.53,42.8l-.16.54L87.6,100.67a9.72,9.72,0,0,1,1.82-1.13l91.13-32.9Z"/><path class="cls-8" d="M173,337.33a13.54,13.54,0,0,1,1.22,2.12l55.06,152.49a12.62,12.62,0,0,1,.42,2.43Z"/><path class="cls-8" d="M88.06,102a18,18,0,0,1,1.38,2.56l52.92,146.55-.3.49Z"/><path class="cls-8" d="M258.25,572.07q14.38,39.87,28.79,79.75a7.49,7.49,0,0,1,.18,1.77l-29.38-81.36A.37.37,0,0,1,258.25,572.07Z"/><path class="cls-6" d="M173.69,335.05l-.89.32q-6.84-19-13.69-37.91a8.63,8.63,0,0,0-1.09-1.7l-.16-.45,1.38-.27Z"/><path class="cls-7" d="M247.86,42.77l-.45-.28,74.75-27a16.81,16.81,0,0,1-2.33,1.25Q283.86,29.8,247.86,42.77Z"/><path class="cls-8" d="M230.36,496.1a.69.69,0,0,1,.42-.08l26.83,74.3a.38.38,0,0,1-.38.14Z"/><path class="cls-8" d="M157.79,293.81a.75.75,0,0,1-.38.21l-15-41.54.56.19Z"/><path class="cls-8" d="M158,295.76a9.15,9.15,0,0,1,1.06,1.68q6.85,19,13.69,37.91a.75.75,0,0,1-.38.21Z"/><path class="cls-9" d="M411.39,694.77c.45-.17.87-.37,1.32-.56s.74-.19,1.11-.32l78.42-28.32a8.36,8.36,0,0,0,1.07-.56L451.48,549.16l-81.19,29.31,14.37,39.82a13.17,13.17,0,0,0-1.46.6l-15-41.48L452.47,547l97.1,268.92,13.06-4.72c.52.1,1,.21,1.54.3l-.88,1.48-13.17,4.76,29.07,80.51c.16.43.38.84.56,1.26a15.4,15.4,0,0,0-1.53.63c-.11-.28-.16-.59-.27-.88L534.4,778.63a13.31,13.31,0,0,0-.67-1.37l-80.48,29.06-1.49.44-.46-1.27,1.31-.58c.37-.13.75-.19,1.12-.33l78.41-28.31a7.32,7.32,0,0,0,1.07-.57l-19-52.52-1.37.5-77.54,28a18.12,18.12,0,0,0-1.68.77,4.06,4.06,0,0,1-1.43.25l-.51-1.41,1.29-.64c.38-.19,1-.28,1.55-.46l79.22-28.6-19.86-55-1.89.68L414.91,695.1c-.58.21-1.14.48-1.71.72a6.35,6.35,0,0,1-1.39.36Z"/><path class="cls-9" d="M513,478.24l1.06-.39.79,1.47c.18.51.29,1.05.47,1.55l27.27,75.52,2.32-.83,41.71-15.06Q605.33,533.75,624,527l1.63-.58c.43.1.86.23,1.29.35l-.77,1.1-1.62.59c-.3.11-.6.15-.89.26l-79.08,28.55-1.35.49,27.95,77.4,2.22-.81,41.94-15.14q18.57-6.7,37.11-13.46c.55-.15,1.09-.28,1.63-.41l.41,1.14-1.51.72c-.29.11-.6.16-.89.26L572.94,636l-1.27.45,21,58.07,79.67-28.76c.51-.19,1-.44,1.49-.66l1.73-.31.39,1.1-1.48.78a7.37,7.37,0,0,1-1.32.39l-78.61,28.38a13.36,13.36,0,0,0-1.32.64l19.87,55,2.48-.89,70.55-25.47c2.76-1,5.53-2,8.26-3.07l1.64-.34.41,1.15-1.38,1c-.52.14-1.06.23-1.56.41l-78.4,28.31a15.26,15.26,0,0,0-1.47.68L655.52,869c.34.94.54,1.93.81,2.9l-.81.29a20.51,20.51,0,0,1-1.25-2.42l-27.93-77.36-1-2.82-15.6,5.63-.47-1.31,15.53-5.61L514.31,482.31c-.29-.8-.64-1.56-1-2.35Z"/><path class="cls-2" d="M655.47,872.17l.82-.3c.43-.16.9-.22,1.34-.38l78.64-28.39c.49-.18.92-.39,1.66-.7l-43-119,1.39-1,42.31,117.18,1.38,3.82-243.19,87.8a4,4,0,0,1-.47-.73L451.94,807.42a3.14,3.14,0,0,1-.17-.67l1.48-.44c.11.29.17.6.27.89l43.42,120.23c.19.55.48,1.07.79,1.76l80.51-29.07a11.56,11.56,0,0,0,1.54-.63c.88-.31,1.78-.53,2.65-.85l70.24-25.36C653.61,872.94,654.54,872.53,655.47,872.17Z"/><path class="cls-10" d="M392.15,209.18l1.66-.36.4,1.12c-.51.29-1,.58-1.54.86-.36.13-.75.18-1.11.31L319.92,237c-.5.18-1,.4-1.57.65l44.41,123,2.48-.89L422.68,339c4.8-1.74,9.58-3.53,14.38-5.28l1.73-.34.4,1.12-1.52.79c-.29.11-.61.15-.9.25l-72.3,26.11a10.88,10.88,0,0,0-1.22.64l48.8,135.17,5.44,15-1.46,1L301.24,195.56l-19.66,7.1-.1-1.89a.26.26,0,0,1,.29.07,19.79,19.79,0,0,0,2.42-.57L302,193.86l.33.67,14.5,40.14a6.23,6.23,0,0,0,1,1.41l47.73-17.23Q378.91,214,392.15,209.18Z"/><path class="cls-11" d="M416.11,513.51l1.45-1a10.93,10.93,0,0,0,1.12-.31l71.63-25.86c.54-.2,1.05-.51,1.66-.81l-1-2.78L459.8,396.48l-22.09-61.2,1.52-.79,53.31,147.67,1.1,3,19.38-7,.31,1.72c-7.52,2.72-15,5.33-22.47,8q-36.42,13.16-72.81,26.37C417.06,514.72,416.25,515,416.11,513.51Z"/><path class="cls-11" d="M514.88,479.33l-.78-1.47q39.66-14.33,79.29-28.68l3.86-1.39,28.37,78.58L624,527,596.2,450Z"/><path class="cls-11" d="M392.69,210.79l1.54-.85,44.58,123.45-1.73.33c-.29-.8-.52-1.62-.81-2.42L393.61,213.17C393.32,212.37,393,211.58,392.69,210.79Z"/><path class="cls-11" d="M654,605.29c-.54.13-1.08.26-1.63.41l-27.9-77.28,1.63-.59,26.93,74.6C653.4,603.39,653.72,604.33,654,605.29Z"/><path class="cls-11" d="M653,607.18l1.51-.72,21.06,58.31-1.73.32Z"/><path class="cls-11" d="M695.92,721.29l-1.64.34-19.86-55c.5-.26,1-.51,1.48-.78Z"/><path class="cls-3" d="M433.08,750.67c-.42.21-.91.43-1.29.64l-19.91-55.14c.44-.16.93-.24,1.39-.36Z"/><path class="cls-3" d="M452.67,804.88l-1.32.58-19-52.7,1.42-.26Z"/><path class="cls-12" d="M238.51,216.37l-18.24-50.74-8.68-24,41.28-14.9.61,1.54-39.9,14.41,10.84,30a1.87,1.87,0,0,0,.43.5.22.22,0,0,0,.29,0c4.84-1.64,9.69-3.25,14.5-4.93,1.49-.54,2.91-1.25,4.36-1.88l.19-.07-.07-.19-2.55-7.05a.21.21,0,0,0-.17-.23c-3.43,1.14-6.87,2.25-10.28,3.43l-8.06,2.91c-.34.12-.85-.25-1.27-.39a3.61,3.61,0,0,1,.73-.92,8.34,8.34,0,0,1,1.52-.54l37.45-13.53-4.56-12.63c-1.07-3-2.29-5.88-3.44-8.82.57-.2,1.16-.36,1.74-.54q9.51,26.34,19,52.79c2.44,6.75,4.92,13.5,7.39,20.26l.09,1.88-41.16,14.87c-.43.15-.88.25-1.32.38Zm1.53-.65,39.87-14.39-8.34-23.12L231.7,192.6Zm5-47.69-19.65,7.09,2.75,7.61,19.64-7.09Zm1-2.21,18.62-6.72-2.83-7.83L243.23,158Zm3.35,9.28L268,168.38l-2.75-7.62-18.64,6.73Zm-20.61,9.33,2.37,6.58,19.59-7.07-2.38-6.58Zm23.63-1.09L271,176.61,268.67,170l-18.6,6.71Z"/><path class="cls-6" d="M231.69,495.7,258.52,570l-.94.34L230.75,496Z"/><path class="cls-6" d="M143.85,252.42l14.83,41.08-.88.32-14.86-41.14Z"/><path class="cls-13" d="M609.67,795.24a15,15,0,0,1-2.34,1.32q-19.94,7.2-39.85,14.45a20.73,20.73,0,0,0-3,2c-.3.17-.81,0-1.22,0l.88-1.48c-.52-.09-1-.2-1.54-.3L533.9,731.6c-1.29-3.56-1.13-3.85,2.4-5.12L579.08,711c.22.63.54,1.22.77,1.85l28.8,79.77c.16.44.36.86.55,1.28ZM553.94,782l10.25,28.38,43.48-15.7-10.25-28.38Zm-9.89-27.38,43.49-15.7-9.3-25.74-43.47,15.69Zm25,2.2-21.4,7.73,2.72,7.53,21.39-7.73Zm4.47,6.95,20.29-7.33-2.74-7.6-20.26,7.32Zm-20.2,16.58,21.43-7.73-2.28-6.31L551,774.06ZM547,762.88l21.42-7.74-2.28-6.31-21.4,7.73Zm47.53-4.55-20.3,7.33,2.27,6.28,20.32-7.34Zm-6.32-17.51-20.32,7.34,2.28,6.31,20.31-7.34Z"/><path class="cls-5" d="M302.36,194.51a29.39,29.39,0,0,1,1.3,2.72l13.2,36.56c.29.79.65,1.55,1,2.33a6.27,6.27,0,0,1-1-1.41Q309.57,214.61,302.36,194.51Z"/><path class="cls-5" d="M281.84,200.81c6.38-2.3,12.75-4.65,19.13-7a3.43,3.43,0,0,1,1.06,0l-17.76,6.42A20.32,20.32,0,0,1,281.84,200.81Z"/><path class="cls-14" d="M397.31,521.77l-42.72,15.42L304.14,397.47,346.86,382Zm-71.12-67.62L355.39,535l39.83-14.38L366,439.77Zm-.59-1.62,39.83-14.38-19.49-54-39.86,14.4Z"/><path class="cls-15" d="M468.94,556.88l45.14-16.31L559.5,666.36l-45.15,16.3Zm44.24-14.4L471,557.7l14.38,39.82,42.17-15.23Zm-12.82,96.64,42.17-15.22-14.37-39.81L486,599.32Zm42.79-13.55L501,640.77l14.33,39.71,42.11-15.2Z"/><path class="cls-3" d="M342.22,369.59,299.6,385,254.2,259.23l42.62-15.39Zm-71.1-67.89,29.38,81.38,39.89-14.4L311,287.3Zm24.92-56-39.91,14.41,14.42,39.94,39.91-14.41Z"/><path class="cls-16" d="M228.78,184.43l19.59-7.07,2.38,6.58L231.15,191Z"/></svg>